# This file uses centimeters as units for non-parametric coordinates.

mtllib GrassLong.mtl
g default
v 0.636294 -0.497831 0.627624
v 0.636294 3.730326 -1.452917
v -0.298368 -0.497831 0.627624
v -0.298368 3.730326 -1.452917
v 0.636294 1.995190 0.336987
v -0.298368 1.995190 0.336987
v 0.636294 3.282336 -0.376748
v -0.298368 3.282336 -0.376748
v 0.636294 0.714200 0.554451
v -0.298368 0.714200 0.554451
v 0.636294 2.724379 0.070564
v -0.298368 2.724379 0.070564
v 0.636294 3.652732 -0.989018
v -0.298368 3.652732 -0.989018
v 0.636294 1.320216 0.462668
v -0.298368 1.320216 0.462668
v -0.043834 -0.272045 0.517680
v -1.423803 1.684596 -0.313343
v -0.293669 -0.263020 0.953797
v -1.673637 1.693622 0.122775
v -0.431241 0.997034 0.269486
v -0.681075 1.006059 0.705604
v -0.887932 1.582772 -0.004256
v -1.137766 1.591797 0.431862
v -0.201159 0.353341 0.414612
v -0.450993 0.362366 0.850730
v -0.627162 1.345866 0.150032
v -0.876996 1.354891 0.586149
v -1.204626 1.701169 -0.188128
v -1.454461 1.710194 0.247990
v -0.304954 0.659229 0.348821
v -0.554789 0.668255 0.784939
v 0.542530 -0.295759 0.966903
v 1.081439 1.204585 -0.144547
v 0.192161 -0.288838 0.806362
v 0.731070 1.211506 -0.305088
v 0.705197 0.677365 0.653846
v 0.354828 0.684286 0.493305
v 0.882568 1.126507 0.286108
v 0.532199 1.133427 0.125567
v 0.610327 0.183784 0.839614
v 0.259958 0.190705 0.679073
v 0.782831 0.944848 0.495946
v 0.432462 0.951769 0.335405
v 1.001019 1.217293 0.031511
v 0.650650 1.224213 -0.129030
v 0.653370 0.418338 0.755787
v 0.303001 0.425259 0.595246
v -0.377076 -0.028698 1.359879
v 1.673637 1.809768 0.798354
v -0.583606 -0.015407 0.649138
v 1.467108 1.823059 0.087613
v 0.139935 1.225238 1.233092
v -0.066595 1.238529 0.522352
v 0.823644 1.770319 1.044611
v 0.617114 1.783609 0.333870
v -0.176092 0.593295 1.313107
v -0.382622 0.606586 0.602367
v 0.425292 1.559072 1.156415
v 0.218762 1.572363 0.445674
v 1.321234 1.853311 0.901571
v 1.114704 1.866602 0.190830
v -0.034789 0.894271 1.277675
v -0.241319 0.907562 0.566934
v 0.074425 -0.027542 0.359042
v 0.536862 1.194348 -0.976279
v 0.462875 -0.034885 0.486846
v 0.925311 1.187005 -0.848475
v 0.199116 0.805855 0.027942
v 0.587565 0.798512 0.155747
v 0.352596 1.168129 -0.417731
v 0.741046 1.160786 -0.289926
v 0.124277 0.385850 0.231274
v 0.512727 0.378507 0.359079
v 0.264264 1.027730 -0.157319
v 0.652713 1.020386 -0.029515
v 0.461080 1.223288 -0.744287
v 0.849529 1.215945 -0.616482
v 0.157928 0.585887 0.140489
v 0.546377 0.578543 0.268294
v -0.129708 -0.017577 0.684112
v -0.924269 0.823687 -0.804044
v 0.417989 0.001735 0.402601
v -0.376572 0.842999 -1.085555
v -0.403167 0.708634 0.201901
v 0.144530 0.727947 -0.079611
v -0.661794 0.944971 -0.285062
v -0.114097 0.964284 -0.566573
v -0.248462 0.352237 0.478439
v 0.299235 0.371549 0.196928
v -0.520948 0.876437 -0.015739
v 0.026749 0.895749 -0.297250
v -0.820991 0.912930 -0.596987
v -0.273294 0.932242 -0.878498
v -0.319338 0.523571 0.352298
v 0.228359 0.542883 0.070787
v -0.199730 -0.133485 1.095789
v 1.163518 0.867689 0.138720
v 0.077319 -0.169332 1.452917
v 1.440566 0.831841 0.495848
v 0.357440 0.664642 0.743667
v 0.634489 0.628795 1.100796
v 0.793619 0.951580 0.434096
v 1.070668 0.915732 0.791224
v 0.053200 0.269664 0.940040
v 0.330249 0.233816 1.297169
v 0.568205 0.857815 0.599553
v 0.845254 0.821967 0.956681
v 1.026337 0.943824 0.252783
v 1.303385 0.907976 0.609911
v 0.194208 0.458985 0.849655
v 0.471257 0.423138 1.206783
vt 0.697827 0.000000
vt 0.697827 1.000000
vt 0.427434 0.000000
vt 0.427434 1.000000
vt 0.697827 0.500000
vt 0.427434 0.500000
vt 0.697827 0.750000
vt 0.427434 0.750000
vt 0.697827 0.250000
vt 0.427434 0.250000
vt 0.697827 0.625000
vt 0.427434 0.625000
vt 0.697827 0.875000
vt 0.427434 0.875000
vt 0.697827 0.375000
vt 0.427434 0.375000
vt 0.697827 0.000000
vt 0.697827 0.250000
vt 0.427434 0.250000
vt 0.427434 0.000000
vt 0.427434 0.500000
vt 0.697827 0.500000
vt 0.697827 0.625000
vt 0.427434 0.625000
vt 0.427434 0.750000
vt 0.697827 0.750000
vt 0.697827 0.875000
vt 0.427434 0.875000
vt 0.697827 0.375000
vt 0.427434 0.375000
vt 0.697827 1.000000
vt 0.427434 1.000000
vt 0.697827 0.000000
vt 0.697827 0.250000
vt 0.427434 0.250000
vt 0.427434 0.000000
vt 0.427434 0.500000
vt 0.697827 0.500000
vt 0.697827 0.625000
vt 0.427434 0.625000
vt 0.427434 0.750000
vt 0.697827 0.750000
vt 0.697827 0.875000
vt 0.427434 0.875000
vt 0.697827 0.375000
vt 0.427434 0.375000
vt 0.697827 1.000000
vt 0.427434 1.000000
vt 0.697827 0.000000
vt 0.697827 0.250000
vt 0.427434 0.250000
vt 0.427434 0.000000
vt 0.427434 0.500000
vt 0.697827 0.500000
vt 0.697827 0.625000
vt 0.427434 0.625000
vt 0.427434 0.750000
vt 0.697827 0.750000
vt 0.697827 0.875000
vt 0.427434 0.875000
vt 0.697827 0.375000
vt 0.427434 0.375000
vt 0.697827 1.000000
vt 0.427434 1.000000
vt 0.697827 0.000000
vt 0.697827 0.250000
vt 0.427434 0.250000
vt 0.427434 0.000000
vt 0.427434 0.500000
vt 0.697827 0.500000
vt 0.697827 0.625000
vt 0.427434 0.625000
vt 0.427434 0.750000
vt 0.697827 0.750000
vt 0.697827 0.875000
vt 0.427434 0.875000
vt 0.697827 0.375000
vt 0.427434 0.375000
vt 0.697827 1.000000
vt 0.427434 1.000000
vt 0.697827 0.000000
vt 0.697827 0.250000
vt 0.427434 0.250000
vt 0.427434 0.000000
vt 0.427434 0.500000
vt 0.697827 0.500000
vt 0.697827 0.625000
vt 0.427434 0.625000
vt 0.427434 0.750000
vt 0.697827 0.750000
vt 0.697827 0.875000
vt 0.427434 0.875000
vt 0.697827 0.375000
vt 0.427434 0.375000
vt 0.697827 1.000000
vt 0.427434 1.000000
vt 0.697827 0.000000
vt 0.697827 0.250000
vt 0.427434 0.250000
vt 0.427434 0.000000
vt 0.427434 0.500000
vt 0.697827 0.500000
vt 0.697827 0.625000
vt 0.427434 0.625000
vt 0.427434 0.750000
vt 0.697827 0.750000
vt 0.697827 0.875000
vt 0.427434 0.875000
vt 0.697827 0.375000
vt 0.427434 0.375000
vt 0.697827 1.000000
vt 0.427434 1.000000
vn 0.706795 0.079430 0.702945
vn 0.707165 0.223734 0.670716
vn -0.447706 0.228092 0.864600
vn -0.444988 0.079428 0.892007
vn -0.595120 0.520718 0.612116
vn 0.765275 0.507622 0.395821
vn 0.743512 0.660519 0.104428
vn -0.721626 0.680973 0.124627
vn -0.422552 0.781939 -0.458281
vn 0.566910 0.762344 -0.312161
vn 0.328677 0.783442 -0.527437
vn -0.156856 0.793641 -0.587818
vn 0.697311 0.359661 0.620002
vn -0.444292 0.367932 0.816842
vn 0.255198 0.764252 -0.592277
vn -0.129053 0.772300 -0.622012
vn -0.139337 0.087348 0.986385
vn -0.445533 0.147105 0.883097
vn -0.455355 0.146323 0.878204
vn -0.217258 0.086512 0.972273
vn -0.673997 0.276841 0.684900
vn -0.845040 0.284482 0.452745
vn -0.914028 0.369550 0.167289
vn -0.805764 0.356958 0.472573
vn -0.843267 0.395875 0.363571
vn -0.910363 0.405319 -0.083400
vn -0.898102 0.416527 -0.141130
vn -0.899785 0.409630 0.150302
vn -0.679829 0.220859 0.699324
vn -0.497608 0.212331 0.841012
vn -0.896047 0.405263 -0.181276
vn -0.913286 0.399170 0.081064
vn 0.469886 0.083145 0.878803
vn 0.648307 0.128826 0.750402
vn 0.419228 0.130731 0.898419
vn 0.183684 0.084711 0.979328
vn 0.478809 0.222728 0.849196
vn 0.702012 0.214269 0.679168
vn 0.840619 0.266178 0.471709
vn 0.701112 0.275120 0.657839
vn 0.928448 0.332549 0.165514
vn 0.924277 0.317760 0.211520
vn 0.938552 0.332624 0.092100
vn 0.924886 0.345858 -0.158010
vn 0.675750 0.151442 0.721406
vn 0.447154 0.171407 0.877880
vn 0.935053 0.327328 -0.136133
vn 0.850113 0.338954 -0.403011
vn -0.225236 0.107418 0.968365
vn -0.139704 0.190643 0.971668
vn -0.470952 0.205599 0.857865
vn -0.688214 0.110671 0.717017
vn -0.139396 0.353290 0.925070
vn 0.123716 0.326048 0.937223
vn 0.359017 0.389160 0.848328
vn 0.409640 0.416867 0.811429
vn 0.783121 0.469532 0.407751
vn 0.588944 0.424819 0.687513
vn 0.759059 0.430481 0.488381
vn 0.874126 0.463597 0.144852
vn -0.078247 0.249153 0.965298
vn -0.420809 0.265375 0.867465
vn 0.820105 0.415307 0.393634
vn 0.899481 0.429944 0.077986
vn 0.162852 0.111189 0.980365
vn 0.697360 0.109489 0.708308
vn 0.862754 0.148860 0.483214
vn 0.449487 0.172002 0.876571
vn 0.952932 0.244697 0.179010
vn 0.950989 0.285972 -0.117644
vn 0.847438 0.294255 -0.441885
vn 0.955458 0.254290 0.149786
vn 0.856625 0.329109 -0.397343
vn 0.805394 0.330514 -0.492038
vn 0.456005 0.338295 -0.823175
vn 0.650539 0.339185 -0.679524
vn 0.874373 0.202329 0.441061
vn 0.694906 0.211802 0.687201
vn 0.687269 0.318218 -0.652992
vn 0.443341 0.324558 -0.835531
vn -0.164934 0.111057 0.980032
vn 0.705799 0.113281 0.699296
vn 0.872864 0.149149 0.464611
vn -0.450792 0.146746 0.880484
vn 0.863897 0.240095 -0.442759
vn 0.141824 0.269480 -0.952505
vn -0.957523 0.261330 -0.121885
vn -0.867659 0.230627 0.440432
vn -0.160884 0.276920 -0.947329
vn -0.208938 0.263761 -0.941688
vn -0.731225 0.258054 -0.631441
vn -0.867017 0.270398 -0.418529
vn 0.964620 0.202949 0.168288
vn -0.686252 0.194389 0.700907
vn -0.376818 0.242006 -0.894115
vn -0.713233 0.237040 -0.659629
vn -0.167137 0.098630 0.980988
vn 0.089219 0.093910 0.991575
vn 0.208843 0.132716 0.968902
vn 0.113106 0.137492 0.984024
vn 0.470789 0.198582 0.859606
vn 0.661806 0.235686 0.711664
vn 0.677254 0.251699 0.691357
vn 0.435727 0.214586 0.874125
vn 0.743631 0.251973 0.619292
vn 0.872504 0.248973 0.420416
vn 0.945773 0.263368 0.190133
vn 0.852953 0.268007 0.447932
vn 0.397298 0.150778 0.905219
vn 0.179919 0.173793 0.968207
vn 0.905460 0.231967 0.355434
vn 0.960109 0.246630 0.131772
s 1
g pPlane130
usemtl lambert18SG
f 1/1/1 9/9/2 10/10/3 3/3/4
f 6/6/5 5/5/6 11/11/7 12/12/8
f 8/8/9 7/7/10 13/13/11 14/14/12
f 10/10/3 9/9/2 15/15/13 16/16/14
f 12/12/8 11/11/7 7/7/10 8/8/9
f 14/14/12 13/13/11 2/2/15 4/4/16
f 16/16/14 15/15/13 5/5/6 6/6/5
s 3
f 17/17/17 25/18/18 26/19/19 19/20/20
f 22/21/21 21/22/22 27/23/23 28/24/24
f 24/25/25 23/26/26 29/27/27 30/28/28
f 26/19/19 25/18/18 31/29/29 32/30/30
f 28/24/24 27/23/23 23/26/26 24/25/25
f 30/28/28 29/27/27 18/31/31 20/32/32
f 32/30/30 31/29/29 21/22/22 22/21/21
s 5
f 33/33/33 41/34/34 42/35/35 35/36/36
f 38/37/37 37/38/38 43/39/39 44/40/40
f 40/41/41 39/42/42 45/43/43 46/44/44
f 42/35/35 41/34/34 47/45/45 48/46/46
f 44/40/40 43/39/39 39/42/42 40/41/41
f 46/44/44 45/43/43 34/47/47 36/48/48
f 48/46/46 47/45/45 37/38/38 38/37/37
s 7
f 49/49/49 57/50/50 58/51/51 51/52/52
f 54/53/53 53/54/54 59/55/55 60/56/56
f 56/57/57 55/58/58 61/59/59 62/60/60
f 58/51/51 57/50/50 63/61/61 64/62/62
f 60/56/56 59/55/55 55/58/58 56/57/57
f 62/60/60 61/59/59 50/63/63 52/64/64
f 64/62/62 63/61/61 53/54/54 54/53/53
s 9
f 65/65/65 67/68/66 74/67/67 73/66/68
f 70/69/69 76/72/70 75/71/71 69/70/72
f 72/73/73 78/76/74 77/75/75 71/74/76
f 74/67/67 80/78/77 79/77/78 73/66/68
f 76/72/70 72/73/73 71/74/76 75/71/71
f 78/76/74 68/80/79 66/79/80 77/75/75
f 80/78/77 70/69/69 69/70/72 79/77/78
s 12
f 81/81/81 83/84/82 90/83/83 89/82/84
f 86/85/85 92/88/86 91/87/87 85/86/88
f 88/89/89 94/92/90 93/91/91 87/90/92
f 90/83/83 96/94/93 95/93/94 89/82/84
f 92/88/86 88/89/89 87/90/92 91/87/87
f 94/92/90 84/96/95 82/95/96 93/91/91
f 96/94/93 86/85/85 85/86/88 95/93/94
s 15
f 97/97/97 99/100/98 106/99/99 105/98/100
f 102/101/101 108/104/102 107/103/103 101/102/104
f 104/105/105 110/108/106 109/107/107 103/106/108
f 106/99/99 112/110/109 111/109/110 105/98/100
f 108/104/102 104/105/105 103/106/108 107/103/103
f 110/108/106 100/112/111 98/111/112 109/107/107
f 112/110/109 102/101/101 101/102/104 111/109/110
