# This file uses centimeters as units for non-parametric coordinates.

mtllib Leaves3.mtl
g default
v 0.200412 0.841783 0.012862
v 0.047350 0.915422 -0.043393
v -0.122671 0.957297 -0.105882
v -0.317563 0.949628 -0.177511
v -0.512804 0.863907 -0.249269
v 0.058302 0.841783 0.399520
v -0.094760 0.915422 0.343264
v -0.264781 0.957297 0.280775
v -0.459673 0.949628 0.209146
v -0.654914 0.863907 0.137388
v 0.381253 0.922959 0.101600
v 0.381253 1.050263 -0.094391
v 0.381253 1.122654 -0.312098
v 0.381253 1.109396 -0.561651
v 0.381253 0.961205 -0.811651
v -0.113850 0.922959 0.101600
v -0.113850 1.050263 -0.094391
v -0.113850 1.122654 -0.312098
v -0.113850 1.109396 -0.561651
v -0.113850 0.961205 -0.811651
v 0.052054 0.831163 0.288387
v 0.120553 0.919879 0.400684
v 0.196642 0.970327 0.525423
v 0.283860 0.961087 0.668409
v 0.371235 0.857816 0.811651
v 0.335732 0.831163 0.115349
v 0.404231 0.919879 0.227645
v 0.480320 0.970327 0.352384
v 0.567538 0.961087 0.495370
v 0.654914 0.857816 0.638612
vt 0.744364 0.000000
vt 0.744364 0.250000
vt 0.744364 0.500000
vt 0.744364 0.750000
vt 0.744364 1.000000
vt 0.249261 0.000000
vt 0.249261 0.250000
vt 0.249261 0.500000
vt 0.249261 0.750000
vt 0.249261 1.000000
vt 0.744364 0.000000
vt 0.744364 0.250000
vt 0.249261 0.250000
vt 0.249261 0.000000
vt 0.249261 0.500000
vt 0.744364 0.500000
vt 0.249261 0.750000
vt 0.744364 0.750000
vt 0.249261 1.000000
vt 0.744364 1.000000
vt 0.744364 0.000000
vt 0.744364 0.250000
vt 0.249261 0.250000
vt 0.249261 0.000000
vt 0.249261 0.500000
vt 0.744364 0.500000
vt 0.249261 0.750000
vt 0.744364 0.750000
vt 0.249261 1.000000
vt 0.744364 1.000000
vn 0.655758 0.749155 0.093537
vn 0.189717 0.964477 -0.183825
vn -0.142525 0.640649 0.754491
vn 0.131845 0.508049 0.851178
vn -0.535657 0.645626 0.544278
vn -0.371268 0.854872 -0.362428
vn -0.762984 0.526953 0.374400
vn -0.673982 0.649172 -0.352597
vn -0.915837 0.366586 0.163881
vn -0.824712 0.385736 -0.413593
vn 0.761041 0.632522 0.143988
vn 0.654557 0.746010 -0.122571
vn -0.279996 0.921213 -0.270128
vn -0.374166 0.851980 0.366239
vn -0.226267 0.838568 -0.495588
vn 0.498212 0.735735 -0.458779
vn -0.133107 0.643821 -0.753510
vn 0.421408 0.549241 -0.721630
vn -0.136256 0.383491 -0.913438
vn 0.407644 0.368533 -0.835470
vn 0.135901 0.530832 0.836509
vn 0.163172 0.536599 0.827911
vn 0.753249 0.524981 0.396246
vn 0.775241 0.516371 0.363816
vn 0.641353 0.514098 0.569534
vn 0.354927 0.522105 0.775522
vn 0.669116 0.396389 0.628618
vn 0.390109 0.401607 0.828569
vn 0.689837 0.246371 0.680754
vn 0.420587 0.249162 0.872367
s 1
g pPlane108
usemtl lambert17SG
f 1/1/1 2/2/2 7/7/3 6/6/4
f 8/8/5 7/7/3 2/2/2 3/3/6
f 9/9/7 8/8/5 3/3/6 4/4/8
f 10/10/9 9/9/7 4/4/8 5/5/10
s 2
f 11/11/11 12/12/12 17/13/13 16/14/14
f 18/15/15 17/13/13 12/12/12 13/16/16
f 19/17/17 18/15/15 13/16/16 14/18/18
f 20/19/19 19/17/17 14/18/18 15/20/20
s 3
f 21/21/21 22/22/22 27/23/23 26/24/24
f 28/25/25 27/23/23 22/22/22 23/26/26
f 29/27/27 28/25/25 23/26/26 24/28/28
f 30/29/29 29/27/27 24/28/28 25/30/30
