# This file uses centimeters as units for non-parametric coordinates.

g default
v 0.170303 1.944279 -0.029681
v 0.168344 1.962012 -0.033753
v 0.166773 1.976234 -0.022343
v 0.166773 1.976234 -0.004043
v 0.168344 1.962012 0.007367
v 0.170303 1.944279 0.003295
v 0.171175 1.936386 -0.013193
v 0.454741 1.947743 -0.064530
v 0.448642 2.002958 -0.077209
v 0.443750 2.047237 -0.041683
v 0.443750 2.047237 0.015297
v 0.448642 2.002958 0.050823
v 0.454742 1.947743 0.038143
v 0.457456 1.923170 -0.013193
v 0.168859 1.957348 -0.013193
v 0.450246 1.988435 -0.013193
v 0.433607 1.947021 -0.062519
v 0.436216 1.923411 -0.013193
v 0.433607 1.947021 0.036133
v 0.427746 2.000074 0.048316
v 0.423046 2.042619 0.014181
v 0.423046 2.042619 -0.040567
v 0.427746 2.000074 -0.074702
v 0.424847 1.967343 -0.035985
v 0.426052 1.956433 -0.013193
v 0.424847 1.967343 0.009599
v 0.422139 1.991856 0.015228
v 0.419967 2.011515 -0.000545
v 0.419967 2.011515 -0.025842
v 0.422139 1.991856 -0.041614
v 0.174190 1.243463 0.904009
v 0.174239 1.268500 0.915886
v 0.160142 1.266535 0.901970
v 0.300636 1.266535 0.901970
v 0.286539 1.268500 0.915886
v 0.286588 1.243463 0.904009
v 0.160142 2.191422 0.820227
v 0.174239 2.192579 0.834215
v 0.174190 2.214495 0.818187
v 0.286588 2.214495 0.818187
v 0.286539 2.192579 0.834215
v 0.300636 2.191422 0.820227
v 0.152554 2.048305 -0.909940
v 0.168119 2.073870 -0.912199
v 0.168070 2.047148 -0.923928
v 0.292708 2.047148 -0.923928
v 0.292659 2.073870 -0.912199
v 0.308224 2.048305 -0.909940
v 0.152554 1.023516 -0.819367
v 0.168070 1.021552 -0.833284
v 0.168119 0.997952 -0.817108
v 0.292659 0.997952 -0.817108
v 0.292708 1.021552 -0.833284
v 0.308224 1.023516 -0.819367
v 0.174238 1.835940 0.865735
v 0.160141 1.834492 0.851773
v 0.152554 1.655288 -0.875204
v 0.168070 1.653839 -0.889167
v 0.292707 1.653839 -0.889167
v 0.308224 1.655288 -0.875204
v 0.300636 1.834492 0.851773
v 0.286539 1.835940 0.865735
v 0.174239 1.809085 0.868109
v 0.160142 1.807569 0.854152
v 0.152554 1.620030 -0.872088
v 0.168071 1.618514 -0.886045
v 0.292708 1.618514 -0.886045
v 0.308224 1.620030 -0.872088
v 0.300636 1.807569 0.854152
v 0.286539 1.809085 0.868109
v 0.160142 1.811746 0.760619
v 0.174239 1.813228 0.774578
v 0.286539 1.813228 0.774578
v 0.300636 1.811746 0.760619
v 0.308224 1.636672 -0.873559
v 0.292708 1.635190 -0.887519
v 0.168070 1.635190 -0.887519
v 0.152554 1.636671 -0.873559
v -0.076013 0.000000 0.079438
v -0.076176 0.010290 0.089894
v -0.086469 0.010290 0.079602
v 0.119706 0.010290 0.079602
v 0.109334 0.010371 0.089896
v 0.109250 0.000000 0.079438
v -0.121440 2.187100 0.114406
v -0.111068 2.187185 0.124867
v -0.111150 2.197556 0.114575
v 0.144387 2.197556 0.114575
v 0.144218 2.187100 0.124865
v 0.154677 2.187100 0.114406
v -0.121441 2.187185 -0.140879
v -0.111150 2.197556 -0.140962
v -0.111068 2.187185 -0.151253
v 0.144305 2.187185 -0.151253
v 0.144387 2.197556 -0.140962
v 0.154678 2.187185 -0.140879
v -0.086469 0.010290 -0.105988
v -0.076097 0.010371 -0.116282
v -0.076013 0.000000 -0.105824
v 0.109250 0.000000 -0.105824
v 0.109414 0.010290 -0.116281
v 0.119706 0.010290 -0.105988
vt 0.966936 0.057194
vt 0.966936 0.029336
vt 0.997426 0.024010
vt 0.997426 0.062519
vt 0.966936 0.011966
vt 0.997426 0.000000
vt 0.966936 0.074563
vt 0.997426 0.086529
vt 0.966936 0.158989
vt 0.966936 0.136104
vt 0.994736 0.136104
vt 0.994736 0.167738
vt 0.966936 0.113219
vt 0.994736 0.104470
vt 0.972212 0.285061
vt 0.978792 0.286563
vt 0.973943 0.292643
vt 0.981720 0.292643
vt 0.966936 0.289269
vt 0.978792 0.298723
vt 0.966936 0.296017
vt 0.972212 0.300225
vt 0.981720 0.292643
vt 0.978792 0.298723
vt 0.973943 0.292643
vt 0.972212 0.300225
vt 0.978792 0.286563
vt 0.966936 0.296017
vt 0.972212 0.285061
vt 0.966936 0.289268
vt 0.312238 0.900698
vt 0.332467 0.916830
vt 0.332196 0.918015
vt 0.311143 0.901226
vt 0.326689 0.893739
vt 0.336036 0.901193
vt 0.357692 0.911073
vt 0.358449 0.912023
vt 0.312238 0.874825
vt 0.311143 0.874297
vt 0.347691 0.898533
vt 0.326689 0.881784
vt 0.368918 0.887761
vt 0.370133 0.887761
vt 0.332467 0.858693
vt 0.332196 0.857508
vt 0.352878 0.887761
vt 0.336036 0.874330
vt 0.357692 0.864450
vt 0.358449 0.863500
vt 0.347691 0.876990
vt 0.993661 0.191181
vt 0.993661 0.214987
vt 0.966936 0.217381
vt 0.966936 0.184473
vt 0.971723 0.264967
vt 0.971723 0.241161
vt 0.998448 0.234454
vt 0.998448 0.267361
vt 0.026918 0.006700
vt 0.033620 0.006700
vt 0.007426 0.834898
vt 0.000000 0.834898
vt 0.943959 0.000005
vt 0.943977 0.005222
vt 0.902196 0.005222
vt 0.902214 0.000005
vt 0.033831 0.000005
vt 0.190853 0.000005
vt 0.190771 0.006700
vt 0.363910 0.834898
vt 0.357208 0.834898
vt 0.330290 0.006701
vt 0.337716 0.006701
vt 0.364121 0.841594
vt 0.521061 0.834898
vt 0.521143 0.841594
vt 0.302267 0.006700
vt 0.308969 0.006700
vt 0.312517 0.834898
vt 0.305091 0.834898
vt 0.902196 0.005222
vt 0.902214 0.000005
vt 0.943959 0.000005
vt 0.943977 0.005222
vt 0.639259 0.834898
vt 0.632557 0.834898
vt 0.635381 0.006701
vt 0.642807 0.006701
vt 0.180692 0.834898
vt 0.180611 0.841594
vt 0.007214 0.841594
vt 0.899921 0.655771
vt 0.899939 0.650553
vt 0.946233 0.650553
vt 0.946252 0.655771
vt 0.510901 0.000005
vt 0.510982 0.006701
vt 0.337504 0.000005
vt 0.946233 0.650553
vt 0.946252 0.655771
vt 0.899921 0.655771
vt 0.899939 0.650553
vt 0.660580 0.844144
vt 0.713756 0.844144
vt 0.713756 1.000000
vt 0.660580 1.000000
vt 0.899921 0.797299
vt 0.958939 0.797299
vt 0.958939 0.969409
vt 0.899921 0.969409
vt 0.302245 0.000005
vt 0.632535 0.841594
vt 0.305114 0.841594
vt 0.635404 0.000005
vt 0.198591 0.006700
vt 0.198653 0.000005
vt 0.190933 0.834898
vt 0.190871 0.841594
vt 0.899921 0.673720
vt 0.958939 0.673720
vt 0.958939 0.787115
vt 0.899921 0.787115
vt 0.521224 0.006701
vt 0.521162 0.000005
vt 0.528881 0.834898
vt 0.528943 0.841594
vt 0.000000 0.859544
vt 0.053176 0.859544
vt 0.053176 0.962366
vt 0.000000 0.962366
vt 0.167538 0.911721
vt 0.172751 0.906486
vt 0.207217 0.906486
vt 0.202004 0.911721
vt 0.185526 0.834898
vt 0.194358 0.050973
vt 0.185455 0.841594
vt 0.958939 0.792491
vt 0.899921 0.792491
vt 0.515816 0.006701
vt 0.515745 0.000005
vt 0.524648 0.790626
vt 0.172751 0.864779
vt 0.167538 0.859544
vt 0.202004 0.859544
vt 0.207217 0.864779
vt 0.202004 0.859544
vt 0.207217 0.864779
vt 0.172751 0.864779
vt 0.167538 0.859544
vt 0.207217 0.906486
vt 0.172751 0.906486
vt 0.202004 0.911721
vt 0.167538 0.911721
vt 0.747310 0.000007
vt 0.747371 0.003875
vt 0.677598 0.003875
vt 0.677659 0.000007
vt 0.076589 0.937124
vt 0.076651 0.933190
vt 0.146362 0.933190
vt 0.146393 0.937124
vt 0.751241 0.003875
vt 0.764389 0.822294
vt 0.760456 0.822262
vt 0.677597 0.003873
vt 0.677659 0.000005
vt 0.747310 0.000005
vt 0.747372 0.003873
vt 0.673727 0.003904
vt 0.664512 0.822264
vt 0.660580 0.822264
vt 0.760520 0.826193
vt 0.664449 0.826193
vt 0.664480 0.822294
vt 0.785037 0.824627
vt 0.785068 0.820773
vt 0.880675 0.820773
vt 0.880738 0.824627
vt 0.664449 0.826195
vt 0.760489 0.822296
vt 0.760520 0.826195
vt 0.660580 0.822294
vt 0.673728 0.003906
vt 0.785068 0.924182
vt 0.785037 0.920328
vt 0.880738 0.920328
vt 0.880707 0.924182
vt 0.764389 0.822296
vt 0.751241 0.003873
vt 0.076651 0.863479
vt 0.076619 0.859544
vt 0.146423 0.859544
vt 0.146362 0.863479
vt 0.797905 0.000005
vt 0.866319 0.000034
vt 0.879184 0.802792
vt 0.785037 0.802823
vt 0.879199 0.802809
vt 0.785023 0.802809
vt 0.797890 0.000019
vt 0.866302 0.000049
vn 0.037086 -0.622875 -0.781442
vn -0.055769 0.217603 -0.974443
vn -0.332024 0.176117 -0.926684
vn -0.243718 -0.623169 -0.743143
vn -0.130233 0.891613 -0.433665
vn -0.402836 0.817093 -0.412411
vn -0.130233 0.891613 0.433665
vn -0.402836 0.817093 0.412411
vn -0.055769 0.217603 0.974443
vn -0.332023 0.176117 0.926684
vn 0.037086 -0.622875 0.781442
vn -0.243718 -0.623169 0.743144
vn 0.078410 -0.996921 0.000000
vn -0.204421 -0.978883 0.000000
vn -0.993952 -0.109811 0.000002
vn -0.993952 -0.109812 0.000001
vn -0.993953 -0.109810 -0.000000
vn -0.993953 -0.109809 0.000001
vn -0.993953 -0.109808 -0.000001
vn -0.993953 -0.109811 -0.000003
vn -0.993953 -0.109812 -0.000001
vn -0.993953 -0.109810 0.000001
vn 0.993953 0.109808 -0.000000
vn 0.993953 0.109809 -0.000000
vn 0.993953 0.109809 -0.000000
vn 0.993953 0.109810 -0.000000
vn 0.993953 0.109808 0.000000
vn 0.993953 0.109809 -0.000000
vn 0.993953 0.109810 -0.000000
vn 0.993953 0.109809 -0.000000
vn -0.536256 -0.844056 0.000000
vn -0.568507 -0.552129 -0.609880
vn -0.052361 -0.628455 -0.776082
vn -0.011319 -0.999936 0.000000
vn -0.568507 -0.552129 0.609880
vn -0.052361 -0.628455 0.776082
vn -0.640975 0.103824 0.760507
vn -0.144581 0.206256 0.967758
vn -0.699090 0.629857 0.338457
vn -0.218533 0.875642 0.430691
vn -0.699091 0.629857 -0.338456
vn -0.218533 0.875642 -0.430691
vn -0.640975 0.103823 -0.760507
vn -0.144581 0.206255 -0.967758
vn -0.854625 -0.513613 0.076279
vn -0.854625 -0.513613 0.076279
vn -0.854625 -0.513613 0.076279
vn -0.854625 -0.513613 0.076279
vn 0.000000 -0.428614 0.903488
vn 0.000000 -0.428614 0.903488
vn 0.000000 -0.428614 0.903488
vn 0.000000 -0.428614 0.903488
vn -0.705563 0.062389 0.705896
vn -0.705563 0.062389 0.705896
vn -0.704813 0.123270 0.698601
vn -0.696860 0.230952 0.679005
vn 0.854625 -0.513612 0.076279
vn 0.854625 -0.513612 0.076279
vn 0.854625 -0.513612 0.076279
vn 0.854625 -0.513612 0.076279
vn 0.705563 0.062388 0.705896
vn 0.705563 0.062388 0.705896
vn 0.696860 0.230952 0.679005
vn 0.704813 0.123270 0.698601
vn -0.855011 0.517139 -0.039027
vn -0.855011 0.517139 -0.039027
vn -0.855011 0.517139 -0.039027
vn -0.855011 0.517139 -0.039027
vn 0.000000 0.590308 0.807178
vn 0.000000 0.590308 0.807178
vn 0.000000 0.590308 0.807178
vn 0.000000 0.590308 0.807178
vn 0.855011 0.517140 -0.039027
vn 0.855011 0.517140 -0.039027
vn 0.855011 0.517140 -0.039027
vn 0.855011 0.517140 -0.039027
vn -0.670839 -0.065290 -0.738724
vn -0.670839 -0.065290 -0.738724
vn -0.670839 -0.065289 -0.738724
vn -0.670839 -0.065289 -0.738724
vn 0.000000 0.401916 -0.915677
vn 0.000000 0.401916 -0.915677
vn 0.000000 0.401916 -0.915677
vn 0.000000 0.401916 -0.915677
vn 0.670839 -0.065290 -0.738723
vn 0.670839 -0.065290 -0.738723
vn 0.670839 -0.065290 -0.738723
vn 0.670839 -0.065290 -0.738723
vn 0.000000 -0.565375 -0.824834
vn 0.000000 -0.565375 -0.824834
vn 0.000000 -0.565375 -0.824834
vn 0.000000 -0.565375 -0.824834
vn 0.000000 0.088038 0.996117
vn 0.000000 0.088039 0.996117
vn 0.000000 0.251099 0.967961
vn 0.000000 0.251100 0.967961
vn 0.000000 0.996714 -0.081001
vn 0.000000 0.996714 -0.081001
vn 0.000000 0.996714 -0.081001
vn 0.000000 0.996714 -0.081001
vn 0.000000 -0.088039 -0.996117
vn 0.000000 -0.088039 -0.996117
vn 0.000000 -0.088039 -0.996117
vn 0.000000 -0.088038 -0.996117
vn 0.000000 -0.989979 0.141217
vn 0.000000 -0.989979 0.141217
vn 0.000000 -0.989979 0.141217
vn 0.000000 -0.989979 0.141217
vn 0.999990 0.000384 0.004354
vn 0.999991 0.000384 0.004354
vn 0.999990 0.000721 0.004320
vn 0.999990 0.000419 0.004350
vn -0.999991 0.000385 0.004354
vn -0.999990 0.000385 0.004354
vn -0.999991 0.000420 0.004350
vn -0.999990 0.000721 0.004320
vn -0.640036 -0.328302 0.694674
vn -0.640036 -0.328302 0.694674
vn -0.640036 -0.328302 0.694674
vn 0.640036 -0.328302 0.694674
vn 0.640036 -0.328302 0.694674
vn 0.640036 -0.328302 0.694674
vn -0.647727 0.448794 0.615657
vn -0.647727 0.448794 0.615657
vn -0.647727 0.448794 0.615657
vn 0.647722 0.448791 0.615665
vn 0.647722 0.448790 0.615665
vn 0.647722 0.448791 0.615665
vn -0.622283 0.315579 -0.716362
vn -0.622283 0.315579 -0.716362
vn -0.622283 0.315579 -0.716362
vn 0.622273 0.315574 -0.716372
vn 0.622273 0.315574 -0.716372
vn 0.622273 0.315574 -0.716372
vn -0.629817 -0.440043 -0.640073
vn -0.629817 -0.440042 -0.640073
vn -0.629817 -0.440042 -0.640073
vn 0.629817 -0.440042 -0.640073
vn 0.629817 -0.440042 -0.640073
vn 0.629817 -0.440042 -0.640073
vn -0.680663 -0.190778 0.707320
vn -0.701931 -0.027873 0.711699
vn -0.705564 0.062389 0.705895
vn -0.705564 0.062389 0.705895
vn -0.999990 -0.000139 0.004414
vn -0.999990 0.000338 0.004359
vn -0.999990 0.000385 0.004354
vn -0.999991 0.000385 0.004354
vn -0.670837 -0.065290 -0.738725
vn -0.670837 -0.065290 -0.738725
vn -0.670837 -0.065290 -0.738725
vn -0.670837 -0.065290 -0.738725
vn 0.000001 -0.088039 -0.996117
vn 0.000001 -0.088038 -0.996117
vn 0.000000 -0.088038 -0.996117
vn 0.000000 -0.088038 -0.996117
vn 0.670838 -0.065290 -0.738725
vn 0.670837 -0.065290 -0.738725
vn 0.670837 -0.065290 -0.738725
vn 0.670837 -0.065290 -0.738725
vn 0.999990 0.000337 0.004359
vn 0.999990 -0.000139 0.004414
vn 0.999991 0.000384 0.004354
vn 0.999990 0.000384 0.004354
vn 0.701931 -0.027873 0.711699
vn 0.680663 -0.190778 0.707321
vn 0.705564 0.062388 0.705895
vn 0.705564 0.062388 0.705895
vn 0.000000 -0.155299 0.987867
vn 0.000000 -0.155300 0.987867
vn 0.000000 0.088039 0.996117
vn 0.000000 0.088039 0.996117
vn -0.708513 0.067069 0.702503
vn -0.708463 0.060439 0.703156
vn -0.999990 0.000533 0.004442
vn -0.999990 0.000346 0.004462
vn -0.670836 -0.065299 -0.738725
vn -0.670836 -0.065299 -0.738725
vn -0.000000 -0.088038 -0.996117
vn -0.000000 -0.088038 -0.996117
vn 0.670837 -0.065279 -0.738726
vn 0.670837 -0.065279 -0.738726
vn 0.999990 0.000380 0.004458
vn 0.999990 0.000567 0.004438
vn 0.708466 0.060454 0.703151
vn 0.708517 0.067142 0.702492
vn 0.000000 0.088024 0.996118
vn 0.000000 0.088049 0.996116
vn -0.701405 -0.712763 0.000000
vn -0.701405 -0.712763 0.000000
vn -0.701405 -0.712763 0.000000
vn -0.701405 -0.712763 0.000000
vn 0.000153 -0.711406 0.702781
vn 0.000153 -0.711406 0.702781
vn 0.000153 -0.711406 0.702781
vn 0.000153 -0.711406 0.702781
vn -0.708386 -0.022674 0.705461
vn -0.708386 -0.022674 0.705460
vn -0.708386 -0.022674 0.705461
vn -0.708386 -0.022674 0.705461
vn 0.701405 -0.712763 0.000000
vn 0.701405 -0.712763 0.000000
vn 0.701405 -0.712763 0.000000
vn 0.701405 -0.712763 0.000000
vn 0.705547 -0.022673 0.708300
vn 0.705547 -0.022673 0.708300
vn 0.705547 -0.022673 0.708300
vn 0.705547 -0.022673 0.708300
vn -0.711302 0.702886 0.000120
vn -0.711303 0.702886 0.000120
vn -0.711303 0.702886 0.000120
vn -0.711302 0.702886 0.000120
vn 0.000120 0.702887 0.711301
vn 0.000120 0.702887 0.711301
vn 0.000120 0.702888 0.711301
vn 0.000120 0.702887 0.711301
vn 0.711303 0.702886 0.000120
vn 0.711303 0.702886 0.000120
vn 0.711302 0.702886 0.000120
vn 0.711303 0.702886 0.000120
vn -0.705541 -0.022701 -0.708306
vn -0.705541 -0.022701 -0.708306
vn -0.705541 -0.022701 -0.708306
vn -0.705541 -0.022701 -0.708306
vn 0.000000 0.704384 -0.709819
vn 0.000000 0.704384 -0.709819
vn 0.000000 0.704384 -0.709819
vn 0.000000 0.704384 -0.709819
vn 0.706925 -0.022687 -0.706925
vn 0.706925 -0.022687 -0.706925
vn 0.706925 -0.022687 -0.706925
vn 0.706925 -0.022687 -0.706925
vn -0.000153 -0.711406 -0.702781
vn -0.000153 -0.711406 -0.702781
vn -0.000153 -0.711406 -0.702781
vn -0.000153 -0.711406 -0.702781
vn 0.000000 -0.016063 0.999871
vn 0.000000 -0.016063 0.999871
vn 0.000000 -0.016063 0.999871
vn 0.000000 -0.016063 0.999871
vn 0.000000 1.000000 0.000000
vn 0.000000 1.000000 0.000000
vn 0.000000 1.000000 0.000000
vn 0.000000 1.000000 0.000000
vn -0.000000 -0.016063 -0.999871
vn -0.000000 -0.016063 -0.999871
vn -0.000000 -0.016063 -0.999871
vn -0.000000 -0.016063 -0.999871
vn 0.000000 -1.000000 0.000000
vn 0.000000 -1.000000 0.000000
vn 0.000000 -1.000000 0.000000
vn 0.000000 -1.000000 0.000000
vn 0.999871 -0.016063 0.000000
vn 0.999871 -0.016063 0.000000
vn 0.999871 -0.016063 0.000000
vn 0.999871 -0.016063 0.000000
vn -0.999871 -0.016063 0.000000
vn -0.999871 -0.016063 0.000000
vn -0.999871 -0.016063 0.000000
vn -0.999871 -0.016063 0.000000
vn -0.571169 -0.589520 0.571168
vn -0.571169 -0.589520 0.571168
vn -0.571169 -0.589520 0.571168
vn 0.568187 -0.586587 0.577130
vn 0.568187 -0.586587 0.577130
vn 0.568187 -0.586587 0.577130
vn -0.586738 0.568037 0.577124
vn -0.586738 0.568037 0.577124
vn -0.586738 0.568037 0.577124
vn 0.583533 0.564780 0.583534
vn 0.583533 0.564780 0.583534
vn 0.583533 0.564780 0.583534
vn -0.580352 0.571289 -0.580362
vn -0.580352 0.571289 -0.580362
vn -0.580352 0.571289 -0.580362
vn 0.580352 0.571289 -0.580362
vn 0.580352 0.571289 -0.580362
vn 0.580352 0.571289 -0.580362
vn -0.568189 -0.586586 -0.577130
vn -0.568189 -0.586586 -0.577130
vn -0.568189 -0.586586 -0.577130
vn 0.571170 -0.589519 -0.571168
vn 0.571170 -0.589518 -0.571168
vn 0.571170 -0.589518 -0.571168
s 1
g pCylinder2
f 1/52/1 2/53/2 30/54/3 24/55/4
f 2/7/2 3/1/5 29/4/6 30/8/3
f 3/1/5 4/2/7 28/3/8 29/4/6
f 4/2/7 5/5/9 27/6/10 28/3/8
f 5/56/9 6/57/11 26/58/12 27/59/10
f 6/9/11 7/10/13 25/11/14 26/12/12
f 7/10/13 1/13/1 24/14/4 25/11/14
s 2
f 2/15/15 1/16/16 15/17/17
f 3/19/18 2/15/15 15/17/17
f 4/21/19 3/19/18 15/17/17
f 5/22/20 4/21/19 15/17/17
f 6/20/21 5/22/20 15/17/17
f 7/18/22 6/20/21 15/17/17
f 1/16/16 7/18/22 15/17/17
s 3
f 8/23/23 9/24/24 16/25/25
f 9/24/24 10/26/26 16/25/25
f 10/26/26 11/28/27 16/25/25
f 11/28/27 12/30/28 16/25/25
f 12/30/28 13/29/29 16/25/25
f 13/29/29 14/27/30 16/25/25
f 14/27/30 8/23/23 16/25/25
s 1
f 18/43/31 17/49/32 8/50/33 14/44/34
f 19/37/35 18/43/31 14/44/34 13/38/36
f 20/32/37 19/37/35 13/38/36 12/33/38
f 21/31/39 20/32/37 12/33/38 11/34/40
f 22/39/41 21/31/39 11/34/40 10/40/42
f 23/45/43 22/39/41 10/40/42 9/46/44
f 17/49/32 23/45/43 9/46/44 8/50/33
f 25/47/14 24/51/4 17/49/32 18/43/31
f 26/41/12 25/47/14 18/43/31 19/37/35
f 27/36/10 26/41/12 19/37/35 20/32/37
f 28/35/8 27/36/10 20/32/37 21/31/39
f 29/42/6 28/35/8 21/31/39 22/39/41
f 30/48/3 29/42/6 22/39/41 23/45/43
f 24/51/4 30/48/3 23/45/43 17/49/32
s off
f 31/60/45 33/61/46 49/62/47 51/63/48
f 32/64/49 31/65/50 36/66/51 35/67/52
s 4
f 33/61/53 32/68/54 63/69/55 64/70/56
s off
f 34/71/57 36/72/58 52/73/59 54/74/60
s 5
f 35/75/61 34/71/62 69/76/63 70/77/64
s off
f 37/78/65 39/79/66 44/80/67 43/81/68
f 39/82/69 38/83/70 41/84/71 40/85/72
f 40/86/73 42/87/74 48/88/75 47/89/76
s 6
f 65/90/77 66/91/78 50/92/79 49/62/80
s off
f 45/93/81 44/94/82 47/95/83 46/96/84
s 7
f 67/97/85 68/98/86 54/74/87 53/99/88
s off
f 51/100/89 50/101/90 53/102/91 52/103/92
s 8
f 32/104/93 35/105/94 70/106/95 63/107/96
s off
f 39/82/97 40/85/98 47/95/99 44/94/100
s 9
f 66/108/101 67/109/102 53/110/103 50/111/104
s off
f 51/100/105 52/103/106 36/66/107 31/65/108
s 10
f 34/71/109 54/74/110 68/98/111 69/76/112
s 11
f 49/62/113 33/61/114 64/70/115 65/90/116
s off
f 31/60/117 32/68/118 33/61/119
f 34/71/120 35/75/121 36/72/122
f 37/78/123 38/112/124 39/79/125
f 40/86/126 41/113/127 42/87/128
f 43/81/129 44/80/130 45/114/131
f 46/115/132 47/89/133 48/88/134
f 49/62/135 50/92/136 51/63/137
f 52/73/138 53/99/139 54/74/140
s 4
f 56/116/141 55/117/142 38/112/143 37/78/144
s 11
f 57/118/145 56/116/146 37/78/147 43/81/148
s 6
f 43/81/149 45/114/150 58/119/151 57/118/152
s 9
f 45/120/153 46/121/154 59/122/155 58/123/156
s 7
f 46/115/157 48/88/158 60/124/159 59/125/160
s 10
f 61/126/161 60/124/162 48/88/163 42/87/164
s 5
f 62/127/165 61/126/166 42/87/167 41/113/168
s 8
f 55/128/169 62/129/170 41/130/171 38/131/172
s 4
f 71/132/173 72/133/174 55/134/142 56/135/141
s 11
f 78/136/175 71/137/176 56/116/146 57/118/145
s 6
f 57/118/152 58/119/151 77/138/177 78/136/178
s 9
f 58/123/156 59/122/155 76/139/179 77/140/180
s 7
f 59/125/160 60/124/159 75/141/181 76/142/182
s 10
f 74/143/183 75/141/184 60/124/162 61/126/161
s 5
f 73/144/185 74/145/186 61/146/166 62/147/165
s 8
f 72/133/187 73/144/188 62/147/170 55/134/169
s 4
f 64/148/56 63/149/55 72/150/174 71/151/173
s 8
f 63/149/96 70/152/95 73/153/188 72/150/187
s 5
f 70/152/64 69/154/63 74/155/186 73/153/185
s 10
f 69/76/112 68/98/111 75/141/184 74/143/183
s 7
f 76/142/182 75/141/181 68/98/86 67/97/85
s 9
f 77/140/180 76/139/179 67/109/102 66/108/101
s 6
f 78/136/178 77/138/177 66/91/78 65/90/77
s 11
f 65/90/116 64/70/115 71/137/176 78/136/175
s off
f 79/156/189 81/157/190 97/158/191 99/159/192
f 80/160/193 79/161/194 84/162/195 83/163/196
f 81/157/197 80/164/198 86/165/199 85/166/200
f 82/167/201 84/168/202 100/169/203 102/170/204
f 83/171/205 82/167/206 90/172/207 89/173/208
f 85/166/209 87/174/210 92/175/211 91/176/212
f 87/177/213 86/178/214 89/179/215 88/180/216
f 88/181/217 90/172/218 96/182/219 95/183/220
f 91/176/221 93/184/222 98/185/223 97/158/224
f 93/186/225 92/187/226 95/188/227 94/189/228
f 94/190/229 96/182/230 102/170/231 101/191/232
f 99/192/233 98/193/234 101/194/235 100/195/236
f 80/196/237 83/197/238 89/198/239 86/199/240
f 87/177/241 88/180/242 95/188/243 92/187/244
f 93/200/245 94/201/246 101/202/247 98/203/248
f 99/192/249 100/195/250 84/162/251 79/161/252
f 82/167/253 102/170/254 96/182/255 90/172/256
f 97/158/257 81/157/258 85/166/259 91/176/260
f 79/156/261 80/164/262 81/157/263
f 82/167/264 83/171/265 84/168/266
f 85/166/267 86/165/268 87/174/269
f 88/181/270 89/173/271 90/172/272
f 91/176/273 92/175/274 93/184/275
f 94/190/276 95/183/277 96/182/278
f 97/158/279 98/185/280 99/159/281
f 100/169/282 101/191/283 102/170/284
