# This file uses centimeters as units for non-parametric coordinates.

mtllib WaterPlaneTop.mtl
g default
v -2.871608 0.000000 -2.847919
v 2.871608 0.000000 2.847920
v 2.871607 0.000000 -2.847920
v -1.559827 0.000000 2.011004
v -1.077090 0.000000 2.622382
v -2.396122 0.000000 -2.847919
v -2.411740 0.000000 -1.321666
v -2.060656 0.000000 -1.276401
v -1.077090 -0.021539 2.745059
v 2.871608 -0.038771 2.969938
v -1.077090 -0.058298 2.802834
v 2.871608 -0.075529 3.027713
v -1.077090 -0.127121 2.849390
v 2.871608 -0.144353 3.074269
v -1.077090 -0.833955 3.118129
v 2.871608 -0.851186 3.343007
vt 0.880193 0.036422
vt 0.880193 0.907379
vt 0.276394 0.070910
vt 0.202578 0.164396
vt 0.276394 0.052151
vt 0.880193 0.017764
vt 0.125996 0.667076
vt 0.276394 0.043317
vt 0.880193 0.008930
vt 0.074699 0.907379
vt 0.072311 0.673998
vt 0.276394 0.036198
vt 0.880193 0.001811
vt 0.001992 0.907379
vt 0.995373 0.001811
vt 0.998008 0.605611
vt 0.889925 0.605611
vt 0.887291 0.001811
vn 0.000000 1.000000 0.000000
vn 0.000000 1.000000 0.000000
vn 0.000000 1.000000 0.000000
vn 0.000000 1.000000 0.000000
vn 0.000000 1.000000 0.000000
vn 0.000000 1.000000 0.000000
vn 0.000000 1.000000 0.000000
vn 0.000000 1.000000 0.000000
vn 0.000000 1.000000 0.000000
vn 0.000000 1.000000 0.000000
vn 0.000000 1.000000 0.000000
vn 0.000000 1.000000 0.000000
vn 0.000000 1.000000 0.000000
vn 0.000000 1.000000 0.000000
vn 0.000000 1.000000 0.000000
vn 0.000000 1.000000 0.000000
vn 0.000000 1.000000 0.000000
vn 0.000000 1.000000 0.000000
vn 0.000000 1.000000 0.000000
vn 0.000000 1.000000 0.000000
vn 0.000000 1.000000 0.000000
vn -0.016898 0.939011 0.343472
vn -0.017387 0.935481 0.352950
vn -0.037174 0.706363 0.706873
vn -0.037657 0.698367 0.714748
vn -0.051028 0.376807 0.924885
vn -0.051068 0.375359 0.925472
vn -0.051613 0.354908 0.933475
vn -0.051613 0.354908 0.933475
s 1
g WaterPlaneTop:pPlane2
usemtl initialShadingGroup
f 2/1/1 3/2/2 5/3/3
s off
f 5/3/4 3/2/5 4/4/6
f 6/10/7 7/11/8 8/7/9
f 3/2/10 6/10/11 8/7/12
f 8/7/13 7/11/14 4/4/15
f 3/2/16 8/7/17 4/4/18
f 1/14/19 7/11/20 6/10/21
s 1
f 2/1/1 5/3/3 9/5/22 10/6/23
f 10/6/23 9/5/22 11/8/24 12/9/25
f 12/9/25 11/8/24 13/12/26 14/13/27
f 14/15/27 13/16/26 15/17/28 16/18/29
g default
v -2.871608 0.000000 -2.847919
v 2.871608 0.000000 2.847920
v 2.871607 0.000000 -2.847920
v -1.559827 0.000000 2.011004
v -1.077090 0.000000 2.622382
v -2.396122 0.000000 -2.847919
v -2.411740 0.000000 -1.321666
v -2.060656 0.000000 -1.276401
v -1.077090 -0.021539 2.745059
v 2.871608 -0.038771 2.969938
v -1.077090 -0.058298 2.802834
v 2.871608 -0.075529 3.027713
v -1.077090 -0.127121 2.849390
v 2.871608 -0.144353 3.074269
v -1.077090 -0.833955 3.118129
v 2.871608 -0.851186 3.343007
vt 0.880193 0.036422
vt 0.880193 0.907379
vt 0.276394 0.070910
vt 0.202578 0.164396
vt 0.276394 0.052151
vt 0.880193 0.017764
vt 0.125996 0.667076
vt 0.276394 0.043317
vt 0.880193 0.008930
vt 0.074699 0.907379
vt 0.072311 0.673998
vt 0.276394 0.036198
vt 0.880193 0.001811
vt 0.001992 0.907379
vt 0.995373 0.001811
vt 0.998008 0.605611
vt 0.889925 0.605611
vt 0.887291 0.001811
vn 0.000000 1.000000 0.000000
vn 0.000000 1.000000 0.000000
vn 0.000000 1.000000 0.000000
vn 0.000000 1.000000 0.000000
vn 0.000000 1.000000 0.000000
vn 0.000000 1.000000 0.000000
vn 0.000000 1.000000 0.000000
vn 0.000000 1.000000 0.000000
vn 0.000000 1.000000 0.000000
vn 0.000000 1.000000 0.000000
vn 0.000000 1.000000 0.000000
vn 0.000000 1.000000 0.000000
vn 0.000000 1.000000 0.000000
vn 0.000000 1.000000 0.000000
vn 0.000000 1.000000 0.000000
vn 0.000000 1.000000 0.000000
vn 0.000000 1.000000 0.000000
vn 0.000000 1.000000 0.000000
vn 0.000000 1.000000 0.000000
vn 0.000000 1.000000 0.000000
vn 0.000000 1.000000 0.000000
vn -0.016898 0.939011 0.343472
vn -0.017387 0.935481 0.352950
vn -0.037174 0.706363 0.706873
vn -0.037657 0.698367 0.714748
vn -0.051028 0.376807 0.924885
vn -0.051068 0.375359 0.925472
vn -0.051613 0.354908 0.933475
vn -0.051613 0.354908 0.933475
s 1
g WaterPlaneTop:pPlane2
f 18/19/30 19/20/31 21/21/32
s off
f 21/21/33 19/20/34 20/22/35
f 22/28/36 23/29/37 24/25/38
f 19/20/39 22/28/40 24/25/41
f 24/25/42 23/29/43 20/22/44
f 19/20/45 24/25/46 20/22/47
f 17/32/48 23/29/49 22/28/50
s 1
f 18/19/30 21/21/32 25/23/51 26/24/52
f 26/24/52 25/23/51 27/26/53 28/27/54
f 28/27/54 27/26/53 29/30/55 30/31/56
f 30/33/56 29/34/55 31/35/57 32/36/58
