# This file uses centimeters as units for non-parametric coordinates.

v 2.065907 -0.250288 -8.282932
v 0.308329 -0.206192 -8.351864
v 4.121181 -0.250288 -7.390896
v 5.457019 -0.206192 -5.852299
v 5.594089 -0.206192 -5.011247
v 2.065907 0.359762 -8.282932
v 0.308329 0.359762 -8.351864
v 4.121181 0.359762 -7.390896
v 5.457019 0.359762 -5.852299
v 5.644259 0.359762 -5.173553
v 3.093545 -0.250288 -7.836915
v 3.093545 0.359762 -7.836915
v 0.416933 -0.157479 -6.667982
v 0.416926 -0.006826 -6.573259
v 1.513304 -0.003317 -6.515641
v 1.509025 -0.098978 -6.610620
v 0.416926 0.162942 -6.668053
v 1.509034 0.104433 -6.610696
v 2.356942 -0.001664 -6.292326
v 2.386055 -0.071254 -6.383907
v 2.386086 0.076706 -6.383979
v 3.180614 -0.001664 -5.872839
v 3.238466 -0.071142 -5.959762
v 3.238513 0.076598 -5.959824
v 4.186533 -0.001661 -4.988450
v 4.279041 -0.071636 -5.073195
v 4.273819 0.076944 -5.076495
v 5.728845 -0.001874 -4.039520
v 5.658319 -0.082577 -4.336370
v 5.663713 0.071980 -4.335842
v 0.524969 -0.003207 -6.664245
v 2.029834 -0.000184 -6.561422
v 3.192258 0.000000 -5.956359
v 4.316704 0.000000 -4.977986
v 2.286936 -0.197061 -8.216587
v 0.475607 -0.197061 -8.446945
v 4.094935 -0.197061 -7.446294
v 5.560768 -0.197061 -6.181433
v 5.792130 0.000000 -4.308829
v 6.323620 -0.197061 -5.244905
v 2.286936 0.197061 -8.216587
v 0.475607 0.197061 -8.446945
v 4.094935 0.197061 -7.446294
v 5.560768 0.197061 -6.181433
v 6.323620 0.197061 -5.244905
v 0.663788 -0.196595 -9.258951
v 2.607084 -0.198337 -9.163964
v 4.823060 -0.197515 -8.383447
v 7.065074 -0.209785 -6.682578
v 7.822400 0.000000 -3.544086
v 7.918287 -0.206016 -5.106121
v 0.663788 0.196595 -9.258951
v 2.607084 0.198337 -9.163964
v 4.823060 0.197516 -8.383447
v 7.065074 0.209785 -6.682578
v 7.918287 0.206016 -5.106121
v 3.938291 -0.250288 -7.470275
v 3.938291 0.359762 -7.470275
v 3.107877 -0.071159 -6.024741
v 3.056830 -0.001664 -5.935881
v 3.107915 0.076615 -6.024807
v 3.097060 0.000000 -6.005911
v 3.958024 -0.197061 -7.504625
v 3.958024 0.197061 -7.504625
v 4.523493 -0.197626 -8.488961
v 4.523493 0.197627 -8.488961
v 4.661672 -0.232447 -6.768366
v 4.661672 0.359762 -6.768366
v 3.444843 -0.071240 -5.783929
v 3.359903 -0.001664 -5.715211
v 3.444755 0.076667 -5.783857
v 3.416648 0.000000 -5.761118
v 4.774652 -0.197061 -6.859769
v 4.774652 0.197061 -6.859769
v 5.770026 -0.202698 -7.665045
v 5.770026 0.202698 -7.665045
v 2.660585 -0.250288 -8.024829
v 2.660585 0.359762 -8.024829
v 1.783057 -0.091261 -6.539782
v 1.734235 -0.002856 -6.457159
v 1.783098 0.096715 -6.539850
v 2.675959 -0.197061 -8.050845
v 2.675959 0.197061 -8.050845
v 3.208530 -0.198114 -8.952122
v 3.113547 0.198114 -8.995536
v 1.611794 -0.238895 -8.300742
v 1.611794 0.359762 -8.300742
v 1.408190 -0.109226 -6.615916
v 1.396840 -0.003928 -6.521994
v 1.408199 0.114682 -6.615992
v 1.406750 -0.001405 -6.603995
v 1.611998 -0.197061 -8.302423
v 1.611998 0.197061 -8.302423
v 1.721343 -0.197543 -9.207258
v 1.721343 0.197543 -9.207258
v 0.785008 -0.000001 -10.103666
v 2.917079 -0.000000 -10.253298
v 6.402431 0.000000 -9.702841
v 10.274977 0.000000 -7.548138
v 11.573014 0.000001 -3.826877
v 11.412607 0.000001 -2.706744
v 5.319116 0.000001 -9.873934
v 7.520156 -0.000000 -9.080934
v 3.886900 0.000000 -10.100129
v 1.838606 -0.000000 -10.177608
v 0.475607 0.054406 -8.446945
v 1.611998 0.054030 -8.302423
v 2.286936 0.052675 -8.216587
v 2.675959 0.060676 -8.050844
v 4.094935 0.063569 -7.446293
v 4.774652 0.060742 -6.859769
v 5.560766 0.060676 -6.181432
v 6.323619 0.070650 -5.244905
v 6.581460 -0.012816 -4.217752
v 3.958023 0.060677 -7.504623
v 0.475607 -0.010736 -8.446945
v 1.611998 0.010480 -8.302423
v 2.286936 0.017679 -8.216587
v 2.675959 -0.000000 -8.050844
v 4.094935 0.005579 -7.446293
v 4.774652 0.022972 -6.859769
v 5.560766 0.000000 -6.181432
v 6.323619 0.009423 -5.244905
v 3.958023 0.000000 -7.504623
v 7.831988 0.020602 -3.700290
v 5.845278 0.019706 -4.402436
v 4.441110 0.019706 -5.098330
v 3.552448 0.019706 -5.870984
v 3.282526 0.019706 -6.105352
v 3.183156 0.019706 -6.155782
v 2.094446 0.019541 -6.710364
v 2.094446 -0.019871 -6.710364
v 3.183156 -0.019706 -6.155782
v 3.282526 -0.019706 -6.105352
v 3.552449 -0.019706 -5.870984
v 4.441110 -0.019706 -5.098330
v 5.845278 -0.019706 -4.402436
v 7.831988 -0.020601 -3.700290
vt 0.727837 0.691559
vt 0.729872 0.683370
vt 0.714388 0.681394
vt 0.713406 0.688708
vt 0.736209 0.693233
vt 0.737699 0.686419
vt 0.756683 0.590344
vt 0.709226 0.591414
vt 0.652143 0.673451
vt 0.651429 0.682099
vt 0.776945 0.709071
vt 0.780954 0.703274
vt 0.767147 0.595064
vt 0.639392 0.592989
vt 0.566763 0.642896
vt 0.555873 0.655589
vt 0.807968 0.728715
vt 0.810943 0.722935
vt 0.815480 0.616868
vt 0.603217 0.611290
vt 0.820434 0.736746
vt 0.824574 0.731872
vt 0.840251 0.628043
vt 0.824931 0.740615
vt 0.828704 0.735964
vt 0.874276 0.643392
vt 0.865468 0.779785
vt 0.869304 0.776192
vt 0.892618 0.662055
vt 0.940401 0.710270
vt 0.729872 0.683370
vt 0.727837 0.691559
vt 0.713406 0.688708
vt 0.714388 0.681394
vt 0.737699 0.686419
vt 0.736209 0.693233
vt 0.651429 0.682099
vt 0.652143 0.673451
vt 0.756683 0.590344
vt 0.709226 0.591414
vt 0.780954 0.703274
vt 0.776945 0.709071
vt 0.767147 0.595064
vt 0.555873 0.655589
vt 0.566763 0.642896
vt 0.639392 0.592989
vt 0.810943 0.722935
vt 0.807996 0.728671
vt 0.815480 0.616868
vt 0.603217 0.611290
vt 0.824574 0.731872
vt 0.820434 0.736746
vt 0.840251 0.628043
vt 0.828704 0.735964
vt 0.824931 0.740615
vt 0.874276 0.643392
vt 0.869304 0.776192
vt 0.865468 0.779785
vt 0.892618 0.662055
vt 0.940401 0.710270
vt 0.398964 0.523792
vt 0.396229 0.586629
vt 0.433269 0.587747
vt 0.427426 0.524262
vt 0.436525 0.620874
vt 0.395628 0.621851
vt 0.457982 0.585163
vt 0.468900 0.620014
vt 0.472321 0.579428
vt 0.450250 0.521493
vt 0.491033 0.612769
vt 0.519577 0.560528
vt 0.488721 0.506940
vt 0.539423 0.596929
vt 0.524624 0.558510
vt 0.493553 0.502668
vt 0.550446 0.593320
vt 0.549919 0.537648
vt 0.499337 0.497981
vt 0.585607 0.567860
vt 0.579175 0.513520
vt 0.532288 0.457130
vt 0.633692 0.533043
vt 0.607791 0.479946
vt 0.586291 0.433619
vt 0.666129 0.476177
vt 0.663214 0.409404
vt 0.398965 0.523792
vt 0.427426 0.524262
vt 0.433269 0.587747
vt 0.396229 0.586629
vt 0.457982 0.585163
vt 0.436525 0.620874
vt 0.395628 0.621851
vt 0.450250 0.521493
vt 0.472321 0.579428
vt 0.468900 0.620015
vt 0.488721 0.506940
vt 0.519577 0.560528
vt 0.491033 0.612769
vt 0.493553 0.502668
vt 0.524624 0.558510
vt 0.539423 0.596929
vt 0.499337 0.497982
vt 0.549919 0.537648
vt 0.550446 0.593320
vt 0.532288 0.457130
vt 0.579175 0.513520
vt 0.585607 0.567860
vt 0.586291 0.433619
vt 0.607791 0.479946
vt 0.633692 0.533043
vt 0.663214 0.409404
vt 0.666129 0.476177
vt 0.583534 0.056860
vt 0.618295 0.097195
vt 0.684443 0.039466
vt 0.645748 0.009253
vt 0.638941 0.121152
vt 0.724052 0.070393
vt 0.647225 0.138976
vt 0.761782 0.112619
vt 0.674525 0.197719
vt 0.803585 0.165312
vt 0.677440 0.203992
vt 0.835204 0.205169
vt 0.682679 0.245393
vt 0.853392 0.260368
vt 0.688738 0.293274
vt 0.898222 0.396417
vt 0.685963 0.349351
vt 0.822148 0.555310
vt 0.662925 0.392853
vt 0.782820 0.595303
vt 0.583488 0.056758
vt 0.645702 0.009151
vt 0.684397 0.039365
vt 0.618249 0.097094
vt 0.724006 0.070291
vt 0.638895 0.121050
vt 0.761736 0.112517
vt 0.647179 0.138875
vt 0.803539 0.165210
vt 0.674479 0.197617
vt 0.835158 0.205067
vt 0.677394 0.203890
vt 0.853347 0.260266
vt 0.682633 0.245291
vt 0.898176 0.396315
vt 0.688692 0.293172
vt 0.822102 0.555208
vt 0.685917 0.349249
vt 0.782774 0.595201
vt 0.662879 0.392751
vt 0.663505 0.416081
vt 0.588441 0.438252
vt 0.536977 0.462769
vt 0.504395 0.501948
vt 0.496660 0.508253
vt 0.491807 0.512299
vt 0.452457 0.527287
vt 0.452457 0.527287
vt 0.491807 0.512299
vt 0.496660 0.508253
vt 0.504395 0.501948
vt 0.536977 0.462769
vt 0.588441 0.438252
vt 0.663505 0.416081
vn -0.035382 -0.001334 0.999373
vn 0.002346 -0.994370 0.105939
vn 0.000815 -0.994093 0.108530
vn -0.033608 0.000463 0.999435
vn -0.175910 -0.001677 0.984405
vn -0.019521 -0.994172 0.106023
vn -0.029484 -0.990823 0.131908
vn -0.237175 0.001815 0.971465
vn 0.011945 0.982570 0.185509
vn 0.011632 0.982384 0.186512
vn -0.024986 0.985554 0.167508
vn -0.049871 0.980595 0.189595
vn -0.353152 -0.000627 0.935566
vn -0.044795 -0.990211 0.132197
vn -0.058555 -0.990560 0.123944
vn -0.449526 0.000055 0.893267
vn -0.068320 0.979436 0.189836
vn -0.084661 0.980012 0.180026
vn -0.585467 -0.001647 0.810694
vn -0.069972 -0.992543 0.099814
vn -0.084996 -0.990895 0.104414
vn -0.654682 -0.002648 0.755900
vn -0.123134 0.982304 0.141124
vn -0.149819 0.977128 0.150912
vn -0.570352 0.018374 0.821195
vn -0.102079 -0.986372 0.129033
vn -0.148554 -0.967893 0.202768
vn -0.501004 0.027562 0.865006
vn -0.163913 0.968246 0.188763
vn -0.190582 0.945990 0.262263
vn 0.002284 -0.998242 0.059217
vn -0.017817 -0.996192 0.085345
vn -0.019450 -0.995031 0.097653
vn -0.059783 -0.994408 0.087057
vn -0.064459 -0.994625 0.081028
vn -0.077341 -0.993403 0.084674
vn -0.105747 -0.989868 0.094760
vn 0.014351 0.990790 0.134643
vn 0.014982 0.991339 0.130470
vn -0.025743 0.989135 0.144738
vn -0.039557 0.987196 0.154531
vn -0.112363 0.985325 0.128492
vn -0.131750 0.982863 0.128929
vn -0.151675 0.975371 0.160144
vn -0.183610 0.960876 0.207374
vn -0.034490 -0.994255 0.101332
vn -0.045458 -0.994113 0.098354
vn -0.058004 0.985708 0.158162
vn -0.071269 0.985478 0.154121
vn -0.010348 -0.993796 0.110734
vn -0.006803 -0.997444 0.071135
vn -0.006736 -0.997450 0.071043
vn -0.010377 -0.993626 0.112247
vn -0.018220 -0.993418 0.113083
vn -0.009279 -0.998313 0.057314
vn -0.026696 -0.997927 0.058562
vn -0.049008 -0.993044 0.107062
vn -0.069987 -0.993569 0.089013
vn -0.074490 -0.993505 0.086020
vn -0.074636 -0.993511 0.085827
vn -0.069199 -0.993581 0.089493
vn -0.077302 -0.992086 0.098948
vn -0.059915 -0.989325 0.132843
vn -0.057580 -0.988657 0.138716
vn -0.069170 -0.992033 0.105291
vn -0.012377 0.993490 0.113242
vn -0.012371 0.993395 0.114073
vn -0.007996 0.997359 0.072191
vn -0.008108 0.997317 0.072761
vn -0.049572 0.993163 0.105684
vn -0.049159 0.993028 0.107136
vn -0.019839 0.993326 0.113625
vn -0.053529 0.993168 0.103690
vn -0.074490 0.993505 0.086020
vn -0.069987 0.993569 0.089013
vn -0.069199 0.993581 0.089493
vn -0.074636 0.993511 0.085827
vn -0.059915 0.989325 0.132843
vn -0.077302 0.992086 0.098948
vn -0.069170 0.992033 0.105291
vn -0.057580 0.988657 0.138716
vn -0.000495 -1.000000 0.000338
vn -0.000408 -0.999999 0.000977
vn -0.029273 -0.998942 0.035467
vn -0.025807 -0.998099 0.055962
vn -0.000090 -1.000000 0.000748
vn -0.002865 -0.999996 0.000244
vn -0.039405 -0.998107 0.047216
vn -0.038697 -0.998334 0.042805
vn -0.004926 -0.999986 0.002002
vn -0.006169 -0.999970 0.004766
vn -0.040330 -0.987972 0.149283
vn -0.053517 -0.987843 0.145951
vn -0.037993 -0.995772 0.083629
vn -0.026131 -0.995041 0.095976
vn -0.000495 1.000000 0.000338
vn -0.000426 1.000000 -0.000064
vn -0.010239 0.998222 0.058717
vn -0.026352 0.997988 0.057677
vn -0.000135 1.000000 0.000858
vn -0.000401 1.000000 0.000968
vn -0.029273 0.998942 0.035467
vn -0.038697 0.998334 0.042805
vn -0.004926 0.999986 0.002002
vn -0.002865 0.999996 0.000244
vn -0.040330 0.987972 0.149283
vn -0.053517 0.987843 0.145951
vn -0.039405 0.998107 0.047216
vn -0.037993 0.995772 0.083629
vn -0.026131 0.995041 0.095975
vn -0.006169 0.999970 0.004766
vn -0.053250 -0.993180 0.103721
vn -0.049416 -0.993174 0.105653
vn -0.000140 -1.000000 0.000870
vn -0.000093 1.000000 0.000738
vn -0.025458 0.998158 0.055066
vn 0.004384 -0.998585 0.053001
vn -0.000426 -1.000000 -0.000064
vn 0.001155 0.999534 -0.030512
vn 0.001048 0.999582 -0.028888
vn 0.001035 0.999588 -0.028685
vn 0.001155 0.999534 -0.030512
vn 0.000760 0.999628 -0.027255
vn 0.004605 0.999679 -0.024895
vn 0.005400 0.999688 -0.024386
vn 0.000723 0.999627 -0.027296
vn 0.008045 0.999794 -0.018632
vn 0.010074 0.999841 -0.014731
vn 0.009726 0.999844 -0.014721
vn 0.009793 0.999813 -0.016683
vn 0.011064 0.999872 -0.011594
vn 0.010151 0.999949 -0.000319
vn 0.004820 0.999904 0.013002
vn 0.012277 0.999879 -0.009567
vn -0.005627 0.999220 0.039095
vn -0.005627 0.999220 0.039095
vn 0.004837 0.999696 -0.024172
vn 0.005456 0.999698 -0.023967
vn 0.009643 -0.999953 0.001391
vn 0.009643 -0.999953 0.001391
vn 0.006684 -0.999965 0.004939
vn 0.007012 -0.999965 0.004546
vn -0.003670 -0.999986 0.003713
vn -0.005329 -0.999982 0.002774
vn -0.002690 -0.999996 -0.000295
vn -0.004334 -0.999991 -0.000475
vn 0.003335 -0.999965 0.007711
vn 0.003198 -0.999956 0.008784
vn -0.002826 -0.999996 -0.000142
vn -0.001675 -0.999997 0.001807
vn -0.002892 -0.999996 -0.000520
vn -0.001804 -0.999998 0.001149
vn 0.000980 -0.999994 -0.003327
vn -0.000250 -1.000000 0.000338
vn 0.003391 -0.999939 -0.010510
vn 0.003391 -0.999939 -0.010510
vn 0.001614 -0.999997 0.001795
vn 0.001078 -0.999999 0.001199
s 1
f 14/27/1 13/28/2 88/25/3 89/24/4
f 15/21/5 16/22/6 79/18/7 80/17/8
f 17/57/9 14/58/1 89/55/4 90/54/10
f 18/51/11 15/52/5 80/48/8 81/47/12
f 19/11/13 20/12/14 59/6/15 60/5/16
f 21/41/17 19/42/13 60/36/16 61/35/18
f 22/1/19 23/2/20 69/3/21 70/4/22
f 24/31/23 22/32/19 70/33/22 71/34/24
f 25/10/25 26/9/26 29/15/27 28/16/28
f 27/38/29 25/37/25 28/44/28 30/45/30
f 16/22/6 88/25/3 86/29/31 1/26/32
f 1/26/32 77/23/33 79/18/7 16/22/6
f 3/7/34 67/8/35 69/3/21 23/2/20
f 4/14/36 5/20/37 29/15/27 26/9/26
f 17/57/9 90/54/10 87/59/38 7/60/39
f 6/56/40 18/51/11 81/47/12 78/53/41
f 8/39/42 24/31/23 71/34/24 68/40/43
f 9/46/44 27/38/29 30/45/30 10/50/45
f 20/12/14 11/19/46 57/13/47 59/6/15
f 12/49/48 21/41/17 61/35/18 58/43/49
s 2
f 31/61/50 36/62/51 92/63/52 91/64/53
f 32/70/54 35/67/55 82/69/56 132/162/57
f 134/164/58 135/165/59 72/79/60 33/76/61
f 136/166/62 137/167/63 39/85/64 34/82/65
s 5
f 31/88/66 91/89/67 93/90/68 42/91/69
f 130/160/70 131/161/71 32/95/72 62/98/73
f 128/158/74 129/159/75 33/101/76 72/104/77
f 126/156/78 127/157/79 34/107/80 39/110/81
s 2
f 35/67/55 92/63/52 94/65/82 47/68/83
f 37/75/84 63/72/85 65/74/86 48/77/87
f 38/81/88 73/78/89 75/80/90 49/83/91
f 39/85/64 137/167/63 138/168/92 50/87/93
f 40/84/94 38/81/88 49/83/91 51/86/95
s 5
f 42/91/69 93/90/68 95/93/96 52/94/97
f 41/92/98 83/96/99 85/100/100 53/97/101
f 43/102/102 74/105/103 76/109/104 54/106/105
f 125/155/106 126/156/78 39/110/81 50/113/107
f 44/108/108 45/111/109 56/114/110 55/112/111
s 1
f 60/5/16 59/6/15 23/2/20 22/1/19
f 61/35/18 60/36/16 22/32/19 24/31/23
f 59/6/15 57/13/47 3/7/34 23/2/20
f 58/43/49 61/35/18 24/31/23 8/39/42
s 2
f 62/73/112 133/163/113 134/164/58 33/76/61
s 5
f 129/159/75 130/160/70 62/98/73 33/101/76
s 2
f 65/74/86 63/72/85 82/69/56 84/71/114
s 5
f 66/103/115 64/99/116 43/102/102 54/106/105
s 1
f 70/4/22 69/3/21 26/9/26 25/10/25
f 71/34/24 70/33/22 25/37/25 27/38/29
f 69/3/21 67/8/35 4/14/36 26/9/26
f 68/40/43 71/34/24 27/38/29 9/46/44
s 2
f 72/79/60 135/165/59 136/166/62 34/82/65
s 5
f 127/157/79 128/158/74 72/104/77 34/107/80
s 2
f 75/80/90 73/78/89 37/75/84 48/77/87
s 5
f 76/109/104 74/105/103 44/108/108 55/112/111
s 1
f 80/17/8 79/18/7 20/12/14 19/11/13
f 81/47/12 80/48/8 19/42/13 21/41/17
f 79/18/7 77/23/33 11/19/46 20/12/14
f 78/53/41 81/47/12 21/41/17 12/49/48
s 5
f 85/100/100 83/96/99 64/99/116 66/103/115
s 2
f 84/71/114 82/69/56 35/67/55 47/68/83
s 1
f 89/24/4 88/25/3 16/22/6 15/21/5
f 90/54/10 89/55/4 15/52/5 18/51/11
f 86/29/31 88/25/3 13/28/2 2/30/117
f 87/59/38 90/54/10 18/51/11 6/56/40
s 2
f 32/70/54 91/64/53 92/63/52 35/67/55
s 5
f 32/95/72 41/92/98 93/90/68 91/89/67
s 2
f 94/65/82 92/63/52 36/62/51 46/66/118
s 5
f 95/93/96 93/90/68 41/92/98 53/97/101
s 11
f 106/115/119 107/116/120 105/117/121 96/118/122
f 108/119/123 109/121/124 104/122/125 97/120/126
f 110/125/127 111/127/128 103/128/129 98/126/130
f 112/129/131 113/131/132 100/132/133 99/130/134
f 113/131/132 114/133/135 101/134/136 100/132/133
f 102/124/137 115/123/138 110/125/127 98/126/130
f 103/128/129 111/127/128 112/129/131 99/130/134
f 104/122/125 109/121/124 115/123/138 102/124/137
f 105/117/121 107/116/120 108/119/123 97/120/126
s 15
f 116/135/139 96/136/140 105/137/141 117/138/142
f 118/140/143 97/139/144 104/141/145 119/142/146
f 120/146/147 98/145/148 103/147/149 121/148/150
f 122/150/151 99/149/152 100/151/153 123/152/154
f 123/152/154 100/151/153 101/153/155 114/154/156
f 102/143/157 98/145/148 120/146/147 124/144/158
f 103/147/149 99/149/152 122/150/151 121/148/150
f 104/141/145 102/143/157 124/144/158 119/142/146
f 105/137/141 97/139/144 118/140/143 117/138/142
s 5
f 83/96/99 41/92/98 32/95/72 131/161/71
s 2
f 32/70/54 132/162/57 133/163/113 62/73/112
s 5
f 45/111/109 126/156/78 125/155/106 56/114/110
f 44/108/108 127/157/79 126/156/78 45/111/109
f 74/105/103 128/158/74 127/157/79 44/108/108
f 43/102/102 129/159/75 128/158/74 74/105/103
f 64/99/116 130/160/70 129/159/75 43/102/102
f 83/96/99 131/161/71 130/160/70 64/99/116
s 2
f 133/163/113 132/162/57 82/69/56 63/72/85
f 134/164/58 133/163/113 63/72/85 37/75/84
f 37/75/84 73/78/89 135/165/59 134/164/58
f 136/166/62 135/165/59 73/78/89 38/81/88
f 38/81/88 40/84/94 137/167/63 136/166/62
f 138/168/92 137/167/63 40/84/94 51/86/95
