# This file uses centimeters as units for non-parametric coordinates.

v 0.000000 2.401820 0.536280
v -0.613527 2.308473 0.508796
v 0.000000 -0.441668 -0.835091
v -0.169833 -0.441668 -0.835091
v -0.908209 2.226065 0.835091
v -1.017912 -0.461552 -0.125922
v 0.000000 2.386717 0.522575
v -0.551256 2.405421 0.543350
v 0.000000 -2.375523 -0.622350
v -0.742518 -2.405420 -0.616518
v -0.878816 2.405421 0.831406
v -1.548957 -2.405420 0.167916
v 0.613527 2.308473 0.508796
v 0.169833 -0.441668 -0.835091
v 0.908209 2.226065 0.835091
v 1.017912 -0.461552 -0.125922
v 0.551256 2.405421 0.543350
v 0.742518 -2.405420 -0.616518
v 0.878816 2.405421 0.831406
v 1.548957 -2.405420 0.167916
v 0.000000 2.401820 0.536280
v -0.613527 2.308473 0.508796
v 0.000000 -0.441668 -0.835091
v -0.169833 -0.441668 -0.835091
v -0.908209 2.226065 0.835091
v -1.017912 -0.461552 -0.125922
v 0.000000 2.386717 0.522575
v -0.551256 2.405421 0.543350
v 0.000000 -2.375523 -0.622350
v -0.742518 -2.405420 -0.616518
v -0.878816 2.405421 0.831406
v -1.548957 -2.405420 0.167916
v 0.613527 2.308473 0.508796
v 0.169833 -0.441668 -0.835091
v 0.908209 2.226065 0.835091
v 1.017912 -0.461552 -0.125922
v 0.551256 2.405421 0.543350
v 0.742518 -2.405420 -0.616518
v 0.878816 2.405421 0.831406
v 1.548957 -2.405420 0.167916
vt 0.914139 0.215331
vt 0.873366 0.208991
vt 0.902682 0.007256
vt 0.914200 0.007260
vt 0.844067 0.212277
vt 0.831854 0.024411
vt 0.958661 0.223303
vt 0.934871 0.220128
vt 0.963698 0.008643
vt 0.995222 0.015399
vt 0.916072 0.219955
vt 0.915211 0.008670
vt 0.914139 0.215331
vt 0.873366 0.208991
vt 0.902682 0.007256
vt 0.914200 0.007260
vt 0.844067 0.212277
vt 0.831854 0.024411
vt 0.958661 0.223303
vt 0.934871 0.220128
vt 0.963698 0.008643
vt 0.995222 0.015399
vt 0.916072 0.219955
vt 0.915211 0.008670
vt 0.914139 0.215331
vt 0.914200 0.007260
vt 0.902682 0.007256
vt 0.873366 0.208991
vt 0.831854 0.024411
vt 0.844067 0.212277
vt 0.958661 0.223303
vt 0.995222 0.015399
vt 0.963698 0.008643
vt 0.934871 0.220128
vt 0.915211 0.008670
vt 0.916072 0.219955
vt 0.914139 0.215331
vt 0.873366 0.208991
vt 0.902682 0.007256
vt 0.914200 0.007260
vt 0.844067 0.212277
vt 0.831854 0.024411
vt 0.958661 0.223303
vt 0.934871 0.220128
vt 0.963698 0.008643
vt 0.995222 0.015399
vt 0.916072 0.219955
vt 0.915211 0.008670
vn 0.020292 -0.435297 0.900058
vn 0.479001 -0.333640 0.811937
vn 0.401156 -0.358666 0.842872
vn 0.020292 -0.435297 0.900058
vn 0.661317 -0.257939 0.704363
vn 0.661317 -0.257939 0.704363
vn 0.022015 -0.234428 0.971884
vn 0.416658 -0.226526 0.880387
vn 0.396311 -0.227958 0.889367
vn 0.022015 -0.234428 0.971884
vn 0.673888 -0.195361 0.712537
vn 0.673888 -0.195361 0.712537
vn -0.020292 -0.435297 0.900058
vn -0.020292 -0.435297 0.900058
vn -0.401156 -0.358666 0.842872
vn -0.479001 -0.333640 0.811937
vn -0.661317 -0.257939 0.704363
vn -0.661317 -0.257939 0.704363
vn -0.022015 -0.234428 0.971884
vn -0.022015 -0.234428 0.971884
vn -0.396311 -0.227958 0.889367
vn -0.416658 -0.226526 0.880387
vn -0.673888 -0.195361 0.712537
vn -0.673888 -0.195361 0.712537
vn -0.020292 0.435297 -0.900058
vn -0.020292 0.435297 -0.900058
vn -0.401156 0.358666 -0.842872
vn -0.479001 0.333640 -0.811937
vn -0.661317 0.257939 -0.704363
vn -0.661317 0.257939 -0.704363
vn -0.022015 0.234428 -0.971884
vn -0.022015 0.234428 -0.971884
vn -0.396311 0.227958 -0.889367
vn -0.416658 0.226526 -0.880387
vn -0.673888 0.195361 -0.712537
vn -0.673888 0.195361 -0.712537
vn 0.020292 0.435297 -0.900058
vn 0.479001 0.333640 -0.811937
vn 0.401156 0.358666 -0.842872
vn 0.020292 0.435297 -0.900058
vn 0.661317 0.257939 -0.704363
vn 0.661317 0.257939 -0.704363
vn 0.022015 0.234428 -0.971884
vn 0.416658 0.226526 -0.880387
vn 0.396311 0.227958 -0.889367
vn 0.022015 0.234428 -0.971884
vn 0.673888 0.195361 -0.712537
vn 0.673888 0.195361 -0.712537
s 1
f 1/1/1 2/2/2 4/3/3 3/4/4
f 4/3/3 2/2/2 5/5/5 6/6/6
s 2
f 7/7/7 8/8/8 10/9/9 9/10/10
f 10/9/9 8/8/8 11/11/11 12/12/12
s 3
f 1/13/13 3/16/14 14/15/15 13/14/16
f 14/15/15 16/18/17 15/17/18 13/14/16
s 4
f 7/19/19 9/22/20 18/21/21 17/20/22
f 18/21/21 20/24/23 19/23/24 17/20/22
s 5
f 21/25/25 23/26/26 24/27/27 22/28/28
f 24/27/27 26/29/29 25/30/30 22/28/28
s 6
f 27/31/31 29/32/32 30/33/33 28/34/34
f 30/33/33 32/35/35 31/36/36 28/34/34
s 7
f 21/37/37 33/38/38 34/39/39 23/40/40
f 34/39/39 33/38/38 35/41/41 36/42/42
s 8
f 27/43/43 37/44/44 38/45/45 29/46/46
f 38/45/45 37/44/44 39/47/47 40/48/48
