# This file uses centimeters as units for non-parametric coordinates.

g default
v 1.310776 0.000000 -0.741987
v 1.115844 0.000000 -1.588567
v 0.632536 0.000000 -2.042181
v -0.374245 0.000000 -1.747582
v -1.062108 0.000000 -1.395933
v -1.628994 0.000000 -1.064056
v -1.802856 0.000000 -0.462607
v -1.656685 0.000000 0.177812
v -0.939348 0.000000 1.052427
v -0.239451 0.000000 2.042181
v 0.198874 0.000000 2.042181
v 0.901212 0.000000 1.052427
v 1.656685 0.000000 0.683211
v 1.802857 0.000000 0.165706
v 1.102518 18.735617 -0.641695
v 0.757094 18.735617 -1.074844
v 0.257941 18.735617 -1.315223
v -0.296076 18.735617 -1.315223
v -0.795229 18.735617 -1.074844
v -1.140654 18.735617 -0.641695
v -1.263934 18.735617 -0.101568
v -1.140654 18.735617 0.438559
v -0.795229 18.735617 0.871708
v -0.296077 18.735617 1.112087
v 0.257941 18.735617 1.112087
v 0.757094 18.735617 0.871708
v 1.102518 18.735617 0.438559
v 1.225799 18.735617 -0.101568
v 1.132810 4.274840 -0.707028
v 1.267931 4.274840 -0.101568
v 1.132810 4.274840 0.503892
v 0.754209 4.274840 0.989433
v 0.207115 4.274840 1.258888
v -0.400114 4.274840 1.258888
v -0.947207 4.274840 0.989433
v -1.325808 4.274840 0.503892
v -1.460929 4.274840 -0.101568
v -1.325808 4.274840 -0.707028
v -0.947207 4.274840 -1.192569
v -0.400113 4.274840 -1.462024
v 0.207115 4.274840 -1.462024
v 0.754209 4.274840 -1.192569
v 1.218190 9.742520 -0.644587
v 1.445825 9.742520 0.070965
v 1.317430 9.742520 0.613984
v 0.858434 9.742520 0.876918
v 0.338572 9.742520 1.118584
v -0.238432 9.742520 1.118584
v -0.758294 9.742520 0.876918
v -1.118050 9.742520 0.441451
v -1.246446 9.742520 -0.101568
v -1.118050 9.742520 -0.644587
v -0.758294 9.742520 -1.080054
v -0.238432 9.742520 -1.321720
v 0.338572 9.742520 -1.321720
v 0.858434 9.742520 -1.080054
v 1.209097 11.112309 -0.331733
v 1.239916 11.096008 -0.138543
v 1.288563 10.891661 -0.089049
v 1.287809 10.781669 -0.251650
v 1.238696 10.918037 -0.401636
v 1.466204 11.119344 -0.347852
v 1.488668 11.111711 -0.200963
v 1.522208 10.970821 -0.166839
v 1.520473 10.891380 -0.292638
v 1.485861 10.983172 -0.404510
v 1.496683 11.015285 -0.282561
v 1.091896 5.106312 -0.222087
v 1.096335 5.084290 0.042166
v 1.151976 4.808226 0.117624
v 1.181925 4.659632 -0.099993
v 1.144794 4.843859 -0.309946
v 1.438839 5.115815 -0.194696
v 1.440917 5.105502 0.006040
v 1.479280 4.915168 0.058065
v 1.500910 4.807847 -0.110517
v 1.475916 4.931854 -0.266732
v 1.467173 4.975237 -0.101568
v -0.733023 9.790717 0.765998
v -0.900474 9.766848 0.533579
v -0.996679 9.467628 0.500854
v -0.888685 9.306571 0.713047
v -0.725737 9.506250 0.876915
v -1.058723 9.801018 0.956286
v -1.184774 9.789840 0.778932
v -1.251103 9.583540 0.756369
v -1.166046 9.467217 0.919778
v -1.047149 9.601626 1.043334
v -1.141559 9.648648 0.890940
v 0.774228 7.206427 0.780594
v 0.529868 7.182557 0.930082
v 0.489997 6.883338 1.023552
v 0.709714 6.722281 0.931831
v 0.885379 6.921960 0.781674
v 0.939470 7.216727 1.119689
v 0.753134 7.205549 1.232038
v 0.725645 6.999250 1.296481
v 0.894990 6.882927 1.223960
v 1.027142 7.017336 1.114697
v 0.868076 7.064358 1.197373
v -0.809649 8.537105 -0.805874
v -0.603765 8.513235 -1.005047
v -0.585233 8.214016 -1.104961
v -0.779664 8.052958 -0.967539
v -0.918361 8.252638 -0.782692
v -1.044853 8.547405 -1.100779
v -0.887498 8.536227 -1.251055
v -0.874722 8.329927 -1.319942
v -1.024180 8.213606 -1.212241
v -1.129327 8.348013 -1.076791
v -0.992116 8.395036 -1.192162
vt 0.119874 0.000049
vt 0.156325 0.000049
vt 0.139275 0.184106
vt 0.118369 0.184106
vt 0.175855 0.000049
vt 0.150876 0.184106
vt 0.134430 0.419521
vt 0.115681 0.419521
vt 0.080793 0.000049
vt 0.092301 0.184106
vt 0.134206 0.806725
vt 0.115556 0.806725
vt 0.084872 0.419521
vt 0.058512 0.000049
vt 0.066232 0.184106
vt 0.092301 0.806725
vt 0.061492 0.419521
vt 0.042615 0.000049
vt 0.045327 0.184106
vt 0.069045 0.806725
vt 0.050171 0.419521
vt 0.000000 0.000049
vt 0.033725 0.184106
vt 0.050396 0.806725
vt 0.207648 0.000049
vt 0.233037 0.000049
vt 0.248277 0.180499
vt 0.222719 0.180499
vt 0.260070 0.000049
vt 0.273835 0.180499
vt 0.248277 0.411302
vt 0.225355 0.411302
vt 0.193639 0.000049
vt 0.202223 0.180499
vt 0.296990 0.000049
vt 0.294330 0.180499
vt 0.271199 0.411302
vt 0.248277 0.790920
vt 0.225477 0.790920
vt 0.206973 0.411302
vt 0.338769 0.000049
vt 0.305705 0.180499
vt 0.289581 0.411302
vt 0.271077 0.790920
vt 0.207193 0.790920
vt 0.289361 0.790920
vt 0.321471 0.339087
vt 0.321169 0.344892
vt 0.317359 0.341667
vt 0.315602 0.346240
vt 0.316090 0.336849
vt 0.312463 0.341269
vt 0.967100 0.045238
vt 0.966695 0.053130
vt 0.961573 0.048900
vt 0.959211 0.055176
vt 0.959867 0.042406
vt 0.954992 0.048548
vt 0.882236 0.275391
vt 0.882284 0.288038
vt 0.867209 0.288496
vt 0.867431 0.279631
vt 0.875560 0.266514
vt 0.862573 0.273656
vt 0.698473 0.264169
vt 0.690939 0.262968
vt 0.693373 0.253267
vt 0.699101 0.254143
vt 0.988068 0.055981
vt 0.988034 0.048578
vt 0.998627 0.046712
vt 0.998706 0.052439
vt 0.985798 0.041749
vt 0.997051 0.041619
vt 0.393182 0.144107
vt 0.382877 0.143933
vt 0.384286 0.130495
vt 0.392114 0.130576
vt 0.381496 0.384829
vt 0.390560 0.391359
vt 0.380991 0.402446
vt 0.374075 0.397531
vt 0.374803 0.436540
vt 0.365273 0.430710
vt 0.373980 0.418934
vt 0.381247 0.423316
vt 0.163203 0.376659
vt 0.171232 0.384427
vt 0.160167 0.394020
vt 0.154031 0.388160
vt 0.776758 0.754224
vt 0.736231 0.754224
vt 0.735190 0.582147
vt 0.759633 0.582147
vt 0.708542 0.754224
vt 0.713167 0.582147
vt 0.741698 0.362053
vt 0.764925 0.362053
vt 0.720772 0.362053
vt 0.739378 0.000049
vt 0.761679 0.000049
vt 0.781655 0.582147
vt 0.785851 0.362053
vt 0.719285 0.000049
vt 0.781771 0.000049
vt 0.490520 0.079106
vt 0.508125 0.079106
vt 0.508456 0.250804
vt 0.484067 0.250804
vt 0.513736 0.470412
vt 0.490561 0.470412
vt 0.530430 0.250804
vt 0.534616 0.470412
vt 0.510497 0.831618
vt 0.488245 0.831618
vt 0.462093 0.250804
vt 0.469680 0.470412
vt 0.530546 0.831618
vt 0.468197 0.831618
vt 0.373497 0.204150
vt 0.365273 0.202192
vt 0.368459 0.192789
vt 0.374129 0.194139
vt 0.694645 0.235577
vt 0.686821 0.236769
vt 0.686538 0.226414
vt 0.692022 0.225622
vt 0.862573 0.323971
vt 0.865062 0.311620
vt 0.879705 0.316405
vt 0.877989 0.324920
vt 0.866402 0.304972
vt 0.880673 0.311603
vt 0.680052 0.333826
vt 0.677736 0.322334
vt 0.692928 0.321918
vt 0.694551 0.329973
vt 0.681678 0.341893
vt 0.695646 0.335403
vt 0.559464 0.264960
vt 0.572789 0.265301
vt 0.573272 0.280558
vt 0.563931 0.280016
vt 0.566134 0.284438
vt 0.550110 0.272593
vt 0.557635 0.285585
vt 0.572748 0.286462
vt 0.563084 0.289569
vt 0.978828 0.004256
vt 0.978289 0.013239
vt 0.971482 0.007698
vt 0.968344 0.014564
vt 0.969216 0.000029
vt 0.977180 0.024002
vt 0.962756 0.025924
vt 0.962736 0.006400
vt 0.954992 0.015332
vt 0.862573 0.233463
vt 0.871959 0.224774
vt 0.876443 0.238599
vt 0.870125 0.244966
vt 0.885331 0.225864
vt 0.885815 0.239726
vt 0.878653 0.244022
vt 0.875592 0.250028
vt 0.885290 0.246790
vt 0.446119 0.217393
vt 0.444489 0.202488
vt 0.457217 0.208262
vt 0.458341 0.218538
vt 0.455059 0.194466
vt 0.465356 0.202468
vt 0.570010 0.028204
vt 0.576127 0.009886
vt 0.589288 0.016982
vt 0.585070 0.029612
vt 0.567714 0.000027
vt 0.582694 0.009861
vn 0.918959 0.071711 -0.387778
vn 0.779099 0.114097 -0.616430
vn 0.702481 0.056639 -0.709446
vn 0.908785 0.029774 -0.416201
vn 0.173827 0.124213 -0.976911
vn 0.181598 0.069101 -0.980942
vn -0.302527 0.075291 -0.950162
vn -0.266575 0.053245 -0.962342
vn -0.549448 0.068383 -0.832725
vn -0.588856 0.052173 -0.806552
vn -0.844230 0.091469 -0.528119
vn -0.878923 0.063301 -0.472745
vn -0.996588 0.079122 -0.023507
vn -0.998368 0.057099 0.000519
vn -0.890341 0.033156 0.454085
vn -0.888566 0.034762 0.457430
vn -0.744651 0.033255 0.666625
vn -0.691894 0.035092 0.721146
vn -0.454631 0.114946 0.883232
vn -0.358368 0.068458 0.931067
vn 0.459814 0.129986 0.878450
vn 0.350601 0.071295 0.933807
vn 0.661072 0.076097 0.746453
vn 0.610632 0.038946 0.790956
vn 0.814327 0.104392 0.570941
vn 0.840647 0.032864 0.540586
vn 0.988332 0.100005 -0.114889
vn 0.995501 0.030119 -0.089835
vn 0.896874 0.003518 -0.442273
vn 0.999289 0.002407 -0.037626
vn 0.861931 0.003595 0.507013
vn 0.547383 0.006183 0.836859
vn 0.222059 0.009154 0.974990
vn -0.218006 0.011758 0.975877
vn -0.617620 0.013412 0.786362
vn -0.898450 0.014174 0.438848
vn -0.999897 0.014369 -0.000000
vn -0.898450 0.014173 -0.438848
vn -0.617620 0.013412 -0.786362
vn -0.218005 0.011758 -0.975877
vn 0.222059 0.009154 -0.974990
vn 0.620322 0.006112 -0.784324
vn 0.895068 0.013025 -0.445740
vn 0.998732 0.021784 -0.045390
vn 0.860395 0.024845 0.509022
vn 0.542047 0.011873 0.840264
vn 0.217604 0.002874 0.976033
vn -0.219644 -0.000483 0.975580
vn -0.617069 -0.002023 0.786906
vn -0.897986 -0.002269 0.440019
vn -0.999998 -0.002192 -0.000000
vn -0.897985 -0.002269 -0.440020
vn -0.617069 -0.002023 -0.786906
vn -0.219644 -0.000483 -0.975580
vn 0.217605 0.002874 -0.976033
vn 0.615719 0.007447 -0.787931
vn -0.073658 0.840113 -0.537387
vn 0.115777 0.768870 0.628836
vn 0.116779 0.765905 0.632259
vn -0.074553 0.828422 -0.555121
vn 0.396459 -0.294985 0.869370
vn 0.389702 -0.263147 0.882545
vn 0.393146 -0.913188 -0.107348
vn 0.386485 -0.911619 -0.139930
vn 0.069807 -0.228908 -0.970942
vn 0.065198 -0.211599 -0.975179
vn 0.970504 0.197578 -0.138150
vn 0.970504 0.197577 -0.138152
vn 0.970504 0.197578 -0.138150
vn 0.970504 0.197578 -0.138150
vn 0.970504 0.197578 -0.138148
vn 0.970504 0.197578 -0.138149
vn 0.002810 0.840111 -0.542407
vn 0.026001 0.768872 0.638874
vn 0.026510 0.765907 0.642405
vn 0.004424 0.828420 -0.560090
vn 0.269981 -0.294984 0.916567
vn 0.261436 -0.263148 0.928657
vn 0.404351 -0.913188 -0.050872
vn 0.402347 -0.911619 -0.084068
vn 0.205943 -0.228906 -0.951414
vn 0.201977 -0.211597 -0.956259
vn 0.980287 0.197577 0.000001
vn 0.980287 0.197579 0.000001
vn 0.980287 0.197578 0.000000
vn 0.980287 0.197579 -0.000001
vn 0.980288 0.197576 0.000000
vn 0.980287 0.197577 0.000001
vn 0.307325 0.840112 0.446950
vn -0.386048 0.768870 -0.509711
vn -0.388482 0.765905 -0.512320
vn 0.316094 0.828420 0.462390
vn -0.744890 -0.294984 -0.598434
vn -0.744776 -0.263148 -0.613239
vn -0.302952 -0.913189 0.272593
vn -0.282358 -0.911619 0.298705
vn 0.374021 -0.228907 0.898727
vn 0.380043 -0.211597 0.900441
vn -0.804869 0.197579 0.559597
vn -0.804870 0.197579 0.559596
vn -0.804871 0.197578 0.559595
vn -0.804872 0.197577 0.559593
vn -0.804871 0.197575 0.559596
vn -0.804872 0.197578 0.559593
vn 0.468807 0.840112 -0.272822
vn -0.537312 0.768871 0.346602
vn -0.540096 0.765906 0.348833
vn 0.484863 0.828421 -0.280405
vn -0.652786 -0.294983 0.697750
vn -0.667540 -0.263147 0.696522
vn 0.249025 -0.913188 0.322605
vn 0.276612 -0.911619 0.304034
vn 0.924322 -0.228907 -0.305337
vn 0.926484 -0.211598 -0.311213
vn 0.497449 0.197579 0.844694
vn 0.497449 0.197579 0.844694
vn 0.497448 0.197578 0.844695
vn 0.497448 0.197579 0.844694
vn 0.497446 0.197578 0.844696
vn 0.497447 0.197579 0.844695
vn -0.398040 0.840110 0.368482
vn 0.448809 0.768872 -0.455420
vn 0.451040 0.765906 -0.458204
vn -0.412056 0.828419 0.379383
vn 0.484938 -0.294984 -0.823298
vn 0.499605 -0.263148 -0.825317
vn -0.313375 -0.913188 -0.260546
vn -0.336249 -0.911619 -0.236406
vn -0.835503 -0.228907 0.499537
vn -0.836332 -0.211599 0.505742
vn -0.669659 0.197578 -0.715905
vn -0.669659 0.197578 -0.715905
vn -0.669660 0.197578 -0.715904
vn -0.669660 0.197579 -0.715904
vn -0.669659 0.197579 -0.715904
vn -0.669662 0.197578 -0.715902
s 1
g pCylinder57
f 1/1/1 2/2/2 42/3/3 29/4/4
f 2/2/2 3/5/5 41/6/6 42/3/3
f 3/91/5 4/92/7 40/93/8 41/94/6
f 4/92/7 5/95/9 39/96/10 40/93/8
f 5/33/9 6/25/11 38/28/12 39/34/10
f 6/25/11 7/26/13 37/27/14 38/28/12
f 7/26/13 8/29/15 36/30/16 37/27/14
f 8/29/15 9/35/17 35/36/18 36/30/16
f 9/35/17 10/41/19 34/42/20 35/36/18
f 10/106/19 11/107/21 33/108/22 34/109/20
f 11/22/21 12/18/23 32/19/24 33/23/22
f 12/18/23 13/14/25 31/15/26 32/19/24
f 13/14/25 14/9/27 30/10/28 31/15/26
f 14/9/27 1/1/1 29/4/4 30/10/28
f 30/10/28 29/4/4 43/8/29 44/13/30
f 31/15/26 30/10/28 44/13/30 45/17/31
f 32/19/24 31/15/26 45/17/31 46/21/32
f 33/108/22 32/112/24 46/113/32 47/110/33
f 34/109/20 33/108/22 47/110/33 48/111/34
f 35/116/18 34/109/20 48/111/34 49/117/35
f 36/30/16 35/36/18 49/43/35 50/37/36
f 37/27/14 36/30/16 50/37/36 51/31/37
f 38/28/12 37/27/14 51/31/37 52/32/38
f 39/34/10 38/28/12 52/32/38 53/40/39
f 40/93/8 39/96/10 53/99/39 54/97/40
f 41/94/6 40/93/8 54/97/40 55/98/41
f 42/102/3 41/94/6 55/98/41 56/103/42
f 29/4/4 42/3/3 56/7/42 43/8/29
f 44/13/30 43/8/29 15/12/43 28/16/44
f 45/17/31 44/13/30 28/16/44 27/20/45
f 46/21/32 45/17/31 27/20/45 26/24/46
f 47/110/33 46/113/32 26/118/46 25/114/47
f 48/111/34 47/110/33 25/114/47 24/115/48
f 49/117/35 48/111/34 24/115/48 23/119/49
f 50/37/36 49/43/35 23/46/49 22/44/50
f 51/31/37 50/37/36 22/44/50 21/38/51
f 52/32/38 51/31/37 21/38/51 20/39/52
f 53/40/39 52/32/38 20/39/52 19/45/53
f 54/97/40 53/99/39 19/104/53 18/100/54
f 55/98/41 54/97/40 18/100/54 17/101/55
f 56/103/42 55/98/41 17/101/55 16/105/56
f 43/8/29 56/7/42 16/11/56 15/12/43
s 2
f 57/65/57 58/66/58 63/67/59 62/68/60
f 58/120/58 59/121/61 64/122/62 63/123/59
f 59/69/61 60/70/63 65/71/64 64/72/62
f 60/70/63 61/73/65 66/74/66 65/71/64
f 61/124/65 57/125/57 62/126/60 66/127/66
s 3
f 62/47/67 63/48/68 67/49/69
f 63/48/68 64/50/70 67/49/69
f 64/50/70 65/52/71 67/49/69
f 65/52/71 66/51/72 67/49/69
f 66/51/72 62/47/67 67/49/69
s 4
f 68/75/73 69/76/74 74/77/75 73/78/76
f 69/128/74 70/129/77 75/130/78 74/131/75
f 70/129/77 71/132/79 76/133/80 75/130/78
f 71/138/79 72/134/81 77/137/82 76/139/80
f 72/134/81 68/135/73 73/136/76 77/137/82
s 5
f 73/53/83 74/54/84 78/55/85
f 74/54/84 75/56/86 78/55/85
f 75/56/86 76/58/87 78/55/85
f 76/58/87 77/57/88 78/55/85
f 77/57/88 73/53/83 78/55/85
s 6
f 79/79/89 80/80/90 85/81/91 84/82/92
f 80/167/90 81/168/93 86/169/94 85/170/91
f 81/168/93 82/171/95 87/172/96 86/169/94
f 82/145/95 83/140/97 88/143/98 87/146/96
f 83/140/97 79/141/89 84/142/92 88/143/98
s 7
f 84/142/99 85/147/100 89/144/101
f 85/147/100 86/148/102 89/144/101
f 86/148/102 87/146/103 89/144/101
f 87/146/103 88/143/104 89/144/101
f 88/143/104 84/142/99 89/144/101
s 8
f 90/83/105 91/84/106 96/85/107 95/86/108
f 91/154/106 92/155/109 97/152/110 96/150/107
f 92/155/109 93/157/111 98/156/112 97/152/110
f 93/63/111 94/59/113 99/62/114 98/64/112
f 94/59/113 90/60/105 95/61/108 99/62/114
s 9
f 95/149/115 96/150/116 100/151/117
f 96/150/116 97/152/118 100/151/117
f 97/152/118 98/156/119 100/151/117
f 98/156/119 99/153/120 100/151/117
f 99/153/120 95/149/115 100/151/117
s 10
f 101/87/121 102/88/122 107/89/123 106/90/124
f 102/173/122 103/174/125 108/175/126 107/176/123
f 103/174/125 104/177/127 109/178/128 108/175/126
f 104/158/127 105/159/129 110/160/130 109/161/128
f 105/159/129 101/162/121 106/163/124 110/160/130
s 11
f 106/163/131 107/166/132 111/164/133
f 107/166/132 108/165/134 111/164/133
f 108/165/134 109/161/135 111/164/133
f 109/161/135 110/160/136 111/164/133
f 110/160/136 106/163/131 111/164/133
