# This file uses centimeters as units for non-parametric coordinates.

g default
v -0.058808 0.170332 -0.042727
v -0.042727 0.170332 -0.058808
v 0.000000 0.170332 -0.072691
v 0.042727 0.170332 -0.058808
v 0.069133 0.170332 -0.027473
v 0.058808 0.170332 0.042727
v 0.022463 0.170332 0.069133
v 0.000000 0.170332 0.072691
v -0.022463 0.170332 0.069133
v -0.058808 0.170332 0.042727
v -0.091596 0.140887 -0.066548
v -0.066549 0.140887 -0.091596
v 0.000000 0.140887 -0.113219
v 0.066548 0.140887 -0.091596
v 0.107677 0.140887 -0.034987
v 0.091596 0.140887 0.066549
v 0.034986 0.140887 0.107678
v 0.000000 0.140887 0.113219
v -0.034986 0.140887 0.107678
v -0.091596 0.140887 0.066549
v -0.115418 0.100359 -0.083856
v -0.083856 0.100359 -0.115418
v 0.000000 0.100359 -0.142664
v 0.083856 0.100359 -0.115418
v 0.135682 0.100359 -0.044086
v 0.115418 0.100359 0.083856
v 0.044086 0.100359 0.135682
v 0.000000 0.100359 0.142664
v -0.044086 0.100359 0.135682
v -0.115418 0.100359 0.083856
v -0.127942 0.057893 -0.092955
v -0.092955 0.057893 -0.127942
v 0.000000 0.057893 -0.158145
v 0.092955 0.057893 -0.127942
v 0.150404 0.057893 -0.048869
v 0.127942 0.057893 0.092955
v 0.048869 0.057893 0.150404
v 0.000000 0.057893 0.158145
v -0.048869 0.057893 0.150404
v -0.127942 0.057893 0.092955
v -0.127942 -0.002340 -0.092955
v -0.092955 -0.002340 -0.127942
v 0.000000 -0.002340 -0.158145
v 0.092955 -0.002340 -0.127942
v 0.150404 -0.002340 -0.048869
v 0.127942 -0.002340 0.092955
v 0.048869 -0.002340 0.150404
v 0.000000 -0.002340 0.158145
v -0.048869 -0.002340 0.150404
v -0.127942 -0.002340 0.092955
v -0.115418 -0.045024 -0.083856
v -0.083856 -0.045024 -0.115418
v 0.000000 -0.045024 -0.142664
v 0.083856 -0.045024 -0.115418
v 0.135682 -0.045024 -0.044086
v 0.115418 -0.045024 0.083856
v 0.044086 -0.045024 0.135682
v 0.000000 -0.045024 0.142664
v -0.044086 -0.045024 0.135682
v -0.115418 -0.045024 0.083856
v -0.091596 -0.085552 -0.066548
v -0.066549 -0.085552 -0.091596
v 0.000000 -0.085552 -0.113219
v 0.066548 -0.085552 -0.091596
v 0.107677 -0.085552 -0.034987
v 0.091596 -0.085552 0.066549
v 0.034986 -0.085552 0.107678
v 0.000000 -0.085552 0.113219
v -0.034986 -0.085552 0.107678
v -0.091596 -0.085552 0.066549
v -0.058808 -0.114997 -0.042727
v -0.042727 -0.114997 -0.058808
v 0.000000 -0.114997 -0.072691
v 0.042727 -0.114997 -0.058808
v 0.069133 -0.114997 -0.022463
v 0.058808 -0.114997 0.042727
v 0.022463 -0.114997 0.069133
v 0.000000 -0.114997 0.072691
v -0.022463 -0.114997 0.069133
v -0.058808 -0.114997 0.042727
v -0.020264 -0.130477 -0.014723
v -0.014722 -0.130477 -0.020264
v 0.000000 -0.130477 -0.025048
v 0.014722 -0.130477 -0.020264
v 0.023822 -0.130477 -0.007740
v 0.020264 -0.130477 0.014723
v 0.007740 -0.130477 0.023822
v 0.000000 -0.130477 0.025048
v -0.007740 -0.130477 0.023822
v -0.020264 -0.130477 0.014723
v -0.140368 0.043218 -0.101983
v -0.142812 0.027370 -0.103759
v -0.140368 0.011523 -0.101983
v -0.101983 0.043218 -0.140367
v -0.103759 0.027370 -0.142811
v -0.101983 0.011523 -0.140367
v 0.000000 0.043218 -0.173504
v 0.000000 0.027370 -0.176525
v 0.000000 0.011523 -0.173504
v 0.101983 0.043218 -0.140367
v 0.103759 0.027370 -0.142811
v 0.101983 0.011523 -0.140367
v 0.165012 0.043218 -0.053616
v 0.167885 0.027370 -0.054549
v 0.165012 0.011523 -0.053616
v 0.140368 0.043218 0.101983
v 0.142811 0.027370 0.103759
v 0.140368 0.011523 0.101983
v 0.053616 0.043218 0.165012
v 0.054549 0.027370 0.167885
v 0.053616 0.011523 0.165012
v 0.000000 0.043218 0.173504
v 0.000000 0.027370 0.176525
v 0.000000 0.011523 0.173504
v -0.053616 0.043218 0.165012
v -0.054549 0.027370 0.167885
v -0.053616 0.011523 0.165012
v -0.140368 0.043218 0.101983
v -0.142811 0.027370 0.103759
v -0.140368 0.011523 0.101983
v -0.128947 0.007825 -0.093685
v -0.128946 0.007825 0.093685
v -0.049253 0.007825 0.151586
v 0.000000 0.007825 0.159387
v 0.049253 0.007825 0.151586
v 0.128947 0.007825 0.093685
v 0.151586 0.007825 -0.049253
v 0.093685 0.007825 -0.128946
v 0.000000 0.007825 -0.159387
v -0.093685 0.007825 -0.128946
v -0.128947 0.046916 -0.093685
v -0.128946 0.046916 0.093685
v -0.049253 0.046916 0.151586
v 0.000000 0.046916 0.159387
v 0.049253 0.046916 0.151586
v 0.128947 0.046916 0.093685
v 0.151586 0.046916 -0.049253
v 0.093685 0.046916 -0.128946
v 0.000000 0.046916 -0.159387
v -0.093685 0.046916 -0.128946
v 0.000000 -0.132144 0.000000
v -0.128854 0.049063 -0.093618
v -0.128854 0.049063 0.093618
v -0.049218 0.049063 0.151477
v 0.000000 0.049063 0.159272
v 0.049218 0.049063 0.151477
v 0.128854 0.049063 0.093618
v 0.151477 0.049063 -0.049218
v 0.093618 0.049063 -0.128854
v 0.000000 0.049063 -0.159272
v -0.093618 0.049063 -0.128854
v -0.128915 0.007109 -0.093663
v -0.093663 0.007109 -0.128916
v 0.000000 0.007109 -0.159348
v 0.093663 0.007109 -0.128916
v 0.151549 0.007109 -0.049241
v 0.128915 0.007109 0.093663
v 0.049241 0.007109 0.151549
v 0.000000 0.007109 0.159348
v -0.049241 0.007109 0.151549
v -0.128915 0.007109 0.093663
v 0.019900 0.164132 -0.008384
v 0.000000 0.165489 -0.008384
v 0.000000 0.165489 0.008384
v 0.019900 0.164132 0.008384
v 0.058702 0.151524 0.008384
v 0.058702 0.151524 -0.008384
v -0.019900 0.164132 0.008384
v -0.019900 0.164132 -0.008384
v -0.058702 0.151524 -0.008384
v -0.058702 0.151524 0.008384
v 0.091709 0.127544 0.008384
v -0.091709 0.127544 -0.008384
v 0.091709 0.127544 -0.008384
v -0.091709 0.127544 0.008384
v 0.120732 0.082422 0.022998
v -0.120732 0.082422 -0.022998
v 0.120732 0.082422 -0.022998
v -0.120732 0.082422 0.022998
v 0.024268 0.185812 -0.012398
v 0.024270 0.185209 -0.010849
v 0.024030 0.183723 -0.010111
v -0.000002 0.187268 -0.012476
v -0.000000 0.186774 -0.010879
v 0.000000 0.185290 -0.010104
v 0.023893 0.185812 0.012400
v 0.024158 0.185198 0.010852
v 0.024026 0.183700 0.010109
v 0.000000 0.187268 0.012476
v 0.000000 0.186775 0.010879
v 0.000000 0.185290 0.010104
v 0.071182 0.170332 0.012485
v 0.071495 0.169712 0.010892
v 0.071022 0.168259 0.010104
v 0.071709 0.170332 -0.012450
v 0.071673 0.169750 -0.010872
v 0.071065 0.168344 -0.010112
v -0.023893 0.185812 0.012400
v -0.024155 0.185180 0.010851
v -0.024014 0.183639 0.010104
v -0.023893 0.185812 -0.012400
v -0.024158 0.185198 -0.010852
v -0.024026 0.183700 -0.010109
v -0.071182 0.170332 -0.012485
v -0.071495 0.169712 -0.010892
v -0.071022 0.168259 -0.010104
v -0.071182 0.170332 0.012485
v -0.071477 0.169679 0.010889
v -0.070966 0.168150 0.010094
v 0.111732 0.140887 0.012633
v 0.111701 0.140480 0.010956
v 0.110539 0.139567 0.010105
v -0.111732 0.140887 -0.012633
v -0.111701 0.140480 -0.010956
v -0.110539 0.139567 -0.010105
v 0.112152 0.140887 -0.012572
v 0.111895 0.140519 -0.010922
v 0.110678 0.139655 -0.010118
v -0.111732 0.140887 0.012634
v -0.111700 0.140480 0.010957
v -0.110538 0.139566 0.010105
v 0.146466 0.084933 0.031249
v 0.146609 0.085617 0.028981
v 0.144825 0.085103 0.027588
v -0.146466 0.084252 -0.031249
v -0.146609 0.085617 -0.028981
v -0.144825 0.085103 -0.027588
v 0.146075 0.084919 -0.030973
v 0.146468 0.086171 -0.028893
v 0.144785 0.085098 -0.027580
v -0.146466 0.084649 0.031249
v -0.146609 0.085617 0.028981
v -0.144825 0.085103 0.027588
v -0.123521 0.075632 0.000000
v -0.149508 0.077030 -0.000007
v -0.151224 0.076541 -0.000090
v -0.152259 0.075119 -0.000310
v -0.157532 0.057893 0.000000
v -0.158659 0.049063 0.000000
v -0.158773 0.046916 0.000000
v -0.172857 0.043218 0.000000
v -0.175878 0.027370 0.000000
v -0.172857 0.011523 0.000000
v -0.158773 0.007825 0.000000
v -0.158735 0.007109 0.000000
v -0.157532 -0.002340 0.000000
v -0.142051 -0.045024 0.000000
v -0.112606 -0.085552 0.000000
v -0.072078 -0.114997 0.000000
v -0.024435 -0.130477 0.000000
v 0.024435 -0.130477 0.000000
v 0.072078 -0.114997 0.000000
v 0.112606 -0.085552 0.000000
v 0.142052 -0.045024 0.000000
v 0.157532 -0.002340 0.000000
v 0.158735 0.007109 0.000000
v 0.158773 0.007825 0.000000
v 0.172857 0.011523 0.000000
v 0.175878 0.027370 0.000000
v 0.172857 0.043218 0.000000
v 0.158773 0.046916 0.000000
v 0.158659 0.049063 0.000000
v 0.157532 0.057893 0.000000
v 0.152253 0.075142 0.000298
v 0.151218 0.076547 0.000087
v 0.149494 0.077029 0.000008
v 0.123521 0.075632 0.000000
v 0.000000 -0.160016 -0.009155
v 0.000000 -0.162851 0.003267
v 0.000000 -0.154906 0.013229
v 0.000000 -0.142165 0.013229
v 0.000000 -0.134220 0.003267
v 0.000000 -0.137055 -0.009155
v 0.000000 -0.148536 -0.014684
v -0.013167 -0.167495 -0.015119
v -0.013167 -0.172177 0.005396
v -0.013167 -0.159057 0.021848
v -0.013167 -0.138014 0.021848
v -0.013167 -0.124894 0.005396
v -0.013167 -0.129576 -0.015119
v -0.013167 -0.148536 -0.024250
v -0.008138 -0.179596 -0.024770
v -0.008138 -0.187268 0.008840
v -0.008138 -0.165773 0.035794
v -0.008138 -0.131298 0.035794
v -0.008138 -0.109803 0.008840
v -0.008138 -0.117475 -0.024770
v -0.008138 -0.148536 -0.039728
v 0.008138 -0.179596 -0.024770
v 0.008138 -0.187268 0.008840
v 0.008138 -0.165773 0.035794
v 0.008138 -0.131298 0.035794
v 0.008138 -0.109803 0.008840
v 0.008138 -0.117475 -0.024770
v 0.008138 -0.148536 -0.039728
v 0.013167 -0.167495 -0.015119
v 0.013167 -0.172177 0.005396
v 0.013167 -0.159057 0.021848
v 0.013167 -0.138014 0.021848
v 0.013167 -0.124894 0.005396
v 0.013167 -0.129576 -0.015119
v 0.013167 -0.148536 -0.024250
vt 0.100000 0.150000
vt 0.200000 0.150000
vt 0.300000 0.150000
vt 0.650000 0.150000
vt 0.700000 0.150000
vt 0.750000 0.150000
vt 0.100000 0.250000
vt 0.200000 0.250000
vt 0.300000 0.250000
vt 0.650000 0.250000
vt 0.700000 0.250000
vt 0.750000 0.250000
vt 0.100000 0.350000
vt 0.200000 0.350000
vt 0.300000 0.350000
vt 0.650000 0.350000
vt 0.700000 0.350000
vt 0.750000 0.350000
vt 0.050000 0.650000
vt 0.100000 0.650000
vt 0.200000 0.650000
vt 0.300000 0.650000
vt 0.550000 0.650000
vt 0.650000 0.650000
vt 0.700000 0.650000
vt 0.750000 0.650000
vt 0.850000 0.650000
vt 0.050000 0.750000
vt 0.100000 0.750000
vt 0.200000 0.750000
vt 0.300000 0.750000
vt 0.550000 0.750000
vt 0.650000 0.750000
vt 0.700000 0.750000
vt 0.750000 0.750000
vt 0.850000 0.750000
vt 0.050000 0.850000
vt 0.100000 0.850000
vt 0.200000 0.850000
vt 0.300000 0.850000
vt 0.550000 0.850000
vt 0.650000 0.850000
vt 0.700000 0.850000
vt 0.750000 0.850000
vt 0.850000 0.850000
vt 0.050000 0.450000
vt 0.100000 0.450000
vt 0.050000 0.485002
vt 0.100000 0.485002
vt 0.200000 0.450000
vt 0.200000 0.485002
vt 0.300000 0.450000
vt 0.300000 0.485002
vt 0.550000 0.485002
vt 0.650000 0.450000
vt 0.700000 0.450000
vt 0.650000 0.485002
vt 0.750000 0.450000
vt 0.700000 0.485002
vt 0.750000 0.485002
vt 0.850000 0.450000
vt 0.850000 0.485002
vt 0.050000 0.514999
vt 0.100000 0.514999
vt 0.050000 0.550000
vt 0.100000 0.550000
vt 0.200000 0.514999
vt 0.200000 0.550000
vt 0.300000 0.514999
vt 0.300000 0.550000
vt 0.550000 0.514999
vt 0.550000 0.550000
vt 0.650000 0.514999
vt 0.700000 0.514999
vt 0.650000 0.550000
vt 0.750000 0.514999
vt 0.700000 0.550000
vt 0.750000 0.550000
vt 0.850000 0.514999
vt 0.850000 0.550000
vt 0.050000 0.500000
vt 0.100000 0.500000
vt 0.200000 0.500000
vt 0.300000 0.500000
vt 0.550000 0.500000
vt 0.650000 0.500000
vt 0.700000 0.500000
vt 0.750000 0.500000
vt 0.850000 0.500000
vt 0.050000 0.518499
vt 0.850000 0.518499
vt 0.750000 0.518499
vt 0.700000 0.518499
vt 0.650000 0.518499
vt 0.550000 0.518499
vt 0.300000 0.518499
vt 0.200000 0.518499
vt 0.100000 0.518499
vt 0.050000 0.481501
vt 0.850000 0.481501
vt 0.750000 0.481501
vt 0.700000 0.481501
vt 0.650000 0.481501
vt 0.550000 0.481501
vt 0.300000 0.481501
vt 0.200000 0.481501
vt 0.100000 0.481501
vt 0.428268 0.983550
vt 0.971746 0.984049
vt 0.400000 0.550000
vt 0.400000 0.650000
vt 0.400000 0.750000
vt 0.400000 0.850000
vt 0.050000 0.950000
vt 0.100000 0.950000
vt 0.064422 0.988572
vt 0.118917 0.993989
vt 0.200000 0.950000
vt 0.225023 0.999896
vt 0.300000 0.950000
vt 0.336025 0.987933
vt 0.400000 0.950000
vt 0.550000 0.950000
vt 0.563449 0.989463
vt 0.650000 0.950000
vt 0.700000 0.950000
vt 0.675056 0.999873
vt 0.750000 0.950000
vt 0.724944 0.999873
vt 0.780800 0.992802
vt 0.850000 0.950000
vt 0.400000 0.450000
vt 0.400000 0.514999
vt 0.400000 0.500000
vt 0.400000 0.485002
vt 0.400000 0.518499
vt 0.400000 0.481501
vt 0.050000 0.478597
vt 0.850000 0.478597
vt 0.750000 0.478597
vt 0.700000 0.478597
vt 0.650000 0.478597
vt 0.550000 0.478597
vt 0.400000 0.478597
vt 0.300000 0.478597
vt 0.200000 0.478597
vt 0.100000 0.478597
vt 0.050000 0.519467
vt 0.100000 0.519467
vt 0.200000 0.519467
vt 0.300000 0.519467
vt 0.400000 0.519467
vt 0.550000 0.519467
vt 0.650000 0.519467
vt 0.700000 0.519467
vt 0.750000 0.519467
vt 0.850000 0.519467
vt 0.935213 0.150000
vt 0.850000 0.150000
vt 0.940540 0.250000
vt 0.850000 0.250000
vt 0.940436 0.350000
vt 0.850000 0.350000
vt 0.436191 0.150000
vt 0.484733 0.050000
vt 0.550000 0.150000
vt 0.854934 0.050000
vt 0.050000 0.150000
vt 0.400000 0.150000
vt 0.440367 0.250000
vt 0.464788 0.150000
vt 0.550000 0.250000
vt 0.897229 0.150000
vt 0.050000 0.250000
vt 0.400000 0.250000
vt 0.437741 0.350000
vt 0.459458 0.250000
vt 0.550000 0.350000
vt 0.917880 0.250000
vt 0.050000 0.350000
vt 0.400000 0.350000
vt 0.459564 0.350000
vt 0.550000 0.450000
vt 0.905434 0.350000
vt 0.035474 0.020947
vt 0.093051 0.036103
vt 0.181524 0.013079
vt 0.259937 0.017453
vt 0.352493 0.023915
vt 0.418198 0.050000
vt 0.535473 0.020947
vt 0.635372 0.020743
vt 0.681539 0.013077
vt 0.718461 0.013077
vt 0.802736 0.023026
vt 0.915267 0.050000
vt 0.424158 0.046711
vt 0.416520 0.016961
vt 0.416520 0.016961
vt 0.527786 0.020153
vt 0.474998 0.050000
vt 0.474998 0.050000
vt 0.473300 0.060358
vt 0.458614 0.150000
vt 0.458614 0.150000
vt 0.439815 0.140409
vt 0.425003 0.050000
vt 0.425003 0.050000
vt 0.924158 0.046711
vt 0.916520 0.016961
vt 0.916520 0.016961
vt 0.883480 0.046787
vt 0.033471 0.016940
vt 0.033470 0.016940
vt 0.973301 0.060358
vt 0.958614 0.150000
vt 0.958614 0.150000
vt 0.939752 0.140025
vt 0.925003 0.050000
vt 0.925003 0.050000
vt 0.458309 0.159889
vt 0.455530 0.250000
vt 0.455530 0.250000
vt 0.958309 0.159889
vt 0.955530 0.250000
vt 0.955530 0.250000
vt 0.444175 0.240450
vt 0.441386 0.150000
vt 0.441386 0.150000
vt 0.944147 0.239519
vt 0.941387 0.150000
vt 0.941387 0.150000
vt 0.455388 0.262424
vt 0.454389 0.350000
vt 0.454389 0.350000
vt 0.955389 0.262424
vt 0.954389 0.350000
vt 0.954389 0.350000
vt 0.445506 0.340770
vt 0.444470 0.250000
vt 0.444470 0.250000
vt 0.945498 0.340105
vt 0.944470 0.250000
vt 0.944470 0.250000
vt 0.454112 0.400000
vt 0.445854 0.393715
vt 0.445611 0.350000
vt 0.954112 0.400000
vt 0.945854 0.393788
vt 0.945611 0.350000
vt 0.439758 0.140062
vt 0.424187 0.046824
vt 0.412861 0.024278
vt 0.527650 0.020231
vt 0.908458 0.020965
vt 0.924154 0.046697
vt 0.473409 0.059697
vt 0.444185 0.240770
vt 0.939601 0.139101
vt 0.881280 0.046709
vt 0.973409 0.059697
vt 0.944165 0.240105
vt 0.458307 0.159957
vt 0.958307 0.159957
vt 0.445468 0.337430
vt 0.945470 0.337576
vt 0.455417 0.259889
vt 0.955418 0.259889
vt 0.454354 0.356212
vt 0.954355 0.356212
vt 0.425003 0.050000
vt 0.425003 0.050000
vt 0.441386 0.150000
vt 0.033470 0.016940
vt 0.974998 0.050000
vt 0.425003 0.050000
vt 0.416520 0.016961
vt 0.474998 0.050000
vt 0.474998 0.050000
vt 0.533470 0.016940
vt 0.925003 0.050000
vt 0.916520 0.016961
vt 0.533470 0.016940
vt 0.533470 0.016940
vt 0.458614 0.150000
vt 0.458614 0.150000
vt 0.474998 0.050000
vt 0.444470 0.250000
vt 0.441386 0.150000
vt 0.441386 0.150000
vt 0.941387 0.150000
vt 0.925003 0.050000
vt 0.925003 0.050000
vt 0.974998 0.050000
vt 0.974998 0.050000
vt 0.974998 0.050000
vt 0.958614 0.150000
vt 0.958614 0.150000
vt 0.974998 0.050000
vt 0.944470 0.250000
vt 0.941387 0.150000
vt 0.941387 0.150000
vt 0.455530 0.250000
vt 0.455530 0.250000
vt 0.458614 0.150000
vt 0.955530 0.250000
vt 0.955530 0.250000
vt 0.958614 0.150000
vt 0.445611 0.350000
vt 0.444470 0.250000
vt 0.444470 0.250000
vt 0.945611 0.350000
vt 0.944470 0.250000
vt 0.944470 0.250000
vt 0.454389 0.350000
vt 0.454389 0.350000
vt 0.455530 0.250000
vt 0.954389 0.350000
vt 0.954389 0.350000
vt 0.955530 0.250000
vt 0.445888 0.400000
vt 0.445611 0.350000
vt 0.445611 0.350000
vt 0.945888 0.400000
vt 0.945611 0.350000
vt 0.945611 0.350000
vt 0.945888 0.400000
vt 0.953481 0.400000
vt 0.954112 0.400000
vt 0.950000 0.400000
vt 0.950006 0.404480
vt 0.950000 0.450000
vt 0.950000 0.478597
vt 0.950000 0.481501
vt 0.950000 0.485002
vt 0.950000 0.500000
vt 0.950000 0.514999
vt 0.950000 0.518499
vt 0.950000 0.519467
vt 0.950000 0.550000
vt 0.950000 0.650000
vt 0.950000 0.750000
vt 0.950000 0.850000
vt 0.950000 0.950000
vt 0.450000 0.950000
vt 0.450000 0.850000
vt 0.450000 0.750000
vt 0.450000 0.650000
vt 0.450000 0.550000
vt 0.450000 0.519467
vt 0.450000 0.518499
vt 0.450000 0.514999
vt 0.450000 0.500000
vt 0.450000 0.485002
vt 0.450000 0.481501
vt 0.450000 0.478597
vt 0.450000 0.450000
vt 0.450006 0.404421
vt 0.454112 0.400000
vt 0.450000 0.400000
vt 0.453477 0.400000
vt 0.445888 0.400000
vt 0.142857 1.000000
vt 0.000000 1.000000
vt 0.000000 0.800000
vt 0.142857 0.800000
vt 0.285714 1.000000
vt 0.285714 0.800000
vt 0.428571 1.000000
vt 0.428571 0.800000
vt 0.571429 1.000000
vt 0.571429 0.800000
vt 0.714286 1.000000
vt 0.714286 0.800000
vt 0.857143 1.000000
vt 0.857143 0.800000
vt 1.000000 1.000000
vt 1.000000 0.800000
vt 0.000000 0.600000
vt 0.142857 0.600000
vt 0.285714 0.600000
vt 0.428571 0.600000
vt 0.571429 0.600000
vt 0.714286 0.600000
vt 0.857143 0.600000
vt 1.000000 0.600000
vt 0.000000 0.400000
vt 0.142857 0.400000
vt 0.285714 0.400000
vt 0.428571 0.400000
vt 0.571429 0.400000
vt 0.714286 0.400000
vt 0.857143 0.400000
vt 1.000000 0.400000
vt 0.000000 0.200000
vt 0.142857 0.200000
vt 0.285714 0.200000
vt 0.428571 0.200000
vt 0.571429 0.200000
vt 0.714286 0.200000
vt 0.857143 0.200000
vt 1.000000 0.200000
vt 0.000000 0.000000
vt 0.142857 0.000000
vt 0.285714 0.000000
vt 0.428571 0.000000
vt 0.571429 0.000000
vt 0.714286 0.000000
vt 0.857143 0.000000
vt 1.000000 0.000000
vn -0.232120 0.858132 -0.457962
vn -0.428964 0.860118 -0.276021
vn 0.004273 0.974990 -0.222207
vn 0.000001 0.858112 -0.513463
vn 0.292961 0.857372 -0.423188
vn 0.442820 0.845501 -0.298393
vn 0.235034 0.859224 0.454415
vn 0.388832 0.855791 0.341221
vn -0.000006 0.976426 0.215852
vn -0.000000 0.864673 0.502335
vn -0.235034 0.859224 0.454415
vn -0.388831 0.855791 0.341221
vn -0.335677 0.671589 -0.660522
vn -0.648416 0.667966 -0.365209
vn 0.000000 0.673506 -0.739181
vn 0.433664 0.669055 -0.603574
vn 0.653636 0.659149 -0.371863
vn 0.337068 0.671589 0.659813
vn 0.580955 0.669491 0.462896
vn 0.000000 0.681320 0.731986
vn -0.337068 0.671589 0.659813
vn -0.581581 0.669145 0.462611
vn -0.405610 0.451970 -0.794484
vn -0.774891 0.451244 -0.442632
vn 0.000000 0.454354 -0.890821
vn 0.523612 0.454354 -0.720689
vn 0.772295 0.456176 -0.442113
vn 0.404340 0.451970 0.795131
vn 0.693711 0.450778 0.561751
vn -0.000000 0.460217 0.887807
vn -0.404340 0.451969 0.795131
vn -0.693982 0.451067 0.561184
vn -0.435350 0.300735 -0.848545
vn -0.844086 0.238855 -0.480070
vn 0.000000 0.303494 -0.952833
vn 0.560061 0.303496 -0.770858
vn 0.837998 0.282767 -0.466692
vn 0.430594 0.300734 0.850969
vn 0.752476 0.255284 0.607132
vn -0.000000 0.304987 0.952357
vn -0.430594 0.300734 0.850969
vn -0.752477 0.255825 0.606903
vn -0.435774 -0.297395 -0.849504
vn -0.405853 -0.450899 -0.794968
vn -0.796639 -0.450997 -0.402453
vn -0.851121 -0.297546 -0.432504
vn 0.000000 -0.300112 -0.953904
vn 0.000000 -0.453268 -0.891374
vn 0.560691 -0.300113 -0.771724
vn 0.523937 -0.453269 -0.721136
vn 0.797181 -0.451223 -0.401124
vn 0.853429 -0.297702 -0.427823
vn 0.431121 -0.297392 0.851876
vn 0.404588 -0.450899 0.795612
vn 0.722577 -0.453525 0.521726
vn 0.773130 -0.300350 0.558623
vn -0.000000 -0.301651 0.953418
vn -0.000000 -0.459159 0.888354
vn -0.431121 -0.297392 0.851876
vn -0.404588 -0.450899 0.795612
vn -0.722577 -0.453525 0.521725
vn -0.773130 -0.300352 0.558622
vn -0.335677 -0.671589 -0.660522
vn -0.662265 -0.671619 -0.332164
vn 0.000000 -0.673506 -0.739181
vn 0.434480 -0.673507 -0.598010
vn 0.661340 -0.671917 -0.333400
vn 0.337068 -0.671589 0.659813
vn 0.599441 -0.673763 0.432103
vn 0.000000 -0.681320 0.731986
vn -0.337068 -0.671589 0.659813
vn -0.599442 -0.673762 0.432103
vn -0.233900 -0.854476 -0.463856
vn -0.465847 -0.854366 -0.230315
vn 0.000000 -0.855402 -0.517964
vn 0.304452 -0.855402 -0.419042
vn 0.463501 -0.854673 -0.233883
vn 0.237785 -0.854475 0.461878
vn 0.420598 -0.855540 0.301910
vn -0.000000 -0.861426 0.507884
vn -0.237785 -0.854475 0.461878
vn -0.420597 -0.855540 0.301909
vn -0.130755 -0.956177 -0.261971
vn -0.264214 -0.956068 -0.126985
vn 0.000000 -0.956913 -0.290374
vn 0.170677 -0.956913 -0.234918
vn 0.261503 -0.956330 -0.130573
vn 0.135084 -0.956177 0.259766
vn 0.236736 -0.956985 0.167736
vn -0.000000 -0.958049 0.286606
vn -0.135084 -0.956177 0.259766
vn -0.236734 -0.956986 0.167735
vn -0.452052 0.110699 -0.885096
vn -0.886776 0.110771 -0.448729
vn 0.000000 0.111968 -0.993712
vn 0.584091 0.111967 -0.803928
vn 0.887631 0.110818 -0.447023
vn 0.450353 0.110701 0.885961
vn 0.805437 0.112079 0.581987
vn -0.000000 0.112175 0.993688
vn -0.450353 0.110693 0.885962
vn -0.805442 0.112061 0.581985
vn -0.718951 -0.592558 -0.363296
vn -0.365656 -0.593299 -0.717142
vn -0.131229 -0.955983 -0.262442
vn -0.262961 -0.955989 -0.130139
vn 0.000000 -0.957410 -0.288731
vn 0.000000 -0.586793 -0.809737
vn 0.169712 -0.957410 -0.233588
vn 0.475951 -0.586793 -0.655091
vn 0.260688 -0.956085 -0.133951
vn 0.719011 -0.592780 -0.362815
vn 0.135185 -0.955983 0.260426
vn 0.233979 -0.957458 0.168905
vn 0.656552 -0.586359 0.474471
vn 0.365252 -0.593298 0.717348
vn 0.000000 -0.618448 0.785826
vn -0.000000 -0.956426 0.291976
vn -0.365251 -0.593300 0.717347
vn -0.135186 -0.955983 0.260425
vn -0.233981 -0.957456 0.168911
vn -0.656551 -0.586363 0.474468
vn -0.891703 0.000000 -0.452621
vn -0.455772 0.000000 -0.890097
vn -0.718951 0.592558 -0.363296
vn -0.365656 0.593299 -0.717142
vn 0.000000 0.000000 -1.000000
vn 0.000000 0.586793 -0.809737
vn 0.587786 0.000000 -0.809016
vn 0.475951 0.586793 -0.655091
vn 0.893503 0.000000 -0.449056
vn 0.719011 0.592780 -0.362814
vn 0.810447 -0.000000 0.585812
vn 0.452208 0.000000 0.891913
vn 0.365252 0.593298 0.717348
vn 0.656552 0.586359 0.474471
vn -0.000000 -0.000000 1.000000
vn -0.000000 0.618447 0.785826
vn -0.452208 0.000000 0.891913
vn -0.365251 0.593300 0.717347
vn -0.810447 -0.000000 0.585812
vn -0.656550 0.586363 0.474468
vn -0.449665 -0.119673 0.885144
vn -0.804561 -0.121196 0.581371
vn 0.000000 -0.121177 0.992631
vn 0.449665 -0.119683 0.885143
vn 0.804556 -0.121214 0.581375
vn 0.583461 -0.121091 -0.803063
vn 0.886799 -0.119813 -0.446354
vn 0.000000 -0.121092 -0.992641
vn -0.451789 -0.119679 -0.884061
vn -0.885731 -0.119761 -0.448483
vn -0.166466 0.931970 0.322059
vn -0.287951 0.934803 0.207913
vn 0.000000 0.931253 0.364374
vn 0.166466 0.931969 0.322059
vn 0.287948 0.934805 0.207906
vn 0.208918 0.934702 -0.287552
vn 0.322268 0.932172 -0.164919
vn 0.000000 0.934702 -0.355432
vn -0.162704 0.931969 -0.323977
vn -0.324495 0.932028 -0.161327
vn 0.981790 0.110491 0.154535
vn 0.962662 0.209242 0.171757
vn -0.980492 0.196519 0.003962
vn -0.993736 0.111757 0.000000
vn 0.943550 -0.296919 0.146808
vn 0.980802 -0.119449 0.154140
vn 0.881929 -0.450429 0.138982
vn -0.992670 -0.120859 0.000000
vn -0.954061 -0.299614 0.000000
vn -0.891659 -0.452708 0.000000
vn 0.732089 -0.671123 0.116791
vn -0.739740 -0.672893 -0.000000
vn 0.513218 -0.854176 0.083610
vn -0.518745 -0.854929 0.000000
vn 0.289666 -0.955890 0.048662
vn -0.291601 -0.956540 0.000000
vn -0.000554 -0.999997 -0.002349
vn -0.356709 0.934216 0.000000
vn -0.809638 0.586930 0.000001
vn -1.000000 0.000000 0.000001
vn -0.809638 -0.586930 0.000001
vn -0.289663 -0.957129 0.000000
vn 0.794730 -0.593815 0.125647
vn 0.987999 -0.000000 0.154459
vn 0.794730 0.593815 0.125647
vn 0.290431 -0.955678 0.048262
vn 0.359144 0.931413 0.059034
vn -0.226084 0.953834 0.197703
vn -0.486931 0.849739 0.202091
vn -0.709240 0.657726 0.253723
vn -0.881277 0.348420 0.319304
vn -0.975266 0.221030 -0.001587
vn 0.954322 0.237483 0.181306
vn 0.881134 0.348161 0.319979
vn 0.222668 0.944464 -0.241674
vn 0.472643 0.871188 -0.132821
vn 0.486866 0.849638 0.202674
vn 0.226039 0.953723 0.198291
vn -0.486869 0.849637 -0.202672
vn -0.226046 0.953723 -0.198283
vn 0.730256 0.676441 -0.095678
vn 0.708690 0.658477 0.253312
vn -0.709929 0.656591 -0.254732
vn 0.920998 0.355956 -0.158300
vn -0.881196 0.348396 -0.319554
vn 0.028437 0.118475 0.992550
vn -0.000018 0.120541 0.992708
vn 0.000002 0.086565 0.996246
vn 0.019927 0.083761 0.996287
vn -0.000024 0.120648 -0.992695
vn 0.029005 0.119639 -0.992394
vn 0.019920 0.083768 -0.996286
vn 0.000005 0.086565 -0.996246
vn 0.057456 0.107746 -0.992517
vn 0.036884 0.075142 -0.996491
vn 0.056163 0.106285 0.992748
vn 0.036904 0.075121 0.996491
vn -0.029036 0.119633 -0.992394
vn -0.019911 0.083778 -0.996286
vn -0.029005 0.119639 0.992394
vn -0.019920 0.083768 0.996286
vn -0.057456 0.107746 0.992517
vn -0.036885 0.075142 0.996491
vn -0.057409 0.107731 -0.992521
vn -0.036891 0.075146 -0.996490
vn 0.182869 -0.066325 -0.980898
vn 0.132853 -0.066484 -0.988903
vn -0.182869 -0.066325 0.980897
vn -0.132853 -0.066484 0.988903
vn 0.181475 -0.067234 0.981095
vn 0.132717 -0.066269 0.988936
vn -0.182951 -0.066369 -0.980879
vn -0.132984 -0.066695 -0.988872
vn 0.261206 -0.142204 -0.954751
vn 0.203421 -0.180819 -0.962250
vn -0.261207 -0.142204 0.954751
vn -0.203421 -0.180819 0.962250
vn 0.253607 -0.147623 0.955977
vn 0.203419 -0.180821 0.962250
vn -0.261225 -0.142190 -0.954748
vn -0.203420 -0.180820 -0.962250
vn -0.053722 0.998556 -0.000081
vn -0.051388 0.956088 -0.288541
vn -0.035334 0.957199 -0.287268
vn -0.046279 0.998927 0.001590
vn 0.053723 0.998556 -0.000045
vn 0.051396 0.956089 0.288535
vn 0.035145 0.957214 0.287237
vn 0.038676 0.999252 -0.000633
vn 0.051480 0.956103 -0.288475
vn 0.036554 0.957149 -0.287281
vn 0.220808 0.914289 0.339588
vn 0.445848 0.839245 0.311269
vn 0.101942 0.433321 0.895456
vn 0.205310 0.405180 0.890886
vn -0.000229 0.452251 0.891891
vn -0.000060 0.944543 0.328388
vn 0.234070 0.921418 -0.310160
vn -0.000182 0.943957 -0.330069
vn 0.102370 0.440480 -0.891907
vn -0.000329 0.450432 -0.892811
vn -0.233318 0.917566 -0.321924
vn -0.100764 0.431039 -0.896689
vn 0.209440 0.419670 -0.883183
vn 0.471559 0.847820 -0.242555
vn 0.731030 0.681416 0.035611
vn 0.474353 0.179047 0.861935
vn -0.469656 0.845257 -0.254882
vn -0.204663 0.409855 -0.888894
vn -0.102369 0.440481 0.891907
vn -0.234072 0.921417 0.310164
vn -0.209440 0.419670 0.883183
vn -0.471559 0.847820 0.242555
vn -0.748297 0.663050 -0.020414
vn -0.482769 0.204442 -0.851550
vn 0.486233 0.205284 -0.849374
vn 0.752988 0.656813 -0.040078
vn -0.486233 0.205283 0.849374
vn -0.741278 0.670940 -0.018617
vn 0.813480 0.558551 -0.162085
vn 0.552941 0.078826 0.829483
vn -0.861111 0.501474 0.083743
vn -0.572608 0.098070 -0.813943
vn 0.572554 0.098008 -0.813988
vn 0.860586 0.506766 0.050803
vn -0.572554 0.098006 0.813988
vn -0.858435 0.496871 -0.127310
vn 0.954508 0.287066 -0.080678
vn 0.937346 0.346809 -0.033269
vn -0.053839 0.950420 0.306272
vn -0.051726 0.955546 0.290270
vn 0.031363 0.999505 0.002581
vn -0.930766 0.365540 -0.007375
vn -0.095733 0.956981 -0.273903
vn -0.106200 0.994301 0.009385
vn 0.105826 0.956210 -0.272881
vn -0.108150 0.956054 0.272514
vn -0.051488 0.956104 0.288469
vn 0.000000 0.974928 -0.222521
vn 0.000000 0.781832 0.623489
vn -0.999922 0.009753 0.007778
vn -0.999922 0.012162 -0.002776
vn -0.000000 0.433884 -0.900969
vn -0.999922 0.005413 -0.011240
vn 0.000000 -0.433884 -0.900969
vn -0.999922 -0.005413 -0.011240
vn -0.000000 -0.974928 -0.222521
vn -0.999922 -0.012162 -0.002776
vn -0.000000 -0.781832 0.623490
vn -0.999922 -0.009753 0.007778
vn -0.000000 -0.000000 1.000000
vn -0.999922 -0.000000 0.012475
vn -0.427323 -0.706853 -0.563697
vn -0.427323 -0.881431 0.201181
vn -0.427323 -0.392274 0.814565
vn -0.427323 0.392274 0.814565
vn -0.427323 0.881431 0.201181
vn -0.427323 0.706853 -0.563697
vn -0.427323 -0.000000 -0.904099
vn 0.427323 -0.706853 -0.563696
vn 0.427323 -0.881431 0.201181
vn 0.427323 -0.392274 0.814565
vn 0.427323 0.392274 0.814565
vn 0.427323 0.881431 0.201181
vn 0.427323 0.706853 -0.563697
vn 0.427323 0.000000 -0.904099
vn 0.999922 0.009753 0.007778
vn 0.999922 0.012162 -0.002776
vn 0.999922 0.005413 -0.011239
vn 0.999922 -0.005413 -0.011240
vn 0.999922 -0.012162 -0.002776
vn 0.999922 -0.009753 0.007778
vn 0.999922 -0.000000 0.012475
s 1
g pSphere2
f 2/1/1 1/168/2 183/186/3
f 3/2/4 2/1/1 183/187/3
f 4/3/5 3/2/4 183/188/3
f 5/169/6 4/3/5 183/189/3
f 7/4/7 6/166/8 189/192/9
f 8/5/10 7/4/7 189/193/9
f 9/6/11 8/5/10 189/194/9
f 10/159/12 9/6/11 189/195/9
f 2/1/1 12/7/13 11/174/14 1/168/2
f 3/2/4 13/8/15 12/7/13 2/1/1
f 4/3/5 14/9/16 13/8/15 3/2/4
f 15/175/17 14/9/16 4/3/5 5/169/6
f 7/4/7 17/10/18 16/172/19 6/166/8
f 8/5/10 18/11/20 17/10/18 7/4/7
f 9/6/11 19/12/21 18/11/20 8/5/10
f 20/161/22 19/12/21 9/6/11 10/159/12
f 12/7/13 22/13/23 21/180/24 11/174/14
f 13/8/15 23/14/25 22/13/23 12/7/13
f 14/9/16 24/15/26 23/14/25 13/8/15
f 25/181/27 24/15/26 14/9/16 15/175/17
f 17/10/18 27/16/28 26/178/29 16/172/19
f 18/11/20 28/17/30 27/16/28 17/10/18
f 19/12/21 29/18/31 28/17/30 18/11/20
f 30/163/32 29/18/31 19/12/21 20/161/22
f 22/13/23 32/47/33 31/46/34 21/180/24
f 23/14/25 33/50/35 32/47/33 22/13/23
f 24/15/26 34/52/36 33/50/35 23/14/25
f 35/132/37 34/52/36 24/15/26 25/181/27
f 27/16/28 37/55/38 36/183/39 26/178/29
f 28/17/30 38/56/40 37/55/38 27/16/28
f 29/18/31 39/58/41 38/56/40 28/17/30
f 40/61/42 39/58/41 29/18/31 30/163/32
f 42/66/43 52/20/44 51/19/45 41/65/46
f 43/68/47 53/21/48 52/20/44 42/66/43
f 44/70/49 54/22/50 53/21/48 43/68/47
f 55/111/51 54/22/50 44/70/49 45/110/52
f 47/75/53 57/24/54 56/23/55 46/72/56
f 48/77/57 58/25/58 57/24/54 47/75/53
f 49/78/59 59/26/60 58/25/58 48/77/57
f 60/27/61 59/26/60 49/78/59 50/80/62
f 52/20/44 62/29/63 61/28/64 51/19/45
f 53/21/48 63/30/65 62/29/63 52/20/44
f 54/22/50 64/31/66 63/30/65 53/21/48
f 65/112/67 64/31/66 54/22/50 55/111/51
f 57/24/54 67/33/68 66/32/69 56/23/55
f 58/25/58 68/34/70 67/33/68 57/24/54
f 59/26/60 69/35/71 68/34/70 58/25/58
f 70/36/72 69/35/71 59/26/60 60/27/61
f 62/29/63 72/38/73 71/37/74 61/28/64
f 63/30/65 73/39/75 72/38/73 62/29/63
f 64/31/66 74/40/76 73/39/75 63/30/65
f 75/113/77 74/40/76 64/31/66 65/112/67
f 67/33/68 77/42/78 76/41/79 66/32/69
f 68/34/70 78/43/80 77/42/78 67/33/68
f 69/35/71 79/44/81 78/43/80 68/34/70
f 80/45/82 79/44/81 69/35/71 70/36/72
f 72/38/73 82/115/83 81/114/84 71/37/74
f 73/39/75 83/118/85 82/115/83 72/38/73
f 74/40/76 84/120/86 83/118/85 73/39/75
f 85/122/87 84/120/86 74/40/76 75/113/77
f 77/42/78 87/125/88 86/123/89 76/41/79
f 78/43/80 88/126/90 87/125/88 77/42/78
f 79/44/81 89/128/91 88/126/90 78/43/80
f 90/131/92 89/128/91 79/44/81 80/45/82
f 31/46/34 32/47/33 151/147/93 142/138/94
f 150/146/95 151/147/93 32/47/33 33/50/35
f 149/145/96 150/146/95 33/50/35 34/52/36
f 148/144/97 149/145/96 34/52/36 35/132/37
f 146/142/98 147/143/99 36/183/39 37/55/38
f 37/55/38 38/56/40 145/141/100 146/142/98
f 38/56/40 39/58/41 144/140/101 145/141/100
f 143/139/102 144/140/101 39/58/41 40/61/42
f 93/63/103 96/64/104 130/98/105 121/90/106
f 129/97/107 130/98/105 96/64/104 99/67/108
f 128/96/109 129/97/107 99/67/108 102/69/110
f 127/136/111 128/96/109 102/69/110 105/133/112
f 125/94/113 126/95/114 108/71/115 111/73/116
f 111/73/116 114/74/117 124/93/118 125/94/113
f 114/74/117 117/76/119 123/92/120 124/93/118
f 122/91/121 123/92/120 117/76/119 120/79/122
f 93/63/103 92/81/123 95/82/124 96/64/104
f 92/81/123 91/48/125 94/49/126 95/82/124
f 95/82/124 98/83/127 99/67/108 96/64/104
f 97/51/128 98/83/127 95/82/124 94/49/126
f 98/83/127 101/84/129 102/69/110 99/67/108
f 100/53/130 101/84/129 98/83/127 97/51/128
f 101/84/129 104/134/131 105/133/112 102/69/110
f 103/135/132 104/134/131 101/84/129 100/53/130
f 107/85/133 110/86/134 111/73/116 108/71/115
f 109/57/135 110/86/134 107/85/133 106/54/136
f 111/73/116 110/86/134 113/87/137 114/74/117
f 110/86/134 109/57/135 112/59/138 113/87/137
f 114/74/117 113/87/137 116/88/139 117/76/119
f 113/87/137 112/59/138 115/60/140 116/88/139
f 116/88/139 119/89/141 120/79/122 117/76/119
f 118/62/142 119/89/141 116/88/139 115/60/140
f 50/80/62 49/78/59 160/156/143 161/157/144
f 159/155/145 160/156/143 49/78/59 48/77/57
f 158/154/146 159/155/145 48/77/57 47/75/53
f 47/75/53 46/72/56 157/153/147 158/154/146
f 45/110/52 44/70/49 155/151/148 156/152/149
f 44/70/49 43/68/47 154/150/150 155/151/148
f 43/68/47 42/66/43 153/149/151 154/150/150
f 152/148/152 153/149/151 42/66/43 41/65/46
f 118/62/142 115/60/140 133/101/153 132/100/154
f 134/102/155 133/101/153 115/60/140 112/59/138
f 135/103/156 134/102/155 112/59/138 109/57/135
f 109/57/135 106/54/136 136/104/157 135/103/156
f 103/135/132 100/53/130 138/105/158 137/137/159
f 100/53/130 97/51/128 139/106/160 138/105/158
f 97/51/128 94/49/126 140/107/161 139/106/160
f 131/99/162 140/107/161 94/49/126 91/48/125
f 147/143/99 262/356/163 263/357/164 36/183/39
f 40/61/42 238/332/165 239/333/166 143/139/102
f 46/72/56 255/349/167 256/350/168 157/153/147
f 254/348/169 255/349/167 46/72/56 56/23/55
f 161/157/144 245/339/170 246/340/171 50/80/62
f 50/80/62 246/340/171 247/341/172 60/27/61
f 253/347/173 254/348/169 56/23/55 66/32/69
f 60/27/61 247/341/172 248/342/174 70/36/72
f 252/346/175 253/347/173 66/32/69 76/41/79
f 70/36/72 248/342/174 249/343/176 80/45/82
f 251/345/177 252/346/175 76/41/79 86/123/89
f 80/45/82 249/343/176 250/344/178 90/131/92
f 141/108/179 251/345/177 86/123/89
f 90/131/92 250/344/178 141/109/179
f 132/100/154 240/334/180 241/335/181 118/62/142
f 118/62/142 241/335/181 242/336/182 119/89/141
f 119/89/141 242/336/182 243/337/183 120/79/122
f 120/79/122 243/337/183 244/338/184 122/91/121
f 258/352/185 259/353/186 107/85/133 108/71/115
f 107/85/133 259/353/186 260/354/187 106/54/136
f 126/95/114 257/351/188 258/352/185 108/71/115
f 106/54/136 260/354/187 261/355/189 136/104/157
f 81/114/84 82/115/83 141/116/179
f 141/117/179 82/115/83 83/118/85
f 141/119/179 83/118/85 84/120/86
f 141/121/179 84/120/86 85/122/87
f 141/124/179 86/123/89 87/125/88
f 87/125/88 88/126/90 141/127/179
f 88/126/90 89/128/91 141/129/179
f 141/130/179 89/128/91 90/131/92
f 143/139/102 239/333/166 240/334/180 132/100/154
f 132/100/154 133/101/153 144/140/101 143/139/102
f 145/141/100 144/140/101 133/101/153 134/102/155
f 146/142/98 145/141/100 134/102/155 135/103/156
f 135/103/156 136/104/157 147/143/99 146/142/98
f 136/104/157 261/355/189 262/356/163 147/143/99
f 137/137/159 138/105/158 149/145/96 148/144/97
f 138/105/158 139/106/160 150/146/95 149/145/96
f 139/106/160 140/107/161 151/147/93 150/146/95
f 142/138/94 151/147/93 140/107/161 131/99/162
f 121/90/106 130/98/105 153/149/151 152/148/152
f 153/149/151 130/98/105 129/97/107 154/150/150
f 154/150/150 129/97/107 128/96/109 155/151/148
f 155/151/148 128/96/109 127/136/111 156/152/149
f 157/153/147 256/350/168 257/351/188 126/95/114
f 157/153/147 126/95/114 125/94/113 158/154/146
f 125/94/113 124/93/118 159/155/145 158/154/146
f 124/93/118 123/92/120 160/156/143 159/155/145
f 160/156/143 123/92/120 122/91/121 161/157/144
f 122/91/121 244/338/184 245/339/170 161/157/144
f 198/196/190 207/158/191 10/159/12 189/255/9
f 20/161/22 10/159/12 207/158/191 219/160/192
f 30/163/32 20/161/22 219/160/192 231/162/193
f 40/61/42 30/163/32 231/162/193 237/331/194 238/332/165
f 36/183/39 263/357/164 264/358/195 222/182/196 26/178/29
f 180/190/197 195/164/198 5/169/6 183/253/3
f 6/166/8 192/171/199 186/165/200 189/191/9
f 1/168/2 204/173/201 201/167/202 183/185/3
f 15/175/17 5/169/6 195/164/198 216/170/203
f 210/177/204 192/171/199 6/166/8 16/172/19
f 213/179/205 204/173/201 1/168/2 11/174/14
f 25/181/27 15/175/17 216/170/203 228/176/206
f 222/182/196 210/177/204 16/172/19 26/178/29
f 225/184/207 213/179/205 11/174/14 21/180/24
s 7
f 182/252/208 185/197/209 163/198/210 162/199/211
s 8
f 191/254/212 188/200/213 165/201/214 164/202/215
f 188/257/213 194/203/216 166/204/217 165/205/214
s 7
f 197/251/218 182/206/208 162/207/211 167/208/219
s 8
f 200/256/220 191/209/212 164/210/215 168/211/221
s 7
f 185/260/209 203/212/222 169/213/223 163/214/210
f 203/261/222 206/215/224 170/216/225 169/217/223
s 8
f 209/259/226 200/218/220 168/219/221 171/220/227
f 194/263/216 212/221/228 172/222/229 166/223/217
s 7
f 206/264/224 215/224/230 173/225/231 170/226/225
f 218/258/232 197/227/218 167/228/219 174/229/233
s 8
f 221/262/234 209/230/226 171/231/227 175/232/235
f 212/267/228 224/233/236 176/234/237 172/235/229
s 7
f 215/268/230 227/236/238 177/237/239 173/238/231
f 230/265/240 218/239/232 174/240/233 178/241/241
s 8
f 233/266/242 221/242/234 175/243/235 179/244/243
s 9
f 267/362/244 176/245/245 224/269/246 266/361/247
s 10
f 234/327/248 177/248/249 227/270/250 235/328/251
f 179/250/252 234/327/248 235/328/251 233/249/253
s 1
f 180/190/197 181/271/254 196/289/255 195/164/198
s 7
f 181/273/256 182/206/208 197/251/218 196/290/257
f 182/252/208 181/272/256 184/276/258 185/197/209
s 1
f 181/271/254 180/190/197 183/253/3 184/277/259
f 186/165/200 187/278/260 190/283/261 189/191/9
s 8
f 187/280/262 188/200/213 191/254/212 190/284/263
s 1
f 189/255/9 190/282/261 199/292/264 198/196/190
s 8
f 190/281/263 191/209/212 200/256/220 199/293/265
f 188/257/213 187/279/262 193/287/266 194/203/216
s 1
f 187/278/260 186/165/200 192/171/199 193/285/267
f 195/164/198 196/289/255 217/310/268 216/170/203
s 7
f 196/288/257 197/227/218 218/258/232 217/311/269
s 1
f 198/196/190 199/292/264 208/301/270 207/158/191
s 8
f 199/291/265 200/218/220 209/259/226 208/302/271
s 7
f 185/260/209 184/275/258 202/296/272 203/212/222
s 1
f 184/274/259 183/185/3 201/167/202 202/294/273
s 7
f 203/261/222 202/295/272 205/299/274 206/215/224
s 1
f 202/294/273 201/167/202 204/173/201 205/297/275
f 207/158/191 208/301/270 220/313/276 219/160/192
s 8
f 208/300/271 209/230/226 221/262/234 220/314/277
f 194/263/216 193/286/266 211/305/278 212/221/228
s 1
f 193/285/267 192/171/199 210/177/204 211/303/279
s 7
f 206/264/224 205/298/274 214/308/280 215/224/230
s 1
f 205/297/275 204/173/201 213/179/205 214/306/281
f 216/170/203 217/310/268 229/322/282 228/176/206
s 7
f 217/309/269 218/239/232 230/265/240 229/323/283
s 1
f 219/160/192 220/313/276 232/325/284 231/162/193
s 8
f 220/312/277 221/242/234 233/266/242 232/326/285
f 212/267/228 211/304/278 223/317/286 224/233/236
s 1
f 211/303/279 210/177/204 222/182/196 223/315/287
s 7
f 215/268/230 214/307/280 226/320/288 227/236/238
s 1
f 214/306/281 213/179/205 225/184/207 226/318/289
f 228/176/206 229/322/290 265/360/291 264/358/195
s 9
f 229/321/292 230/246/293 266/361/247 265/359/294
s 1
f 231/162/193 232/325/284 236/330/295 237/331/194
s 10
f 232/324/296 233/249/253 235/328/251 236/329/297
s 9
f 223/316/298 265/359/294 266/361/247 224/269/246
s 1
f 264/358/195 265/360/291 223/315/287 222/182/196
s 10
f 226/319/299 236/329/297 235/328/251 227/270/250
s 1
f 237/331/194 236/330/295 226/318/289 225/184/207
f 31/46/34 238/332/165 237/331/194 225/184/207 21/180/24
f 142/138/94 239/333/166 238/332/165 31/46/34
f 131/99/162 240/334/180 239/333/166 142/138/94
f 241/335/181 240/334/180 131/99/162 91/48/125
f 242/336/182 241/335/181 91/48/125 92/81/123
f 243/337/183 242/336/182 92/81/123 93/63/103
f 121/90/106 244/338/184 243/337/183 93/63/103
f 152/148/152 245/339/170 244/338/184 121/90/106
f 41/65/46 246/340/171 245/339/170 152/148/152
f 247/341/172 246/340/171 41/65/46 51/19/45
f 248/342/174 247/341/172 51/19/45 61/28/64
f 249/343/176 248/342/174 61/28/64 71/37/74
f 250/344/178 249/343/176 71/37/74 81/114/84
f 141/109/179 250/344/178 81/114/84
f 85/122/87 251/345/177 141/108/179
f 75/113/77 252/346/175 251/345/177 85/122/87
f 65/112/67 253/347/173 252/346/175 75/113/77
f 55/111/51 254/348/169 253/347/173 65/112/67
f 45/110/52 255/349/167 254/348/169 55/111/51
f 156/152/149 256/350/168 255/349/167 45/110/52
f 127/136/111 257/351/188 256/350/168 156/152/149
f 105/133/112 258/352/185 257/351/188 127/136/111
f 259/353/186 258/352/185 105/133/112 104/134/131
f 260/354/187 259/353/186 104/134/131 103/135/132
f 137/137/159 261/355/189 260/354/187 103/135/132
f 148/144/97 262/356/163 261/355/189 137/137/159
f 35/132/37 263/357/164 262/356/163 148/144/97
f 228/176/206 264/358/195 263/357/164 35/132/37 25/181/27
s 9
f 178/247/300 267/362/244 266/361/247 230/246/293
s 11
f 269/363/301 268/364/302 275/365/303 276/366/304
f 270/367/305 269/363/301 276/366/304 277/368/306
f 271/369/307 270/367/305 277/368/306 278/370/308
f 272/371/309 271/369/307 278/370/308 279/372/310
f 273/373/311 272/371/309 279/372/310 280/374/312
f 274/375/313 273/373/311 280/374/312 281/376/314
f 268/377/302 274/375/313 281/376/314 275/378/303
f 276/366/304 275/365/303 282/379/315 283/380/316
f 277/368/306 276/366/304 283/380/316 284/381/317
f 278/370/308 277/368/306 284/381/317 285/382/318
f 279/372/310 278/370/308 285/382/318 286/383/319
f 280/374/312 279/372/310 286/383/319 287/384/320
f 281/376/314 280/374/312 287/384/320 288/385/321
f 275/378/303 281/376/314 288/385/321 282/386/315
f 283/380/316 282/379/315 289/387/322 290/388/323
f 284/381/317 283/380/316 290/388/323 291/389/324
f 285/382/318 284/381/317 291/389/324 292/390/325
f 286/383/319 285/382/318 292/390/325 293/391/326
f 287/384/320 286/383/319 293/391/326 294/392/327
f 288/385/321 287/384/320 294/392/327 295/393/328
f 282/386/315 288/385/321 295/393/328 289/394/322
f 290/388/323 289/387/322 296/395/329 297/396/330
f 291/389/324 290/388/323 297/396/330 298/397/331
f 292/390/325 291/389/324 298/397/331 299/398/332
f 293/391/326 292/390/325 299/398/332 300/399/333
f 294/392/327 293/391/326 300/399/333 301/400/334
f 295/393/328 294/392/327 301/400/334 302/401/335
f 289/394/322 295/393/328 302/401/335 296/402/329
f 297/396/330 296/395/329 268/403/302 269/404/301
f 298/397/331 297/396/330 269/404/301 270/405/305
f 299/398/332 298/397/331 270/405/305 271/406/307
f 300/399/333 299/398/332 271/406/307 272/407/309
f 301/400/334 300/399/333 272/407/309 273/408/311
f 302/401/335 301/400/334 273/408/311 274/409/313
f 296/402/329 302/401/335 274/409/313 268/410/302
