# This file uses centimeters as units for non-parametric coordinates.

g default
v 0.030427 -0.250903 -0.017567
v 0.017567 -0.250903 -0.030427
v 0.000000 -0.250903 -0.035133
v -0.017567 -0.250903 -0.030427
v -0.030427 -0.250903 -0.017567
v -0.035133 -0.250903 0.000000
v -0.030427 -0.250903 0.017567
v -0.017567 -0.250903 0.030427
v 0.000000 -0.250903 0.035133
v 0.017567 -0.250903 0.030427
v 0.030427 -0.250903 0.017567
v 0.035133 -0.250903 0.000000
v 0.063726 -0.209418 -0.036792
v 0.036792 -0.209418 -0.063726
v 0.000000 -0.209418 -0.073585
v -0.036792 -0.209418 -0.063726
v -0.063726 -0.209418 -0.036792
v -0.073585 -0.209418 0.000000
v -0.063726 -0.209418 0.036792
v -0.036792 -0.209418 0.063726
v 0.000000 -0.209418 0.073585
v 0.036792 -0.209418 0.063726
v 0.063726 -0.209418 0.036792
v 0.073585 -0.209418 0.000000
v 0.090122 -0.170989 -0.052032
v 0.052032 -0.170989 -0.090122
v 0.000000 -0.170989 -0.104064
v -0.052032 -0.170989 -0.090122
v -0.090122 -0.170989 -0.052032
v -0.104064 -0.170989 0.000000
v -0.090122 -0.170989 0.052032
v -0.052032 -0.170989 0.090122
v 0.000000 -0.170989 0.104064
v 0.052032 -0.170989 0.090122
v 0.090122 -0.170989 0.052032
v 0.104064 -0.170989 0.000000
v 0.110564 -0.121489 -0.063834
v 0.063834 -0.121489 -0.110564
v 0.000000 -0.121489 -0.127668
v -0.063834 -0.121489 -0.110564
v -0.110564 -0.121489 -0.063834
v -0.127668 -0.121489 0.000000
v -0.110564 -0.121489 0.063834
v -0.063834 -0.121489 0.110564
v 0.000000 -0.121489 0.127668
v 0.063834 -0.121489 0.110564
v 0.110564 -0.121489 0.063834
v 0.127668 -0.121489 0.000000
v 0.127416 -0.072524 -0.073563
v 0.073563 -0.072524 -0.127416
v 0.000000 -0.072524 -0.147128
v -0.073563 -0.072524 -0.127416
v -0.127416 -0.072524 -0.073563
v -0.147128 -0.072524 0.000000
v -0.127416 -0.072524 0.073563
v -0.073563 -0.072524 0.127416
v 0.000000 -0.072524 0.147128
v 0.073563 -0.072524 0.127416
v 0.127416 -0.072524 0.073563
v 0.147128 -0.072524 0.000000
v 0.141799 -0.024934 -0.081868
v 0.081868 -0.024934 -0.141799
v 0.000000 -0.024934 -0.163736
v -0.081868 -0.024934 -0.141799
v -0.141799 -0.024934 -0.081868
v -0.163736 -0.024934 0.000000
v -0.141799 -0.024934 0.081868
v -0.081868 -0.024934 0.141799
v 0.000000 -0.024934 0.163736
v 0.081868 -0.024934 0.141799
v 0.141799 -0.024934 0.081868
v 0.163736 -0.024934 0.000000
v 0.150080 0.027772 -0.086649
v 0.086649 0.027772 -0.150080
v 0.000000 0.027772 -0.173299
v -0.086649 0.027772 -0.150080
v -0.150080 0.027772 -0.086649
v -0.173299 0.027772 0.000000
v -0.150080 0.027772 0.086649
v -0.086649 0.027772 0.150080
v 0.000000 0.027772 0.173299
v 0.086649 0.027772 0.150080
v 0.150080 0.027772 0.086649
v 0.173299 0.027772 0.000000
v 0.145934 0.088504 -0.084255
v 0.084255 0.088504 -0.145934
v 0.000000 0.088504 -0.168510
v -0.084255 0.088504 -0.145934
v -0.145934 0.088504 -0.084255
v -0.168510 0.088504 0.000000
v -0.145934 0.088504 0.084255
v -0.084255 0.088504 0.145934
v 0.000000 0.088504 0.168510
v 0.084255 0.088504 0.145934
v 0.145934 0.088504 0.084255
v 0.168510 0.088504 0.000000
v 0.125313 0.151266 -0.072350
v 0.072350 0.151266 -0.125313
v 0.000000 0.151266 -0.144699
v -0.072350 0.151266 -0.125313
v -0.125313 0.151266 -0.072350
v -0.144699 0.151266 0.000000
v -0.125313 0.151266 0.072350
v -0.072350 0.151266 0.125313
v 0.000000 0.151266 0.144699
v 0.072350 0.151266 0.125313
v 0.125313 0.151266 0.072350
v 0.144699 0.151266 0.000000
v 0.089991 0.204440 -0.051956
v 0.051956 0.204440 -0.089991
v 0.000000 0.204440 -0.103913
v -0.051956 0.204440 -0.089991
v -0.089991 0.204440 -0.051956
v -0.103913 0.204440 0.000000
v -0.089991 0.204440 0.051956
v -0.051956 0.204440 0.089991
v 0.000000 0.204440 0.103913
v 0.051956 0.204440 0.089991
v 0.089991 0.204440 0.051956
v 0.103913 0.204440 0.000000
v 0.034681 0.247904 -0.020023
v 0.020023 0.247904 -0.034681
v 0.000000 0.247904 -0.040047
v -0.020023 0.247904 -0.034681
v -0.034681 0.247904 -0.020023
v -0.040047 0.247904 0.000000
v -0.034681 0.247904 0.020023
v -0.020023 0.247904 0.034681
v 0.000000 0.247904 0.040047
v 0.020023 0.247904 0.034681
v 0.034681 0.247904 0.020023
v 0.040047 0.247904 0.000000
v 0.006040 0.590034 -0.010461
v 0.010461 0.590034 -0.006040
v 0.000000 0.603891 0.000000
v 0.000000 0.590034 -0.012080
v -0.006040 0.590034 -0.010461
v -0.010461 0.590034 -0.006040
v -0.012080 0.590034 0.000000
v -0.010461 0.590034 0.006040
v -0.006040 0.590034 0.010461
v 0.000000 0.590034 0.012080
v 0.006040 0.590034 0.010461
v 0.010461 0.590034 0.006040
v 0.012080 0.590034 0.000000
v 0.015148 0.259986 -0.026237
v 0.026237 0.259986 -0.015148
v 0.030296 0.259986 0.000000
v 0.026237 0.259986 0.015148
v 0.015148 0.259986 0.026237
v 0.000000 0.259986 0.030296
v -0.015148 0.259986 0.026237
v -0.026237 0.259986 0.015148
v -0.030296 0.259986 0.000000
v -0.026237 0.259986 -0.015148
v -0.015148 0.259986 -0.026237
v 0.000000 0.259986 -0.030296
v 0.030829 0.232808 -0.053397
v 0.053397 0.232808 -0.030829
v 0.061658 0.232808 0.000000
v 0.053397 0.232808 0.030829
v 0.030829 0.232808 0.053397
v 0.000000 0.232808 0.061658
v -0.030829 0.232808 0.053397
v -0.053397 0.232808 0.030829
v -0.061658 0.232808 0.000000
v -0.053397 0.232808 -0.030829
v -0.030829 0.232808 -0.053397
v 0.000000 0.232808 -0.061658
v 0.012963 -0.491436 -0.007484
v 0.007484 -0.491436 -0.012963
v 0.000000 -0.516017 0.000000
v 0.000000 -0.491436 -0.014968
v -0.007484 -0.491436 -0.012963
v -0.012963 -0.491436 -0.007484
v -0.014968 -0.491436 0.000000
v -0.012963 -0.491436 0.007484
v -0.007484 -0.491436 0.012963
v 0.000000 -0.491436 0.014968
v 0.007484 -0.491436 0.012963
v 0.012963 -0.491436 0.007484
v 0.014968 -0.491436 0.000000
v 0.014574 -0.265146 -0.008414
v 0.008414 -0.265146 -0.014574
v 0.000000 -0.265146 -0.016829
v -0.008414 -0.265146 -0.014574
v -0.014574 -0.265146 -0.008414
v -0.016829 -0.265146 0.000000
v -0.014574 -0.265146 0.008414
v -0.008414 -0.265146 0.014574
v 0.000000 -0.265146 0.016829
v 0.008414 -0.265146 0.014574
v 0.014574 -0.265146 0.008414
v 0.016829 -0.265146 0.000000
vt 0.000000 0.083333
vt 0.083333 0.083333
vt 0.083333 0.166667
vt 0.000000 0.166667
vt 0.166667 0.083333
vt 0.166667 0.166667
vt 0.250000 0.083333
vt 0.250000 0.166667
vt 0.333333 0.083333
vt 0.333333 0.166667
vt 0.416667 0.083333
vt 0.416667 0.166667
vt 0.500000 0.083333
vt 0.500000 0.166667
vt 0.583333 0.083333
vt 0.583333 0.166667
vt 0.666667 0.083333
vt 0.666667 0.166667
vt 0.750000 0.083333
vt 0.750000 0.166667
vt 0.833333 0.083333
vt 0.833333 0.166667
vt 0.916667 0.083333
vt 0.916667 0.166667
vt 1.000000 0.083333
vt 1.000000 0.166667
vt 0.083333 0.250000
vt 0.000000 0.250000
vt 0.166667 0.250000
vt 0.250000 0.250000
vt 0.333333 0.250000
vt 0.416667 0.250000
vt 0.500000 0.250000
vt 0.583333 0.250000
vt 0.666667 0.250000
vt 0.750000 0.250000
vt 0.833333 0.250000
vt 0.916667 0.250000
vt 1.000000 0.250000
vt 0.083333 0.333333
vt 0.000000 0.333333
vt 0.166667 0.333333
vt 0.250000 0.333333
vt 0.333333 0.333333
vt 0.416667 0.333333
vt 0.500000 0.333333
vt 0.583333 0.333333
vt 0.666667 0.333333
vt 0.750000 0.333333
vt 0.833333 0.333333
vt 0.916667 0.333333
vt 1.000000 0.333333
vt 0.083333 0.416667
vt 0.000000 0.416667
vt 0.166667 0.416667
vt 0.250000 0.416667
vt 0.333333 0.416667
vt 0.416667 0.416667
vt 0.500000 0.416667
vt 0.583333 0.416667
vt 0.666667 0.416667
vt 0.750000 0.416667
vt 0.833333 0.416667
vt 0.916667 0.416667
vt 1.000000 0.416667
vt 0.083333 0.500000
vt 0.000000 0.500000
vt 0.166667 0.500000
vt 0.250000 0.500000
vt 0.333333 0.500000
vt 0.416667 0.500000
vt 0.500000 0.500000
vt 0.583333 0.500000
vt 0.666667 0.500000
vt 0.750000 0.500000
vt 0.833333 0.500000
vt 0.916667 0.500000
vt 1.000000 0.500000
vt 0.083333 0.583333
vt 0.000000 0.583333
vt 0.166667 0.583333
vt 0.250000 0.583333
vt 0.333333 0.583333
vt 0.416667 0.583333
vt 0.500000 0.583333
vt 0.583333 0.583333
vt 0.666667 0.583333
vt 0.750000 0.583333
vt 0.833333 0.583333
vt 0.916667 0.583333
vt 1.000000 0.583333
vt 0.083333 0.666667
vt 0.000000 0.666667
vt 0.166667 0.666667
vt 0.250000 0.666667
vt 0.333333 0.666667
vt 0.416667 0.666667
vt 0.500000 0.666667
vt 0.583333 0.666667
vt 0.666667 0.666667
vt 0.750000 0.666667
vt 0.833333 0.666667
vt 0.916667 0.666667
vt 1.000000 0.666667
vt 0.083333 0.750000
vt 0.000000 0.750000
vt 0.166667 0.750000
vt 0.250000 0.750000
vt 0.333333 0.750000
vt 0.416667 0.750000
vt 0.500000 0.750000
vt 0.583333 0.750000
vt 0.666667 0.750000
vt 0.750000 0.750000
vt 0.833333 0.750000
vt 0.916667 0.750000
vt 1.000000 0.750000
vt 0.083333 0.833333
vt 0.000000 0.833333
vt 0.166667 0.833333
vt 0.250000 0.833333
vt 0.333333 0.833333
vt 0.416667 0.833333
vt 0.500000 0.833333
vt 0.583333 0.833333
vt 0.666667 0.833333
vt 0.750000 0.833333
vt 0.833333 0.833333
vt 0.916667 0.833333
vt 1.000000 0.833333
vt 0.083333 0.916667
vt 0.000000 0.916667
vt 0.166667 0.916667
vt 0.250000 0.916667
vt 0.333333 0.916667
vt 0.416667 0.916667
vt 0.500000 0.916667
vt 0.583333 0.916667
vt 0.666667 0.916667
vt 0.750000 0.916667
vt 0.833333 0.916667
vt 0.916667 0.916667
vt 1.000000 0.916667
vt 0.041667 0.000000
vt 0.125000 0.000000
vt 0.208333 0.000000
vt 0.291667 0.000000
vt 0.375000 0.000000
vt 0.458333 0.000000
vt 0.541667 0.000000
vt 0.625000 0.000000
vt 0.708333 0.000000
vt 0.791667 0.000000
vt 0.875000 0.000000
vt 0.958333 0.000000
vt 0.041667 1.000000
vt 0.125000 1.000000
vt 0.208333 1.000000
vt 0.291667 1.000000
vt 0.375000 1.000000
vt 0.458333 1.000000
vt 0.541667 1.000000
vt 0.625000 1.000000
vt 0.708333 1.000000
vt 0.791667 1.000000
vt 0.875000 1.000000
vt 0.958333 1.000000
vt 0.000000 0.916667
vt 0.083333 0.916667
vt 0.166667 0.916667
vt 0.250000 0.916667
vt 0.333333 0.916667
vt 0.416667 0.916667
vt 0.500000 0.916667
vt 0.583333 0.916667
vt 0.666667 0.916667
vt 0.750000 0.916667
vt 0.833333 0.916667
vt 0.916667 0.916667
vt 1.000000 0.916667
vt 0.083333 0.916667
vt 1.000000 0.916667
vt 0.000000 0.916667
vt 0.916667 0.916667
vt 0.833333 0.916667
vt 0.750000 0.916667
vt 0.666667 0.916667
vt 0.583333 0.916667
vt 0.500000 0.916667
vt 0.416667 0.916667
vt 0.333333 0.916667
vt 0.250000 0.916667
vt 0.166667 0.916667
vt 0.083333 0.902628
vt 0.000000 0.902628
vt 1.000000 0.902628
vt 0.916667 0.902628
vt 0.833333 0.902628
vt 0.750000 0.902628
vt 0.666667 0.902628
vt 0.583333 0.902628
vt 0.500000 0.902628
vt 0.416667 0.902628
vt 0.333333 0.902628
vt 0.250000 0.902628
vt 0.166667 0.902628
vt 0.083333 0.083333
vt 0.000000 0.083333
vt 0.166667 0.083333
vt 0.250000 0.083333
vt 0.333333 0.083333
vt 0.416667 0.083333
vt 0.500000 0.083333
vt 0.583333 0.083333
vt 0.666667 0.083333
vt 0.750000 0.083333
vt 0.833333 0.083333
vt 0.916667 0.083333
vt 1.000000 0.083333
vt 0.000000 0.083333
vt 1.000000 0.083333
vt 0.083333 0.083333
vt 0.166667 0.083333
vt 0.250000 0.083333
vt 0.333333 0.083333
vt 0.416667 0.083333
vt 0.500000 0.083333
vt 0.583333 0.083333
vt 0.666667 0.083333
vt 0.750000 0.083333
vt 0.833333 0.083333
vt 0.916667 0.083333
vn 0.289759 -0.942366 -0.167293
vn 0.167293 -0.942366 -0.289759
vn 0.270244 -0.841352 -0.468076
vn 0.468076 -0.841352 -0.270244
vn 0.000000 -0.942366 -0.334585
vn 0.000000 -0.841352 -0.540488
vn -0.167293 -0.942366 -0.289759
vn -0.270244 -0.841352 -0.468076
vn -0.289759 -0.942366 -0.167293
vn -0.468076 -0.841352 -0.270244
vn -0.334585 -0.942366 0.000000
vn -0.540488 -0.841352 0.000000
vn -0.289759 -0.942366 0.167293
vn -0.468076 -0.841352 0.270244
vn -0.167293 -0.942366 0.289759
vn -0.270244 -0.841352 0.468076
vn 0.000000 -0.942366 0.334585
vn 0.000000 -0.841352 0.540488
vn 0.167293 -0.942366 0.289759
vn 0.270244 -0.841352 0.468076
vn 0.289759 -0.942366 0.167293
vn 0.468076 -0.841352 0.270244
vn 0.334585 -0.942366 0.000000
vn 0.540488 -0.841352 0.000000
vn 0.364806 -0.683862 -0.631862
vn 0.631862 -0.683862 -0.364806
vn 0.000000 -0.683862 -0.729611
vn -0.364806 -0.683862 -0.631862
vn -0.631862 -0.683862 -0.364806
vn -0.729611 -0.683862 0.000000
vn -0.631862 -0.683862 0.364806
vn -0.364806 -0.683862 0.631862
vn 0.000000 -0.683862 0.729611
vn 0.364806 -0.683862 0.631862
vn 0.631862 -0.683862 0.364806
vn 0.729611 -0.683862 0.000000
vn 0.438134 -0.481822 -0.758871
vn 0.758871 -0.481822 -0.438135
vn 0.000000 -0.481822 -0.876269
vn -0.438134 -0.481822 -0.758871
vn -0.758871 -0.481822 -0.438135
vn -0.876269 -0.481822 0.000000
vn -0.758871 -0.481822 0.438135
vn -0.438134 -0.481822 0.758871
vn 0.000000 -0.481822 0.876269
vn 0.438134 -0.481822 0.758871
vn 0.758871 -0.481822 0.438135
vn 0.876269 -0.481822 0.000000
vn 0.484273 -0.248837 -0.838785
vn 0.838785 -0.248837 -0.484273
vn 0.000000 -0.248837 -0.968545
vn -0.484273 -0.248837 -0.838785
vn -0.838785 -0.248837 -0.484273
vn -0.968545 -0.248837 0.000000
vn -0.838785 -0.248837 0.484273
vn -0.484273 -0.248837 0.838785
vn 0.000000 -0.248837 0.968545
vn 0.484273 -0.248837 0.838785
vn 0.838785 -0.248837 0.484273
vn 0.968545 -0.248837 0.000000
vn 0.500000 0.000000 -0.866025
vn 0.866025 0.000000 -0.500000
vn 0.000000 0.000000 -1.000000
vn -0.500000 0.000000 -0.866025
vn -0.866025 0.000000 -0.500000
vn -1.000000 0.000000 0.000000
vn -0.866025 0.000000 0.500000
vn -0.500000 0.000000 0.866025
vn 0.000000 0.000000 1.000000
vn 0.500000 0.000000 0.866025
vn 0.866025 0.000000 0.500000
vn 1.000000 0.000000 0.000000
vn 0.484273 0.248837 -0.838785
vn 0.838785 0.248837 -0.484273
vn 0.000000 0.248837 -0.968545
vn -0.484273 0.248837 -0.838785
vn -0.838785 0.248837 -0.484273
vn -0.968545 0.248837 0.000000
vn -0.838785 0.248837 0.484273
vn -0.484273 0.248837 0.838785
vn 0.000000 0.248837 0.968545
vn 0.484273 0.248837 0.838785
vn 0.838785 0.248837 0.484273
vn 0.968545 0.248837 0.000000
vn 0.438135 0.481822 -0.758871
vn 0.758871 0.481822 -0.438135
vn 0.000000 0.481822 -0.876269
vn -0.438135 0.481822 -0.758871
vn -0.758871 0.481822 -0.438135
vn -0.876269 0.481822 0.000000
vn -0.758871 0.481822 0.438134
vn -0.438135 0.481822 0.758871
vn 0.000000 0.481822 0.876269
vn 0.438135 0.481822 0.758871
vn 0.758871 0.481822 0.438135
vn 0.876269 0.481822 0.000000
vn 0.364806 0.683862 -0.631862
vn 0.631862 0.683862 -0.364806
vn 0.000000 0.683862 -0.729611
vn -0.364806 0.683862 -0.631862
vn -0.631862 0.683862 -0.364806
vn -0.729611 0.683862 0.000000
vn -0.631862 0.683862 0.364806
vn -0.364806 0.683862 0.631862
vn 0.000000 0.683862 0.729611
vn 0.364806 0.683862 0.631862
vn 0.631862 0.683862 0.364806
vn 0.729611 0.683862 0.000000
vn 0.270244 0.841352 -0.468076
vn 0.468076 0.841352 -0.270244
vn 0.000000 0.841352 -0.540488
vn -0.270244 0.841352 -0.468076
vn -0.468076 0.841352 -0.270244
vn -0.540488 0.841352 0.000000
vn -0.468076 0.841352 0.270244
vn -0.270244 0.841352 0.468076
vn 0.000000 0.841352 0.540488
vn 0.270244 0.841352 0.468076
vn 0.468076 0.841352 0.270244
vn 0.540488 0.841352 0.000000
vn 0.280194 0.828234 -0.485303
vn 0.485303 0.828234 -0.280194
vn 0.000000 0.828237 -0.560378
vn -0.280194 0.828234 -0.485303
vn -0.485303 0.828235 -0.280194
vn -0.560378 0.828237 0.000000
vn -0.485303 0.828234 0.280194
vn -0.280194 0.828234 0.485303
vn 0.000000 0.828237 0.560378
vn 0.280194 0.828234 0.485303
vn 0.485303 0.828235 0.280194
vn 0.560378 0.828237 -0.000000
vn 0.167293 -0.942366 -0.289759
vn 0.289759 -0.942366 -0.167293
vn 0.000000 -1.000000 0.000000
vn 0.000000 -0.942366 -0.334585
vn -0.167293 -0.942366 -0.289759
vn -0.289759 -0.942366 -0.167293
vn -0.334585 -0.942366 0.000000
vn -0.289759 -0.942366 0.167293
vn -0.167293 -0.942366 0.289759
vn 0.000000 -0.942366 0.334585
vn 0.167293 -0.942366 0.289759
vn 0.289759 -0.942366 0.167293
vn 0.334585 -0.942366 0.000000
vn 0.289759 0.942366 -0.167293
vn 0.167293 0.942366 -0.289759
vn 0.000000 1.000000 0.000000
vn 0.000000 0.942366 -0.334585
vn -0.167293 0.942366 -0.289759
vn -0.289759 0.942366 -0.167293
vn -0.334585 0.942366 0.000000
vn -0.289759 0.942366 0.167293
vn -0.167293 0.942366 0.289759
vn 0.000000 0.942366 0.334585
vn 0.167293 0.942366 0.289759
vn 0.289759 0.942366 0.167293
vn 0.334585 0.942366 0.000000
vn 0.543184 0.778846 -0.313608
vn 0.313608 0.778846 -0.543184
vn 0.497374 0.102325 -0.861480
vn 0.861480 0.102325 -0.497375
vn -0.000000 0.778847 -0.627214
vn 0.000000 0.102325 -0.994751
vn -0.313608 0.778846 -0.543184
vn -0.497374 0.102325 -0.861480
vn -0.543184 0.778846 -0.313608
vn -0.861480 0.102325 -0.497374
vn -0.627214 0.778847 0.000000
vn -0.994751 0.102325 0.000000
vn -0.543184 0.778846 0.313608
vn -0.861480 0.102325 0.497375
vn -0.313608 0.778846 0.543184
vn -0.497374 0.102325 0.861480
vn 0.000000 0.778847 0.627214
vn 0.000000 0.102325 0.994751
vn 0.313608 0.778846 0.543184
vn 0.497374 0.102325 0.861480
vn 0.543184 0.778846 0.313608
vn 0.861480 0.102325 0.497374
vn 0.627214 0.778847 -0.000000
vn 0.994751 0.102325 -0.000000
vn 0.857490 -0.140055 -0.495071
vn 0.495071 -0.140055 -0.857490
vn 0.000000 -0.140055 -0.990144
vn -0.495071 -0.140055 -0.857490
vn -0.857490 -0.140055 -0.495071
vn -0.990144 -0.140055 -0.000000
vn -0.857490 -0.140055 0.495071
vn -0.495071 -0.140055 0.857490
vn 0.000000 -0.140055 0.990144
vn 0.495071 -0.140055 0.857490
vn 0.857490 -0.140055 0.495071
vn 0.990144 -0.140055 0.000000
s 1
g BobberPreset
f 1/1/1 2/2/2 14/3/3 13/4/4
f 2/2/2 3/5/5 15/6/6 14/3/3
f 3/5/5 4/7/7 16/8/8 15/6/6
f 4/7/7 5/9/9 17/10/10 16/8/8
f 5/9/9 6/11/11 18/12/12 17/10/10
f 6/11/11 7/13/13 19/14/14 18/12/12
f 7/13/13 8/15/15 20/16/16 19/14/14
f 8/15/15 9/17/17 21/18/18 20/16/16
f 9/17/17 10/19/19 22/20/20 21/18/18
f 10/19/19 11/21/21 23/22/22 22/20/20
f 11/21/21 12/23/23 24/24/24 23/22/22
f 12/23/23 1/25/1 13/26/4 24/24/24
f 13/4/4 14/3/3 26/27/25 25/28/26
f 14/3/3 15/6/6 27/29/27 26/27/25
f 15/6/6 16/8/8 28/30/28 27/29/27
f 16/8/8 17/10/10 29/31/29 28/30/28
f 17/10/10 18/12/12 30/32/30 29/31/29
f 18/12/12 19/14/14 31/33/31 30/32/30
f 19/14/14 20/16/16 32/34/32 31/33/31
f 20/16/16 21/18/18 33/35/33 32/34/32
f 21/18/18 22/20/20 34/36/34 33/35/33
f 22/20/20 23/22/22 35/37/35 34/36/34
f 23/22/22 24/24/24 36/38/36 35/37/35
f 24/24/24 13/26/4 25/39/26 36/38/36
f 25/28/26 26/27/25 38/40/37 37/41/38
f 26/27/25 27/29/27 39/42/39 38/40/37
f 27/29/27 28/30/28 40/43/40 39/42/39
f 28/30/28 29/31/29 41/44/41 40/43/40
f 29/31/29 30/32/30 42/45/42 41/44/41
f 30/32/30 31/33/31 43/46/43 42/45/42
f 31/33/31 32/34/32 44/47/44 43/46/43
f 32/34/32 33/35/33 45/48/45 44/47/44
f 33/35/33 34/36/34 46/49/46 45/48/45
f 34/36/34 35/37/35 47/50/47 46/49/46
f 35/37/35 36/38/36 48/51/48 47/50/47
f 36/38/36 25/39/26 37/52/38 48/51/48
f 37/41/38 38/40/37 50/53/49 49/54/50
f 38/40/37 39/42/39 51/55/51 50/53/49
f 39/42/39 40/43/40 52/56/52 51/55/51
f 40/43/40 41/44/41 53/57/53 52/56/52
f 41/44/41 42/45/42 54/58/54 53/57/53
f 42/45/42 43/46/43 55/59/55 54/58/54
f 43/46/43 44/47/44 56/60/56 55/59/55
f 44/47/44 45/48/45 57/61/57 56/60/56
f 45/48/45 46/49/46 58/62/58 57/61/57
f 46/49/46 47/50/47 59/63/59 58/62/58
f 47/50/47 48/51/48 60/64/60 59/63/59
f 48/51/48 37/52/38 49/65/50 60/64/60
f 49/54/50 50/53/49 62/66/61 61/67/62
f 50/53/49 51/55/51 63/68/63 62/66/61
f 51/55/51 52/56/52 64/69/64 63/68/63
f 52/56/52 53/57/53 65/70/65 64/69/64
f 53/57/53 54/58/54 66/71/66 65/70/65
f 54/58/54 55/59/55 67/72/67 66/71/66
f 55/59/55 56/60/56 68/73/68 67/72/67
f 56/60/56 57/61/57 69/74/69 68/73/68
f 57/61/57 58/62/58 70/75/70 69/74/69
f 58/62/58 59/63/59 71/76/71 70/75/70
f 59/63/59 60/64/60 72/77/72 71/76/71
f 60/64/60 49/65/50 61/78/62 72/77/72
f 61/67/62 62/66/61 74/79/73 73/80/74
f 62/66/61 63/68/63 75/81/75 74/79/73
f 63/68/63 64/69/64 76/82/76 75/81/75
f 64/69/64 65/70/65 77/83/77 76/82/76
f 65/70/65 66/71/66 78/84/78 77/83/77
f 66/71/66 67/72/67 79/85/79 78/84/78
f 67/72/67 68/73/68 80/86/80 79/85/79
f 68/73/68 69/74/69 81/87/81 80/86/80
f 69/74/69 70/75/70 82/88/82 81/87/81
f 70/75/70 71/76/71 83/89/83 82/88/82
f 71/76/71 72/77/72 84/90/84 83/89/83
f 72/77/72 61/78/62 73/91/74 84/90/84
f 73/80/74 74/79/73 86/92/85 85/93/86
f 74/79/73 75/81/75 87/94/87 86/92/85
f 75/81/75 76/82/76 88/95/88 87/94/87
f 76/82/76 77/83/77 89/96/89 88/95/88
f 77/83/77 78/84/78 90/97/90 89/96/89
f 78/84/78 79/85/79 91/98/91 90/97/90
f 79/85/79 80/86/80 92/99/92 91/98/91
f 80/86/80 81/87/81 93/100/93 92/99/92
f 81/87/81 82/88/82 94/101/94 93/100/93
f 82/88/82 83/89/83 95/102/95 94/101/94
f 83/89/83 84/90/84 96/103/96 95/102/95
f 84/90/84 73/91/74 85/104/86 96/103/96
f 85/93/86 86/92/85 98/105/97 97/106/98
f 86/92/85 87/94/87 99/107/99 98/105/97
f 87/94/87 88/95/88 100/108/100 99/107/99
f 88/95/88 89/96/89 101/109/101 100/108/100
f 89/96/89 90/97/90 102/110/102 101/109/101
f 90/97/90 91/98/91 103/111/103 102/110/102
f 91/98/91 92/99/92 104/112/104 103/111/103
f 92/99/92 93/100/93 105/113/105 104/112/104
f 93/100/93 94/101/94 106/114/106 105/113/105
f 94/101/94 95/102/95 107/115/107 106/114/106
f 95/102/95 96/103/96 108/116/108 107/115/107
f 96/103/96 85/104/86 97/117/98 108/116/108
f 97/106/98 98/105/97 110/118/109 109/119/110
f 98/105/97 99/107/99 111/120/111 110/118/109
f 99/107/99 100/108/100 112/121/112 111/120/111
f 100/108/100 101/109/101 113/122/113 112/121/112
f 101/109/101 102/110/102 114/123/114 113/122/113
f 102/110/102 103/111/103 115/124/115 114/123/114
f 103/111/103 104/112/104 116/125/116 115/124/115
f 104/112/104 105/113/105 117/126/117 116/125/116
f 105/113/105 106/114/106 118/127/118 117/126/117
f 106/114/106 107/115/107 119/128/119 118/127/118
f 107/115/107 108/116/108 120/129/120 119/128/119
f 108/116/108 97/117/98 109/130/110 120/129/120
f 109/119/110 110/118/109 158/194/121 159/195/122
f 110/118/109 111/120/111 169/206/123 158/194/121
f 111/120/111 112/121/112 168/205/124 169/206/123
f 112/121/112 113/122/113 167/204/125 168/205/124
f 113/122/113 114/123/114 166/203/126 167/204/125
f 114/123/114 115/124/115 165/202/127 166/203/126
f 115/124/115 116/125/116 164/201/128 165/202/127
f 116/125/116 117/126/117 163/200/129 164/201/128
f 117/126/117 118/127/118 162/199/130 163/200/129
f 118/127/118 119/128/119 161/198/131 162/199/130
f 119/128/119 120/129/120 160/197/132 161/198/131
f 120/129/120 109/130/110 159/196/122 160/197/132
f 171/207/133 170/208/134 172/144/135
f 173/209/136 171/207/133 172/145/135
f 174/210/137 173/209/136 172/146/135
f 175/211/138 174/210/137 172/147/135
f 176/212/139 175/211/138 172/148/135
f 177/213/140 176/212/139 172/149/135
f 178/214/141 177/213/140 172/150/135
f 179/215/142 178/214/141 172/151/135
f 180/216/143 179/215/142 172/152/135
f 181/217/144 180/216/143 172/153/135
f 182/218/145 181/217/144 172/154/135
f 170/219/134 182/218/145 172/155/135
f 134/168/146 133/169/147 135/156/148
f 133/169/147 136/170/149 135/157/148
f 136/170/149 137/171/150 135/158/148
f 137/171/150 138/172/151 135/159/148
f 138/172/151 139/173/152 135/160/148
f 139/173/152 140/174/153 135/161/148
f 140/174/153 141/175/154 135/162/148
f 141/175/154 142/176/155 135/163/148
f 142/176/155 143/177/156 135/164/148
f 143/177/156 144/178/157 135/165/148
f 144/178/157 145/179/158 135/166/148
f 145/179/158 134/180/146 135/167/148
f 121/132/159 122/131/160 146/181/161 147/183/162
f 122/131/160 123/133/163 157/193/164 146/181/161
f 123/133/163 124/134/165 156/192/166 157/193/164
f 124/134/165 125/135/167 155/191/168 156/192/166
f 125/135/167 126/136/169 154/190/170 155/191/168
f 126/136/169 127/137/171 153/189/172 154/190/170
f 127/137/171 128/138/173 152/188/174 153/189/172
f 128/138/173 129/139/175 151/187/176 152/188/174
f 129/139/175 130/140/177 150/186/178 151/187/176
f 130/140/177 131/141/179 149/185/180 150/186/178
f 131/141/179 132/142/181 148/184/182 149/185/180
f 132/142/181 121/143/159 147/182/162 148/184/182
f 147/183/162 146/181/161 133/169/147 134/168/146
f 148/184/182 147/182/162 134/180/146 145/179/158
f 149/185/180 148/184/182 145/179/158 144/178/157
f 150/186/178 149/185/180 144/178/157 143/177/156
f 151/187/176 150/186/178 143/177/156 142/176/155
f 152/188/174 151/187/176 142/176/155 141/175/154
f 153/189/172 152/188/174 141/175/154 140/174/153
f 154/190/170 153/189/172 140/174/153 139/173/152
f 155/191/168 154/190/170 139/173/152 138/172/151
f 156/192/166 155/191/168 138/172/151 137/171/150
f 157/193/164 156/192/166 137/171/150 136/170/149
f 146/181/161 157/193/164 136/170/149 133/169/147
f 159/195/122 158/194/121 122/131/160 121/132/159
f 160/197/132 159/196/122 121/143/159 132/142/181
f 161/198/131 160/197/132 132/142/181 131/141/179
f 162/199/130 161/198/131 131/141/179 130/140/177
f 163/200/129 162/199/130 130/140/177 129/139/175
f 164/201/128 163/200/129 129/139/175 128/138/173
f 165/202/127 164/201/128 128/138/173 127/137/171
f 166/203/126 165/202/127 127/137/171 126/136/169
f 167/204/125 166/203/126 126/136/169 125/135/167
f 168/205/124 167/204/125 125/135/167 124/134/165
f 169/206/123 168/205/124 124/134/165 123/133/163
f 158/194/121 169/206/123 123/133/163 122/131/160
f 2/2/2 1/1/1 183/220/183 184/222/184
f 3/5/5 2/2/2 184/222/184 185/223/185
f 4/7/7 3/5/5 185/223/185 186/224/186
f 5/9/9 4/7/7 186/224/186 187/225/187
f 6/11/11 5/9/9 187/225/187 188/226/188
f 7/13/13 6/11/11 188/226/188 189/227/189
f 8/15/15 7/13/13 189/227/189 190/228/190
f 9/17/17 8/15/15 190/228/190 191/229/191
f 10/19/19 9/17/17 191/229/191 192/230/192
f 11/21/21 10/19/19 192/230/192 193/231/193
f 12/23/23 11/21/21 193/231/193 194/232/194
f 1/25/1 12/23/23 194/232/194 183/221/183
f 184/222/184 183/220/183 170/208/134 171/207/133
f 185/223/185 184/222/184 171/207/133 173/209/136
f 186/224/186 185/223/185 173/209/136 174/210/137
f 187/225/187 186/224/186 174/210/137 175/211/138
f 188/226/188 187/225/187 175/211/138 176/212/139
f 189/227/189 188/226/188 176/212/139 177/213/140
f 190/228/190 189/227/189 177/213/140 178/214/141
f 191/229/191 190/228/190 178/214/141 179/215/142
f 192/230/192 191/229/191 179/215/142 180/216/143
f 193/231/193 192/230/192 180/216/143 181/217/144
f 194/232/194 193/231/193 181/217/144 182/218/145
f 183/221/183 194/232/194 182/218/145 170/219/134
