# This file uses centimeters as units for non-parametric coordinates.

g default
v 0.107523 -0.717858 -0.061860
v 0.024384 -0.717861 -0.094775
v -0.070158 -0.717863 -0.083344
v -0.131866 -0.717865 -0.032915
v -0.131866 -0.717865 0.032915
v -0.070158 -0.717863 0.083344
v 0.024384 -0.717861 0.094775
v 0.107523 -0.717858 0.061860
v 0.140357 -0.717857 -0.000000
v 0.202076 -0.516447 -0.116259
v 0.045826 -0.515426 -0.178119
v -0.131855 -0.515838 -0.156635
v -0.247828 -0.517007 -0.061860
v -0.247828 -0.517007 0.061860
v -0.131855 -0.515838 0.156635
v 0.045826 -0.515426 0.178119
v 0.202076 -0.516447 0.116259
v 0.263783 -0.517204 -0.000000
v 0.263561 -0.215196 -0.151634
v 0.059797 -0.212440 -0.232437
v -0.172033 -0.213541 -0.204360
v -0.323153 -0.216669 -0.080661
v -0.323153 -0.216669 0.080661
v -0.172033 -0.213541 0.204360
v 0.059797 -0.212440 0.232437
v 0.263561 -0.215196 0.151634
v 0.343914 -0.217223 -0.000000
v 0.271517 -0.014559 -0.156221
v 0.061607 -0.012021 -0.239534
v -0.177284 -0.013032 -0.210577
v -0.332897 -0.015906 -0.083089
v -0.332897 -0.015906 0.083089
v -0.177284 -0.013032 0.210577
v 0.061606 -0.012021 0.239534
v 0.271517 -0.014559 0.156221
v 0.354227 -0.016421 -0.000000
v 0.257465 0.208014 -0.148143
v 0.058372 0.208409 -0.227002
v -0.168062 0.208251 -0.199611
v -0.315803 0.207810 -0.078820
v -0.315804 0.207810 0.078819
v -0.168062 0.208251 0.199610
v 0.058372 0.208409 0.227002
v 0.257465 0.208014 0.148143
v 0.336061 0.207731 -0.000000
v 0.218950 0.571833 -0.125982
v 0.049632 0.571833 -0.193016
v -0.142909 0.571833 -0.169735
v -0.268582 0.571833 -0.067034
v -0.268582 0.571833 0.067034
v -0.142909 0.571833 0.169735
v 0.049632 0.571833 0.193016
v 0.218950 0.571833 0.125982
v 0.285818 0.571833 0.000000
v 0.162510 0.876100 -0.093507
v 0.036838 0.876100 -0.143261
v -0.106071 0.876100 -0.125982
v -0.199349 0.876100 -0.049754
v -0.199349 0.876100 0.049754
v -0.106071 0.876100 0.125982
v 0.036838 0.876100 0.143261
v 0.162510 0.876100 0.093507
v 0.212142 0.876100 0.000000
v 0.086470 1.074696 -0.049754
v 0.019601 1.074696 -0.076228
v -0.056439 1.074696 -0.067034
v -0.106071 1.074696 -0.026474
v -0.106071 1.074696 0.026474
v -0.056439 1.074696 0.067034
v 0.019601 1.074696 0.076228
v 0.086470 1.074696 0.049754
v 0.112879 1.074696 0.000000
v 0.000010 -0.785361 -0.000000
v 0.000000 1.143667 0.000000
vt 0.000000 0.111111
vt 0.111111 0.111111
vt 0.222222 0.111111
vt 0.333333 0.111111
vt 0.444444 0.111111
vt 0.555556 0.111111
vt 0.666667 0.111111
vt 0.777778 0.111111
vt 0.888889 0.111111
vt 1.000000 0.111111
vt 0.000000 0.222222
vt 0.111111 0.222222
vt 0.222222 0.222222
vt 0.333333 0.222222
vt 0.444444 0.222222
vt 0.555556 0.222222
vt 0.666667 0.222222
vt 0.777778 0.222222
vt 0.888889 0.222222
vt 1.000000 0.222222
vt 0.000000 0.333333
vt 0.111111 0.333333
vt 0.222222 0.333333
vt 0.333333 0.333333
vt 0.444444 0.333333
vt 0.555556 0.333333
vt 0.666667 0.333333
vt 0.777778 0.333333
vt 0.888889 0.333333
vt 1.000000 0.333333
vt 0.000000 0.444444
vt 0.111111 0.444444
vt 0.222222 0.444444
vt 0.333333 0.444444
vt 0.444444 0.444444
vt 0.555556 0.444444
vt 0.666667 0.444444
vt 0.777778 0.444444
vt 0.888889 0.444444
vt 1.000000 0.444444
vt 0.000000 0.555556
vt 0.111111 0.555556
vt 0.222222 0.555556
vt 0.333333 0.555556
vt 0.444444 0.555556
vt 0.555556 0.555556
vt 0.666667 0.555556
vt 0.777778 0.555556
vt 0.888889 0.555556
vt 1.000000 0.555556
vt 0.000000 0.666667
vt 0.111111 0.666667
vt 0.222222 0.666667
vt 0.333333 0.666667
vt 0.444444 0.666667
vt 0.555556 0.666667
vt 0.666667 0.666667
vt 0.777778 0.666667
vt 0.888889 0.666667
vt 1.000000 0.666667
vt 0.000000 0.777778
vt 0.111111 0.777778
vt 0.222222 0.777778
vt 0.333333 0.777778
vt 0.444444 0.777778
vt 0.555556 0.777778
vt 0.666667 0.777778
vt 0.777778 0.777778
vt 0.888889 0.777778
vt 1.000000 0.777778
vt 0.000000 0.888889
vt 0.111111 0.888889
vt 0.222222 0.888889
vt 0.333333 0.888889
vt 0.444444 0.888889
vt 0.555556 0.888889
vt 0.666667 0.888889
vt 0.777778 0.888889
vt 0.888889 0.888889
vt 1.000000 0.888889
vt 0.055556 0.000000
vt 0.166667 0.000000
vt 0.277778 0.000000
vt 0.388889 0.000000
vt 0.500000 0.000000
vt 0.611111 0.000000
vt 0.722222 0.000000
vt 0.833333 0.000000
vt 0.944444 0.000000
vt 0.055556 1.000000
vt 0.166667 1.000000
vt 0.277778 1.000000
vt 0.388889 1.000000
vt 0.500000 1.000000
vt 0.611111 1.000000
vt 0.722222 1.000000
vt 0.833333 1.000000
vt 0.944444 1.000000
vn 0.527852 -0.511713 -0.677881
vn 0.102126 -0.454167 -0.885044
vn 0.115815 -0.244506 -0.962707
vn 0.604283 -0.286217 -0.743587
vn -0.310984 -0.473771 -0.823911
vn -0.353936 -0.258722 -0.898773
vn -0.725334 -0.557617 -0.403676
vn -0.835962 -0.319348 -0.446300
vn -0.725334 -0.557617 0.403676
vn -0.835962 -0.319348 0.446300
vn -0.310984 -0.473771 0.823911
vn -0.353936 -0.258722 0.898772
vn 0.102126 -0.454167 0.885044
vn 0.115814 -0.244506 0.962707
vn 0.527852 -0.511713 0.677881
vn 0.604283 -0.286217 0.743587
vn 0.813962 -0.580918 0.000000
vn 0.941789 -0.336205 0.000000
vn 0.120513 -0.117409 -0.985744
vn 0.631245 -0.139626 -0.762912
vn -0.368868 -0.124945 -0.921046
vn -0.874683 -0.157635 -0.458346
vn -0.874683 -0.157635 0.458346
vn -0.368869 -0.124945 0.921045
vn 0.120513 -0.117409 0.985744
vn 0.631245 -0.139626 0.762912
vn 0.985997 -0.166764 0.000000
vn 0.121327 0.013013 -0.992527
vn 0.637095 0.015062 -0.770638
vn -0.371651 0.013666 -0.928272
vn -0.885414 0.016560 -0.464508
vn -0.885414 0.016560 0.464508
vn -0.371651 0.013666 0.928272
vn 0.121327 0.013013 0.992527
vn 0.637095 0.015062 0.770639
vn 0.999847 0.017495 0.000000
vn 0.120604 0.079936 -0.989477
vn 0.633191 0.094831 -0.768165
vn -0.369415 0.084920 -0.925377
vn -0.879893 0.107122 -0.462939
vn -0.879893 0.107122 0.462939
vn -0.369415 0.084920 0.925376
vn 0.120604 0.079936 0.989477
vn 0.633190 0.094831 0.768165
vn 0.993531 0.113566 0.000000
vn 0.119357 0.122804 -0.985227
vn 0.626806 0.145661 -0.765439
vn -0.365583 0.130490 -0.921586
vn -0.871644 0.164524 -0.461701
vn -0.871644 0.164524 0.461701
vn -0.365583 0.130490 0.921586
vn 0.119357 0.122804 0.985227
vn 0.626806 0.145661 0.765439
vn 0.984691 0.174308 0.000000
vn 0.116951 0.212737 -0.970085
vn 0.611498 0.249564 -0.750858
vn -0.357671 0.225231 -0.906280
vn -0.847466 0.279287 -0.451442
vn -0.847466 0.279287 0.451442
vn -0.357671 0.225231 0.906279
vn 0.116951 0.212737 0.970085
vn 0.611498 0.249564 0.750858
vn 0.955651 0.294503 0.000000
vn 0.107148 0.385270 -0.916562
vn 0.556560 0.438565 -0.705621
vn -0.326840 0.403398 -0.854661
vn -0.768090 0.481457 -0.422182
vn -0.768090 0.481457 0.422182
vn -0.326840 0.403398 0.854661
vn 0.107148 0.385270 0.916562
vn 0.556560 0.438565 0.705621
vn 0.864080 0.503354 0.000000
vn -0.000014 -1.000000 0.000000
vn -0.000023 1.000000 0.000000
s 1
g LurePreset
f 1/1/1 2/2/2 11/12/3 10/11/4
f 2/2/2 3/3/5 12/13/6 11/12/3
f 3/3/5 4/4/7 13/14/8 12/13/6
f 4/4/7 5/5/9 14/15/10 13/14/8
f 5/5/9 6/6/11 15/16/12 14/15/10
f 6/6/11 7/7/13 16/17/14 15/16/12
f 7/7/13 8/8/15 17/18/16 16/17/14
f 8/8/15 9/9/17 18/19/18 17/18/16
f 9/9/17 1/10/1 10/20/4 18/19/18
f 10/11/4 11/12/3 20/22/19 19/21/20
f 11/12/3 12/13/6 21/23/21 20/22/19
f 12/13/6 13/14/8 22/24/22 21/23/21
f 13/14/8 14/15/10 23/25/23 22/24/22
f 14/15/10 15/16/12 24/26/24 23/25/23
f 15/16/12 16/17/14 25/27/25 24/26/24
f 16/17/14 17/18/16 26/28/26 25/27/25
f 17/18/16 18/19/18 27/29/27 26/28/26
f 18/19/18 10/20/4 19/30/20 27/29/27
f 19/21/20 20/22/19 29/32/28 28/31/29
f 20/22/19 21/23/21 30/33/30 29/32/28
f 21/23/21 22/24/22 31/34/31 30/33/30
f 22/24/22 23/25/23 32/35/32 31/34/31
f 23/25/23 24/26/24 33/36/33 32/35/32
f 24/26/24 25/27/25 34/37/34 33/36/33
f 25/27/25 26/28/26 35/38/35 34/37/34
f 26/28/26 27/29/27 36/39/36 35/38/35
f 27/29/27 19/30/20 28/40/29 36/39/36
f 28/31/29 29/32/28 38/42/37 37/41/38
f 29/32/28 30/33/30 39/43/39 38/42/37
f 30/33/30 31/34/31 40/44/40 39/43/39
f 31/34/31 32/35/32 41/45/41 40/44/40
f 32/35/32 33/36/33 42/46/42 41/45/41
f 33/36/33 34/37/34 43/47/43 42/46/42
f 34/37/34 35/38/35 44/48/44 43/47/43
f 35/38/35 36/39/36 45/49/45 44/48/44
f 36/39/36 28/40/29 37/50/38 45/49/45
f 37/41/38 38/42/37 47/52/46 46/51/47
f 38/42/37 39/43/39 48/53/48 47/52/46
f 39/43/39 40/44/40 49/54/49 48/53/48
f 40/44/40 41/45/41 50/55/50 49/54/49
f 41/45/41 42/46/42 51/56/51 50/55/50
f 42/46/42 43/47/43 52/57/52 51/56/51
f 43/47/43 44/48/44 53/58/53 52/57/52
f 44/48/44 45/49/45 54/59/54 53/58/53
f 45/49/45 37/50/38 46/60/47 54/59/54
f 46/51/47 47/52/46 56/62/55 55/61/56
f 47/52/46 48/53/48 57/63/57 56/62/55
f 48/53/48 49/54/49 58/64/58 57/63/57
f 49/54/49 50/55/50 59/65/59 58/64/58
f 50/55/50 51/56/51 60/66/60 59/65/59
f 51/56/51 52/57/52 61/67/61 60/66/60
f 52/57/52 53/58/53 62/68/62 61/67/61
f 53/58/53 54/59/54 63/69/63 62/68/62
f 54/59/54 46/60/47 55/70/56 63/69/63
f 55/61/56 56/62/55 65/72/64 64/71/65
f 56/62/55 57/63/57 66/73/66 65/72/64
f 57/63/57 58/64/58 67/74/67 66/73/66
f 58/64/58 59/65/59 68/75/68 67/74/67
f 59/65/59 60/66/60 69/76/69 68/75/68
f 60/66/60 61/67/61 70/77/70 69/76/69
f 61/67/61 62/68/62 71/78/71 70/77/70
f 62/68/62 63/69/63 72/79/72 71/78/71
f 63/69/63 55/70/56 64/80/65 72/79/72
f 2/2/2 1/1/1 73/81/73
f 3/3/5 2/2/2 73/82/73
f 4/4/7 3/3/5 73/83/73
f 5/5/9 4/4/7 73/84/73
f 6/6/11 5/5/9 73/85/73
f 7/7/13 6/6/11 73/86/73
f 8/8/15 7/7/13 73/87/73
f 9/9/17 8/8/15 73/88/73
f 1/10/1 9/9/17 73/89/73
f 64/71/65 65/72/64 74/90/74
f 65/72/64 66/73/66 74/91/74
f 66/73/66 67/74/67 74/92/74
f 67/74/67 68/75/68 74/93/74
f 68/75/68 69/76/69 74/94/74
f 69/76/69 70/77/70 74/95/74
f 70/77/70 71/78/71 74/96/74
f 71/78/71 72/79/72 74/97/74
f 72/79/72 64/80/65 74/98/74
