# This file uses centimeters as units for non-parametric coordinates.

g default
v 0.187500 0.632271 0.066308
v 0.112507 0.648183 0.112795
v 0.021787 0.666243 0.129952
v -0.064087 0.679723 0.113243
v -0.126235 0.688275 0.067085
v -0.149309 0.690593 0.003828
v -0.127239 0.685376 -0.059560
v -0.065669 0.674676 -0.106111
v 0.020072 0.660411 -0.123337
v 0.111285 0.643132 -0.106559
v 0.186940 0.629355 -0.060337
v 0.215695 0.624939 0.002943
v 0.187153 0.524184 0.069057
v 0.107269 0.530473 0.117705
v 0.004690 0.537375 0.135552
v -0.090307 0.543219 0.117894
v -0.158207 0.547101 0.069353
v -0.183822 0.548075 0.002913
v -0.161494 0.546011 -0.063586
v -0.094967 0.541291 -0.112356
v 0.001302 0.535007 -0.130312
v 0.106215 0.528191 -0.112544
v 0.186913 0.522779 -0.063878
v 0.216695 0.521084 0.002606
v 0.187709 0.307433 0.071670
v 0.109115 0.307771 0.123975
v 0.001880 0.308224 0.143061
v -0.103974 0.308675 0.123975
v -0.180550 0.309012 0.071670
v -0.210929 0.309145 0.000000
v -0.187791 0.309036 -0.071670
v -0.114057 0.308718 -0.123975
v -0.005680 0.308256 -0.143061
v 0.105784 0.307785 -0.123975
v 0.187012 0.307436 -0.071670
v 0.216338 0.307310 0.000000
v 0.188706 0.161175 0.073687
v 0.109992 0.161143 0.127619
v 0.001520 0.161100 0.147360
v -0.105951 0.161058 0.127619
v -0.184999 0.161028 0.073687
v -0.217761 0.161018 0.000014
v -0.195121 0.161031 -0.073659
v -0.120454 0.161064 -0.127591
v -0.008960 0.161107 -0.147332
v 0.107083 0.161149 -0.127591
v 0.188634 0.161179 -0.073659
v 0.217371 0.161188 0.000014
v 0.185705 -0.029033 0.074314
v 0.108869 -0.029886 0.128497
v 0.002129 -0.031018 0.148328
v -0.105218 -0.032126 0.128496
v -0.184364 -0.032913 0.074314
v -0.216419 -0.033168 0.000299
v -0.193122 -0.032822 -0.073715
v -0.117365 -0.031969 -0.127897
v -0.006863 -0.030837 -0.147729
v 0.105183 -0.029729 -0.127897
v 0.185168 -0.028942 -0.073715
v 0.213483 -0.028688 0.000300
v 0.177063 -0.285077 0.072885
v 0.103037 -0.288325 0.125651
v 0.003046 -0.292636 0.144963
v -0.096075 -0.296854 0.125645
v -0.169289 -0.299849 0.072875
v -0.197017 -0.300819 0.000792
v -0.171535 -0.299504 -0.071290
v -0.098908 -0.296256 -0.124057
v 0.001799 -0.291946 -0.143368
v 0.103325 -0.287728 -0.124051
v 0.177147 -0.284732 -0.071281
v 0.204247 -0.283762 0.000803
v 0.155577 -0.583827 0.063477
v 0.095968 -0.586685 0.109441
v 0.014316 -0.590472 0.126416
v -0.067664 -0.594189 0.109737
v -0.127789 -0.596822 0.063764
v -0.149760 -0.597628 0.000819
v -0.127646 -0.596325 -0.062123
v -0.067498 -0.593328 -0.108088
v 0.014342 -0.589480 -0.124755
v 0.095945 -0.585827 -0.107768
v 0.155561 -0.583380 -0.061794
v 0.177361 -0.582625 0.000842
v 0.135028 -0.910965 0.046551
v 0.093139 -0.911167 0.080298
v 0.035919 -0.911351 0.092709
v -0.021361 -0.911523 0.080416
v -0.063369 -0.911614 0.046674
v -0.078768 -0.911511 0.000526
v -0.063373 -0.911176 -0.045626
v -0.021368 -0.910764 -0.079373
v 0.035908 -0.910476 -0.091673
v 0.093130 -0.910432 -0.079270
v 0.135023 -0.910526 -0.045530
v 0.150389 -0.910479 0.000510
v 0.116561 -1.105661 0.030854
v 0.089397 -1.102367 0.053251
v 0.052345 -1.097903 0.061437
v 0.015356 -1.093238 0.053231
v -0.011752 -1.090131 0.030808
v -0.021678 -1.089059 0.000190
v -0.011747 -1.090229 -0.030421
v 0.015364 -1.093417 -0.052821
v 0.052355 -1.098125 -0.060995
v 0.089405 -1.102569 -0.052779
v 0.116562 -1.105779 -0.030362
v 0.126517 -1.106903 0.000250
v 0.068075 -1.181444 -0.000033
v 0.186881 0.394044 0.067797
v 0.215468 0.392302 -0.000000
v 0.186294 0.394080 -0.067797
v 0.104848 0.399024 -0.117427
v -0.005613 0.405725 -0.135594
v -0.111277 0.412192 -0.117427
v -0.183209 0.416652 -0.067797
v -0.206369 0.418097 -0.000000
v -0.177743 0.416311 0.067797
v -0.103250 0.411699 0.117427
v 0.000691 0.405342 0.135594
v 0.107669 0.398852 0.117427
v 0.185563 0.738003 0.068601
v 0.189275 0.768190 0.069672
v 0.180796 0.792816 0.063331
v 0.120560 0.776176 0.118038
v 0.123561 0.808724 0.120381
v 0.119074 0.829005 0.109849
v 0.039309 0.817827 0.135891
v 0.039628 0.851703 0.138707
v 0.041400 0.866378 0.126700
v -0.046149 0.846599 0.117560
v -0.046899 0.881318 0.119883
v -0.037140 0.891552 0.109485
v -0.108971 0.864816 0.067695
v -0.111043 0.900429 0.068691
v -0.096081 0.907620 0.062595
v -0.132384 0.869793 -0.000392
v -0.134915 0.905942 -0.001204
v -0.118080 0.911872 -0.001457
v -0.109916 0.861680 -0.068495
v -0.112010 0.897209 -0.071095
v -0.096967 0.904670 -0.065542
v -0.047787 0.841167 -0.118329
v -0.048575 0.875743 -0.122234
v -0.038676 0.886441 -0.112453
v 0.037414 0.811554 -0.136489
v 0.037691 0.845265 -0.140866
v 0.039626 0.860477 -0.129573
v 0.118913 0.770743 -0.117851
v 0.121878 0.803148 -0.121736
v 0.117535 0.823894 -0.112090
v 0.184674 0.734866 -0.067589
v 0.188316 0.764971 -0.070114
v 0.179905 0.789865 -0.064805
v 0.214528 0.722413 0.000636
v 0.217907 0.751561 -0.000071
v 0.206359 0.777674 -0.000600
v 0.128594 0.759143 0.042045
v 0.087727 0.781487 0.072322
v 0.037464 0.806091 0.083269
v -0.013775 0.824503 0.072028
v -0.052854 0.835153 0.041539
v -0.067342 0.837483 -0.000097
v -0.053432 0.833234 -0.041777
v -0.014778 0.821179 -0.072278
v 0.036304 0.802254 -0.083362
v 0.086721 0.778164 -0.071984
v 0.128025 0.757225 -0.041271
v 0.145508 0.749207 0.000477
v 0.089409 0.754581 0.027150
v 0.062616 0.766840 0.046387
v 0.028615 0.745375 0.001364
v 0.028999 0.780500 0.053380
v -0.004122 0.791239 0.046282
v -0.029060 0.797436 0.026975
v -0.038653 0.798467 0.000603
v -0.029427 0.796220 -0.025822
v -0.004759 0.789133 -0.045165
v 0.028262 0.778068 -0.052214
v 0.061978 0.764735 -0.045060
v 0.089053 0.753365 -0.025647
v 0.100060 0.748908 0.000793
v 0.157196 0.772447 0.054065
v 0.105009 0.803524 0.093386
v 0.040154 0.836928 0.107587
v -0.026973 0.860691 0.092978
v -0.076829 0.875246 0.053306
v -0.095466 0.878772 -0.000852
v -0.077579 0.872751 -0.055042
v -0.028274 0.856369 -0.094686
v 0.038650 0.831938 -0.109109
v 0.103704 0.799203 -0.094277
v 0.156448 0.769952 -0.054283
v 0.179085 0.759101 0.000018
v 0.100977 -1.176782 0.016563
v 0.096525 -1.181590 0.012692
v 0.085174 -1.178016 0.028603
v 0.083575 -1.182497 0.022608
v 0.063690 -1.179687 0.032923
v 0.065145 -1.183724 0.026439
v 0.042395 -1.181400 0.028395
v 0.046657 -1.184911 0.022736
v 0.026996 -1.182703 0.016338
v 0.033520 -1.185714 0.012869
v 0.021373 -1.183091 0.000036
v 0.028738 -1.185954 0.000029
v 0.026999 -1.182528 -0.016262
v 0.033291 -1.185588 -0.012975
v 0.042399 -1.181098 -0.028309
v 0.046529 -1.184668 -0.022946
v 0.063686 -1.179338 -0.032826
v 0.065141 -1.183432 -0.026598
v 0.085166 -1.177715 -0.028499
v 0.083631 -1.182241 -0.022668
v 0.100973 -1.176610 -0.016457
v 0.096577 -1.181447 -0.012653
v 0.106771 -1.176274 0.000053
v 0.100980 -1.181228 0.000040
vt 0.526546 0.127927
vt 0.024430 0.163540
vt 0.069590 0.164910
vt 0.119988 0.166293
vt 0.166532 0.168461
vt 0.206587 0.171124
vt 0.240810 0.173387
vt 0.274777 0.174294
vt 0.314854 0.174609
vt 0.362707 0.175700
vt 0.414995 0.178206
vt 0.461040 0.180870
vt 0.496260 0.181816
vt 0.531046 0.180211
vt 0.008735 0.271841
vt 0.053454 0.274486
vt 0.104803 0.276907
vt 0.155364 0.279354
vt 0.199014 0.281567
vt 0.235818 0.283093
vt 0.271546 0.283832
vt 0.314198 0.283935
vt 0.365944 0.284224
vt 0.419124 0.285460
vt 0.464993 0.286702
vt 0.501807 0.287714
vt 0.538833 0.288619
vt 0.001326 0.346747
vt 0.046716 0.347522
vt 0.098756 0.348129
vt 0.150034 0.348785
vt 0.195112 0.349675
vt 0.232927 0.350587
vt 0.268918 0.351260
vt 0.312015 0.352180
vt 0.365117 0.353764
vt 0.420156 0.356192
vt 0.465914 0.358746
vt 0.503278 0.361003
vt 0.540972 0.363726
vt 0.000000 0.445506
vt 0.044734 0.443404
vt 0.096093 0.441356
vt 0.147487 0.439640
vt 0.192577 0.438589
vt 0.230392 0.438295
vt 0.266715 0.438963
vt 0.310268 0.440886
vt 0.362791 0.444104
vt 0.416095 0.448066
vt 0.461514 0.452117
vt 0.498890 0.456391
vt 0.536311 0.461975
vt 0.012487 0.578274
vt 0.055456 0.572779
vt 0.103397 0.567899
vt 0.151136 0.563856
vt 0.193348 0.560974
vt 0.229495 0.559648
vt 0.265311 0.560175
vt 0.307318 0.562554
vt 0.355258 0.566497
vt 0.403613 0.571311
vt 0.446034 0.576741
vt 0.481874 0.583397
vt 0.517321 0.593100
vt 0.050888 0.729443
vt 0.085589 0.719896
vt 0.124702 0.711004
vt 0.163821 0.703601
vt 0.199501 0.698487
vt 0.231200 0.696173
vt 0.263015 0.696686
vt 0.298971 0.699865
vt 0.338422 0.705210
vt 0.377815 0.712090
vt 0.412907 0.719949
vt 0.443300 0.728997
vt 0.472745 0.740857
vt 0.114714 0.886325
vt 0.137762 0.874394
vt 0.163072 0.862915
vt 0.189052 0.853098
vt 0.213658 0.846251
vt 0.236510 0.843056
vt 0.259586 0.843578
vt 0.284807 0.847519
vt 0.311699 0.854283
vt 0.338041 0.862887
vt 0.361987 0.872259
vt 0.383089 0.882043
vt 0.403111 0.893339
vt 0.173699 0.971984
vt 0.534800 0.244673
vt 0.014065 0.227876
vt 0.499432 0.245284
vt 0.463918 0.244018
vt 0.417935 0.241045
vt 0.364287 0.237611
vt 0.313127 0.235739
vt 0.271923 0.234798
vt 0.238502 0.233885
vt 0.204115 0.232385
vt 0.161768 0.230907
vt 0.111210 0.229843
vt 0.059047 0.229222
vt 0.082083 0.046580
vt 0.032536 0.111242
vt 0.125480 0.031300
vt 0.076346 0.107920
vt 0.170578 0.022663
vt 0.123345 0.104263
vt 0.211604 0.017901
vt 0.168404 0.102766
vt 0.248012 0.017501
vt 0.208699 0.102907
vt 0.284273 0.021427
vt 0.243901 0.104006
vt 0.324807 0.029980
vt 0.279132 0.106597
vt 0.369327 0.042404
vt 0.319890 0.110201
vt 0.412148 0.060858
vt 0.365780 0.115402
vt 0.454108 0.078008
vt 0.413947 0.122430
vt 0.491316 0.084243
vt 0.458937 0.128928
vt 0.527425 0.077781
vt 0.493250 0.131311
vt 0.721778 0.052483
vt 0.652502 0.085765
vt 0.687312 0.021278
vt 0.641960 0.008942
vt 0.597967 0.019172
vt 0.566024 0.045803
vt 0.553690 0.080423
vt 0.562220 0.116171
vt 0.591105 0.146090
vt 0.633738 0.161003
vt 0.680155 0.153626
vt 0.717785 0.126316
vt 0.732999 0.090112
vt 0.040602 0.061267
vt 0.527727 0.063227
vt 0.040890 0.046762
vt 0.696372 0.014338
vt 0.644464 0.000000
vt 0.593802 0.011676
vt 0.558442 0.041846
vt 0.545084 0.079958
vt 0.554255 0.119288
vt 0.586156 0.153093
vt 0.635262 0.170163
vt 0.688413 0.161502
vt 0.730137 0.130550
vt 0.746729 0.090851
vt 0.675522 0.050766
vt 0.695253 0.068141
vt 0.649416 0.042482
vt 0.622724 0.047173
vt 0.603025 0.062285
vt 0.595385 0.082678
vt 0.600781 0.103775
vt 0.618735 0.120921
vt 0.644765 0.128462
vt 0.671612 0.123038
vt 0.693108 0.107889
vt 0.702314 0.088454
vt 0.665290 0.064545
vt 0.677803 0.074748
vt 0.648932 0.060381
vt 0.632986 0.063201
vt 0.621284 0.071940
vt 0.616603 0.083825
vt 0.619974 0.096145
vt 0.630666 0.106094
vt 0.646214 0.110615
vt 0.662925 0.108238
vt 0.676472 0.099442
vt 0.682249 0.087371
vt 0.708764 0.061006
vt 0.682326 0.036042
vt 0.646136 0.024914
vt 0.609404 0.032110
vt 0.582872 0.053224
vt 0.572601 0.081446
vt 0.579770 0.110610
vt 0.603870 0.134460
vt 0.639611 0.145574
vt 0.676789 0.138410
vt 0.705769 0.116439
vt 0.718001 0.089301
vt 0.309161 0.999059
vt 0.208022 0.999051
vt 0.213524 0.993309
vt 0.025107 0.012534
vt 0.026107 0.021523
vt 0.023517 0.028957
vt 0.018358 0.033005
vt 0.256690 0.978724
vt 0.266424 0.980269
vt 0.277011 0.982955
vt 0.000000 0.011224
vt 0.002687 0.003854
vt 0.007835 0.000000
vt 0.185301 0.959904
vt 0.204680 0.997221
vt 0.198685 0.948041
vt 0.211241 0.990513
vt 0.213123 0.937729
vt 0.220156 0.984626
vt 0.227886 0.930591
vt 0.229897 0.979861
vt 0.242529 0.927350
vt 0.239187 0.976600
vt 0.257531 0.928199
vt 0.247787 0.975041
vt 0.273278 0.932716
vt 0.256622 0.975128
vt 0.289272 0.940119
vt 0.266617 0.976689
vt 0.304576 0.948880
vt 0.277579 0.979423
vt 0.318240 0.957931
vt 0.288302 0.982955
vt 0.330359 0.966835
vt 0.297408 0.987098
vt 0.342409 0.976370
vt 0.304220 0.992095
vt 0.014255 0.000195
vt 0.012575 0.014991
vt 0.020669 0.004667
vt 0.248197 0.978786
vt 0.011764 0.032816
vt 0.005285 0.028221
vt 0.000900 0.020248
vt 0.305282 1.000000
vt 0.734511 0.049598
vt 0.491210 0.070152
vt 0.454061 0.063358
vt 0.412122 0.045140
vt 0.368644 0.026149
vt 0.324514 0.013361
vt 0.284410 0.004361
vt 0.248791 0.000000
vt 0.212950 0.000913
vt 0.172226 0.006158
vt 0.127311 0.015177
vt 0.082933 0.030939
vt 0.295517 0.990111
vt 0.287175 0.986331
vt 0.231011 0.983367
vt 0.221743 0.987909
vt 0.301459 0.994332
vt 0.239958 0.980213
vn 0.730966 -0.000365 0.682414
vn 0.349613 -0.013492 0.936797
vn 0.338864 0.007749 0.940804
vn 0.723061 0.001360 0.690783
vn -0.011043 0.005582 0.999924
vn -0.005565 0.024564 0.999683
vn -0.391237 0.058575 0.918424
vn -0.374656 0.070020 0.924516
vn -0.779067 0.122792 0.614798
vn -0.762789 0.143480 0.630529
vn -0.987656 0.156195 0.011797
vn -0.979356 0.200651 0.024526
vn -0.789346 0.117416 -0.602616
vn -0.774666 0.174957 -0.607687
vn -0.399296 0.045067 -0.915714
vn -0.374987 0.104719 -0.921096
vn -0.018230 -0.012624 -0.999754
vn -0.005085 0.052656 -0.998600
vn 0.342985 -0.029837 -0.938867
vn 0.335677 0.030598 -0.941480
vn 0.728559 -0.010504 -0.684902
vn 0.721677 0.018137 -0.691993
vn 0.999966 0.008236 0.000173
vn 0.999997 0.002095 0.001079
vn 0.345305 0.026375 0.938120
vn 0.738101 0.012345 0.674578
vn -0.002664 0.033463 0.999436
vn -0.369367 0.047157 0.928086
vn -0.763174 0.078056 0.641461
vn -0.993384 0.109273 0.035328
vn -0.783215 0.104351 -0.612932
vn -0.368960 0.076547 -0.926288
vn -0.002575 0.057258 -0.998356
vn 0.336348 0.045661 -0.940630
vn 0.729064 0.026417 -0.683936
vn 0.999967 0.005491 -0.006069
vn 0.753373 0.025057 0.657116
vn 0.355741 0.040850 0.933692
vn 0.366644 0.011046 0.930296
vn 0.766283 0.001434 0.642501
vn -0.000760 0.045597 0.998960
vn -0.000738 0.014519 0.999894
vn -0.363608 0.041757 0.930616
vn -0.368036 0.013880 0.929708
vn -0.753786 0.039051 0.655959
vn -0.754979 0.013812 0.655604
vn -0.997532 0.045147 0.053780
vn -0.997982 0.015698 0.061525
vn -0.786371 0.050932 -0.615651
vn -0.794039 0.015598 -0.607666
vn -0.362999 0.049617 -0.930467
vn -0.370901 0.014169 -0.928564
vn 0.000012 0.046330 -0.998926
vn -0.002118 0.012953 -0.999914
vn 0.342760 0.040146 -0.938565
vn 0.352082 0.009163 -0.935924
vn 0.743677 0.026028 -0.668033
vn 0.756901 0.000440 -0.653530
vn 0.999901 0.013671 -0.003378
vn 0.999980 -0.005821 -0.002476
vn 0.374985 -0.009948 0.926978
vn 0.773367 -0.020482 0.633627
vn -0.000610 -0.006375 0.999979
vn -0.375250 -0.012516 0.926839
vn -0.762618 -0.027619 0.646259
vn -0.997875 -0.043885 0.048158
vn -0.792390 -0.041602 -0.608594
vn -0.376573 -0.023941 -0.926077
vn -0.002068 -0.010578 -0.999942
vn 0.361980 -0.010600 -0.932126
vn 0.766003 -0.021315 -0.642484
vn 0.999599 -0.028250 -0.001849
vn 0.385555 -0.039474 0.921840
vn 0.781508 -0.052094 0.621717
vn -0.000682 -0.039114 0.999235
vn -0.386025 -0.055757 0.920802
vn -0.774720 -0.087413 0.626233
vn -0.993276 -0.113581 0.022414
vn -0.786343 -0.099790 -0.609678
vn -0.383302 -0.064905 -0.921340
vn 0.000907 -0.041627 -0.999133
vn 0.381436 -0.038869 -0.923578
vn 0.779377 -0.051726 -0.624417
vn 0.998105 -0.061525 -0.000532
vn 0.401920 -0.071708 0.912863
vn 0.793202 -0.077070 0.604062
vn 0.002559 -0.082466 0.996591
vn -0.396725 -0.112439 0.911025
vn -0.783768 -0.156481 0.601017
vn -0.982926 -0.183967 0.003484
vn -0.784936 -0.158791 -0.598883
vn -0.395246 -0.113355 -0.911554
vn 0.002894 -0.081890 -0.996637
vn 0.401052 -0.071037 -0.913297
vn 0.793346 -0.076818 -0.603905
vn 0.996473 -0.083916 0.000027
vn 0.417003 -0.099808 0.903408
vn 0.805349 -0.092776 0.585496
vn 0.005550 -0.122099 0.992503
vn -0.403321 -0.162578 0.900500
vn -0.784999 -0.214279 0.581258
vn -0.970241 -0.242140 -0.000978
vn -0.784665 -0.212504 -0.582359
vn -0.403379 -0.160144 -0.900910
vn 0.005621 -0.119603 -0.992806
vn 0.417089 -0.097617 -0.903608
vn 0.805362 -0.091375 -0.585698
vn 0.995735 -0.092262 -0.000082
vn 0.423658 -0.168864 0.889943
vn 0.807870 -0.153185 0.569104
vn 0.006320 -0.199758 0.979825
vn -0.405631 -0.246388 0.880202
vn -0.773988 -0.301729 0.556689
vn -0.943982 -0.329995 -0.001065
vn -0.773588 -0.299297 -0.558554
vn -0.404986 -0.242765 -0.881505
vn 0.006888 -0.196000 -0.980580
vn 0.423833 -0.165639 -0.890466
vn 0.807604 -0.151178 -0.570018
vn 0.988913 -0.148493 -0.000726
vn 0.714906 -0.041368 0.697996
vn 0.326180 -0.061211 0.943324
vn -0.045947 -0.037757 0.998230
vn -0.426156 0.006386 0.904627
vn -0.804376 0.049023 0.592094
vn -0.998172 0.060141 0.005943
vn -0.812522 0.022369 -0.582502
vn -0.438290 -0.034899 -0.898156
vn -0.059493 -0.083629 -0.994720
vn 0.313067 -0.104481 -0.943967
vn 0.705681 -0.073066 -0.704752
vn 0.999747 -0.021889 -0.005244
vn 0.139395 0.813797 -0.564184
vn 0.023513 0.924114 -0.381392
vn 0.313281 0.949357 -0.024028
vn 0.290025 0.726112 -0.623416
vn 0.467414 0.675010 -0.570864
vn 0.651210 0.656470 -0.380753
vn 0.747937 0.663453 -0.020477
vn 0.656207 0.673104 0.341061
vn 0.475024 0.700443 0.532665
vn 0.298326 0.753972 0.585259
vn 0.146837 0.838888 0.524124
vn 0.028434 0.940684 0.338091
vn -0.024538 0.999438 -0.022854
vn 0.795099 0.100719 0.598057
vn 0.460537 0.134299 0.877422
vn 0.386845 0.917003 -0.097241
vn 0.376067 0.900084 -0.220050
vn 0.049113 0.176555 0.983065
vn 0.379787 0.894989 -0.234003
vn -0.383505 0.215687 0.897999
vn 0.404059 0.895993 -0.184211
vn -0.772311 0.266653 0.576568
vn 0.424716 0.900418 -0.094144
vn -0.960031 0.279894 0.000216
vn 0.421920 0.906321 -0.023794
vn -0.780266 0.240196 -0.577487
vn 0.425698 0.903659 0.046715
vn -0.395888 0.174359 -0.901594
vn 0.406286 0.903391 0.137173
vn 0.035532 0.131081 -0.990735
vn 0.382707 0.904688 0.187284
vn 0.448344 0.093550 -0.888952
vn 0.378768 0.909148 0.173164
vn 0.786698 0.072948 -0.613012
vn 0.387795 0.920411 0.049585
vn 0.996668 0.081108 -0.008605
vn 0.449243 0.893096 -0.023671
vn -0.290993 0.761361 -0.579356
vn -0.030433 0.620999 -0.783221
vn 0.227312 0.552488 -0.801927
vn 0.486178 0.540112 -0.686957
vn 0.719554 0.549563 -0.424526
vn 0.824815 0.565092 -0.018724
vn 0.725200 0.568259 0.388802
vn 0.495449 0.570971 0.654616
vn 0.238154 0.588743 0.772440
vn -0.019851 0.656435 0.754121
vn -0.283238 0.787325 0.547627
vn -0.457301 0.889143 -0.017336
vn 0.068629 0.735144 -0.674428
vn -0.095161 0.876703 -0.471526
vn 0.259500 0.631597 -0.730579
vn 0.479163 0.581766 -0.657229
vn 0.704836 0.568428 -0.424378
vn 0.816733 0.576704 -0.018945
vn 0.710472 0.587119 0.387972
vn 0.488003 0.611238 0.623090
vn 0.269314 0.664482 0.697089
vn 0.077637 0.765415 0.638837
vn -0.088976 0.897508 0.431930
vn -0.188965 0.981752 -0.021325
vn 0.763369 -0.309573 0.566950
vn 0.257137 -0.956086 0.140645
vn 0.309169 -0.950995 -0.004791
vn 0.953900 -0.300125 0.000369
vn 0.381657 -0.331084 0.862972
vn 0.160662 -0.965857 0.203246
vn -0.014906 -0.357852 0.933659
vn 0.073326 -0.976213 0.204038
vn -0.398268 -0.388981 0.830708
vn 0.001829 -0.985886 0.167410
vn -0.738529 -0.424239 0.524019
vn -0.055551 -0.993524 0.099115
vn -0.896509 -0.443025 0.000240
vn -0.085369 -0.996339 -0.004536
vn -0.739147 -0.422832 -0.524285
vn -0.057414 -0.992221 -0.110461
vn -0.398380 -0.386473 -0.831825
vn 0.001416 -0.983754 -0.179515
vn -0.014268 -0.354842 -0.934817
vn 0.073734 -0.973670 -0.215708
vn 0.382754 -0.328102 -0.863625
vn 0.161335 -0.963387 -0.214141
vn 0.764373 -0.307444 -0.566756
vn 0.257552 -0.954451 -0.150633
vn 0.062604 -0.998024 -0.005400
s 1
g pSphere3
f 1/108/1 2/110/2 14/3/3 13/2/4
f 2/110/2 3/112/5 15/4/6 14/3/3
f 3/112/5 4/114/7 16/5/8 15/4/6
f 4/114/7 5/116/9 17/6/10 16/5/8
f 5/116/9 6/118/11 18/7/12 17/6/10
f 6/118/11 7/120/13 19/8/14 18/7/12
f 7/120/13 8/122/15 20/9/16 19/8/14
f 8/122/15 9/124/17 21/10/18 20/9/16
f 9/124/17 10/126/19 22/11/20 21/10/18
f 10/126/19 11/128/21 23/12/22 22/11/20
f 11/128/21 12/130/23 24/13/24 23/12/22
f 12/130/23 1/1/1 13/14/4 24/13/24
f 13/2/4 14/3/3 121/106/25 110/95/26
f 14/3/3 15/4/6 120/105/27 121/106/25
f 15/4/6 16/5/8 119/104/28 120/105/27
f 16/5/8 17/6/10 118/103/29 119/104/28
f 17/6/10 18/7/12 117/102/30 118/103/29
f 18/7/12 19/8/14 116/101/31 117/102/30
f 19/8/14 20/9/16 115/100/32 116/101/31
f 20/9/16 21/10/18 114/99/33 115/100/32
f 21/10/18 22/11/20 113/98/34 114/99/33
f 22/11/20 23/12/22 112/97/35 113/98/34
f 23/12/22 24/13/24 111/96/36 112/97/35
f 24/13/24 13/14/4 110/94/26 111/96/36
f 25/15/37 26/16/38 38/29/39 37/28/40
f 26/16/38 27/17/41 39/30/42 38/29/39
f 27/17/41 28/18/43 40/31/44 39/30/42
f 28/18/43 29/19/45 41/32/46 40/31/44
f 29/19/45 30/20/47 42/33/48 41/32/46
f 30/20/47 31/21/49 43/34/50 42/33/48
f 31/21/49 32/22/51 44/35/52 43/34/50
f 32/22/51 33/23/53 45/36/54 44/35/52
f 33/23/53 34/24/55 46/37/56 45/36/54
f 34/24/55 35/25/57 47/38/58 46/37/56
f 35/25/57 36/26/59 48/39/60 47/38/58
f 36/26/59 25/27/37 37/40/40 48/39/60
f 37/28/40 38/29/39 50/42/61 49/41/62
f 38/29/39 39/30/42 51/43/63 50/42/61
f 39/30/42 40/31/44 52/44/64 51/43/63
f 40/31/44 41/32/46 53/45/65 52/44/64
f 41/32/46 42/33/48 54/46/66 53/45/65
f 42/33/48 43/34/50 55/47/67 54/46/66
f 43/34/50 44/35/52 56/48/68 55/47/67
f 44/35/52 45/36/54 57/49/69 56/48/68
f 45/36/54 46/37/56 58/50/70 57/49/69
f 46/37/56 47/38/58 59/51/71 58/50/70
f 47/38/58 48/39/60 60/52/72 59/51/71
f 48/39/60 37/40/40 49/53/62 60/52/72
f 49/41/62 50/42/61 62/55/73 61/54/74
f 50/42/61 51/43/63 63/56/75 62/55/73
f 51/43/63 52/44/64 64/57/76 63/56/75
f 52/44/64 53/45/65 65/58/77 64/57/76
f 53/45/65 54/46/66 66/59/78 65/58/77
f 54/46/66 55/47/67 67/60/79 66/59/78
f 55/47/67 56/48/68 68/61/80 67/60/79
f 56/48/68 57/49/69 69/62/81 68/61/80
f 57/49/69 58/50/70 70/63/82 69/62/81
f 58/50/70 59/51/71 71/64/83 70/63/82
f 59/51/71 60/52/72 72/65/84 71/64/83
f 60/52/72 49/53/62 61/66/74 72/65/84
f 61/54/74 62/55/73 74/68/85 73/67/86
f 62/55/73 63/56/75 75/69/87 74/68/85
f 63/56/75 64/57/76 76/70/88 75/69/87
f 64/57/76 65/58/77 77/71/89 76/70/88
f 65/58/77 66/59/78 78/72/90 77/71/89
f 66/59/78 67/60/79 79/73/91 78/72/90
f 67/60/79 68/61/80 80/74/92 79/73/91
f 68/61/80 69/62/81 81/75/93 80/74/92
f 69/62/81 70/63/82 82/76/94 81/75/93
f 70/63/82 71/64/83 83/77/95 82/76/94
f 71/64/83 72/65/84 84/78/96 83/77/95
f 72/65/84 61/66/74 73/79/86 84/78/96
f 73/67/86 74/68/85 86/81/97 85/80/98
f 74/68/85 75/69/87 87/82/99 86/81/97
f 75/69/87 76/70/88 88/83/100 87/82/99
f 76/70/88 77/71/89 89/84/101 88/83/100
f 77/71/89 78/72/90 90/85/102 89/84/101
f 78/72/90 79/73/91 91/86/103 90/85/102
f 79/73/91 80/74/92 92/87/104 91/86/103
f 80/74/92 81/75/93 93/88/105 92/87/104
f 81/75/93 82/76/94 94/89/106 93/88/105
f 82/76/94 83/77/95 95/90/107 94/89/106
f 83/77/95 84/78/96 96/91/108 95/90/107
f 84/78/96 73/79/86 85/92/98 96/91/108
f 85/80/98 86/81/97 98/207/109 97/93/110
f 86/81/97 87/82/99 99/209/111 98/207/109
f 87/82/99 88/83/100 100/211/112 99/209/111
f 88/83/100 89/84/101 101/213/113 100/211/112
f 89/84/101 90/85/102 102/215/114 101/213/113
f 90/85/102 91/86/103 103/217/115 102/215/114
f 91/86/103 92/87/104 104/219/116 103/217/115
f 92/87/104 93/88/105 105/221/117 104/219/116
f 93/88/105 94/89/106 106/223/118 105/221/117
f 94/89/106 95/90/107 107/225/119 106/223/118
f 95/90/107 96/91/108 108/227/120 107/225/119
f 96/91/108 85/92/98 97/229/110 108/227/120
f 111/96/36 110/94/26 25/27/37 36/26/59
f 112/97/35 111/96/36 36/26/59 35/25/57
f 113/98/34 112/97/35 35/25/57 34/24/55
f 114/99/33 113/98/34 34/24/55 33/23/53
f 115/100/32 114/99/33 33/23/53 32/22/51
f 116/101/31 115/100/32 32/22/51 31/21/49
f 117/102/30 116/101/31 31/21/49 30/20/47
f 118/103/29 117/102/30 30/20/47 29/19/45
f 119/104/28 118/103/29 29/19/45 28/18/43
f 120/105/27 119/104/28 28/18/43 27/17/41
f 121/106/25 120/105/27 27/17/41 26/16/38
f 110/95/26 121/106/25 26/16/38 25/15/37
f 122/144/121 125/107/122 2/110/2 1/108/1
f 125/107/122 128/109/123 3/112/5 2/110/2
f 128/109/123 131/111/124 4/114/7 3/112/5
f 131/111/124 134/113/125 5/116/9 4/114/7
f 134/113/125 137/115/126 6/118/11 5/116/9
f 137/115/126 140/117/127 7/120/13 6/118/11
f 140/117/127 143/119/128 8/122/15 7/120/13
f 143/119/128 146/121/129 9/124/17 8/122/15
f 146/121/129 149/123/130 10/126/19 9/124/17
f 149/123/130 152/125/131 11/128/21 10/126/19
f 152/125/131 155/127/132 12/130/23 11/128/21
f 155/127/132 122/129/121 1/1/1 12/130/23
f 171/170/133 170/171/134 172/132/135
f 173/172/136 171/170/133 172/132/135
f 174/173/137 173/172/136 172/132/135
f 175/174/138 174/173/137 172/132/135
f 176/175/139 175/174/138 172/132/135
f 177/176/140 176/175/139 172/132/135
f 178/177/141 177/176/140 172/132/135
f 179/178/142 178/177/141 172/132/135
f 180/179/143 179/178/142 172/132/135
f 181/180/144 180/179/143 172/132/135
f 182/181/145 181/180/144 172/132/135
f 170/171/134 182/181/145 172/132/135
f 122/144/121 123/146/146 126/250/147 125/107/122
f 123/239/146 124/131/148 127/133/149 126/147/147
f 125/107/122 126/250/147 129/249/150 128/109/123
f 126/147/147 127/133/149 130/134/151 129/148/150
f 128/109/123 129/249/150 132/248/152 131/111/124
f 129/148/150 130/134/151 133/135/153 132/149/152
f 131/111/124 132/248/152 135/247/154 134/113/125
f 132/149/152 133/135/153 136/136/155 135/150/154
f 134/113/125 135/247/154 138/246/156 137/115/126
f 135/150/154 136/136/155 139/137/157 138/151/156
f 137/115/126 138/246/156 141/245/158 140/117/127
f 138/151/156 139/137/157 142/138/159 141/152/158
f 140/117/127 141/245/158 144/244/160 143/119/128
f 141/152/158 142/138/159 145/139/161 144/153/160
f 143/119/128 144/244/160 147/243/162 146/121/129
f 144/153/160 145/139/161 148/140/163 147/154/162
f 146/121/129 147/243/162 150/242/164 149/123/130
f 147/154/162 148/140/163 151/141/165 150/155/164
f 149/123/130 150/242/164 153/241/166 152/125/131
f 150/155/164 151/141/165 154/142/167 153/156/166
f 152/125/131 153/241/166 156/240/168 155/127/132
f 153/156/166 154/142/167 157/143/169 156/157/168
f 124/131/148 123/239/146 156/157/168 157/143/169
f 123/145/146 122/129/121 155/127/132 156/240/168
f 127/133/149 124/131/148 183/182/170 184/183/171
f 130/134/151 127/133/149 184/183/171 185/184/172
f 133/135/153 130/134/151 185/184/172 186/185/173
f 136/136/155 133/135/153 186/185/173 187/186/174
f 139/137/157 136/136/155 187/186/174 188/187/175
f 142/138/159 139/137/157 188/187/175 189/188/176
f 145/139/161 142/138/159 189/188/176 190/189/177
f 148/140/163 145/139/161 190/189/177 191/190/178
f 151/141/165 148/140/163 191/190/178 192/191/179
f 154/142/167 151/141/165 192/191/179 193/192/180
f 157/143/169 154/142/167 193/192/180 194/193/181
f 124/131/148 157/143/169 194/193/181 183/182/170
f 159/158/182 158/159/183 170/171/134 171/170/133
f 160/160/184 159/158/182 171/170/133 173/172/136
f 161/161/185 160/160/184 173/172/136 174/173/137
f 162/162/186 161/161/185 174/173/137 175/174/138
f 163/163/187 162/162/186 175/174/138 176/175/139
f 164/164/188 163/163/187 176/175/139 177/176/140
f 165/165/189 164/164/188 177/176/140 178/177/141
f 166/166/190 165/165/189 178/177/141 179/178/142
f 167/167/191 166/166/190 179/178/142 180/179/143
f 168/168/192 167/167/191 180/179/143 181/180/144
f 169/169/193 168/168/192 181/180/144 182/181/145
f 158/159/183 169/169/193 182/181/145 170/171/134
f 184/183/171 183/182/170 158/159/183 159/158/182
f 185/184/172 184/183/171 159/158/182 160/160/184
f 186/185/173 185/184/172 160/160/184 161/161/185
f 187/186/174 186/185/173 161/161/185 162/162/186
f 188/187/175 187/186/174 162/162/186 163/163/187
f 189/188/176 188/187/175 163/163/187 164/164/188
f 190/189/177 189/188/176 164/164/188 165/165/189
f 191/190/178 190/189/177 165/165/189 166/166/190
f 192/191/179 191/190/178 166/166/190 167/167/191
f 193/192/180 192/191/179 167/167/191 168/168/192
f 194/193/181 193/192/180 168/168/192 169/169/193
f 183/182/170 194/193/181 169/169/193 158/159/183
f 195/194/194 196/238/195 218/255/196 217/230/197
f 196/195/195 195/208/194 197/210/198 198/196/199
f 198/196/199 197/210/198 199/212/200 200/254/201
f 200/254/201 199/212/200 201/214/202 202/253/203
f 202/253/203 201/214/202 203/216/204 204/256/205
f 204/256/205 203/216/204 205/218/206 206/234/207
f 206/234/207 205/218/206 207/220/208 208/201/209
f 208/201/209 207/220/208 209/222/210 210/202/211
f 210/202/211 209/222/210 211/224/212 212/203/213
f 212/203/213 211/224/212 213/226/214 214/252/215
f 214/252/215 213/226/214 215/228/216 216/251/217
f 216/251/217 215/228/216 217/230/197 218/255/196
f 97/93/110 98/207/109 197/210/198 195/208/194
f 98/207/109 99/209/111 199/212/200 197/210/198
f 99/209/111 100/211/112 201/214/202 199/212/200
f 100/211/112 101/213/113 203/216/204 201/214/202
f 101/213/113 102/215/114 205/218/206 203/216/204
f 102/215/114 103/217/115 207/220/208 205/218/206
f 103/217/115 104/219/116 209/222/210 207/220/208
f 104/219/116 105/221/117 211/224/212 209/222/210
f 105/221/117 106/223/118 213/226/214 211/224/212
f 106/223/118 107/225/119 215/228/216 213/226/214
f 107/225/119 108/227/120 217/230/197 215/228/216
f 108/227/120 97/229/110 195/194/194 217/230/197
f 196/231/195 198/233/199 109/232/218
f 198/233/199 200/197/201 109/232/218
f 200/197/201 202/198/203 109/232/218
f 202/198/203 204/199/205 109/232/218
f 204/199/205 206/200/207 109/232/218
f 206/200/207 208/235/209 109/232/218
f 208/235/209 210/236/211 109/232/218
f 210/236/211 212/237/213 109/232/218
f 212/237/213 214/204/215 109/232/218
f 214/204/215 216/205/217 109/232/218
f 216/205/217 218/206/196 109/232/218
f 218/206/196 196/231/195 109/232/218
