# This file uses centimeters as units for non-parametric coordinates.

mtllib Effectcircle.mtl
g default
v 0.951057 -0.343837 -0.309017
v 0.809018 -0.343837 -0.587785
v 0.587786 -0.343837 -0.809017
v 0.309017 -0.343837 -0.951057
v 0.000000 -0.343837 -1.000000
v -0.309017 -0.343837 -0.951057
v -0.587785 -0.343837 -0.809017
v -0.809017 -0.343837 -0.587785
v -0.951057 -0.343837 -0.309017
v -1.000000 -0.343837 0.000000
v -0.951057 -0.343837 0.309017
v -0.809017 -0.343837 0.587786
v -0.587785 -0.343837 0.809017
v -0.309017 -0.343837 0.951057
v 0.000000 -0.343837 1.000000
v 0.309017 -0.343837 0.951057
v 0.587785 -0.343837 0.809017
v 0.809017 -0.343837 0.587785
v 0.951057 -0.343837 0.309017
v 1.000000 -0.343837 0.000000
v 0.951057 0.343837 -0.309017
v 0.809018 0.343837 -0.587785
v 0.587786 0.343837 -0.809017
v 0.309017 0.343837 -0.951057
v 0.000000 0.343837 -1.000000
v -0.309017 0.343837 -0.951057
v -0.587785 0.343837 -0.809017
v -0.809017 0.343837 -0.587785
v -0.951057 0.343837 -0.309017
v -1.000000 0.343837 0.000000
v -0.951057 0.343837 0.309017
v -0.809017 0.343837 0.587786
v -0.587785 0.343837 0.809017
v -0.309017 0.343837 0.951057
v 0.000000 0.343837 1.000000
v 0.309017 0.343837 0.951057
v 0.587785 0.343837 0.809017
v 0.809017 0.343837 0.587785
v 0.951057 0.343837 0.309017
v 1.000000 0.343837 0.000000
v 0.951057 -0.343837 -0.309017
v 0.809018 -0.343837 -0.587785
v 0.587786 -0.343837 -0.809017
v 0.309017 -0.343837 -0.951057
v 0.000000 -0.343837 -1.000000
v -0.309017 -0.343837 -0.951057
v -0.587785 -0.343837 -0.809017
v -0.809017 -0.343837 -0.587785
v -0.951057 -0.343837 -0.309017
v -1.000000 -0.343837 0.000000
v -0.951057 -0.343837 0.309017
v -0.809017 -0.343837 0.587786
v -0.587785 -0.343837 0.809017
v -0.309017 -0.343837 0.951057
v 0.000000 -0.343837 1.000000
v 0.309017 -0.343837 0.951057
v 0.587785 -0.343837 0.809017
v 0.809017 -0.343837 0.587785
v 0.951057 -0.343837 0.309017
v 1.000000 -0.343837 0.000000
v 0.951057 0.343837 -0.309017
v 0.809018 0.343837 -0.587785
v 0.587786 0.343837 -0.809017
v 0.309017 0.343837 -0.951057
v 0.000000 0.343837 -1.000000
v -0.309017 0.343837 -0.951057
v -0.587785 0.343837 -0.809017
v -0.809017 0.343837 -0.587785
v -0.951057 0.343837 -0.309017
v -1.000000 0.343837 0.000000
v -0.951057 0.343837 0.309017
v -0.809017 0.343837 0.587786
v -0.587785 0.343837 0.809017
v -0.309017 0.343837 0.951057
v 0.000000 0.343837 1.000000
v 0.309017 0.343837 0.951057
v 0.587785 0.343837 0.809017
v 0.809017 0.343837 0.587785
v 0.951057 0.343837 0.309017
v 1.000000 0.343837 0.000000
vt 0.000000 0.000000
vt 0.050000 0.000000
vt 0.100000 0.000000
vt 0.150000 0.000000
vt 0.200000 0.000000
vt 0.250000 0.000000
vt 0.300000 0.000000
vt 0.350000 0.000000
vt 0.400000 0.000000
vt 0.450000 0.000000
vt 0.500000 0.000000
vt 0.550000 0.000000
vt 0.600000 0.000000
vt 0.650000 0.000000
vt 0.700000 0.000000
vt 0.750000 0.000000
vt 0.800000 0.000000
vt 0.850000 0.000000
vt 0.900000 0.000000
vt 0.950000 0.000000
vt 1.000000 0.000000
vt 0.000000 0.301798
vt 0.050000 0.301798
vt 0.100000 0.301798
vt 0.150000 0.301798
vt 0.200000 0.301798
vt 0.250000 0.301798
vt 0.300000 0.301798
vt 0.350000 0.301798
vt 0.400000 0.301798
vt 0.450000 0.301798
vt 0.500000 0.301798
vt 0.550000 0.301798
vt 0.600000 0.301798
vt 0.650000 0.301798
vt 0.700000 0.301798
vt 0.750000 0.301798
vt 0.800000 0.301798
vt 0.850000 0.301798
vt 0.900000 0.301798
vt 0.950000 0.301798
vt 1.000000 0.301798
vt 0.000000 0.000000
vt 0.000000 0.301798
vt 0.050000 0.301798
vt 0.050000 0.000000
vt 0.100000 0.301798
vt 0.100000 0.000000
vt 0.150000 0.301798
vt 0.150000 0.000000
vt 0.200000 0.301798
vt 0.200000 0.000000
vt 0.250000 0.301798
vt 0.250000 0.000000
vt 0.300000 0.301798
vt 0.300000 0.000000
vt 0.350000 0.301798
vt 0.350000 0.000000
vt 0.400000 0.301798
vt 0.400000 0.000000
vt 0.450000 0.301798
vt 0.450000 0.000000
vt 0.500000 0.301798
vt 0.500000 0.000000
vt 0.550000 0.301798
vt 0.550000 0.000000
vt 0.600000 0.301798
vt 0.600000 0.000000
vt 0.650000 0.301798
vt 0.650000 0.000000
vt 0.700000 0.301798
vt 0.700000 0.000000
vt 0.750000 0.301798
vt 0.750000 0.000000
vt 0.800000 0.301798
vt 0.800000 0.000000
vt 0.850000 0.301798
vt 0.850000 0.000000
vt 0.900000 0.301798
vt 0.900000 0.000000
vt 0.950000 0.301798
vt 0.950000 0.000000
vt 1.000000 0.301798
vt 1.000000 0.000000
vn 0.951057 0.000000 -0.309016
vn 0.809017 0.000000 -0.587785
vn 0.809017 0.000000 -0.587785
vn 0.951057 0.000000 -0.309016
vn 0.587785 0.000000 -0.809017
vn 0.587785 0.000000 -0.809017
vn 0.309017 0.000000 -0.951057
vn 0.309017 0.000000 -0.951057
vn -0.000000 0.000000 -1.000000
vn -0.000000 0.000000 -1.000000
vn -0.309017 0.000000 -0.951057
vn -0.309017 0.000000 -0.951057
vn -0.587785 0.000000 -0.809017
vn -0.587785 0.000000 -0.809017
vn -0.809017 0.000000 -0.587785
vn -0.809017 0.000000 -0.587785
vn -0.951057 0.000000 -0.309017
vn -0.951057 0.000000 -0.309017
vn -1.000000 0.000000 0.000000
vn -1.000000 0.000000 0.000000
vn -0.951057 0.000000 0.309017
vn -0.951057 0.000000 0.309017
vn -0.809017 0.000000 0.587785
vn -0.809017 0.000000 0.587785
vn -0.587785 0.000000 0.809017
vn -0.587785 0.000000 0.809017
vn -0.309017 0.000000 0.951057
vn -0.309017 0.000000 0.951057
vn 0.000000 0.000000 1.000000
vn 0.000000 0.000000 1.000000
vn 0.309017 0.000000 0.951056
vn 0.309017 0.000000 0.951056
vn 0.587785 0.000000 0.809017
vn 0.587785 0.000000 0.809017
vn 0.809017 0.000000 0.587785
vn 0.809017 0.000000 0.587785
vn 0.951057 0.000000 0.309017
vn 0.951057 0.000000 0.309017
vn 1.000000 0.000000 0.000001
vn 1.000000 0.000000 0.000001
vn -0.951057 0.000000 0.309016
vn -0.951057 0.000000 0.309016
vn -0.809017 0.000000 0.587785
vn -0.809017 0.000000 0.587785
vn -0.587785 0.000000 0.809017
vn -0.587785 0.000000 0.809017
vn -0.309017 0.000000 0.951057
vn -0.309017 0.000000 0.951057
vn 0.000000 0.000000 1.000000
vn 0.000000 0.000000 1.000000
vn 0.309017 0.000000 0.951057
vn 0.309017 0.000000 0.951057
vn 0.587785 0.000000 0.809017
vn 0.587785 0.000000 0.809017
vn 0.809017 0.000000 0.587785
vn 0.809017 0.000000 0.587785
vn 0.951057 0.000000 0.309017
vn 0.951057 0.000000 0.309017
vn 1.000000 0.000000 0.000000
vn 1.000000 0.000000 0.000000
vn 0.951057 0.000000 -0.309017
vn 0.951057 0.000000 -0.309017
vn 0.809017 0.000000 -0.587785
vn 0.809017 0.000000 -0.587785
vn 0.587785 0.000000 -0.809017
vn 0.587785 0.000000 -0.809017
vn 0.309017 0.000000 -0.951057
vn 0.309017 0.000000 -0.951057
vn 0.000000 0.000000 -1.000000
vn 0.000000 0.000000 -1.000000
vn -0.309017 0.000000 -0.951056
vn -0.309017 0.000000 -0.951056
vn -0.587785 0.000000 -0.809017
vn -0.587785 0.000000 -0.809017
vn -0.809017 0.000000 -0.587785
vn -0.809017 0.000000 -0.587785
vn -0.951057 0.000000 -0.309017
vn -0.951057 0.000000 -0.309017
vn -1.000000 0.000000 -0.000001
vn -1.000000 0.000000 -0.000001
s 1
g pCylinder3
usemtl initialShadingGroup
f 1/1/1 2/2/2 22/23/3 21/22/4
f 2/2/2 3/3/5 23/24/6 22/23/3
f 3/3/5 4/4/7 24/25/8 23/24/6
f 4/4/7 5/5/9 25/26/10 24/25/8
f 5/5/9 6/6/11 26/27/12 25/26/10
f 6/6/11 7/7/13 27/28/14 26/27/12
f 7/7/13 8/8/15 28/29/16 27/28/14
f 8/8/15 9/9/17 29/30/18 28/29/16
f 9/9/17 10/10/19 30/31/20 29/30/18
f 10/10/19 11/11/21 31/32/22 30/31/20
f 11/11/21 12/12/23 32/33/24 31/32/22
f 12/12/23 13/13/25 33/34/26 32/33/24
f 13/13/25 14/14/27 34/35/28 33/34/26
f 14/14/27 15/15/29 35/36/30 34/35/28
f 15/15/29 16/16/31 36/37/32 35/36/30
f 16/16/31 17/17/33 37/38/34 36/37/32
f 17/17/33 18/18/35 38/39/36 37/38/34
f 18/18/35 19/19/37 39/40/38 38/39/36
f 19/19/37 20/20/39 40/41/40 39/40/38
f 20/20/39 1/21/1 21/42/4 40/41/40
s 2
f 41/43/41 61/44/42 62/45/43 42/46/44
f 42/46/44 62/45/43 63/47/45 43/48/46
f 43/48/46 63/47/45 64/49/47 44/50/48
f 44/50/48 64/49/47 65/51/49 45/52/50
f 45/52/50 65/51/49 66/53/51 46/54/52
f 46/54/52 66/53/51 67/55/53 47/56/54
f 47/56/54 67/55/53 68/57/55 48/58/56
f 48/58/56 68/57/55 69/59/57 49/60/58
f 49/60/58 69/59/57 70/61/59 50/62/60
f 50/62/60 70/61/59 71/63/61 51/64/62
f 51/64/62 71/63/61 72/65/63 52/66/64
f 52/66/64 72/65/63 73/67/65 53/68/66
f 53/68/66 73/67/65 74/69/67 54/70/68
f 54/70/68 74/69/67 75/71/69 55/72/70
f 55/72/70 75/71/69 76/73/71 56/74/72
f 56/74/72 76/73/71 77/75/73 57/76/74
f 57/76/74 77/75/73 78/77/75 58/78/76
f 58/78/76 78/77/75 79/79/77 59/80/78
f 59/80/78 79/79/77 80/81/79 60/82/80
f 60/82/80 80/81/79 61/83/42 41/84/41
