# This file uses centimeters as units for non-parametric coordinates.

mtllib MossRoom.mtl
g default
v 0.288693 -2.593795 8.122810
v 1.794321 -2.569442 7.398258
v 0.665375 -2.989625 4.242122
v 2.153411 -2.935374 4.048979
v -0.325331 -2.993947 0.914039
v 1.313706 -2.734102 0.401334
v -1.966771 -2.992996 -4.919271
v -0.136337 -2.904430 -4.405982
v -1.466120 -2.669083 -8.121356
v -0.050337 -2.599820 -7.416548
v -1.643351 -2.995346 -1.947558
v 0.441215 -2.581955 -1.969193
v 5.934582 2.688339 7.391229
v 6.169026 2.661415 1.346691
v 6.146564 2.994437 -1.899150
v 5.729172 2.637866 -7.538763
v 2.760096 2.403298 7.977359
v 1.334944 1.526595 -7.947327
v 2.132432 -0.451631 8.006072
v 4.438410 2.917353 7.983517
v 3.437437 2.466437 -7.978681
v 3.145152 2.622070 7.978274
v 6.177052 2.919826 -1.071587
v 5.963454 2.723314 -7.084907
v 2.231068 2.079664 -7.952357
v 5.300664 2.847790 7.936744
v 4.712035 2.578034 -7.937043
v 1.443807 0.422201 7.971722
v 6.247331 3.362185 -8.077222
v 4.979092 3.314986 -8.365524
v 3.624356 3.196448 -8.275136
v 2.406310 2.848279 -8.225916
v 1.380166 2.267684 -8.201550
v -0.891795 -0.990152 -8.119061
v 5.136904 3.747017 8.151627
v 6.031789 3.765189 8.197206
v 6.444839 3.544848 7.665734
v 2.774294 3.366740 8.172731
v 3.339300 3.616291 8.157309
v 0.611393 -0.595368 8.164994
v 1.332608 1.632159 8.183184
v 0.914862 0.546850 8.178579
v 6.368641 3.408379 1.536108
v 6.382351 3.572603 -0.997278
v 6.380960 3.614469 -1.885573
v 6.510791 3.412818 -7.603140
v 1.049405 -2.929501 5.095416
v 2.173768 -2.941798 5.039236
v 0.602439 -2.929117 2.381269
v 1.821880 -2.917322 2.105050
v -1.605727 -2.929034 -4.017411
v -0.046090 -2.831081 -3.698874
v -1.370356 -2.813189 -6.920276
v -0.118845 -2.790321 -6.811517
v 1.414513 -2.577749 7.381674
v 1.775485 -2.928340 4.073132
v 0.874956 -2.786274 0.478830
v -0.101579 -2.699847 -1.965922
v -0.657498 -2.917322 -4.480542
v 0.554709 -3.080867 4.264012
v 0.232419 -3.080867 8.179624
v -0.437116 -3.080867 0.931488
v 0.171242 -3.080867 2.517664
v -1.762059 -3.080867 -1.946821
v -1.627800 -3.080867 -8.037488
v -2.077873 -3.080867 -4.942925
v 2.470694 1.087111 7.976273
v 0.283641 -2.994773 2.502602
v 4.018744 -2.812333 6.784051
v 3.126822 -2.888007 1.165218
v 3.611545 -2.935901 3.036149
v 1.496296 -2.466317 -2.489578
v 0.808374 -2.774402 -6.799979
v 0.813544 -2.916642 -5.180303
v 1.960952 -2.434786 -1.460663
v 4.013710 -2.573556 7.409408
v 6.042569 2.269000 6.756124
v 6.150140 2.266388 4.207416
v 6.147175 2.274327 2.631974
v 5.932586 2.278006 -3.404744
v 5.899529 2.276082 -4.893229
v 2.613483 1.946317 -7.959904
v 1.624071 1.290198 -7.950493
v 5.557547 2.222057 7.744315
v 4.758522 1.692137 7.985039
v 3.896498 2.210198 -7.969427
v 5.180670 2.246266 -7.786137
v 0.443541 -2.841053 7.079825
v 0.726674 -2.984257 5.168471
v 3.950541 -2.969620 5.034009
v 0.509495 -2.993057 3.353497
v 0.000978 -2.995346 1.689447
v 3.419585 -2.919082 2.069320
v -1.830043 -2.995346 -2.671710
v -1.982291 -2.994406 -4.160409
v 1.077295 -2.697165 -3.657763
v -1.902773 -2.990647 -5.684021
v -1.654053 -2.875850 -7.205799
v -1.370332 -2.989100 -1.240659
v 1.543490 -2.788291 6.765874
v 1.806757 -2.933246 5.048688
v 1.636697 -2.919082 3.103488
v 1.420365 -2.917322 2.164636
v 1.156461 -2.886356 1.281456
v 0.114976 -2.672909 -1.411881
v -0.295450 -2.758182 -2.529962
v -0.581758 -2.892214 -3.767426
v -0.677166 -2.917322 -5.283044
v -0.586570 -2.799873 -6.831440
v 0.617769 -3.080925 5.203502
v 0.345927 -3.080867 7.172569
v -0.110903 -3.080867 1.705805
v 0.397165 -3.080867 3.369567
v -1.487614 -3.079468 -1.233794
v -1.771378 -3.080867 -7.260745
v -2.008838 -3.080867 -5.712223
v -2.097214 -3.080867 -4.178591
v -1.948807 -3.080867 -2.677394
v 2.291169 -1.662553 7.970782
v 3.363154 -1.509453 7.983811
v 0.799306 -2.560021 -7.418266
v 3.699743 1.542593 7.991771
v 2.842849 1.267493 7.983696
v 6.143341 2.272515 -1.145897
v 5.892052 2.272916 -7.011533
v 2.066588 1.689998 -7.954450
v 1.405395 0.756443 -7.964478
v 5.205499 2.068840 7.926809
v 4.572534 2.237091 -7.926460
v -0.495447 -2.623698 -7.414951
v 0.568274 0.241585 -7.945373
v 0.784265 0.776008 -7.938375
v 1.465360 -1.771147 7.936121
v 2.147795 0.890476 7.965635
v 0.728957 -2.583003 7.356566
v 0.828555 -2.788191 6.754868
v 0.989618 -2.929137 4.166921
v 1.925265 -2.790253 6.776623
v 3.818189 -2.959157 4.034710
v 0.832291 -2.928727 3.258754
v 0.318906 -2.929247 1.544821
v 0.000535 -2.908648 0.759764
v 1.574040 -2.866691 1.208807
v 2.025559 -2.921972 3.061345
v 2.752742 -2.736118 0.354837
v -1.224149 -2.906361 -1.954068
v -1.413760 -2.924333 -2.621463
v -1.615698 -2.928713 -4.754521
v 0.253861 -2.642071 -2.504722
v 1.712972 -2.434786 -1.971155
v 0.954925 -2.838082 -4.361296
v -1.573405 -2.928179 -5.523425
v -0.171865 -2.917322 -5.218769
v -0.967041 -2.887127 -1.301354
v 0.638588 -2.566999 -1.442370
v 2.532533 -0.323988 8.018075
v 3.468469 -0.066825 8.029764
v 4.085799 -1.705931 7.876800
v 1.165358 -0.545117 -8.005901
v 0.458228 -0.766616 -7.992321
v 4.416078 1.122363 7.993854
v 4.158198 -0.218890 8.031892
v 3.993876 2.877106 7.980050
v 5.867704 2.238200 7.374954
v 6.093695 2.616226 6.771268
v 6.177260 2.501509 4.254320
v 6.169849 2.541173 2.765812
v 6.146846 2.295419 1.157274
v 6.092731 2.275156 -1.912726
v 6.014929 3.076684 -3.492515
v 5.990721 3.027303 -5.030013
v 5.646460 2.271504 -7.497924
v 3.241978 2.136901 -7.967664
v 2.866406 2.316380 -7.982263
v 1.759867 1.819120 -7.949651
v 1.160643 1.056525 -7.945449
v 0.933619 0.484405 -7.956303
v 4.883636 2.902071 7.990438
v 5.660609 2.771036 7.758365
v 5.287653 2.599433 -7.806582
v 4.072869 2.543660 -7.978756
v 0.098113 -0.924353 -7.973750
v -0.543284 -1.106797 -7.934371
v -1.228764 -2.642092 -7.430053
v 0.946743 1.215763 -7.943172
v 0.153471 0.433762 -7.942862
v 0.017368 0.163187 -7.935769
v -0.162884 -0.221170 -7.931802
v 0.801406 -1.797943 7.904303
v 1.110904 -0.713123 7.970574
v 1.796102 -0.555776 7.988336
v 1.695621 1.259378 7.988981
v 2.413999 2.121037 7.974690
v 5.603004 3.335771 -8.300833
v 4.295197 3.275861 -8.334322
v 3.040398 3.054523 -8.251744
v 1.819489 2.578871 -8.199953
v 0.965854 1.914355 -8.196596
v -0.065053 0.712157 -8.160439
v -0.317357 0.300901 -8.147283
v -0.531494 -0.115239 -8.135511
v 5.611484 3.704906 8.190427
v 6.310440 3.656919 8.048835
v 4.568251 3.726774 8.138607
v 0.376332 -1.727764 8.138338
v 2.305794 3.026672 8.181337
v 6.517183 3.448493 7.011885
v 6.421348 3.288542 4.355769
v 6.373912 3.314505 2.905105
v 6.288198 3.653087 -3.588947
v 6.294605 3.608321 -5.262600
v 1.830426 -1.728395 7.956913
v -5.352776 -2.360931 7.332489
v -4.131779 -2.558725 7.569705
v -5.507292 -2.558830 5.325166
v -4.129412 -2.905744 5.321716
v -6.218416 -1.538008 -1.776007
v -6.185309 -1.756611 -1.725085
v -6.485816 -1.451718 -5.812561
v -6.473769 -1.731981 -5.802757
v -6.422366 -2.102921 -5.710810
v -5.620944 -2.040866 -7.327312
v -5.333202 -2.341509 -7.551564
v -4.763434 -2.556490 -7.678806
v -1.323823 -3.022662 8.117558
v -1.261490 -3.274427 5.466526
v -6.139771 -3.231019 -1.637487
v -6.346606 -3.104957 -5.923441
v -4.295079 -3.129813 -8.294513
v -3.547217 0.240017 -7.995941
v -4.374985 0.895946 -7.964353
v -6.399970 1.791388 -5.720098
v -6.360373 3.700153 -8.063435
v -4.156666 3.696990 -8.184256
v -3.230798 0.141216 -8.099713
v -6.411339 3.613982 7.992917
v -6.656816 3.528621 5.400364
v -6.495326 2.291099 -1.739724
v -6.450201 3.774633 -6.024966
v -4.433946 3.580177 8.505560
v -6.729955 -1.618056 -2.173019
v -6.374713 3.481143 -5.720212
v -6.248498 2.150293 -1.777874
v -6.154192 1.738544 0.118596
v -6.132139 2.143340 2.667942
v -5.912085 3.207767 5.334620
v -5.678456 3.378031 6.650493
v -5.268455 3.343310 7.634192
v -3.967871 3.180277 8.064809
v -2.917175 2.297440 8.030815
v -4.104501 3.498756 -8.077600
v -5.353693 3.706804 -8.316621
v -4.047039 -1.539867 -8.233768
v -3.718266 -0.698322 -8.112130
v -3.383038 0.156964 -8.040432
v -2.607623 2.013643 -8.101797
v -6.509428 3.744585 -5.845269
v -2.771508 1.166407 8.114103
v -2.650393 2.578766 8.181524
v -6.733192 -1.965428 -2.115948
v -6.669946 1.566472 -2.255486
v -6.709012 2.258437 -2.219075
v -2.023394 -2.963351 5.344927
v -5.111598 -2.871052 2.709472
v -5.665473 -2.655468 0.187694
v -6.067142 -2.120326 -1.659058
v -6.480357 -1.640559 -5.808579
v -5.468895 -2.292378 -7.524685
v -5.821395 -0.633598 3.992356
v -5.871006 -0.746644 2.006363
v -5.502095 -0.624384 -7.540767
v -6.475938 -0.417357 -5.793902
v -5.233320 -0.736485 -7.898544
v -5.055716 -0.817335 -7.938661
v -4.772370 -0.924873 -7.942057
v -4.369659 -1.278445 -8.000551
v -3.052878 -0.883818 8.006618
v -2.176797 -2.652188 7.633461
v -6.387732 -2.536691 -5.790011
v -4.537081 -2.808742 -7.942087
v -3.923743 0.628331 -7.974061
v -4.012249 -0.533384 -7.988235
v -4.735882 0.010425 -7.950402
v -4.752743 1.244881 -7.904225
v -5.370644 0.493693 -7.530465
v -6.445093 0.624791 -5.760373
v -6.183883 1.293929 -1.788167
v -6.053457 0.357315 0.111564
v -6.018015 0.995178 2.006487
v -5.995699 1.284219 2.666507
v -5.920314 1.617451 3.992362
v -5.802683 1.739653 5.322445
v -5.352176 1.637580 7.568082
v -4.492831 1.010142 7.984917
v -3.242635 0.937008 7.998399
v -3.287308 2.650505 -8.001066
v -2.957221 1.791121 -8.012239
v -4.093615 3.005604 -7.999648
v -5.286003 3.262963 -7.585681
v -5.004768 0.250262 -7.901044
v -4.682968 3.130826 -7.962121
v -4.958802 3.543418 -8.111947
v -3.098498 3.127635 -8.044115
v -4.197505 -1.424111 -8.101619
v -3.854771 -0.640117 -8.042072
v -2.777613 1.918938 -8.045471
v -5.389061 -2.595467 -6.837772
v -5.239486 -3.012112 -7.080459
v -3.872209 -0.074782 -7.978055
v -4.312944 -0.809511 -7.969462
v -4.156163 0.199384 -7.965634
v -4.608096 -0.540312 -7.947423
v -4.695387 0.571206 -7.951484
v -5.013669 -0.323987 -7.941386
v -5.851922 0.027266 -6.656509
v -5.773964 1.189038 -6.629834
v -3.425496 0.782839 -7.987533
v -4.445947 1.595062 -7.956704
v -5.698470 2.273908 -6.602864
v -5.477262 3.463654 -7.672378
v -4.433483 3.347141 -8.049933
v -4.620435 3.633631 -8.187366
v -6.036542 3.656136 -7.920609
v -2.874086 2.183586 -8.023342
v -2.689805 2.367051 -8.072404
v -3.698212 -0.215598 -8.011791
v -4.131755 -0.970929 -8.021544
v -3.985614 -1.070382 -8.105309
v -3.548970 -0.272739 -8.067548
v -3.248838 0.624606 -8.017808
v -3.086086 0.597344 -8.070350
v -5.925197 3.567516 -6.729317
v -6.352289 3.712632 -6.949531
v -4.846619 -2.837318 6.610213
v -3.015141 -2.871516 6.557400
v -4.953622 -2.871052 4.013700
v -3.237377 -2.905744 4.038839
v -5.230359 -2.871053 2.061956
v -3.971318 -2.905744 2.216659
v -5.944300 -2.181182 -0.933858
v -5.645154 -2.261900 -0.815648
v -5.801359 -2.152882 -6.680345
v -5.838428 -2.106067 -6.678109
v -5.901011 -1.865719 -6.660484
v -5.515251 -2.343466 -6.702156
v -5.649530 -2.241318 -6.674981
v -4.854350 -2.534195 7.541718
v -5.316222 -2.790069 -6.950192
v -4.105409 -0.446656 -7.972471
v -4.393487 -0.177862 -7.956017
v -4.871655 0.741013 -7.903098
v -5.132013 -0.238521 -7.899161
v -4.858403 0.119330 -7.946248
v -5.814587 0.602651 -6.643707
v -2.981942 1.988074 -8.007044
v -3.723849 1.145887 -7.979093
v -4.668106 1.773013 -7.903329
v -4.378251 3.066688 -8.001713
v -5.780866 3.388967 -6.653994
v -4.798563 3.383848 -8.026751
v -4.517398 3.524688 -8.113526
v -5.148807 3.640687 -8.210857
v -5.734807 3.586008 -7.787138
v -3.185507 2.942796 -8.019774
v -2.776803 2.293911 -8.045326
v -3.021350 3.240837 -8.072209
v -4.279516 -1.356886 -8.045259
v -4.120917 -1.483858 -8.165751
v -3.929578 -0.595849 -8.012113
v -4.055764 -1.025820 -8.060787
v -3.785208 -0.672252 -8.076088
v -3.621528 -0.251142 -8.037835
v -2.872842 1.855557 -8.024587
v -3.166303 0.600061 -8.042225
v -2.690571 1.969496 -8.072177
v -6.121439 3.666572 -6.830729
v -6.477072 -1.693825 -5.805613
v -6.459107 -1.840645 -5.773190
v -6.435221 -1.978501 -5.708493
v -6.406267 -2.294588 -5.740242
v -6.367574 -2.812418 -5.853337
v -6.423850 1.211570 -5.740244
v -6.462766 0.069124 -5.778816
v -6.374386 2.326169 -5.701606
v -6.345476 3.774196 -5.931703
v -6.429615 3.656625 -5.772497
v -4.085072 -2.871042 6.605197
v -4.875450 -2.871052 5.329608
v -5.485863 -2.534254 6.588577
v -3.034853 -2.905744 5.272171
v -1.977128 -2.943812 6.644567
v -4.271748 -2.905744 4.027144
v -4.551847 -2.905744 2.751276
v -5.578116 -2.558830 2.680310
v -5.526213 -2.558830 3.999160
v -3.662094 -2.905744 2.834366
v -2.296989 -2.957430 4.087476
v -2.844200 -2.956772 2.848993
v -4.757694 -2.905744 2.115183
v -5.468252 -2.692941 0.252124
v -5.818779 -2.369789 0.138661
v -5.621655 -2.558830 2.024930
v -5.041764 -2.704542 0.349079
v -3.238258 -2.956772 2.210014
v -4.622646 -2.801875 0.302662
v -5.861004 -2.224776 -0.885782
v -6.212578 -1.706896 -1.753079
v -5.998764 -1.953899 -0.971655
v -6.111225 -1.819257 -1.680092
v -5.442605 -2.461100 -0.836071
v -5.766242 -2.175494 -6.678836
v -5.396832 -2.334435 -7.552074
v -5.114845 -2.375939 -7.555087
v -5.456053 -2.442026 -6.752120
v -4.865851 -2.477675 -7.608451
v -5.802741 -0.627408 5.322445
v -5.760430 -0.630042 6.611557
v -5.532917 -0.658447 7.568679
v -5.849614 -0.687161 2.666446
v -5.958720 -0.853956 0.111260
v -6.169710 -0.495739 -1.790270
v -6.035357 -0.698640 -0.993026
v -5.882065 -0.506889 -6.667239
v -5.136223 -0.782354 -7.938492
v -4.470646 -1.185050 -7.971388
v -5.000244 -0.729069 7.944736
v -4.420307 -0.799863 7.988140
v -3.765183 -0.843457 7.985217
v -3.162594 -2.563466 7.550958
v -1.134006 -3.323350 6.983957
v -1.577059 -3.236536 4.108990
v -2.145175 -3.232326 2.848647
v -2.554170 -3.232326 2.203744
v -4.116795 -3.232084 0.287786
v -5.235876 -3.231552 -0.841000
v -5.160801 -3.247874 -7.219647
v -4.417058 -2.964976 -8.112729
v -4.653192 -2.669713 -7.793733
v -3.637515 0.327815 -7.983862
v -4.216508 -0.900547 -7.990224
v -3.781085 -0.159136 -7.991254
v -4.546262 0.429198 -7.958093
v -4.915236 -0.393908 -7.943264
v -4.549582 1.055248 -7.955500
v -5.224236 1.596336 -7.518726
v -5.294335 1.054028 -7.524766
v -5.443214 -0.070501 -7.535804
v -5.733956 1.756200 -6.615887
v -6.085057 0.720591 -0.992549
v -5.633063 1.762602 6.611497
v -4.923124 1.325957 7.942826
v -3.935590 0.852420 7.983580
v -3.334850 0.681894 -7.998960
v -4.250659 1.444202 -7.967196
v -5.170299 2.106446 -7.512362
v -6.166268 1.918786 -0.985300
v -6.148487 1.940672 2.009357
v -6.055912 2.707566 3.993723
v -4.628559 3.269798 8.020697
v -3.195621 2.880286 8.055719
v -4.091318 3.307476 -8.033244
v -4.128004 3.616305 -8.129134
v -4.733035 3.708272 -8.266328
v -2.949134 3.318223 -8.102182
v -2.607949 2.421600 -8.102028
v -3.918385 -1.109782 -8.152471
v -3.478474 -0.287364 -8.099095
v -3.306172 0.144884 -8.069148
v -3.462889 0.185871 -8.015413
v -3.007027 0.605542 -8.100330
v -6.722541 3.661576 6.861248
v -6.409192 2.520110 2.669834
v -6.522557 3.041236 4.000487
v -6.361555 2.266614 0.130495
v -6.376886 2.372870 2.013141
v -6.397437 2.276676 -0.966302
v -6.600442 3.732194 -7.077029
v -5.493856 3.599929 8.446733
v -3.242948 3.296697 8.449265
v -2.527522 -0.837750 8.207558
v -6.754072 -1.543808 -2.207323
v -6.764795 -1.491312 -2.226389
v -6.757878 -1.348967 -2.245214
v -6.681784 -0.400807 -2.267690
v -6.877202 -3.230777 -1.996940
v -6.912381 2.297903 -2.087662
vt 0.011277 0.044417
vt 0.005734 0.118402
vt 0.001992 0.117046
vt 0.001994 0.040827
vt 0.005526 0.154259
vt 0.001994 0.153412
vt 0.020848 0.004045
vt 0.001994 0.001846
vt 0.005393 0.188656
vt 0.001994 0.188034
vt 0.005327 0.221593
vt 0.001994 0.221010
vt 0.005305 0.253068
vt 0.001994 0.252435
vt 0.005359 0.283083
vt 0.001994 0.282407
vt 0.005546 0.366487
vt 0.002048 0.366221
vt 0.005305 0.393849
vt 0.001994 0.393821
vt 0.005305 0.421880
vt 0.001994 0.422100
vt 0.005341 0.479505
vt 0.001994 0.480208
vt 0.005396 0.508879
vt 0.001994 0.509794
vt 0.005487 0.538481
vt 0.001994 0.539572
vt 0.009930 0.597385
vt 0.001994 0.599512
vt 0.017934 0.632825
vt 0.001994 0.629579
vt 0.269062 0.051885
vt 0.267869 0.027931
vt 0.285293 0.027301
vt 0.282502 0.051298
vt 0.267244 0.013634
vt 0.288494 0.013090
vt 0.318447 0.016675
vt 0.314717 0.041985
vt 0.268960 0.150540
vt 0.278062 0.148724
vt 0.322785 0.001846
vt 0.308526 0.144798
vt 0.269268 0.211522
vt 0.279597 0.206342
vt 0.309531 0.200950
vt 0.270084 0.268605
vt 0.284251 0.261273
vt 0.313165 0.253941
vt 0.269198 0.357756
vt 0.294254 0.354880
vt 0.319521 0.352003
vt 0.269300 0.387439
vt 0.297142 0.386913
vt 0.321142 0.386388
vt 0.269410 0.445192
vt 0.300325 0.448589
vt 0.322637 0.452322
vt 0.269336 0.502808
vt 0.298414 0.508103
vt 0.320904 0.517106
vt 0.269213 0.584803
vt 0.286647 0.587644
vt 0.313336 0.607703
vt 0.269158 0.603630
vt 0.283340 0.605211
vt 0.311377 0.626054
vt 0.281852 0.615578
vt 0.268182 0.614787
vt 0.362989 0.094991
vt 0.351931 0.096889
vt 0.370289 0.053476
vt 0.379087 0.052013
vt 0.355671 0.168005
vt 0.343586 0.169438
vt 0.388648 0.021766
vt 0.395185 0.020878
vt 0.427676 0.051186
vt 0.421664 0.093931
vt 0.355671 0.193374
vt 0.343586 0.194502
vt 0.425817 0.167286
vt 0.396993 0.003445
vt 0.402503 0.002716
vt 0.435529 0.020326
vt 0.482611 0.051204
vt 0.468549 0.093943
vt 0.355671 0.244424
vt 0.343586 0.244986
vt 0.428120 0.192837
vt 0.493240 0.167291
vt 0.386724 0.022849
vt 0.394961 0.004183
vt 0.439204 0.001846
vt 0.504804 0.020408
vt 0.528991 0.051485
vt 0.522014 0.094215
vt 0.430193 0.244160
vt 0.504428 0.192839
vt 0.529838 0.167402
vt 0.384299 0.024591
vt 0.392087 0.005511
vt 0.515354 0.002319
vt 0.537952 0.020806
vt 0.542844 0.052220
vt 0.542455 0.094675
vt 0.517327 0.244160
vt 0.355671 0.295751
vt 0.430433 0.295645
vt 0.537683 0.192895
vt 0.546568 0.167549
vt 0.372645 0.025405
vt 0.378641 0.007720
vt 0.542138 0.003728
vt 0.543402 0.022283
vt 0.559523 0.244213
vt 0.522057 0.295645
vt 0.356623 0.344655
vt 0.430331 0.345544
vt 0.552267 0.192968
vt 0.367165 0.058052
vt 0.359454 0.057261
vt 0.572439 0.244475
vt 0.578885 0.296117
vt 0.522945 0.345542
vt 0.363331 0.373450
vt 0.429231 0.382593
vt 0.329631 0.057071
vt 0.329652 0.026240
vt 0.585475 0.347051
vt 0.518106 0.382570
vt 0.426498 0.397149
vt 0.356625 0.381549
vt 0.346263 0.101340
vt 0.329611 0.100764
vt 0.584131 0.385128
vt 0.506044 0.397075
vt 0.581286 0.400089
vt 0.662189 0.450127
vt 0.662074 0.448065
vt 0.695933 0.430296
vt 0.695846 0.432108
vt 0.661963 0.446588
vt 0.695875 0.429420
vt 0.729676 0.423268
vt 0.728616 0.424896
vt 0.662343 0.457436
vt 0.695164 0.441411
vt 0.660819 0.442382
vt 0.695725 0.426872
vt 0.720976 0.434632
vt 0.695426 0.494009
vt 0.661621 0.497474
vt 0.658315 0.437046
vt 0.696777 0.422918
vt 0.743087 0.485122
vt 0.729238 0.489461
vt 0.695010 0.514685
vt 0.661037 0.516305
vt 0.658404 0.432230
vt 0.698711 0.419103
vt 0.743111 0.504397
vt 0.729046 0.510900
vt 0.694515 0.536957
vt 0.660323 0.537814
vt 0.659543 0.424810
vt 0.702027 0.413164
vt 0.734581 0.414673
vt 0.731858 0.417723
vt 0.743184 0.523317
vt 0.728839 0.532739
vt 0.693978 0.559655
vt 0.659544 0.560527
vt 0.661470 0.415439
vt 0.706378 0.405631
vt 0.739030 0.410290
vt 0.743263 0.542313
vt 0.728619 0.554429
vt 0.693438 0.581608
vt 0.658764 0.582970
vt 0.663921 0.404766
vt 0.711421 0.397037
vt 0.744772 0.404909
vt 0.747036 0.464143
vt 0.748766 0.461107
vt 0.743307 0.561816
vt 0.728385 0.575420
vt 0.692934 0.601648
vt 0.658048 0.603671
vt 0.666635 0.393443
vt 0.716808 0.387911
vt 0.751378 0.398861
vt 0.750948 0.458505
vt 0.728139 0.595166
vt 0.743272 0.582259
vt 0.694913 0.644810
vt 0.658768 0.648378
vt 0.758414 0.392481
vt 0.753430 0.456192
vt 0.730977 0.639932
vt 0.745548 0.634818
vt 0.697829 0.651721
vt 0.660792 0.655170
vt 0.756063 0.454024
vt 0.734333 0.647701
vt 0.115429 0.001846
vt 0.132470 0.031506
vt 0.136326 0.054797
vt 0.121422 0.042218
vt 0.159007 0.030534
vt 0.163999 0.054371
vt 0.144874 0.119031
vt 0.132382 0.116203
vt 0.160975 0.009073
vt 0.135275 0.010304
vt 0.173708 0.029892
vt 0.178777 0.053955
vt 0.174190 0.120839
vt 0.142560 0.154971
vt 0.130009 0.152060
vt 0.175106 0.008268
vt 0.259617 0.029461
vt 0.259811 0.053667
vt 0.188396 0.121205
vt 0.172979 0.158601
vt 0.136470 0.190124
vt 0.123975 0.186457
vt 0.257171 0.121408
vt 0.187608 0.159536
vt 0.167607 0.196134
vt 0.127573 0.224090
vt 0.115233 0.219393
vt 0.252048 0.160089
vt 0.182659 0.197766
vt 0.159233 0.232475
vt 0.116598 0.256467
vt 0.104292 0.250869
vt 0.244050 0.198741
vt 0.174775 0.234782
vt 0.149018 0.266662
vt 0.104275 0.286855
vt 0.091661 0.280884
vt 0.236619 0.236165
vt 0.165182 0.269474
vt 0.138122 0.297730
vt 0.066822 0.366637
vt 0.051211 0.364288
vt 0.225287 0.271161
vt 0.155105 0.300729
vt 0.108704 0.370915
vt 0.056869 0.391902
vt 0.040643 0.391650
vt 0.210807 0.302529
vt 0.128972 0.372095
vt 0.100322 0.392361
vt 0.049530 0.417736
vt 0.033417 0.419681
vt 0.180158 0.372804
vt 0.121332 0.392488
vt 0.092818 0.414194
vt 0.042099 0.471770
vt 0.027523 0.477305
vt 0.170560 0.392564
vt 0.114080 0.413217
vt 0.081735 0.462094
vt 0.041713 0.500302
vt 0.028124 0.506679
vt 0.162172 0.412631
vt 0.102470 0.459440
vt 0.078803 0.489697
vt 0.043350 0.530065
vt 0.030601 0.536281
vt 0.145954 0.457849
vt 0.098976 0.486811
vt 0.078042 0.520760
vt 0.051210 0.584134
vt 0.040229 0.595186
vt 0.141217 0.485081
vt 0.097601 0.518272
vt 0.081549 0.580696
vt 0.056691 0.603867
vt 0.047503 0.630626
vt 0.135745 0.516783
vt 0.099654 0.579925
vt 0.085076 0.603282
vt 0.135544 0.579478
vt 0.102305 0.603344
vt 0.135193 0.603411
vt 0.626001 0.032235
vt 0.645294 0.024136
vt 0.645593 0.060193
vt 0.620849 0.061030
vt 0.673263 0.023053
vt 0.675071 0.060387
vt 0.644477 0.109762
vt 0.620020 0.109934
vt 0.710778 0.023778
vt 0.716486 0.062237
vt 0.673355 0.110068
vt 0.641451 0.160699
vt 0.619287 0.161261
vt 0.748937 0.020585
vt 0.756665 0.058863
vt 0.715723 0.111986
vt 0.667845 0.160178
vt 0.781954 0.001846
vt 0.789301 0.045726
vt 0.754875 0.109169
vt 0.707884 0.159725
vt 0.657003 0.209565
vt 0.635336 0.211183
vt 0.784366 0.104463
vt 0.744284 0.157843
vt 0.691444 0.206348
vt 0.649035 0.234186
vt 0.630739 0.236247
vt 0.772151 0.157010
vt 0.723103 0.205782
vt 0.679474 0.230258
vt 0.621531 0.306302
vt 0.613897 0.308796
vt 0.750161 0.205795
vt 0.707850 0.230516
vt 0.638039 0.302549
vt 0.606328 0.350348
vt 0.603104 0.352209
vt 0.734329 0.230758
vt 0.654263 0.304346
vt 0.614683 0.347633
vt 0.593775 0.382836
vt 0.592719 0.383919
vt 0.673843 0.304921
vt 0.622524 0.348424
vt 0.596643 0.381094
vt 0.191443 0.916880
vt 0.191385 0.915521
vt 0.225166 0.898759
vt 0.225186 0.901222
vt 0.191235 0.911003
vt 0.225302 0.890307
vt 0.192287 0.905806
vt 0.227368 0.880669
vt 0.077158 0.877648
vt 0.089731 0.847611
vt 0.093559 0.854965
vt 0.082324 0.889328
vt 0.072716 0.867679
vt 0.086433 0.841408
vt 0.089792 0.830525
vt 0.092650 0.834513
vt 0.097653 0.862896
vt 0.087853 0.901863
vt 0.040137 0.892614
vt 0.044736 0.901550
vt 0.069360 0.860276
vt 0.083931 0.836934
vt 0.036212 0.885018
vt 0.095706 0.838872
vt 0.049671 0.911155
vt 0.001992 0.907632
vt 0.005338 0.901286
vt 0.090396 0.815452
vt 0.092530 0.816562
vt 0.051250 0.708622
vt 0.042207 0.759557
vt 0.013380 0.757012
vt 0.010836 0.700465
vt 0.036640 0.811461
vt 0.018577 0.811199
vt 0.067120 0.670545
vt 0.022882 0.656660
vt 0.091890 0.655585
vt 0.058396 0.639094
vt 0.117463 0.653877
vt 0.099423 0.636816
vt 0.147356 0.654229
vt 0.145524 0.638995
vt 0.165090 0.880669
vt 0.184615 0.917705
vt 0.177019 0.921631
vt 0.162001 0.883485
vt 0.154330 0.880669
vt 0.154066 0.920067
vt 0.144460 0.925002
vt 0.150276 0.884279
vt 0.234112 0.890223
vt 0.235589 0.880669
vt 0.252667 0.898494
vt 0.247580 0.906366
vt 0.490190 0.567306
vt 0.505677 0.562365
vt 0.496335 0.614178
vt 0.478500 0.616727
vt 0.517689 0.500762
vt 0.503284 0.507744
vt 0.541906 0.552410
vt 0.537829 0.608252
vt 0.563011 0.649441
vt 0.464369 0.618381
vt 0.477172 0.571337
vt 0.550858 0.490113
vt 0.490785 0.515355
vt 0.529391 0.448329
vt 0.514486 0.456797
vt 0.568604 0.558297
vt 0.565801 0.615857
vt 0.438669 0.619419
vt 0.450649 0.577427
vt 0.578586 0.506379
vt 0.562243 0.438457
vt 0.463535 0.533481
vt 0.501089 0.467723
vt 0.515035 0.419504
vt 0.536906 0.409844
vt 0.422215 0.616702
vt 0.431314 0.572869
vt 0.579450 0.436899
vt 0.584476 0.405568
vt 0.443061 0.528656
vt 0.473282 0.501076
vt 0.496901 0.432667
vt 0.435864 0.649807
vt 0.418823 0.650225
vt 0.596684 0.437490
vt 0.591841 0.484325
vt 0.606487 0.404784
vt 0.459231 0.486646
vt 0.612826 0.439592
vt 0.609143 0.469743
vt 0.624857 0.406414
vt 0.626759 0.442562
vt 0.622770 0.463812
vt 0.641127 0.404081
vt 0.651913 0.408272
vt 0.768771 0.598793
vt 0.846764 0.584624
vt 0.838190 0.611995
vt 0.767231 0.631681
vt 0.897145 0.575332
vt 0.886615 0.593594
vt 0.832085 0.625935
vt 0.766306 0.648910
vt 0.917806 0.566868
vt 0.908761 0.584806
vt 0.877216 0.607736
vt 0.825023 0.650762
vt 0.765594 0.677296
vt 0.938279 0.561611
vt 0.926956 0.578059
vt 0.897902 0.599375
vt 0.859304 0.636037
vt 0.829538 0.664252
vt 0.764550 0.686483
vt 0.933281 0.549739
vt 0.948364 0.543372
vt 0.967687 0.559304
vt 0.955642 0.576309
vt 0.914924 0.593086
vt 0.874181 0.629060
vt 0.863404 0.650306
vt 0.943203 0.528570
vt 0.957527 0.518780
vt 0.978116 0.536589
vt 0.941966 0.592346
vt 0.884655 0.623792
vt 0.879512 0.642017
vt 0.950580 0.504242
vt 0.963335 0.496676
vt 0.986099 0.512045
vt 0.895431 0.632251
vt 0.953417 0.478907
vt 0.966325 0.472080
vt 0.991593 0.489441
vt 0.954458 0.452739
vt 0.967655 0.447339
vt 0.994667 0.463474
vt 0.954813 0.429199
vt 0.968483 0.425058
vt 0.996181 0.437002
vt 0.996986 0.412851
vt 0.969971 0.407968
vt 0.998008 0.387911
vt 0.169484 0.701937
vt 0.166368 0.703291
vt 0.156280 0.643213
vt 0.158743 0.642939
vt 0.174922 0.718327
vt 0.171112 0.721033
vt 0.162610 0.705066
vt 0.153491 0.644841
vt 0.180452 0.697774
vt 0.167196 0.641606
vt 0.181864 0.733978
vt 0.177122 0.738193
vt 0.166531 0.724341
vt 0.186811 0.712660
vt 0.192131 0.687703
vt 0.176834 0.637668
vt 0.189204 0.750187
vt 0.183432 0.755684
vt 0.171456 0.743261
vt 0.195118 0.726689
vt 0.198236 0.702239
vt 0.196040 0.684088
vt 0.180798 0.634617
vt 0.195834 0.768254
vt 0.189076 0.774420
vt 0.176609 0.762257
vt 0.204304 0.741292
vt 0.206269 0.716285
vt 0.201968 0.698716
vt 0.193087 0.795316
vt 0.200646 0.789476
vt 0.181212 0.781761
vt 0.213301 0.757895
vt 0.215296 0.730679
vt 0.209875 0.712928
vt 0.199529 0.681052
vt 0.205249 0.695991
vt 0.184488 0.802204
vt 0.221038 0.777929
vt 0.195708 0.852279
vt 0.206725 0.849915
vt 0.224380 0.746263
vt 0.218823 0.727414
vt 0.213075 0.710510
vt 0.202704 0.678449
vt 0.208190 0.693867
vt 0.183913 0.854762
vt 0.232587 0.763876
vt 0.237936 0.836170
vt 0.206814 0.861600
vt 0.193570 0.863135
vt 0.227875 0.742864
vt 0.222031 0.725229
vt 0.215971 0.708796
vt 0.205669 0.676137
vt 0.210906 0.692142
vt 0.179438 0.864556
vt 0.236096 0.759969
vt 0.249756 0.810528
vt 0.241876 0.847484
vt 0.206304 0.869004
vt 0.190322 0.870008
vt 0.231139 0.740769
vt 0.224999 0.723853
vt 0.218663 0.707552
vt 0.208528 0.673969
vt 0.213508 0.690616
vt 0.173236 0.870733
vt 0.239425 0.757751
vt 0.250713 0.802905
vt 0.253931 0.818096
vt 0.245244 0.854639
vt 0.205394 0.873554
vt 0.186333 0.874225
vt 0.234230 0.739650
vt 0.227807 0.723017
vt 0.221254 0.706543
vt 0.242620 0.756801
vt 0.253979 0.805399
vt 0.257697 0.822367
vt 0.248231 0.859020
vt 0.237206 0.739182
vt 0.230536 0.722451
vt 0.245725 0.756696
vt 0.257665 0.807852
vt 0.261064 0.825198
vt 0.251026 0.862016
vt 0.204285 0.876677
vt 0.240123 0.739040
vt 0.248785 0.757013
vt 0.261034 0.809809
vt 0.264233 0.827309
vt 0.264245 0.811518
vt 0.276028 0.855748
vt 0.270380 0.785875
vt 0.292829 0.788615
vt 0.303997 0.856697
vt 0.273366 0.706329
vt 0.290021 0.718554
vt 0.318187 0.790303
vt 0.341512 0.856881
vt 0.284768 0.631087
vt 0.310342 0.634552
vt 0.311591 0.724659
vt 0.345759 0.791865
vt 0.379671 0.860315
vt 0.340234 0.646164
vt 0.338414 0.721384
vt 0.366095 0.790082
vt 0.412687 0.874655
vt 0.351012 0.668725
vt 0.356650 0.712505
vt 0.338402 0.630045
vt 0.361339 0.657835
vt 0.136837 0.821448
vt 0.134026 0.864441
vt 0.105481 0.864431
vt 0.111056 0.815452
vn -0.834264 0.313409 -0.453629
vn -0.296778 0.744565 -0.597951
vn -0.098303 0.983690 -0.150634
vn -0.712910 0.670760 -0.204547
vn -0.052708 0.997057 -0.055678
vn -0.411775 0.907556 -0.082357
vn -0.050870 0.998667 0.008776
vn -0.315591 0.948230 0.035526
vn 0.014094 0.999838 0.011180
vn 0.014077 0.998325 -0.056125
vn 0.013575 0.998226 -0.057968
vn 0.013630 0.999843 0.011297
vn 0.011137 0.985065 -0.171823
vn 0.011254 0.985975 -0.166515
vn 0.005958 0.789816 -0.613315
vn -0.000762 0.839873 -0.542783
vn -0.056860 0.998280 0.014278
vn -0.308417 0.948989 0.065572
vn -0.063372 0.997654 0.025883
vn -0.299632 0.949842 0.089561
vn -0.083601 0.994209 0.067520
vn -0.295872 0.948054 0.116849
vn -0.151969 0.983219 0.100928
vn -0.306766 0.940110 0.148622
vn -0.049904 0.987765 0.147749
vn 0.001151 0.993993 0.109434
vn 0.009956 0.996126 0.087378
vn -0.018512 0.987780 0.154753
vn 0.004478 0.999613 0.027466
vn 0.006451 0.999706 0.023385
vn 0.008379 0.999896 0.011782
vn 0.008935 0.999866 0.013740
vn -0.314888 0.944710 0.091480
vn -0.183622 0.982730 0.022896
vn -0.128744 0.991589 -0.013289
vn -0.296175 0.954105 0.044317
vn -0.097815 0.995120 -0.012995
vn -0.318226 0.947800 0.020177
vn -0.061502 0.998091 -0.005601
vn -0.312969 0.949660 -0.014049
vn -0.048808 0.996183 -0.072372
vn -0.114755 0.986310 -0.118419
vn -0.113963 0.984031 -0.136729
vn -0.059885 0.993236 -0.099480
vn -0.140835 0.984972 -0.099982
vn -0.126294 0.987612 -0.093123
vn -0.146305 0.989233 -0.003661
vn -0.114237 0.993433 0.006459
vn -0.074285 0.996330 0.042537
vn -0.407441 0.913166 -0.010909
vn -0.118587 0.987250 0.106182
vn -0.609600 0.792710 -0.000279
vn -0.391038 0.659995 0.641479
vn -0.789732 0.458423 0.407643
vn -0.016424 0.989258 0.145253
vn -0.041714 0.500962 0.864464
vn -0.045000 0.549984 0.833962
vn -0.018600 0.989893 0.140591
vn -0.018378 0.999368 0.030440
vn -0.016470 0.999086 0.039445
vn -0.180753 0.979732 0.086338
vn -0.336229 0.929234 0.153216
vn -0.092352 0.989341 0.112581
vn -0.051749 0.990286 0.129055
vn 0.006940 0.998702 -0.050462
vn 0.004799 0.999973 0.005496
vn 0.011332 0.759935 -0.649900
vn 0.004680 0.989102 -0.147158
vn -0.014730 0.999704 0.019346
vn -0.041974 0.996050 0.078243
vn -0.125750 0.985724 0.111962
vn -0.002969 0.999982 0.005243
vn -0.158586 0.983144 0.090985
vn -0.186062 0.982479 0.010761
vn -0.083416 0.995490 -0.045173
vn -0.021996 0.999624 -0.016382
vn -0.136804 0.989645 -0.043443
vn -0.028650 0.990809 0.132201
vn -0.040380 0.544053 0.838079
vn -0.019132 0.998787 0.045374
vn -0.832119 0.544465 -0.105530
vn -0.945265 0.290921 -0.147778
vn -0.973211 0.175472 -0.148560
vn -0.628906 0.774184 0.071528
vn -0.583930 0.791676 0.179653
vn -0.601272 0.788161 0.131435
vn -0.569558 0.776466 0.269637
vn -0.573279 0.788583 0.222458
vn -0.572564 0.777885 0.258971
vn -0.579744 0.795014 0.178466
vn -0.854412 0.506428 -0.116239
vn -0.745529 0.660476 -0.089207
vn -0.618186 0.785265 -0.034714
vn -0.905855 0.403748 -0.128121
vn -0.601204 0.798450 0.032108
vn -0.591716 0.801635 0.085170
vn 0.039304 0.001314 -0.999226
vn 0.016469 0.006280 -0.999845
vn -0.005836 0.168422 -0.985698
vn 0.016640 0.344153 -0.938766
vn -0.004890 0.006302 -0.999968
vn -0.028061 0.163602 -0.986127
vn -0.032531 0.025282 -0.999151
vn -0.039668 0.203051 -0.978364
vn -0.006484 0.147530 0.989036
vn -0.015935 0.210082 0.977554
vn 0.007987 0.064992 -0.997854
vn -0.003781 -0.017538 -0.999839
vn 0.006159 -0.015023 -0.999868
vn -0.014497 0.088725 -0.995951
vn 0.017266 -0.018515 -0.999680
vn -0.029293 0.082633 -0.996149
vn 0.030894 -0.016879 -0.999380
vn -0.068866 0.103492 -0.992243
vn -0.985017 0.141636 -0.098388
vn -0.878067 0.153641 -0.453202
vn -0.812816 0.444404 -0.376610
vn -0.934908 0.348910 -0.064884
vn -0.992375 0.121209 -0.022358
vn -0.958379 0.285363 -0.008788
vn -0.996976 0.077605 0.004108
vn -0.976620 0.214238 0.017752
vn -0.998368 0.057064 0.002112
vn -0.980006 0.198465 0.014181
vn -0.998202 0.056627 0.019652
vn -0.981356 0.190983 0.021595
vn -0.993058 0.083303 0.083048
vn -0.971132 0.226649 0.074383
vn -0.992912 0.103081 0.059168
vn -0.964769 0.258866 0.047012
vn -0.992369 0.123022 0.008308
vn -0.945765 0.323689 -0.027465
vn -0.987537 0.147459 0.055017
vn -0.906352 0.422518 0.002293
vn -0.727976 0.224798 0.647701
vn -0.592303 0.601840 0.535692
vn 0.034464 -0.038211 0.998675
vn 0.040629 -0.040533 0.998352
vn 0.016849 0.021946 0.999617
vn -0.009200 0.048228 0.998794
vn -0.037500 0.295314 0.954664
vn -0.062375 0.282716 0.957173
vn 0.015241 -0.002640 0.999880
vn -0.085865 0.258576 0.962167
vn 0.015225 -0.010223 0.999832
vn 0.025144 -0.019450 0.999495
vn -0.136307 0.232340 0.963036
vn -0.166091 0.220997 0.961028
vn -0.589058 0.111673 -0.800337
vn -0.534369 0.409332 -0.739525
vn -0.211431 0.037060 -0.976690
vn -0.203193 0.233986 -0.950770
vn -0.024676 0.002623 -0.999692
vn -0.020181 0.102088 -0.994571
vn -0.024611 0.041919 0.998818
vn -0.027095 0.336163 0.941414
vn -0.124772 0.083702 0.988649
vn -0.107912 0.411115 0.905174
vn -0.345872 0.158496 0.924798
vn -0.289393 0.517824 0.805053
vn -0.004732 0.192018 0.981380
vn -0.305822 0.311376 0.899732
vn 0.050866 -0.037090 0.998017
vn 0.012470 -0.003404 0.999916
vn -0.283209 0.285792 0.915486
vn -0.190217 0.110306 0.975526
vn -0.126755 0.052506 0.990544
vn -0.286222 0.249482 0.925114
vn 0.026703 0.290608 -0.956470
vn 0.031014 0.006990 -0.999494
vn -0.292714 0.295660 -0.909342
vn -0.156167 0.067457 -0.985425
vn 0.008448 -0.003278 -0.999959
vn -0.168592 0.135544 -0.976322
vn -0.154330 0.049295 -0.986789
vn -0.201757 0.110169 -0.973220
vn -0.105349 0.534021 0.838882
vn -0.024242 0.454244 0.890547
vn -0.030918 0.398368 0.916705
vn -0.530625 0.706082 0.468920
vn -0.266647 0.630315 0.729111
vn -0.100324 0.351074 0.930958
vn -0.167404 0.336569 0.926659
vn -0.235857 0.326338 0.915355
vn -0.080469 0.368004 0.926336
vn -0.672776 0.330746 0.661801
vn -0.302090 0.337248 0.891631
vn -0.372154 0.335469 0.865426
vn -0.426279 0.198153 0.882622
vn -0.440061 0.252094 0.861856
vn -0.224161 0.429842 -0.874636
vn -0.477393 0.547526 -0.687249
vn -0.735702 0.564867 -0.373722
vn 0.044007 0.174872 -0.983607
vn -0.022464 0.264681 -0.964075
vn -0.057305 0.197413 -0.978644
vn -0.017653 0.192066 -0.981223
vn -0.126803 0.198756 -0.971811
vn -0.563549 0.213416 -0.798039
vn -0.365877 0.117058 -0.923272
vn -0.208072 0.198484 -0.957763
vn -0.293080 0.176511 -0.939653
vn -0.342647 0.113893 -0.932535
vn -0.900060 0.428622 -0.078584
vn -0.936454 0.350750 -0.005304
vn -0.964354 0.263620 0.022914
vn -0.964068 0.264888 0.020194
vn -0.957985 0.285825 0.023854
vn -0.926958 0.369701 0.063799
vn -0.808581 0.587945 0.022743
vn -0.865823 0.495373 -0.070401
vn -0.906246 0.421596 0.031228
vn 0.811526 0.324282 -0.486073
vn 0.263245 0.543987 -0.796731
vn 0.221274 0.965048 -0.140432
vn 0.918685 0.379365 -0.110001
vn 0.022879 0.593335 -0.804630
vn 0.015387 0.988576 -0.149935
vn 0.018309 0.999724 -0.014718
vn 0.244297 0.969496 -0.019908
vn 0.925790 0.377355 -0.022736
vn 0.051087 0.622738 -0.780761
vn 0.040226 0.989958 -0.135518
vn 0.030132 0.999440 -0.014546
vn 0.368529 0.661238 -0.653415
vn 0.272695 0.956454 -0.104079
vn 0.224504 0.973993 -0.030576
vn 0.270115 0.962671 -0.017374
vn 0.934071 0.356081 -0.026815
vn 0.020355 0.999790 -0.002478
vn 0.025267 0.999669 -0.004795
vn 0.318236 0.947445 -0.032777
vn 0.945090 0.323612 -0.045610
vn 0.028687 0.999554 -0.008283
vn 0.027569 0.999536 -0.012968
vn 0.213011 0.974700 -0.067725
vn 0.199391 0.974602 -0.101954
vn 0.407155 0.913358 -0.001303
vn 0.963393 0.259389 -0.067759
vn 0.020942 0.997128 0.072788
vn 0.034299 0.984115 0.174188
vn 0.585541 0.810022 0.031730
vn 0.979760 0.185498 -0.075243
vn 0.066529 0.997511 0.023349
vn 0.104154 0.990235 0.092660
vn 0.336544 0.917424 -0.212299
vn 0.466070 0.840423 -0.276530
vn 0.871508 0.490193 0.013589
vn 0.988765 0.069861 -0.132150
vn 0.090899 0.922178 0.375931
vn 0.690423 0.696485 -0.195510
vn 0.893509 0.061165 -0.444861
vn 0.900982 -0.024397 -0.433169
vn 0.391323 0.913398 0.112120
vn 0.735815 0.450372 -0.505709
vn 0.751902 0.381147 -0.537931
vn 0.653833 0.025252 -0.756218
vn 0.825048 -0.000532 0.565063
vn 0.837095 0.143843 0.527808
vn 0.874065 0.275568 0.400092
vn 0.881948 0.013801 0.471144
vn 0.818394 0.391362 0.420793
vn 0.683351 0.696534 0.218797
vn 0.741603 0.580979 0.335394
vn 0.554504 0.813363 0.175972
vn 0.171983 0.556580 0.812798
vn 0.355248 0.437656 0.825988
vn 0.752860 0.170314 0.635763
vn 0.885045 0.034634 0.464215
vn 0.721946 0.572558 0.388551
vn 0.576699 0.774177 0.260899
vn 0.288608 0.454126 0.842897
vn 0.752256 0.376739 0.540536
vn 0.702003 0.535433 0.469577
vn 0.736435 0.014861 0.676345
vn 0.759170 0.067078 0.647427
vn 0.670154 0.063287 0.739519
vn 0.459314 0.271250 0.845845
vn 0.996763 0.065969 -0.045956
vn 0.990180 0.036563 -0.134934
vn 0.869377 0.035641 -0.492862
vn 0.993637 0.103321 -0.044838
vn 0.995225 0.090008 -0.037764
vn 0.994195 0.085900 -0.064790
vn 0.993026 0.102152 -0.058858
vn 0.892519 -0.003841 -0.450994
vn 0.992931 0.035849 -0.113154
vn 0.870232 -0.029673 0.491749
vn 0.822692 -0.024751 0.567948
vn 0.878134 -0.031360 0.477387
vn 0.723482 0.001138 0.690342
vn 0.059842 0.173527 0.983009
vn 0.269155 0.122974 0.955214
vn 0.127011 0.149154 0.980623
vn 0.492519 0.010244 0.870242
vn 0.270487 0.124063 0.954696
vn 0.352287 0.096991 -0.930853
vn 0.034687 0.133133 -0.990491
vn 0.021119 0.137652 -0.990256
vn 0.209573 0.180909 -0.960911
vn 0.517428 0.702015 -0.489329
vn 0.437142 0.894010 -0.098251
vn 0.390365 0.920014 -0.034485
vn 0.370263 0.923235 -0.102677
vn 0.361230 0.916156 -0.173700
vn 0.427873 0.856619 -0.288320
vn 0.549392 0.735285 -0.396893
vn 0.738683 0.260199 -0.621808
vn 0.621288 -0.024932 -0.783186
vn 0.748675 -0.047697 0.661220
vn 0.721311 -0.033646 0.691794
vn 0.744070 -0.096294 0.661126
vn 0.742838 -0.085006 0.664052
vn 0.720901 -0.078111 0.688622
vn 0.717099 -0.114982 0.687422
vn 0.719096 -0.129489 0.682739
vn 0.744520 -0.116295 0.657393
vn 0.721396 -0.133156 0.679601
vn 0.757371 -0.115505 0.642688
vn 0.751294 -0.110653 0.650626
vn 0.748437 -0.118043 0.652616
vn 0.131195 -0.060710 0.989496
vn 0.047446 -0.011749 0.998805
vn 0.054925 -0.015758 0.998366
vn 0.137304 -0.072880 0.987844
vn 0.026509 0.000327 0.999649
vn 0.030778 0.001683 0.999525
vn 0.034293 -0.000035 0.999412
vn 0.064364 -0.023184 0.997657
vn 0.153750 -0.088761 0.984115
vn 0.079471 -0.032825 0.996297
vn 0.192491 -0.106996 0.975448
vn 0.037812 -0.004752 0.999274
vn 0.028781 0.000536 0.999586
vn 0.028510 0.004491 0.999583
vn 0.025351 0.007144 0.999653
vn 0.019113 0.007108 0.999792
vn 0.129474 -0.026047 0.991241
vn 0.135236 -0.032054 0.990295
vn 0.491496 -0.085218 0.866700
vn 0.520970 -0.105902 0.846980
vn 0.574274 -0.118162 0.810090
vn 0.150050 -0.037051 0.987984
vn 0.773656 -0.093207 0.626712
vn 0.792441 -0.105949 0.600676
vn 0.819335 -0.109065 0.562845
vn 0.848009 -0.101033 0.520263
vn 0.643978 -0.116201 0.756168
vn 0.176858 -0.039377 0.983448
vn 0.860016 -0.069628 0.505495
vn 0.817873 -0.052685 0.572982
vn 0.848949 -0.075916 0.522994
vn 0.811703 -0.057678 0.581215
vn 0.838574 -0.077773 0.539207
vn 0.830897 -0.075701 0.551252
vn 0.805467 -0.060988 0.589494
vn 0.800313 -0.063277 0.596234
vn 0.996751 0.049447 -0.063588
vn 0.996318 0.077922 -0.035747
vn 0.895837 0.034802 -0.443017
vn 0.994724 0.091792 -0.045818
vn 0.994206 0.086938 -0.063214
vn 0.995260 0.065162 -0.072191
vn 0.995095 0.026226 -0.095380
vn 0.981003 -0.012140 -0.193612
vn 0.856453 -0.037221 -0.514881
vn 0.381428 -0.012187 -0.924318
vn 0.042200 0.015004 -0.998997
vn 0.007716 0.015219 -0.999854
vn 0.131716 0.009969 -0.991237
vn 0.029051 0.024077 0.999288
vn 0.024239 0.007723 0.999676
vn 0.045346 -0.003970 0.998964
vn 0.043646 0.005879 0.999030
vn 0.135865 -0.042358 0.989821
vn 0.132371 -0.031108 0.990712
vn 0.020642 0.035960 0.999140
vn 0.021199 0.012313 0.999699
vn 0.762523 0.041420 0.645634
vn 0.445858 0.014022 0.894994
vn 0.774151 0.211574 0.596596
vn 0.471378 0.126347 0.872834
vn 0.098016 0.012838 0.995102
vn 0.103150 0.057663 0.992993
vn 0.846747 0.031242 0.531077
vn 0.816683 0.013100 0.576938
vn 0.847964 0.175352 0.500208
vn 0.826912 0.131808 0.546666
vn 0.981091 0.192455 -0.020544
vn 0.983716 0.178715 -0.019069
vn 0.912112 0.251939 -0.323385
vn 0.974569 0.218850 -0.048175
vn 0.943026 0.301484 -0.140743
vn 0.905822 0.377059 -0.193167
vn 0.857748 0.475611 -0.195097
vn 0.810529 0.546415 -0.210888
vn 0.691224 0.550137 -0.468571
vn 0.302796 0.359009 -0.882852
vn 0.088711 0.277071 -0.956746
vn 0.104203 0.214748 -0.971095
vn 0.156440 0.053398 -0.986243
vn 0.324624 0.576050 0.750191
vn 0.488910 0.802680 0.341574
vn 0.194804 0.798047 0.570240
vn 0.266882 0.947058 0.178479
vn 0.035650 0.259567 0.965067
vn 0.020877 0.146654 0.988968
vn 0.027072 0.275546 0.960907
vn -0.010313 0.442739 0.896591
vn -0.045026 0.623249 0.780726
vn 0.094614 0.905487 0.413693
vn 0.037080 0.433979 0.900159
vn 0.008584 0.527574 0.849466
vn -0.047062 0.736286 0.675032
vn 0.072190 0.956159 0.283810
vn 0.136866 0.984999 0.105095
vn 0.108257 0.992851 0.050275
vn 0.068623 0.096934 0.992922
vn 0.111619 0.178319 0.977621
vn 0.160107 0.271225 0.949107
vn 0.180806 0.301687 0.936106
vn 0.126132 0.032841 0.991470
vn 0.231288 -0.055256 0.971315
vn 0.299980 -0.068684 0.951470
vn 0.200985 0.053202 0.978149
vn 0.267565 0.070997 0.960921
vn 0.350810 -0.077855 0.933205
vn 0.358589 -0.059868 0.931574
vn 0.289274 0.087559 0.953233
vn 0.601261 -0.061128 0.796711
vn 0.658809 -0.109277 0.744331
vn 0.685116 -0.139859 0.714881
vn 0.703096 -0.144339 0.696292
vn 0.216875 -0.125745 0.968067
vn 0.211220 -0.106589 0.971610
vn 0.238594 -0.148610 0.959681
vn 0.316120 -0.203625 0.926609
vn 0.292079 -0.175335 0.940185
vn 0.287347 -0.149630 0.946067
vn 0.291997 -0.171589 0.940901
vn 0.375245 -0.227409 0.898597
vn 0.428202 -0.267188 0.863281
vn 0.369773 -0.243786 0.896569
vn 0.450157 -0.284026 0.846574
vn 0.387665 -0.258154 0.884914
vn 0.346162 -0.211301 0.914070
vn 0.342662 -0.180082 0.922038
vn 0.364806 -0.220970 0.904483
vn 0.362938 -0.186036 0.913053
vn 0.221353 -0.075493 0.972267
vn 0.294622 -0.100985 0.950263
vn 0.350130 -0.118308 0.929200
vn 0.371844 -0.116569 0.920947
vn 0.352077 0.916850 -0.188227
vn 0.266538 0.960507 -0.079894
vn 0.224955 0.970186 -0.090188
vn 0.710439 0.660741 -0.242278
vn 0.517153 0.802237 -0.298277
vn 0.905656 0.423776 -0.014219
vn 0.893336 0.445555 -0.058590
vn 0.572043 0.817477 -0.067067
vn 0.846483 0.531994 0.021171
vn 0.589714 0.776825 0.220862
vn 0.648578 0.705169 0.286504
vn 0.381673 0.921346 0.073804
vn 0.508799 0.849361 0.140390
vn 0.175685 0.984375 -0.011882
vn 0.110641 0.993614 -0.022117
vn 0.382563 0.923912 0.005662
vn 0.091955 0.994135 -0.056928
vn 0.173648 0.938931 -0.297077
vn 0.117113 0.808295 -0.577013
vn 0.246632 0.718447 -0.650389
vn 0.415720 0.274988 -0.866924
vn 0.426206 0.232778 -0.874164
vn 0.324233 -0.005404 -0.945962
vn 0.622346 -0.086739 -0.777922
vn 0.625532 -0.108683 -0.772592
vn 0.656647 -0.060219 -0.751790
vn 0.595218 -0.044859 -0.802311
vn 0.515689 -0.087355 -0.852311
vn 0.679229 -0.015730 -0.733758
vn 0.492505 -0.096082 -0.864990
vn 0.695077 0.028710 -0.718362
vn 0.681583 0.331754 -0.652214
vn 0.299545 0.933493 -0.197138
s 1
g Moss2
usemtl initialShadingGroup
f 1/207/1 135/208/2 136/209/3 88/210/4
f 88/210/4 136/209/3 47/213/5 89/214/6
f 89/214/6 47/213/5 137/220/7 3/221/8
f 4/230/9 48/225/10 90/229/11 139/234/12
f 48/225/10 138/218/13 69/224/14 90/229/11
f 138/218/13 2/217/15 76/223/16 69/224/14
f 3/221/8 137/220/7 140/227/17 91/228/18
f 91/228/18 140/227/17 49/232/19 68/233/20
f 68/233/20 49/232/19 141/237/21 92/238/22
f 92/238/22 141/237/21 142/242/23 5/243/24
f 6/250/25 143/245/26 70/249/27 145/254/28
f 143/245/26 50/240/29 93/244/30 70/249/27
f 50/240/29 144/235/31 71/239/32 93/244/30
f 144/235/31 4/230/9 139/234/12 71/239/32
f 11/253/33 146/252/34 147/257/35 94/258/36
f 94/258/36 147/257/35 51/262/37 95/263/38
f 95/263/38 51/262/37 148/267/39 7/268/40
f 8/275/41 52/270/42 96/274/43 151/279/44
f 52/270/42 149/265/45 72/269/46 96/274/43
f 149/265/45 12/260/47 150/264/48 72/269/46
f 7/268/40 148/267/39 152/272/49 97/273/50
f 97/273/50 152/272/49 53/277/51 98/278/52
f 98/278/52 53/277/51 184/282/53 9/283/54
f 73/287/55 121/289/56 10/288/57 54/285/58
f 74/284/59 73/287/55 54/285/58 153/280/60
f 151/279/44 74/284/59 153/280/60 8/275/41
f 5/243/24 142/242/23 154/247/61 99/248/62
f 99/248/62 154/247/61 146/252/34 11/253/33
f 12/260/47 155/255/63 75/259/64 150/264/48
f 155/255/63 6/250/25 145/254/28 75/259/64
f 137/220/7 47/213/5 101/219/65 56/226/66
f 136/209/3 135/208/2 55/211/67 100/212/68
f 47/213/5 136/209/3 100/212/68 101/219/65
f 100/212/68 55/211/67 2/217/15 138/218/13
f 101/219/65 100/212/68 138/218/13 48/225/10
f 56/226/66 101/219/65 48/225/10 4/230/9
f 141/237/21 49/232/19 103/236/69 104/241/70
f 142/242/23 141/237/21 104/241/70 57/246/71
f 140/227/17 137/220/7 56/226/66 102/231/72
f 49/232/19 140/227/17 102/231/72 103/236/69
f 102/231/72 56/226/66 4/230/9 144/235/31
f 103/236/69 102/231/72 144/235/31 50/240/29
f 104/241/70 103/236/69 50/240/29 143/245/26
f 57/246/71 104/241/70 143/245/26 6/250/25
f 146/252/34 154/247/61 105/251/73 58/256/74
f 154/247/61 142/242/23 57/246/71 105/251/73
f 105/251/73 57/246/71 6/250/25 155/255/63
f 58/256/74 105/251/73 155/255/63 12/260/47
f 148/267/39 51/262/37 107/266/75 59/271/76
f 147/257/35 146/252/34 58/256/74 106/261/77
f 51/262/37 147/257/35 106/261/77 107/266/75
f 106/261/77 58/256/74 12/260/47 149/265/45
f 107/266/75 106/261/77 149/265/45 52/270/42
f 59/271/76 107/266/75 52/270/42 8/275/41
f 184/282/53 53/277/51 109/281/78 130/286/79
f 152/272/49 148/267/39 59/271/76 108/276/80
f 53/277/51 152/272/49 108/276/80 109/281/78
f 108/276/80 59/271/76 8/275/41 153/280/60
f 109/281/78 108/276/80 153/280/60 54/285/58
f 130/286/79 109/281/78 54/285/58 10/288/57
f 88/1/4 89/2/6 110/3/81 111/4/82
f 1/7/1 88/1/4 111/4/82 61/8/83
f 89/2/6 3/5/8 60/6/84 110/3/81
f 91/9/18 68/11/20 63/12/85 113/10/86
f 3/5/8 91/9/18 113/10/86 60/6/84
f 92/13/22 5/15/24 62/16/87 112/14/88
f 68/11/20 92/13/22 112/14/88 63/12/85
f 5/15/24 99/17/62 114/18/89 62/16/87
f 99/17/62 11/19/33 64/20/90 114/18/89
f 97/27/50 98/29/52 115/30/91 116/28/92
f 7/25/40 97/27/50 116/28/92 66/26/93
f 98/29/52 9/31/54 65/32/94 115/30/91
f 94/21/36 95/23/38 117/24/95 118/22/96
f 11/19/33 94/21/36 118/22/96 64/20/90
f 95/23/38 7/25/40 66/26/93 117/24/95
f 19/391/97 156/392/98 119/393/99 212/394/100
f 156/392/98 157/397/101 120/398/102 119/393/99
f 157/397/101 162/406/103 158/407/104 120/398/102
f 119/393/99 120/398/102 76/399/16
f 120/398/102 158/407/104 76/399/16
f 212/394/100 119/393/99 76/399/16
f 121/436/56 159/437/105 160/438/106 10/439/57
f 20/418/107 161/410/108 122/402/109 163/411/110
f 163/411/110 122/402/109 123/395/111 22/404/112
f 161/410/108 162/406/103 157/397/101 122/402/109
f 122/402/109 157/397/101 156/392/98 123/395/111
f 123/395/111 156/392/98 19/391/97 67/396/113
f 22/404/112 123/395/111 67/396/113 17/405/114
f 77/33/115 164/34/116 13/35/117 165/36/118
f 78/41/119 77/33/115 165/36/118 166/42/120
f 79/45/121 78/41/119 166/42/120 167/46/122
f 168/48/123 79/45/121 167/46/122 14/49/124
f 124/51/125 168/48/123 14/49/124 23/52/126
f 169/54/127 124/51/125 23/52/126 15/55/128
f 80/57/129 169/54/127 15/55/128 170/58/130
f 81/60/131 80/57/129 170/58/130 171/61/132
f 125/63/133 81/60/131 171/61/132 24/64/134
f 172/66/135 125/63/133 24/64/134 16/67/136
f 160/438/106 159/437/105 127/440/137 177/441/138
f 82/462/139 173/468/140 21/469/141 174/463/142
f 126/455/143 82/462/139 174/463/142 25/456/144
f 177/441/138 127/440/137 83/444/145 176/445/146
f 83/444/145 126/455/143 25/456/144 175/449/147
f 176/445/146 83/444/145 175/449/147 18/450/148
f 13/35/117 164/34/116 84/37/149 179/38/150
f 179/432/150 84/433/149 128/430/151 26/429/152
f 26/429/152 128/430/151 85/426/153 178/425/154
f 178/425/154 85/426/153 161/410/108 20/418/107
f 21/469/141 173/468/140 86/472/155 181/473/156
f 181/473/156 86/472/155 129/475/157 27/476/158
f 27/476/158 129/475/157 87/478/159 180/479/160
f 180/69/160 87/70/159 172/66/135 16/67/136
f 10/439/57 160/438/106 182/442/161 130/443/79
f 130/443/79 182/442/161 183/447/162 184/448/53
f 160/438/106 177/441/138 131/446/163 182/442/161
f 177/441/138 176/445/146 132/451/164 131/446/163
f 176/445/146 18/450/148 185/459/165 132/451/164
f 131/446/163 132/451/164 187/460/166 188/452/167
f 132/451/164 185/459/165 186/466/168 187/460/166
f 182/442/161 131/446/163 188/452/167 183/447/162
f 19/391/97 212/394/100 133/400/169 191/401/170
f 76/223/16 2/217/15 212/222/100
f 133/215/169 55/211/67 135/208/2 189/216/171
f 191/401/170 133/400/169 189/408/171 190/409/172
f 17/405/114 67/396/113 134/403/173 193/413/174
f 67/396/113 19/391/97 191/401/170 134/403/173
f 134/403/173 191/401/170 190/409/172 28/412/175
f 193/413/174 134/403/173 28/412/175 192/421/176
f 181/473/156 27/476/158 30/480/177 195/477/178
f 21/469/141 181/473/156 195/477/178 31/474/179
f 180/479/160 16/482/136 29/483/180 194/481/181
f 27/476/158 180/479/160 194/481/181 30/480/177
f 175/449/147 25/456/144 32/464/182 197/457/183
f 18/450/148 175/449/147 197/457/183 33/458/184
f 174/463/142 21/469/141 31/474/179 196/470/185
f 25/456/144 174/463/142 196/470/185 32/464/182
f 184/448/53 183/447/162 34/453/186 9/454/54
f 186/466/168 185/459/165 198/465/187 199/471/188
f 185/459/165 18/450/148 33/458/184 198/465/187
f 183/447/162 188/452/167 201/461/189 34/453/186
f 187/460/166 186/466/168 199/471/188 200/467/190
f 188/452/167 187/460/166 200/467/190 201/461/189
f 179/432/150 26/429/152 36/434/191 203/435/192
f 13/35/117 179/38/150 203/43/192 37/39/193
f 178/425/154 20/418/107 35/427/194 202/431/195
f 26/429/152 178/425/154 202/431/195 36/434/191
f 163/411/110 22/404/112 39/415/196 204/419/197
f 20/418/107 163/411/110 204/419/197 35/427/194
f 22/404/112 17/405/114 38/414/198 39/415/196
f 190/409/172 189/408/171 205/416/199 40/417/200
f 189/408/171 135/423/2 1/424/1 205/416/199
f 17/405/114 193/413/174 206/422/201 38/414/198
f 193/413/174 192/421/176 41/428/202 206/422/201
f 192/421/176 28/412/175 42/420/203 41/428/202
f 28/412/175 190/409/172 40/417/200 42/420/203
f 166/42/120 165/36/118 207/40/204 208/44/205
f 165/36/118 13/35/117 37/39/193 207/40/204
f 14/49/124 167/46/122 209/47/206 43/50/207
f 167/46/122 166/42/120 208/44/205 209/47/206
f 15/55/128 23/52/126 44/53/208 45/56/209
f 23/52/126 14/49/124 43/50/207 44/53/208
f 16/67/136 24/64/134 46/65/210 29/68/180
f 24/64/134 171/61/132 211/62/211 46/65/210
f 171/61/132 170/58/130 210/59/212 211/62/211
f 170/58/130 15/55/128 45/56/209 210/59/212
f 212/222/100 2/217/15 55/211/67 133/215/169
s 11
f 213/290/213 347/291/214 334/292/215 389/293/216
f 347/291/214 214/294/217 387/295/218 334/292/215
f 334/292/215 387/295/218 216/300/219 388/296/220
f 389/293/216 334/292/215 388/296/220 215/297/221
f 214/294/217 429/298/222 335/299/223 387/295/218
f 387/295/218 335/299/223 390/305/224 216/300/219
f 429/298/222 278/303/225 391/304/226 335/299/223
f 335/299/223 391/304/226 263/309/227 390/305/224
f 215/297/221 388/296/220 336/301/228 395/302/229
f 388/296/220 216/300/219 392/306/230 336/301/228
f 336/301/228 392/306/230 393/311/231 264/312/232
f 395/89/229 336/90/228 264/82/232 394/81/233
f 216/300/219 390/305/224 337/310/234 392/306/230
f 392/306/230 337/310/234 396/315/235 393/311/231
f 390/305/224 263/309/227 397/314/236 337/310/234
f 337/310/234 397/314/236 398/319/237 396/315/235
f 394/81/233 264/82/232 338/76/238 402/75/239
f 264/312/232 393/311/231 399/316/240 338/317/238
f 338/317/238 399/316/240 400/321/241 265/322/242
f 402/75/239 338/76/238 265/72/242 401/71/243
f 393/311/231 396/315/235 339/320/244 399/316/240
f 399/316/240 339/320/244 403/325/245 400/321/241
f 396/315/235 398/319/237 404/324/246 339/320/244
f 339/320/244 404/324/246 405/329/247 403/325/245
f 401/71/243 265/72/242 340/73/248 408/74/249
f 265/322/242 400/321/241 406/326/250 340/327/248
f 340/327/248 406/326/250 218/331/251 407/332/252
f 408/74/249 340/73/248 407/77/252 217/78/253
f 400/321/241 403/325/245 341/330/254 406/326/250
f 406/326/250 341/330/254 409/335/255 218/331/251
f 403/325/245 405/329/247 410/334/256 341/330/254
f 341/122/254 410/123/256 266/113/257 409/102/255
s 12
f 219/148/258 267/140/259 343/143/260 344/149/261
f 267/140/259 377/141/262 342/142/263 343/143/260
f 377/141/262 220/144/264 411/145/265 342/142/263
f 342/336/263 411/337/265 223/338/266 412/339/267
f 343/143/260 342/142/263 412/146/267 268/147/268
f 344/149/261 343/143/260 268/147/268 222/152/269
f 220/144/264 378/150/270 346/151/271 411/145/265
f 411/337/265 346/340/271 413/341/272 223/338/266
f 378/150/270 379/155/273 345/156/274 346/151/271
f 379/155/273 221/161/275 414/162/276 345/156/274
f 345/156/274 414/162/276 224/169/277 415/170/278
f 346/340/271 345/342/274 415/343/278 413/341/272
s 11
f 389/119/216 215/109/221 416/110/279 417/120/280
f 213/127/213 389/119/216 417/120/280 418/128/281
f 395/89/229 394/81/233 419/91/282 269/99/283
f 215/109/221 395/89/229 269/99/283 416/110/279
f 402/75/239 401/71/243 420/80/284 270/83/285
f 394/81/233 402/75/239 270/83/285 419/91/282
f 408/74/249 217/78/253 421/86/286 422/79/287
f 401/71/243 408/74/249 422/79/287 420/80/284
s 12
f 219/148/258 344/149/261 423/153/288 272/154/289
f 344/149/261 222/152/269 271/158/290 423/153/288
f 273/157/291 271/158/290 222/152/269 268/147/268
f 274/484/292 424/485/293 412/486/267 223/487/266
f 424/485/293 273/490/291 268/491/268 412/486/267
f 275/492/294 274/484/292 223/487/266 413/493/272
f 276/505/295 425/498/296 415/499/278 224/506/277
f 425/498/296 275/492/294 413/493/272 415/499/278
s 11
f 213/127/213 418/128/281 426/133/297 347/134/214
f 347/577/214 426/578/297 427/579/298 214/580/217
f 214/580/217 427/579/298 428/583/299 429/584/222
f 429/584/222 428/583/299 277/588/300 278/589/225
f 391/304/226 278/303/225 225/307/301 430/308/302
f 263/309/227 391/304/226 430/308/302 226/313/303
f 397/314/236 263/309/227 226/313/303 431/318/304
f 398/319/237 397/314/236 431/318/304 432/323/305
f 404/324/246 398/319/237 432/323/305 433/328/306
f 405/329/247 404/324/246 433/328/306 434/333/307
f 410/123/256 405/135/247 434/136/307 435/129/308
f 266/113/257 410/123/256 435/129/308 227/130/309
s 12
f 224/169/277 414/162/276 307/168/310 438/177/311
f 438/177/311 307/168/310 348/176/312 280/184/313
f 414/162/276 221/161/275 380/167/314 307/168/310
f 307/168/310 380/167/314 279/175/315 348/176/312
f 348/176/312 279/175/315 381/182/316 308/183/317
f 308/183/317 381/182/316 228/191/318 436/192/319
f 280/184/313 348/176/312 308/183/317 437/193/320
f 437/193/320 308/183/317 436/192/319 229/199/321
f 230/535/322 439/525/323 309/517/324 441/526/325
f 439/525/323 281/516/326 311/510/327 309/517/324
f 309/517/324 311/510/327 350/503/328 349/511/329
f 441/526/325 309/517/324 349/511/329 282/518/330
f 282/518/330 349/511/329 310/504/331 440/512/332
f 349/511/329 350/503/328 312/497/333 310/504/331
f 310/504/331 312/497/333 275/492/294 425/498/296
f 440/512/332 310/504/331 425/498/296 276/505/295
f 281/516/326 231/507/334 442/500/335 311/510/327
f 311/510/327 442/500/335 283/494/336 350/503/328
f 350/503/328 283/494/336 443/488/337 312/497/333
f 312/497/333 443/488/337 274/484/292 275/492/294
f 231/507/334 444/508/338 313/501/339 442/500/335
f 444/508/338 284/515/340 351/509/341 313/501/339
f 313/501/339 351/509/341 300/502/342 353/495/343
f 442/500/335 313/501/339 353/495/343 283/494/336
f 284/187/340 445/188/344 446/179/345 351/178/341
f 351/178/341 446/179/345 285/172/346 300/171/342
f 300/171/342 285/172/346 447/164/347 352/163/348
f 352/163/348 447/164/347 271/158/290 273/157/291
f 283/494/336 353/495/343 314/489/349 443/488/337
f 353/495/343 300/502/342 352/496/348 314/489/349
f 314/489/349 352/496/348 273/490/291 424/485/293
f 443/488/337 314/489/349 424/485/293 274/484/292
f 272/154/289 423/153/288 315/159/350 383/160/351
f 383/160/351 315/159/350 354/165/352 286/166/353
f 423/153/288 271/158/290 447/164/347 315/159/350
f 315/159/350 447/164/347 285/172/346 354/165/352
f 354/165/352 285/172/346 446/179/345 316/173/354
f 316/173/354 446/179/345 445/188/344 448/180/355
f 286/166/353 354/165/352 316/173/354 382/174/356
f 382/174/356 316/173/354 448/180/355 232/181/357
s 11
f 420/80/284 422/79/287 449/87/358 288/88/359
f 422/79/287 421/86/286 287/96/360 449/87/358
f 419/91/282 270/83/285 289/92/361 290/100/362
f 270/83/285 420/80/284 288/88/359 289/92/361
f 416/110/279 269/99/283 291/108/363 292/118/364
f 269/99/283 419/91/282 290/100/362 291/108/363
f 418/128/281 417/120/280 450/126/365 293/132/366
f 417/120/280 416/110/279 292/118/364 450/126/365
f 427/579/298 426/578/297 451/581/367 294/582/368
f 426/133/297 418/128/281 293/132/366 451/138/367
f 428/583/299 427/579/298 294/582/368 452/587/369
f 277/588/300 428/583/299 452/587/369 295/591/370
s 12
f 296/532/371 356/522/372 317/531/373 355/542/374
f 356/522/372 281/516/326 439/525/323 317/531/373
f 317/531/373 439/525/323 230/535/322 453/541/375
f 355/542/374 317/531/373 453/541/375 297/553/376
f 298/524/377 454/514/378 356/522/372 296/532/371
f 454/514/378 231/507/334 281/516/326 356/522/372
f 455/195/379 445/188/344 284/187/340 357/196/380
f 299/201/381 455/195/379 357/196/380 301/202/382
f 301/530/382 357/521/380 318/513/383 358/523/384
f 357/521/380 284/515/340 444/508/338 318/513/383
f 318/513/383 444/508/338 231/507/334 454/514/378
f 358/523/384 318/513/383 454/514/378 298/524/377
f 232/181/357 448/180/355 319/189/385 384/190/386
f 384/190/386 319/189/385 359/197/387 242/198/388
f 448/180/355 445/188/344 455/195/379 319/189/385
f 319/189/385 455/195/379 299/201/381 359/197/387
s 11
f 288/88/359 449/87/358 456/97/389 244/98/390
f 449/87/358 287/96/360 243/105/391 456/97/389
f 290/100/362 289/92/361 457/101/392 245/111/393
f 289/92/361 288/88/359 244/98/390 457/101/392
f 292/118/364 291/108/363 458/117/394 246/125/395
f 291/108/363 290/100/362 245/111/393 458/117/394
f 293/132/366 450/126/365 247/131/396 248/137/397
f 450/126/365 292/118/364 246/125/395 247/131/396
f 294/582/368 451/581/367 459/585/398 249/586/399
f 451/138/367 293/132/366 248/137/397 459/139/398
f 452/587/369 294/582/368 249/586/399 460/590/400
f 295/591/370 452/587/369 460/590/400 250/594/401
s 12
f 299/356/381 301/357/382 360/349/402 320/348/403
f 320/348/403 360/349/402 302/345/404 363/344/405
f 301/530/382 358/523/384 321/534/406 360/540/402
f 358/523/384 298/524/377 461/533/407 321/534/406
f 321/534/406 461/533/407 251/544/408 361/545/409
f 360/540/402 321/534/406 361/545/409 302/551/404
f 302/345/404 361/350/409 322/351/410 362/346/411
f 361/545/409 251/544/408 462/556/412 322/557/410
f 322/351/410 462/363/412 234/364/413 463/359/414
f 362/346/411 322/351/410 463/359/414 252/352/415
f 363/344/405 302/345/404 362/346/411 323/347/416
f 323/347/416 362/346/411 252/352/415 233/353/417
f 298/524/377 296/532/371 364/543/418 461/533/407
f 461/533/407 364/543/418 303/555/419 251/544/408
f 251/544/408 303/555/419 366/564/420 462/556/412
f 462/556/412 366/564/420 464/570/421 234/571/413
f 296/532/371 355/542/374 324/554/422 364/543/418
f 355/542/374 297/553/376 373/562/423 324/554/422
f 324/554/422 373/562/423 306/568/424 365/563/425
f 364/543/418 324/554/422 365/563/425 303/555/419
f 303/555/419 365/563/425 325/569/426 366/564/420
f 365/563/425 306/568/424 375/574/427 325/569/426
f 325/569/426 375/574/427 256/576/428 465/575/429
f 366/564/420 325/569/426 465/575/429 464/570/421
f 276/185/295 224/169/277 438/177/311 367/186/430
f 367/186/430 438/177/311 280/184/313 304/194/431
f 304/194/431 280/184/313 437/193/320 368/200/432
f 368/200/432 437/193/320 229/199/321 253/205/433
f 230/535/322 441/526/325 326/536/434 469/546/435
f 441/526/325 282/518/330 369/527/436 326/536/434
f 326/536/434 369/527/436 305/537/437 372/547/438
f 469/546/435 326/536/434 372/547/438 255/558/439
f 282/518/330 440/512/332 327/520/440 369/527/436
f 440/512/332 276/505/295 367/519/430 327/520/440
f 327/520/440 367/519/430 304/528/431 370/529/441
f 369/527/436 327/520/440 370/529/441 305/537/437
f 305/537/437 370/529/441 328/539/442 371/548/443
f 370/529/441 304/528/431 368/538/432 328/539/442
f 328/539/442 368/538/432 253/549/433 466/550/444
f 371/548/443 328/539/442 466/550/444 254/560/445
f 255/558/439 372/547/438 329/559/446 468/565/447
f 372/547/438 305/537/437 371/548/443 329/559/446
f 329/559/446 371/548/443 254/560/445 467/566/448
f 468/565/447 329/559/446 467/566/448 235/572/449
f 297/553/376 453/541/375 330/552/450 373/562/423
f 453/541/375 230/535/322 469/546/435 330/552/450
f 330/552/450 469/546/435 255/558/439 374/561/451
f 373/562/423 330/552/450 374/561/451 306/568/424
f 306/568/424 374/561/451 331/567/452 375/574/427
f 374/561/451 255/558/439 468/565/447 331/567/452
f 331/567/452 468/565/447 235/572/449 470/573/453
f 375/574/427 331/567/452 470/573/453 256/576/428
s 11
f 247/365/396 246/366/395 237/367/454 471/368/455
f 248/371/397 247/365/396 471/368/455 236/372/456
f 458/117/394 245/111/393 472/121/457 473/124/458
f 246/366/395 458/369/394 473/370/458 237/367/454
f 457/101/392 244/98/390 474/107/459 475/112/460
f 245/111/393 457/101/392 475/112/460 472/121/457
f 456/97/389 243/105/391 238/116/461 476/106/462
f 244/98/390 456/97/389 476/106/462 474/107/459
s 12
f 242/198/388 359/197/387 332/203/463 386/204/464
f 386/379/464 332/380/463 376/381/465 257/382/466
f 359/197/387 299/201/381 320/206/403 332/203/463
f 332/358/463 320/348/403 363/344/405 376/354/465
f 376/354/465 363/344/405 323/347/416 333/355/467
f 333/355/467 323/347/416 233/353/417 477/360/468
f 257/361/466 376/354/465 333/355/467 385/362/469
f 385/383/469 333/384/467 477/385/468 239/386/470
s 11
f 459/373/398 248/371/397 236/372/456 478/374/471
f 249/375/399 459/373/398 478/374/471 240/376/472
f 460/377/400 249/375/399 240/376/472 479/378/473
f 250/594/401 460/590/400 479/596/473 259/597/474
f 278/589/225 277/588/300 480/592/475 225/593/301
f 277/588/300 295/591/370 258/595/476 480/592/475
f 295/591/370 250/594/401 259/597/474 258/595/476
f 407/77/252 218/93/251 481/94/477 482/84/478
f 217/78/253 407/77/252 482/84/478 483/85/479
f 218/93/251 409/102/255 241/103/480 481/94/477
f 409/102/255 266/113/257 260/114/481 241/103/480
f 421/86/286 217/78/253 483/85/479 484/95/482
f 266/598/257 227/599/309 485/600/483 260/601/481
f 287/96/360 421/86/286 484/95/482 261/104/484
f 243/105/391 287/96/360 261/104/484 262/115/485
f 238/387/461 243/388/391 262/389/485 486/390/486
