# This file uses centimeters as units for non-parametric coordinates.

mtllib NotebookRightPage.mtl
g default
v 0.850204 -0.003500 0.500000
v 0.850204 -0.003500 -0.500000
v 0.000000 -0.003500 -0.500000
v 0.000000 -0.003500 0.500000
v 0.850204 0.000000 0.500000
v 0.850204 0.000000 -0.500000
v 0.000000 0.000000 -0.500000
v 0.000000 0.000000 0.500000
vt 0.500000 0.000000
vt 1.000000 0.000000
vt 1.000000 1.000000
vt 0.500000 1.000000
vt 0.500000 0.000000
vt 1.000000 0.000000
vt 1.000000 1.000000
vt 0.500000 1.000000
vn 0.000000 -1.000000 0.000000
vn 0.000000 -1.000000 0.000000
vn 0.000000 -1.000000 0.000000
vn 0.000000 -1.000000 0.000000
vn -0.000000 1.000000 0.000000
vn -0.000000 1.000000 0.000000
vn -0.000000 1.000000 0.000000
vn -0.000000 1.000000 0.000000
s off
g polySurface7
usemtl lambert6SG
f 4/1/1 3/4/2 2/3/3 1/2/4
usemtl lambert5SG
f 8/5/5 5/6/6 6/7/7 7/8/8
