# This file uses centimeters as units for non-parametric coordinates.

mtllib NotebookLeftPage.mtl
g default
v -0.850204 -0.003500 0.500000
v 0.000000 -0.003500 0.500000
v -0.850204 -0.003500 -0.500000
v 0.000000 -0.003500 -0.500000
v -0.850204 0.000000 0.500000
v 0.000000 0.000000 0.500000
v -0.850204 0.000000 -0.500000
v 0.000000 0.000000 -0.500000
vt 0.000000 0.000000
vt 0.500000 0.000000
vt 0.500000 1.000000
vt 0.000000 1.000000
vt 0.000000 0.000000
vt 0.500000 0.000000
vt 0.500000 1.000000
vt 0.000000 1.000000
vn 0.000000 -1.000000 0.000000
vn 0.000000 -1.000000 0.000000
vn 0.000000 -1.000000 0.000000
vn 0.000000 -1.000000 0.000000
vn 0.000000 1.000000 0.000000
vn 0.000000 1.000000 0.000000
vn 0.000000 1.000000 0.000000
vn 0.000000 1.000000 0.000000
s off
g polySurface8
usemtl lambert6SG
f 1/1/1 3/4/2 4/3/3 2/2/4
usemtl lambert5SG
f 5/5/5 6/6/6 8/7/7 7/8/8
