# This file uses centimeters as units for non-parametric coordinates.

mtllib NotebookModel.mtl
g default
v -0.850204 0.000000 0.500000
v 0.000000 0.000000 0.500000
v 0.850204 0.000000 0.500000
v -0.850204 0.000000 -0.500000
v 0.000000 0.000000 -0.500000
v 0.850204 0.000000 -0.500000
vt 0.000000 0.000000
vt 0.500000 0.000000
vt 0.500000 1.000000
vt 0.000000 1.000000
vt 1.000000 0.000000
vt 1.000000 1.000000
vn 0.000000 1.000000 0.000000
vn 0.000000 1.000000 0.000000
vn 0.000000 1.000000 0.000000
vn 0.000000 1.000000 0.000000
vn 0.000000 1.000000 0.000000
vn 0.000000 1.000000 0.000000
s 1
g Notebook
usemtl lambert5SG
f 1/1/1 2/2/2 5/3/3 4/4/4
f 2/2/2 3/5/5 6/6/6 5/3/3
