# This file uses centimeters as units for non-parametric coordinates.

mtllib AquariumSandPH.mtl
g default
v 0.764128 -3.159274 21.946726
v 3.392928 -2.881474 22.782873
v 6.021729 -2.805489 23.619020
v 8.650530 -2.923086 24.455170
v 11.279331 -2.901647 25.291317
v 13.908132 -2.820837 26.127468
v 16.536932 -2.713279 26.963612
v 19.165733 -2.498194 27.799761
v 21.794535 -2.445604 28.635904
v 24.423336 -2.493152 29.472054
v 27.052137 -2.416788 30.308210
v 0.764128 -3.079803 17.557381
v 3.392928 -2.482557 18.226299
v 6.021729 -2.013755 18.895218
v 8.650530 -2.194787 19.564137
v 11.279331 -2.715791 20.233053
v 13.908132 -2.820837 20.901972
v 16.536932 -2.557189 21.570890
v 19.165733 -1.864283 22.239809
v 21.794535 -1.443972 22.908726
v 24.423336 -1.702663 23.577644
v 27.052137 -2.233949 24.246559
v 0.764128 -3.224887 13.168037
v 3.392928 -2.948557 13.669724
v 6.021729 -2.378947 14.171413
v 8.650530 -2.167304 14.673101
v 11.279331 -2.440444 15.174790
v 13.908132 -2.709825 15.676478
v 16.536932 -2.633074 16.178165
v 19.165733 -2.515589 16.679855
v 21.794535 -2.422710 17.181543
v 24.423336 -2.383304 17.683235
v 27.052137 -2.412343 18.184921
v 0.764128 -3.265699 8.778688
v 3.392928 -3.134245 9.113148
v 6.021729 -2.930057 9.447608
v 8.650530 -2.782288 9.782067
v 11.279331 -2.713594 10.116525
v 13.908132 -2.547494 10.450984
v 16.536932 -2.073550 10.785444
v 19.165733 -1.772801 11.119902
v 21.794535 -1.946360 11.454360
v 24.423336 -2.336919 11.788822
v 27.052137 -2.416788 12.123279
v 0.764128 -3.302477 4.389344
v 3.392928 -3.023247 4.556573
v 6.021729 -2.743049 4.723804
v 8.650530 -2.611527 4.891033
v 11.279331 -2.459656 5.058262
v 13.908132 -2.295483 5.225492
v 16.536932 -2.319713 5.392721
v 19.165733 -2.436164 5.559950
v 21.794535 -2.505423 5.727180
v 24.423336 -2.475736 5.894410
v 27.052137 -2.372555 6.061638
v 0.694125 -3.188691 -0.000001
v 3.350700 -2.870137 -0.000001
v 6.019539 -2.540694 -0.000001
v 8.650530 -2.521909 -0.000001
v 11.279331 -2.704489 -0.000001
v 13.908132 -2.641098 -0.000001
v 16.536932 -2.530747 -0.000001
v 19.165733 -2.582166 -0.000001
v 21.794535 -2.467721 -0.000001
v 24.423336 -2.076114 -0.000001
v 27.052137 -1.828909 -0.000001
v 0.460761 -3.103007 -4.389348
v 3.177687 -2.752846 -4.556577
v 5.979306 -2.451053 -4.723806
v 8.650530 -2.426861 -4.891036
v 11.279331 -2.376737 -5.058266
v 13.908132 -1.953908 -5.225495
v 16.536932 -1.537686 -5.392725
v 19.165733 -1.827289 -5.559955
v 21.794535 -2.402507 -5.727184
v 24.423336 -2.475736 -5.894413
v 27.052137 -2.372555 -6.061644
v 0.395348 -2.716883 -8.778691
v 3.151045 -2.423417 -9.113151
v 5.970962 -2.464405 -9.447610
v 8.650530 -2.730117 -9.782068
v 11.279331 -2.565470 -10.116528
v 13.908132 -1.598054 -10.450987
v 16.536932 -1.040377 -10.785446
v 19.165733 -1.501693 -11.119905
v 21.794535 -2.274400 -11.454363
v 24.423336 -2.380803 -11.788823
v 27.052137 -2.336101 -12.123280
v 0.659638 -3.036582 -13.168037
v 3.352026 -2.917619 -13.669724
v 6.021729 -2.977285 -14.171414
v 8.650530 -2.890424 -14.673103
v 11.279331 -2.569698 -15.174792
v 13.908132 -2.335064 -15.676480
v 16.536932 -2.446023 -16.178171
v 19.165733 -2.364455 -16.679859
v 21.794535 -1.533432 -17.181547
v 24.423336 -1.117298 -17.683237
v 27.052137 -1.539569 -18.184923
v 0.764128 -3.224887 -17.557384
v 3.392928 -3.144077 -18.226303
v 6.021729 -2.836933 -18.895220
v 8.650530 -1.998417 -19.564140
v 11.279331 -1.497342 -20.233057
v 13.908132 -1.836797 -20.901976
v 16.536932 -2.274216 -21.570898
v 19.165733 -1.612472 -22.239811
v 21.794535 -0.991547 -22.908730
v 24.423336 -1.351458 -23.577650
v 27.052137 -2.172540 -24.246563
v 0.764128 -3.224887 -21.946728
v 3.392928 -3.144077 -22.782875
v 6.021729 -2.986188 -23.619022
v 8.650530 -2.648031 -24.455172
v 11.279331 -2.588414 -25.291319
v 13.908132 -2.768615 -26.127468
v 16.536932 -2.705062 -26.963614
v 19.165733 -2.448728 -27.799767
v 21.794535 -2.404808 -28.635906
v 24.423336 -2.491755 -29.472059
v 27.052137 -2.416788 -30.308210
vt 0.000000 0.000000
vt 0.100000 0.000000
vt 0.200000 0.000000
vt 0.300000 0.000000
vt 0.400000 0.000000
vt 0.500000 0.000000
vt 0.600000 0.000000
vt 0.700000 0.000000
vt 0.800000 0.000000
vt 0.900000 0.000000
vt 1.000000 0.000000
vt 0.000000 0.100000
vt 0.100000 0.100000
vt 0.200000 0.100000
vt 0.300000 0.100000
vt 0.400000 0.100000
vt 0.500000 0.100000
vt 0.600000 0.100000
vt 0.700000 0.100000
vt 0.800000 0.100000
vt 0.900000 0.100000
vt 1.000000 0.100000
vt 0.000000 0.200000
vt 0.100000 0.200000
vt 0.200000 0.200000
vt 0.300000 0.200000
vt 0.400000 0.200000
vt 0.500000 0.200000
vt 0.600000 0.200000
vt 0.700000 0.200000
vt 0.800000 0.200000
vt 0.900000 0.200000
vt 1.000000 0.200000
vt 0.000000 0.300000
vt 0.100000 0.300000
vt 0.200000 0.300000
vt 0.300000 0.300000
vt 0.400000 0.300000
vt 0.500000 0.300000
vt 0.600000 0.300000
vt 0.700000 0.300000
vt 0.800000 0.300000
vt 0.900000 0.300000
vt 1.000000 0.300000
vt 0.000000 0.400000
vt 0.100000 0.400000
vt 0.200000 0.400000
vt 0.300000 0.400000
vt 0.400000 0.400000
vt 0.500000 0.400000
vt 0.600000 0.400000
vt 0.700000 0.400000
vt 0.800000 0.400000
vt 0.900000 0.400000
vt 1.000000 0.400000
vt 0.000000 0.500000
vt 0.100000 0.500000
vt 0.200000 0.500000
vt 0.300000 0.500000
vt 0.400000 0.500000
vt 0.500000 0.500000
vt 0.600000 0.500000
vt 0.700000 0.500000
vt 0.800000 0.500000
vt 0.900000 0.500000
vt 1.000000 0.500000
vt 0.000000 0.600000
vt 0.100000 0.600000
vt 0.200000 0.600000
vt 0.300000 0.600000
vt 0.400000 0.600000
vt 0.500000 0.600000
vt 0.600000 0.600000
vt 0.700000 0.600000
vt 0.800000 0.600000
vt 0.900000 0.600000
vt 1.000000 0.600000
vt 0.000000 0.700000
vt 0.100000 0.700000
vt 0.200000 0.700000
vt 0.300000 0.700000
vt 0.400000 0.700000
vt 0.500000 0.700000
vt 0.600000 0.700000
vt 0.700000 0.700000
vt 0.800000 0.700000
vt 0.900000 0.700000
vt 1.000000 0.700000
vt 0.000000 0.800000
vt 0.100000 0.800000
vt 0.200000 0.800000
vt 0.300000 0.800000
vt 0.400000 0.800000
vt 0.500000 0.800000
vt 0.600000 0.800000
vt 0.700000 0.800000
vt 0.800000 0.800000
vt 0.900000 0.800000
vt 1.000000 0.800000
vt 0.000000 0.900000
vt 0.100000 0.900000
vt 0.200000 0.900000
vt 0.300000 0.900000
vt 0.400000 0.900000
vt 0.500000 0.900000
vt 0.600000 0.900000
vt 0.700000 0.900000
vt 0.800000 0.900000
vt 0.900000 0.900000
vt 1.000000 0.900000
vt 0.000000 1.000000
vt 0.100000 1.000000
vt 0.200000 1.000000
vt 0.300000 1.000000
vt 0.400000 1.000000
vt 0.500000 1.000000
vt 0.600000 1.000000
vt 0.700000 1.000000
vt 0.800000 1.000000
vt 0.900000 1.000000
vt 1.000000 1.000000
vn -0.178567 0.982524 0.052541
vn -0.154115 0.983278 0.097024
vn -0.162987 0.986626 0.002308
vn -0.161771 0.986688 -0.016648
vn -0.047871 0.988329 0.144619
vn -0.072958 0.996493 0.040980
vn 0.045832 0.992071 0.117023
vn 0.060530 0.995973 0.066131
vn 0.026717 0.998532 0.047109
vn 0.067518 0.996598 0.047270
vn -0.045478 0.998837 0.016012
vn -0.022397 0.999604 0.017041
vn -0.144773 0.988258 0.048848
vn -0.116587 0.993180 0.000963
vn -0.153180 0.981620 0.113835
vn -0.129688 0.991544 -0.004692
vn -0.043109 0.987942 0.148700
vn -0.026198 0.999654 0.002281
vn 0.043460 0.993039 0.109478
vn 0.068290 0.997608 0.010704
vn 0.062889 0.994730 0.080980
vn 0.087943 0.995987 0.016591
vn -0.133935 0.988779 -0.066167
vn -0.106842 0.993306 -0.043920
vn -0.090805 0.992347 -0.083680
vn 0.037337 0.997831 -0.054213
vn 0.071256 0.997442 -0.005671
vn -0.025539 0.999279 0.028083
vn -0.101624 0.994229 0.034362
vn -0.074839 0.997178 0.005942
vn 0.014818 0.999260 -0.035497
vn 0.066104 0.996817 -0.044567
vn 0.077216 0.996269 -0.038545
vn -0.094525 0.995417 -0.014513
vn -0.076212 0.997066 -0.007133
vn -0.084026 0.995956 -0.031800
vn -0.026103 0.999116 -0.032956
vn -0.009829 0.999947 -0.003105
vn -0.060000 0.997901 0.024360
vn -0.080127 0.996517 0.023104
vn -0.017157 0.999819 0.008264
vn 0.046435 0.998920 -0.001711
vn 0.036434 0.999332 -0.003021
vn 0.009199 0.999956 -0.001741
vn -0.100580 0.994549 0.027512
vn -0.096846 0.995094 0.020220
vn -0.073237 0.996722 0.034387
vn -0.030989 0.999256 0.022958
vn -0.037708 0.999281 0.004038
vn -0.051740 0.998553 -0.014662
vn -0.023280 0.998886 -0.041055
vn 0.012458 0.998251 -0.057788
vn 0.009130 0.999358 -0.034655
vn -0.019280 0.999738 0.012359
vn -0.035095 0.998814 0.033755
vn -0.116223 0.992753 0.030550
vn -0.118081 0.992565 0.029520
vn -0.066244 0.997406 0.028165
vn -0.000753 0.999818 0.019040
vn -0.025177 0.999537 0.017088
vn -0.059924 0.997521 0.036880
vn -0.000977 0.998297 0.058322
vn 0.045922 0.997833 0.047117
vn -0.016089 0.999712 0.017798
vn -0.070081 0.997539 0.002166
vn -0.068988 0.997617 -0.000000
vn -0.097184 0.994374 0.042144
vn -0.115996 0.991785 0.053920
vn -0.030597 0.999460 0.011967
vn 0.005008 0.999976 -0.004790
vn -0.092887 0.995299 0.027407
vn -0.154441 0.984117 0.087532
vn -0.012837 0.993035 0.117121
vn 0.140474 0.986436 0.084915
vn 0.080048 0.996490 0.024486
vn -0.030097 0.999347 -0.019986
vn -0.047213 0.998368 -0.032137
vn -0.060560 0.997919 -0.022131
vn -0.100747 0.994911 0.001494
vn 0.006760 0.998935 -0.045650
vn -0.018869 0.998879 -0.043422
vn -0.161329 0.986510 -0.027786
vn -0.194406 0.980096 -0.040239
vn -0.020541 0.997886 -0.061664
vn 0.112047 0.993244 -0.030193
vn 0.058619 0.996921 0.052080
vn 0.015490 0.995557 0.092881
vn 0.040947 0.994381 0.097620
vn -0.042206 0.996849 -0.067167
vn -0.071941 0.994612 -0.074642
vn -0.040058 0.998940 -0.022680
vn -0.088384 0.994673 0.053041
vn -0.107261 0.992160 0.064138
vn -0.044178 0.998882 -0.016804
vn -0.008976 0.997789 -0.065851
vn -0.084326 0.996438 0.000256
vn -0.082201 0.993030 0.084469
vn 0.069050 0.994698 0.076208
vn 0.164371 0.985767 0.035295
vn -0.052880 0.998473 -0.015961
vn -0.040725 0.998792 -0.027511
vn -0.133504 0.991024 0.006920
vn -0.165373 0.986047 0.019077
vn -0.042470 0.999080 -0.005987
vn 0.065139 0.997325 -0.033178
vn -0.046445 0.998637 -0.023828
vn -0.194013 0.980696 -0.024359
vn -0.099753 0.992515 -0.070444
vn 0.092099 0.990451 -0.102593
vn 0.152746 0.983577 -0.096148
vn -0.068384 0.997612 -0.009735
vn -0.030726 0.999528 0.000000
vn -0.183128 0.981516 -0.055586
vn -0.187730 0.972955 -0.134593
vn -0.035623 0.982141 -0.184746
vn 0.037117 0.987475 -0.153346
vn -0.110282 0.986739 -0.119100
vn -0.187203 0.969072 -0.160793
vn -0.058276 0.976674 -0.206667
vn 0.073295 0.985240 -0.154696
vn 0.107414 0.987614 -0.114369
s 1
g pPlane3
usemtl initialShadingGroup
f 1/1/1 2/2/2 13/13/3 12/12/4
f 2/2/2 3/3/5 14/14/6 13/13/3
f 3/3/5 4/4/7 15/15/8 14/14/6
f 4/4/7 5/5/9 16/16/10 15/15/8
f 5/5/9 6/6/11 17/17/12 16/16/10
f 6/6/11 7/7/13 18/18/14 17/17/12
f 7/7/13 8/8/15 19/19/16 18/18/14
f 8/8/15 9/9/17 20/20/18 19/19/16
f 9/9/17 10/10/19 21/21/20 20/20/18
f 10/10/19 11/11/21 22/22/22 21/21/20
f 12/12/4 13/13/3 24/24/23 23/23/24
f 13/13/3 14/14/6 25/25/25 24/24/23
f 14/14/6 15/15/8 26/26/26 25/25/25
f 15/15/8 16/16/10 27/27/27 26/26/26
f 16/16/10 17/17/12 28/28/28 27/27/27
f 17/17/12 18/18/14 29/29/29 28/28/28
f 18/18/14 19/19/16 30/30/30 29/29/29
f 19/19/16 20/20/18 31/31/31 30/30/30
f 20/20/18 21/21/20 32/32/32 31/31/31
f 21/21/20 22/22/22 33/33/33 32/32/32
f 23/23/24 24/24/23 35/35/34 34/34/35
f 24/24/23 25/25/25 36/36/36 35/35/34
f 25/25/25 26/26/26 37/37/37 36/36/36
f 26/26/26 27/27/27 38/38/38 37/37/37
f 27/27/27 28/28/28 39/39/39 38/38/38
f 28/28/28 29/29/29 40/40/40 39/39/39
f 29/29/29 30/30/30 41/41/41 40/40/40
f 30/30/30 31/31/31 42/42/42 41/41/41
f 31/31/31 32/32/32 43/43/43 42/42/42
f 32/32/32 33/33/33 44/44/44 43/43/43
f 34/34/35 35/35/34 46/46/45 45/45/46
f 35/35/34 36/36/36 47/47/47 46/46/45
f 36/36/36 37/37/37 48/48/48 47/47/47
f 37/37/37 38/38/38 49/49/49 48/48/48
f 38/38/38 39/39/39 50/50/50 49/49/49
f 39/39/39 40/40/40 51/51/51 50/50/50
f 40/40/40 41/41/41 52/52/52 51/51/51
f 41/41/41 42/42/42 53/53/53 52/52/52
f 42/42/42 43/43/43 54/54/54 53/53/53
f 43/43/43 44/44/44 55/55/55 54/54/54
f 45/45/46 46/46/45 57/57/56 56/56/57
f 46/46/45 47/47/47 58/58/58 57/57/56
f 47/47/47 48/48/48 59/59/59 58/58/58
f 48/48/48 49/49/49 60/60/60 59/59/59
f 49/49/49 50/50/50 61/61/61 60/60/60
f 50/50/50 51/51/51 62/62/62 61/61/61
f 51/51/51 52/52/52 63/63/63 62/62/62
f 52/52/52 53/53/53 64/64/64 63/63/63
f 53/53/53 54/54/54 65/65/65 64/64/64
f 54/54/54 55/55/55 66/66/66 65/65/65
f 56/56/57 57/57/56 68/68/67 67/67/68
f 57/57/56 58/58/58 69/69/69 68/68/67
f 58/58/58 59/59/59 70/70/70 69/69/69
f 59/59/59 60/60/60 71/71/71 70/70/70
f 60/60/60 61/61/61 72/72/72 71/71/71
f 61/61/61 62/62/62 73/73/73 72/72/72
f 62/62/62 63/63/63 74/74/74 73/73/73
f 63/63/63 64/64/64 75/75/75 74/74/74
f 64/64/64 65/65/65 76/76/76 75/75/75
f 65/65/65 66/66/66 77/77/77 76/76/76
f 67/67/68 68/68/67 79/79/78 78/78/79
f 68/68/67 69/69/69 80/80/80 79/79/78
f 69/69/69 70/70/70 81/81/81 80/80/80
f 70/70/70 71/71/71 82/82/82 81/81/81
f 71/71/71 72/72/72 83/83/83 82/82/82
f 72/72/72 73/73/73 84/84/84 83/83/83
f 73/73/73 74/74/74 85/85/85 84/84/84
f 74/74/74 75/75/75 86/86/86 85/85/85
f 75/75/75 76/76/76 87/87/87 86/86/86
f 76/76/76 77/77/77 88/88/88 87/87/87
f 78/78/79 79/79/78 90/90/89 89/89/90
f 79/79/78 80/80/80 91/91/91 90/90/89
f 80/80/80 81/81/81 92/92/92 91/91/91
f 81/81/81 82/82/82 93/93/93 92/92/92
f 82/82/82 83/83/83 94/94/94 93/93/93
f 83/83/83 84/84/84 95/95/95 94/94/94
f 84/84/84 85/85/85 96/96/96 95/95/95
f 85/85/85 86/86/86 97/97/97 96/96/96
f 86/86/86 87/87/87 98/98/98 97/97/97
f 87/87/87 88/88/88 99/99/99 98/98/98
f 89/89/90 90/90/89 101/101/100 100/100/101
f 90/90/89 91/91/91 102/102/102 101/101/100
f 91/91/91 92/92/92 103/103/103 102/102/102
f 92/92/92 93/93/93 104/104/104 103/103/103
f 93/93/93 94/94/94 105/105/105 104/104/104
f 94/94/94 95/95/95 106/106/106 105/105/105
f 95/95/95 96/96/96 107/107/107 106/106/106
f 96/96/96 97/97/97 108/108/108 107/107/107
f 97/97/97 98/98/98 109/109/109 108/108/108
f 98/98/98 99/99/99 110/110/110 109/109/109
f 100/100/101 101/101/100 112/112/111 111/111/112
f 101/101/100 102/102/102 113/113/113 112/112/111
f 102/102/102 103/103/103 114/114/114 113/113/113
f 103/103/103 104/104/104 115/115/115 114/114/114
f 104/104/104 105/105/105 116/116/116 115/115/115
f 105/105/105 106/106/106 117/117/117 116/116/116
f 106/106/106 107/107/107 118/118/118 117/117/117
f 107/107/107 108/108/108 119/119/119 118/118/118
f 108/108/108 109/109/109 120/120/120 119/119/119
f 109/109/109 110/110/110 121/121/121 120/120/120
