# This file uses centimeters as units for non-parametric coordinates.

mtllib Aquariumpart2PH.mtl
g default
v 12.024720 2.767295 -12.557939
v 11.077482 4.626353 -12.557939
v 9.602125 6.101710 -12.557939
v 7.743066 7.048947 -12.557939
v 5.682284 7.375343 -12.557939
v 3.621502 7.048947 -12.557939
v 1.762444 6.101709 -12.557939
v 0.287088 4.626352 -12.557939
v -0.660149 2.767294 -12.557939
v -0.986545 0.706513 -12.557939
v -0.660149 -1.354269 -12.557939
v 0.287088 -3.213327 -12.557939
v 1.762445 -4.688683 -12.557939
v 3.621503 -5.635920 -12.557939
v 5.682284 -5.962316 -12.557939
v 7.743065 -5.635920 -12.557939
v 9.602123 -4.688683 -12.557939
v 11.077479 -3.213326 -12.557939
v 12.024716 -1.354268 -12.557939
v 12.351112 0.706513 -12.557939
v 12.024720 2.767295 12.557939
v 11.077482 4.626353 12.557939
v 9.602125 6.101710 12.557939
v 7.743066 7.048947 12.557939
v 5.682284 7.375343 12.557939
v 3.621502 7.048947 12.557939
v 1.762444 6.101709 12.557939
v 0.287088 4.626352 12.557939
v -0.660149 2.767294 12.557939
v -0.986545 0.706513 12.557939
v -0.660149 -1.354269 12.557939
v 0.287088 -3.213327 12.557939
v 1.762445 -4.688683 12.557939
v 3.621503 -5.635920 12.557939
v 5.682284 -5.962316 12.557939
v 7.743065 -5.635920 12.557939
v 9.602123 -4.688683 12.557939
v 11.077479 -3.213326 12.557939
v 12.024716 -1.354268 12.557939
v 12.351112 0.706513 12.557939
v 5.682284 0.706513 -12.557939
v 5.682284 0.706513 12.557939
vt 0.648603 0.107966
vt 0.626409 0.064408
vt 0.591842 0.029841
vt 0.548284 0.007647
vt 0.500000 -0.000000
vt 0.451716 0.007647
vt 0.408159 0.029841
vt 0.373591 0.064409
vt 0.351397 0.107966
vt 0.343750 0.156250
vt 0.351397 0.204534
vt 0.373591 0.248091
vt 0.408159 0.282659
vt 0.451716 0.304853
vt 0.500000 0.312500
vt 0.548284 0.304853
vt 0.591841 0.282659
vt 0.626409 0.248091
vt 0.648603 0.204534
vt 0.656250 0.156250
vt 0.375000 0.312500
vt 0.387500 0.312500
vt 0.512500 0.312500
vt 0.525000 0.312500
vt 0.537500 0.312500
vt 0.550000 0.312500
vt 0.562500 0.312500
vt 0.575000 0.312500
vt 0.587500 0.312500
vt 0.600000 0.312500
vt 0.612500 0.312500
vt 0.625000 0.312500
vt 0.375000 0.687500
vt 0.387500 0.687500
vt 0.512500 0.687500
vt 0.525000 0.687500
vt 0.537500 0.687500
vt 0.550000 0.687500
vt 0.562500 0.687500
vt 0.575000 0.687500
vt 0.587500 0.687500
vt 0.600000 0.687500
vt 0.612500 0.687500
vt 0.625000 0.687500
vt 0.648603 0.795466
vt 0.626409 0.751908
vt 0.591842 0.717341
vt 0.548284 0.695147
vt 0.500000 0.687500
vt 0.451716 0.695147
vt 0.408159 0.717341
vt 0.373591 0.751909
vt 0.351397 0.795466
vt 0.343750 0.843750
vt 0.351397 0.892034
vt 0.373591 0.935591
vt 0.408159 0.970159
vt 0.451716 0.992353
vt 0.500000 1.000000
vt 0.548284 0.992353
vt 0.591841 0.970159
vt 0.626409 0.935591
vt 0.648603 0.892034
vt 0.656250 0.843750
vt 0.500000 0.156250
vt 0.500000 0.843750
vn -0.944340 -0.306833 0.118641
vn -0.944340 -0.306833 -0.118641
vn -0.867179 -0.441850 -0.229716
vn -0.867179 -0.441850 0.229716
vn 0.688197 0.688197 0.229716
vn 0.688197 0.688197 -0.229716
vn 0.583634 0.803303 -0.118641
vn 0.583634 0.803303 0.118641
vn 0.306834 0.944339 -0.118641
vn 0.306834 0.944339 0.118641
vn -0.000000 0.992937 -0.118641
vn -0.000000 0.992937 0.118641
vn -0.306835 0.944339 -0.118641
vn -0.306835 0.944339 0.118641
vn -0.583634 0.803303 -0.118641
vn -0.583634 0.803303 0.118641
vn -0.803303 0.583634 -0.118641
vn -0.803303 0.583634 0.118641
vn -0.944339 0.306834 -0.118641
vn -0.944339 0.306834 0.118641
vn -0.992937 0.000001 -0.118641
vn -0.992937 0.000001 0.118641
vn 0.000000 -0.000000 1.000000
vn 0.000000 -0.000000 1.000000
vn 0.000000 -0.000000 1.000000
vn 0.000000 -0.000000 1.000000
vn 0.000000 -0.000000 1.000000
vn 0.000000 -0.000000 1.000000
vn 0.000000 -0.000000 1.000000
vn 0.000000 -0.000000 1.000000
vn 0.000000 -0.000000 1.000000
vn 0.000000 -0.000000 1.000000
vn 0.000000 0.000000 -1.000000
vn 0.000000 0.000000 -1.000000
vn 0.000000 0.000000 -1.000000
vn 0.000000 0.000000 -1.000000
vn 0.000000 0.000000 -1.000000
vn 0.000000 0.000000 -1.000000
vn 0.000000 0.000000 -1.000000
vn 0.000000 0.000000 -1.000000
vn 0.000000 0.000000 -1.000000
vn 0.000000 0.000000 -1.000000
s 1
g pCylinder23
usemtl initialShadingGroup
f 1/21/1 21/33/2 22/34/3 2/22/4
f 12/23/5 32/35/6 33/36/7 13/24/8
f 13/24/8 33/36/7 34/37/9 14/25/10
f 14/25/10 34/37/9 35/38/11 15/26/12
f 15/26/12 35/38/11 36/39/13 16/27/14
f 16/27/14 36/39/13 37/40/15 17/28/16
f 17/28/16 37/40/15 38/41/17 18/29/18
f 18/29/18 38/41/17 39/42/19 19/30/20
f 19/30/20 39/42/19 40/43/21 20/31/22
f 20/31/22 40/43/21 21/44/2 1/32/1
f 2/2/4 41/65/23 1/1/1
f 3/3/24 41/65/23 2/2/4
f 4/4/25 41/65/23 3/3/24
f 5/5/26 41/65/23 4/4/25
f 6/6/27 41/65/23 5/5/26
f 7/7/28 41/65/23 6/6/27
f 8/8/29 41/65/23 7/7/28
f 9/9/30 41/65/23 8/8/29
f 10/10/31 41/65/23 9/9/30
f 11/11/32 41/65/23 10/10/31
f 12/12/5 41/65/23 11/11/32
f 13/13/8 41/65/23 12/12/5
f 14/14/10 41/65/23 13/13/8
f 15/15/12 41/65/23 14/14/10
f 16/16/14 41/65/23 15/15/12
f 17/17/16 41/65/23 16/16/14
f 18/18/18 41/65/23 17/17/16
f 19/19/20 41/65/23 18/18/18
f 20/20/22 41/65/23 19/19/20
f 1/1/1 41/65/23 20/20/22
f 21/63/2 42/66/33 22/62/3
f 22/62/3 42/66/33 23/61/34
f 23/61/34 42/66/33 24/60/35
f 24/60/35 42/66/33 25/59/36
f 25/59/36 42/66/33 26/58/37
f 26/58/37 42/66/33 27/57/38
f 27/57/38 42/66/33 28/56/39
f 28/56/39 42/66/33 29/55/40
f 29/55/40 42/66/33 30/54/41
f 30/54/41 42/66/33 31/53/42
f 31/53/42 42/66/33 32/52/6
f 32/52/6 42/66/33 33/51/7
f 33/51/7 42/66/33 34/50/9
f 34/50/9 42/66/33 35/49/11
f 35/49/11 42/66/33 36/48/13
f 36/48/13 42/66/33 37/47/15
f 37/47/15 42/66/33 38/46/17
f 38/46/17 42/66/33 39/45/19
f 39/45/19 42/66/33 40/64/21
f 40/64/21 42/66/33 21/63/2
