# This file uses centimeters as units for non-parametric coordinates.

mtllib AquariumPH.mtl
g default
v 4.095202 -3.407426 8.838584
v 3.961051 -3.407426 4.544195
v 3.290298 -3.407426 1.451524
v 1.574109 -3.416439 -2.267183
v 0.772247 -3.523523 -8.587533
v 0.793848 -3.524398 -5.135066
v 4.684048 1.494536 8.838575
v 5.347662 2.079239 8.838578
v 5.220459 2.190400 4.601051
v 4.491022 1.539782 4.663483
v 5.802551 2.168102 8.838578
v 6.127513 2.272985 4.550993
v 6.745715 2.086526 8.838575
v 6.745717 2.168102 4.544195
v 4.350365 2.190400 0.886468
v 3.745956 1.539782 1.311869
v 5.898956 2.272985 0.482691
v 6.745716 2.168102 0.423415
v 3.413836 2.190400 -2.599283
v 2.392094 1.539782 -2.207477
v 4.896917 2.272985 -3.319928
v 6.745715 2.168102 -3.446612
v 1.842162 1.539782 -5.134594
v 3.178543 2.190400 -5.332760
v 3.111655 2.079239 -8.587531
v 1.865008 1.494536 -8.587530
v 4.734176 2.272985 -5.736217
v 4.768160 2.168102 -8.587532
v 6.745715 2.168102 -5.817054
v 6.745713 2.086526 -8.587530
v 4.213533 0.164117 8.838578
v 3.969052 0.054187 4.672756
v 3.236813 0.054187 1.373270
v 1.814163 0.054187 -2.160830
v 1.210019 0.060341 -5.112108
v 1.376788 0.167463 -8.587532
v 0.783048 -3.523961 -6.530514
v 1.051129 -3.534819 -3.701124
v 4.135763 -1.451590 8.838578
v 4.103203 0.054187 6.604775
v 3.893976 -1.517995 4.672757
v 3.700751 0.054187 2.997859
v 3.161736 -1.517995 1.373270
v 2.515752 0.054187 -0.407829
v 1.735898 -1.516681 -2.160830
v 1.119199 -1.334641 -8.587532
v 0.941524 -1.402240 -5.112108
v 1.137539 0.060401 -6.630488
v 1.405840 0.060179 -3.701124
v 4.446843 1.099568 8.838578
v 4.194280 0.991871 4.672757
v 3.462040 0.991871 1.373270
v 2.039391 0.991871 -2.160830
v 1.438046 0.991871 -5.112108
v 1.575302 1.099568 -8.587532
v 4.929255 1.745754 8.838583
v 4.991372 1.812650 8.838578
v 5.413787 2.190400 6.604775
v 4.816959 1.942646 4.635666
v 4.632067 1.539782 6.604775
v 5.552552 2.168102 8.838578
v 6.008506 2.272985 6.604775
v 5.682635 2.272985 4.571386
v 6.252036 2.168102 8.838578
v 6.745716 2.168102 6.604775
v 6.479427 2.272985 4.544196
v 4.812221 2.190400 2.711037
v 3.997095 1.942646 1.127669
v 4.210576 1.539782 2.960769
v 6.116632 2.272985 2.510806
v 5.025614 2.272985 0.654069
v 6.745716 2.168102 2.483615
v 6.431355 2.272985 0.424553
v 3.841384 2.190400 -0.920919
v 2.849595 1.942646 -2.347419
v 3.053913 1.539782 -0.467978
v 5.382812 2.272985 -1.534872
v 4.086760 2.272985 -2.981699
v 6.745716 2.168102 -1.636027
v 5.916719 2.272985 -3.439232
v 2.453902 1.942646 -5.202053
v 3.142228 2.190400 -6.782512
v 2.344564 1.812650 -8.587532
v 1.774216 1.539782 -6.878475
v 3.921359 2.272985 -5.544992
v 4.727055 2.272985 -7.042866
v 3.889175 2.168102 -8.587531
v 5.824806 2.272985 -5.806901
v 6.745715 2.168102 -7.154923
v 5.866753 2.168102 -8.587531
v 3.230983 2.190400 -4.036782
v 2.018150 1.539782 -3.735330
v 4.740301 2.272985 -4.650522
v 6.745715 2.168102 -4.760245
v 4.028127 -3.407426 6.604775
v 3.625674 -3.407426 2.997860
v 2.440676 -3.407426 -0.407829
v 5.021955 1.942646 6.604775
v 5.707110 2.272985 6.604775
v 6.396451 2.272985 6.604775
v 4.463758 1.942646 2.849498
v 5.450109 2.272985 2.592376
v 6.508594 2.272985 2.483615
v 3.392103 1.942646 -0.648425
v 4.488806 2.272985 -1.257211
v 6.181889 2.272985 -1.631473
v 2.399558 1.942646 -6.754545
v 3.902865 2.272985 -6.919719
v 5.823203 2.272985 -7.097027
v 2.570388 1.942646 -3.837950
v 3.940337 2.272985 -4.359629
v 5.825209 2.272985 -4.753490
v 4.028127 -1.517995 6.604775
v 3.625674 -1.517995 2.997860
v 2.440676 -1.517995 -0.407829
v 0.869103 -1.399306 -6.631063
v 1.137185 -1.410164 -3.701124
v 4.328431 0.991871 6.604775
v 3.925978 0.991871 2.997860
v 2.740981 0.991871 -0.407829
v 1.633867 0.991871 -3.701124
v 1.365566 0.991871 -6.679737
v 4.667926 1.422661 8.838583
vt 0.434854 0.001871
vt 0.434854 0.167108
vt 0.434854 0.291109
vt 0.434854 0.440210
vt 0.434854 0.662822
vt 0.434854 0.555198
vt 0.123911 0.001871
vt 0.705211 0.001871
vt 0.142300 0.001871
vt 0.928984 0.937170
vt 0.138840 0.164829
vt 0.118532 0.167108
vt 0.705211 0.167108
vt 0.164977 0.001871
vt 0.178612 0.166836
vt 0.211324 0.001871
vt 0.210480 0.167108
vt 0.128062 0.313765
vt 0.091638 0.291109
vt 0.705211 0.291109
vt 0.180699 0.329954
vt 0.210732 0.332346
vt 0.093581 0.453526
vt 0.023507 0.440210
vt 0.705211 0.440210
vt 0.152577 0.482420
vt 0.209682 0.497584
vt 0.002859 0.555198
vt 0.705211 0.555198
vt 0.084147 0.563125
vt 0.083908 0.662822
vt 0.001992 0.662822
vt 0.705211 0.662822
vt 0.147376 0.579301
vt 0.147026 0.662822
vt 0.209682 0.582936
vt 0.209682 0.662822
vt 0.628968 0.001871
vt 0.614234 0.161954
vt 0.614234 0.294247
vt 0.614234 0.435946
vt 0.614234 0.554278
vt 0.628968 0.662822
vt 0.130097 0.084489
vt 0.156003 0.084489
vt 0.191968 0.084489
vt 0.118899 0.235057
vt 0.159592 0.245367
vt 0.198538 0.249727
vt 0.083679 0.375306
vt 0.139644 0.399716
vt 0.189854 0.414722
vt 0.043883 0.610798
vt 0.116199 0.617615
vt 0.178370 0.622761
vt 0.050733 0.503190
vt 0.117702 0.524107
vt 0.178401 0.539899
vt 0.531911 0.084490
vt 0.531911 0.229109
vt 0.531911 0.365660
vt 0.531911 0.609010
vt 0.531911 0.497704
vt 0.667089 0.084490
vt 0.667089 0.229109
vt 0.667089 0.365660
vt 0.667089 0.497704
vt 0.667089 0.609010
vt 0.919789 0.899048
vt 0.133105 0.001871
vt 0.919789 0.937170
vt 0.141011 0.084489
vt 0.125793 0.163441
vt 0.121221 0.084489
vt 0.705211 0.084490
vt 0.153638 0.001871
vt 0.173510 0.084489
vt 0.158083 0.166018
vt 0.188151 0.001871
vt 0.210902 0.084489
vt 0.195520 0.167108
vt 0.135979 0.240609
vt 0.105999 0.304094
vt 0.105085 0.229109
vt 0.705211 0.229109
vt 0.182768 0.248637
vt 0.155216 0.323083
vt 0.210606 0.249727
vt 0.197744 0.332285
vt 0.110724 0.386232
vt 0.061928 0.443428
vt 0.057573 0.365660
vt 0.705211 0.365660
vt 0.167125 0.410848
vt 0.123572 0.468859
vt 0.210207 0.414965
vt 0.181273 0.487204
vt 0.046062 0.557884
vt 0.082691 0.613396
vt 0.042950 0.662822
vt 0.002425 0.609010
vt 0.705211 0.609010
vt 0.116941 0.571634
vt 0.147171 0.621416
vt 0.115467 0.662822
vt 0.178385 0.582015
vt 0.209682 0.622879
vt 0.178354 0.662822
vt 0.086250 0.511162
vt 0.013183 0.497704
vt 0.705211 0.497704
vt 0.147586 0.535770
vt 0.209682 0.540260
vt 0.434854 0.084490
vt 0.434854 0.229109
vt 0.434854 0.365660
vt 0.434854 0.609010
vt 0.434854 0.497704
vt 0.531911 0.001871
vt 0.614234 0.084490
vt 0.531911 0.161954
vt 0.614234 0.229109
vt 0.531911 0.294247
vt 0.614234 0.365660
vt 0.531911 0.435946
vt 0.531911 0.662822
vt 0.531911 0.554278
vt 0.614234 0.609010
vt 0.614234 0.497704
vt 0.667089 0.001871
vt 0.667089 0.161954
vt 0.667089 0.294247
vt 0.667089 0.435946
vt 0.667089 0.554278
vt 0.667089 0.662822
vt 0.929520 0.899048
vn -0.802034 0.596597 0.028531
vn -0.651688 0.757744 0.033575
vn -0.645403 0.762496 0.045331
vn -0.809974 0.584637 0.046278
vn -0.485341 0.873754 0.031590
vn -0.428448 0.902982 0.032493
vn -0.345465 0.937196 0.048147
vn -0.658238 0.747145 0.092183
vn -0.828206 0.551332 0.100539
vn -0.168981 0.984864 0.038585
vn -0.127664 0.991606 0.020468
vn 0.000000 0.998900 0.046901
vn -0.000000 0.999716 0.023827
vn -0.000000 1.000000 0.000000
vn -0.084046 0.996420 0.009126
vn 0.106009 0.993227 0.047561
vn 0.129124 0.991220 0.028466
vn 0.215734 0.975288 0.047678
vn 0.259765 0.965177 0.030923
vn 0.351062 0.936340 0.004776
vn 0.160766 0.986990 0.002204
vn -0.669677 0.726286 0.155053
vn -0.832109 0.522816 0.185088
vn -0.297424 0.952358 0.067479
vn -0.265814 0.961102 0.075009
vn -0.630766 0.750973 0.195384
vn -0.801212 0.536713 0.264572
vn -0.059558 0.998153 0.011941
vn -0.000000 1.000000 0.000000
vn -0.000000 1.000000 0.000000
vn -0.049310 0.998702 0.012797
vn 0.155024 0.987910 -0.000918
vn 0.369545 0.929211 -0.002156
vn 0.281388 0.959529 -0.011177
vn 0.115508 0.993296 -0.004690
vn -0.562041 0.805285 0.188747
vn -0.755963 0.588679 0.286315
vn -0.247406 0.966262 0.071618
vn -0.239729 0.969483 0.051312
vn -0.509558 0.849594 0.136162
vn -0.727539 0.647161 0.227748
vn -0.048392 0.998749 0.012614
vn -0.000000 1.000000 -0.000000
vn 0.000000 1.000000 -0.000000
vn -0.051463 0.998635 0.008889
vn 0.077340 0.996991 -0.005185
vn 0.183941 0.982861 -0.012246
vn 0.134569 0.990875 -0.007670
vn 0.057458 0.998343 -0.003212
vn -0.687566 0.724145 0.053547
vn -0.446492 0.894383 0.026897
vn -0.430354 0.902483 -0.017899
vn -0.681850 0.731287 -0.017318
vn -0.224727 0.974381 0.008935
vn -0.222694 0.974484 -0.028077
vn -0.226523 0.972289 -0.057798
vn -0.427711 0.902436 -0.051688
vn -0.677907 0.733267 -0.052562
vn -0.055378 0.998465 0.001275
vn -0.057933 0.997720 -0.034610
vn 0.000000 1.000000 -0.000000
vn -0.001775 0.999295 -0.037512
vn -0.003035 0.997727 -0.067315
vn -0.060366 0.996199 -0.062798
vn 0.051945 0.998650 -0.000022
vn 0.047174 0.998268 -0.035151
vn 0.113115 0.993582 -0.000048
vn 0.106467 0.993750 -0.033539
vn 0.100790 0.992984 -0.061839
vn 0.044770 0.996825 -0.065840
vn -0.470904 0.879500 0.068772
vn -0.706407 0.695779 0.129928
vn -0.233018 0.972182 0.023777
vn -0.055258 0.998466 0.003625
vn 0.000000 1.000000 -0.000000
vn 0.051671 0.998664 -0.000987
vn 0.116332 0.993208 -0.002247
vn -0.993301 -0.021494 0.113537
vn -0.999014 -0.003482 0.044260
vn -0.998559 0.019409 0.050029
vn -0.993939 0.009843 0.109495
vn -0.999187 0.010540 0.038918
vn -0.998706 0.027833 0.042575
vn -0.991449 0.123006 0.043573
vn -0.991495 0.117785 0.055352
vn -0.986826 0.118362 0.110293
vn -0.945163 -0.025413 0.325609
vn -0.976424 -0.025821 0.214312
vn -0.976451 0.007686 0.215605
vn -0.943808 0.006650 0.330427
vn -0.969507 0.116430 0.215638
vn -0.938233 0.112753 0.327117
vn -0.925998 0.038124 0.375600
vn -0.917602 0.002450 0.397494
vn -0.921879 0.021248 0.386894
vn -0.929827 0.052677 0.364207
vn -0.921890 0.110569 0.371340
vn -0.934073 0.130057 0.332556
vn -0.993478 0.098385 -0.057638
vn -0.996584 0.079992 -0.020548
vn -0.992258 0.120091 -0.031645
vn -0.988102 0.130270 -0.081756
vn -0.994244 0.054565 0.092209
vn -0.990030 0.106659 0.092002
vn -0.975227 0.202375 0.089308
vn -0.979610 0.196698 -0.040924
vn -0.975243 0.192441 -0.108942
vn -0.965495 0.051116 0.255355
vn -0.965062 0.089839 0.246141
vn -0.959872 0.175638 0.218625
vn -0.941971 0.332051 0.049330
vn -0.937581 0.331449 0.105279
vn -0.940071 0.339292 0.033883
vn -0.922970 0.326192 0.204268
vn -0.894050 0.324973 0.308329
vn -0.875928 0.332312 0.349740
vn -0.888346 0.350745 0.296345
vn -0.909079 0.374096 0.183377
vn -0.915704 0.393630 0.080881
vn -0.926751 0.374840 -0.025063
vn -0.925223 0.369725 -0.085244
vn -0.000712 0.000628 1.000000
vn -0.000712 0.000628 1.000000
s 1
g Aquarium
usemtl initialShadingGroup
f 7/7/1 57/70/2 98/44/3 60/74/4
f 57/70/2 8/9/5 58/72/6 98/44/3
f 98/44/3 58/72/6 9/11/7 59/73/8
f 60/74/4 98/44/3 59/73/8 10/12/9
f 8/9/5 61/76/10 99/45/11 58/72/6
f 61/76/10 11/14/12 62/77/13 99/45/11
f 99/45/11 62/77/13 12/15/14 63/78/15
f 58/72/6 99/45/11 63/78/15 9/11/7
f 11/14/12 64/79/16 100/46/17 62/77/13
f 64/79/16 13/16/18 65/80/19 100/46/17
f 100/46/17 65/80/19 14/17/20 66/81/21
f 62/77/13 100/46/17 66/81/21 12/15/14
f 10/12/9 59/73/8 101/47/22 69/84/23
f 59/73/8 9/11/7 67/82/24 101/47/22
f 101/47/22 67/82/24 15/18/25 68/83/26
f 69/84/23 101/47/22 68/83/26 16/19/27
f 9/11/7 63/78/15 102/48/28 67/82/24
f 63/78/15 12/15/14 70/86/29 102/48/28
f 102/48/28 70/86/29 17/21/30 71/87/31
f 67/82/24 102/48/28 71/87/31 15/18/25
f 12/15/14 66/81/21 103/49/32 70/86/29
f 66/81/21 14/17/20 72/88/33 103/49/32
f 103/49/32 72/88/33 18/22/34 73/89/35
f 70/86/29 103/49/32 73/89/35 17/21/30
f 16/19/27 68/83/26 104/50/36 76/92/37
f 68/83/26 15/18/25 74/90/38 104/50/36
f 104/50/36 74/90/38 19/23/39 75/91/40
f 76/92/37 104/50/36 75/91/40 20/24/41
f 15/18/25 71/87/31 105/51/42 74/90/38
f 71/87/31 17/21/30 77/94/43 105/51/42
f 105/51/42 77/94/43 21/26/44 78/95/45
f 74/90/38 105/51/42 78/95/45 19/23/39
f 17/21/30 73/89/35 106/52/46 77/94/43
f 73/89/35 18/22/34 79/96/47 106/52/46
f 106/52/46 79/96/47 22/27/48 80/97/49
f 77/94/43 106/52/46 80/97/49 21/26/44
f 23/28/50 81/98/51 107/53/52 84/101/53
f 81/98/51 24/30/54 82/99/55 107/53/52
f 107/53/52 82/99/55 25/31/56 83/100/57
f 84/101/53 107/53/52 83/100/57 26/32/58
f 24/30/54 85/103/59 108/54/60 82/99/55
f 85/103/59 27/34/61 86/104/62 108/54/60
f 108/54/60 86/104/62 28/35/63 87/105/64
f 82/99/55 108/54/60 87/105/64 25/31/56
f 27/34/61 88/106/65 109/55/66 86/104/62
f 88/106/65 29/36/67 89/107/68 109/55/66
f 109/55/66 89/107/68 30/37/69 90/108/70
f 86/104/62 109/55/66 90/108/70 28/35/63
f 20/24/41 75/91/40 110/56/71 92/110/72
f 75/91/40 19/23/39 91/109/73 110/56/71
f 110/56/71 91/109/73 24/30/54 81/98/51
f 92/110/72 110/56/71 81/98/51 23/28/50
f 19/23/39 78/95/45 111/57/74 91/109/73
f 78/95/45 21/26/44 93/112/75 111/57/74
f 111/57/74 93/112/75 27/34/61 85/103/59
f 91/109/73 111/57/74 85/103/59 24/30/54
f 21/26/44 80/97/49 112/58/76 93/112/75
f 80/97/49 22/27/48 94/113/77 112/58/76
f 112/58/76 94/113/77 29/36/67 88/106/65
f 93/112/75 112/58/76 88/106/65 27/34/61
f 2/2/78 95/114/79 113/59/80 41/121/81
f 95/114/79 1/1/82 39/119/83 113/59/80
f 113/59/80 39/119/83 31/38/84 40/120/85
f 41/121/81 113/59/80 40/120/85 32/39/86
f 3/3/87 96/115/88 114/60/89 43/123/90
f 96/115/88 2/2/78 41/121/81 114/60/89
f 114/60/89 41/121/81 32/39/86 42/122/91
f 43/123/90 114/60/89 42/122/91 33/40/92
f 4/4/93 97/116/94 115/61/95 45/125/96
f 97/116/94 3/3/87 43/123/90 115/61/95
f 115/61/95 43/123/90 33/40/92 44/124/97
f 45/125/96 115/61/95 44/124/97 34/41/98
f 5/5/99 37/117/100 116/62/101 46/126/102
f 37/117/100 6/6/103 47/127/104 116/62/101
f 116/62/101 47/127/104 35/42/105 48/128/106
f 46/126/102 116/62/101 48/128/106 36/43/107
f 6/6/103 38/118/108 117/63/109 47/127/104
f 38/118/108 4/4/93 45/125/96 117/63/109
f 117/63/109 45/125/96 34/41/98 49/129/110
f 47/127/104 117/63/109 49/129/110 35/42/105
f 32/39/86 40/120/85 118/64/111 51/131/112
f 40/120/85 31/38/84 50/130/113 118/64/111
f 118/64/111 50/130/113 7/8/1 60/75/4
f 51/131/112 118/64/111 60/75/4 10/13/9
f 33/40/92 42/122/91 119/65/114 52/132/115
f 42/122/91 32/39/86 51/131/112 119/65/114
f 119/65/114 51/131/112 10/13/9 69/85/23
f 52/132/115 119/65/114 69/85/23 16/20/27
f 34/41/98 44/124/97 120/66/116 53/133/117
f 44/124/97 33/40/92 52/132/115 120/66/116
f 120/66/116 52/132/115 16/20/27 76/93/37
f 53/133/117 120/66/116 76/93/37 20/25/41
f 35/42/105 49/129/110 121/67/118 54/134/119
f 49/129/110 34/41/98 53/133/117 121/67/118
f 121/67/118 53/133/117 20/25/41 92/111/72
f 54/134/119 121/67/118 92/111/72 23/29/50
f 36/43/107 48/128/106 122/68/120 55/135/121
f 48/128/106 35/42/105 54/134/119 122/68/120
f 122/68/120 54/134/119 23/29/50 84/102/53
f 55/135/121 122/68/120 84/102/53 26/33/58
f 123/69/122 56/136/123 8/10/5 57/71/2
