# This file uses centimeters as units for non-parametric coordinates.

mtllib Bucket.mtl
g default
v 1.221797 0.696210 -0.396986
v 1.039323 0.696210 -0.755112
v 0.755112 0.696210 -1.039323
v 0.396986 0.696210 -1.221797
v 0.000000 0.696210 -1.284674
v -0.396986 0.696210 -1.221797
v -0.755112 0.696210 -1.039323
v -1.039323 0.696210 -0.755112
v -1.221797 0.696210 -0.396986
v -1.284673 0.696210 0.000000
v -1.221797 0.696210 0.396986
v -1.039322 0.696210 0.755112
v -0.755112 0.696210 1.039322
v -0.396986 0.696210 1.221797
v -0.000000 0.696210 1.284673
v 0.396986 0.696210 1.221797
v 0.755112 0.696210 1.039322
v 1.039322 0.696210 0.755112
v 1.221797 0.696210 0.396986
v 1.284673 0.696210 0.000000
v 0.000000 0.696210 0.000000
v 0.938042 0.696210 -0.304788
v 0.797946 0.696210 -0.579742
v 0.579742 0.696210 -0.797946
v 0.304788 0.696210 -0.938042
v -0.000000 0.696210 -0.986316
v -0.304788 0.696210 -0.938042
v -0.579742 0.696210 -0.797946
v -0.797946 0.696210 -0.579742
v -0.938042 0.696210 -0.304788
v -0.986315 0.696210 -0.000000
v -0.938042 0.696210 0.304788
v -0.797946 0.696210 0.579742
v -0.579742 0.696210 0.797946
v -0.304788 0.696210 0.938042
v -0.000000 0.696210 0.986315
v 0.304788 0.696210 0.938042
v 0.579741 0.696210 0.797946
v 0.797946 0.696210 0.579741
v 0.938042 0.696210 0.304788
v 0.986315 0.696210 -0.000000
v 0.527995 0.696210 -0.171556
v 0.449139 0.696210 -0.326319
v -0.000000 0.696210 -0.000000
v 0.326319 0.696210 -0.449139
v 0.171556 0.696210 -0.527995
v -0.000000 0.696210 -0.555167
v -0.171556 0.696210 -0.527995
v -0.326319 0.696210 -0.449139
v -0.449139 0.696210 -0.326319
v -0.527995 0.696210 -0.171556
v -0.555166 0.696210 -0.000000
v -0.527995 0.696210 0.171556
v -0.449139 0.696210 0.326318
v -0.326319 0.696210 0.449139
v -0.171556 0.696210 0.527994
v -0.000000 0.696210 0.555166
v 0.171556 0.696210 0.527994
v 0.326318 0.696210 0.449139
v 0.449139 0.696210 0.326318
v 0.527994 0.696210 0.171556
v 0.555166 0.696210 -0.000000
vt 0.351879 0.283212
vt 0.336650 0.313099
vt 0.249915 0.250082
vt 0.431065 0.308941
vt 0.404010 0.362038
vt 0.312932 0.336817
vt 0.357126 0.250082
vt 0.485862 0.326746
vt 0.450624 0.395905
vt 0.361872 0.404177
vt 0.440387 0.250082
vt 0.283045 0.352045
vt 0.351879 0.216952
vt 0.395738 0.450790
vt 0.498005 0.250082
vt 0.308774 0.431232
vt 0.431065 0.191222
vt 0.249915 0.357293
vt 0.336650 0.187065
vt 0.326579 0.486029
vt 0.485862 0.173418
vt 0.249915 0.440554
vt 0.404010 0.138125
vt 0.216785 0.352045
vt 0.312932 0.163346
vt 0.249915 0.498171
vt 0.450624 0.104258
vt 0.191056 0.431232
vt 0.361872 0.095986
vt 0.186898 0.336817
vt 0.283045 0.148118
vt 0.173251 0.486029
vt 0.395738 0.049373
vt 0.137958 0.404177
vt 0.308774 0.068932
vt 0.163179 0.313099
vt 0.249915 0.142871
vt 0.104091 0.450790
vt 0.326579 0.014134
vt 0.095820 0.362038
vt 0.249915 0.059609
vt 0.147951 0.283212
vt 0.216785 0.148118
vt 0.049206 0.395905
vt 0.249915 0.001992
vt 0.068765 0.308941
vt 0.191056 0.068932
vt 0.142704 0.250082
vt 0.186898 0.163346
vt 0.013968 0.326746
vt 0.173251 0.014134
vt 0.059443 0.250082
vt 0.137958 0.095986
vt 0.147951 0.216952
vt 0.163179 0.187065
vt 0.001825 0.250082
vt 0.104092 0.049373
vt 0.068765 0.191222
vt 0.095820 0.138125
vt 0.013968 0.173418
vt 0.049206 0.104258
vt 0.902340 0.826582
vt 0.867101 0.895742
vt 0.666392 0.749918
vt 0.812216 0.950627
vt 0.914482 0.749918
vt 0.743056 0.985866
vt 0.902340 0.673254
vt 0.666392 0.998008
vt 0.867101 0.604095
vt 0.589728 0.985866
vt 0.812216 0.549210
vt 0.520569 0.950627
vt 0.743056 0.513971
vt 0.465684 0.895742
vt 0.666392 0.501829
vt 0.430445 0.826582
vt 0.589728 0.513971
vt 0.418303 0.749918
vt 0.520569 0.549210
vt 0.430445 0.673254
vt 0.465684 0.604095
vn 0.000000 1.000000 0.000000
vn 0.000000 1.000000 0.000000
vn 0.000000 1.000000 -0.000000
vn 0.000000 1.000000 0.000000
vn 0.000000 1.000000 0.000000
vn 0.000000 1.000000 0.000000
vn 0.000000 1.000000 -0.000000
vn 0.000000 1.000000 -0.000000
vn 0.000000 1.000000 -0.000000
vn 0.000000 1.000000 -0.000000
vn 0.000000 1.000000 0.000000
vn 0.000000 1.000000 -0.000000
vn 0.000000 1.000000 0.000000
vn 0.000000 1.000000 0.000000
vn 0.000000 1.000000 -0.000000
vn 0.000000 1.000000 -0.000000
vn 0.000000 1.000000 -0.000000
vn 0.000000 1.000000 0.000000
vn 0.000000 1.000000 0.000000
vn 0.000000 1.000000 0.000000
vn 0.000000 1.000000 0.000000
vn 0.000000 1.000000 0.000000
vn 0.000000 1.000000 -0.000000
vn 0.000000 1.000000 -0.000000
vn 0.000000 1.000000 -0.000000
vn 0.000000 1.000000 0.000000
vn 0.000000 1.000000 0.000000
vn 0.000000 1.000000 0.000000
vn 0.000000 1.000000 0.000000
vn 0.000000 1.000000 -0.000000
vn 0.000000 1.000000 -0.000000
vn 0.000000 1.000000 0.000000
vn 0.000000 1.000000 0.000000
vn 0.000000 1.000000 0.000000
vn 0.000000 1.000000 0.000000
vn 0.000000 1.000000 -0.000000
vn 0.000000 1.000000 -0.000000
vn 0.000000 1.000000 0.000000
vn 0.000000 1.000000 0.000000
vn 0.000000 1.000000 0.000000
vn 0.000000 1.000000 0.000000
vn 0.000000 1.000000 0.000000
vn 0.000000 1.000000 0.000000
vn 0.000000 1.000000 0.000000
vn 0.000000 1.000000 0.000000
vn 0.000000 1.000000 0.000000
vn 0.000000 1.000000 0.000000
vn 0.000000 1.000000 0.000000
vn 0.000000 1.000000 0.000000
vn 0.000000 1.000000 0.000000
vn 0.000000 1.000000 0.000000
vn 0.000000 1.000000 0.000000
vn 0.000000 1.000000 0.000000
vn 0.000000 1.000000 0.000000
vn 0.000000 1.000000 0.000000
vn 0.000000 1.000000 0.000000
vn 0.000000 1.000000 0.000000
vn 0.000000 1.000000 0.000000
vn 0.000000 1.000000 0.000000
vn 0.000000 1.000000 0.000000
vn 0.000000 1.000000 0.000000
vn 0.000000 1.000000 0.000000
vn 0.000000 1.000000 -0.000000
vn 0.000000 1.000000 -0.000000
vn 0.000000 1.000000 -0.000000
vn 0.000000 1.000000 -0.000000
vn 0.000000 1.000000 0.000000
vn 0.000000 1.000000 0.000000
vn 0.000000 1.000000 0.000000
vn 0.000000 1.000000 0.000000
vn 0.000000 1.000000 0.000000
vn 0.000000 1.000000 0.000000
vn 0.000000 1.000000 0.000000
vn 0.000000 1.000000 0.000000
vn 0.000000 1.000000 0.000000
vn 0.000000 1.000000 0.000000
vn 0.000000 1.000000 0.000000
vn 0.000000 1.000000 0.000000
vn 0.000000 1.000000 -0.000000
vn 0.000000 1.000000 -0.000000
vn 0.000000 1.000000 -0.000000
vn 0.000000 1.000000 -0.000000
vn 0.000000 1.000000 0.000000
vn 0.000000 1.000000 0.000000
vn 0.000000 1.000000 0.000000
vn 0.000000 1.000000 0.000000
vn 0.000000 1.000000 -0.000000
vn 0.000000 1.000000 -0.000000
vn 0.000000 1.000000 -0.000000
vn 0.000000 1.000000 -0.000000
vn 0.000000 1.000000 0.000000
vn 0.000000 1.000000 0.000000
vn 0.000000 1.000000 0.000000
vn 0.000000 1.000000 0.000000
vn 0.000000 1.000000 -0.000000
vn 0.000000 1.000000 -0.000000
vn 0.000000 1.000000 -0.000000
vn 0.000000 1.000000 -0.000000
vn 0.000000 1.000000 0.000000
vn 0.000000 1.000000 0.000000
vn 0.000000 1.000000 0.000000
vn 0.000000 1.000000 0.000000
vn 0.000000 1.000000 0.000000
vn 0.000000 1.000000 0.000000
vn 0.000000 1.000000 0.000000
vn 0.000000 1.000000 0.000000
vn 0.000000 1.000000 0.000000
vn 0.000000 1.000000 0.000000
vn 0.000000 1.000000 0.000000
vn 0.000000 1.000000 0.000000
vn 0.000000 1.000000 -0.000000
vn 0.000000 1.000000 -0.000000
vn 0.000000 1.000000 -0.000000
vn 0.000000 1.000000 -0.000000
vn 0.000000 1.000000 0.000000
vn 0.000000 1.000000 0.000000
vn 0.000000 1.000000 0.000000
vn 0.000000 1.000000 0.000000
vn 0.000000 1.000000 0.000000
vn 0.000000 1.000000 0.000000
vn 0.000000 1.000000 0.000000
vn 0.000000 1.000000 0.000000
vn 0.000000 1.000000 0.000000
vn 0.000000 1.000000 0.000000
vn 0.000000 1.000000 0.000000
vn 0.000000 1.000000 0.000000
vn 0.000000 1.000000 -0.000000
vn 0.000000 1.000000 -0.000000
vn 0.000000 1.000000 -0.000000
vn 0.000000 1.000000 -0.000000
vn 0.000000 1.000000 0.000000
vn 0.000000 1.000000 0.000000
vn 0.000000 1.000000 0.000000
vn 0.000000 1.000000 0.000000
vn 0.000000 1.000000 0.000000
vn 0.000000 1.000000 0.000000
vn 0.000000 1.000000 0.000000
vn 0.000000 1.000000 0.000000
vn 0.000000 1.000000 0.000000
vn 0.000000 1.000000 0.000000
vn 0.000000 1.000000 0.000000
vn 0.000000 1.000000 0.000000
vn 0.000000 1.000000 0.000000
vn 0.000000 1.000000 0.000000
vn 0.000000 1.000000 0.000000
vn 0.000000 1.000000 0.000000
vn 0.000000 1.000000 -0.000000
vn 0.000000 1.000000 -0.000000
vn 0.000000 1.000000 -0.000000
vn 0.000000 1.000000 -0.000000
vn 0.000000 1.000000 0.000000
vn 0.000000 1.000000 0.000000
vn 0.000000 1.000000 0.000000
vn 0.000000 1.000000 0.000000
vn 0.000000 1.000000 -0.000000
vn 0.000000 1.000000 -0.000000
vn 0.000000 1.000000 -0.000000
vn 0.000000 1.000000 -0.000000
vn 0.000000 1.000000 0.000000
vn 0.000000 1.000000 0.000000
vn 0.000000 1.000000 0.000000
vn 0.000000 1.000000 0.000000
vn 0.000000 1.000000 0.000000
vn 0.000000 1.000000 0.000000
vn 0.000000 1.000000 0.000000
vn 0.000000 1.000000 0.000000
vn 0.000000 1.000000 0.000000
vn 0.000000 1.000000 0.000000
vn 0.000000 1.000000 0.000000
vn 0.000000 1.000000 0.000000
vn 0.000000 1.000000 0.000000
vn 0.000000 1.000000 0.000000
vn 0.000000 1.000000 0.000000
vn 0.000000 1.000000 0.000000
vn 0.000000 1.000000 -0.000000
vn 0.000000 1.000000 -0.000000
vn 0.000000 1.000000 -0.000000
vn 0.000000 1.000000 -0.000000
vn 0.000000 1.000000 0.000000
vn 0.000000 1.000000 0.000000
vn 0.000000 1.000000 0.000000
vn 0.000000 1.000000 0.000000
vn 0.000000 1.000000 0.000000
vn 0.000000 1.000000 0.000000
vn 0.000000 1.000000 0.000000
vn 0.000000 1.000000 0.000000
vn 0.000000 1.000000 0.000000
vn 0.000000 1.000000 0.000000
vn 0.000000 1.000000 0.000000
vn 0.000000 1.000000 0.000000
vn 0.000000 1.000000 -0.000000
vn 0.000000 1.000000 -0.000000
vn 0.000000 1.000000 -0.000000
vn 0.000000 1.000000 -0.000000
vn 0.000000 1.000000 0.000000
vn 0.000000 1.000000 0.000000
vn 0.000000 1.000000 0.000000
vn 0.000000 1.000000 0.000000
vn 0.000000 1.000000 -0.000000
vn 0.000000 1.000000 -0.000000
vn 0.000000 1.000000 -0.000000
vn 0.000000 1.000000 -0.000000
s 1
g pCylinder28 Bucket
usemtl initialShadingGroup
f 42/1/1 43/2/2 44/3/3
f 43/2/2 45/6/4 44/3/3
f 45/6/4 46/12/5 44/3/3
f 46/12/5 47/18/6 44/3/3
f 47/18/6 48/24/7 44/3/3
f 48/24/7 49/30/8 44/3/3
f 49/30/8 50/36/9 44/3/3
f 50/36/9 51/42/10 44/3/3
f 51/42/10 52/48/11 44/3/3
f 52/48/11 53/54/12 44/3/3
f 53/54/12 54/55/13 44/3/3
f 54/55/13 55/49/14 44/3/3
f 55/49/14 56/43/15 44/3/3
f 56/43/15 57/37/16 44/3/3
f 57/37/16 58/31/17 44/3/3
f 58/31/17 59/25/18 44/3/3
f 59/25/18 60/19/19 44/3/3
f 60/19/19 61/13/20 44/3/3
f 61/13/20 62/7/21 44/3/3
f 62/7/21 42/1/1 44/3/3
s 2
f 1/62/22 2/63/23 21/64/24
f 2/63/23 3/65/25 21/64/24
f 3/65/25 4/67/26 21/64/24
f 4/67/26 5/69/27 21/64/24
f 5/69/27 6/71/28 21/64/24
f 6/71/28 7/73/29 21/64/24
f 7/73/29 8/75/30 21/64/24
f 8/75/30 9/77/31 21/64/24
f 9/77/31 10/79/32 21/64/24
f 10/79/32 11/81/33 21/64/24
f 11/81/33 12/82/34 21/64/24
f 12/82/34 13/80/35 21/64/24
f 13/80/35 14/78/36 21/64/24
f 14/78/36 15/76/37 21/64/24
f 15/76/37 16/74/38 21/64/24
f 16/74/38 17/72/39 21/64/24
f 17/72/39 18/70/40 21/64/24
f 18/70/40 19/68/41 21/64/24
f 19/68/41 20/66/42 21/64/24
f 20/66/42 1/62/22 21/64/24
s off
f 1/8/43 2/9/44 23/5/45 22/4/46
f 2/9/47 3/14/48 24/10/49 23/5/50
f 3/14/51 4/20/52 25/16/53 24/10/54
f 4/20/55 5/26/56 26/22/57 25/16/58
f 5/26/59 6/32/60 27/28/61 26/22/62
f 6/32/63 7/38/64 28/34/65 27/28/66
f 7/38/67 8/44/68 29/40/69 28/34/70
f 8/44/71 9/50/72 30/46/73 29/40/74
f 9/50/75 10/56/76 31/52/77 30/46/78
f 10/56/79 11/60/80 32/58/81 31/52/82
f 11/60/83 12/61/84 33/59/85 32/58/86
f 12/61/87 13/57/88 34/53/89 33/59/90
f 13/57/91 14/51/92 35/47/93 34/53/94
f 14/51/95 15/45/96 36/41/97 35/47/98
f 15/45/99 16/39/100 37/35/101 36/41/102
f 16/39/103 17/33/104 38/29/105 37/35/106
f 17/33/107 18/27/108 39/23/109 38/29/110
f 18/27/111 19/21/112 40/17/113 39/23/114
f 19/21/115 20/15/116 41/11/117 40/17/118
f 20/15/119 1/8/120 22/4/121 41/11/122
f 22/4/123 23/5/124 43/2/125 42/1/126
f 23/5/127 24/10/128 45/6/129 43/2/130
f 24/10/131 25/16/132 46/12/133 45/6/134
f 25/16/135 26/22/136 47/18/137 46/12/138
f 26/22/139 27/28/140 48/24/141 47/18/142
f 27/28/143 28/34/144 49/30/145 48/24/146
f 28/34/147 29/40/148 50/36/149 49/30/150
f 29/40/151 30/46/152 51/42/153 50/36/154
f 30/46/155 31/52/156 52/48/157 51/42/158
f 31/52/159 32/58/160 53/54/161 52/48/162
f 32/58/163 33/59/164 54/55/165 53/54/166
f 33/59/167 34/53/168 55/49/169 54/55/170
f 34/53/171 35/47/172 56/43/173 55/49/174
f 35/47/175 36/41/176 57/37/177 56/43/178
f 36/41/179 37/35/180 58/31/181 57/37/182
f 37/35/183 38/29/184 59/25/185 58/31/186
f 38/29/187 39/23/188 60/19/189 59/25/190
f 39/23/191 40/17/192 61/13/193 60/19/194
f 40/17/195 41/11/196 62/7/197 61/13/198
f 41/11/199 22/4/200 42/1/201 62/7/202
g default
v -1.326658 0.777600 -0.115959
v -1.261727 0.523298 0.304457
v -1.073289 0.293889 0.683720
v -0.779790 0.111828 0.984707
v -0.409960 -0.005062 1.177950
v 0.000000 -0.045339 1.244537
v 0.409960 -0.005062 1.177950
v 0.779790 0.111828 0.984707
v 1.073289 0.293889 0.683720
v 1.261727 0.523298 0.304457
v 1.326658 0.777600 -0.115959
v -1.326658 0.963663 -0.003414
v -1.261727 0.709360 0.417004
v -1.073289 0.479952 0.796267
v -0.779790 0.297891 1.097252
v -0.409960 0.181001 1.290497
v 0.000000 0.140724 1.357082
v 0.409960 0.181001 1.290497
v 0.779790 0.297891 1.097252
v 1.073289 0.479952 0.796267
v 1.261727 0.709360 0.417004
v 1.326658 0.963663 -0.003414
v -1.436653 0.815138 -0.093254
v -1.400309 0.578098 0.298624
v -1.400309 0.689085 0.365759
v -1.436653 0.926126 -0.026119
v -1.191174 0.323492 0.719543
v -1.191174 0.434479 0.786678
v -0.865438 0.121434 1.053589
v -0.865438 0.232422 1.120724
v -0.454988 -0.008294 1.268059
v -0.454988 0.102693 1.335192
v 0.000000 -0.052995 1.341957
v 0.000000 0.057993 1.409092
v 0.454988 -0.008294 1.268059
v 0.454988 0.102693 1.335192
v 0.865439 0.121434 1.053589
v 0.865439 0.232422 1.120724
v 1.191174 0.323492 0.719543
v 1.191174 0.434479 0.786678
v 1.400309 0.578098 0.298624
v 1.400309 0.689085 0.365759
v 1.436653 0.815138 -0.093254
v 1.436653 0.926126 -0.026119
v 0.951057 -1.028898 -0.323868
v 0.809018 -1.028898 -0.602636
v 0.587786 -1.028898 -0.823868
v 0.309017 -1.028898 -0.965908
v 0.000000 -1.028898 -1.014851
v -0.309017 -1.028898 -0.965908
v -0.587785 -1.028898 -0.823868
v -0.809017 -1.028898 -0.602636
v -0.951057 -1.028898 -0.323868
v -1.000000 -1.028898 -0.014851
v -0.951057 -1.028898 0.294167
v -0.809017 -1.028898 0.572935
v -0.587785 -1.028898 0.794167
v -0.309017 -1.028898 0.936207
v 0.000000 -1.028898 0.985149
v 0.309017 -1.028898 0.936207
v 0.587785 -1.028898 0.794167
v 0.809017 -1.028898 0.572935
v 0.951057 -1.028898 0.294167
v 1.000000 -1.028898 -0.014851
v 1.326003 0.971102 -0.445694
v 1.127965 0.971102 -0.834365
v 0.819515 0.971102 -1.142816
v 0.430844 0.971102 -1.340853
v 0.000000 0.971102 -1.409092
v -0.430844 0.971102 -1.340853
v -0.819514 0.971102 -1.142816
v -1.127964 0.971102 -0.834365
v -1.326002 0.971102 -0.445694
v -1.394241 0.971102 -0.014851
v -1.326002 0.971102 0.415993
v -1.127964 0.971102 0.804665
v -0.819514 0.971102 1.113113
v -0.430844 0.971102 1.311152
v 0.000000 0.971102 1.379391
v 0.430844 0.971102 1.311152
v 0.819514 0.971102 1.113113
v 1.127964 0.971102 0.804663
v 1.326002 0.971102 0.415993
v 1.394241 0.971102 -0.014851
v 0.000000 -1.028898 -0.014851
v 1.185017 0.971102 -0.399885
v 1.008035 0.971102 -0.747231
v 0.732381 0.971102 -1.022886
v 0.385035 0.971102 -1.199867
v 0.000000 0.971102 -1.260851
v -0.385035 0.971102 -1.199867
v -0.732380 0.971102 -1.022886
v -1.008035 0.971102 -0.747231
v -1.185016 0.971102 -0.399885
v -1.245999 0.971102 -0.014851
v -1.185016 0.971102 0.370184
v -1.008035 0.971102 0.717531
v -0.732380 0.971102 0.993183
v -0.385035 0.971102 1.170166
v 0.000000 0.971102 1.231150
v 0.385035 0.971102 1.170166
v 0.732380 0.971102 0.993183
v 1.008035 0.971102 0.717529
v 1.185016 0.971102 0.370184
v 1.245999 0.971102 -0.014851
v 1.004613 -0.551945 -0.341269
v 0.854575 -0.551945 -0.635735
v 0.000000 -0.551945 -0.014851
v 0.620885 -0.551945 -0.869426
v 0.326419 -0.551945 -1.019464
v 0.000000 -0.551945 -1.071163
v -0.326418 -0.551945 -1.019464
v -0.620884 -0.551945 -0.869426
v -0.854574 -0.551945 -0.635735
v -1.004612 -0.551945 -0.341269
v -1.056311 -0.551945 -0.014851
v -1.004612 -0.551945 0.311567
v -0.854574 -0.551945 0.606035
v -0.620884 -0.551945 0.839722
v -0.326418 -0.551945 0.989761
v 0.000000 -0.551945 1.041462
v 0.326418 -0.551945 0.989761
v 0.620884 -0.551945 0.839722
v 0.854574 -0.551945 0.606033
v 1.004612 -0.551945 0.311567
v 1.056312 -0.551945 -0.014851
v 1.255510 1.028898 -0.422791
v 1.320120 1.028898 -0.014851
v 1.255509 1.028898 0.393089
v 1.068000 1.028898 0.761097
v 0.775947 1.028898 1.053148
v 0.407940 1.028898 1.240658
v 0.000000 1.028898 1.305271
v -0.407939 1.028898 1.240658
v -0.775947 1.028898 1.053148
v -1.068000 1.028898 0.761097
v -1.255509 1.028898 0.393089
v -1.320120 1.028898 -0.014851
v -1.255509 1.028898 -0.422791
v -1.068000 1.028898 -0.790798
v -0.775947 1.028898 -1.082851
v -0.407940 1.028898 -1.270360
v 0.000000 1.028898 -1.334971
v 0.407940 1.028898 -1.270360
v 0.775948 1.028898 -1.082851
v 1.068000 1.028898 -0.790798
vt 0.748635 0.896849
vt 0.720572 0.850456
vt 0.733712 0.842508
vt 0.761775 0.888901
vt 0.690430 0.800624
vt 0.703570 0.792676
vt 0.666509 0.761077
vt 0.679649 0.753129
vt 0.651151 0.735687
vt 0.664291 0.727739
vt 0.574022 0.925123
vt 0.604164 0.875291
vt 0.617304 0.883239
vt 0.587161 0.933071
vt 0.632227 0.828898
vt 0.645366 0.836846
vt 0.550101 0.964670
vt 0.563240 0.972618
vt 0.534743 0.990060
vt 0.547882 0.998008
vt 0.506930 0.828898
vt 0.528958 0.842222
vt 0.498852 0.891994
vt 0.476824 0.878670
vt 0.471692 0.936894
vt 0.449665 0.923570
vt 0.450139 0.972527
vt 0.428111 0.959203
vt 0.436300 0.995405
vt 0.414273 0.982081
vt 0.329195 0.900733
vt 0.351223 0.887409
vt 0.378382 0.932309
vt 0.356354 0.945633
vt 0.307641 0.865100
vt 0.329669 0.851776
vt 0.408488 0.982081
vt 0.386460 0.995405
vt 0.293803 0.842222
vt 0.315831 0.828898
vt 0.376925 0.098945
vt 0.376925 0.065942
vt 0.613700 0.038509
vt 0.613700 0.084522
vt 0.376925 0.039751
vt 0.613700 0.001992
vt 0.620542 0.043667
vt 0.620542 0.087234
vt 0.376925 0.135529
vt 0.613700 0.135529
vt 0.620542 0.135529
vt 0.376925 0.172113
vt 0.613700 0.186535
vt 0.620542 0.183824
vt 0.376925 0.205116
vt 0.613700 0.232549
vt 0.620542 0.227391
vt 0.376925 0.231307
vt 0.613700 0.269066
vt 0.626833 0.205115
vt 0.626833 0.172113
vt 0.863608 0.186535
vt 0.863608 0.232549
vt 0.626833 0.135529
vt 0.863608 0.135529
vt 0.870451 0.183824
vt 0.870451 0.227391
vt 0.626833 0.231306
vt 0.863608 0.269066
vt 0.626833 0.098945
vt 0.863608 0.084522
vt 0.870451 0.135529
vt 0.626833 0.065942
vt 0.863608 0.038509
vt 0.870451 0.087234
vt 0.626833 0.039751
vt 0.863608 0.001992
vt 0.870451 0.043666
vt 0.509952 0.510841
vt 0.509952 0.551962
vt 0.329642 0.538762
vt 0.329642 0.503901
vt 0.516794 0.513552
vt 0.516794 0.557120
vt 0.509952 0.584596
vt 0.329642 0.566428
vt 0.509952 0.465257
vt 0.329642 0.465257
vt 0.516794 0.465257
vt 0.509952 0.419674
vt 0.329642 0.426614
vt 0.516794 0.416962
vt 0.509952 0.378553
vt 0.329642 0.391753
vt 0.516794 0.373395
vt 0.509952 0.345919
vt 0.329642 0.364087
vt 0.317015 0.378553
vt 0.317015 0.419674
vt 0.136705 0.426614
vt 0.136705 0.391753
vt 0.323857 0.373395
vt 0.323857 0.416963
vt 0.317015 0.465258
vt 0.136705 0.465258
vt 0.317015 0.345919
vt 0.136705 0.364087
vt 0.323857 0.465258
vt 0.317015 0.510841
vt 0.136705 0.503901
vt 0.323857 0.513553
vt 0.317015 0.551962
vt 0.136705 0.538763
vt 0.323857 0.557120
vt 0.317015 0.584596
vt 0.136705 0.566428
vt 0.001878 0.329134
vt 0.051650 0.321446
vt 0.050960 0.337853
vt 0.004566 0.342155
vt 0.096550 0.299138
vt 0.100791 0.313094
vt 0.132183 0.264391
vt 0.140338 0.274531
vt 0.155061 0.220608
vt 0.165729 0.225939
vt 0.162944 0.172074
vt 0.174477 0.172074
vt 0.155061 0.123540
vt 0.165729 0.118209
vt 0.182425 0.172074
vt 0.173676 0.225939
vt 0.132183 0.079756
vt 0.140338 0.069617
vt 0.173676 0.118209
vt 0.096550 0.045010
vt 0.100791 0.031054
vt 0.051650 0.022701
vt 0.050960 0.006295
vt 0.001878 0.015014
vt 0.004566 0.001992
vt 0.451452 0.610969
vt 0.484454 0.594154
vt 0.521038 0.706747
vt 0.521038 0.588360
vt 0.425261 0.637160
vt 0.557622 0.594154
vt 0.408445 0.670163
vt 0.590625 0.610969
vt 0.402651 0.706747
vt 0.616816 0.637161
vt 0.408445 0.743331
vt 0.633631 0.670163
vt 0.425261 0.776333
vt 0.639426 0.706747
vt 0.451452 0.802524
vt 0.633631 0.743331
vt 0.484454 0.819340
vt 0.616816 0.776333
vt 0.521038 0.825135
vt 0.590625 0.802524
vt 0.557622 0.819340
vt 0.766566 0.436527
vt 0.748804 0.471388
vt 0.647633 0.397883
vt 0.721138 0.499054
vt 0.772687 0.397883
vt 0.686277 0.516817
vt 0.766566 0.359240
vt 0.647633 0.522937
vt 0.748804 0.324379
vt 0.608989 0.516817
vt 0.721138 0.296713
vt 0.574128 0.499054
vt 0.686277 0.278950
vt 0.546462 0.471388
vt 0.647633 0.272829
vt 0.528699 0.436527
vt 0.608989 0.278950
vt 0.522579 0.397883
vt 0.574128 0.296713
vt 0.528699 0.359240
vt 0.546462 0.324378
vt 0.872928 0.272829
vt 0.909445 0.309346
vt 0.902346 0.314504
vt 0.867770 0.279928
vt 0.932890 0.355360
vt 0.924544 0.358071
vt 0.895246 0.319661
vt 0.862612 0.287027
vt 0.940968 0.406366
vt 0.932193 0.406366
vt 0.916199 0.360783
vt 0.932890 0.457373
vt 0.924544 0.454661
vt 0.923419 0.406366
vt 0.909445 0.503386
vt 0.902346 0.498229
vt 0.916199 0.451949
vt 0.872928 0.539903
vt 0.867770 0.532804
vt 0.895246 0.493071
vt 0.862612 0.525705
vt 0.846512 0.539903
vt 0.809995 0.503386
vt 0.817095 0.498229
vt 0.851670 0.532804
vt 0.786550 0.457373
vt 0.794896 0.454661
vt 0.824194 0.493071
vt 0.856827 0.525705
vt 0.778472 0.406366
vt 0.787246 0.406366
vt 0.803241 0.451949
vt 0.786550 0.355360
vt 0.794896 0.358071
vt 0.796021 0.406366
vt 0.809995 0.309346
vt 0.817095 0.314504
vt 0.803241 0.360783
vt 0.846512 0.272829
vt 0.851670 0.279928
vt 0.824194 0.319662
vt 0.856828 0.287028
vt 0.168485 0.825134
vt 0.135482 0.825134
vt 0.149905 0.588359
vt 0.195919 0.588359
vt 0.098898 0.825134
vt 0.098898 0.588359
vt 0.062315 0.825134
vt 0.047892 0.588359
vt 0.029312 0.825134
vt 0.001878 0.588359
vt 0.229790 0.588359
vt 0.262793 0.588359
vt 0.248370 0.825134
vt 0.202356 0.825134
vt 0.299377 0.588359
vt 0.299377 0.825134
vt 0.335960 0.588359
vt 0.350383 0.825134
vt 0.368963 0.588359
vt 0.396397 0.825134
vt 0.820456 0.723976
vt 0.779335 0.723976
vt 0.772395 0.543666
vt 0.807256 0.543666
vt 0.733751 0.723976
vt 0.733751 0.543666
vt 0.688168 0.723976
vt 0.695107 0.543666
vt 0.647047 0.723976
vt 0.660246 0.543666
vt 0.767559 0.727739
vt 0.808681 0.727739
vt 0.815620 0.908049
vt 0.780759 0.908049
vt 0.854264 0.727739
vt 0.854264 0.908049
vt 0.899847 0.727739
vt 0.892908 0.908049
vt 0.940968 0.727739
vt 0.927769 0.908049
vt 0.216858 0.220608
vt 0.203533 0.220608
vt 0.195651 0.172074
vt 0.208975 0.172074
vt 0.198242 0.225939
vt 0.189493 0.172074
vt 0.203533 0.123540
vt 0.216858 0.123540
vt 0.226411 0.264391
vt 0.223632 0.274531
vt 0.198242 0.118209
vt 0.262044 0.299138
vt 0.263179 0.313094
vt 0.226411 0.079756
vt 0.223632 0.069617
vt 0.306944 0.321446
vt 0.313011 0.337853
vt 0.262044 0.045010
vt 0.263179 0.031054
vt 0.356716 0.329134
vt 0.359404 0.342155
vt 0.306944 0.022701
vt 0.313011 0.006295
vt 0.370040 0.329134
vt 0.367352 0.342155
vt 0.356716 0.015014
vt 0.359404 0.001992
vt 0.370040 0.015014
vt 0.367352 0.001992
vn -0.807284 -0.394122 -0.439274
vn -0.819491 -0.563690 -0.103388
vn -0.819491 0.353266 0.451262
vn -0.807283 0.572039 0.145142
vn -0.745164 -0.655930 0.120360
vn -0.745165 0.197915 0.636835
vn -0.590965 -0.731920 0.339194
vn -0.590965 0.039373 0.805736
vn -0.333027 -0.794923 0.507140
vn -0.333028 -0.080124 0.939507
vn 0.000000 -0.820309 0.571921
vn 0.000000 -0.125717 0.992066
vn 0.333028 -0.794923 0.507140
vn 0.333028 -0.080124 0.939507
vn 0.590965 -0.731920 0.339194
vn 0.590965 0.039374 0.805736
vn 0.745164 -0.655930 0.120359
vn 0.745165 0.197915 0.636835
vn 0.819491 -0.563690 -0.103388
vn 0.819491 0.353266 0.451262
vn 0.807284 -0.394122 -0.439274
vn 0.807283 0.572039 0.145142
vn 0.779050 -0.369737 -0.506335
vn 0.779050 0.620114 0.092407
vn 0.767783 0.624299 0.144084
vn 0.767784 -0.417449 -0.486050
vn 0.695293 0.717150 -0.047580
vn 0.695295 -0.290799 -0.657268
vn 0.552501 0.795573 -0.248610
vn 0.552500 -0.149157 -0.820059
vn 0.311185 0.861742 -0.400705
vn 0.311185 -0.045165 -0.949276
vn -0.000000 0.888491 -0.458894
vn -0.000000 -0.006047 -0.999982
vn -0.311185 0.861742 -0.400705
vn -0.311185 -0.045165 -0.949276
vn -0.552501 0.795573 -0.248610
vn -0.552500 -0.149157 -0.820059
vn -0.695293 0.717150 -0.047579
vn -0.695295 -0.290799 -0.657268
vn -0.767783 0.624299 0.144084
vn -0.767784 -0.417449 -0.486050
vn -0.779050 0.620114 0.092407
vn -0.779050 -0.369737 -0.506335
vn 0.933101 -0.193399 -0.303182
vn 0.793743 -0.193399 -0.576688
vn 0.799717 -0.151188 -0.581029
vn 0.940124 -0.151188 -0.305464
vn 0.576688 -0.193399 -0.793743
vn 0.581029 -0.151188 -0.799717
vn 0.303183 -0.193399 -0.933101
vn 0.305465 -0.151188 -0.940124
vn -0.000000 -0.193399 -0.981120
vn -0.000000 -0.151188 -0.988505
vn -0.303183 -0.193399 -0.933101
vn -0.305465 -0.151188 -0.940124
vn -0.576688 -0.193399 -0.793743
vn -0.581029 -0.151188 -0.799717
vn -0.793743 -0.193399 -0.576688
vn -0.799718 -0.151188 -0.581028
vn -0.933101 -0.193399 -0.303183
vn -0.940124 -0.151188 -0.305465
vn -0.981120 -0.193399 -0.000000
vn -0.988505 -0.151188 -0.000000
vn -0.933101 -0.193399 0.303182
vn -0.940124 -0.151188 0.305464
vn -0.793743 -0.193399 0.576688
vn -0.799717 -0.151188 0.581029
vn -0.576688 -0.193399 0.793743
vn -0.581029 -0.151187 0.799718
vn -0.303183 -0.193399 0.933101
vn -0.305465 -0.151188 0.940124
vn -0.000000 -0.193399 0.981120
vn 0.000000 -0.151188 0.988505
vn 0.303183 -0.193399 0.933101
vn 0.305465 -0.151188 0.940124
vn 0.576689 -0.193398 0.793742
vn 0.581029 -0.151187 0.799717
vn 0.793743 -0.193398 0.576688
vn 0.799718 -0.151188 0.581029
vn 0.933101 -0.193399 0.303183
vn 0.940124 -0.151188 0.305465
vn 0.981120 -0.193399 0.000001
vn 0.988505 -0.151188 0.000001
vn 0.000000 -1.000000 0.000000
vn 0.000000 -1.000000 0.000000
vn 0.000000 -1.000000 0.000000
vn 0.000000 -1.000000 0.000000
vn 0.000000 -1.000000 0.000000
vn 0.000000 -1.000000 0.000000
vn 0.000000 -1.000000 -0.000000
vn 0.000000 -1.000000 -0.000000
vn 0.000000 -1.000000 0.000000
vn 0.000000 -1.000000 0.000000
vn 0.000000 -1.000000 0.000000
vn 0.000000 -1.000000 0.000000
vn 0.000000 -1.000000 -0.000000
vn 0.000000 -1.000000 -0.000000
vn 0.000000 -1.000000 0.000000
vn 0.000000 -1.000000 -0.000000
vn 0.000000 -1.000000 0.000000
vn 0.000000 -1.000000 0.000000
vn 0.000000 -1.000000 0.000000
vn 0.000000 -1.000000 -0.000000
vn 0.000000 -1.000000 -0.000000
vn 0.000000 1.000000 0.000000
vn 0.000000 1.000000 0.000000
vn 0.000000 1.000000 0.000000
vn 0.000000 1.000000 -0.000000
vn 0.000000 1.000000 -0.000000
vn 0.000000 1.000000 0.000000
vn 0.000000 1.000000 0.000000
vn 0.000000 1.000000 0.000000
vn 0.000000 1.000000 -0.000000
vn 0.000000 1.000000 -0.000000
vn 0.000000 1.000000 0.000000
vn 0.000000 1.000000 0.000000
vn 0.000000 1.000000 0.000000
vn 0.000000 1.000000 -0.000000
vn 0.000000 1.000000 -0.000000
vn 0.000000 1.000000 0.000000
vn 0.000000 1.000000 0.000000
vn 0.000000 1.000000 0.000000
vn 0.000000 1.000000 -0.000000
vn 0.000000 1.000000 -0.000000
vn 0.000000 1.000000 0.000000
vn 0.497475 0.788595 -0.361437
vn 0.584817 0.788595 -0.190019
vn 0.361437 0.788595 -0.497476
vn 0.190018 0.788595 -0.584817
vn 0.000000 0.788595 -0.614912
vn -0.190018 0.788595 -0.584817
vn -0.361437 0.788595 -0.497475
vn -0.497476 0.788595 -0.361436
vn -0.584816 0.788595 -0.190019
vn -0.614911 0.788596 -0.000000
vn -0.584816 0.788596 0.190019
vn -0.497473 0.788596 0.361436
vn -0.361435 0.788597 0.497473
vn -0.190019 0.788597 0.584815
vn 0.000000 0.788595 0.614912
vn 0.190019 0.788597 0.584815
vn 0.361436 0.788596 0.497474
vn 0.497476 0.788594 0.361438
vn 0.584817 0.788595 0.190019
vn 0.614912 0.788596 0.000001
vn -0.936713 0.173023 0.304356
vn -0.796816 0.173023 0.578920
vn -0.802815 0.123590 0.583278
vn -0.943765 0.123590 0.306647
vn -0.578921 0.173023 0.796815
vn -0.583280 0.123590 0.802814
vn -0.304356 0.173023 0.936713
vn -0.306648 0.123590 0.943765
vn 0.000000 0.173023 0.984918
vn 0.000000 0.123590 0.992333
vn 0.304356 0.173023 0.936713
vn 0.306648 0.123590 0.943765
vn 0.578921 0.173023 0.796815
vn 0.583280 0.123590 0.802814
vn 0.796816 0.173023 0.578919
vn 0.802815 0.123590 0.583278
vn 0.936713 0.173023 0.304356
vn 0.943765 0.123590 0.306648
vn 0.984918 0.173023 -0.000000
vn 0.992333 0.123590 -0.000000
vn 0.936713 0.173023 -0.304356
vn 0.943765 0.123590 -0.306647
vn 0.796815 0.173023 -0.578921
vn 0.802814 0.123590 -0.583280
vn 0.578919 0.173023 -0.796816
vn 0.583278 0.123590 -0.802815
vn 0.304359 0.173023 -0.936712
vn 0.306651 0.123590 -0.943764
vn 0.000000 0.173023 -0.984918
vn 0.000000 0.123590 -0.992333
vn -0.304359 0.173023 -0.936712
vn -0.306651 0.123591 -0.943764
vn -0.578921 0.173023 -0.796815
vn -0.583280 0.123590 -0.802814
vn -0.796815 0.173023 -0.578921
vn -0.802814 0.123590 -0.583279
vn -0.936713 0.173023 -0.304356
vn -0.943765 0.123590 -0.306648
vn -0.984918 0.173023 -0.000001
vn -0.992333 0.123590 -0.000001
vn -0.614911 0.788597 -0.000001
vn -0.584814 0.788597 0.190018
vn -0.584814 0.788597 -0.190018
vn -0.497472 0.788598 -0.361435
vn -0.361436 0.788596 -0.497474
vn -0.190020 0.788595 -0.584817
vn 0.000000 0.788595 -0.614913
vn 0.190020 0.788595 -0.584817
vn 0.361437 0.788594 -0.497477
vn 0.497475 0.788595 -0.361437
vn 0.584816 0.788595 -0.190019
vn 0.614913 0.788595 -0.000000
vn 0.584815 0.788596 0.190019
vn 0.497473 0.788597 0.361435
vn 0.361436 0.788597 0.497473
vn 0.190018 0.788596 0.584816
vn 0.000000 0.788596 0.614912
vn -0.190018 0.788596 0.584816
vn -0.361435 0.788597 0.497473
vn -0.497473 0.788597 0.361435
s 1
g Bucket pCylinder27
usemtl initialShadingGroup
f 85/83/203 86/84/204 87/85/205 88/86/206
f 86/84/204 89/87/207 90/88/208 87/85/205
f 89/87/207 91/89/209 92/90/210 90/88/208
f 91/89/209 93/91/211 94/92/212 92/90/210
f 93/208/211 95/210/213 96/213/214 94/214/212
f 95/210/213 97/212/215 98/217/216 96/213/214
f 97/101/215 99/99/217 100/100/218 98/102/216
f 99/99/217 101/93/219 102/96/220 100/100/218
f 101/93/219 103/94/221 104/95/222 102/96/220
f 103/94/221 105/97/223 106/98/224 104/95/222
f 63/103/225 74/104/226 75/105/227 64/106/228
f 64/106/228 75/105/227 76/107/229 65/108/230
f 65/108/230 76/107/229 77/109/231 66/110/232
f 66/110/232 77/109/231 78/111/233 67/112/234
f 67/348/234 78/349/233 79/350/235 68/351/236
f 68/351/236 79/350/235 80/354/237 69/355/238
f 69/121/238 80/122/237 81/118/239 70/117/240
f 70/117/240 81/118/239 82/114/241 71/113/242
f 71/113/242 82/114/241 83/115/243 72/116/244
f 72/116/244 83/115/243 84/119/245 73/120/246
f 63/199/225 64/200/228 86/201/204 85/202/203
f 75/363/227 74/367/226 88/368/206 87/364/205
f 74/367/226 63/371/225 85/372/203 88/368/206
f 64/200/228 65/203/230 89/204/207 86/201/204
f 76/359/229 75/363/227 87/364/205 90/360/208
f 65/203/230 66/205/232 91/206/209 89/204/207
f 77/356/231 76/359/229 90/360/208 92/357/210
f 66/205/232 67/207/234 93/208/211 91/206/209
f 78/349/233 77/356/231 92/357/210 94/352/212
f 67/207/234 68/209/236 95/210/213 93/208/211
f 79/350/235 78/349/233 94/352/212 96/353/214
f 68/209/236 69/211/238 97/212/215 95/210/213
f 80/354/237 79/350/235 96/353/214 98/358/216
f 69/211/238 70/215/240 99/216/217 97/212/215
f 81/361/239 80/354/237 98/358/216 100/362/218
f 70/215/240 71/218/242 101/219/219 99/216/217
f 82/365/241 81/361/239 100/362/218 102/366/220
f 71/218/242 72/220/244 103/221/221 101/219/219
f 83/369/243 82/365/241 102/366/220 104/370/222
f 72/220/244 73/222/246 105/223/223 103/221/221
f 73/375/246 84/373/245 106/374/224 105/376/223
f 84/373/245 83/369/243 104/370/222 106/374/224
s 2
f 107/123/247 108/124/248 128/125/249 127/126/250
f 108/124/248 109/127/251 129/128/252 128/125/249
f 109/308/251 110/309/253 130/310/254 129/311/252
f 110/309/253 111/312/255 131/313/256 130/310/254
f 111/312/255 112/314/257 132/315/258 131/313/256
f 112/314/257 113/316/259 133/317/260 132/315/258
f 113/150/259 114/142/261 134/145/262 133/151/260
f 114/142/261 115/143/263 135/144/264 134/145/262
f 115/143/263 116/146/265 136/147/266 135/144/264
f 116/146/265 117/152/267 137/153/268 136/147/266
f 117/152/267 118/155/269 138/156/270 137/153/268
f 118/155/269 119/158/271 139/159/272 138/156/270
f 119/318/271 120/319/273 140/320/274 139/321/272
f 120/319/273 121/322/275 141/323/276 140/320/274
f 121/322/275 122/324/277 142/325/278 141/323/276
f 122/324/277 123/326/279 143/327/280 142/325/278
f 123/140/279 124/137/281 144/138/282 143/141/280
f 124/137/281 125/134/283 145/135/284 144/138/282
f 125/134/283 126/131/285 146/132/286 145/135/284
f 126/131/285 107/123/247 127/126/250 146/132/286
s 3
f 108/224/287 107/225/288 147/226/289
f 109/228/290 108/224/287 147/226/289
f 110/230/291 109/228/290 147/226/289
f 111/232/292 110/230/291 147/226/289
f 112/234/293 111/232/292 147/226/289
f 113/236/294 112/234/293 147/226/289
f 114/238/295 113/236/294 147/226/289
f 115/240/296 114/238/295 147/226/289
f 116/242/297 115/240/296 147/226/289
f 117/244/298 116/242/297 147/226/289
f 118/243/299 117/244/298 147/226/289
f 119/241/300 118/243/299 147/226/289
f 120/239/301 119/241/300 147/226/289
f 121/237/302 120/239/301 147/226/289
f 122/235/303 121/237/302 147/226/289
f 123/233/304 122/235/303 147/226/289
f 124/231/305 123/233/304 147/226/289
f 125/229/306 124/231/305 147/226/289
f 126/227/307 125/229/306 147/226/289
f 107/225/288 126/227/307 147/226/289
s 4
f 168/245/308 169/246/309 170/247/310
f 169/246/309 171/248/311 170/247/310
f 171/248/311 172/250/312 170/247/310
f 172/250/312 173/252/313 170/247/310
f 173/252/313 174/254/314 170/247/310
f 174/254/314 175/256/315 170/247/310
f 175/256/315 176/258/316 170/247/310
f 176/258/316 177/260/317 170/247/310
f 177/260/317 178/262/318 170/247/310
f 178/262/318 179/264/319 170/247/310
f 179/264/319 180/265/320 170/247/310
f 180/265/320 181/263/321 170/247/310
f 181/263/321 182/261/322 170/247/310
f 182/261/322 183/259/323 170/247/310
f 183/259/323 184/257/324 170/247/310
f 184/257/324 185/255/325 170/247/310
f 185/255/325 186/253/326 170/247/310
f 186/253/326 187/251/327 170/247/310
f 187/251/327 188/249/328 170/247/310
f 188/249/328 168/245/308 170/247/310
s 2
f 127/126/250 128/125/249 208/129/329 189/130/330
f 128/266/249 129/267/252 207/268/331 208/269/329
f 129/267/252 130/270/254 206/271/332 207/268/331
f 130/270/254 131/274/256 205/275/333 206/271/332
f 131/274/256 132/277/258 204/278/334 205/275/333
f 132/277/258 133/280/260 203/281/335 204/278/334
f 133/280/260 134/283/262 202/284/336 203/281/335
f 134/145/262 135/144/264 201/148/337 202/149/336
f 135/144/264 136/147/266 200/154/338 201/148/337
f 136/147/266 137/153/268 199/157/339 200/154/338
f 137/153/268 138/156/270 198/160/340 199/157/339
f 138/287/270 139/288/272 197/289/341 198/290/340
f 139/288/272 140/291/274 196/292/342 197/289/341
f 140/291/274 141/295/276 195/296/343 196/292/342
f 141/295/276 142/298/278 194/299/344 195/296/343
f 142/298/278 143/301/280 193/302/345 194/299/344
f 143/301/280 144/304/282 192/305/346 193/302/345
f 144/138/282 145/135/284 191/136/347 192/139/346
f 145/135/284 146/132/286 190/133/348 191/136/347
f 146/132/286 127/126/250 189/130/330 190/133/348
s 5
f 148/161/349 149/162/350 169/163/351 168/164/352
f 149/162/350 150/167/353 171/168/354 169/163/351
f 150/328/353 151/329/355 172/330/356 171/331/354
f 151/329/355 152/332/357 173/333/358 172/330/356
f 152/332/357 153/334/359 174/335/360 173/333/358
f 153/334/359 154/336/361 175/337/362 174/335/360
f 154/188/361 155/180/363 176/183/364 175/189/362
f 155/180/363 156/181/365 177/182/366 176/183/364
f 156/181/365 157/186/367 178/187/368 177/182/366
f 157/186/367 158/191/369 179/192/370 178/187/368
f 158/191/369 159/194/371 180/195/372 179/192/370
f 159/194/371 160/197/373 181/198/374 180/195/372
f 160/338/373 161/339/375 182/340/376 181/341/374
f 161/339/375 162/342/377 183/343/378 182/340/376
f 162/342/377 163/344/379 184/345/380 183/343/378
f 163/344/379 164/346/381 185/347/382 184/345/380
f 164/178/381 165/175/383 186/176/384 185/179/382
f 165/175/383 166/172/385 187/173/386 186/176/384
f 166/172/385 167/169/387 188/170/388 187/173/386
f 167/169/387 148/161/349 168/164/352 188/170/388
f 190/171/389 189/165/390 148/161/349 167/169/387
f 191/174/391 190/171/389 167/169/387 166/172/385
f 192/177/392 191/174/391 166/172/385 165/175/383
f 193/302/393 192/305/392 165/307/383 164/306/381
f 194/299/394 193/302/393 164/306/381 163/303/379
f 195/296/395 194/299/394 163/303/379 162/300/377
f 196/292/396 195/296/395 162/300/377 161/297/375
f 197/289/397 196/292/396 161/297/375 160/293/373
f 198/290/398 197/289/397 160/293/373 159/294/371
f 199/193/399 198/196/398 159/194/371 158/191/369
f 200/190/400 199/193/399 158/191/369 157/186/367
f 201/185/401 200/190/400 157/186/367 156/181/365
f 202/184/402 201/185/401 156/181/365 155/180/363
f 203/281/403 202/284/402 155/286/363 154/285/361
f 204/278/404 203/281/403 154/285/361 153/282/359
f 205/275/405 204/278/404 153/282/359 152/279/357
f 206/271/406 205/275/405 152/279/357 151/276/355
f 207/268/407 206/271/406 151/276/355 150/272/353
f 208/269/408 207/268/407 150/272/353 149/273/350
f 189/165/390 208/166/408 149/162/350 148/161/349
