# This file uses centimeters as units for non-parametric coordinates.

mtllib Cave floor.mtl
g default
v -9.020037 -0.370135 2.255264
v -2.186749 0.599861 2.741364
v 3.153721 -0.862685 3.174942
v 6.614359 -0.807234 2.189668
v -8.970238 -0.689191 -0.382850
v -1.789602 0.705071 -0.445771
v 3.984979 0.473656 -0.302148
v 8.735656 -0.830908 0.286346
v -8.960800 -0.918776 -3.869883
v -1.060017 0.702981 -4.688301
v 4.316136 0.451677 -4.638949
v 8.728839 -0.842768 -4.244428
v -8.960800 -0.853214 -9.436306
v -0.907193 -0.850927 -9.325508
v 4.031960 -0.854236 -8.939882
v 6.684772 -0.863056 -7.421268
v 9.040795 -0.834687 -1.884706
v 6.559842 0.080720 -4.470912
v -0.920586 0.017068 -6.936457
v -4.719320 -0.853219 -9.566250
v -8.960800 -0.892869 -5.734077
v 4.211401 -0.124109 -6.818637
v 1.963648 -0.853221 -9.218380
v 7.855733 -0.856959 -6.019880
v 5.509389 -0.858894 -8.293064
v -5.442112 0.526242 2.414852
v -2.039258 0.589661 1.161699
v -5.267443 0.461296 -0.384286
v -8.991949 -0.489119 0.943884
v 0.519992 0.297227 2.955956
v 3.404718 0.245477 1.388715
v 1.277686 0.848659 -0.431694
v 4.682374 -0.792471 2.617136
v 7.834625 -0.822428 1.519374
v 6.427837 -0.001881 -0.044031
v -1.405640 0.781204 -2.454170
v -4.789386 0.345840 -4.147962
v -8.961743 -0.847288 -2.034169
v 4.269687 0.594103 -2.385535
v 1.886436 0.745507 -4.716893
v -5.393070 0.469701 1.025304
v 0.869602 0.471080 1.268111
v 5.684010 -0.314006 1.468989
v -5.023098 0.502979 -2.158764
v 1.638320 0.918776 -2.477795
v 6.700945 0.135323 -2.171473
v -4.694320 0.021309 -6.160094
v 1.971029 -0.020902 -6.970530
v 6.112815 -0.318381 -6.478427
v -9.039122 -0.481427 4.661625
v -5.424284 0.319468 4.827355
v -2.177282 0.521805 5.477628
v 0.630728 0.484852 5.691576
v 3.833544 -0.853215 5.176561
v -9.039551 -0.772902 9.740643
v -5.155541 -0.669973 9.189481
v -1.827775 -0.853214 8.832650
v 0.711632 -0.853214 8.428854
v 2.813961 -0.853214 7.384552
v -4.726008 0.224816 -5.154897
v -6.796763 -0.179227 -5.975471
v -8.960800 -0.918185 -4.799555
v -0.967063 0.414495 -5.813673
v -2.715063 0.100289 -6.577701
v -0.905094 -0.474801 -8.057326
v -2.665416 -0.853220 -9.491272
v -4.683756 -0.302367 -7.165289
v -6.791130 -0.853219 -9.740643
v -8.960800 -0.855493 -6.675815
v 1.945977 0.399056 -5.844772
v 0.627517 -0.014697 -7.006692
v 4.277776 0.186170 -5.739753
v 3.151730 -0.060724 -6.908170
v 4.126350 -0.544610 -7.882913
v 3.085587 -0.853547 -9.110245
v 1.973087 -0.493505 -8.094820
v 0.643700 -0.850927 -9.281373
v 6.365653 -0.046621 -5.510834
v 5.191826 -0.163965 -6.670722
v 8.348135 -0.850605 -5.202291
v 6.994182 -0.633829 -6.256550
v 7.288868 -0.861494 -6.743954
v 6.115958 -0.862038 -7.871227
v 5.820877 -0.724976 -7.397800
v 4.827309 -0.856160 -8.658656
v -9.031622 -0.373624 3.336946
v -7.208026 0.012665 4.756838
v -5.455238 0.521248 3.560001
v -3.735247 0.488985 5.114140
v -2.213729 0.641654 4.021824
v -0.786754 0.496486 5.672937
v 0.541443 0.425198 4.246791
v 2.269560 0.344780 5.536614
v 3.559917 -0.850197 4.130409
v -9.040795 -0.633125 6.110932
v -7.054643 -0.670076 9.413743
v -5.310596 -0.003623 5.971761
v -3.470360 -0.794815 9.119977
v -2.047114 0.306942 6.832911
v -0.512709 -0.853214 8.576961
v 0.697645 0.342017 7.065588
v 1.838570 -0.853213 8.058484
v 3.643225 -0.853214 6.472351
v -7.210914 0.222024 2.349076
v -5.423564 0.485233 1.640257
v -7.177193 0.243012 0.994780
v -9.006107 -0.426580 1.524020
v -3.753950 0.647012 2.565583
v -2.126637 0.565253 1.865950
v -3.670214 0.618005 1.089520
v -1.930480 0.643128 0.400348
v -3.486343 0.639066 -0.411547
v -5.344107 0.458709 0.359189
v -7.104781 0.254535 -0.379118
v -8.979678 -0.580039 0.315810
v -0.780828 0.504646 2.872043
v 0.656573 0.354410 2.032606
v -0.530836 0.547950 1.215083
v 1.771887 -0.003759 2.993386
v 3.043032 -0.077450 2.134189
v 2.176604 0.285685 1.328326
v 3.725515 0.399372 0.586122
v 2.670712 0.741729 -0.381527
v 1.077496 0.702568 0.455149
v -0.205339 0.733174 -0.455023
v 3.688418 -0.800192 2.770401
v 5.199305 -0.475349 2.065867
v 4.568492 0.025653 1.434457
v 5.653959 -0.794973 2.415496
v 7.244444 -0.814595 1.889692
v 6.767359 -0.689309 1.496050
v 8.344997 -0.827994 1.008373
v 7.590186 -0.362779 0.116641
v 6.104263 -0.096722 0.780893
v 5.231727 0.225190 -0.186639
v -5.153840 0.494412 -1.231764
v -6.972348 0.197587 -2.103583
v -8.964575 -0.789763 -1.174172
v -1.605924 0.757567 -1.406735
v -3.154146 0.702290 -2.304309
v -1.214940 0.790420 -3.559669
v -2.841817 0.643095 -4.433869
v -4.895014 0.395782 -3.139662
v -6.847465 -0.030951 -4.026844
v -8.960800 -0.893308 -2.941301
v 1.467603 0.915059 -1.417789
v 0.182275 0.877474 -2.496088
v 4.162669 0.549920 -1.304656
v 2.991217 0.801286 -2.442638
v 4.317141 0.588100 -3.508922
v 3.142921 0.628799 -4.683104
v 1.780907 0.905714 -3.586144
v 0.500762 0.751034 -4.741706
v 6.622504 0.090937 -1.051393
v 5.502454 0.375926 -2.292136
v 8.966698 -0.833059 -0.717047
v 7.876582 -0.248138 -2.032634
v 8.960618 -0.834637 -3.099534
v 7.649010 -0.277669 -4.361324
v 6.675831 0.134555 -3.334553
v 5.451996 0.273518 -4.565890
v -7.196984 0.225779 1.593768
v -3.721548 0.618001 1.744294
v -3.595680 0.620672 0.380199
v -7.148021 0.253732 0.345485
v -0.674533 0.502126 1.957858
v 1.888492 0.103447 2.095391
v 2.441255 0.592692 0.511277
v -0.376252 0.630203 0.419610
v 4.142006 -0.179466 2.120251
v 6.228820 -0.742563 1.984521
v 7.233256 -0.538310 0.892589
v 4.940766 0.151539 0.677375
v -7.042781 0.257844 -1.203938
v -3.330604 0.676380 -1.314627
v -2.982657 0.678887 -3.355112
v -6.903800 0.045813 -3.052872
v -0.012654 0.835607 -1.435694
v 2.853245 0.789873 -1.375542
v 3.086988 0.789760 -3.554548
v 0.359923 0.873338 -3.607698
v 5.414270 0.326733 -1.193228
v 7.801829 -0.288851 -0.889288
v 7.822844 -0.244150 -3.220833
v 5.510343 0.371007 -3.433109
v -6.813663 -0.093897 -5.001007
v -2.757315 0.434734 -5.508297
v -2.700979 -0.348424 -7.645344
v -6.791130 -0.363918 -6.950028
v 0.585266 0.417483 -5.874545
v 3.161379 0.312819 -5.800009
v 3.123342 -0.503693 -8.010602
v 0.641601 -0.510898 -8.137637
v 5.341476 0.077627 -5.640224
v 7.363482 -0.441179 -5.361540
v 6.569031 -0.801027 -7.081423
v 5.016090 -0.633757 -7.671994
v -7.222500 0.192139 3.467280
v -3.771694 0.668671 3.773988
v -0.823202 0.544266 4.185772
v 2.021762 0.176750 4.202066
v -7.143779 -0.245919 6.025708
v -3.605079 0.193845 6.332616
v -0.656587 0.346834 7.070334
v 2.146723 0.069760 6.811133
vt 0.001148 0.384234
vt 0.101201 0.379419
vt 0.101972 0.418190
vt 0.001918 0.421770
vt 0.199025 0.376042
vt 0.200050 0.415803
vt 0.201737 0.447370
vt 0.103066 0.448937
vt 0.002701 0.451549
vt 0.292388 0.368305
vt 0.294180 0.410463
vt 0.379062 0.359282
vt 0.382387 0.404218
vt 0.387219 0.440368
vt 0.297019 0.444073
vt 0.301141 0.480484
vt 0.204445 0.481562
vt 0.393235 0.479450
vt 0.401026 0.522882
vt 0.307188 0.521125
vt 0.208685 0.519726
vt 0.104680 0.482266
vt 0.003380 0.483789
vt 0.107071 0.519461
vt 0.003902 0.519652
vt 0.456816 0.352574
vt 0.462695 0.399501
vt 0.528758 0.348267
vt 0.536312 0.395664
vt 0.548093 0.434906
vt 0.470642 0.437628
vt 0.597994 0.346346
vt 0.604443 0.392441
vt 0.674416 0.337026
vt 0.668295 0.390449
vt 0.688298 0.428715
vt 0.620377 0.431815
vt 0.635013 0.473755
vt 0.559591 0.476637
vt 0.706039 0.469914
vt 0.720389 0.515510
vt 0.647703 0.519584
vt 0.570662 0.522159
vt 0.479191 0.478461
vt 0.488644 0.523357
vt 0.703987 0.357792
vt 0.729073 0.391165
vt 0.758958 0.365659
vt 0.787547 0.393956
vt 0.814353 0.424595
vt 0.752660 0.426367
vt 0.812691 0.376009
vt 0.844484 0.398132
vt 0.865806 0.387601
vt 0.900653 0.403000
vt 0.933293 0.422009
vt 0.874268 0.423206
vt 0.900034 0.454182
vt 0.837595 0.459916
vt 0.961519 0.448239
vt 0.983124 0.485301
vt 0.919774 0.494013
vt 0.855491 0.502260
vt 0.773249 0.465229
vt 0.789340 0.509580
vt 0.110500 0.561800
vt 0.004215 0.560272
vt 0.214968 0.563228
vt 0.222198 0.610812
vt 0.114395 0.607980
vt 0.004372 0.604417
vt 0.315801 0.567482
vt 0.411185 0.572210
vt 0.422261 0.625976
vt 0.325560 0.618283
vt 0.335045 0.672222
vt 0.229282 0.661163
vt 0.432808 0.682722
vt 0.441376 0.740657
vt 0.342834 0.727596
vt 0.235124 0.712920
vt 0.118186 0.656708
vt 0.004424 0.650981
vt 0.121302 0.706703
vt 0.004424 0.698646
vt 0.499300 0.573696
vt 0.581166 0.572777
vt 0.590607 0.627188
vt 0.510081 0.628127
vt 0.657798 0.570608
vt 0.730216 0.566970
vt 0.736135 0.622453
vt 0.665429 0.625384
vt 0.670726 0.682460
vt 0.598493 0.684081
vt 0.738759 0.680118
vt 0.738703 0.738123
vt 0.673819 0.740390
vt 0.604329 0.742124
vt 0.519906 0.685188
vt 0.527695 0.743398
vt 0.799436 0.561250
vt 0.866257 0.553969
vt 0.870595 0.611465
vt 0.804313 0.617658
vt 0.931479 0.545648
vt 0.995902 0.536807
vt 1.000000 0.596744
vt 0.935613 0.604338
vt 0.932641 0.665330
vt 0.869206 0.671167
vt 0.995566 0.659103
vt 0.982747 0.717872
vt 0.923028 0.723872
vt 0.862791 0.729498
vt 0.804749 0.676226
vt 0.801522 0.734373
vt 0.123171 0.756708
vt 0.004424 0.746367
vt 0.238629 0.764608
vt 0.240381 0.816206
vt 0.124106 0.806729
vt 0.004424 0.794338
vt 0.347507 0.782748
vt 0.446517 0.798423
vt 0.449087 0.856057
vt 0.349844 0.837642
vt 0.350623 0.892446
vt 0.240965 0.867804
vt 0.449944 0.913593
vt 0.449828 0.978691
vt 0.352590 0.987200
vt 0.238999 0.991048
vt 0.124417 0.856754
vt 0.004424 0.842678
vt 0.124417 1.000000
vt 0.004424 0.984378
vt 0.532368 0.801548
vt 0.607622 0.800020
vt 0.609008 0.857806
vt 0.534705 0.859663
vt 0.674840 0.797722
vt 0.736582 0.794629
vt 0.732911 0.850010
vt 0.674306 0.854605
vt 0.672736 0.911195
vt 0.609121 0.915518
vt 0.728207 0.904640
vt 0.722987 0.958896
vt 0.670648 0.967641
vt 0.608599 0.973191
vt 0.535484 0.917716
vt 0.535600 0.976425
vt 0.795410 0.789520
vt 0.852052 0.782878
vt 0.838068 0.832546
vt 0.787133 0.842417
vt 0.907237 0.775215
vt 0.961693 0.767040
vt 0.934460 0.809008
vt 0.886812 0.821157
vt 0.863299 0.863499
vt 0.821923 0.879739
vt 0.903110 0.846176
vt 0.869700 0.880944
vt 0.838242 0.904040
vt 0.804696 0.925694
vt 0.777414 0.893814
vt 0.766974 0.944460
vt 0.100561 0.322020
vt 0.198299 0.317261
vt 0.000507 0.328710
vt 0.000092 0.260713
vt 0.101361 0.255825
vt 0.200011 0.252205
vt 0.291407 0.306276
vt 0.377570 0.293555
vt 0.293423 0.237485
vt 0.379586 0.218826
vt 0.454473 0.285139
vt 0.529945 0.282007
vt 0.456489 0.208801
vt 0.534882 0.207844
vt 0.611813 0.284302
vt 0.696881 0.287981
vt 0.625518 0.215798
vt 0.712014 0.234280
vt 0.104914 0.190693
vt 0.206298 0.193462
vt 0.000000 0.186318
vt 0.000069 0.000000
vt 0.109844 0.016780
vt 0.214873 0.028292
vt 0.300622 0.174938
vt 0.386785 0.149258
vt 0.308072 0.031860
vt 0.398915 0.046609
vt 0.463688 0.137070
vt 0.538583 0.137314
vt 0.471645 0.059733
vt 0.539357 0.067336
vt 0.618724 0.150376
vt 0.701488 0.167766
vt 0.601682 0.086347
vt 0.655626 0.120941
vn -0.313063 0.949679 -0.010075
vn -0.242621 0.970101 -0.006193
vn -0.246090 0.968773 -0.030298
vn -0.338083 0.940152 -0.042585
vn -0.122878 0.992331 -0.013431
vn -0.111749 0.993423 -0.024966
vn -0.105991 0.994309 -0.010729
vn -0.257263 0.965759 -0.033538
vn -0.375416 0.924961 -0.059250
vn -0.023873 0.999374 -0.026115
vn -0.023537 0.999484 -0.021879
vn 0.046806 0.998555 -0.026401
vn 0.037664 0.999288 0.002244
vn 0.017573 0.998569 0.050503
vn -0.036792 0.999299 0.006866
vn -0.053047 0.998427 0.018138
vn -0.103973 0.994559 -0.006480
vn -0.004772 0.997772 0.066549
vn -0.026885 0.997660 0.062855
vn -0.065942 0.997402 0.029000
vn -0.106520 0.994280 0.007777
vn -0.274568 0.960531 -0.044632
vn -0.413955 0.906939 -0.078118
vn -0.296601 0.954121 -0.040997
vn -0.449922 0.889676 -0.077767
vn 0.095026 0.995254 -0.020993
vn 0.075001 0.996025 0.048061
vn 0.163287 0.986157 -0.028827
vn 0.143299 0.981687 0.125522
vn 0.075708 0.971422 0.224961
vn 0.029936 0.992944 0.114745
vn 0.330272 0.943829 0.010331
vn 0.209091 0.936572 0.281272
vn 0.465813 0.883061 0.056753
vn 0.197132 0.877366 0.437456
vn 0.107257 0.939452 0.325463
vn 0.093938 0.945983 0.310309
vn 0.096364 0.965732 0.240988
vn 0.019194 0.977856 0.208399
vn 0.152607 0.965982 0.208781
vn 0.177177 0.975958 0.126939
vn 0.124669 0.984324 0.124754
vn 0.003083 0.993733 0.111738
vn -0.014598 0.991959 0.125717
vn -0.043128 0.994901 0.091174
vn 0.180339 0.729097 0.660223
vn 0.172537 0.821215 0.543909
vn 0.172008 0.728341 0.663274
vn 0.226102 0.832704 0.505453
vn 0.253198 0.881628 0.398275
vn 0.197047 0.917469 0.345578
vn 0.177902 0.849791 0.496192
vn 0.200043 0.911912 0.358330
vn 0.070574 0.981706 0.176841
vn 0.100209 0.977456 0.185846
vn 0.157848 0.953084 0.258294
vn 0.221000 0.910367 0.349845
vn 0.256933 0.919027 0.298956
vn 0.241826 0.923712 0.297112
vn 0.252632 0.933962 0.252769
vn 0.347780 0.923057 0.164363
vn 0.312350 0.931714 0.185328
vn 0.233455 0.956540 0.174732
vn 0.190256 0.956908 0.219387
vn 0.177042 0.974806 0.135683
vn -0.312235 0.948754 -0.048729
vn -0.468480 0.880223 -0.075727
vn -0.115936 0.993249 -0.003800
vn -0.136559 0.988123 -0.070455
vn -0.314149 0.944402 -0.097031
vn -0.456289 0.884694 -0.095478
vn -0.072316 0.997179 0.020098
vn -0.042953 0.998378 0.037367
vn -0.053331 0.998574 0.002448
vn -0.085952 0.996013 -0.023870
vn -0.102025 0.993385 -0.052691
vn -0.158894 0.983125 -0.090650
vn -0.053803 0.997499 -0.045846
vn -0.043343 0.984974 -0.167176
vn -0.103372 0.986494 -0.127057
vn -0.164768 0.981486 -0.097656
vn -0.304730 0.947212 -0.099641
vn -0.423024 0.901989 -0.086411
vn -0.286107 0.955773 -0.068119
vn -0.390151 0.919422 -0.049448
vn -0.049939 0.997776 0.044157
vn 0.014420 0.998940 0.043709
vn 0.026066 0.999648 0.004915
vn -0.045233 0.998969 0.003728
vn 0.130488 0.989814 0.056925
vn 0.173759 0.981727 0.077591
vn 0.168906 0.985296 0.025751
vn 0.125898 0.991908 0.016386
vn 0.124822 0.990092 -0.064318
vn 0.035597 0.997064 -0.067789
vn 0.167595 0.984222 -0.056743
vn 0.153818 0.972739 -0.173550
vn 0.119088 0.973027 -0.197575
vn 0.045536 0.977268 -0.207059
vn -0.034211 0.997567 -0.060738
vn -0.016475 0.980284 -0.196907
vn 0.176546 0.980357 0.087931
vn 0.239470 0.966562 0.091716
vn 0.252993 0.967166 0.024180
vn 0.183550 0.982647 0.026740
vn 0.355609 0.930738 0.085262
vn 0.409815 0.908857 0.077660
vn 0.443933 0.895985 0.011624
vn 0.381871 0.924084 0.015619
vn 0.395023 0.917209 -0.051821
vn 0.258090 0.965236 -0.041340
vn 0.462112 0.885129 -0.054760
vn 0.459919 0.876694 -0.141007
vn 0.395980 0.906391 -0.147158
vn 0.261289 0.955996 -0.133413
vn 0.185069 0.981633 -0.046322
vn 0.168321 0.975635 -0.140731
vn -0.257640 0.963077 -0.078130
vn -0.358187 0.932997 -0.034916
vn -0.144798 0.975620 -0.164921
vn -0.106308 0.962561 -0.249349
vn -0.209386 0.969690 -0.125934
vn -0.309820 0.949377 -0.051916
vn -0.087151 0.966692 -0.240649
vn -0.027296 0.956272 -0.291201
vn -0.017746 0.929785 -0.367675
vn -0.066425 0.941525 -0.330330
vn -0.022830 0.954573 -0.297102
vn -0.037797 0.969140 -0.243597
vn 0.000938 0.944397 -0.328807
vn 0.012084 0.960823 -0.276898
vn -0.002526 0.967467 -0.252986
vn -0.015004 0.976435 -0.215288
vn -0.102956 0.984071 -0.144930
vn -0.168725 0.982134 -0.083331
vn -0.071743 0.987503 -0.140323
vn -0.123548 0.988541 -0.086729
vn -0.000523 0.949360 -0.314189
vn 0.044321 0.948465 -0.313768
vn 0.031842 0.930023 -0.366119
vn 0.004515 0.927146 -0.374673
vn 0.097694 0.951469 -0.291826
vn 0.122088 0.958544 -0.257464
vn 0.108456 0.935142 -0.337264
vn 0.073199 0.934776 -0.347614
vn 0.054920 0.938762 -0.340161
vn 0.020829 0.938331 -0.345109
vn 0.103471 0.935753 -0.337136
vn 0.086973 0.954288 -0.285956
vn 0.044318 0.952614 -0.300935
vn 0.016653 0.954081 -0.299085
vn 0.005619 0.939346 -0.342926
vn 0.007185 0.957267 -0.289116
vn 0.148288 0.961354 -0.231970
vn 0.272298 0.929447 -0.248964
vn 0.278455 0.889535 -0.362203
vn 0.164050 0.923123 -0.347751
vn 0.383421 0.886689 -0.258401
vn 0.422280 0.873851 -0.240965
vn 0.349600 0.892649 -0.284529
vn 0.348776 0.877722 -0.328573
vn 0.271172 0.907717 -0.320180
vn 0.229444 0.907205 -0.352612
vn 0.254842 0.930777 -0.262123
vn 0.129481 0.982322 -0.135197
vn 0.154475 0.971555 -0.179494
vn 0.157058 0.963324 -0.217576
vn 0.163715 0.923863 -0.345940
vn 0.136285 0.956975 -0.256175
vn -0.238461 0.968343 0.073806
vn -0.138985 0.987232 0.077821
vn -0.294429 0.953715 0.061155
vn -0.255729 0.958193 0.128330
vn -0.212795 0.963973 0.159609
vn -0.148010 0.969280 0.196443
vn -0.049253 0.997009 0.059562
vn 0.024994 0.999145 0.032946
vn -0.096001 0.979091 0.179347
vn -0.030411 0.991431 0.127040
vn 0.067617 0.997691 -0.006326
vn 0.116748 0.990435 -0.073543
vn 0.015032 0.997273 0.072255
vn 0.082781 0.995760 0.040112
vn 0.362950 0.917160 -0.164572
vn 0.548451 0.812067 -0.199371
vn 0.389124 0.921092 0.013113
vn 0.578695 0.815156 -0.025152
vn -0.114398 0.983297 0.141564
vn -0.079215 0.971795 0.222123
vn -0.145789 0.984311 0.099388
vn -0.116355 0.989896 0.081045
vn -0.088005 0.989110 0.117973
vn -0.048131 0.976295 0.211027
vn -0.068335 0.953904 0.292229
vn -0.040545 0.929701 0.366077
vn -0.043446 0.942791 0.330542
vn -0.029633 0.881789 0.470713
vn 0.003737 0.908730 0.417367
vn 0.112346 0.898254 0.424875
vn 0.012724 0.803377 0.595335
vn 0.121331 0.760834 0.637503
vn 0.369245 0.856351 0.360999
vn 0.572472 0.783390 0.242027
vn 0.292522 0.734014 0.612907
vn 0.480081 0.686414 0.546222
s 1
g pPlane2
usemtl initialShadingGroup
f 1/1/1 104/2/2 162/3/3 107/4/4
f 104/2/2 26/5/5 105/6/6 162/3/3
f 162/3/3 105/6/6 41/7/7 106/8/8
f 107/4/4 162/3/3 106/8/8 29/9/9
f 26/5/5 108/10/10 163/11/11 105/6/6
f 108/10/10 2/12/12 109/13/13 163/11/11
f 163/11/11 109/13/13 27/14/14 110/15/15
f 105/6/6 163/11/11 110/15/15 41/7/7
f 41/7/7 110/15/15 164/16/16 113/17/17
f 110/15/15 27/14/14 111/18/18 164/16/16
f 164/16/16 111/18/18 6/19/19 112/20/20
f 113/17/17 164/16/16 112/20/20 28/21/21
f 29/9/9 106/8/8 165/22/22 115/23/23
f 106/8/8 41/7/7 113/17/17 165/22/22
f 165/22/22 113/17/17 28/21/21 114/24/24
f 115/23/23 165/22/22 114/24/24 5/25/25
f 2/12/12 116/26/26 166/27/27 109/13/13
f 116/26/26 30/28/28 117/29/29 166/27/27
f 166/27/27 117/29/29 42/30/30 118/31/31
f 109/13/13 166/27/27 118/31/31 27/14/14
f 30/28/28 119/32/32 167/33/33 117/29/29
f 119/32/32 3/34/34 120/35/35 167/33/33
f 167/33/33 120/35/35 31/36/36 121/37/37
f 117/29/29 167/33/33 121/37/37 42/30/30
f 42/30/30 121/37/37 168/38/38 124/39/39
f 121/37/37 31/36/36 122/40/40 168/38/38
f 168/38/38 122/40/40 7/41/41 123/42/42
f 124/39/39 168/38/38 123/42/42 32/43/43
f 27/14/14 118/31/31 169/44/44 111/18/18
f 118/31/31 42/30/30 124/39/39 169/44/44
f 169/44/44 124/39/39 32/43/43 125/45/45
f 111/18/18 169/44/44 125/45/45 6/19/19
f 3/34/34 126/46/46 170/47/47 120/35/35
f 126/46/46 33/48/48 127/49/49 170/47/47
f 170/47/47 127/49/49 43/50/50 128/51/51
f 120/35/35 170/47/47 128/51/51 31/36/36
f 33/48/48 129/52/52 171/53/53 127/49/49
f 129/52/52 4/54/54 130/55/55 171/53/53
f 171/53/53 130/55/55 34/56/56 131/57/57
f 127/49/49 171/53/53 131/57/57 43/50/50
f 43/50/50 131/57/57 172/58/58 134/59/59
f 131/57/57 34/56/56 132/60/60 172/58/58
f 172/58/58 132/60/60 8/61/61 133/62/62
f 134/59/59 172/58/58 133/62/62 35/63/63
f 31/36/36 128/51/51 173/64/64 122/40/40
f 128/51/51 43/50/50 134/59/59 173/64/64
f 173/64/64 134/59/59 35/63/63 135/65/65
f 122/40/40 173/64/64 135/65/65 7/41/41
f 5/25/25 114/24/24 174/66/66 138/67/67
f 114/24/24 28/21/21 136/68/68 174/66/66
f 174/66/66 136/68/68 44/69/69 137/70/70
f 138/67/67 174/66/66 137/70/70 38/71/71
f 28/21/21 112/20/20 175/72/72 136/68/68
f 112/20/20 6/19/19 139/73/73 175/72/72
f 175/72/72 139/73/73 36/74/74 140/75/75
f 136/68/68 175/72/72 140/75/75 44/69/69
f 44/69/69 140/75/75 176/76/76 143/77/77
f 140/75/75 36/74/74 141/78/78 176/76/76
f 176/76/76 141/78/78 10/79/79 142/80/80
f 143/77/77 176/76/76 142/80/80 37/81/81
f 38/71/71 137/70/70 177/82/82 145/83/83
f 137/70/70 44/69/69 143/77/77 177/82/82
f 177/82/82 143/77/77 37/81/81 144/84/84
f 145/83/83 177/82/82 144/84/84 9/85/85
f 6/19/19 125/45/45 178/86/86 139/73/73
f 125/45/45 32/43/43 146/87/87 178/86/86
f 178/86/86 146/87/87 45/88/88 147/89/89
f 139/73/73 178/86/86 147/89/89 36/74/74
f 32/43/43 123/42/42 179/90/90 146/87/87
f 123/42/42 7/41/41 148/91/91 179/90/90
f 179/90/90 148/91/91 39/92/92 149/93/93
f 146/87/87 179/90/90 149/93/93 45/88/88
f 45/88/88 149/93/93 180/94/94 152/95/95
f 149/93/93 39/92/92 150/96/96 180/94/94
f 180/94/94 150/96/96 11/97/97 151/98/98
f 152/95/95 180/94/94 151/98/98 40/99/99
f 36/74/74 147/89/89 181/100/100 141/78/78
f 147/89/89 45/88/88 152/95/95 181/100/100
f 181/100/100 152/95/95 40/99/99 153/101/101
f 141/78/78 181/100/100 153/101/101 10/79/79
f 7/41/41 135/65/65 182/102/102 148/91/91
f 135/65/65 35/63/63 154/103/103 182/102/102
f 182/102/102 154/103/103 46/104/104 155/105/105
f 148/91/91 182/102/102 155/105/105 39/92/92
f 35/63/63 133/62/62 183/106/106 154/103/103
f 133/62/62 8/61/61 156/107/107 183/106/106
f 183/106/106 156/107/107 17/108/108 157/109/109
f 154/103/103 183/106/106 157/109/109 46/104/104
f 46/104/104 157/109/109 184/110/110 160/111/111
f 157/109/109 17/108/108 158/112/112 184/110/110
f 184/110/110 158/112/112 12/113/113 159/114/114
f 160/111/111 184/110/110 159/114/114 18/115/115
f 39/92/92 155/105/105 185/116/116 150/96/96
f 155/105/105 46/104/104 160/111/111 185/116/116
f 185/116/116 160/111/111 18/115/115 161/117/117
f 150/96/96 185/116/116 161/117/117 11/97/97
f 9/85/85 144/84/84 186/118/118 62/119/119
f 144/84/84 37/81/81 60/120/120 186/118/118
f 186/118/118 60/120/120 47/121/121 61/122/122
f 62/119/119 186/118/118 61/122/122 21/123/123
f 37/81/81 142/80/80 187/124/124 60/120/120
f 142/80/80 10/79/79 63/125/125 187/124/124
f 187/124/124 63/125/125 19/126/126 64/127/127
f 60/120/120 187/124/124 64/127/127 47/121/121
f 47/121/121 64/127/127 188/128/128 67/129/129
f 64/127/127 19/126/126 65/130/130 188/128/128
f 188/128/128 65/130/130 14/131/131 66/132/132
f 67/129/129 188/128/128 66/132/132 20/133/133
f 21/123/123 61/122/122 189/134/134 69/135/135
f 61/122/122 47/121/121 67/129/129 189/134/134
f 189/134/134 67/129/129 20/133/133 68/136/136
f 69/135/135 189/134/134 68/136/136 13/137/137
f 10/79/79 153/101/101 190/138/138 63/125/125
f 153/101/101 40/99/99 70/139/139 190/138/138
f 190/138/138 70/139/139 48/140/140 71/141/141
f 63/125/125 190/138/138 71/141/141 19/126/126
f 40/99/99 151/98/98 191/142/142 70/139/139
f 151/98/98 11/97/97 72/143/143 191/142/142
f 191/142/142 72/143/143 22/144/144 73/145/145
f 70/139/139 191/142/142 73/145/145 48/140/140
f 48/140/140 73/145/145 192/146/146 76/147/147
f 73/145/145 22/144/144 74/148/148 192/146/146
f 192/146/146 74/148/148 15/149/149 75/150/150
f 76/147/147 192/146/146 75/150/150 23/151/151
f 19/126/126 71/141/141 193/152/152 65/130/130
f 71/141/141 48/140/140 76/147/147 193/152/152
f 193/152/152 76/147/147 23/151/151 77/153/153
f 65/130/130 193/152/152 77/153/153 14/131/131
f 11/97/97 161/117/117 194/154/154 72/143/143
f 161/117/117 18/115/115 78/155/155 194/154/154
f 194/154/154 78/155/155 49/156/156 79/157/157
f 72/143/143 194/154/154 79/157/157 22/144/144
f 18/115/115 159/114/114 195/158/158 78/155/155
f 159/114/114 12/113/113 80/159/159 195/158/158
f 195/158/158 80/159/159 24/160/160 81/161/161
f 78/155/155 195/158/158 81/161/161 49/156/156
f 49/156/156 81/161/161 196/162/162 84/163/163
f 81/161/161 24/160/160 82/164/164 196/162/162
f 196/162/162 82/164/164 16/165/165 83/166/166
f 84/163/163 196/162/162 83/166/166 25/167/167
f 22/144/144 79/157/157 197/168/168 74/148/148
f 79/157/157 49/156/156 84/163/163 197/168/168
f 197/168/168 84/163/163 25/167/167 85/169/169
f 74/148/148 197/168/168 85/169/169 15/149/149
f 26/5/5 104/2/2 198/170/170 88/171/171
f 104/2/2 1/1/1 86/172/172 198/170/170
f 198/170/170 86/172/172 50/173/173 87/174/174
f 88/171/171 198/170/170 87/174/174 51/175/175
f 2/12/12 108/10/10 199/176/176 90/177/177
f 108/10/10 26/5/5 88/171/171 199/176/176
f 199/176/176 88/171/171 51/175/175 89/178/178
f 90/177/177 199/176/176 89/178/178 52/179/179
f 30/28/28 116/26/26 200/180/180 92/181/181
f 116/26/26 2/12/12 90/177/177 200/180/180
f 200/180/180 90/177/177 52/179/179 91/182/182
f 92/181/181 200/180/180 91/182/182 53/183/183
f 3/34/34 119/32/32 201/184/184 94/185/185
f 119/32/32 30/28/28 92/181/181 201/184/184
f 201/184/184 92/181/181 53/183/183 93/186/186
f 94/185/185 201/184/184 93/186/186 54/187/187
f 51/175/175 87/174/174 202/188/188 97/189/189
f 87/174/174 50/173/173 95/190/190 202/188/188
f 202/188/188 95/190/190 55/191/191 96/192/192
f 97/189/189 202/188/188 96/192/192 56/193/193
f 52/179/179 89/178/178 203/194/194 99/195/195
f 89/178/178 51/175/175 97/189/189 203/194/194
f 203/194/194 97/189/189 56/193/193 98/196/196
f 99/195/195 203/194/194 98/196/196 57/197/197
f 53/183/183 91/182/182 204/198/198 101/199/199
f 91/182/182 52/179/179 99/195/195 204/198/198
f 204/198/198 99/195/195 57/197/197 100/200/200
f 101/199/199 204/198/198 100/200/200 58/201/201
f 54/187/187 93/186/186 205/202/202 103/203/203
f 93/186/186 53/183/183 101/199/199 205/202/202
f 205/202/202 101/199/199 58/201/201 102/204/204
f 103/203/203 205/202/202 102/204/204 59/205/205
