# This file uses centimeters as units for non-parametric coordinates.

g default
v -0.023610 0.088989 -0.617342
v -0.058290 0.090717 -0.575081
v 0.002363 0.227571 -0.564693
v 0.013085 0.235194 0.095125
v -0.044821 0.097750 0.112958
v -0.002647 0.094415 0.147664
v 0.658825 0.045634 -0.681586
v 0.656623 0.186072 -0.626166
v 0.689861 -0.115622 -0.652154
v 0.766172 -0.141313 0.064972
v 0.730186 0.160970 0.062740
v 0.742632 0.018334 0.112508
v 3.173245 -0.026775 0.044508
v 3.133376 -0.023479 0.086670
v 3.183195 0.206236 0.089471
v 3.133651 0.259077 0.797793
v 3.084161 0.030253 0.825579
v 3.124927 0.029385 0.866832
v 3.888860 -0.060928 0.039355
v 3.869247 0.173607 0.084651
v 3.932410 -0.322921 0.089710
v 3.948426 -0.317560 0.868574
v 3.884934 0.178076 0.832928
v 3.905776 -0.053142 0.901633
v 3.939535 -0.002870 -0.283729
v 3.901819 -0.003842 -0.239518
v 3.919325 0.230523 -0.244564
v 3.899455 0.296991 0.464064
v 3.883725 0.064458 0.499605
v 3.926286 0.070427 0.538559
v 4.651732 0.061569 -0.327532
v 4.602092 0.292416 -0.286441
v 4.733787 -0.190339 -0.273851
v 4.788980 -0.159776 0.502638
v 4.655509 0.321146 0.459552
v 4.711774 0.097126 0.532120
v 3.938409 0.090673 -1.828370
v 3.900684 0.082445 -1.784928
v 3.927694 0.312260 -1.743524
v 3.910539 0.237460 -1.035656
v 3.885379 0.003314 -1.046822
v 3.928146 -0.000269 -1.007803
v 4.652636 0.134124 -1.864261
v 4.612411 0.354007 -1.777796
v 4.724390 -0.126490 -1.862280
v 4.780779 -0.252912 -1.095630
v 4.666951 0.231915 -1.041383
v 4.714070 -0.004111 -1.015151
v 1.667080 0.055364 -3.000133
v 1.627351 0.044589 -2.962913
v 1.658313 0.207139 -2.941649
v 1.585373 0.112721 -2.280070
v 1.553729 -0.054500 -2.272716
v 1.591590 -0.056462 -2.231887
v 2.355369 0.134953 -2.965192
v 2.318158 0.283498 -2.908032
v 2.414592 -0.045464 -2.933578
v 2.405760 -0.175056 -2.205576
v 2.310011 0.158576 -2.208648
v 2.344678 -0.007376 -2.159142
v 0.880136 0.141935 -3.682868
v 0.841419 0.136972 -3.722315
v 0.822182 0.293398 -3.667593
v 0.157866 0.210423 -3.728603
v 0.148455 0.049474 -3.783602
v 0.109041 0.042098 -3.744917
v 0.871041 0.121934 -2.989460
v 0.813342 0.274281 -3.002828
v 0.840669 -0.065115 -2.955583
v 0.112154 -0.192098 -2.955759
v 0.113476 0.151821 -3.002724
v 0.064396 -0.017388 -2.990391
v -0.785683 -0.041039 -4.236947
v -0.825875 -0.049308 -4.199584
v -0.809514 0.116666 -4.203870
v -0.901564 0.121617 -3.537968
v -0.919395 -0.044499 -3.504716
v -0.883220 -0.036617 -3.463079
v -0.108488 0.104077 -4.196379
v -0.160315 0.255862 -4.164868
v -0.035747 -0.063095 -4.134577
v -0.063770 -0.076550 -3.395732
v -0.186864 0.242548 -3.454990
v -0.140521 0.090234 -3.378534
v -2.334824 0.059027 -4.916079
v -2.367545 0.064651 -4.879320
v -2.312803 0.224578 -4.874208
v -2.325809 0.288699 -4.280310
v -2.379046 0.130445 -4.259897
v -2.342221 0.129382 -4.227049
v -1.717371 0.001734 -4.948317
v -1.720846 0.169739 -4.905016
v -1.690877 -0.183437 -4.913290
v -1.646810 -0.153409 -4.264002
v -1.678284 0.198094 -4.281248
v -1.669197 0.036325 -4.229422
v -3.933986 0.113766 -4.139201
v -3.971710 0.097454 -4.099822
v -3.944700 0.314358 -4.013403
v -3.961838 0.106523 -3.359532
v -3.986998 -0.120371 -3.418253
v -3.944229 -0.131299 -3.382098
v -3.219761 0.163088 -4.164181
v -3.259983 0.361706 -4.037203
v -3.148005 -0.092196 -4.215916
v -3.091598 -0.361706 -3.517085
v -3.205426 0.102183 -3.366070
v -3.158305 -0.133664 -3.389819
v -2.501810 0.140292 -1.381234
v -2.536233 0.134065 -1.416465
v -2.557778 0.291199 -1.367592
v -3.148486 0.186554 -1.422081
v -3.152389 0.023954 -1.471202
v -3.187368 0.015272 -1.436652
v -2.509370 0.119836 -0.761933
v -2.565135 0.271642 -0.773872
v -2.531255 -0.069745 -0.731677
v -3.178044 -0.220795 -0.731833
v -3.186475 0.126057 -0.773779
v -3.225560 -0.046125 -0.762765
v -2.404297 0.132280 -0.251229
v -2.442004 0.134372 -0.208686
v -2.379389 0.300115 -0.195494
v -2.394324 0.309347 0.490548
v -2.455199 0.142890 0.506791
v -2.412748 0.138851 0.544519
v -1.692638 0.079773 -0.291014
v -1.697117 0.249855 -0.233516
v -1.661552 -0.115521 -0.259207
v -1.610597 -0.146635 0.488979
v -1.647902 0.219454 0.485236
v -1.636936 0.046711 0.537441
v -4.711245 -0.017434 0.918529
v -4.748969 -0.015402 0.961105
v -4.721958 0.217646 0.946810
v -4.739097 0.308393 1.626889
v -4.764256 0.078116 1.670497
v -4.721488 0.083644 1.707861
v -3.997019 0.016532 0.874906
v -4.037242 0.250330 0.905096
v -3.925263 -0.236446 0.936938
v -3.868857 -0.182324 1.683979
v -3.982685 0.301680 1.622824
v -3.935564 0.078213 1.701885
v -3.983884 0.072142 1.346033
v -4.021608 0.064104 1.387893
v -3.994598 0.293978 1.428805
v -4.011736 0.222243 2.111152
v -4.036896 -0.011830 2.099382
v -3.994127 -0.015245 2.136998
v -3.269658 0.115415 1.311622
v -3.309881 0.335555 1.395948
v -3.197903 -0.145057 1.312420
v -3.141496 -0.268136 2.051237
v -3.255324 0.216674 2.105623
v -3.208203 -0.019118 2.129913
vt 0.513704 0.390842
vt 0.517980 0.392519
vt 0.517242 0.439090
vt 0.512792 0.440602
vt 0.517149 0.387915
vt 0.566192 0.387039
vt 0.565026 0.391566
vt 0.569437 0.390229
vt 0.568657 0.442879
vt 0.564337 0.441002
vt 0.515030 0.445524
vt 0.565412 0.447737
vt 0.577553 0.650337
vt 0.581829 0.652013
vt 0.581091 0.698585
vt 0.576642 0.700097
vt 0.580999 0.647410
vt 0.630042 0.646533
vt 0.628875 0.651061
vt 0.633286 0.649724
vt 0.632506 0.702373
vt 0.628187 0.700496
vt 0.578880 0.705019
vt 0.629262 0.707231
vt 0.552488 0.708263
vt 0.556764 0.709940
vt 0.556026 0.756512
vt 0.551577 0.758024
vt 0.555934 0.705336
vt 0.604977 0.704460
vt 0.603810 0.708987
vt 0.608221 0.707650
vt 0.607441 0.760300
vt 0.603122 0.758423
vt 0.553815 0.762945
vt 0.604197 0.765158
vt 0.417169 0.708351
vt 0.421760 0.710027
vt 0.420968 0.756599
vt 0.416190 0.758111
vt 0.420868 0.705424
vt 0.473527 0.704547
vt 0.472275 0.709075
vt 0.477011 0.707738
vt 0.476173 0.760387
vt 0.471536 0.758510
vt 0.418593 0.763033
vt 0.472690 0.765246
vt 0.265773 0.408041
vt 0.270087 0.409406
vt 0.270414 0.449686
vt 0.266000 0.451081
vt 0.269151 0.405442
vt 0.318161 0.403714
vt 0.317099 0.407652
vt 0.321478 0.406409
vt 0.321902 0.451945
vt 0.317540 0.450407
vt 0.268350 0.455292
vt 0.318770 0.456209
vt 0.265773 0.408041
vt 0.270087 0.409406
vt 0.270414 0.449686
vt 0.266000 0.451081
vt 0.269151 0.405442
vt 0.318161 0.403714
vt 0.317099 0.407652
vt 0.321478 0.406409
vt 0.321902 0.451945
vt 0.317540 0.450407
vt 0.268350 0.455292
vt 0.318770 0.456209
vt 0.226575 0.332779
vt 0.230888 0.334144
vt 0.231215 0.374424
vt 0.226801 0.375819
vt 0.229952 0.330180
vt 0.278962 0.328452
vt 0.277900 0.332390
vt 0.282279 0.331147
vt 0.282703 0.376683
vt 0.278342 0.375145
vt 0.229151 0.380030
vt 0.279571 0.380947
vt 0.165590 0.198623
vt 0.169866 0.200299
vt 0.169128 0.246871
vt 0.164678 0.248383
vt 0.169035 0.195696
vt 0.218078 0.194819
vt 0.216912 0.199347
vt 0.221323 0.198010
vt 0.220543 0.250659
vt 0.216223 0.248782
vt 0.166916 0.253305
vt 0.217298 0.255518
vt 0.234392 0.071761
vt 0.238878 0.073438
vt 0.238104 0.120010
vt 0.233436 0.121522
vt 0.238007 0.068835
vt 0.289460 0.067958
vt 0.288237 0.072486
vt 0.292865 0.071149
vt 0.292046 0.123798
vt 0.287514 0.121921
vt 0.235784 0.126443
vt 0.288642 0.128656
vt 0.444520 0.133358
vt 0.448833 0.134936
vt 0.449161 0.181513
vt 0.444747 0.183126
vt 0.447898 0.130353
vt 0.496908 0.128355
vt 0.495845 0.132909
vt 0.500225 0.131471
vt 0.500648 0.184125
vt 0.496287 0.182347
vt 0.447097 0.187995
vt 0.497516 0.189056
vt 0.544626 0.194062
vt 0.548902 0.195738
vt 0.548164 0.242310
vt 0.543715 0.243822
vt 0.548072 0.191135
vt 0.597115 0.190258
vt 0.595948 0.194786
vt 0.600359 0.193449
vt 0.599579 0.246098
vt 0.595260 0.244221
vt 0.545953 0.248744
vt 0.596335 0.250957
vt 0.646543 0.009043
vt 0.650819 0.010720
vt 0.650081 0.057291
vt 0.645632 0.058803
vt 0.649989 0.006116
vt 0.699032 0.005240
vt 0.697865 0.009767
vt 0.702276 0.008430
vt 0.701496 0.061080
vt 0.697177 0.059203
vt 0.647870 0.063725
vt 0.698252 0.065938
vt 0.676555 0.073329
vt 0.681041 0.075006
vt 0.680267 0.121578
vt 0.675599 0.123090
vt 0.680170 0.070403
vt 0.731623 0.069526
vt 0.730400 0.074054
vt 0.735028 0.072717
vt 0.734209 0.125366
vt 0.729677 0.123489
vt 0.677947 0.128011
vt 0.730806 0.130224
vn -0.064166 0.365176 -0.928724
vn -0.064166 0.365176 -0.928724
vn -0.064166 0.365176 -0.928724
vn -0.064166 0.365176 -0.928724
vn -0.917738 0.397001 0.012155
vn -0.917738 0.397001 0.012155
vn -0.917738 0.397001 0.012155
vn -0.917738 0.397001 0.012155
vn 0.078033 0.337700 0.938014
vn 0.078033 0.337700 0.938014
vn 0.078033 0.337700 0.938014
vn 0.078033 0.337700 0.938014
vn 0.987950 0.117208 -0.101075
vn 0.987951 0.117208 -0.101075
vn 0.987950 0.117208 -0.101075
vn 0.987951 0.117208 -0.101075
vn 0.084604 0.996386 0.007626
vn 0.084604 0.996386 0.007626
vn 0.084604 0.996386 0.007626
vn 0.084604 0.996386 0.007626
vn -0.713376 0.361726 -0.600208
vn -0.713376 0.361726 -0.600208
vn -0.713376 0.361726 -0.600208
vn -0.581201 0.340744 0.738985
vn -0.581201 0.340744 0.738985
vn -0.581201 0.340744 0.738985
vn 0.948106 0.129470 -0.290402
vn 0.948106 0.129470 -0.290402
vn 0.948106 0.129470 -0.290402
vn 0.988695 0.118380 0.092027
vn 0.988695 0.118380 0.092027
vn 0.988695 0.118380 0.092027
vn 0.002046 0.189589 -0.981861
vn 0.002046 0.189589 -0.981861
vn 0.002046 0.189589 -0.981861
vn 0.002046 0.189589 -0.981861
vn -0.974982 0.206704 -0.081754
vn -0.974982 0.206704 -0.081754
vn -0.974982 0.206704 -0.081754
vn -0.974982 0.206704 -0.081754
vn -0.013210 0.285997 0.958139
vn -0.013210 0.285997 0.958139
vn -0.013210 0.285997 0.958140
vn -0.013210 0.285997 0.958140
vn 0.991833 0.125735 -0.021400
vn 0.991833 0.125735 -0.021400
vn 0.991833 0.125735 -0.021400
vn 0.991833 0.125735 -0.021400
vn 0.079538 0.996132 -0.037345
vn 0.079538 0.996132 -0.037345
vn 0.079538 0.996132 -0.037345
vn 0.079538 0.996132 -0.037345
vn -0.710566 0.162454 -0.684621
vn -0.710566 0.162454 -0.684621
vn -0.710566 0.162454 -0.684621
vn -0.689373 0.232409 0.686113
vn -0.689373 0.232409 0.686113
vn -0.689373 0.232409 0.686113
vn 0.970559 0.121345 -0.208067
vn 0.970558 0.121345 -0.208067
vn 0.970558 0.121345 -0.208067
vn 0.976795 0.136973 0.164650
vn 0.976795 0.136973 0.164650
vn 0.976795 0.136973 0.164650
vn -0.074859 0.158924 -0.984449
vn -0.074859 0.158924 -0.984449
vn -0.074859 0.158924 -0.984449
vn -0.074859 0.158924 -0.984449
vn -0.997145 0.068157 -0.032493
vn -0.997145 0.068157 -0.032493
vn -0.997145 0.068157 -0.032493
vn -0.997145 0.068157 -0.032493
vn -0.003462 0.309696 0.950829
vn -0.003462 0.309696 0.950829
vn -0.003462 0.309696 0.950829
vn -0.003462 0.309696 0.950829
vn 0.962324 0.260241 -0.078785
vn 0.962324 0.260241 -0.078785
vn 0.962324 0.260241 -0.078785
vn 0.962324 0.260241 -0.078785
vn -0.061625 0.996060 -0.063766
vn -0.061625 0.996060 -0.063766
vn -0.061625 0.996060 -0.063766
vn -0.061625 0.996060 -0.063766
vn -0.760542 0.042861 -0.647872
vn -0.760542 0.042861 -0.647872
vn -0.760543 0.042861 -0.647872
vn -0.678723 0.155611 0.717719
vn -0.678723 0.155610 0.717719
vn -0.678723 0.155610 0.717719
vn 0.932281 0.247444 -0.263865
vn 0.932281 0.247444 -0.263865
vn 0.932281 0.247444 -0.263865
vn 0.955470 0.274804 0.107515
vn 0.955470 0.274803 0.107515
vn 0.955470 0.274804 0.107515
vn -0.068343 0.354053 -0.932725
vn -0.068343 0.354053 -0.932725
vn -0.068343 0.354053 -0.932725
vn -0.068343 0.354053 -0.932725
vn -0.993555 0.112887 -0.010287
vn -0.993555 0.112887 -0.010287
vn -0.993555 0.112887 -0.010287
vn -0.993555 0.112887 -0.010287
vn 0.009119 0.114652 0.993364
vn 0.009119 0.114652 0.993364
vn 0.009119 0.114652 0.993364
vn 0.009119 0.114652 0.993364
vn 0.972100 0.232185 -0.033353
vn 0.972100 0.232185 -0.033353
vn 0.972100 0.232185 -0.033353
vn 0.972100 0.232185 -0.033353
vn -0.021120 0.990541 0.135583
vn -0.021120 0.990541 0.135583
vn -0.021120 0.990541 0.135583
vn -0.021120 0.990541 0.135583
vn -0.758167 0.200870 -0.620350
vn -0.758167 0.200870 -0.620350
vn -0.758167 0.200870 -0.620350
vn -0.671848 0.036916 0.739769
vn -0.671848 0.036916 0.739769
vn -0.671848 0.036916 0.739769
vn 0.941564 0.257590 -0.217037
vn 0.941564 0.257590 -0.217037
vn 0.941564 0.257590 -0.217037
vn 0.965841 0.209733 0.152196
vn 0.965841 0.209733 0.152196
vn 0.965841 0.209733 0.152196
vn 0.005784 0.360115 -0.932890
vn 0.005784 0.360115 -0.932890
vn 0.005784 0.360115 -0.932890
vn 0.005784 0.360115 -0.932890
vn -0.978762 0.189148 -0.079043
vn -0.978762 0.189148 -0.079043
vn -0.978762 0.189148 -0.079043
vn -0.978762 0.189148 -0.079043
vn -0.110503 0.265683 0.957706
vn -0.110503 0.265683 0.957706
vn -0.110503 0.265683 0.957706
vn -0.110503 0.265683 0.957706
vn 0.959198 0.276155 0.060649
vn 0.959198 0.276155 0.060649
vn 0.959198 0.276155 0.060649
vn 0.959198 0.276155 0.060649
vn -0.098386 0.983375 0.152624
vn -0.098386 0.983375 0.152624
vn -0.098386 0.983375 0.152624
vn -0.098386 0.983375 0.152624
vn -0.698023 0.222015 -0.680789
vn -0.698023 0.222015 -0.680789
vn -0.698023 0.222015 -0.680789
vn -0.719118 0.165761 0.674828
vn -0.719118 0.165761 0.674828
vn -0.719118 0.165761 0.674828
vn 0.948456 0.288259 -0.131674
vn 0.948456 0.288259 -0.131674
vn 0.948456 0.288259 -0.131674
vn 0.929774 0.269147 0.251157
vn 0.929774 0.269147 0.251157
vn 0.929774 0.269147 0.251157
vn 0.934382 0.355558 0.022579
vn 0.934382 0.355558 0.022579
vn 0.934382 0.355558 0.022579
vn 0.934382 0.355558 0.022579
vn 0.043888 0.327639 -0.943783
vn 0.043888 0.327639 -0.943783
vn 0.043888 0.327639 -0.943783
vn 0.043888 0.327639 -0.943783
vn -0.959697 0.278789 -0.035480
vn -0.959697 0.278789 -0.035480
vn -0.959697 0.278789 -0.035480
vn -0.959697 0.278789 -0.035480
vn -0.023739 0.135655 0.990472
vn -0.023739 0.135655 0.990472
vn -0.023739 0.135655 0.990472
vn -0.023739 0.135655 0.990472
vn -0.150887 0.987316 0.049403
vn -0.150887 0.987316 0.049403
vn -0.150887 0.987316 0.049403
vn -0.150887 0.987316 0.049403
vn 0.655768 0.319875 -0.683849
vn 0.655768 0.319875 -0.683849
vn 0.655768 0.319875 -0.683849
vn -0.700012 0.267232 -0.662246
vn -0.700012 0.267232 -0.662246
vn -0.700012 0.267232 -0.662246
vn 0.168132 0.149178 0.974411
vn 0.168133 0.149178 0.974411
vn 0.168132 0.149178 0.974411
vn -0.215236 0.132944 0.967471
vn -0.215236 0.132944 0.967471
vn -0.215236 0.132944 0.967471
vn 0.014180 0.207590 -0.978113
vn 0.014180 0.207590 -0.978113
vn 0.014180 0.207590 -0.978113
vn 0.014180 0.207590 -0.978113
vn -0.987046 0.086341 -0.135224
vn -0.987046 0.086341 -0.135224
vn -0.987046 0.086341 -0.135224
vn -0.987046 0.086341 -0.135224
vn -0.171780 0.402438 0.899186
vn -0.171780 0.402438 0.899186
vn -0.171780 0.402438 0.899186
vn -0.171780 0.402438 0.899186
vn 0.929430 0.366625 0.041785
vn 0.929430 0.366625 0.041785
vn 0.929430 0.366625 0.041785
vn 0.929430 0.366625 0.041785
vn -0.186464 0.982410 -0.010102
vn -0.186464 0.982410 -0.010102
vn -0.186464 0.982410 -0.010102
vn -0.186464 0.982410 -0.010102
vn -0.685421 0.048804 -0.726509
vn -0.685421 0.048804 -0.726509
vn -0.685421 0.048804 -0.726510
vn -0.757710 0.205335 0.619446
vn -0.757710 0.205335 0.619446
vn -0.757710 0.205335 0.619446
vn 0.925665 0.347248 -0.150208
vn 0.925665 0.347248 -0.150208
vn 0.925665 0.347248 -0.150208
vn 0.892852 0.387150 0.230068
vn 0.892852 0.387150 0.230068
vn 0.892852 0.387150 0.230068
vn -0.027408 0.248741 -0.968182
vn -0.027408 0.248741 -0.968182
vn -0.027408 0.248741 -0.968182
vn -0.027408 0.248741 -0.968182
vn -0.946390 0.318611 -0.053230
vn -0.946390 0.318611 -0.053230
vn -0.946390 0.318611 -0.053230
vn -0.946390 0.318611 -0.053230
vn 0.045467 0.309791 0.949717
vn 0.045467 0.309791 0.949717
vn 0.045467 0.309791 0.949717
vn 0.045467 0.309791 0.949717
vn 0.993745 0.085736 -0.071555
vn 0.993745 0.085736 -0.071555
vn 0.993745 0.085736 -0.071555
vn 0.993745 0.085736 -0.071555
vn 0.114218 0.990390 -0.077988
vn 0.114218 0.990390 -0.077988
vn 0.114218 0.990390 -0.077988
vn 0.114218 0.990390 -0.077988
vn -0.700840 0.261114 -0.663809
vn -0.700840 0.261114 -0.663809
vn -0.700840 0.261114 -0.663809
vn -0.629274 0.303946 0.715284
vn -0.629274 0.303946 0.715284
vn -0.629274 0.303946 0.715284
vn 0.960766 0.087692 -0.263134
vn 0.960766 0.087692 -0.263134
vn 0.960766 0.087692 -0.263134
vn 0.988086 0.094437 0.121526
vn 0.988086 0.094437 0.121526
vn 0.988086 0.094437 0.121526
vn -0.065998 0.527776 -0.846816
vn -0.065998 0.527776 -0.846816
vn -0.065998 0.527776 -0.846816
vn -0.065998 0.527776 -0.846816
vn -0.993534 0.112913 0.011866
vn -0.993534 0.112913 0.011866
vn -0.993534 0.112913 0.011866
vn -0.993534 0.112913 0.011866
vn 0.008784 -0.096124 0.995331
vn 0.008784 -0.096124 0.995331
vn 0.008784 -0.096124 0.995331
vn 0.008784 -0.096124 0.995331
vn 0.971961 0.234838 0.011960
vn 0.971961 0.234838 0.011960
vn 0.971961 0.234838 0.011960
vn 0.971961 0.234838 0.011960
vn -0.021120 0.942658 0.333093
vn -0.021120 0.942658 0.333093
vn -0.021120 0.942658 0.333093
vn -0.021120 0.942658 0.333093
vn -0.746592 0.324388 -0.580838
vn -0.746592 0.324388 -0.580838
vn -0.746592 0.324388 -0.580838
vn -0.658582 -0.119264 0.742998
vn -0.658582 -0.119264 0.742998
vn -0.658582 -0.119264 0.742998
vn 0.939384 0.298305 -0.169033
vn 0.939384 0.298305 -0.169033
vn 0.939384 0.298305 -0.169033
vn 0.965259 0.173148 0.195688
vn 0.965259 0.173148 0.195688
vn 0.965259 0.173148 0.195688
vn 0.937929 0.346067 0.022950
vn 0.937929 0.346067 0.022950
vn 0.937929 0.346067 0.022950
vn 0.937929 0.346067 0.022950
vn 0.034014 0.294581 -0.955021
vn 0.034014 0.294581 -0.955021
vn 0.034014 0.294581 -0.955021
vn 0.034014 0.294581 -0.955021
vn -0.974488 0.221578 -0.035720
vn -0.974488 0.221578 -0.035720
vn -0.974488 0.221578 -0.035720
vn -0.974488 0.221578 -0.035720
vn -0.028027 0.119607 0.992426
vn -0.028027 0.119607 0.992426
vn -0.028027 0.119607 0.992426
vn -0.028027 0.119607 0.992426
vn -0.204266 0.977339 0.055536
vn -0.204266 0.977339 0.055536
vn -0.204266 0.977339 0.055536
vn -0.204266 0.977339 0.055536
vn 0.653661 0.305042 -0.692587
vn 0.653661 0.305042 -0.692587
vn 0.653661 0.305042 -0.692587
vn -0.712677 0.218486 -0.666600
vn -0.712677 0.218486 -0.666600
vn -0.712677 0.218486 -0.666600
vn 0.163795 0.137005 0.976934
vn 0.163795 0.137005 0.976934
vn 0.163795 0.137005 0.976934
vn -0.219674 0.111861 0.969139
vn -0.219674 0.111861 0.969139
vn -0.219674 0.111861 0.969139
vn -0.029341 0.319186 -0.947238
vn -0.029341 0.319186 -0.947238
vn -0.029341 0.319186 -0.947238
vn -0.029341 0.319186 -0.947238
vn -0.937149 0.348156 -0.023218
vn -0.937149 0.348156 -0.023218
vn -0.937149 0.348156 -0.023218
vn -0.937149 0.348156 -0.023218
vn 0.042975 0.294391 0.954718
vn 0.042975 0.294391 0.954718
vn 0.042975 0.294391 0.954718
vn 0.042975 0.294391 0.954718
vn 0.992872 0.100819 -0.063570
vn 0.992872 0.100819 -0.063570
vn 0.992872 0.100819 -0.063570
vn 0.992872 0.100819 -0.063570
vn 0.098000 0.995107 0.012604
vn 0.098000 0.995107 0.012604
vn 0.098000 0.995107 0.012604
vn 0.098000 0.995107 0.012604
vn -0.702234 0.316063 -0.637944
vn -0.702234 0.316063 -0.637944
vn -0.702234 0.316064 -0.637944
vn -0.618346 0.297131 0.727573
vn -0.618346 0.297131 0.727573
vn -0.618346 0.297131 0.727573
vn 0.960572 0.111412 -0.254735
vn 0.960572 0.111412 -0.254735
vn 0.960572 0.111412 -0.254735
vn 0.986300 0.101831 0.129777
vn 0.986300 0.101831 0.129777
vn 0.986300 0.101831 0.129777
vn -0.065999 0.116412 -0.991006
vn -0.065999 0.116412 -0.991006
vn -0.065999 0.116412 -0.991006
vn -0.065999 0.116412 -0.991006
vn -0.993534 0.107200 -0.037402
vn -0.993534 0.107200 -0.037402
vn -0.993534 0.107200 -0.037402
vn -0.993534 0.107200 -0.037402
vn 0.008784 0.337366 0.941333
vn 0.008784 0.337366 0.941333
vn 0.008784 0.337366 0.941333
vn 0.008784 0.337366 0.941333
vn 0.971961 0.217528 -0.089294
vn 0.971961 0.217528 -0.089294
vn 0.971961 0.217528 -0.089294
vn 0.971961 0.217528 -0.089294
vn -0.021120 0.994708 -0.100553
vn -0.021120 0.994708 -0.100553
vn -0.021120 0.994708 -0.100553
vn -0.021120 0.994708 -0.100553
vn -0.746587 0.045818 -0.663708
vn -0.746587 0.045818 -0.663708
vn -0.746587 0.045818 -0.663708
vn -0.658585 0.208856 0.722942
vn -0.658585 0.208856 0.722942
vn -0.658585 0.208856 0.722942
vn 0.939387 0.197778 -0.280063
vn 0.939387 0.197778 -0.280063
vn 0.939387 0.197778 -0.280063
vn 0.965259 0.240051 0.103199
vn 0.965259 0.240051 0.103199
vn 0.965259 0.240051 0.103199
vn -0.065999 0.346205 -0.935835
vn -0.065999 0.346205 -0.935835
vn -0.065999 0.346205 -0.935835
vn -0.065999 0.346205 -0.935835
vn -0.993534 0.112988 -0.011143
vn -0.993534 0.112988 -0.011143
vn -0.993534 0.112988 -0.011143
vn -0.993534 0.112988 -0.011143
vn 0.008784 0.106528 0.994271
vn 0.008784 0.106528 0.994271
vn 0.008784 0.106528 0.994271
vn 0.008784 0.106528 0.994271
vn 0.971961 0.232427 -0.035633
vn 0.971961 0.232427 -0.035633
vn 0.971961 0.232427 -0.035633
vn 0.971961 0.232427 -0.035633
vn -0.021120 0.990457 0.136196
vn -0.021120 0.990457 0.136196
vn -0.021120 0.990457 0.136196
vn -0.021120 0.990457 0.136196
vn -0.746594 0.200620 -0.634310
vn -0.746594 0.200620 -0.634310
vn -0.746594 0.200620 -0.634310
vn -0.658572 0.032987 0.751794
vn -0.658572 0.032987 0.751794
vn -0.658572 0.032987 0.751794
vn 0.939386 0.258095 -0.225700
vn 0.939386 0.258095 -0.225700
vn 0.939386 0.258095 -0.225700
vn 0.965260 0.209047 0.156758
vn 0.965260 0.209047 0.156758
vn 0.965260 0.209047 0.156758
s off
g polySurface38
f 1/1/1 3/2/2 8/3/3 7/4/4
f 3/2/5 2/5/6 5/6/7 4/7/8
f 4/7/9 6/8/10 12/9/11 11/10/12
f 9/11/13 8/3/14 11/10/15 10/12/16
f 3/2/17 4/7/18 11/10/19 8/3/20
f 1/1/21 2/5/22 3/2/23
f 4/7/24 5/6/25 6/8/26
f 7/4/27 8/3/28 9/11/29
f 10/12/30 11/10/31 12/9/32
f 13/13/33 15/14/34 20/15/35 19/16/36
f 15/14/37 14/17/38 17/18/39 16/19/40
f 16/19/41 18/20/42 24/21/43 23/22/44
f 21/23/45 20/15/46 23/22/47 22/24/48
f 15/14/49 16/19/50 23/22/51 20/15/52
f 13/13/53 14/17/54 15/14/55
f 16/19/56 17/18/57 18/20/58
f 19/16/59 20/15/60 21/23/61
f 22/24/62 23/22/63 24/21/64
f 25/25/65 27/26/66 32/27/67 31/28/68
f 27/26/69 26/29/70 29/30/71 28/31/72
f 28/31/73 30/32/74 36/33/75 35/34/76
f 33/35/77 32/27/78 35/34/79 34/36/80
f 27/26/81 28/31/82 35/34/83 32/27/84
f 25/25/85 26/29/86 27/26/87
f 28/31/88 29/30/89 30/32/90
f 31/28/91 32/27/92 33/35/93
f 34/36/94 35/34/95 36/33/96
f 37/37/97 39/38/98 44/39/99 43/40/100
f 39/38/101 38/41/102 41/42/103 40/43/104
f 40/43/105 42/44/106 48/45/107 47/46/108
f 45/47/109 44/39/110 47/46/111 46/48/112
f 39/38/113 40/43/114 47/46/115 44/39/116
f 37/37/117 38/41/118 39/38/119
f 40/43/120 41/42/121 42/44/122
f 43/40/123 44/39/124 45/47/125
f 46/48/126 47/46/127 48/45/128
f 49/49/129 51/50/130 56/51/131 55/52/132
f 51/50/133 50/53/134 53/54/135 52/55/136
f 52/55/137 54/56/138 60/57/139 59/58/140
f 57/59/141 56/51/142 59/58/143 58/60/144
f 51/50/145 52/55/146 59/58/147 56/51/148
f 49/49/149 50/53/150 51/50/151
f 52/55/152 53/54/153 54/56/154
f 55/52/155 56/51/156 57/59/157
f 58/60/158 59/58/159 60/57/160
f 61/61/161 63/62/162 68/63/163 67/64/164
f 63/62/165 62/65/166 65/66/167 64/67/168
f 64/67/169 66/68/170 72/69/171 71/70/172
f 69/71/173 68/63/174 71/70/175 70/72/176
f 63/62/177 64/67/178 71/70/179 68/63/180
f 61/61/181 62/65/182 63/62/183
f 64/67/184 65/66/185 66/68/186
f 67/64/187 68/63/188 69/71/189
f 70/72/190 71/70/191 72/69/192
f 73/73/193 75/74/194 80/75/195 79/76/196
f 75/74/197 74/77/198 77/78/199 76/79/200
f 76/79/201 78/80/202 84/81/203 83/82/204
f 81/83/205 80/75/206 83/82/207 82/84/208
f 75/74/209 76/79/210 83/82/211 80/75/212
f 73/73/213 74/77/214 75/74/215
f 76/79/216 77/78/217 78/80/218
f 79/76/219 80/75/220 81/83/221
f 82/84/222 83/82/223 84/81/224
f 85/85/225 87/86/226 92/87/227 91/88/228
f 87/86/229 86/89/230 89/90/231 88/91/232
f 88/91/233 90/92/234 96/93/235 95/94/236
f 93/95/237 92/87/238 95/94/239 94/96/240
f 87/86/241 88/91/242 95/94/243 92/87/244
f 85/85/245 86/89/246 87/86/247
f 88/91/248 89/90/249 90/92/250
f 91/88/251 92/87/252 93/95/253
f 94/96/254 95/94/255 96/93/256
f 97/97/257 99/98/258 104/99/259 103/100/260
f 99/98/261 98/101/262 101/102/263 100/103/264
f 100/103/265 102/104/266 108/105/267 107/106/268
f 105/107/269 104/99/270 107/106/271 106/108/272
f 99/98/273 100/103/274 107/106/275 104/99/276
f 97/97/277 98/101/278 99/98/279
f 100/103/280 101/102/281 102/104/282
f 103/100/283 104/99/284 105/107/285
f 106/108/286 107/106/287 108/105/288
f 109/109/289 111/110/290 116/111/291 115/112/292
f 111/110/293 110/113/294 113/114/295 112/115/296
f 112/115/297 114/116/298 120/117/299 119/118/300
f 117/119/301 116/111/302 119/118/303 118/120/304
f 111/110/305 112/115/306 119/118/307 116/111/308
f 109/109/309 110/113/310 111/110/311
f 112/115/312 113/114/313 114/116/314
f 115/112/315 116/111/316 117/119/317
f 118/120/318 119/118/319 120/117/320
f 121/121/321 123/122/322 128/123/323 127/124/324
f 123/122/325 122/125/326 125/126/327 124/127/328
f 124/127/329 126/128/330 132/129/331 131/130/332
f 129/131/333 128/123/334 131/130/335 130/132/336
f 123/122/337 124/127/338 131/130/339 128/123/340
f 121/121/341 122/125/342 123/122/343
f 124/127/344 125/126/345 126/128/346
f 127/124/347 128/123/348 129/131/349
f 130/132/350 131/130/351 132/129/352
f 133/133/353 135/134/354 140/135/355 139/136/356
f 135/134/357 134/137/358 137/138/359 136/139/360
f 136/139/361 138/140/362 144/141/363 143/142/364
f 141/143/365 140/135/366 143/142/367 142/144/368
f 135/134/369 136/139/370 143/142/371 140/135/372
f 133/133/373 134/137/374 135/134/375
f 136/139/376 137/138/377 138/140/378
f 139/136/379 140/135/380 141/143/381
f 142/144/382 143/142/383 144/141/384
f 145/145/385 147/146/386 152/147/387 151/148/388
f 147/146/389 146/149/390 149/150/391 148/151/392
f 148/151/393 150/152/394 156/153/395 155/154/396
f 153/155/397 152/147/398 155/154/399 154/156/400
f 147/146/401 148/151/402 155/154/403 152/147/404
f 145/145/405 146/149/406 147/146/407
f 148/151/408 149/150/409 150/152/410
f 151/148/411 152/147/412 153/155/413
f 154/156/414 155/154/415 156/153/416
g default
v -4.788980 0.151492 5.391337
v 4.352585 0.151492 5.391337
v -4.788980 0.151492 -5.391337
v 4.352585 0.151492 -5.391337
vt 1.000000 0.000000
vt 1.000000 0.741371
vt 0.125537 0.741371
vt 0.125537 0.000000
vn 0.000000 1.000000 0.000000
vn 0.000000 1.000000 0.000000
vn 0.000000 1.000000 0.000000
vn 0.000000 1.000000 0.000000
s off
g polySurface31
f 157/157/417 158/158/418 160/159/419 159/160/420
