# This file uses centimeters as units for non-parametric coordinates.

g default
v 4.458522 0.613283 4.705071
v 1.675901 5.548470 4.677267
v 0.747240 5.609632 4.649257
v -0.157916 5.410239 4.634993
v 4.458522 0.613283 4.383567
v 1.673606 5.549861 4.355774
v 0.741121 5.613294 4.327832
v -0.168410 5.416422 4.313720
v 4.458521 0.613283 1.490900
v 4.687967 1.738182 1.490900
v 4.455241 3.117522 1.490900
v 3.723040 4.249301 1.490900
v 2.797989 5.011181 1.490900
v 1.674640 5.593766 1.488606
v 4.458521 0.613283 1.245571
v 4.687967 1.738182 1.245571
v 4.455241 3.117522 1.245571
v 3.723040 4.249301 1.245571
v 2.797989 5.011181 1.245571
v 1.675864 5.597123 1.244748
v 4.458521 0.613283 -1.689808
v 4.687967 1.738182 -1.689808
v 4.455241 3.117522 -1.689808
v 3.723040 4.249301 -1.689807
v 2.797989 5.011181 -1.689807
v 1.676634 5.627861 -1.689808
v -0.160748 5.470329 -1.689808
v 4.458521 0.613283 -2.028680
v 4.687967 1.738182 -2.028680
v 4.455241 3.117522 -2.028680
v 3.723040 4.249301 -2.028679
v 2.797989 5.011181 -2.028679
v -0.160748 5.470329 -2.028680
v 4.687967 1.738182 4.383567
v 4.687967 1.738182 4.705071
v 4.455241 3.117522 4.383567
v 4.455241 3.117522 4.705071
v 3.723039 4.249301 4.383567
v 3.723039 4.249301 4.705071
v 2.798000 5.011660 4.383088
v 2.798028 5.011642 4.704592
v -1.254413 5.291800 4.331720
v -1.239647 5.283231 4.652770
v -2.357736 5.473386 4.387693
v -2.341213 5.463856 4.708632
v 0.736989 5.760598 1.235526
v 0.732917 5.744621 1.476761
v -0.193172 5.686569 1.227390
v -0.198875 5.656852 1.467742
v -1.304712 5.655134 1.235173
v -1.311391 5.623606 1.479067
v -2.462634 5.855111 1.272106
v -2.471343 5.846628 1.478377
v 1.676634 5.627861 -2.028680
v 0.750341 5.725389 -2.028680
v 0.750341 5.725389 -1.689808
v -1.248571 5.347488 -1.996599
v -1.248584 5.347776 -1.657816
v -2.355656 5.627088 -1.944313
v -2.355650 5.626950 -1.661479
v 4.078859 0.637544 4.405939
v 4.097494 0.613283 4.383567
v 4.326138 1.736945 4.383567
v 4.303475 1.737471 4.405877
v 4.078922 0.637851 4.682417
v 4.097792 0.613283 4.705071
v 4.303475 1.737471 4.682761
v 4.326138 1.736945 4.705071
v 4.133819 2.967412 4.383567
v 4.112481 2.959462 4.405877
v 4.112481 2.959462 4.682761
v 4.133819 2.967412 4.705071
v 3.498020 3.985416 4.383567
v 3.480974 3.970592 4.405877
v 3.480974 3.970592 4.682761
v 3.498020 3.985416 4.705071
v 2.645927 4.700136 4.381701
v 2.633445 4.681349 4.404011
v 2.633541 4.681291 4.680894
v 2.646039 4.700068 4.703205
v 1.596039 5.204823 4.351855
v 1.589213 5.183467 4.373879
v 1.591410 5.182136 4.650751
v 1.598571 5.203289 4.673345
v 0.747247 5.252994 4.324087
v 0.747115 5.230812 4.346206
v 0.752339 5.227686 4.623023
v 0.753318 5.249361 4.645513
v -0.140983 5.060600 4.308229
v -0.139192 5.038317 4.330266
v -0.130439 5.033153 4.606964
v -0.130794 5.054590 4.629516
v -1.275828 4.930091 4.323545
v -1.277134 4.907463 4.345367
v -1.264526 4.900143 4.621867
v -1.261184 4.921589 4.644603
v -2.417190 5.111434 4.380007
v -2.398295 5.084562 4.400116
v -2.384018 5.076326 4.677448
v -2.400667 5.101904 4.700944
v 4.078858 0.637545 1.267943
v 4.097493 0.613284 1.245571
v 4.326138 1.736945 1.245571
v 4.303475 1.737471 1.267881
v 4.078920 0.637851 1.468246
v 4.097791 0.613284 1.490900
v 4.303475 1.737471 1.468590
v 4.326138 1.736945 1.490900
v 4.133819 2.967412 1.245571
v 4.112481 2.959462 1.267881
v 4.112481 2.959462 1.468590
v 4.133819 2.967412 1.490900
v 3.498020 3.985416 1.245571
v 3.480974 3.970592 1.267881
v 3.480974 3.970592 1.468590
v 3.498020 3.985416 1.490900
v 2.645777 4.699636 1.245571
v 2.633280 4.681001 1.267881
v 2.633280 4.681001 1.468590
v 2.645777 4.699636 1.490900
v 1.595507 5.253878 1.244186
v 1.588209 5.231890 1.266314
v 1.587133 5.229316 1.465487
v 1.594208 5.249818 1.487676
v 0.737326 5.394058 1.234541
v 0.736108 5.370360 1.256422
v 0.733253 5.358078 1.453516
v 0.733806 5.378991 1.475470
v -0.173455 5.320193 1.225398
v -0.173249 5.295353 1.247136
v -0.177015 5.272161 1.443397
v -0.178118 5.291812 1.465313
v -1.337315 5.301330 1.248474
v -1.340797 5.276937 1.271331
v -1.345003 5.250232 1.470266
v -1.342541 5.268820 1.491670
v -2.483723 5.493628 1.270599
v -2.467473 5.466516 1.295660
v -2.472630 5.451123 1.501270
v -2.490112 5.474919 1.520858
v 4.078858 0.637545 -2.006308
v 4.097493 0.613283 -2.028680
v 4.326138 1.736945 -2.028680
v 4.303475 1.737471 -2.006370
v 4.078920 0.637851 -1.712461
v 4.097791 0.613283 -1.689808
v 4.303475 1.737471 -1.712117
v 4.326138 1.736945 -1.689808
v 4.133819 2.967412 -2.028680
v 4.112481 2.959462 -2.006370
v 4.112481 2.959462 -1.712117
v 4.133819 2.967412 -1.689808
v 3.498020 3.985416 -2.028680
v 3.480974 3.970592 -2.006370
v 3.480974 3.970592 -1.712117
v 3.498020 3.985416 -1.689808
v 2.645777 4.700243 -2.028680
v 2.633280 4.681706 -2.006370
v 2.633280 4.681706 -1.712117
v 2.645777 4.700243 -1.689808
v 1.596638 5.279922 -2.028680
v 1.589470 5.258015 -2.006370
v 1.589470 5.258015 -1.712117
v 1.596638 5.279922 -1.689808
v 0.749578 5.350193 -2.028680
v 0.748608 5.326826 -2.006370
v 0.748608 5.326826 -1.712117
v 0.749578 5.350193 -1.689808
v -0.138399 5.109482 -2.028680
v -0.137609 5.086931 -2.006370
v -0.137621 5.087222 -1.712117
v -0.138399 5.109482 -1.689808
v -1.270450 4.997537 -1.999218
v -1.272820 4.976768 -1.977128
v -1.272822 4.976824 -1.682893
v -1.270469 4.997952 -1.660431
v -2.417248 5.269479 -1.944314
v -2.399498 5.241115 -1.922472
v -2.399491 5.240971 -1.683321
v -2.417248 5.269479 -1.661480
v 4.455241 3.117522 -4.142856
v 3.723039 4.249301 -4.142857
v 2.797989 5.011181 -4.142855
v 1.676634 5.595440 -4.142855
v 0.750341 5.757183 -4.142855
v 4.458522 0.613283 -4.142855
v 4.687967 1.738182 -4.142855
v -0.159116 5.691261 -4.142855
v -1.247067 5.730639 -4.142855
v -2.340323 6.022569 -4.142855
v 4.458522 0.613283 -4.366592
v 4.687967 1.738182 -4.366592
v 4.455241 3.117522 -4.366593
v 3.723039 4.249301 -4.366592
v 2.797989 5.011181 -4.366592
v 1.676634 5.595440 -4.366592
v 0.750341 5.757183 -4.366592
v -0.159116 5.691261 -4.366592
v -1.247067 5.730639 -4.366592
v -2.340323 6.022569 -4.366592
v 4.078859 0.637544 -4.344222
v 4.097494 0.613283 -4.366592
v 4.326138 1.736945 -4.366592
v 4.303475 1.737471 -4.344283
v 4.078922 0.637851 -4.165511
v 4.097792 0.613283 -4.142855
v 4.303475 1.737471 -4.165164
v 4.326138 1.736945 -4.142855
v 4.133819 2.967412 -4.366592
v 4.112481 2.959462 -4.344283
v 4.112481 2.959462 -4.165164
v 4.133819 2.967412 -4.142855
v 3.498020 3.985416 -4.366593
v 3.480974 3.970592 -4.344283
v 3.480974 3.970592 -4.165164
v 3.498020 3.985416 -4.142855
v 2.645777 4.699636 -4.366592
v 2.633280 4.681001 -4.344283
v 2.633280 4.681001 -4.165165
v 2.645777 4.699636 -4.142855
v 1.596637 5.251068 -4.366592
v 1.589470 5.229631 -4.344283
v 1.589470 5.229631 -4.165164
v 1.596637 5.251068 -4.142855
v 0.749578 5.389073 -4.366592
v 0.748608 5.366627 -4.344283
v 0.748608 5.366627 -4.165165
v 0.749578 5.389073 -4.142855
v -0.143170 5.321871 -4.366592
v -0.142767 5.299529 -4.344283
v -0.142767 5.299529 -4.165164
v -0.143170 5.321871 -4.142855
v -1.284806 5.366488 -4.366592
v -1.288115 5.344291 -4.344283
v -1.288115 5.344291 -4.165164
v -1.284806 5.366488 -4.142855
v -2.418080 5.664021 -4.366592
v -2.401636 5.636891 -4.344752
v -2.401636 5.636891 -4.164697
v -2.418080 5.664021 -4.142855
v -4.683043 0.636279 -6.165311
v -4.683043 0.636279 6.165311
v 4.512576 0.629533 6.165311
v 4.512575 0.629533 -6.165311
vt 0.619703 0.546844
vt 0.509644 0.559752
vt 0.494028 0.560836
vt 0.478742 0.560740
vt 0.618817 0.534858
vt 0.509599 0.541173
vt 0.494068 0.542001
vt 0.478562 0.542379
vt 0.612751 0.472289
vt 0.592700 0.478087
vt 0.568764 0.481606
vt 0.546153 0.484631
vt 0.526430 0.487406
vt 0.506189 0.490542
vt 0.610377 0.460261
vt 0.590218 0.460834
vt 0.566137 0.464367
vt 0.543333 0.467768
vt 0.523322 0.470665
vt 0.502500 0.473810
vt 0.597200 0.400298
vt 0.577567 0.408081
vt 0.553518 0.412808
vt 0.530452 0.416197
vt 0.510246 0.418930
vt 0.462737 0.429221
vt 0.593510 0.389496
vt 0.573073 0.390546
vt 0.548920 0.394819
vt 0.525373 0.398423
vt 0.504114 0.400992
vt 0.452301 0.415759
vt 0.615574 0.539268
vt 0.444389 0.549169
vt 0.608202 0.465563
vt 0.437201 0.492371
vt 0.591171 0.394152
vt 0.422524 0.443018
vt 0.616720 0.542695
vt 0.598167 0.543825
vt 0.597608 0.538740
vt 0.575156 0.545723
vt 0.574705 0.540689
vt 0.552699 0.548207
vt 0.552304 0.543226
vt 0.532233 0.550640
vt 0.531878 0.545695
vt 0.510817 0.552845
vt 0.510501 0.547860
vt 0.495163 0.553771
vt 0.494835 0.548899
vt 0.479882 0.553894
vt 0.479375 0.549208
vt 0.461872 0.553483
vt 0.461359 0.549078
vt 0.444427 0.552547
vt 0.609455 0.468034
vt 0.591479 0.471384
vt 0.590680 0.467694
vt 0.568798 0.474668
vt 0.567980 0.471028
vt 0.546757 0.477759
vt 0.545879 0.474187
vt 0.526775 0.480575
vt 0.525825 0.477079
vt 0.505980 0.483732
vt 0.504901 0.480269
vt 0.490703 0.486288
vt 0.489509 0.482970
vt 0.474422 0.488633
vt 0.473437 0.485553
vt 0.454244 0.492017
vt 0.453960 0.488936
vt 0.437225 0.494703
vt 0.593178 0.397249
vt 0.575575 0.401929
vt 0.573977 0.396941
vt 0.552804 0.406154
vt 0.551177 0.401120
vt 0.530190 0.409548
vt 0.528393 0.404556
vt 0.509405 0.412216
vt 0.507283 0.407257
vt 0.488064 0.415061
vt 0.485455 0.409875
vt 0.473442 0.418501
vt 0.470551 0.413799
vt 0.459484 0.424179
vt 0.456508 0.420779
vt 0.439707 0.436026
vt 0.438375 0.432151
vt 0.422825 0.445925
vt 0.597661 0.538152
vt 0.616007 0.538899
vt 0.598866 0.550407
vt 0.617313 0.543027
vt 0.597817 0.531865
vt 0.574656 0.540116
vt 0.574404 0.552497
vt 0.598256 0.544393
vt 0.573791 0.533937
vt 0.552248 0.542661
vt 0.551228 0.554977
vt 0.575117 0.546294
vt 0.550830 0.536688
vt 0.531829 0.545133
vt 0.530836 0.557464
vt 0.552638 0.548776
vt 0.530630 0.539106
vt 0.510455 0.547296
vt 0.532167 0.551206
vt 0.494810 0.548347
vt 0.510742 0.553416
vt 0.479434 0.548680
vt 0.495107 0.554329
vt 0.461354 0.548569
vt 0.459950 0.559319
vt 0.479835 0.554432
vt 0.459588 0.542974
vt 0.443908 0.548825
vt 0.440159 0.555276
vt 0.461741 0.553963
vt 0.439630 0.545999
vt 0.443846 0.552809
vt 0.590673 0.467100
vt 0.608573 0.465110
vt 0.610098 0.468308
vt 0.567853 0.470459
vt 0.591618 0.471956
vt 0.545729 0.473630
vt 0.568822 0.475251
vt 0.525669 0.476532
vt 0.546774 0.478335
vt 0.504726 0.479726
vt 0.526801 0.481141
vt 0.489350 0.482440
vt 0.491797 0.493195
vt 0.506023 0.484295
vt 0.487102 0.476332
vt 0.473409 0.485043
vt 0.474625 0.495103
vt 0.490803 0.486831
vt 0.471621 0.479193
vt 0.453974 0.488441
vt 0.451771 0.497773
vt 0.474474 0.489137
vt 0.452323 0.483183
vt 0.436722 0.492135
vt 0.432901 0.498293
vt 0.454089 0.492497
vt 0.432768 0.490393
vt 0.436637 0.495070
vt 0.573929 0.396382
vt 0.591515 0.393728
vt 0.593827 0.397431
vt 0.551010 0.400584
vt 0.575779 0.402450
vt 0.528199 0.404025
vt 0.552890 0.406711
vt 0.507062 0.406727
vt 0.530281 0.410104
vt 0.485168 0.409315
vt 0.490139 0.422815
vt 0.509533 0.412771
vt 0.481773 0.403165
vt 0.470240 0.413291
vt 0.475766 0.425535
vt 0.488245 0.415642
vt 0.466027 0.407773
vt 0.456271 0.420340
vt 0.473666 0.419039
vt 0.438250 0.431719
vt 0.440218 0.440214
vt 0.459740 0.424584
vt 0.435203 0.427782
vt 0.422047 0.443019
vt 0.415642 0.452198
vt 0.439647 0.436494
vt 0.418256 0.443492
vt 0.421462 0.446691
vt 0.615598 0.610524
vt 0.616058 0.610185
vt 0.617104 0.612514
vt 0.616473 0.612318
vt 0.598676 0.611573
vt 0.598735 0.610988
vt 0.575972 0.612307
vt 0.575937 0.611756
vt 0.598795 0.615518
vt 0.598758 0.614933
vt 0.576232 0.615995
vt 0.576233 0.615444
vt 0.553366 0.614731
vt 0.553274 0.614196
vt 0.554015 0.618296
vt 0.553947 0.617757
vt 0.531918 0.618102
vt 0.531814 0.617566
vt 0.532738 0.621644
vt 0.532628 0.621109
vt 0.508235 0.621851
vt 0.508173 0.621263
vt 0.508739 0.625765
vt 0.508674 0.625176
vt 0.490330 0.622763
vt 0.490367 0.622163
vt 0.490108 0.626757
vt 0.490193 0.626164
vt 0.472327 0.620752
vt 0.472558 0.620221
vt 0.471270 0.624422
vt 0.471482 0.623891
vt 0.452938 0.616048
vt 0.453259 0.615566
vt 0.450730 0.619210
vt 0.451173 0.618852
vt 0.439145 0.607818
vt 0.438902 0.607304
vt 0.437480 0.609336
vt 0.438116 0.609531
vt 0.599436 0.604842
vt 0.619053 0.606764
vt 0.619468 0.615429
vt 0.599181 0.621757
vt 0.575212 0.605813
vt 0.575993 0.622034
vt 0.551622 0.608544
vt 0.554293 0.624229
vt 0.530243 0.611782
vt 0.533617 0.627534
vt 0.507346 0.614858
vt 0.509538 0.632154
vt 0.490421 0.615086
vt 0.488119 0.633113
vt 0.473960 0.613585
vt 0.468298 0.630628
vt 0.455034 0.609191
vt 0.445105 0.622084
vt 0.435951 0.603398
vt 0.432559 0.607825
vt 0.624301 0.258517
vt 0.500000 0.156250
vt 0.500000 0.843750
vt 0.624301 0.741483
vn -0.793055 -0.609149 0.000791
vn -0.793055 -0.609149 0.000791
vn -0.793055 -0.609149 0.000791
vn -0.793055 -0.609149 0.000791
vn -0.687190 0.140057 -0.712849
vn -0.687190 0.140057 -0.712849
vn -0.698588 0.010530 -0.715447
vn -0.698587 0.010550 -0.715447
vn -0.656710 -0.241873 -0.714304
vn -0.656709 -0.241875 -0.714304
vn -0.687232 0.139884 0.712843
vn -0.687232 0.139884 0.712843
vn -0.698589 0.010860 0.715441
vn -0.698590 0.010838 0.715440
vn -0.656722 -0.241881 0.714290
vn -0.656722 -0.241879 0.714290
vn -0.532402 -0.457938 -0.711927
vn -0.532333 -0.458017 -0.711928
vn -0.533209 -0.457128 0.711844
vn -0.533167 -0.457176 0.711845
vn -0.371089 -0.596570 -0.711616
vn -0.371069 -0.596583 -0.711616
vn -0.390008 -0.588523 0.708191
vn -0.388340 -0.589690 0.708137
vn -0.175141 -0.678597 -0.713325
vn -0.178483 -0.677717 -0.713332
vn -0.223033 -0.672000 0.706167
vn -0.210977 -0.676176 0.705886
vn 0.078492 -0.703675 -0.706173
vn 0.073681 -0.704176 -0.706192
vn 0.037403 -0.720818 0.692115
vn 0.051439 -0.720638 0.691400
vn 0.109650 -0.695425 -0.710183
vn 0.113022 -0.695279 -0.709798
vn 0.118444 -0.721397 0.682318
vn 0.115079 -0.722065 0.682187
vn -0.039884 -0.686043 -0.726467
vn -0.033395 -0.686898 -0.725987
vn 0.011003 -0.720952 0.692898
vn 0.003294 -0.720227 0.693731
vn -0.141816 -0.668686 -0.729895
vn -0.141816 -0.668686 -0.729895
vn -0.077374 -0.710020 0.699917
vn -0.077374 -0.710020 0.699917
vn -0.826776 -0.561935 0.025877
vn -0.826776 -0.561935 0.025877
vn -0.826776 -0.561935 0.025877
vn -0.826776 -0.561935 0.025877
vn -0.793047 -0.609159 0.001060
vn -0.793047 -0.609159 0.001060
vn -0.793047 -0.609159 0.001060
vn -0.793047 -0.609159 0.001060
vn -0.687190 0.140059 -0.712848
vn -0.687190 0.140059 -0.712848
vn -0.698589 0.010530 -0.715446
vn -0.698588 0.010550 -0.715446
vn -0.656714 -0.241874 -0.714300
vn -0.656713 -0.241876 -0.714299
vn -0.687222 0.139882 0.712853
vn -0.687222 0.139882 0.712853
vn -0.698579 0.010860 0.715451
vn -0.698580 0.010839 0.715450
vn -0.656714 -0.241876 0.714299
vn -0.656715 -0.241874 0.714299
vn -0.533003 -0.457921 -0.711489
vn -0.533003 -0.457921 -0.711489
vn -0.533004 -0.457921 0.711488
vn -0.533004 -0.457921 0.711488
vn -0.389189 -0.584357 -0.712080
vn -0.389112 -0.584404 -0.712084
vn -0.392857 -0.589240 0.706016
vn -0.392741 -0.589325 0.706010
vn -0.233214 -0.650160 -0.723121
vn -0.232301 -0.650414 -0.723186
vn -0.245546 -0.669407 0.701143
vn -0.243208 -0.670348 0.701059
vn -0.017319 -0.676094 -0.736612
vn -0.017432 -0.676103 -0.736601
vn -0.026778 -0.726308 0.686848
vn -0.025801 -0.726407 0.686780
vn 0.023875 -0.670120 -0.741869
vn 0.025281 -0.670053 -0.741882
vn 0.044043 -0.742218 0.668710
vn 0.044120 -0.742177 0.668751
vn -0.071066 -0.683889 -0.726117
vn -0.066014 -0.683041 -0.727391
vn -0.037733 -0.732835 0.679360
vn -0.039169 -0.732430 0.679715
vn -0.130838 -0.692497 -0.709457
vn -0.130838 -0.692497 -0.709457
vn -0.108747 -0.710716 0.695023
vn -0.108747 -0.710716 0.695023
vn -0.828853 -0.555955 -0.062581
vn -0.828853 -0.555955 -0.062581
vn -0.828853 -0.555955 -0.062581
vn -0.828853 -0.555955 -0.062581
vn -0.793051 -0.609155 0.000747
vn -0.793051 -0.609155 0.000747
vn -0.793051 -0.609155 0.000747
vn -0.793051 -0.609155 0.000747
vn -0.687193 0.140058 -0.712846
vn -0.687193 0.140058 -0.712846
vn -0.698588 0.010530 -0.715446
vn -0.698587 0.010550 -0.715447
vn -0.656710 -0.241874 -0.714303
vn -0.656710 -0.241874 -0.714303
vn -0.687218 0.139882 0.712856
vn -0.687218 0.139882 0.712856
vn -0.698575 0.010860 0.715455
vn -0.698576 0.010839 0.715454
vn -0.656710 -0.241874 0.714303
vn -0.656710 -0.241873 0.714303
vn -0.533322 -0.458006 -0.711196
vn -0.533307 -0.458023 -0.711195
vn -0.533307 -0.458023 0.711195
vn -0.533322 -0.458006 0.711195
vn -0.396661 -0.582281 -0.709654
vn -0.396243 -0.582553 -0.709664
vn -0.396243 -0.582553 0.709664
vn -0.396661 -0.582281 0.709654
vn -0.223607 -0.657077 -0.719896
vn -0.226490 -0.656224 -0.719772
vn -0.226490 -0.656224 0.719772
vn -0.223607 -0.657077 0.719896
vn 0.075448 -0.695018 -0.715023
vn 0.060545 -0.695691 -0.715785
vn 0.060585 -0.696788 0.714714
vn 0.075512 -0.696252 0.713815
vn 0.107731 -0.704639 -0.701340
vn 0.117247 -0.702510 -0.701949
vn 0.134974 -0.703725 0.697534
vn 0.129168 -0.705449 0.696891
vn -0.080552 -0.705907 -0.703709
vn -0.071247 -0.707009 -0.703607
vn -0.037968 -0.706283 0.706910
vn -0.041317 -0.705844 0.707161
vn -0.195775 -0.686996 -0.699792
vn -0.195775 -0.686996 -0.699792
vn -0.161766 -0.684586 0.710756
vn -0.161766 -0.684586 0.710756
vn -0.848251 -0.529595 -0.000135
vn -0.848251 -0.529595 -0.000135
vn -0.848251 -0.529595 -0.000135
vn -0.848251 -0.529595 -0.000135
vn -0.999896 0.014397 0.000000
vn -0.979779 0.200081 0.000001
vn -0.979779 0.200081 0.000001
vn -0.999897 0.014383 0.000000
vn -0.938374 -0.345621 0.000000
vn -0.938374 -0.345621 0.000000
vn -0.758524 -0.651645 0.000015
vn -0.758635 -0.651516 0.000015
vn -0.538796 -0.842437 -0.000228
vn -0.540714 -0.841207 -0.000224
vn -0.274700 -0.961524 -0.003492
vn -0.283752 -0.958892 -0.003326
vn 0.088936 -0.995936 -0.014201
vn 0.081516 -0.996576 -0.013850
vn 0.157975 -0.987153 -0.023930
vn 0.159867 -0.986852 -0.023801
vn -0.022011 -0.999477 -0.023685
vn -0.019426 -0.999529 -0.023749
vn -0.156681 -0.987444 -0.020130
vn -0.156681 -0.987444 -0.020130
vn -0.999897 0.014373 -0.000000
vn -0.979779 0.200082 -0.000000
vn -0.979779 0.200082 -0.000000
vn -0.999897 0.014358 -0.000000
vn -0.938374 -0.345621 0.000000
vn -0.938374 -0.345621 0.000000
vn -0.758473 -0.651704 0.000000
vn -0.758473 -0.651704 0.000000
vn -0.554157 -0.832405 -0.003605
vn -0.554269 -0.832330 -0.003601
vn -0.338492 -0.940745 -0.020554
vn -0.339706 -0.940310 -0.020429
vn -0.029884 -0.997477 -0.064390
vn -0.029782 -0.997479 -0.064410
vn 0.047602 -0.992950 -0.108552
vn 0.046169 -0.992940 -0.109265
vn -0.077427 -0.990211 -0.116137
vn -0.081414 -0.989939 -0.115729
vn -0.172233 -0.979347 -0.105903
vn -0.172233 -0.979347 -0.105903
vn -0.999896 0.014402 -0.000000
vn -0.979779 0.200082 -0.000000
vn -0.979779 0.200082 -0.000000
vn -0.999897 0.014387 -0.000000
vn -0.938374 -0.345621 0.000000
vn -0.938374 -0.345621 0.000000
vn -0.758605 -0.651551 0.000000
vn -0.758605 -0.651551 0.000000
vn -0.562669 -0.826683 0.000000
vn -0.562669 -0.826683 0.000000
vn -0.323851 -0.946108 0.000000
vn -0.323851 -0.946108 0.000000
vn 0.098494 -0.995138 0.000255
vn 0.098494 -0.995138 0.000255
vn 0.171295 -0.985220 0.000544
vn 0.169977 -0.985448 0.000545
vn -0.055974 -0.998432 0.000243
vn -0.061149 -0.998129 0.000231
vn -0.228344 -0.973581 -0.000160
vn -0.228344 -0.973580 -0.000160
vn -0.000001 0.000000 -1.000000
vn -0.000000 0.000000 -1.000000
vn -0.000000 0.000000 -1.000000
vn -0.000001 0.000000 -1.000000
vn 0.000001 -1.000000 0.000000
vn 0.000001 -1.000000 0.000000
vn 0.000001 -1.000000 0.000000
vn 0.000001 -1.000000 0.000000
vn -0.000000 0.000000 1.000000
vn -0.000000 0.000000 1.000000
vn -0.000000 0.000000 1.000000
vn -0.000000 0.000000 1.000000
vn -0.000001 -0.000000 -1.000000
vn -0.000001 -0.000000 -1.000000
vn -0.000000 0.000000 1.000000
vn -0.000000 0.000000 1.000000
vn 0.001127 0.000524 -0.999999
vn 0.000930 0.000433 -1.000000
vn -0.001128 -0.000524 0.999999
vn -0.000932 -0.000433 1.000000
vn 0.015235 -0.000078 -0.999884
vn 0.013479 0.000067 -0.999909
vn -0.015261 0.000081 0.999884
vn -0.013497 -0.000065 0.999909
vn 0.028451 0.002867 -0.999591
vn 0.028325 0.002684 -0.999595
vn -0.028566 -0.002853 0.999588
vn -0.028439 -0.002673 0.999592
vn 0.022965 0.010519 -0.999681
vn 0.022288 0.010740 -0.999694
vn -0.023177 -0.010499 0.999676
vn -0.022466 -0.010732 0.999690
vn -0.002466 0.016348 -0.999863
vn -0.004159 0.016641 -0.999853
vn 0.002291 -0.016330 0.999864
vn 0.004065 -0.016637 0.999853
vn -0.031396 0.022938 -0.999244
vn -0.032046 0.023123 -0.999219
vn 0.031348 -0.022934 0.999245
vn 0.032036 -0.023129 0.999219
vn -0.045655 0.026988 -0.998593
vn -0.045655 0.026988 -0.998593
vn 0.045650 -0.026989 0.998593
vn 0.045650 -0.026989 0.998593
vn -0.985443 0.160688 0.055504
vn -0.985443 0.160688 0.055504
vn -0.985443 0.160688 0.055504
vn -0.985443 0.160688 0.055504
vn 0.000000 0.000000 -1.000000
vn 0.000000 0.000000 -1.000000
vn 0.000000 0.000000 -1.000000
vn 0.000000 0.000000 -1.000000
vn -0.000001 -1.000000 0.000000
vn -0.000001 -1.000000 0.000000
vn -0.000001 -1.000000 0.000000
vn -0.000001 -1.000000 0.000000
vn -0.000000 0.000000 1.000000
vn -0.000000 0.000000 1.000000
vn -0.000000 0.000000 1.000000
vn -0.000000 0.000000 1.000000
vn 0.000000 0.000000 -1.000000
vn 0.000000 0.000000 -1.000000
vn -0.000000 0.000000 1.000000
vn -0.000000 0.000000 1.000000
vn 0.000000 0.000000 -1.000000
vn 0.000000 0.000000 -1.000000
vn 0.000000 0.000000 1.000000
vn 0.000000 0.000000 1.000000
vn 0.000694 0.000235 -1.000000
vn 0.000588 0.000199 -1.000000
vn -0.001550 -0.000245 0.999999
vn -0.001317 -0.000208 0.999999
vn 0.005658 0.000680 -0.999984
vn 0.005089 0.000647 -0.999987
vn -0.007815 -0.000981 0.999969
vn -0.007216 -0.000917 0.999974
vn 0.009809 0.002729 -0.999948
vn 0.009855 0.002634 -0.999948
vn -0.011662 -0.003575 0.999926
vn -0.011739 -0.003497 0.999925
vn -0.003153 -0.006525 -0.999974
vn -0.003116 -0.006492 -0.999974
vn 0.004372 0.005155 0.999977
vn 0.004419 0.005189 0.999977
vn -0.020618 -0.014922 -0.999676
vn -0.020801 -0.014909 -0.999672
vn 0.021201 0.044308 0.998793
vn 0.021255 0.044637 0.998777
vn -0.028064 -0.014375 -0.999503
vn -0.028064 -0.014375 -0.999503
vn 0.026036 0.073800 0.996933
vn 0.026036 0.073800 0.996933
vn -0.998169 0.052593 -0.029875
vn -0.998169 0.052593 -0.029875
vn -0.998169 0.052593 -0.029875
vn -0.998169 0.052593 -0.029875
vn -0.000001 -0.000000 -1.000000
vn -0.000000 -0.000000 -1.000000
vn -0.000000 -0.000000 -1.000000
vn -0.000001 -0.000000 -1.000000
vn 0.000000 -1.000000 0.000000
vn 0.000000 -1.000000 0.000000
vn 0.000000 -1.000000 0.000000
vn 0.000000 -1.000000 0.000000
vn 0.000001 0.000000 1.000000
vn 0.000002 0.000000 1.000000
vn 0.000002 0.000000 1.000000
vn 0.000001 0.000000 1.000000
vn -0.000001 0.000000 -1.000000
vn -0.000001 0.000000 -1.000000
vn 0.000001 -0.000000 1.000000
vn 0.000001 -0.000000 1.000000
vn 0.000001 0.000002 -1.000000
vn 0.000001 0.000001 -1.000000
vn -0.000001 -0.000001 1.000000
vn -0.000000 -0.000001 1.000000
vn 0.000001 0.000002 -1.000000
vn 0.000001 0.000002 -1.000000
vn -0.000001 -0.000001 1.000000
vn -0.000001 -0.000001 1.000000
vn 0.000001 0.000001 -1.000000
vn 0.000001 0.000001 -1.000000
vn -0.000000 -0.000000 1.000000
vn -0.000000 -0.000000 1.000000
vn 0.000000 0.000000 -1.000000
vn 0.000000 0.000000 -1.000000
vn 0.000000 0.000000 1.000000
vn 0.000000 0.000000 1.000000
vn -0.014114 0.001840 -0.999899
vn -0.016343 0.002131 -0.999864
vn 0.014073 -0.001838 0.999899
vn 0.016293 -0.002127 0.999865
vn -0.036895 0.006415 -0.999299
vn -0.036839 0.006398 -0.999301
vn 0.012215 -0.003504 0.999919
vn 0.012312 -0.003505 0.999918
vn -0.045294 0.009043 -0.998933
vn -0.045294 0.009043 -0.998933
vn -0.002910 -0.003354 0.999990
vn -0.002910 -0.003354 0.999990
vn -0.985483 0.169773 0.000052
vn -0.985483 0.169773 0.000052
vn -0.985483 0.169773 0.000052
vn -0.985483 0.169773 0.000052
vn 0.163052 0.986418 0.019862
vn 0.163052 0.986418 0.019862
vn 0.163052 0.986418 0.019862
vn 0.163052 0.986418 0.019862
vn -0.114818 0.993011 0.027322
vn -0.114818 0.993011 0.027322
vn -0.114818 0.993011 0.027322
vn -0.114818 0.993011 0.027322
vn -0.213599 0.976707 0.020483
vn -0.213599 0.976707 0.020483
vn -0.213599 0.976707 0.020483
vn -0.213599 0.976707 0.020483
vn 0.066586 0.997756 0.006971
vn 0.066586 0.997756 0.006971
vn 0.066586 0.997756 0.006971
vn 0.066586 0.997756 0.006971
vn 0.431644 0.902044 0.000419
vn 0.431644 0.902044 0.000419
vn 0.431644 0.902044 0.000419
vn 0.431644 0.902044 0.000419
vn 0.635988 0.771699 -0.000007
vn 0.635988 0.771699 -0.000007
vn 0.635988 0.771699 -0.000007
vn 0.635988 0.771699 -0.000007
vn 0.839613 0.543184 0.000000
vn 0.839613 0.543184 0.000000
vn 0.839613 0.543184 0.000000
vn 0.839613 0.543184 0.000000
vn 0.986063 0.166371 0.000000
vn 0.986063 0.166371 0.000000
vn 0.986063 0.166371 0.000000
vn 0.986063 0.166371 0.000000
vn 0.979826 -0.199854 0.000000
vn 0.979826 -0.199854 0.000000
vn 0.979826 -0.199854 0.000000
vn 0.979826 -0.199854 0.000000
vn 0.180158 0.979213 0.093190
vn 0.180158 0.979213 0.093190
vn 0.180158 0.979213 0.093190
vn 0.180158 0.979213 0.093190
vn -0.027773 0.991803 0.124725
vn -0.027773 0.991803 0.124725
vn -0.027773 0.991803 0.124725
vn -0.027773 0.991803 0.124725
vn -0.087045 0.991915 0.092345
vn -0.087045 0.991915 0.092345
vn -0.087045 0.991915 0.092345
vn -0.087045 0.991915 0.092345
vn 0.164270 0.985560 0.041073
vn 0.164270 0.985560 0.041073
vn 0.164270 0.985560 0.041073
vn 0.164270 0.985560 0.041073
vn 0.461606 0.887055 0.007242
vn 0.461606 0.887055 0.007242
vn 0.461606 0.887055 0.007242
vn 0.461606 0.887055 0.007242
vn 0.635744 0.771900 0.000000
vn 0.635744 0.771900 0.000000
vn 0.635744 0.771900 0.000000
vn 0.635744 0.771900 0.000000
vn 0.839613 0.543185 0.000000
vn 0.839613 0.543185 0.000000
vn 0.839613 0.543185 0.000000
vn 0.839613 0.543185 0.000000
vn 0.986063 0.166372 0.000000
vn 0.986063 0.166372 0.000000
vn 0.986063 0.166372 0.000000
vn 0.986063 0.166372 0.000000
vn 0.979825 -0.199855 0.000000
vn 0.979825 -0.199855 0.000000
vn 0.979825 -0.199855 0.000000
vn 0.979825 -0.199855 0.000000
vn 0.244688 0.969602 -0.000232
vn 0.244688 0.969602 -0.000232
vn 0.244688 0.969602 -0.000232
vn 0.244688 0.969602 -0.000232
vn -0.112093 0.993698 -0.000425
vn -0.112093 0.993698 -0.000425
vn -0.112093 0.993698 -0.000425
vn -0.112093 0.993698 -0.000425
vn -0.269586 0.962976 0.000000
vn -0.269586 0.962976 0.000000
vn -0.269586 0.962976 0.000000
vn -0.269586 0.962976 0.000000
vn 0.104711 0.994503 0.000000
vn 0.104711 0.994503 0.000000
vn 0.104711 0.994503 0.000000
vn 0.104711 0.994503 0.000000
vn 0.481879 0.876238 0.000000
vn 0.481879 0.876238 0.000000
vn 0.481879 0.876238 0.000000
vn 0.481879 0.876238 0.000000
vn 0.635744 0.771900 0.000000
vn 0.635744 0.771900 0.000000
vn 0.635744 0.771900 0.000000
vn 0.635744 0.771900 0.000000
vn 0.839613 0.543185 0.000000
vn 0.839613 0.543185 0.000000
vn 0.839613 0.543185 0.000000
vn 0.839613 0.543185 0.000000
vn 0.986063 0.166371 0.000000
vn 0.986063 0.166371 0.000000
vn 0.986063 0.166371 0.000000
vn 0.986063 0.166371 0.000000
vn 0.979825 -0.199855 0.000000
vn 0.979825 -0.199855 0.000000
vn 0.979825 -0.199855 0.000000
vn 0.979825 -0.199855 0.000000
vn -0.793060 -0.609142 0.001175
vn -0.793060 -0.609142 0.001175
vn -0.793060 -0.609142 0.001175
vn -0.793060 -0.609142 0.001175
vn -0.687177 0.140057 -0.712862
vn -0.687177 0.140057 -0.712862
vn -0.698578 0.010528 -0.715456
vn -0.698577 0.010548 -0.715457
vn -0.656709 -0.241874 -0.714303
vn -0.656709 -0.241876 -0.714304
vn -0.687232 0.139884 0.712843
vn -0.687232 0.139884 0.712843
vn -0.698583 0.010863 0.715447
vn -0.698584 0.010842 0.715446
vn -0.656709 -0.241872 0.714304
vn -0.656710 -0.241870 0.714304
vn -0.532999 -0.457920 -0.711493
vn -0.532999 -0.457920 -0.711493
vn -0.533000 -0.457914 0.711495
vn -0.533000 -0.457914 0.711495
vn -0.390690 -0.586941 -0.709127
vn -0.390689 -0.586941 -0.709127
vn -0.390698 -0.586937 0.709126
vn -0.390699 -0.586937 0.709126
vn -0.240140 -0.660281 -0.711591
vn -0.240138 -0.660282 -0.711591
vn -0.240143 -0.660281 0.711590
vn -0.240144 -0.660280 0.711590
vn -0.028531 -0.704041 -0.709586
vn -0.028531 -0.704041 -0.709586
vn -0.028532 -0.704041 0.709586
vn -0.028532 -0.704041 0.709586
vn 0.007796 -0.706493 -0.707677
vn 0.007796 -0.706493 -0.707677
vn 0.007795 -0.706493 0.707677
vn 0.007795 -0.706493 0.707677
vn -0.103875 -0.696386 -0.710111
vn -0.103880 -0.696385 -0.710111
vn -0.103885 -0.696395 0.710100
vn -0.103880 -0.696396 0.710100
vn -0.179031 -0.682186 -0.708922
vn -0.179031 -0.682186 -0.708922
vn -0.179038 -0.682207 0.708900
vn -0.179038 -0.682207 0.708900
vn -0.855169 -0.518349 0.000001
vn -0.855169 -0.518349 0.000001
vn -0.855169 -0.518349 0.000001
vn -0.855169 -0.518349 0.000001
vn -0.999897 0.014361 0.000001
vn -0.979779 0.200081 0.000001
vn -0.979779 0.200081 0.000001
vn -0.999897 0.014346 0.000001
vn -0.938374 -0.345621 0.000000
vn -0.938374 -0.345621 0.000000
vn -0.758474 -0.651704 0.000000
vn -0.758474 -0.651704 0.000000
vn -0.554101 -0.832449 0.000000
vn -0.554101 -0.832449 0.000000
vn -0.341871 -0.939747 0.000000
vn -0.341871 -0.939747 0.000000
vn -0.040318 -0.999187 0.000000
vn -0.040318 -0.999187 0.000000
vn 0.010966 -0.999940 0.000000
vn 0.010966 -0.999940 0.000000
vn -0.147867 -0.989007 0.000000
vn -0.147867 -0.989007 0.000000
vn -0.254143 -0.967167 0.000000
vn -0.254143 -0.967167 0.000000
vn 0.000000 -0.000000 -1.000000
vn 0.000000 0.000000 -1.000000
vn 0.000000 0.000000 -1.000000
vn 0.000000 -0.000000 -1.000000
vn 0.000001 -1.000000 0.000000
vn 0.000001 -1.000000 0.000000
vn 0.000001 -1.000000 0.000000
vn 0.000001 -1.000000 0.000000
vn -0.000001 0.000000 1.000000
vn 0.000001 0.000000 1.000000
vn 0.000001 0.000000 1.000000
vn -0.000001 0.000000 1.000000
vn -0.000000 -0.000000 -1.000000
vn -0.000000 -0.000000 -1.000000
vn 0.000003 0.000002 1.000000
vn 0.000003 0.000002 1.000000
vn -0.000001 0.000000 -1.000000
vn -0.000001 0.000000 -1.000000
vn 0.000003 0.000002 1.000000
vn 0.000003 0.000002 1.000000
vn -0.000000 0.000001 -1.000000
vn -0.000000 0.000001 -1.000000
vn 0.000001 0.000001 1.000000
vn 0.000001 0.000001 1.000000
vn 0.000000 0.000001 -1.000000
vn 0.000000 0.000001 -1.000000
vn 0.000000 -0.000000 1.000000
vn 0.000000 -0.000000 1.000000
vn 0.000000 0.000001 -1.000000
vn 0.000000 0.000001 -1.000000
vn 0.000000 -0.000001 1.000000
vn -0.000000 -0.000001 1.000000
vn 0.000000 0.000000 -1.000000
vn 0.000000 0.000000 -1.000000
vn 0.000000 -0.000000 1.000000
vn 0.000000 -0.000000 1.000000
vn 0.000000 0.000000 -1.000000
vn 0.000000 0.000000 -1.000000
vn 0.000000 -0.000000 1.000000
vn 0.000000 -0.000000 1.000000
vn 0.000000 0.000000 -1.000000
vn 0.000000 0.000000 -1.000000
vn 0.000000 -0.000001 1.000000
vn 0.000000 -0.000001 1.000000
vn -0.977283 0.211940 0.000001
vn -0.977283 0.211940 0.000001
vn -0.977283 0.211940 0.000001
vn -0.977283 0.211940 0.000001
vn 0.257988 0.966148 0.000000
vn 0.257988 0.966148 0.000000
vn 0.257988 0.966148 0.000000
vn 0.257988 0.966148 0.000000
vn 0.036171 0.999346 0.000000
vn 0.036171 0.999346 0.000000
vn 0.036171 0.999346 0.000000
vn 0.036171 0.999346 0.000000
vn -0.072295 0.997383 0.000000
vn -0.072295 0.997383 0.000000
vn -0.072295 0.997383 0.000000
vn -0.072295 0.997383 0.000000
vn 0.172011 0.985095 0.000000
vn 0.172011 0.985095 0.000000
vn 0.172011 0.985095 0.000000
vn 0.172011 0.985095 0.000000
vn 0.462072 0.886843 0.000000
vn 0.462072 0.886843 0.000000
vn 0.462072 0.886843 0.000000
vn 0.462072 0.886843 0.000000
vn 0.635745 0.771899 0.000000
vn 0.635745 0.771899 0.000000
vn 0.635745 0.771899 0.000000
vn 0.635745 0.771899 0.000000
vn 0.839613 0.543186 0.000000
vn 0.839613 0.543186 0.000000
vn 0.839612 0.543186 0.000000
vn 0.839613 0.543186 0.000000
vn 0.986063 0.166371 0.000000
vn 0.986063 0.166371 0.000000
vn 0.986063 0.166371 0.000000
vn 0.986063 0.166371 0.000000
vn 0.979826 -0.199854 0.000000
vn 0.979826 -0.199854 0.000000
vn 0.979826 -0.199854 0.000000
vn 0.979826 -0.199854 0.000000
vn 0.000734 1.000000 0.000000
vn 0.000734 1.000000 0.000000
vn 0.000734 1.000000 0.000000
vn 0.000734 1.000000 0.000000
s off
g polySurface18
f 61/33/1 62/94/2 66/96/3 65/39/4
s 1
f 62/94/5 61/33/6 64/41/7 63/93/8
f 63/93/8 64/41/7 70/43/9 69/98/10
s 2
f 65/39/11 66/96/12 68/100/13 67/40/14
f 67/40/14 68/100/13 72/104/15 71/42/16
s 1
f 69/98/10 70/43/9 74/45/17 73/102/18
s 2
f 71/42/16 72/104/15 76/108/19 75/44/20
s 1
f 73/102/18 74/45/17 78/47/21 77/106/22
s 2
f 75/44/20 76/108/19 80/111/23 79/46/24
s 1
f 77/106/22 78/47/21 82/49/25 81/110/26
s 2
f 79/46/24 80/111/23 84/113/27 83/48/28
s 1
f 81/110/26 82/49/25 86/51/29 85/112/30
s 2
f 83/48/28 84/113/27 88/115/31 87/50/32
s 1
f 85/112/30 86/51/29 90/53/33 89/114/34
s 2
f 87/50/32 88/115/31 92/118/35 91/52/36
s 1
f 89/114/34 90/53/33 94/55/37 93/116/38
s 2
f 91/52/36 92/118/35 96/122/39 95/54/40
s 1
f 93/116/38 94/55/37 98/34/41 97/120/42
s 2
f 95/54/40 96/122/39 100/124/43 99/56/44
s off
f 97/120/45 98/34/46 99/56/47 100/124/48
f 101/35/49 102/126/50 106/127/51 105/57/52
s 3
f 102/126/53 101/35/54 104/59/55 103/125/56
f 103/125/56 104/59/55 110/61/57 109/128/58
s 4
f 105/57/59 106/127/60 108/129/61 107/58/62
f 107/58/62 108/129/61 112/131/63 111/60/64
s 3
f 109/128/58 110/61/57 114/63/65 113/130/66
s 4
f 111/60/64 112/131/63 116/133/67 115/62/68
s 3
f 113/130/66 114/63/65 118/65/69 117/132/70
s 4
f 115/62/68 116/133/67 120/135/71 119/64/72
s 3
f 117/132/70 118/65/69 122/67/73 121/134/74
s 4
f 119/64/72 120/135/71 124/138/75 123/66/76
s 3
f 121/134/74 122/67/73 126/69/77 125/136/78
s 4
f 123/66/76 124/138/75 128/142/79 127/68/80
s 3
f 125/136/78 126/69/77 130/71/81 129/140/82
s 4
f 127/68/80 128/142/79 132/146/83 131/70/84
s 3
f 129/140/82 130/71/81 134/73/85 133/144/86
s 4
f 131/70/84 132/146/83 136/150/87 135/72/88
s 3
f 133/144/86 134/73/85 138/36/89 137/148/90
s 4
f 135/72/88 136/150/87 140/152/91 139/74/92
s off
f 137/148/93 138/36/94 139/74/95 140/152/96
f 141/37/97 142/154/98 146/155/99 145/75/100
s 5
f 142/154/101 141/37/102 144/77/103 143/153/104
f 143/153/104 144/77/103 150/79/105 149/156/106
s 6
f 145/75/107 146/155/108 148/157/109 147/76/110
f 147/76/110 148/157/109 152/159/111 151/78/112
s 5
f 149/156/106 150/79/105 154/81/113 153/158/114
s 6
f 151/78/112 152/159/111 156/161/115 155/80/116
s 5
f 153/158/114 154/81/113 158/83/117 157/160/118
s 6
f 155/80/116 156/161/115 160/164/119 159/82/120
s 5
f 157/160/118 158/83/117 162/85/121 161/162/122
s 6
f 159/82/120 160/164/119 164/168/123 163/84/124
s 5
f 161/162/122 162/85/121 166/87/125 165/166/126
s 6
f 163/84/124 164/168/123 168/171/127 167/86/128
s 5
f 165/166/126 166/87/125 170/89/129 169/170/130
s 6
f 167/86/128 168/171/127 172/174/131 171/88/132
s 5
f 169/170/130 170/89/129 174/91/133 173/172/134
s 6
f 171/88/132 172/174/131 176/178/135 175/90/136
s 5
f 173/172/134 174/91/133 178/38/137 177/176/138
s 6
f 175/90/136 176/178/135 180/180/139 179/92/140
s off
f 177/176/141 178/38/142 179/92/143 180/180/144
s 7
f 64/41/145 61/33/146 65/39/147 67/40/148
f 70/43/149 64/41/145 67/40/148 71/42/150
f 74/45/151 70/43/149 71/42/150 75/44/152
f 78/47/153 74/45/151 75/44/152 79/46/154
f 82/49/155 78/47/153 79/46/154 83/48/156
f 86/51/157 82/49/155 83/48/156 87/50/158
f 90/53/159 86/51/157 87/50/158 91/52/160
f 94/55/161 90/53/159 91/52/160 95/54/162
f 98/34/163 94/55/161 95/54/162 99/56/164
s 8
f 104/59/165 101/35/166 105/57/167 107/58/168
f 110/61/169 104/59/165 107/58/168 111/60/170
f 114/63/171 110/61/169 111/60/170 115/62/172
f 118/65/173 114/63/171 115/62/172 119/64/174
f 122/67/175 118/65/173 119/64/174 123/66/176
f 126/69/177 122/67/175 123/66/176 127/68/178
f 130/71/179 126/69/177 127/68/178 131/70/180
f 134/73/181 130/71/179 131/70/180 135/72/182
f 138/36/183 134/73/181 135/72/182 139/74/184
s 9
f 144/77/185 141/37/186 145/75/187 147/76/188
f 150/79/189 144/77/185 147/76/188 151/78/190
f 154/81/191 150/79/189 151/78/190 155/80/192
f 158/83/193 154/81/191 155/80/192 159/82/194
f 162/85/195 158/83/193 159/82/194 163/84/196
f 166/87/197 162/85/195 163/84/196 167/86/198
f 170/89/199 166/87/197 167/86/198 171/88/200
f 174/91/201 170/89/199 171/88/200 175/90/202
f 178/38/203 174/91/201 175/90/202 179/92/204
s 10
f 34/97/205 5/5/206 62/94/207 63/93/208
s off
f 5/5/209 1/1/210 66/96/211 62/94/212
s 11
f 1/1/213 35/95/214 68/100/215 66/96/216
s 10
f 36/101/217 34/97/205 63/93/208 69/98/218
s 11
f 35/95/214 37/99/219 72/104/220 68/100/215
s 10
f 38/105/221 36/101/217 69/98/218 73/102/222
s 11
f 37/99/219 39/103/223 76/108/224 72/104/220
s 10
f 40/109/225 38/105/221 73/102/222 77/106/226
s 11
f 39/103/223 41/107/227 80/111/228 76/108/224
s 10
f 6/6/229 40/109/225 77/106/226 81/110/230
s 11
f 41/107/227 2/2/231 84/113/232 80/111/228
s 10
f 7/7/233 6/6/229 81/110/230 85/112/234
s 11
f 2/2/231 3/3/235 88/115/236 84/113/232
s 10
f 8/8/237 7/7/233 85/112/234 89/114/238
s 11
f 3/3/235 4/4/239 92/118/240 88/115/236
s 10
f 42/119/241 8/8/237 89/114/238 93/116/242
s 11
f 4/4/239 43/117/243 96/122/244 92/118/240
s 10
f 44/123/245 42/119/241 93/116/242 97/120/246
s 11
f 43/117/243 45/121/247 100/124/248 96/122/244
s off
f 45/121/249 44/123/250 97/120/251 100/124/252
s 12
f 16/16/253 15/15/254 102/126/255 103/125/256
s off
f 15/15/257 9/9/258 106/127/259 102/126/260
s 13
f 9/9/261 10/10/262 108/129/263 106/127/264
s 12
f 17/17/265 16/16/253 103/125/256 109/128/266
s 13
f 10/10/262 11/11/267 112/131/268 108/129/263
s 12
f 18/18/269 17/17/265 109/128/266 113/130/270
s 13
f 11/11/267 12/12/271 116/133/272 112/131/268
s 12
f 19/19/273 18/18/269 113/130/270 117/132/274
s 13
f 12/12/271 13/13/275 120/135/276 116/133/272
s 12
f 20/20/277 19/19/273 117/132/274 121/134/278
s 13
f 13/13/275 14/14/279 124/138/280 120/135/276
s 12
f 46/139/281 20/20/277 121/134/278 125/136/282
s 13
f 14/14/279 47/137/283 128/142/284 124/138/280
s 12
f 48/143/285 46/139/281 125/136/282 129/140/286
s 13
f 47/137/283 49/141/287 132/146/288 128/142/284
s 12
f 50/147/289 48/143/285 129/140/286 133/144/290
s 13
f 49/141/287 51/145/291 136/150/292 132/146/288
s 12
f 52/151/293 50/147/289 133/144/290 137/148/294
s 13
f 51/145/291 53/149/295 140/152/296 136/150/292
s off
f 53/149/297 52/151/298 137/148/299 140/152/300
s 14
f 29/28/301 28/27/302 142/154/303 143/153/304
s off
f 28/27/305 21/21/306 146/155/307 142/154/308
s 15
f 21/21/309 22/22/310 148/157/311 146/155/312
s 14
f 30/29/313 29/28/301 143/153/304 149/156/314
s 15
f 22/22/310 23/23/315 152/159/316 148/157/311
s 14
f 31/30/317 30/29/313 149/156/314 153/158/318
s 15
f 23/23/315 24/24/319 156/161/320 152/159/316
s 14
f 32/31/321 31/30/317 153/158/318 157/160/322
s 15
f 24/24/319 25/25/323 160/164/324 156/161/320
s 14
f 54/165/325 32/31/321 157/160/322 161/162/326
s 15
f 25/25/323 26/163/327 164/168/328 160/164/324
s 14
f 55/169/329 54/165/325 161/162/326 165/166/330
s 15
f 26/163/327 56/167/331 168/171/332 164/168/328
s 14
f 33/32/333 55/169/329 165/166/330 169/170/334
s 15
f 56/167/331 27/26/335 172/174/336 168/171/332
s 14
f 57/175/337 33/32/333 169/170/334 173/172/338
s 15
f 27/26/335 58/173/339 176/178/340 172/174/336
s 14
f 59/179/341 57/175/337 173/172/338 177/176/342
s 15
f 58/173/339 60/177/343 180/180/344 176/178/340
s off
f 60/177/345 59/179/346 177/176/347 180/180/348
f 45/121/349 43/117/350 42/119/351 44/123/352
f 43/117/353 4/4/354 8/8/355 42/119/356
f 4/4/357 3/3/358 7/7/359 8/8/360
f 3/3/361 2/2/362 6/6/363 7/7/364
f 2/2/365 41/107/366 40/109/367 6/6/368
f 41/107/369 39/103/370 38/105/371 40/109/372
f 39/103/373 37/99/374 36/101/375 38/105/376
f 37/99/377 35/95/378 34/97/379 36/101/380
f 35/95/381 1/1/382 5/5/383 34/97/384
f 53/149/385 51/145/386 50/147/387 52/151/388
f 51/145/389 49/141/390 48/143/391 50/147/392
f 49/141/393 47/137/394 46/139/395 48/143/396
f 47/137/397 14/14/398 20/20/399 46/139/400
f 14/14/401 13/13/402 19/19/403 20/20/404
f 13/13/405 12/12/406 18/18/407 19/19/408
f 12/12/409 11/11/410 17/17/411 18/18/412
f 11/11/413 10/10/414 16/16/415 17/17/416
f 10/10/417 9/9/418 15/15/419 16/16/420
f 60/177/421 58/173/422 57/175/423 59/179/424
f 58/173/425 27/26/426 33/32/427 57/175/428
f 27/26/429 56/167/430 55/169/431 33/32/432
f 56/167/433 26/163/434 54/165/435 55/169/436
f 26/163/437 25/25/438 32/31/439 54/165/440
f 25/25/441 24/24/442 31/30/443 32/31/444
f 24/24/445 23/23/446 30/29/447 31/30/448
f 23/23/449 22/22/450 29/28/451 30/29/452
f 22/22/453 21/21/454 28/27/455 29/28/456
f 201/181/457 202/182/458 206/183/459 205/184/460
s 16
f 202/182/461 201/181/462 204/185/463 203/186/464
f 203/186/464 204/185/463 210/187/465 209/188/466
s 17
f 205/184/467 206/183/468 208/189/469 207/190/470
f 207/190/470 208/189/469 212/191/471 211/192/472
s 16
f 209/188/466 210/187/465 214/193/473 213/194/474
s 17
f 211/192/472 212/191/471 216/195/475 215/196/476
s 16
f 213/194/474 214/193/473 218/197/477 217/198/478
s 17
f 215/196/476 216/195/475 220/199/479 219/200/480
s 16
f 217/198/478 218/197/477 222/201/481 221/202/482
s 17
f 219/200/480 220/199/479 224/203/483 223/204/484
s 16
f 221/202/482 222/201/481 226/205/485 225/206/486
s 17
f 223/204/484 224/203/483 228/207/487 227/208/488
s 16
f 225/206/486 226/205/485 230/209/489 229/210/490
s 17
f 227/208/488 228/207/487 232/211/491 231/212/492
s 16
f 229/210/490 230/209/489 234/213/493 233/214/494
s 17
f 231/212/492 232/211/491 236/215/495 235/216/496
s 16
f 233/214/494 234/213/493 238/217/497 237/218/498
s 17
f 235/216/496 236/215/495 240/219/499 239/220/500
s off
f 237/218/501 238/217/502 239/220/503 240/219/504
s 18
f 204/185/505 201/181/506 205/184/507 207/190/508
f 210/187/509 204/185/505 207/190/508 211/192/510
f 214/193/511 210/187/509 211/192/510 215/196/512
f 218/197/513 214/193/511 215/196/512 219/200/514
f 222/201/515 218/197/513 219/200/514 223/204/516
f 226/205/517 222/201/515 223/204/516 227/208/518
f 230/209/519 226/205/517 227/208/518 231/212/520
f 234/213/521 230/209/519 231/212/520 235/216/522
f 238/217/523 234/213/521 235/216/522 239/220/524
s 19
f 192/221/525 191/222/526 202/182/527 203/186/528
s off
f 191/222/529 186/223/530 206/183/531 202/182/532
s 20
f 186/223/533 187/224/534 208/189/535 206/183/536
s 19
f 193/225/537 192/221/525 203/186/528 209/188/538
s 20
f 187/224/534 181/226/539 212/191/540 208/189/535
s 19
f 194/227/541 193/225/537 209/188/538 213/194/542
s 20
f 181/226/539 182/228/543 216/195/544 212/191/540
s 19
f 195/229/545 194/227/541 213/194/542 217/198/546
s 20
f 182/228/543 183/230/547 220/199/548 216/195/544
s 19
f 196/231/549 195/229/545 217/198/546 221/202/550
s 20
f 183/230/547 184/232/551 224/203/552 220/199/548
s 19
f 197/233/553 196/231/549 221/202/550 225/206/554
s 20
f 184/232/551 185/234/555 228/207/556 224/203/552
s 19
f 198/235/557 197/233/553 225/206/554 229/210/558
s 20
f 185/234/555 188/236/559 232/211/560 228/207/556
s 19
f 199/237/561 198/235/557 229/210/558 233/214/562
s 20
f 188/236/559 189/238/563 236/215/564 232/211/560
s 19
f 200/239/565 199/237/561 233/214/562 237/218/566
s 20
f 189/238/563 190/240/567 240/219/568 236/215/564
s off
f 190/240/569 200/239/570 237/218/571 240/219/572
f 190/240/573 189/238/574 199/237/575 200/239/576
f 189/238/577 188/236/578 198/235/579 199/237/580
f 188/236/581 185/234/582 197/233/583 198/235/584
f 185/234/585 184/232/586 196/231/587 197/233/588
f 184/232/589 183/230/590 195/229/591 196/231/592
f 183/230/593 182/228/594 194/227/595 195/229/596
f 182/228/597 181/226/598 193/225/599 194/227/600
f 181/226/601 187/224/602 192/221/603 193/225/604
f 187/224/605 186/223/606 191/222/607 192/221/608
f 244/241/609 241/242/610 242/243/611 243/244/612
