# This file uses centimeters as units for non-parametric coordinates.

mtllib Hatch.mtl
g default
v 1.546723 0.440521 -1.483738
v 1.501650 0.266249 -1.810352
v 1.431448 -0.005184 -2.056099
v 1.373139 -0.347211 -2.205359
v 1.365508 -0.726349 -2.247079
v 1.373138 -1.105488 -2.205360
v 1.431448 -1.447515 -2.056099
v 1.501651 -1.718948 -1.810351
v 1.546723 -1.893219 -1.483737
v 1.562254 -1.953269 -1.113045
v 1.546723 -1.893219 -0.742353
v 1.501651 -1.718948 -0.415739
v 1.431448 -1.447514 -0.169992
v 1.373139 -1.105488 -0.020732
v 1.365508 -0.726350 0.020988
v 1.373138 -0.347211 -0.020731
v 1.431448 -0.005185 -0.169992
v 1.501650 0.266249 -0.415739
v 1.546723 0.440520 -0.742353
v 1.562255 0.500570 -1.113045
v 1.091790 0.440521 -1.483738
v 1.046716 0.266249 -1.810351
v 0.976514 -0.005184 -2.056099
v 0.918204 -0.347211 -2.205359
v 0.908466 -0.726350 -2.247079
v 0.918205 -1.105488 -2.205360
v 0.976514 -1.447515 -2.056099
v 1.046716 -1.718948 -1.810351
v 1.091789 -1.893219 -1.483738
v 1.107321 -1.953268 -1.113045
v 1.091789 -1.893219 -0.742352
v 1.046716 -1.718948 -0.415739
v 0.976513 -1.447514 -0.169992
v 0.918204 -1.105489 -0.020731
v 0.892145 -0.726350 0.020988
v 0.918204 -0.347211 -0.020731
v 0.976514 -0.005185 -0.169992
v 1.046716 0.266249 -0.415739
v 1.091789 0.440520 -0.742353
v 1.107320 0.500569 -1.113045
v 0.958957 0.200378 -1.402965
v 0.923161 0.061972 -1.659591
v 0.872645 -0.153601 -1.855753
v 0.837343 -0.425238 -1.978307
v 0.811834 -0.726350 -2.013694
v 0.837343 -1.027461 -1.978307
v 0.872645 -1.299098 -1.855753
v 0.923161 -1.514671 -1.659591
v 0.958958 -1.653076 -1.402965
v 0.971292 -1.700767 -1.113045
v 0.958958 -1.653076 -0.823125
v 0.923161 -1.514671 -0.566500
v 0.872645 -1.299098 -0.370337
v 0.837343 -1.027461 -0.247784
v 0.814798 -0.726350 -0.212397
v 0.837343 -0.425238 -0.247784
v 0.872645 -0.153601 -0.370337
v 0.923161 0.061971 -0.566500
v 0.958959 0.200377 -0.823125
v 0.971293 0.248068 -1.113045
v 0.748415 0.200378 -1.402965
v 0.717096 0.061972 -1.659591
v 0.672898 -0.153601 -1.855753
v 0.642012 -0.425238 -1.978307
v 0.630084 -0.726349 -2.013694
v 0.642012 -1.027462 -1.978307
v 0.672898 -1.299099 -1.855753
v 0.717096 -1.514671 -1.659590
v 0.748415 -1.653076 -1.402965
v 0.759207 -1.700768 -1.113045
v 0.748415 -1.653077 -0.823125
v 0.717096 -1.514671 -0.566500
v 0.672898 -1.299098 -0.370338
v 0.642012 -1.027462 -0.247784
v 0.627227 -0.726349 -0.212397
v 0.642012 -0.425238 -0.247784
v 0.672898 -0.153601 -0.370338
v 0.717096 0.061971 -0.566500
v 0.748416 0.200377 -0.823125
v 0.759207 0.248068 -1.113045
v 0.615445 0.055031 -1.355206
v 0.598335 -0.061667 -1.570169
v 0.581207 -0.243430 -1.737408
v 0.564333 -0.472463 -1.841451
v 0.545628 -0.726349 -1.872437
v 0.564333 -0.980235 -1.841451
v 0.581207 -1.209269 -1.737408
v 0.598335 -1.391032 -1.570169
v 0.615445 -1.507730 -1.355206
v 0.621341 -1.547941 -1.113045
v 0.615445 -1.507730 -0.870884
v 0.598335 -1.391032 -0.655922
v 0.581207 -1.209269 -0.488683
v 0.564333 -0.980235 -0.384640
v 0.545628 -0.726349 -0.353653
v 0.564333 -0.472464 -0.384640
v 0.581207 -0.243430 -0.488683
v 0.598334 -0.061668 -0.655922
v 0.615445 0.055031 -0.870884
v 0.621341 0.095242 -1.113045
v 0.583138 -0.106210 -1.303221
v 0.574782 -0.198828 -1.473596
v 0.562635 -0.343083 -1.606930
v 0.547328 -0.524854 -1.690129
v 0.530361 -0.726349 -1.715733
v 0.547328 -0.927845 -1.690129
v 0.562635 -1.109617 -1.606930
v 0.574782 -1.253871 -1.473596
v 0.583138 -1.346488 -1.303221
v 0.588486 -1.378402 -1.113045
v 0.583138 -1.346488 -0.922870
v 0.574782 -1.253872 -0.752495
v 0.562635 -1.109617 -0.619161
v 0.547328 -0.927845 -0.535962
v 0.530361 -0.726350 -0.510357
v 0.547328 -0.524854 -0.535962
v 0.562635 -0.343083 -0.619161
v 0.574782 -0.198828 -0.752495
v 0.583138 -0.106211 -0.922870
v 0.588486 -0.074297 -1.113045
v 0.745736 -0.106210 -1.303221
v 0.738554 -0.198828 -1.473596
v 0.728112 -0.343082 -1.606930
v 0.714954 -0.524854 -1.690129
v 0.700369 -0.726350 -1.715733
v 0.714955 -0.927845 -1.690129
v 0.728112 -1.109617 -1.606930
v 0.738554 -1.253871 -1.473596
v 0.745736 -1.346488 -1.303221
v 0.750333 -1.378402 -1.113045
v 0.745736 -1.346488 -0.922870
v 0.738554 -1.253872 -0.752495
v 0.728112 -1.109616 -0.619161
v 0.714954 -0.927845 -0.535962
v 0.700370 -0.726350 -0.510357
v 0.714954 -0.524854 -0.535962
v 0.728112 -0.343083 -0.619161
v 0.738554 -0.198828 -0.752495
v 0.745736 -0.106211 -0.922870
v 0.750333 -0.074297 -1.113045
vt 0.973480 0.685269
vt 0.964095 0.753280
vt 0.869363 0.753280
vt 0.878749 0.685269
vt 0.949476 0.804452
vt 0.854745 0.804452
vt 0.584488 0.516863
vt 0.572347 0.588084
vt 0.477615 0.588084
vt 0.489757 0.516863
vt 0.570758 0.667032
vt 0.475588 0.667032
vt 0.572347 0.745980
vt 0.477615 0.745980
vt 0.584488 0.817201
vt 0.489757 0.817201
vt 0.821503 0.411706
vt 0.836121 0.462878
vt 0.741390 0.462878
vt 0.726772 0.411706
vt 0.845507 0.530889
vt 0.750775 0.530889
vt 0.848741 0.608079
vt 0.754009 0.608079
vt 0.845507 0.685269
vt 0.750775 0.685269
vt 0.836121 0.753280
vt 0.741390 0.753280
vt 0.821503 0.804452
vt 0.726771 0.804452
vt 0.469583 0.516863
vt 0.457441 0.588083
vt 0.362710 0.588083
vt 0.374852 0.516863
vt 0.455852 0.667032
vt 0.357284 0.667032
vt 0.457441 0.745980
vt 0.362710 0.745980
vt 0.469583 0.817201
vt 0.374852 0.817200
vt 0.949476 0.411706
vt 0.964095 0.462878
vt 0.869363 0.462878
vt 0.854745 0.411706
vt 0.973480 0.530889
vt 0.878749 0.530889
vt 0.976714 0.608079
vt 0.881983 0.608079
vt 0.160901 0.500453
vt 0.092890 0.464164
vt 0.124283 0.421627
vt 0.177720 0.450448
vt 0.041717 0.407643
vt 0.083436 0.376738
vt 0.010637 0.336423
vt 0.057916 0.320175
vt 0.001950 0.257474
vt 0.050547 0.257474
vt 0.010637 0.178526
vt 0.057916 0.194774
vt 0.041717 0.107305
vt 0.083436 0.138210
vt 0.092890 0.050785
vt 0.124283 0.093322
vt 0.160901 0.014496
vt 0.177720 0.064501
vt 0.238090 0.001992
vt 0.238090 0.054571
vt 0.315280 0.014496
vt 0.298461 0.064501
vt 0.383291 0.050785
vt 0.351898 0.093322
vt 0.434463 0.107306
vt 0.392745 0.138210
vt 0.465544 0.178526
vt 0.418265 0.194774
vt 0.474231 0.257474
vt 0.425633 0.257474
vt 0.465544 0.336423
vt 0.418265 0.320175
vt 0.434463 0.407643
vt 0.392745 0.376738
vt 0.383291 0.464164
vt 0.351898 0.421627
vt 0.315280 0.500453
vt 0.298461 0.450447
vt 0.238090 0.512957
vt 0.238090 0.460378
vt 0.718198 0.626731
vt 0.710745 0.680168
vt 0.667835 0.680168
vt 0.674357 0.626731
vt 0.700225 0.721016
vt 0.658632 0.721016
vt 0.094278 0.516863
vt 0.086928 0.573426
vt 0.046254 0.573426
vt 0.052685 0.516863
vt 0.081616 0.636127
vt 0.043770 0.636127
vt 0.086928 0.698828
vt 0.046254 0.698828
vt 0.094278 0.755391
vt 0.052685 0.755391
vt 0.632086 0.411706
vt 0.642605 0.452553
vt 0.599696 0.452553
vt 0.590493 0.411706
vt 0.650059 0.505991
vt 0.606218 0.505991
vt 0.652628 0.566361
vt 0.608465 0.566361
vt 0.650059 0.626731
vt 0.606218 0.626731
vt 0.642605 0.680168
vt 0.599696 0.680168
vt 0.632086 0.721015
vt 0.590493 0.721015
vt 0.053053 0.759297
vt 0.045702 0.815861
vt 0.005028 0.815861
vt 0.011460 0.759298
vt 0.041008 0.878561
vt 0.001950 0.878562
vt 0.045702 0.941262
vt 0.005028 0.941262
vt 0.053053 0.997825
vt 0.011460 0.997825
vt 0.700226 0.411706
vt 0.710744 0.452553
vt 0.667835 0.452553
vt 0.658632 0.411706
vt 0.718199 0.505991
vt 0.674357 0.505991
vt 0.720767 0.566361
vt 0.676604 0.566361
vt 0.608063 0.397869
vt 0.554625 0.369049
vt 0.573246 0.343303
vt 0.618007 0.367604
vt 0.513778 0.324160
vt 0.538421 0.305455
vt 0.488259 0.267597
vt 0.516756 0.257763
vt 0.480890 0.204896
vt 0.510304 0.204896
vt 0.488259 0.142195
vt 0.516756 0.152029
vt 0.513778 0.085632
vt 0.538421 0.104337
vt 0.554625 0.040743
vt 0.573246 0.066489
vt 0.608063 0.011923
vt 0.618007 0.042188
vt 0.668433 0.001992
vt 0.668433 0.033815
vt 0.728803 0.011923
vt 0.718858 0.042188
vt 0.782240 0.040743
vt 0.763620 0.066489
vt 0.823087 0.085632
vt 0.798444 0.104337
vt 0.848607 0.142195
vt 0.820109 0.152029
vt 0.855976 0.204896
vt 0.826562 0.204896
vt 0.848607 0.267597
vt 0.820109 0.257763
vt 0.823087 0.324160
vt 0.798444 0.305455
vt 0.782240 0.369049
vt 0.763620 0.343303
vt 0.728803 0.397869
vt 0.718858 0.367603
vt 0.668433 0.407800
vt 0.668433 0.375977
vt 0.593355 0.314742
vt 0.628832 0.334028
vt 0.565591 0.284704
vt 0.548266 0.246854
vt 0.542935 0.204896
vt 0.548266 0.162938
vt 0.565591 0.125088
vt 0.593355 0.095050
vt 0.628832 0.075764
vt 0.668433 0.069119
vt 0.708033 0.075764
vt 0.743511 0.095050
vt 0.771275 0.125088
vt 0.788599 0.162938
vt 0.793931 0.204896
vt 0.788599 0.246853
vt 0.771275 0.284704
vt 0.743510 0.314742
vt 0.708033 0.334028
vt 0.668433 0.340673
vt 0.063631 0.855566
vt 0.061891 0.820088
vt 0.095993 0.820088
vt 0.097489 0.855566
vt 0.059361 0.792324
vt 0.093819 0.792324
vt 0.157635 0.951940
vt 0.154448 0.914090
vt 0.189353 0.914090
vt 0.192093 0.951940
vt 0.150915 0.872132
vt 0.186316 0.872132
vt 0.154448 0.830175
vt 0.189353 0.830175
vt 0.157635 0.792324
vt 0.192093 0.792324
vt 0.105138 0.998008
vt 0.107668 0.970244
vt 0.141770 0.970244
vt 0.139596 0.998008
vt 0.109408 0.934766
vt 0.143266 0.934766
vt 0.110521 0.895166
vt 0.144223 0.895166
vt 0.109408 0.855566
vt 0.143266 0.855566
vt 0.107668 0.820088
vt 0.141770 0.820088
vt 0.105138 0.792324
vt 0.139596 0.792324
vt 0.205320 0.951940
vt 0.202132 0.914090
vt 0.237037 0.914090
vt 0.239777 0.951940
vt 0.198599 0.872132
vt 0.234000 0.872132
vt 0.202132 0.830175
vt 0.237037 0.830175
vt 0.205320 0.792324
vt 0.239777 0.792324
vt 0.059361 0.998008
vt 0.061891 0.970244
vt 0.095993 0.970244
vt 0.093819 0.998008
vt 0.063631 0.934766
vt 0.097489 0.934766
vt 0.064744 0.895166
vt 0.098446 0.895166
vn -0.000000 0.950685 -0.310159
vn -0.000000 0.799679 -0.600428
vn -0.000000 0.778524 -0.627614
vn -0.000000 0.945206 -0.326474
vn -0.000000 0.556221 -0.831035
vn -0.000000 0.526065 -0.850444
vn 0.000000 0.263675 -0.964612
vn 0.000000 0.247012 -0.969012
vn -0.000000 0.000001 -1.000000
vn -0.000000 0.000001 -1.000000
vn -0.000000 -0.263676 -0.964611
vn -0.000000 -0.247012 -0.969012
vn 0.000001 -0.556221 -0.831034
vn 0.000001 -0.526065 -0.850444
vn 0.000001 -0.799680 -0.600427
vn 0.000001 -0.778525 -0.627614
vn 0.000000 -0.950685 -0.310160
vn 0.000000 -0.945206 -0.326474
vn -0.000000 -1.000000 -0.000001
vn -0.000000 -1.000000 -0.000001
vn -0.000000 -0.950684 0.310160
vn -0.000000 -0.945206 0.326475
vn -0.000000 -0.799679 0.600428
vn -0.000000 -0.778524 0.627615
vn -0.000000 -0.556220 0.831035
vn -0.000000 -0.526065 0.850445
vn -0.000000 -0.262375 0.964966
vn -0.000000 -0.243781 0.969830
vn -0.000000 -0.000001 1.000000
vn -0.000000 -0.000000 1.000000
vn 0.000000 0.262375 0.964966
vn 0.000000 0.243780 0.969831
vn 0.000000 0.556221 0.831034
vn 0.000000 0.526065 0.850444
vn 0.000000 0.799679 0.600428
vn 0.000000 0.778525 0.627614
vn 0.000000 0.950684 0.310160
vn 0.000000 0.945206 0.326475
vn -0.000000 1.000000 0.000001
vn -0.000000 1.000000 0.000001
vn -0.883319 0.462264 -0.077838
vn -0.893078 0.424067 -0.150265
vn -0.893927 0.420803 -0.154335
vn -0.883467 0.461639 -0.079848
vn -0.915750 0.334431 -0.222616
vn -0.917977 0.324251 -0.228428
vn -0.935685 0.180532 -0.303155
vn -0.936020 0.170322 -0.307987
vn -0.937981 -0.000001 -0.346688
vn -0.937980 -0.000001 -0.346688
vn -0.935684 -0.180532 -0.303156
vn -0.936020 -0.170323 -0.307988
vn -0.915750 -0.334431 -0.222617
vn -0.917977 -0.324251 -0.228429
vn -0.893078 -0.424067 -0.150265
vn -0.893927 -0.420803 -0.154335
vn -0.883320 -0.462263 -0.077838
vn -0.883467 -0.461638 -0.079848
vn -0.880542 -0.473969 -0.000000
vn -0.880542 -0.473969 -0.000000
vn -0.883320 -0.462263 0.077838
vn -0.883468 -0.461638 0.079848
vn -0.893078 -0.424066 0.150265
vn -0.893928 -0.420802 0.154334
vn -0.915750 -0.334431 0.222615
vn -0.917978 -0.324250 0.228427
vn -0.939862 -0.188098 0.285094
vn -0.940925 -0.178465 0.287767
vn -0.950965 -0.000000 0.309300
vn -0.950965 -0.000000 0.309300
vn -0.939862 0.188099 0.285094
vn -0.940925 0.178465 0.287766
vn -0.915750 0.334431 0.222616
vn -0.917977 0.324250 0.228428
vn -0.893078 0.424067 0.150265
vn -0.893927 0.420802 0.154335
vn -0.883320 0.462262 0.077837
vn -0.883468 0.461638 0.079847
vn -0.880541 0.473969 0.000000
vn -0.880541 0.473969 0.000000
vn -0.000000 0.949857 -0.312686
vn -0.000000 0.799034 -0.601286
vn -0.000000 0.780649 -0.624969
vn -0.000000 0.944584 -0.328271
vn 0.000000 0.561159 -0.827708
vn 0.000000 0.538302 -0.842752
vn -0.000000 0.278752 -0.960363
vn -0.000001 0.262400 -0.964959
vn -0.000000 -0.000000 -1.000000
vn -0.000000 0.000000 -1.000000
vn 0.000002 -0.278751 -0.960363
vn 0.000001 -0.262400 -0.964959
vn 0.000001 -0.561160 -0.827708
vn 0.000001 -0.538302 -0.842752
vn 0.000001 -0.799034 -0.601285
vn 0.000001 -0.780650 -0.624968
vn 0.000001 -0.949856 -0.312687
vn 0.000001 -0.944583 -0.328272
vn 0.000002 -1.000000 -0.000000
vn 0.000002 -1.000000 -0.000000
vn 0.000001 -0.949856 0.312687
vn 0.000001 -0.944583 0.328272
vn -0.000000 -0.799034 0.601287
vn -0.000000 -0.780649 0.624969
vn -0.000001 -0.561159 0.827708
vn -0.000001 -0.538302 0.842752
vn -0.000001 -0.277138 0.960830
vn -0.000001 -0.260824 0.965386
vn -0.000001 -0.000000 1.000000
vn -0.000001 0.000000 1.000000
vn -0.000001 0.277139 0.960830
vn -0.000001 0.260824 0.965386
vn -0.000001 0.561159 0.827708
vn -0.000001 0.538302 0.842752
vn -0.000000 0.799034 0.601286
vn -0.000000 0.780650 0.624969
vn -0.000001 0.949856 0.312687
vn -0.000001 0.944583 0.328272
vn -0.000001 1.000000 0.000001
vn -0.000001 1.000000 0.000001
vn -0.757793 0.632463 -0.160439
vn -0.791902 0.534320 -0.295624
vn -0.794807 0.526071 -0.302541
vn -0.758521 0.630307 -0.165405
vn -0.840161 0.376850 -0.390016
vn -0.843515 0.364340 -0.394638
vn -0.868010 0.196852 -0.455859
vn -0.868254 0.187508 -0.459321
vn -0.871690 -0.000000 -0.490058
vn -0.871690 -0.000000 -0.490058
vn -0.868011 -0.196852 -0.455858
vn -0.868255 -0.187508 -0.459320
vn -0.840161 -0.376851 -0.390017
vn -0.843514 -0.364341 -0.394639
vn -0.791901 -0.534321 -0.295625
vn -0.794806 -0.526072 -0.302541
vn -0.757792 -0.632463 -0.160440
vn -0.758521 -0.630307 -0.165406
vn -0.747072 -0.664743 -0.000000
vn -0.747072 -0.664743 -0.000000
vn -0.757794 -0.632462 0.160440
vn -0.758522 -0.630306 0.165405
vn -0.791902 -0.534319 0.295625
vn -0.794807 -0.526071 0.302541
vn -0.840161 -0.376850 0.390017
vn -0.843515 -0.364340 0.394639
vn -0.869485 -0.198885 0.452151
vn -0.869940 -0.189620 0.455245
vn -0.875746 -0.000000 0.482772
vn -0.875746 -0.000000 0.482772
vn -0.869485 0.198884 0.452152
vn -0.869940 0.189619 0.455246
vn -0.840161 0.376850 0.390017
vn -0.843514 0.364340 0.394639
vn -0.791901 0.534321 0.295625
vn -0.794806 0.526072 0.302541
vn -0.757792 0.632464 0.160440
vn -0.758520 0.630309 0.165405
vn -0.747071 0.664744 0.000001
vn -0.747071 0.664744 0.000001
vn -0.983203 0.181738 -0.016829
vn -0.987688 0.152104 -0.036556
vn -0.987880 0.150689 -0.037239
vn -0.983266 0.181361 -0.017195
vn -0.991117 0.120605 -0.056044
vn -0.991196 0.119499 -0.057008
vn -0.992084 0.098964 -0.077307
vn -0.992092 0.098152 -0.078226
vn -0.996014 -0.000000 -0.089196
vn -0.996014 -0.000000 -0.089196
vn -0.992084 -0.098963 -0.077307
vn -0.992092 -0.098152 -0.078226
vn -0.991117 -0.120605 -0.056043
vn -0.991196 -0.119499 -0.057007
vn -0.987688 -0.152103 -0.036556
vn -0.987880 -0.150688 -0.037238
vn -0.983203 -0.181738 -0.016829
vn -0.983266 -0.181361 -0.017196
vn -0.981339 -0.192286 0.000000
vn -0.981339 -0.192286 0.000000
vn -0.983203 -0.181738 0.016829
vn -0.983266 -0.181361 0.017195
vn -0.987688 -0.152104 0.036556
vn -0.987880 -0.150688 0.037238
vn -0.991117 -0.120605 0.056044
vn -0.991196 -0.119499 0.057008
vn -0.992084 -0.098964 0.077307
vn -0.992092 -0.098152 0.078226
vn -0.996014 -0.000000 0.089195
vn -0.996014 -0.000001 0.089195
vn -0.992084 0.098963 0.077306
vn -0.992092 0.098151 0.078225
vn -0.991117 0.120605 0.056043
vn -0.991196 0.119499 0.057007
vn -0.987688 0.152103 0.036556
vn -0.987880 0.150688 0.037238
vn -0.983203 0.181738 0.016829
vn -0.983266 0.181361 0.017195
vn -0.981339 0.192287 -0.000000
vn -0.981339 0.192287 -0.000000
vn 0.000000 -0.943814 0.330477
vn 0.000000 -0.784707 0.619867
vn 0.000000 -0.791001 0.611814
vn 0.000000 -0.946107 0.323854
vn 0.000001 -0.546640 0.837368
vn 0.000001 -0.557527 0.830159
vn 0.000000 -0.264650 0.964345
vn 0.000000 -0.278533 0.960427
vn -0.000000 0.000000 1.000000
vn -0.000000 0.000001 1.000000
vn -0.000000 0.264650 0.964345
vn -0.000000 0.278533 0.960427
vn 0.000000 0.546640 0.837368
vn 0.000000 0.557526 0.830159
vn -0.000000 0.784707 0.619867
vn -0.000000 0.791002 0.611814
vn -0.000001 0.943814 0.330477
vn -0.000001 0.946107 0.323855
vn -0.000001 1.000000 -0.000000
vn -0.000001 1.000000 -0.000001
vn -0.000000 0.943814 -0.330476
vn -0.000000 0.946107 -0.323854
vn -0.000000 0.784707 -0.619867
vn -0.000000 0.791001 -0.611814
vn -0.000000 0.546640 -0.837368
vn -0.000000 0.557526 -0.830160
vn -0.000000 0.264651 -0.964345
vn -0.000000 0.278533 -0.960427
vn 0.000000 -0.000000 -1.000000
vn 0.000000 0.000000 -1.000000
vn 0.000000 -0.264651 -0.964344
vn 0.000000 -0.278533 -0.960427
vn 0.000000 -0.546640 -0.837368
vn 0.000000 -0.557526 -0.830159
vn 0.000000 -0.784707 -0.619867
vn 0.000000 -0.791001 -0.611815
vn 0.000000 -0.943814 -0.330477
vn 0.000000 -0.946107 -0.323855
vn 0.000000 -1.000000 -0.000001
vn 0.000000 -1.000000 -0.000001
s 1
g polySurface3 pCylinder24
usemtl initialShadingGroup
f 1/1/1 2/2/2 22/3/3 21/4/4
f 2/2/2 3/5/5 23/6/6 22/3/3
f 3/7/5 4/8/7 24/9/8 23/10/6
f 4/8/7 5/11/9 25/12/10 24/9/8
f 5/11/9 6/13/11 26/14/12 25/12/10
f 6/13/11 7/15/13 27/16/14 26/14/12
f 7/17/13 8/18/15 28/19/16 27/20/14
f 8/18/15 9/21/17 29/22/18 28/19/16
f 9/21/17 10/23/19 30/24/20 29/22/18
f 10/23/19 11/25/21 31/26/22 30/24/20
f 11/25/21 12/27/23 32/28/24 31/26/22
f 12/27/23 13/29/25 33/30/26 32/28/24
f 13/31/25 14/32/27 34/33/28 33/34/26
f 14/32/27 15/35/29 35/36/30 34/33/28
f 15/35/29 16/37/31 36/38/32 35/36/30
f 16/37/31 17/39/33 37/40/34 36/38/32
f 17/41/33 18/42/35 38/43/36 37/44/34
f 18/42/35 19/45/37 39/46/38 38/43/36
f 19/45/37 20/47/39 40/48/40 39/46/38
f 20/47/39 1/1/1 21/4/4 40/48/40
s 2
f 21/49/41 22/50/42 42/51/43 41/52/44
f 22/50/42 23/53/45 43/54/46 42/51/43
f 23/53/45 24/55/47 44/56/48 43/54/46
f 24/55/47 25/57/49 45/58/50 44/56/48
f 25/57/49 26/59/51 46/60/52 45/58/50
f 26/59/51 27/61/53 47/62/54 46/60/52
f 27/61/53 28/63/55 48/64/56 47/62/54
f 28/63/55 29/65/57 49/66/58 48/64/56
f 29/65/57 30/67/59 50/68/60 49/66/58
f 30/67/59 31/69/61 51/70/62 50/68/60
f 31/69/61 32/71/63 52/72/64 51/70/62
f 32/71/63 33/73/65 53/74/66 52/72/64
f 33/73/65 34/75/67 54/76/68 53/74/66
f 34/75/67 35/77/69 55/78/70 54/76/68
f 35/77/69 36/79/71 56/80/72 55/78/70
f 36/79/71 37/81/73 57/82/74 56/80/72
f 37/81/73 38/83/75 58/84/76 57/82/74
f 38/83/75 39/85/77 59/86/78 58/84/76
f 39/85/77 40/87/79 60/88/80 59/86/78
f 40/87/79 21/49/41 41/52/44 60/88/80
s 3
f 41/89/81 42/90/82 62/91/83 61/92/84
f 42/90/82 43/93/85 63/94/86 62/91/83
f 43/95/85 44/96/87 64/97/88 63/98/86
f 44/96/87 45/99/89 65/100/90 64/97/88
f 45/99/89 46/101/91 66/102/92 65/100/90
f 46/101/91 47/103/93 67/104/94 66/102/92
f 47/105/93 48/106/95 68/107/96 67/108/94
f 48/106/95 49/109/97 69/110/98 68/107/96
f 49/109/97 50/111/99 70/112/100 69/110/98
f 50/111/99 51/113/101 71/114/102 70/112/100
f 51/113/101 52/115/103 72/116/104 71/114/102
f 52/115/103 53/117/105 73/118/106 72/116/104
f 53/119/105 54/120/107 74/121/108 73/122/106
f 54/120/107 55/123/109 75/124/110 74/121/108
f 55/123/109 56/125/111 76/126/112 75/124/110
f 56/125/111 57/127/113 77/128/114 76/126/112
f 57/129/113 58/130/115 78/131/116 77/132/114
f 58/130/115 59/133/117 79/134/118 78/131/116
f 59/133/117 60/135/119 80/136/120 79/134/118
f 60/135/119 41/89/81 61/92/84 80/136/120
s 4
f 61/137/121 62/138/122 82/139/123 81/140/124
f 62/138/122 63/141/125 83/142/126 82/139/123
f 63/141/125 64/143/127 84/144/128 83/142/126
f 64/143/127 65/145/129 85/146/130 84/144/128
f 65/145/129 66/147/131 86/148/132 85/146/130
f 66/147/131 67/149/133 87/150/134 86/148/132
f 67/149/133 68/151/135 88/152/136 87/150/134
f 68/151/135 69/153/137 89/154/138 88/152/136
f 69/153/137 70/155/139 90/156/140 89/154/138
f 70/155/139 71/157/141 91/158/142 90/156/140
f 71/157/141 72/159/143 92/160/144 91/158/142
f 72/159/143 73/161/145 93/162/146 92/160/144
f 73/161/145 74/163/147 94/164/148 93/162/146
f 74/163/147 75/165/149 95/166/150 94/164/148
f 75/165/149 76/167/151 96/168/152 95/166/150
f 76/167/151 77/169/153 97/170/154 96/168/152
f 77/169/153 78/171/155 98/172/156 97/170/154
f 78/171/155 79/173/157 99/174/158 98/172/156
f 79/173/157 80/175/159 100/176/160 99/174/158
f 80/175/159 61/137/121 81/140/124 100/176/160
s 5
f 81/140/161 82/139/162 102/177/163 101/178/164
f 82/139/162 83/142/165 103/179/166 102/177/163
f 83/142/165 84/144/167 104/180/168 103/179/166
f 84/144/167 85/146/169 105/181/170 104/180/168
f 85/146/169 86/148/171 106/182/172 105/181/170
f 86/148/171 87/150/173 107/183/174 106/182/172
f 87/150/173 88/152/175 108/184/176 107/183/174
f 88/152/175 89/154/177 109/185/178 108/184/176
f 89/154/177 90/156/179 110/186/180 109/185/178
f 90/156/179 91/158/181 111/187/182 110/186/180
f 91/158/181 92/160/183 112/188/184 111/187/182
f 92/160/183 93/162/185 113/189/186 112/188/184
f 93/162/185 94/164/187 114/190/188 113/189/186
f 94/164/187 95/166/189 115/191/190 114/190/188
f 95/166/189 96/168/191 116/192/192 115/191/190
f 96/168/191 97/170/193 117/193/194 116/192/192
f 97/170/193 98/172/195 118/194/196 117/193/194
f 98/172/195 99/174/197 119/195/198 118/194/196
f 99/174/197 100/176/199 120/196/200 119/195/198
f 100/176/199 81/140/161 101/178/164 120/196/200
s 6
f 101/197/201 102/198/202 122/199/203 121/200/204
f 102/198/202 103/201/205 123/202/206 122/199/203
f 103/203/205 104/204/207 124/205/208 123/206/206
f 104/204/207 105/207/209 125/208/210 124/205/208
f 105/207/209 106/209/211 126/210/212 125/208/210
f 106/209/211 107/211/213 127/212/214 126/210/212
f 107/213/213 108/214/215 128/215/216 127/216/214
f 108/214/215 109/217/217 129/218/218 128/215/216
f 109/217/217 110/219/219 130/220/220 129/218/218
f 110/219/219 111/221/221 131/222/222 130/220/220
f 111/221/221 112/223/223 132/224/224 131/222/222
f 112/223/223 113/225/225 133/226/226 132/224/224
f 113/227/225 114/228/227 134/229/228 133/230/226
f 114/228/227 115/231/229 135/232/230 134/229/228
f 115/231/229 116/233/231 136/234/232 135/232/230
f 116/233/231 117/235/233 137/236/234 136/234/232
f 117/237/233 118/238/235 138/239/236 137/240/234
f 118/238/235 119/241/237 139/242/238 138/239/236
f 119/241/237 120/243/239 140/244/240 139/242/238
f 120/243/239 101/197/201 121/200/204 140/244/240
g default
v 0.700369 -0.726349 -1.113045
v 0.745736 -0.106210 -1.303221
v 0.738554 -0.198828 -1.473596
v 0.728112 -0.343082 -1.606930
v 0.714954 -0.524854 -1.690129
v 0.700369 -0.726350 -1.715733
v 0.714955 -0.927845 -1.690129
v 0.728112 -1.109617 -1.606930
v 0.738554 -1.253871 -1.473596
v 0.745736 -1.346488 -1.303221
v 0.750333 -1.378402 -1.113045
v 0.745736 -1.346488 -0.922870
v 0.738554 -1.253872 -0.752495
v 0.728112 -1.109616 -0.619161
v 0.714954 -0.927845 -0.535962
v 0.700370 -0.726350 -0.510357
v 0.714954 -0.524854 -0.535962
v 0.728112 -0.343083 -0.619161
v 0.738554 -0.198828 -0.752495
v 0.745736 -0.106211 -0.922870
v 0.750333 -0.074297 -1.113045
vt 0.186181 0.781772
vt 0.150703 0.762487
vt 0.225781 0.652640
vt 0.122939 0.732448
vt 0.105614 0.694598
vt 0.100283 0.652640
vt 0.105614 0.610683
vt 0.122939 0.572832
vt 0.150703 0.542794
vt 0.186181 0.523508
vt 0.225781 0.516863
vt 0.265382 0.523508
vt 0.300859 0.542794
vt 0.328623 0.572832
vt 0.345948 0.610683
vt 0.351279 0.652640
vt 0.345948 0.694598
vt 0.328623 0.732448
vt 0.300859 0.762487
vt 0.265382 0.781772
vt 0.225781 0.788418
vn -0.997158 0.075032 0.006797
vn -0.997337 0.072923 0.001072
vn -1.000000 -0.000000 -0.000000
vn -0.997391 0.072195 -0.000000
vn -0.997391 0.072195 0.000000
vn -1.000000 -0.000000 -0.000000
vn -0.997391 -0.072195 -0.000000
vn -0.997391 -0.072195 -0.000000
vn -0.997337 -0.072924 0.001072
vn -0.997158 -0.075032 0.006796
vn -0.997077 -0.076402 0.000000
vn -0.997158 -0.075033 -0.006797
vn -0.997337 -0.072924 -0.001073
vn -0.997391 -0.072195 0.000000
vn -0.997391 -0.072195 0.000000
vn -1.000000 -0.000001 0.000000
vn -0.997391 0.072195 -0.000000
vn -0.997391 0.072195 -0.000000
vn -0.997337 0.072924 -0.001072
vn -0.997158 0.075032 -0.006797
vn -0.997077 0.076402 -0.000000
s 1
g pCylinder24 polySurface4
usemtl initialShadingGroup
f 142/245/241 143/246/242 141/247/243
f 143/246/242 144/248/244 141/247/243
f 144/248/244 145/249/245 141/247/243
f 145/249/245 146/250/246 141/247/243
f 146/250/246 147/251/247 141/247/243
f 147/251/247 148/252/248 141/247/243
f 148/252/248 149/253/249 141/247/243
f 149/253/249 150/254/250 141/247/243
f 150/254/250 151/255/251 141/247/243
f 151/255/251 152/256/252 141/247/243
f 152/256/252 153/257/253 141/247/243
f 153/257/253 154/258/254 141/247/243
f 154/258/254 155/259/255 141/247/243
f 155/259/255 156/260/256 141/247/243
f 156/260/256 157/261/257 141/247/243
f 157/261/257 158/262/258 141/247/243
f 158/262/258 159/263/259 141/247/243
f 159/263/259 160/264/260 141/247/243
f 160/264/260 161/265/261 141/247/243
f 161/265/261 142/245/241 141/247/243
