# This file uses centimeters as units for non-parametric coordinates.

mtllib InsideRoomPH.mtl
g default
v -7.201903 -3.828468 9.287166
v 7.201903 -3.828468 9.287166
v -7.201903 3.828468 9.287166
v 7.201903 3.828468 9.287166
v -7.201903 3.828468 -9.287166
v 7.201903 3.828468 -9.287166
v -7.201903 -3.828468 -9.287166
v 7.201903 -3.828468 -9.287166
v -6.250817 3.828468 8.060699
v 6.250817 3.828468 8.060699
v 6.250817 3.828468 -8.060699
v -6.250817 3.828468 -8.060699
v -6.250817 -3.021768 8.060699
v 6.250817 -3.021768 8.060699
v 6.250817 -3.021768 -8.060699
v -6.250817 -3.021768 -8.060699
vt 0.321002 0.405541
vt 0.321002 0.001992
vt 0.487358 0.001992
vt 0.487358 0.405541
vt 0.494912 0.405541
vt 0.494912 0.001992
vt 0.661268 0.001992
vt 0.661268 0.405541
vt 0.711799 0.409499
vt 0.711799 0.759755
vt 0.562970 0.759755
vt 0.562970 0.409499
vt 0.556887 0.409498
vt 0.556887 0.759755
vt 0.408057 0.759755
vt 0.408057 0.409498
vt 0.717882 0.409498
vt 0.989495 0.409498
vt 0.989495 0.759755
vt 0.717882 0.759755
vt 0.001975 0.001992
vt 0.314915 0.001992
vt 0.314915 0.405541
vt 0.001975 0.405541
vt 0.668821 0.001992
vt 0.981761 0.001992
vt 0.961097 0.028638
vt 0.689485 0.028638
vt 0.981761 0.405541
vt 0.961097 0.378895
vt 0.668821 0.405541
vt 0.689485 0.378895
vt 0.235619 0.722438
vt 0.235619 0.409498
vt 0.401975 0.409498
vt 0.401975 0.722438
vt 0.063180 0.722438
vt 0.063180 0.409498
vt 0.229536 0.409498
vt 0.229536 0.722438
vt 0.001975 0.998008
vt 0.001975 0.726395
vt 0.150804 0.726395
vt 0.150804 0.998008
vt 0.307516 0.726395
vt 0.307516 0.998008
vt 0.158687 0.998008
vt 0.158687 0.726395
vn 0.000000 0.000000 1.000000
vn 0.000000 0.000000 1.000000
vn 0.000000 0.000000 1.000000
vn 0.000000 0.000000 1.000000
vn 0.000000 1.000000 0.000000
vn 0.000000 1.000000 0.000000
vn 0.000000 1.000000 0.000000
vn 0.000000 1.000000 0.000000
vn 0.000000 0.000000 -1.000000
vn 0.000000 0.000000 -1.000000
vn 0.000000 0.000000 -1.000000
vn 0.000000 0.000000 -1.000000
vn 0.000000 -1.000000 0.000000
vn 0.000000 -1.000000 0.000000
vn 0.000000 -1.000000 0.000000
vn 0.000000 -1.000000 0.000000
vn 1.000000 0.000000 0.000000
vn 1.000000 0.000000 0.000000
vn 1.000000 0.000000 0.000000
vn 1.000000 0.000000 0.000000
vn -1.000000 0.000000 0.000000
vn -1.000000 0.000000 0.000000
vn -1.000000 0.000000 0.000000
vn -1.000000 0.000000 0.000000
vn 0.000000 1.000000 -0.000000
vn 0.000000 1.000000 -0.000000
vn 0.000000 1.000000 -0.000000
vn 0.000000 1.000000 -0.000000
vn 0.000000 1.000000 0.000000
vn 0.000000 1.000000 0.000000
vn 0.000000 1.000000 0.000000
vn 0.000000 1.000000 0.000000
vn 0.000000 1.000000 0.000000
vn 0.000000 1.000000 0.000000
vn 0.000000 1.000000 0.000000
vn 0.000000 1.000000 0.000000
vn 0.000000 1.000000 0.000000
vn 0.000000 1.000000 0.000000
vn 0.000000 1.000000 0.000000
vn 0.000000 1.000000 0.000000
vn 0.000000 0.000000 -1.000000
vn 0.000000 0.000000 -1.000000
vn 0.000000 0.000000 -1.000000
vn 0.000000 0.000000 -1.000000
vn -1.000000 0.000000 0.000000
vn -1.000000 0.000000 0.000000
vn -1.000000 0.000000 0.000000
vn -1.000000 0.000000 0.000000
vn 0.000000 0.000000 1.000000
vn 0.000000 0.000000 1.000000
vn 0.000000 0.000000 1.000000
vn 0.000000 0.000000 1.000000
vn 1.000000 0.000000 0.000000
vn 1.000000 0.000000 0.000000
vn 1.000000 0.000000 0.000000
vn 1.000000 0.000000 0.000000
s off
g pCube8
usemtl initialShadingGroup
f 1/33/1 2/34/2 4/35/3 3/36/4
f 13/17/5 14/18/6 15/19/7 16/20/8
f 5/37/9 6/38/10 8/39/11 7/40/12
f 7/21/13 8/22/14 2/23/15 1/24/16
f 2/1/17 8/2/18 6/3/19 4/4/20
f 7/5/21 1/6/22 3/7/23 5/8/24
f 3/25/25 4/26/26 10/27/27 9/28/28
f 4/26/29 6/29/30 11/30/31 10/27/32
f 6/29/33 5/31/34 12/32/35 11/30/36
f 5/31/37 3/25/38 9/28/39 12/32/40
f 9/41/41 10/42/42 14/43/43 13/44/44
f 10/9/45 11/10/46 15/11/47 14/12/48
f 11/45/49 12/46/50 16/47/51 15/48/52
f 12/13/53 9/14/54 13/15/55 16/16/56
