# This file uses centimeters as units for non-parametric coordinates.

g default
v -4.832551 3.647269 0.091831
v 4.832551 3.647269 0.091831
v -4.832551 3.745886 0.091831
v 4.832551 3.745886 0.091831
v -4.832551 3.745886 -0.251733
v 4.832551 3.745886 -0.251733
v -4.832551 3.647269 -0.251733
v 4.832551 3.647269 -0.251733
v 2.087520 8.535463 0.164590
v 2.087520 -1.422252 0.164590
v 2.229201 8.535463 0.164590
v 2.229201 -1.422252 0.164590
v 2.229201 8.535463 -0.178974
v 2.229201 -1.422252 -0.178974
v 2.087520 8.535463 -0.178974
v 2.087520 -1.422252 -0.178974
v -4.828672 1.036221 0.091831
v 4.828672 1.036221 0.091831
v -4.828672 1.134839 0.091831
v 4.828672 1.134839 0.091831
v -4.828672 1.134839 -0.251733
v 4.828672 1.134839 -0.251733
v -4.828672 1.036221 -0.251733
v 4.828672 1.036221 -0.251733
v 2.001861 -0.336698 0.251733
v 2.302790 -0.336698 0.251733
v 2.001861 0.663302 0.251733
v 2.302790 0.663302 0.251733
v 2.001861 0.663302 -0.037160
v 2.302790 0.663302 -0.037160
v 2.001861 -0.336698 -0.037160
v 2.302790 -0.336698 -0.037160
v -4.978858 0.105195 0.189156
v 4.978858 0.105195 0.189156
v -4.978858 0.594109 0.189156
v 4.978858 0.594109 0.189156
v -4.978858 0.594109 -0.154408
v 4.978858 0.594109 -0.154408
v -4.978858 0.105195 -0.154408
v 4.978858 0.105195 -0.154408
v -2.285347 -0.336698 0.251733
v -1.984417 -0.336698 0.251733
v -2.285347 0.663302 0.251733
v -1.984417 0.663302 0.251733
v -2.285347 0.663302 -0.037160
v -1.984417 0.663302 -0.037160
v -2.285347 -0.336698 -0.037160
v -1.984417 -0.336698 -0.037160
v -2.212669 8.535463 0.164590
v -2.212669 -1.422252 0.164590
v -2.070988 8.535463 0.164590
v -2.070988 -1.422252 0.164590
v -2.070988 8.535463 -0.178974
v -2.070988 -1.422252 -0.178974
v -2.212669 8.535463 -0.178974
v -2.212669 -1.422252 -0.178974
v -4.978857 4.203605 0.189156
v 4.978857 4.203605 0.189156
v -4.978857 4.416252 0.189156
v 4.978857 4.416252 0.189156
v -4.978857 4.416252 -0.154408
v 4.978857 4.416252 -0.154408
v -4.978857 4.203605 -0.154408
v 4.978857 4.203605 -0.154408
v 0.815120 4.440627 -0.073951
v 0.781610 4.572940 -0.073951
v 0.726784 4.697934 -0.073951
v 0.652131 4.812199 -0.073951
v 0.559688 4.912620 -0.073951
v 0.451978 4.996452 -0.073951
v 0.331937 5.061412 -0.073951
v 0.202842 5.105733 -0.073951
v 0.068213 5.128200 -0.073951
v -0.068277 5.128200 -0.073951
v -0.202908 5.105733 -0.073951
v -0.332003 5.061412 -0.073951
v -0.452042 4.996451 -0.073951
v -0.559752 4.912619 -0.073951
v -0.652195 4.812198 -0.073951
v -0.726850 4.697934 -0.073951
v -0.781676 4.572940 -0.073951
v -0.815182 4.440627 -0.073951
v -0.826452 4.304598 -0.073951
v 0.826389 4.304598 -0.073951
v 0.815120 4.440627 0.127142
v 0.781610 4.572940 0.127142
v 0.726784 4.697934 0.127142
v 0.652131 4.812199 0.127142
v 0.559688 4.912620 0.127142
v 0.451978 4.996452 0.127142
v 0.331937 5.061412 0.127142
v 0.202842 5.105733 0.127142
v 0.068213 5.128200 0.127142
v -0.068277 5.128200 0.127142
v -0.202908 5.105733 0.127142
v -0.332003 5.061412 0.127142
v -0.452042 4.996451 0.127142
v -0.559752 4.912619 0.127142
v -0.652195 4.812198 0.127142
v -0.726850 4.697934 0.127142
v -0.781676 4.572940 0.127142
v -0.815182 4.440627 0.127142
v -0.826452 4.304598 0.127142
v 0.826389 4.304598 0.127142
v 0.751281 4.358232 -0.073951
v 0.720398 4.490593 -0.073951
v 0.669864 4.615642 -0.073951
v 0.601058 4.729956 -0.073951
v 0.515854 4.830416 -0.073951
v 0.416580 4.914281 -0.073951
v 0.305940 4.979269 -0.073951
v 0.186954 5.023601 -0.073951
v 0.062868 5.046082 -0.073951
v -0.062934 5.046082 -0.073951
v -0.187020 5.023601 -0.073951
v -0.306005 4.979269 -0.073951
v -0.416643 4.914280 -0.073951
v -0.515919 4.830415 -0.073951
v -0.601122 4.729956 -0.073951
v -0.669930 4.615642 -0.073951
v -0.720463 4.490593 -0.073951
v -0.751345 4.358232 -0.073951
v -0.753249 4.304598 -0.073951
v 0.753186 4.304597 -0.073951
v 0.751281 4.358232 0.127142
v 0.720398 4.490593 0.127142
v 0.669864 4.615642 0.127142
v 0.601058 4.729956 0.127142
v 0.515854 4.830416 0.127142
v 0.416580 4.914281 0.127142
v 0.305940 4.979269 0.127142
v 0.186954 5.023601 0.127142
v 0.062868 5.046082 0.127142
v -0.062934 5.046082 0.127142
v -0.187020 5.023601 0.127142
v -0.306005 4.979269 0.127142
v -0.416643 4.914280 0.127142
v -0.515919 4.830415 0.127142
v -0.601122 4.729956 0.127142
v -0.669930 4.615642 0.127142
v -0.720463 4.490593 0.127142
v -0.751345 4.358232 0.127142
v -0.753249 4.304598 0.127142
v 0.753186 4.304597 0.127142
v 0.805696 4.477844 -0.073951
v 0.791035 4.535724 -0.073951
v 0.791035 4.535724 0.127142
v 0.805696 4.477844 0.127142
v 0.626130 4.840445 -0.073951
v 0.585689 4.884374 -0.073951
v 0.585689 4.884374 0.127142
v 0.626130 4.840445 0.127142
v 0.295626 5.073878 -0.073951
v 0.239153 5.093268 -0.073951
v 0.239153 5.093268 0.127142
v 0.295626 5.073878 0.127142
v -0.239218 5.093268 -0.073951
v -0.295692 5.073878 -0.073951
v -0.295692 5.073878 0.127142
v -0.239218 5.093268 0.127142
v -0.585753 4.884374 -0.073951
v -0.626194 4.840444 -0.073951
v -0.626194 4.840444 0.127142
v -0.585753 4.884374 0.127142
v -0.791100 4.535723 -0.073951
v -0.805758 4.477844 -0.073951
v -0.805758 4.477844 0.127142
v -0.791100 4.535723 0.127142
v 2.200366 4.831025 -0.073951
v 2.185704 4.888905 -0.073951
v 2.185704 4.888905 0.127142
v 2.200366 4.831025 0.127142
v 2.235257 6.321754 -0.073951
v 2.194817 6.365682 -0.073951
v 2.194817 6.365682 0.127142
v 2.235257 6.321754 0.127142
v 1.601439 8.877584 -0.073952
v 1.544965 8.896972 -0.073952
v 1.544965 8.896972 0.127141
v 1.601439 8.877584 0.127140
v -1.545036 8.896972 -0.073951
v -1.601514 8.877583 -0.073951
v -1.601514 8.877583 0.127142
v -1.545036 8.896972 0.127142
v -2.149691 6.324078 -0.073951
v -2.190132 6.280148 -0.073951
v -2.190132 6.280148 0.127142
v -2.149691 6.324078 0.127142
v -2.165759 4.883814 -0.073961
v -2.180412 4.825932 -0.073961
v -2.180412 4.825932 0.127132
v -2.165759 4.883813 0.127132
vt 0.375000 0.000000
vt 0.625000 0.000000
vt 0.375000 0.250000
vt 0.625000 0.250000
vt 0.375000 0.500000
vt 0.625000 0.500000
vt 0.375000 0.750000
vt 0.625000 0.750000
vt 0.375000 1.000000
vt 0.625000 1.000000
vt 0.875000 0.000000
vt 0.875000 0.250000
vt 0.125000 0.000000
vt 0.125000 0.250000
vt 0.375000 0.000000
vt 0.625000 0.000000
vt 0.625000 0.250000
vt 0.375000 0.250000
vt 0.625000 0.500000
vt 0.375000 0.500000
vt 0.625000 0.750000
vt 0.375000 0.750000
vt 0.625000 1.000000
vt 0.375000 1.000000
vt 0.875000 0.000000
vt 0.875000 0.250000
vt 0.125000 0.000000
vt 0.125000 0.250000
vt 0.375000 0.000000
vt 0.625000 0.000000
vt 0.625000 0.250000
vt 0.375000 0.250000
vt 0.625000 0.500000
vt 0.375000 0.500000
vt 0.625000 0.750000
vt 0.375000 0.750000
vt 0.625000 1.000000
vt 0.375000 1.000000
vt 0.875000 0.000000
vt 0.875000 0.250000
vt 0.125000 0.000000
vt 0.125000 0.250000
vt 0.375000 0.000000
vt 0.625000 0.000000
vt 0.625000 0.250000
vt 0.375000 0.250000
vt 0.625000 0.500000
vt 0.375000 0.500000
vt 0.625000 0.750000
vt 0.375000 0.750000
vt 0.625000 1.000000
vt 0.375000 1.000000
vt 0.875000 0.000000
vt 0.875000 0.250000
vt 0.125000 0.000000
vt 0.125000 0.250000
vt 0.375000 0.000000
vt 0.625000 0.000000
vt 0.625000 0.250000
vt 0.375000 0.250000
vt 0.625000 0.500000
vt 0.375000 0.500000
vt 0.625000 0.750000
vt 0.375000 0.750000
vt 0.625000 1.000000
vt 0.375000 1.000000
vt 0.875000 0.000000
vt 0.875000 0.250000
vt 0.125000 0.000000
vt 0.125000 0.250000
vt 0.375000 0.000000
vt 0.625000 0.000000
vt 0.625000 0.250000
vt 0.375000 0.250000
vt 0.625000 0.500000
vt 0.375000 0.500000
vt 0.625000 0.750000
vt 0.375000 0.750000
vt 0.625000 1.000000
vt 0.375000 1.000000
vt 0.875000 0.000000
vt 0.875000 0.250000
vt 0.125000 0.000000
vt 0.125000 0.250000
vt 0.375000 0.000000
vt 0.625000 0.000000
vt 0.625000 0.250000
vt 0.375000 0.250000
vt 0.625000 0.500000
vt 0.375000 0.500000
vt 0.625000 0.750000
vt 0.375000 0.750000
vt 0.625000 1.000000
vt 0.375000 1.000000
vt 0.875000 0.000000
vt 0.875000 0.250000
vt 0.125000 0.000000
vt 0.125000 0.250000
vt 0.375000 0.000000
vt 0.625000 0.000000
vt 0.625000 0.250000
vt 0.375000 0.250000
vt 0.625000 0.500000
vt 0.375000 0.500000
vt 0.625000 0.750000
vt 0.375000 0.750000
vt 0.625000 1.000000
vt 0.375000 1.000000
vt 0.875000 0.000000
vt 0.875000 0.250000
vt 0.125000 0.000000
vt 0.125000 0.250000
vt 0.375000 0.312500
vt 0.381579 0.312500
vt 0.381579 0.687500
vt 0.375000 0.687500
vt 0.381579 0.312500
vt 0.388158 0.312500
vt 0.388158 0.687500
vt 0.381579 0.687500
vt 0.394737 0.312500
vt 0.394737 0.687500
vt 0.394737 0.312500
vt 0.401316 0.312500
vt 0.401316 0.687500
vt 0.394737 0.687500
vt 0.401316 0.312500
vt 0.407895 0.312500
vt 0.407895 0.687500
vt 0.401316 0.687500
vt 0.414474 0.312500
vt 0.414474 0.687500
vt 0.414474 0.312500
vt 0.421053 0.312500
vt 0.421053 0.687500
vt 0.414474 0.687500
vt 0.421053 0.312500
vt 0.427632 0.312500
vt 0.427632 0.687500
vt 0.421053 0.687500
vt 0.434211 0.312500
vt 0.434211 0.687500
vt 0.440790 0.312500
vt 0.440790 0.687500
vt 0.440790 0.312500
vt 0.447368 0.312500
vt 0.447368 0.687500
vt 0.440790 0.687500
vt 0.447368 0.312500
vt 0.453947 0.312500
vt 0.453947 0.687500
vt 0.447368 0.687500
vt 0.460526 0.312500
vt 0.460526 0.687500
vt 0.460526 0.312500
vt 0.467105 0.312500
vt 0.467105 0.687500
vt 0.460526 0.687500
vt 0.467105 0.312500
vt 0.473684 0.312500
vt 0.473684 0.687500
vt 0.467105 0.687500
vt 0.480263 0.312500
vt 0.480263 0.687500
vt 0.480263 0.312500
vt 0.486842 0.312500
vt 0.486842 0.687500
vt 0.480263 0.687500
vt 0.486842 0.312500
vt 0.493421 0.312500
vt 0.493421 0.687500
vt 0.486842 0.687500
vt 0.618421 0.312500
vt 0.625000 0.312500
vt 0.625000 0.687500
vt 0.618421 0.687500
vt 0.654119 0.869468
vt 0.647784 0.894484
vt 0.647784 0.894484
vt 0.654119 0.869468
vt 0.637418 0.918117
vt 0.637418 0.918117
vt 0.623303 0.939721
vt 0.623303 0.939721
vt 0.605825 0.958707
vt 0.605825 0.958707
vt 0.585461 0.974557
vt 0.585461 0.974557
vt 0.562765 0.986840
vt 0.562765 0.986840
vt 0.538357 0.995219
vt 0.538357 0.995219
vt 0.512903 0.999466
vt 0.512903 0.999466
vt 0.487097 0.999466
vt 0.487097 0.999466
vt 0.461643 0.995219
vt 0.461643 0.995219
vt 0.437235 0.986840
vt 0.437235 0.986840
vt 0.414539 0.974557
vt 0.414539 0.974557
vt 0.394175 0.958707
vt 0.394175 0.958707
vt 0.376697 0.939721
vt 0.376697 0.939721
vt 0.362582 0.918117
vt 0.362582 0.918117
vt 0.352216 0.894484
vt 0.352216 0.894484
vt 0.345881 0.869468
vt 0.345881 0.869468
vt 0.343750 0.843750
vt 0.343750 0.843750
vt 0.656250 0.843750
vt 0.656250 0.843750
vt 0.647784 0.105516
vt 0.654119 0.130532
vt 0.656250 0.156250
vt 0.343750 0.156250
vt 0.345881 0.130532
vt 0.352216 0.105516
vt 0.362582 0.081883
vt 0.376697 0.060279
vt 0.394175 0.041293
vt 0.414539 0.025443
vt 0.437235 0.013160
vt 0.461643 0.004781
vt 0.487097 0.000534
vt 0.512903 0.000534
vt 0.538357 0.004781
vt 0.562765 0.013160
vt 0.585461 0.025443
vt 0.605825 0.041293
vt 0.623303 0.060279
vt 0.637418 0.081883
vt 0.618421 0.312500
vt 0.493421 0.687500
vt 0.343750 0.156250
vt 0.375000 0.312500
vt 0.381579 0.312500
vt 0.375000 0.312500
vt 0.381579 0.687500
vt 0.375000 0.687500
vt 0.375000 0.687500
vt 0.401316 0.312500
vt 0.394737 0.312500
vt 0.401316 0.687500
vt 0.394737 0.687500
vt 0.421053 0.312500
vt 0.414474 0.312500
vt 0.421053 0.687500
vt 0.414474 0.687500
vt 0.447368 0.312500
vt 0.440790 0.312500
vt 0.447368 0.687500
vt 0.440790 0.687500
vt 0.467105 0.312500
vt 0.460526 0.312500
vt 0.467105 0.687500
vt 0.460526 0.687500
vt 0.486842 0.312500
vt 0.480263 0.312500
vt 0.486842 0.687500
vt 0.480263 0.687500
vn 0.000000 0.000000 1.000000
vn 0.000000 0.000000 1.000000
vn 0.000000 0.000000 1.000000
vn 0.000000 0.000000 1.000000
vn 0.000000 1.000000 0.000000
vn 0.000000 1.000000 0.000000
vn 0.000000 1.000000 0.000000
vn 0.000000 1.000000 0.000000
vn 0.000000 0.000000 -1.000000
vn 0.000000 0.000000 -1.000000
vn 0.000000 0.000000 -1.000000
vn 0.000000 0.000000 -1.000000
vn 0.000000 -1.000000 0.000000
vn 0.000000 -1.000000 0.000000
vn 0.000000 -1.000000 0.000000
vn 0.000000 -1.000000 0.000000
vn 1.000000 0.000000 0.000000
vn 1.000000 0.000000 0.000000
vn 1.000000 0.000000 0.000000
vn 1.000000 0.000000 0.000000
vn -1.000000 0.000000 0.000000
vn -1.000000 0.000000 0.000000
vn -1.000000 0.000000 0.000000
vn -1.000000 0.000000 0.000000
vn 0.000000 0.000000 1.000000
vn 0.000000 0.000000 1.000000
vn 0.000000 0.000000 1.000000
vn 0.000000 0.000000 1.000000
vn 1.000000 0.000000 0.000000
vn 1.000000 0.000000 0.000000
vn 1.000000 0.000000 0.000000
vn 1.000000 0.000000 0.000000
vn 0.000000 0.000000 -1.000000
vn 0.000000 0.000000 -1.000000
vn 0.000000 0.000000 -1.000000
vn 0.000000 0.000000 -1.000000
vn -1.000000 0.000000 0.000000
vn -1.000000 0.000000 0.000000
vn -1.000000 0.000000 0.000000
vn -1.000000 0.000000 0.000000
vn 0.000000 -1.000000 0.000000
vn 0.000000 -1.000000 0.000000
vn 0.000000 -1.000000 0.000000
vn 0.000000 -1.000000 0.000000
vn 0.000000 1.000000 0.000000
vn 0.000000 1.000000 0.000000
vn 0.000000 1.000000 0.000000
vn 0.000000 1.000000 0.000000
vn 0.000000 0.000000 1.000000
vn 0.000000 0.000000 1.000000
vn 0.000000 0.000000 1.000000
vn 0.000000 0.000000 1.000000
vn 0.000000 1.000000 0.000000
vn 0.000000 1.000000 0.000000
vn 0.000000 1.000000 0.000000
vn 0.000000 1.000000 0.000000
vn 0.000000 0.000000 -1.000000
vn 0.000000 0.000000 -1.000000
vn 0.000000 0.000000 -1.000000
vn 0.000000 0.000000 -1.000000
vn 0.000000 -1.000000 0.000000
vn 0.000000 -1.000000 0.000000
vn 0.000000 -1.000000 0.000000
vn 0.000000 -1.000000 0.000000
vn 1.000000 0.000000 0.000000
vn 1.000000 0.000000 0.000000
vn 1.000000 0.000000 0.000000
vn 1.000000 0.000000 0.000000
vn -1.000000 0.000000 0.000000
vn -1.000000 0.000000 0.000000
vn -1.000000 0.000000 0.000000
vn -1.000000 0.000000 0.000000
vn 0.000000 0.000000 1.000000
vn 0.000000 0.000000 1.000000
vn 0.000000 0.000000 1.000000
vn 0.000000 0.000000 1.000000
vn 0.000000 1.000000 0.000000
vn 0.000000 1.000000 0.000000
vn 0.000000 1.000000 0.000000
vn 0.000000 1.000000 0.000000
vn 0.000000 0.000000 -1.000000
vn 0.000000 0.000000 -1.000000
vn 0.000000 0.000000 -1.000000
vn 0.000000 0.000000 -1.000000
vn 0.000000 -1.000000 0.000000
vn 0.000000 -1.000000 0.000000
vn 0.000000 -1.000000 0.000000
vn 0.000000 -1.000000 0.000000
vn 1.000000 0.000000 0.000000
vn 1.000000 0.000000 0.000000
vn 1.000000 0.000000 0.000000
vn 1.000000 0.000000 0.000000
vn -1.000000 0.000000 0.000000
vn -1.000000 0.000000 0.000000
vn -1.000000 0.000000 0.000000
vn -1.000000 0.000000 0.000000
vn 0.000000 0.000000 1.000000
vn 0.000000 0.000000 1.000000
vn 0.000000 0.000000 1.000000
vn 0.000000 0.000000 1.000000
vn 0.000000 1.000000 0.000000
vn 0.000000 1.000000 0.000000
vn 0.000000 1.000000 0.000000
vn 0.000000 1.000000 0.000000
vn 0.000000 0.000000 -1.000000
vn 0.000000 0.000000 -1.000000
vn 0.000000 0.000000 -1.000000
vn 0.000000 0.000000 -1.000000
vn 0.000000 -1.000000 0.000000
vn 0.000000 -1.000000 0.000000
vn 0.000000 -1.000000 0.000000
vn 0.000000 -1.000000 0.000000
vn 1.000000 0.000000 0.000000
vn 1.000000 0.000000 0.000000
vn 1.000000 0.000000 0.000000
vn 1.000000 0.000000 0.000000
vn -1.000000 0.000000 0.000000
vn -1.000000 0.000000 0.000000
vn -1.000000 0.000000 0.000000
vn -1.000000 0.000000 0.000000
vn 0.000000 0.000000 1.000000
vn 0.000000 0.000000 1.000000
vn 0.000000 0.000000 1.000000
vn 0.000000 0.000000 1.000000
vn 0.000000 1.000000 0.000000
vn 0.000000 1.000000 0.000000
vn 0.000000 1.000000 0.000000
vn 0.000000 1.000000 0.000000
vn 0.000000 0.000000 -1.000000
vn 0.000000 0.000000 -1.000000
vn 0.000000 0.000000 -1.000000
vn 0.000000 0.000000 -1.000000
vn 0.000000 -1.000000 0.000000
vn 0.000000 -1.000000 0.000000
vn 0.000000 -1.000000 0.000000
vn 0.000000 -1.000000 0.000000
vn 1.000000 0.000000 0.000000
vn 1.000000 0.000000 0.000000
vn 1.000000 0.000000 0.000000
vn 1.000000 0.000000 0.000000
vn -1.000000 0.000000 0.000000
vn -1.000000 0.000000 0.000000
vn -1.000000 0.000000 0.000000
vn -1.000000 0.000000 0.000000
vn 0.000000 0.000000 1.000000
vn 0.000000 0.000000 1.000000
vn 0.000000 0.000000 1.000000
vn 0.000000 0.000000 1.000000
vn 1.000000 0.000000 0.000000
vn 1.000000 0.000000 0.000000
vn 1.000000 0.000000 0.000000
vn 1.000000 0.000000 0.000000
vn 0.000000 0.000000 -1.000000
vn 0.000000 0.000000 -1.000000
vn 0.000000 0.000000 -1.000000
vn 0.000000 0.000000 -1.000000
vn -1.000000 0.000000 0.000000
vn -1.000000 0.000000 0.000000
vn -1.000000 0.000000 0.000000
vn -1.000000 0.000000 0.000000
vn 0.000000 -1.000000 0.000000
vn 0.000000 -1.000000 0.000000
vn 0.000000 -1.000000 0.000000
vn 0.000000 -1.000000 0.000000
vn 0.000000 1.000000 0.000000
vn 0.000000 1.000000 0.000000
vn 0.000000 1.000000 0.000000
vn 0.000000 1.000000 0.000000
vn 0.000000 0.000000 1.000000
vn 0.000000 0.000000 1.000000
vn 0.000000 0.000000 1.000000
vn 0.000000 0.000000 1.000000
vn 0.000000 1.000000 0.000000
vn 0.000000 1.000000 0.000000
vn 0.000000 1.000000 0.000000
vn 0.000000 1.000000 0.000000
vn 0.000000 0.000000 -1.000000
vn 0.000000 0.000000 -1.000000
vn 0.000000 0.000000 -1.000000
vn 0.000000 0.000000 -1.000000
vn 0.000000 -1.000000 0.000000
vn 0.000000 -1.000000 0.000000
vn 0.000000 -1.000000 0.000000
vn 0.000000 -1.000000 0.000000
vn 1.000000 0.000000 0.000000
vn 1.000000 0.000000 0.000000
vn 1.000000 0.000000 0.000000
vn 1.000000 0.000000 0.000000
vn -1.000000 0.000000 0.000000
vn -1.000000 0.000000 0.000000
vn -1.000000 0.000000 0.000000
vn -1.000000 0.000000 0.000000
vn 0.969380 0.245566 0.000000
vn 0.969380 0.245566 0.000000
vn 0.969380 0.245566 0.000000
vn 0.969380 0.245566 0.000000
vn 0.929723 0.368260 0.000000
vn 0.879475 0.475945 0.000000
vn 0.879475 0.475945 0.000000
vn 0.929723 0.368260 0.000000
vn 0.816811 0.576905 0.000000
vn 0.816811 0.576905 0.000000
vn 0.735705 0.677303 0.000000
vn 0.735705 0.677303 0.000000
vn 0.735705 0.677303 0.000000
vn 0.735705 0.677303 0.000000
vn 0.642389 0.766379 0.000000
vn 0.546937 0.837174 -0.000001
vn 0.546937 0.837174 -0.000001
vn 0.642389 0.766379 0.000000
vn 0.443769 0.896141 -0.000002
vn 0.443769 0.896141 -0.000002
vn 0.324705 0.945815 0.000000
vn 0.324705 0.945815 0.000000
vn 0.324705 0.945815 0.000000
vn 0.324705 0.945815 0.000000
vn 0.200213 0.979752 0.000000
vn 0.082582 0.996584 0.000000
vn 0.082582 0.996584 0.000000
vn 0.200213 0.979752 0.000000
vn -0.082581 0.996584 0.000000
vn -0.082581 0.996584 0.000000
vn -0.200212 0.979753 0.000000
vn -0.200212 0.979753 0.000000
vn -0.324705 0.945815 0.000000
vn -0.324705 0.945815 0.000000
vn -0.324705 0.945815 0.000000
vn -0.324705 0.945815 0.000000
vn -0.443780 0.896136 0.000000
vn -0.546940 0.837172 0.000000
vn -0.546940 0.837172 0.000000
vn -0.443780 0.896136 0.000000
vn -0.642385 0.766383 0.000000
vn -0.642385 0.766383 0.000000
vn -0.735711 0.677296 0.000000
vn -0.735711 0.677296 0.000000
vn -0.735711 0.677296 0.000000
vn -0.735711 0.677296 0.000000
vn -0.816805 0.576914 0.000000
vn -0.879472 0.475951 0.000000
vn -0.879472 0.475951 0.000000
vn -0.816805 0.576914 0.000000
vn -0.929725 0.368254 0.000000
vn -0.929725 0.368254 0.000000
vn -0.969419 0.245414 0.000000
vn -0.969419 0.245414 0.000000
vn -0.969419 0.245414 0.000000
vn -0.969419 0.245414 0.000000
vn -0.992942 0.118604 0.000000
vn -0.996585 0.082571 0.000000
vn -0.996585 0.082571 0.000000
vn -0.992942 0.118604 0.000000
vn 0.996586 0.082564 0.000000
vn 0.992942 0.118599 0.000000
vn 0.992942 0.118599 0.000000
vn 0.996586 0.082564 0.000000
vn 0.000000 0.000000 1.000000
vn -0.000000 0.000000 1.000000
vn -0.000000 0.000000 1.000000
vn 0.000000 0.000000 1.000000
vn 0.000000 0.000000 1.000000
vn -0.000000 0.000000 1.000000
vn 0.000000 0.000000 1.000000
vn 0.000000 0.000000 1.000000
vn 0.000000 0.000000 1.000000
vn 0.000000 0.000000 1.000000
vn 0.000000 0.000000 1.000000
vn 0.000000 0.000000 1.000000
vn 0.000000 0.000000 1.000000
vn 0.000000 0.000000 1.000000
vn 0.000000 0.000000 1.000000
vn 0.000000 0.000000 1.000000
vn 0.000000 0.000000 1.000000
vn 0.000000 0.000000 1.000000
vn 0.000000 0.000000 1.000000
vn 0.000000 0.000000 1.000000
vn 0.000000 0.000000 1.000000
vn 0.000000 0.000000 1.000000
vn -0.000000 0.000000 1.000000
vn -0.000000 0.000000 1.000000
vn -0.000000 0.000000 1.000000
vn 0.000000 0.000000 1.000000
vn 0.000000 0.000000 1.000000
vn 0.000000 0.000000 1.000000
vn -0.000000 0.000000 1.000000
vn -0.000000 0.000000 1.000000
vn -0.000000 0.000000 1.000000
vn -0.000000 0.000000 1.000000
vn -0.000000 0.000000 1.000000
vn -0.000000 0.000000 1.000000
vn 0.000000 0.000000 1.000000
vn 0.000000 0.000000 1.000000
vn 0.000000 0.000000 1.000000
vn 0.000000 0.000000 1.000000
vn 0.000000 0.000000 1.000000
vn 0.000000 0.000000 1.000000
vn -0.953444 -0.301569 0.000000
vn -0.984815 -0.173608 0.000000
vn -0.984815 -0.173608 0.000000
vn -0.953444 -0.301569 0.000000
vn -0.999370 -0.035503 0.000000
vn -0.999370 -0.035503 0.000000
vn 0.999370 -0.035486 0.000000
vn 0.984816 -0.173599 0.000000
vn 0.984816 -0.173599 0.000000
vn 0.999370 -0.035486 0.000000
vn 0.953446 -0.301563 0.000000
vn 0.953446 -0.301563 0.000000
vn 0.894936 -0.446194 0.000000
vn 0.894936 -0.446194 0.000000
vn 0.812657 -0.582743 0.000000
vn 0.812657 -0.582743 0.000000
vn 0.706810 -0.707404 0.000000
vn 0.706810 -0.707404 0.000000
vn 0.578445 -0.815722 0.000000
vn 0.578445 -0.815722 0.000000
vn 0.429858 -0.902897 0.000000
vn 0.429858 -0.902897 0.000000
vn 0.265040 -0.964238 0.000000
vn 0.265040 -0.964238 0.000000
vn 0.089604 -0.995978 0.000000
vn 0.089604 -0.995978 0.000000
vn -0.089602 -0.995978 0.000000
vn -0.089602 -0.995978 0.000000
vn -0.265040 -0.964238 0.000000
vn -0.265040 -0.964238 0.000000
vn -0.429851 -0.902900 0.000000
vn -0.429851 -0.902900 0.000000
vn -0.578442 -0.815724 0.000000
vn -0.578442 -0.815724 0.000000
vn -0.706814 -0.707399 0.000000
vn -0.706814 -0.707399 0.000000
vn -0.812659 -0.582740 0.000000
vn -0.812659 -0.582740 0.000000
vn -0.894937 -0.446192 0.000000
vn -0.894937 -0.446192 0.000000
vn 0.000007 -1.000000 0.000000
vn 0.000007 -1.000000 0.000000
vn 0.000007 -1.000000 0.000000
vn 0.000007 -1.000000 0.000000
vn 0.000000 -1.000000 0.000000
vn 0.000000 -1.000000 0.000000
vn 0.000000 -1.000000 0.000000
vn 0.000000 -1.000000 0.000000
vn 0.000000 0.000000 -0.000000
vn 0.000000 0.000000 -0.000000
vn 0.004464 0.000000 -0.999990
vn 0.004464 0.000000 -0.999990
vn 0.969402 0.245478 0.000000
vn 0.969402 0.245478 0.000000
vn 0.000000 0.000000 1.000000
vn 0.000000 0.000000 1.000000
vn 0.969408 0.245454 0.000000
vn 0.969408 0.245454 0.000000
vn 0.000000 0.000000 0.000000
vn 0.000000 0.000000 0.000000
vn 0.000000 0.000000 1.000000
vn 0.000000 0.000000 1.000000
vn 0.735734 0.677271 0.000000
vn 0.735734 0.677271 0.000000
vn -0.000000 0.000000 -0.000000
vn -0.000000 0.000000 -0.000000
vn -0.015623 0.000000 -0.999878
vn -0.015623 0.000000 -0.999878
vn 0.735734 0.677271 0.000000
vn 0.735734 0.677271 0.000000
vn -0.000000 0.000000 -0.000000
vn -0.000000 0.000000 -0.000000
vn -0.001953 0.000000 -0.999998
vn -0.001953 0.000000 -0.999998
vn 0.324696 0.945818 0.000000
vn 0.324696 0.945818 0.000000
vn -0.000000 0.000000 -0.000000
vn -0.000000 0.000000 -0.000000
vn -0.023431 0.000000 -0.999725
vn -0.023431 0.000000 -0.999725
vn 0.324702 0.945817 0.000000
vn 0.324702 0.945817 0.000000
vn -0.000000 0.000000 0.000000
vn -0.000000 0.000000 0.000000
vn -0.015623 0.000000 0.999878
vn -0.015623 0.000000 0.999878
vn -0.324704 0.945816 0.000000
vn -0.324704 0.945816 0.000000
vn 0.000000 0.000000 -0.000000
vn 0.000000 0.000000 -0.000000
vn 0.023431 0.000000 -0.999725
vn 0.023431 0.000000 -0.999725
vn -0.324704 0.945816 0.000000
vn -0.324704 0.945816 0.000000
vn 0.000000 0.000000 -0.000000
vn 0.000000 0.000000 -0.000000
vn 0.000000 0.000000 -0.000000
vn 0.000000 0.000000 -0.000000
vn -0.735734 0.677271 0.000000
vn -0.735734 0.677271 0.000000
vn -0.000000 0.000000 0.000000
vn -0.000000 0.000000 0.000000
vn -1.000000 0.000000 0.000000
vn -1.000000 0.000000 0.000000
vn -0.735734 0.677271 0.000000
vn -0.735734 0.677271 0.000000
vn -0.000000 0.000000 0.000000
vn -0.000000 0.000000 0.000000
vn -0.041631 0.000000 0.999133
vn -0.041631 0.000000 0.999133
vn -0.969408 0.245454 0.000000
vn -0.969408 0.245454 0.000000
vn 0.000000 0.000000 -0.000000
vn 0.000000 0.000000 -0.000000
vn 0.062378 0.000000 -0.998053
vn 0.062378 0.000000 -0.998053
vn -0.969409 0.245451 0.000000
vn -0.969409 0.245451 0.000000
vn -0.245487 0.969400 0.000000
vn -0.245487 0.969400 0.000000
vn -0.245487 0.969400 0.000000
vn -0.245487 0.969400 0.000000
vn 0.000000 0.000000 1.000000
vn 0.000000 0.000000 1.000000
vn 0.245487 -0.969400 0.000000
vn 0.245487 -0.969400 0.000000
vn 0.245487 -0.969400 0.000000
vn 0.245487 -0.969400 0.000000
vn -0.677282 0.735724 0.000000
vn -0.677282 0.735724 0.000000
vn -0.677282 0.735724 0.000000
vn -0.677282 0.735724 0.000000
vn 0.000000 0.000000 1.000000
vn 0.000000 0.000000 1.000000
vn 0.000000 0.000000 1.000000
vn 0.000000 0.000000 1.000000
vn 0.677283 -0.735723 0.000000
vn 0.677283 -0.735723 0.000000
vn 0.677283 -0.735723 0.000000
vn 0.677283 -0.735723 0.000000
vn -0.945817 0.324699 0.000000
vn -0.945817 0.324699 0.000000
vn -0.945817 0.324699 0.000000
vn -0.945817 0.324699 0.000000
vn 0.000004 -0.000001 1.000000
vn 0.000004 -0.000001 1.000000
vn 0.000004 -0.000001 1.000000
vn 0.000004 -0.000001 1.000000
vn 0.945817 -0.324699 0.000000
vn 0.945817 -0.324699 0.000000
vn 0.945817 -0.324699 0.000000
vn 0.945817 -0.324700 0.000000
vn -0.945817 -0.324701 0.000000
vn -0.945817 -0.324701 0.000000
vn -0.945817 -0.324701 0.000000
vn -0.945817 -0.324701 0.000000
vn 0.000000 0.000000 1.000000
vn 0.000000 0.000000 1.000000
vn 0.000000 0.000000 1.000000
vn 0.000000 0.000000 1.000000
vn 0.945817 0.324701 0.000000
vn 0.945817 0.324701 0.000000
vn 0.945817 0.324701 0.000000
vn 0.945817 0.324701 0.000000
vn -0.677281 -0.735724 0.000000
vn -0.677281 -0.735724 0.000000
vn -0.677281 -0.735724 0.000000
vn -0.677281 -0.735724 0.000000
vn 0.000000 0.000000 1.000000
vn 0.000000 0.000000 1.000000
vn 0.000000 0.000000 1.000000
vn 0.000000 0.000000 1.000000
vn 0.677281 0.735724 0.000000
vn 0.677281 0.735724 0.000000
vn 0.677281 0.735724 0.000000
vn 0.677281 0.735724 0.000000
vn -0.245471 -0.969404 0.000000
vn -0.245471 -0.969404 0.000000
vn -0.245471 -0.969404 0.000000
vn -0.245471 -0.969404 0.000000
vn -0.000007 0.000002 1.000000
vn -0.000007 0.000002 1.000000
vn -0.000007 0.000002 1.000000
vn -0.000007 0.000002 1.000000
vn 0.245472 0.969404 0.000000
vn 0.245472 0.969404 0.000000
vn 0.245472 0.969404 0.000000
vn 0.245472 0.969404 0.000000
s off
g pCube44
f 1/1/1 2/2/2 4/4/3 3/3/4
f 3/3/5 4/4/6 6/6/7 5/5/8
f 5/5/9 6/6/10 8/8/11 7/7/12
f 7/7/13 8/8/14 2/10/15 1/9/16
f 2/2/17 8/11/18 6/12/19 4/4/20
f 7/13/21 1/1/22 3/3/23 5/14/24
f 9/15/25 10/16/26 12/17/27 11/18/28
f 11/18/29 12/17/30 14/19/31 13/20/32
f 13/20/33 14/19/34 16/21/35 15/22/36
f 15/22/37 16/21/38 10/23/39 9/24/40
f 10/16/41 16/25/42 14/26/43 12/17/44
f 15/27/45 9/15/46 11/18/47 13/28/48
f 17/29/49 18/30/50 20/31/51 19/32/52
f 19/32/53 20/31/54 22/33/55 21/34/56
f 21/34/57 22/33/58 24/35/59 23/36/60
f 23/36/61 24/35/62 18/37/63 17/38/64
f 18/30/65 24/39/66 22/40/67 20/31/68
f 23/41/69 17/29/70 19/32/71 21/42/72
f 25/43/73 26/44/74 28/45/75 27/46/76
f 27/46/77 28/45/78 30/47/79 29/48/80
f 29/48/81 30/47/82 32/49/83 31/50/84
f 31/50/85 32/49/86 26/51/87 25/52/88
f 26/44/89 32/53/90 30/54/91 28/45/92
f 31/55/93 25/43/94 27/46/95 29/56/96
f 33/57/97 34/58/98 36/59/99 35/60/100
f 35/60/101 36/59/102 38/61/103 37/62/104
f 37/62/105 38/61/106 40/63/107 39/64/108
f 39/64/109 40/63/110 34/65/111 33/66/112
f 34/58/113 40/67/114 38/68/115 36/59/116
f 39/69/117 33/57/118 35/60/119 37/70/120
f 41/71/121 42/72/122 44/73/123 43/74/124
f 43/74/125 44/73/126 46/75/127 45/76/128
f 45/76/129 46/75/130 48/77/131 47/78/132
f 47/78/133 48/77/134 42/79/135 41/80/136
f 42/72/137 48/81/138 46/82/139 44/73/140
f 47/83/141 41/71/142 43/74/143 45/84/144
f 49/85/145 50/86/146 52/87/147 51/88/148
f 51/88/149 52/87/150 54/89/151 53/90/152
f 53/90/153 54/89/154 56/91/155 55/92/156
f 55/92/157 56/91/158 50/93/159 49/94/160
f 50/86/161 56/95/162 54/96/163 52/87/164
f 55/97/165 49/85/166 51/88/167 53/98/168
f 57/99/169 58/100/170 60/101/171 59/102/172
f 59/102/173 60/101/174 62/103/175 61/104/176
f 61/104/177 62/103/178 64/105/179 63/106/180
f 63/106/181 64/105/182 58/107/183 57/108/184
f 58/100/185 64/109/186 62/110/187 60/101/188
f 63/111/189 57/99/190 59/102/191 61/112/192
f 169/113/193 170/114/194 171/115/195 172/116/196
s 1
f 66/117/197 67/118/198 87/119/199 86/120/200
f 67/118/198 68/121/201 88/122/202 87/119/199
s off
f 173/123/203 174/124/204 175/125/205 176/126/206
s 2
f 69/127/207 70/128/208 90/129/209 89/130/210
f 70/128/208 71/131/211 91/132/212 90/129/209
s off
f 177/133/213 178/134/214 179/135/215 180/136/216
s 3
f 72/137/217 73/138/218 93/139/219 92/140/220
f 73/138/218 74/141/221 94/142/222 93/139/219
f 74/141/221 75/143/223 95/144/224 94/142/222
s off
f 181/145/225 182/146/226 183/147/227 184/148/228
s 4
f 76/149/229 77/150/230 97/151/231 96/152/232
f 77/150/230 78/153/233 98/154/234 97/151/231
s off
f 185/155/235 186/156/236 187/157/237 188/158/238
s 5
f 79/159/239 80/160/240 100/161/241 99/162/242
f 80/160/240 81/163/243 101/164/244 100/161/241
s off
f 189/165/245 190/166/246 191/167/247 192/168/248
s 6
f 82/169/249 83/170/250 103/171/251 102/172/252
s 7
f 84/173/253 65/174/254 85/175/255 104/176/256
s 8
f 85/177/257 86/178/258 126/179/259 125/180/260
f 86/178/258 87/181/261 127/182/262 126/179/259
f 87/181/261 88/183/263 128/184/264 127/182/262
f 88/183/263 89/185/265 129/186/266 128/184/264
f 89/185/265 90/187/267 130/188/268 129/186/266
f 90/187/267 91/189/269 131/190/270 130/188/268
f 91/189/269 92/191/271 132/192/272 131/190/270
f 92/191/271 93/193/273 133/194/274 132/192/272
f 93/193/273 94/195/275 134/196/276 133/194/274
f 94/195/275 95/197/277 135/198/278 134/196/276
f 95/197/277 96/199/279 136/200/280 135/198/278
f 96/199/279 97/201/281 137/202/282 136/200/280
f 97/201/281 98/203/283 138/204/284 137/202/282
f 98/203/283 99/205/285 139/206/286 138/204/284
f 99/205/285 100/207/287 140/208/288 139/206/286
f 100/207/287 101/209/289 141/210/290 140/208/288
f 101/209/289 102/211/291 142/212/292 141/210/290
f 102/211/291 103/213/293 143/214/294 142/212/292
f 104/215/295 85/177/257 125/180/260 144/216/296
s 9
f 106/217/297 105/218/298 125/180/299 126/179/300
f 105/218/298 124/219/301 144/216/302 125/180/299
f 123/220/303 122/221/304 142/212/305 143/214/306
f 122/221/304 121/222/307 141/210/308 142/212/305
f 121/222/307 120/223/309 140/208/310 141/210/308
f 120/223/309 119/224/311 139/206/312 140/208/310
f 119/224/311 118/225/313 138/204/314 139/206/312
f 118/225/313 117/226/315 137/202/316 138/204/314
f 117/226/315 116/227/317 136/200/318 137/202/316
f 116/227/317 115/228/319 135/198/320 136/200/318
f 115/228/319 114/229/321 134/196/322 135/198/320
f 114/229/321 113/230/323 133/194/324 134/196/322
f 113/230/323 112/231/325 132/192/326 133/194/324
f 112/231/325 111/232/327 131/190/328 132/192/326
f 111/232/327 110/233/329 130/188/330 131/190/328
f 110/233/329 109/234/331 129/186/332 130/188/330
f 109/234/331 108/235/333 128/184/334 129/186/332
f 108/235/333 107/236/335 127/182/336 128/184/334
f 107/236/335 106/217/297 126/179/300 127/182/336
s off
f 104/215/337 144/216/338 124/219/339 84/237/340
f 103/238/341 83/239/342 123/220/343 143/214/344
f 65/240/345 66/117/346 146/241/347 145/242/348
s 1
f 66/117/197 86/120/200 147/243/349 146/241/350
s 8
f 86/120/258 85/244/257 148/245/351 147/243/352
s 7
f 85/244/255 65/240/254 145/242/353 148/245/354
s off
f 68/121/355 69/127/356 150/246/357 149/247/358
s 2
f 69/127/207 89/130/210 151/248/359 150/246/360
s off
f 89/130/361 88/122/362 152/249/363 151/248/364
s 1
f 88/122/202 68/121/201 149/247/365 152/249/366
s off
f 71/131/367 72/137/368 154/250/369 153/251/370
s 3
f 72/137/217 92/140/220 155/252/371 154/250/372
s off
f 92/140/373 91/132/374 156/253/375 155/252/376
s 2
f 91/132/212 71/131/211 153/251/377 156/253/378
s off
f 75/143/379 76/149/380 158/254/381 157/255/382
s 4
f 76/149/229 96/152/232 159/256/383 158/254/384
s off
f 96/152/385 95/144/386 160/257/387 159/256/388
s 3
f 95/144/224 75/143/223 157/255/389 160/257/390
s off
f 78/153/391 79/159/392 162/258/393 161/259/394
s 5
f 79/159/239 99/162/242 163/260/395 162/258/396
s off
f 99/162/397 98/154/398 164/261/399 163/260/400
s 4
f 98/154/234 78/153/233 161/259/401 164/261/402
s off
f 81/163/403 82/169/404 166/262/405 165/263/406
s 6
f 82/169/249 102/172/252 167/264/407 166/262/408
s off
f 102/172/409 101/164/410 168/265/411 167/264/412
s 5
f 101/164/244 81/163/243 165/263/413 168/265/414
s off
f 146/241/415 147/243/416 171/115/417 170/114/418
s 8
f 147/243/352 148/245/351 172/116/419 171/115/420
s off
f 148/245/421 145/242/422 169/113/423 172/116/424
f 150/246/425 151/248/426 175/125/427 174/124/428
f 151/248/429 152/249/430 176/126/431 175/125/432
f 152/249/433 149/247/434 173/123/435 176/126/436
f 154/250/437 155/252/438 179/135/439 178/134/440
f 155/252/441 156/253/442 180/136/443 179/135/444
f 156/253/445 153/251/446 177/133/447 180/136/448
f 158/254/449 159/256/450 183/147/451 182/146/452
f 159/256/453 160/257/454 184/148/455 183/147/456
f 160/257/457 157/255/458 181/145/459 184/148/460
f 162/258/461 163/260/462 187/157/463 186/156/464
f 163/260/465 164/261/466 188/158/467 187/157/468
f 164/261/469 161/259/470 185/155/471 188/158/472
f 166/262/473 167/264/474 191/167/475 190/166/476
f 167/264/477 168/265/478 192/168/479 191/167/480
f 168/265/481 165/263/482 189/165/483 192/168/484
