# This file uses centimeters as units for non-parametric coordinates.

mtllib LadyBug.mtl
g default
v 0.925959 -0.398445 -0.587785
v 0.353685 -0.398445 -0.951057
v -0.353685 -0.398445 -0.951057
v -0.925959 -0.398445 -0.587785
v -1.144548 -0.398445 0.000000
v -0.925958 -0.398445 0.587785
v -0.353684 -0.398445 0.951057
v 0.353685 -0.398445 0.951057
v 0.925959 -0.398445 0.587785
v 1.144548 -0.398445 0.000000
v 0.880639 -0.152192 -0.559017
v 0.336374 -0.152192 -0.904509
v -0.336374 -0.152192 -0.904509
v -0.880639 -0.152192 -0.559017
v -1.088529 -0.152192 0.000000
v -0.880639 -0.152192 0.559017
v -0.336374 -0.152192 0.904509
v 0.336374 -0.152192 0.904509
v 0.880639 -0.152192 0.559017
v 1.088530 -0.152192 0.000000
v 0.749116 0.069955 -0.475528
v 0.286137 0.069955 -0.769421
v -0.286137 0.069955 -0.769421
v -0.749116 0.069955 -0.475528
v -0.925958 0.069955 0.000000
v -0.749116 0.069955 0.475528
v -0.286137 0.069955 0.769421
v 0.286137 0.069955 0.769421
v 0.749116 0.069955 0.475528
v 0.925959 0.069955 0.000000
v 0.544265 0.246253 -0.345492
v 0.207891 0.246253 -0.559017
v -0.207891 0.246253 -0.559017
v -0.544265 0.246253 -0.345491
v -0.672748 0.246253 0.000000
v -0.544265 0.246253 0.345492
v -0.207890 0.246253 0.559017
v 0.207891 0.246253 0.559017
v 0.544265 0.246253 0.345492
v 0.672748 0.246253 0.000000
v 0.286137 0.359442 -0.181636
v 0.109295 0.359442 -0.293893
v -0.109294 0.359442 -0.293893
v -0.286137 0.359442 -0.181636
v -0.353685 0.359442 0.000000
v -0.286137 0.359442 0.181636
v -0.109294 0.359442 0.293893
v 0.109295 0.359442 0.293893
v 0.286137 0.359442 0.181636
v 0.353685 0.359442 0.000000
v 0.000000 0.398445 0.000000
vt 0.914566 0.720586
vt 0.665132 0.900618
vt 0.635448 0.818451
vt 0.842249 0.671726
vt 0.342302 0.907506
vt 0.370074 0.820693
vt 0.088674 0.727350
vt 0.160431 0.677555
vt 0.000000 0.457098
vt 0.083743 0.456852
vt 0.085433 0.186927
vt 0.157751 0.235786
vt 0.334857 0.006896
vt 0.364545 0.089062
vt 0.657684 -0.000000
vt 0.629917 0.086815
vt 0.911318 0.180150
vt 0.839565 0.229949
vt 1.000000 0.450405
vt 0.916257 0.450654
vt 0.603939 0.733650
vt 0.765107 0.622384
vt 0.399781 0.733387
vt 0.236825 0.626529
vt 0.174865 0.456231
vt 0.234894 0.285128
vt 0.396058 0.173862
vt 0.600214 0.174122
vt 0.763172 0.280978
vt 0.825136 0.451278
vt 0.570659 0.644022
vt 0.681796 0.569600
vt 0.431626 0.643027
vt 0.319400 0.571739
vt 0.275698 0.455270
vt 0.318205 0.337912
vt 0.429340 0.263489
vt 0.568372 0.264483
vt 0.680599 0.335770
vt 0.724303 0.452240
vt 0.535918 0.550010
vt 0.592870 0.512963
vt 0.465229 0.549516
vt 0.407727 0.513447
vt 0.385235 0.454200
vt 0.407131 0.394548
vt 0.464083 0.357501
vt 0.534771 0.357994
vt 0.592273 0.394064
vt 0.614766 0.453310
vt 0.500001 0.453755
vn 0.754740 0.211449 -0.621013
vn 0.270248 0.197134 -0.942393
vn 0.256406 0.360238 -0.896931
vn 0.712972 0.380894 -0.588719
vn -0.270249 0.197134 -0.942393
vn -0.256406 0.360238 -0.896931
vn -0.754740 0.211449 -0.621013
vn -0.712972 0.380894 -0.588719
vn -0.975089 0.221815 0.000000
vn -0.918536 0.395339 0.000000
vn -0.754740 0.211450 0.621013
vn -0.712972 0.380894 0.588719
vn -0.270248 0.197134 0.942393
vn -0.256406 0.360238 0.896931
vn 0.270248 0.197134 0.942393
vn 0.256406 0.360238 0.896931
vn 0.754740 0.211449 0.621013
vn 0.712972 0.380893 0.588719
vn 0.975089 0.221815 0.000000
vn 0.918536 0.395339 0.000000
vn 0.207585 0.648709 -0.732178
vn 0.568396 0.672901 -0.473424
vn -0.207586 0.648709 -0.732178
vn -0.568396 0.672901 -0.473424
vn -0.724403 0.689376 0.000000
vn -0.568396 0.672901 0.473424
vn -0.207585 0.648709 0.732178
vn 0.207586 0.648709 0.732178
vn 0.568396 0.672901 0.473424
vn 0.724403 0.689376 0.000000
vn 0.146072 0.840553 -0.521665
vn 0.395367 0.855924 -0.333284
vn -0.146072 0.840553 -0.521665
vn -0.395367 0.855924 -0.333284
vn -0.499697 0.866201 0.000000
vn -0.395367 0.855924 0.333284
vn -0.146072 0.840553 0.521665
vn 0.146072 0.840553 0.521665
vn 0.395367 0.855924 0.333284
vn 0.499697 0.866200 0.000000
vn 0.085921 0.945891 -0.312902
vn 0.232454 0.951932 -0.199475
vn -0.085921 0.945891 -0.312902
vn -0.232454 0.951932 -0.199475
vn -0.293316 0.956015 0.000000
vn -0.232454 0.951932 0.199475
vn -0.085921 0.945891 0.312902
vn 0.085921 0.945891 0.312902
vn 0.232454 0.951932 0.199475
vn 0.293316 0.956015 0.000000
vn 0.000000 1.000000 0.000000
s 1
g pSphere1
usemtl initialShadingGroup
f 1/1/1 2/2/2 12/3/3 11/4/4
f 2/2/2 3/5/5 13/6/6 12/3/3
f 3/5/5 4/7/7 14/8/8 13/6/6
f 4/7/7 5/9/9 15/10/10 14/8/8
f 5/9/9 6/11/11 16/12/12 15/10/10
f 6/11/11 7/13/13 17/14/14 16/12/12
f 7/13/13 8/15/15 18/16/16 17/14/14
f 8/15/15 9/17/17 19/18/18 18/16/16
f 9/17/17 10/19/19 20/20/20 19/18/18
f 10/19/19 1/1/1 11/4/4 20/20/20
f 11/4/4 12/3/3 22/21/21 21/22/22
f 12/3/3 13/6/6 23/23/23 22/21/21
f 13/6/6 14/8/8 24/24/24 23/23/23
f 14/8/8 15/10/10 25/25/25 24/24/24
f 15/10/10 16/12/12 26/26/26 25/25/25
f 16/12/12 17/14/14 27/27/27 26/26/26
f 17/14/14 18/16/16 28/28/28 27/27/27
f 18/16/16 19/18/18 29/29/29 28/28/28
f 19/18/18 20/20/20 30/30/30 29/29/29
f 20/20/20 11/4/4 21/22/22 30/30/30
f 21/22/22 22/21/21 32/31/31 31/32/32
f 22/21/21 23/23/23 33/33/33 32/31/31
f 23/23/23 24/24/24 34/34/34 33/33/33
f 24/24/24 25/25/25 35/35/35 34/34/34
f 25/25/25 26/26/26 36/36/36 35/35/35
f 26/26/26 27/27/27 37/37/37 36/36/36
f 27/27/27 28/28/28 38/38/38 37/37/37
f 28/28/28 29/29/29 39/39/39 38/38/38
f 29/29/29 30/30/30 40/40/40 39/39/39
f 30/30/30 21/22/22 31/32/32 40/40/40
f 31/32/32 32/31/31 42/41/41 41/42/42
f 32/31/31 33/33/33 43/43/43 42/41/41
f 33/33/33 34/34/34 44/44/44 43/43/43
f 34/34/34 35/35/35 45/45/45 44/44/44
f 35/35/35 36/36/36 46/46/46 45/45/45
f 36/36/36 37/37/37 47/47/47 46/46/46
f 37/37/37 38/38/38 48/48/48 47/47/47
f 38/38/38 39/39/39 49/49/49 48/48/48
f 39/39/39 40/40/40 50/50/50 49/49/49
f 40/40/40 31/32/32 41/42/42 50/50/50
f 41/42/42 42/41/41 51/51/51
f 42/41/41 43/43/43 51/51/51
f 43/43/43 44/44/44 51/51/51
f 44/44/44 45/45/45 51/51/51
f 45/45/45 46/46/46 51/51/51
f 46/46/46 47/47/47 51/51/51
f 47/47/47 48/48/48 51/51/51
f 48/48/48 49/49/49 51/51/51
f 49/49/49 50/50/50 51/51/51
f 50/50/50 41/42/42 51/51/51
