# This file uses centimeters as units for non-parametric coordinates.

mtllib LeafCurved.mtl
g default
v -0.500000 0.091889 0.282765
v -0.250000 -0.015197 0.282765
v 0.000000 -0.057180 0.282765
v 0.250000 -0.015197 0.282765
v 0.500000 0.091889 0.282765
v -0.500000 0.072341 0.141382
v -0.250000 -0.039208 0.141382
v 0.000000 -0.082432 0.141382
v 0.250000 -0.039208 0.141382
v 0.500000 0.072341 0.141382
v -0.500000 0.064924 0.000000
v -0.250000 -0.048178 0.000000
v 0.000000 -0.091889 0.000000
v 0.250000 -0.048178 0.000000
v 0.500000 0.064924 0.000000
v -0.500000 0.072341 -0.141382
v -0.250000 -0.039208 -0.141382
v 0.000000 -0.082432 -0.141382
v 0.250000 -0.039208 -0.141382
v 0.500000 0.072341 -0.141382
v -0.500000 0.091889 -0.282765
v -0.250000 -0.015197 -0.282765
v 0.000000 -0.057180 -0.282765
v 0.250000 -0.015197 -0.282765
v 0.500000 0.091889 -0.282765
vt 0.000000 0.000000
vt 0.250000 0.000000
vt 0.500000 0.000000
vt 0.750000 0.000000
vt 1.000000 0.000000
vt 0.000000 0.250000
vt 0.250000 0.250000
vt 0.500000 0.250000
vt 0.750000 0.250000
vt 1.000000 0.250000
vt 0.000000 0.500000
vt 0.250000 0.500000
vt 0.500000 0.500000
vt 0.750000 0.500000
vt 1.000000 0.500000
vt 0.000000 0.750000
vt 0.250000 0.750000
vt 0.500000 0.750000
vt 0.750000 0.750000
vt 1.000000 0.750000
vt 0.000000 1.000000
vt 0.250000 1.000000
vt 0.500000 1.000000
vt 0.750000 1.000000
vt 1.000000 1.000000
vn 0.396711 0.907242 -0.139757
vn 0.290616 0.944251 -0.154701
vn 0.291354 0.950615 -0.106976
vn 0.403213 0.909896 -0.097512
vn 0.000000 0.985161 -0.171632
vn 0.000000 0.992997 -0.118140
vn -0.290616 0.944251 -0.154701
vn -0.291354 0.950615 -0.106976
vn -0.396711 0.907242 -0.139757
vn -0.403213 0.909896 -0.097512
vn 0.296061 0.955169 -0.000000
vn 0.409837 0.912159 0.000000
vn 0.000000 1.000000 0.000000
vn -0.296061 0.955169 -0.000000
vn -0.409837 0.912159 0.000000
vn 0.291354 0.950615 0.106976
vn 0.403213 0.909896 0.097512
vn 0.000000 0.992997 0.118140
vn -0.291354 0.950615 0.106976
vn -0.403213 0.909896 0.097512
vn 0.290616 0.944251 0.154701
vn 0.396711 0.907242 0.139757
vn 0.000000 0.985161 0.171632
vn -0.290616 0.944251 0.154701
vn -0.396711 0.907242 0.139757
s 1
g pPlane10
usemtl initialShadingGroup
f 1/1/1 2/2/2 7/7/3 6/6/4
f 2/2/2 3/3/5 8/8/6 7/7/3
f 3/3/5 4/4/7 9/9/8 8/8/6
f 4/4/7 5/5/9 10/10/10 9/9/8
f 6/6/4 7/7/3 12/12/11 11/11/12
f 7/7/3 8/8/6 13/13/13 12/12/11
f 8/8/6 9/9/8 14/14/14 13/13/13
f 9/9/8 10/10/10 15/15/15 14/14/14
f 11/11/12 12/12/11 17/17/16 16/16/17
f 12/12/11 13/13/13 18/18/18 17/17/16
f 13/13/13 14/14/14 19/19/19 18/18/18
f 14/14/14 15/15/15 20/20/20 19/19/19
f 16/16/17 17/17/16 22/22/21 21/21/22
f 17/17/16 18/18/18 23/23/23 22/22/21
f 18/18/18 19/19/19 24/24/24 23/23/23
f 19/19/19 20/20/20 25/25/25 24/24/24
