# This file uses centimeters as units for non-parametric coordinates.

mtllib Moss.mtl
g default
v -2.131792 -0.156518 1.421407
v 2.458660 -0.195110 1.737763
v -0.072408 0.195110 -2.596063
v 0.323817 0.195110 2.481085
v 2.461218 -0.191154 -1.252621
v -1.775573 -0.084985 -0.996722
v 0.129419 0.195110 0.211174
v -2.461218 -0.169816 -0.125720
v -1.310564 -0.111528 2.594152
v -0.031771 0.195110 1.312887
v -0.801499 0.171950 -0.384752
v -0.979773 0.142738 0.791988
v 1.683282 -0.046814 2.596063
v 1.681921 -0.093764 0.345144
v 1.226644 0.031090 -0.493867
v 1.188796 0.032020 1.011710
v 1.223912 -0.020478 -1.965737
v -0.869445 0.158387 -2.167974
v -0.097936 0.195110 -1.143586
v -1.309294 0.037157 -0.820902
v -2.364156 -0.165181 -0.672495
v -1.611146 0.000233 0.229183
v -0.993608 0.144298 0.064117
v -1.544064 0.030889 -0.338976
v -2.001816 -0.089647 0.361545
v -1.896747 -0.182927 2.239338
v -1.149878 -0.001903 1.719546
v -1.648523 -0.035301 1.140458
v -0.497196 0.089547 2.549619
v 0.150246 0.195110 1.757295
v -0.472156 0.162088 1.251215
v -0.475417 0.130906 1.823624
v 0.132043 0.195110 0.950273
v -0.493263 0.195110 -0.178710
v -0.472222 0.195110 0.543657
v 1.053421 0.109812 2.549619
v 1.534771 -0.051880 1.810060
v 0.793678 0.108822 1.275904
v 0.920693 0.100961 1.824820
v 2.241975 -0.163681 2.324606
v 2.292612 -0.189766 0.840081
v 1.274503 0.005315 0.738254
v 1.994118 -0.159063 1.325831
v 1.641463 -0.090909 -0.110354
v 1.704452 -0.061240 -0.832622
v 1.035499 0.069152 0.295969
v 1.229045 0.017467 0.026181
v 0.775496 0.107336 -0.162646
v 0.771549 0.109303 0.587594
v 2.162413 -0.179477 -1.835517
v 0.686678 0.101740 -1.659936
v 0.292173 0.195110 -0.998807
v 1.371458 0.017118 -1.284384
v 0.565654 0.132628 -2.181911
v -0.553131 0.195110 -2.515237
v -0.414147 0.195110 -1.673607
v -0.035816 0.195110 -2.030802
v -1.259696 0.080766 -1.508509
v -0.770406 0.111420 -0.871878
v -0.745882 0.142204 -1.212475
v 0.099741 0.195110 -0.474673
vt 0.298147 0.487651
vt 0.337174 0.574103
vt 0.234015 0.658105
vt 0.186321 0.565287
vt 0.139290 0.691968
vt 0.019718 0.629522
vt 0.000000 0.524214
vt 0.172693 0.455859
vt 0.300958 0.347464
vt 0.093328 0.430367
vt 0.165100 0.280348
vt 0.066923 0.226238
vt 0.114673 0.068705
vt 0.233757 0.000368
vt 0.266401 0.168817
vt 0.398994 0.008945
vt 0.403418 0.148771
vt 0.565784 0.022145
vt 0.530523 0.161546
vt 0.404081 0.259017
vt 0.493546 0.247139
vt 0.526825 0.316978
vt 0.404067 0.395292
vt 0.526292 0.459328
vt 0.399793 0.534419
vt 0.661237 0.254262
vt 0.687040 0.148541
vt 0.714004 0.008945
vt 0.841961 0.000000
vt 0.811791 0.151384
vt 0.741506 0.305145
vt 0.955461 0.052282
vt 0.905108 0.244646
vt 0.999480 0.165308
vt 0.965747 0.338201
vt 0.841685 0.433526
vt 0.758917 0.357813
vt 0.833466 0.521254
vt 0.749682 0.494958
vt 1.000000 0.741254
vt 0.846262 0.660362
vt 0.749194 0.595118
vt 0.710363 0.442997
vt 0.657543 0.531325
vt 0.656741 0.386830
vt 0.559355 0.692370
vt 0.778614 0.747371
vt 0.939297 0.853519
vt 0.748640 0.878600
vt 0.639500 0.819703
vt 0.480104 0.720254
vt 0.614913 0.920235
vt 0.492724 0.891131
vt 0.485290 1.000000
vt 0.387631 0.984433
vt 0.323371 0.917550
vt 0.415866 0.822336
vt 0.244091 0.790538
vt 0.348473 0.733522
vt 0.343491 0.667923
vt 0.520262 0.591422
vn -0.168049 0.985778 0.000952
vn -0.100773 0.994298 -0.034865
vn -0.192261 0.980984 -0.026584
vn -0.206969 0.977769 -0.033655
vn -0.203059 0.977668 -0.054162
vn -0.210002 0.977144 -0.032985
vn -0.213850 0.976860 0.003665
vn -0.218662 0.975445 0.026333
vn -0.175696 0.982917 0.054810
vn -0.212537 0.976349 0.039639
vn -0.208750 0.975532 0.068994
vn -0.209774 0.975894 0.060215
vn -0.179863 0.979882 0.086491
vn -0.197725 0.977062 0.079084
vn -0.193247 0.977674 0.082521
vn -0.174700 0.983068 0.055287
vn -0.160342 0.985079 0.062525
vn 0.021830 0.999761 -0.001125
vn 0.014342 0.999891 0.003413
vn -0.118614 0.991009 0.061898
vn 0.014707 0.999752 0.016700
vn 0.066622 0.997711 0.011586
vn -0.047371 0.998793 0.012989
vn 0.068888 0.997624 -0.001362
vn -0.037625 0.999143 -0.017260
vn 0.156934 0.987585 -0.006841
vn 0.172640 0.984486 -0.031333
vn 0.189167 0.980947 -0.044249
vn 0.212498 0.976010 -0.047424
vn 0.214458 0.976131 -0.034286
vn 0.217013 0.976161 -0.003964
vn 0.168066 0.985100 -0.036507
vn 0.166929 0.985891 -0.012419
vn 0.090066 0.995831 -0.014426
vn 0.164409 0.986392 0.000853
vn 0.209867 0.977729 0.001188
vn 0.222585 0.974913 -0.000409
vn 0.230539 0.972095 0.043392
vn 0.235840 0.971575 0.020552
vn 0.195093 0.980678 -0.014446
vn 0.199972 0.979657 0.016858
vn 0.177963 0.983900 0.016453
vn 0.189921 0.981798 -0.001706
vn 0.131972 0.991234 0.006235
vn 0.145322 0.989379 0.003200
vn 0.072743 0.996861 -0.031252
vn 0.173139 0.984130 -0.038874
vn 0.184475 0.981574 -0.049803
vn 0.174578 0.981915 -0.073246
vn 0.134501 0.990208 -0.037383
vn -0.005277 0.999784 -0.020116
vn 0.142285 0.989725 0.014131
vn 0.056685 0.998380 0.004911
vn 0.056854 0.998376 -0.003680
vn -0.009590 0.999948 0.003580
vn -0.085444 0.996141 0.020073
vn -0.029379 0.999324 0.022113
vn -0.167219 0.985095 0.040322
vn -0.130632 0.990647 0.039427
vn -0.084664 0.996055 -0.026581
vn 0.025527 0.999570 -0.014437
s 1
g pDisc1
usemtl initialShadingGroup
f 23/1/1 11/2/2 20/3/3 24/4/4
f 20/3/3 6/5/5 21/6/6 24/4/4
f 21/6/6 8/7/7 22/8/8 24/4/4
f 22/8/8 12/9/9 23/1/1 24/4/4
f 22/8/8 8/7/7 25/10/10 28/11/11
f 25/10/10 1/12/12 26/13/13 28/11/11
f 26/13/13 9/14/14 27/15/15 28/11/11
f 27/15/15 12/9/9 22/8/8 28/11/11
f 27/15/15 9/14/14 29/16/16 32/17/17
f 29/16/16 4/18/18 30/19/19 32/17/17
f 31/20/20 12/9/9 27/15/15 32/17/17
f 31/20/20 10/21/21 33/22/22 35/23/23
f 33/22/22 7/24/24 34/25/25 35/23/23
f 34/25/25 11/2/2 23/1/1 35/23/23
f 23/1/1 12/9/9 31/20/20 35/23/23
f 38/26/26 10/21/21 30/19/19 39/27/27
f 30/19/19 4/18/18 36/28/28 39/27/27
f 36/28/28 13/29/29 37/30/30 39/27/27
f 37/30/30 16/31/31 38/26/26 39/27/27
f 37/30/30 13/29/29 40/32/32 43/33/33
f 40/32/32 2/34/34 41/35/35 43/33/33
f 41/35/35 14/36/36 42/37/37 43/33/33
f 42/37/37 16/31/31 37/30/30 43/33/33
f 42/37/37 14/36/36 44/38/38 47/39/39
f 44/38/38 5/40/40 45/41/41 47/39/39
f 45/41/41 15/42/42 46/43/43 47/39/39
f 46/43/43 16/31/31 42/37/37 47/39/39
f 46/43/43 15/42/42 48/44/44 49/45/45
f 48/44/44 7/24/24 33/22/22 49/45/45
f 33/22/22 10/21/21 38/26/26 49/45/45
f 38/26/26 16/31/31 46/43/43 49/45/45
f 52/46/46 15/42/42 45/41/41 53/47/47
f 45/41/41 5/40/40 50/48/48 53/47/47
f 50/48/48 17/49/49 51/50/50 53/47/47
f 51/50/50 19/51/51 52/46/46 53/47/47
f 51/50/50 17/49/49 54/52/52 57/53/53
f 54/52/52 3/54/54 55/55/55 57/53/53
f 55/55/55 18/56/56 56/57/57 57/53/53
f 56/57/57 19/51/51 51/50/50 57/53/53
f 56/57/57 18/56/56 58/58/58 60/59/59
f 58/58/58 6/5/5 20/3/3 60/59/59
f 20/3/3 11/2/2 59/60/60 60/59/59
f 59/60/60 19/51/51 56/57/57 60/59/59
f 34/25/25 7/24/24 48/44/44 61/61/61
f 48/44/44 15/42/42 52/46/46 61/61/61
f 11/2/2 34/25/25 61/61/61 52/46/46 19/51/51 59/60/60
f 32/17/17 30/19/19 10/21/21 31/20/20
