# This file uses centimeters as units for non-parametric coordinates.

mtllib MushroomTops.mtl
g default
v -0.503353 0.043252 0.785968
v -0.817630 0.031176 0.734910
v -1.052224 -0.004377 0.947572
v -1.030480 -0.036633 1.263815
v -0.768772 -0.041304 1.445502
v -0.464171 -0.014872 1.355819
v -0.346049 0.022759 1.062299
v -0.537038 0.140964 0.837001
v -0.809210 0.130505 0.792783
v -1.012374 0.099716 0.976954
v -0.993543 0.071781 1.250829
v -0.766897 0.067736 1.408175
v -0.503106 0.090626 1.330507
v -0.400808 0.123216 1.076311
v -0.617553 0.200904 0.954519
v -0.774692 0.194866 0.928990
v -0.891989 0.177090 1.035321
v -0.881117 0.160961 1.193443
v -0.750263 0.158626 1.284286
v -0.597962 0.171842 1.239445
v -0.538901 0.190657 1.092685
v -0.723325 0.207012 1.107033
v 1.486130 -0.008289 0.029204
v 1.126691 0.027673 -0.092537
v 0.806351 0.042797 0.113532
v 0.766334 0.025694 0.492236
v 1.036772 -0.010757 0.758403
v 1.414021 -0.039108 0.711604
v 1.614004 -0.038009 0.387080
v 1.455087 0.116941 0.077895
v 1.143803 0.148085 -0.027535
v 0.866381 0.161183 0.150926
v 0.831725 0.146371 0.478893
v 1.065932 0.114804 0.709400
v 1.392639 0.090251 0.668871
v 1.565829 0.091203 0.387825
v 1.349963 0.210837 0.197564
v 1.170244 0.228818 0.136694
v 1.010074 0.236380 0.239728
v 0.990065 0.227829 0.429080
v 1.125284 0.209603 0.562164
v 1.313909 0.195428 0.538764
v 1.413900 0.195977 0.376502
v 1.198927 0.248240 0.356146
v 0.825461 -0.024192 -1.158991
v 0.607188 -0.032505 -1.201012
v 0.437686 -0.016341 -1.057884
v 0.444594 0.012128 -0.837385
v 0.622709 0.031464 -0.705556
v 0.837908 0.027107 -0.761667
v 0.928141 0.002338 -0.963464
v 0.803935 0.051221 -1.140968
v 0.614905 0.044022 -1.177359
v 0.468112 0.058020 -1.053406
v 0.474094 0.082675 -0.862449
v 0.628347 0.099420 -0.748282
v 0.814714 0.095647 -0.796875
v 0.892858 0.074196 -0.971637
v 0.747045 0.112909 -1.073152
v 0.637908 0.108752 -1.094162
v 0.553157 0.116834 -1.022598
v 0.556611 0.131069 -0.912348
v 0.645669 0.140737 -0.846434
v 0.753268 0.138558 -0.874489
v 0.798384 0.126174 -0.975388
v 0.670034 0.144343 -0.973713
v 0.363657 0.000000 -0.456012
v -0.129788 0.000000 -0.568638
v -0.525500 0.000000 -0.253067
v -0.525500 0.000000 0.253067
v -0.129788 0.000000 0.568638
v 0.363657 0.000000 0.456012
v 0.583261 0.000000 0.000000
v 0.314936 0.165589 -0.394918
v -0.112399 0.165589 -0.492455
v -0.455096 0.165589 -0.219163
v -0.455096 0.165589 0.219163
v -0.112400 0.165589 0.492455
v 0.314936 0.165589 0.394918
v 0.505119 0.165589 0.000000
v 0.181829 0.286809 -0.228006
v -0.064894 0.286809 -0.284319
v -0.262750 0.286809 -0.126534
v -0.262750 0.286809 0.126534
v -0.064894 0.286809 0.284319
v 0.181829 0.286809 0.228006
v 0.291631 0.286809 0.000000
v 0.000000 0.331178 0.000000
vt 0.891150 0.775087
vt 0.886344 0.638328
vt 0.935285 0.645780
vt 0.939447 0.764217
vt 0.931638 0.509198
vt 0.974511 0.533950
vt 0.997597 0.668650
vt 1.000000 0.737030
vt 0.945398 0.900719
vt 0.986427 0.873018
vt 0.129088 0.962454
vt 0.125295 0.825663
vt 0.174179 0.833478
vt 0.177464 0.951942
vt 0.171545 0.696872
vt 0.214232 0.721941
vt 0.810779 0.943573
vt 0.779611 0.782851
vt 0.838837 0.782537
vt 0.865829 0.921726
vt 0.809073 0.621808
vt 0.864351 0.643070
vt 0.737846 0.448845
vt 0.794425 0.291394
vt 0.846626 0.322281
vt 0.796835 0.451799
vt 0.904186 0.379193
vt 0.873978 0.456977
vt 0.774724 0.610456
vt 0.829398 0.587207
vt 0.895225 0.538326
vt 0.459414 0.874698
vt 0.478882 0.781171
vt 0.510828 0.794357
vt 0.493967 0.875354
vt 0.531053 0.701143
vt 0.556009 0.725051
vt 0.549277 0.820219
vt 0.539543 0.866983
vt 0.475318 0.968897
vt 0.507741 0.956932
vt 0.158777 0.679026
vt 0.129935 0.587953
vt 0.164245 0.583800
vt 0.189222 0.662672
vt 0.136216 0.492628
vt 0.169684 0.501246
vt 0.470808 0.424534
vt 0.454773 0.207752
vt 0.532915 0.216573
vt 0.546802 0.404312
vt 0.518732 0.000000
vt 0.588305 0.036655
vt 0.633229 0.249044
vt 0.641246 0.357435
vt 0.564638 0.620615
vt 0.628061 0.574123
vt 0.032216 0.851933
vt 0.000000 0.636959
vt 0.078583 0.639907
vt 0.106483 0.826079
vt 0.048229 0.425003
vt 0.120350 0.456347
vt 0.843815 0.261447
vt 0.722137 0.283653
vt 0.737478 0.218658
vt 0.804190 0.207866
vt 0.626473 0.207209
vt 0.685091 0.173920
vt 0.758798 0.143504
vt 0.904272 0.153710
vt 0.837790 0.149826
vt 0.859699 0.038895
vt 0.814041 0.087216
vt 0.690862 0.101535
vt 0.743681 0.000015
vt 0.750092 0.065797
vt 0.639158 0.059654
vt 0.474366 0.736389
vt 0.335117 0.770905
vt 0.348978 0.693035
vt 0.428359 0.671443
vt 0.214499 0.689045
vt 0.282515 0.647818
vt 0.364228 0.600114
vt 0.199543 0.543077
vt 0.275169 0.568187
vt 0.458139 0.591641
vt 0.302102 0.437624
vt 0.332323 0.511553
vt 0.413985 0.518344
vt 0.447730 0.445153
vt 0.576164 0.652089
vt 0.647966 0.607920
vt 0.653713 0.653650
vt 0.613216 0.680035
vt 0.728848 0.632187
vt 0.698522 0.667020
vt 0.661521 0.707644
vt 0.651899 0.573537
vt 0.744828 0.601554
vt 0.763141 0.711192
vt 0.716688 0.710114
vt 0.610865 0.730673
vt 0.723678 0.787834
vt 0.694721 0.751429
vt 0.648481 0.760595
vt 0.639374 0.806313
vt 0.570787 0.755334
vt 0.161097 0.451863
vt 0.000000 0.342845
vt 0.088634 0.282760
vt 0.177216 0.347013
vt 0.201524 0.225327
vt 0.350983 0.401397
vt 0.281497 0.321535
vt 0.088669 0.167412
vt 0.433166 0.223192
vt 0.327403 0.225402
vt 0.177965 0.103371
vt 0.348145 0.046987
vt 0.281922 0.129246
vt 0.001530 0.107596
vt 0.159541 0.000012
vt 0.758422 0.802971
vt 0.761659 0.939777
vt 0.712807 0.931763
vt 0.710003 0.813286
vt 0.918828 0.472453
vt 0.931414 0.336189
vt 0.979013 0.349791
vt 0.968113 0.467799
vt 0.981630 0.000005
vt 0.989893 0.163512
vt 0.931212 0.155496
vt 0.924056 0.013895
vt 0.938084 0.318814
vt 0.886344 0.289992
vt 0.660088 0.543223
vt 0.649676 0.379839
vt 0.708458 0.387082
vt 0.717475 0.528577
vt 0.432780 0.000013
vt 0.436426 0.095475
vt 0.402244 0.090376
vt 0.399087 0.007704
vt 0.440012 0.772704
vt 0.439185 0.990077
vt 0.361962 0.975221
vt 0.362679 0.786971
vt 0.222746 0.984562
vt 0.225931 0.767211
vt 0.302987 0.782903
vt 0.300229 0.971135
vn 0.489862 0.530283 -0.691979
vn -0.284200 0.500539 -0.817736
vn -0.258375 0.692653 -0.673405
vn 0.405449 0.718161 -0.565558
vn -0.862001 0.412973 -0.293952
vn -0.753889 0.617558 -0.224216
vn -0.808445 0.333526 0.484951
vn -0.707961 0.549425 0.443761
vn -0.163861 0.322022 0.932444
vn -0.155175 0.539559 0.827524
vn 0.586366 0.387123 0.711555
vn 0.488209 0.595389 0.638093
vn 0.877300 0.479808 -0.011381
vn 0.737710 0.674875 0.018114
vn -0.173510 0.933357 -0.314227
vn 0.193648 0.947465 -0.254578
vn -0.447577 0.891823 -0.065783
vn -0.422174 0.854139 0.303672
vn -0.116430 0.848682 0.515930
vn 0.239422 0.879561 0.411156
vn 0.377420 0.923524 0.068248
vn -0.055225 0.992930 0.105075
vn 0.667841 0.407674 -0.622728
vn -0.072142 0.481710 -0.873356
vn -0.040265 0.677118 -0.734772
vn 0.594334 0.613626 -0.519837
vn -0.731629 0.512846 -0.449119
vn -0.605832 0.703819 -0.370952
vn -0.814014 0.477635 0.330524
vn -0.676484 0.673624 0.297658
vn -0.257258 0.402593 0.878486
vn -0.199019 0.609268 0.767583
vn 0.519389 0.344227 0.782140
vn 0.467023 0.559215 0.684958
vn 0.931097 0.346488 0.114037
vn 0.820098 0.561154 0.112003
vn 0.022859 0.926044 -0.376722
vn 0.373853 0.890927 -0.257842
vn -0.289953 0.940813 -0.175495
vn -0.329031 0.924112 0.194311
vn -0.064947 0.888517 0.454224
vn 0.303438 0.860833 0.408525
vn 0.498722 0.861905 0.091625
vn 0.081436 0.995239 0.053553
vn 0.535948 0.337892 -0.773685
vn -0.234137 0.308563 -0.921937
vn -0.204294 0.527700 -0.824498
vn 0.456120 0.552852 -0.697359
vn -0.832154 0.365591 -0.416968
vn -0.717145 0.576607 -0.391443
vn -0.807784 0.466032 0.360970
vn -0.696245 0.662743 0.275706
vn -0.179377 0.534252 0.826074
vn -0.157333 0.721248 0.674573
vn 0.579862 0.518881 0.628111
vn 0.493780 0.708065 0.504802
vn 0.898212 0.431492 -0.083849
vn 0.766792 0.633122 -0.105765
vn -0.120309 0.841460 -0.526755
vn 0.244964 0.855371 -0.456435
vn -0.403964 0.868510 -0.287235
vn -0.392405 0.916152 0.081762
vn -0.094334 0.948510 0.302373
vn 0.265793 0.941219 0.208474
vn 0.416795 0.899768 -0.129227
vn -0.013199 0.991734 -0.127631
vn 0.563859 0.426771 -0.707057
vn -0.201239 0.426771 -0.881686
vn -0.172580 0.631266 -0.756121
vn 0.483558 0.631266 -0.606362
vn -0.814800 0.426771 -0.392387
vn -0.698761 0.631266 -0.336506
vn -0.814800 0.426771 0.392387
vn -0.698761 0.631266 0.336505
vn -0.201239 0.426771 0.881686
vn -0.172580 0.631266 0.756121
vn 0.563859 0.426771 0.707057
vn 0.483558 0.631266 0.606362
vn 0.904360 0.426771 0.000000
vn 0.775566 0.631266 0.000000
vn -0.095453 0.903323 -0.418207
vn 0.267454 0.903323 -0.335376
vn -0.386481 0.903323 -0.186120
vn -0.386481 0.903323 0.186120
vn -0.095453 0.903323 0.418207
vn 0.267454 0.903323 0.335376
vn 0.428962 0.903323 0.000000
vn -0.000000 1.000000 -0.000000
s 1
g pSphere6
usemtl initialShadingGroup
f 1/125/1 2/126/2 9/127/3 8/128/4
f 2/9/2 3/1/5 10/4/6 9/10/3
f 3/1/5 4/2/7 11/3/8 10/4/6
f 4/2/7 5/5/9 12/6/10 11/3/8
f 5/129/9 6/130/11 13/131/12 12/132/10
f 6/11/11 7/12/13 14/13/14 13/14/12
f 7/12/13 1/15/1 8/16/4 14/13/14
f 8/64/4 9/65/3 16/66/15 15/67/16
f 9/65/3 10/68/6 17/69/17 16/66/15
f 10/4/6 11/3/8 18/7/18 17/8/17
f 11/78/8 12/76/10 19/77/19 18/75/18
f 12/76/10 13/73/12 20/74/20 19/77/19
f 13/73/12 14/71/14 21/72/21 20/74/20
f 14/71/14 8/64/4 15/67/16 21/72/21
f 15/67/16 16/66/15 22/70/22
f 16/66/15 17/69/17 22/70/22
f 17/69/17 18/75/18 22/70/22
f 18/75/18 19/77/19 22/70/22
f 19/77/19 20/74/20 22/70/22
f 20/74/20 21/72/21 22/70/22
f 21/72/21 15/67/16 22/70/22
s 2
f 23/133/23 24/134/24 31/135/25 30/136/26
f 24/134/24 25/137/27 32/138/28 31/135/25
f 25/17/27 26/18/29 33/19/30 32/20/28
f 26/18/29 27/21/31 34/22/32 33/19/30
f 27/139/31 28/140/33 35/141/34 34/142/32
f 28/29/33 29/23/35 36/26/36 35/30/34
f 29/23/35 23/24/23 30/25/26 36/26/36
f 30/79/26 31/80/25 38/81/37 37/82/38
f 31/80/25 32/83/28 39/84/39 38/81/37
f 32/83/28 33/86/30 40/87/40 39/84/39
f 33/86/30 34/89/32 41/90/41 40/87/40
f 34/89/32 35/92/34 42/91/42 41/90/41
f 35/30/34 36/26/36 43/28/43 42/31/42
f 36/26/36 30/25/26 37/27/38 43/28/43
f 37/82/38 38/81/37 44/85/44
f 38/81/37 39/84/39 44/85/44
f 39/84/39 40/87/40 44/85/44
f 40/87/40 41/90/41 44/85/44
f 41/90/41 42/91/42 44/85/44
f 42/91/42 43/88/43 44/85/44
f 43/88/43 37/82/38 44/85/44
s 3
f 45/143/45 46/144/46 53/145/47 52/146/48
f 46/40/46 47/32/49 54/35/50 53/41/47
f 47/32/49 48/33/51 55/34/52 54/35/50
f 48/33/51 49/36/53 56/37/54 55/34/52
f 49/100/53 50/101/55 57/97/56 56/94/54
f 50/42/55 51/43/57 58/44/58 57/45/56
f 51/43/57 45/46/45 52/47/48 58/44/58
f 52/105/48 53/108/47 60/107/59 59/106/60
f 53/108/47 54/109/50 61/104/61 60/107/59
f 54/35/50 55/34/52 62/38/62 61/39/61
f 55/93/52 56/94/54 63/95/63 62/96/62
f 56/94/54 57/97/56 64/98/64 63/95/63
f 57/97/56 58/102/58 65/103/65 64/98/64
f 58/102/58 52/105/48 59/106/60 65/103/65
f 59/106/60 60/107/59 66/99/66
f 60/107/59 61/104/61 66/99/66
f 61/104/61 62/96/62 66/99/66
f 62/96/62 63/95/63 66/99/66
f 63/95/63 64/98/64 66/99/66
f 64/98/64 65/103/65 66/99/66
f 65/103/65 59/106/60 66/99/66
s 4
f 67/147/67 68/148/68 75/149/69 74/150/70
f 68/56/68 69/48/71 76/51/72 75/57/69
f 69/48/71 70/49/73 77/50/74 76/51/72
f 70/49/73 71/52/75 78/53/76 77/50/74
f 71/151/75 72/152/77 79/153/78 78/154/76
f 72/58/77 73/59/79 80/60/80 79/61/78
f 73/59/79 67/62/67 74/63/70 80/60/80
f 74/115/70 75/110/69 82/113/81 81/116/82
f 75/110/69 76/111/72 83/112/83 82/113/81
f 76/51/72 77/50/74 84/54/84 83/55/83
f 77/123/74 78/124/76 85/120/85 84/117/84
f 78/124/76 79/121/78 86/122/86 85/120/85
f 79/121/78 80/118/80 87/119/87 86/122/86
f 80/118/80 74/115/70 81/116/82 87/119/87
f 81/116/82 82/113/81 88/114/88
f 82/113/81 83/112/83 88/114/88
f 83/112/83 84/117/84 88/114/88
f 84/117/84 85/120/85 88/114/88
f 85/120/85 86/122/86 88/114/88
f 86/122/86 87/119/87 88/114/88
f 87/119/87 81/116/82 88/114/88
