# This file uses centimeters as units for non-parametric coordinates.

mtllib PlantPot.mtl
g default
v 0.434634 -0.602237 -0.231918
v 0.276240 -0.602237 -0.410708
v 0.052903 -0.602237 -0.495408
v -0.184215 -0.602237 -0.466617
v -0.380793 -0.602237 -0.330930
v -0.491796 -0.602237 -0.119430
v -0.491796 -0.602237 0.119430
v -0.380793 -0.602237 0.330929
v -0.184215 -0.602237 0.466617
v 0.052903 -0.602237 0.495408
v 0.276240 -0.602237 0.410708
v 0.434633 -0.602237 0.231918
v 0.491796 -0.602237 0.000000
v 0.594811 0.602237 -0.317389
v 0.378045 0.602237 -0.562068
v 0.072400 0.602237 -0.677984
v -0.252105 0.602237 -0.638582
v -0.521128 0.602237 -0.452889
v -0.673040 0.602237 -0.163444
v -0.673041 0.602237 0.163444
v -0.521128 0.602237 0.452889
v -0.252105 0.602237 0.638582
v 0.072399 0.602237 0.677984
v 0.378045 0.602237 0.562068
v 0.594811 0.602237 0.317389
v 0.673041 0.602237 0.000000
v -0.007754 -0.602237 0.000000
v 0.513390 0.115759 -0.273943
v 0.580911 0.115759 0.000000
v 0.513390 0.115759 0.273943
v 0.326296 0.115759 0.485129
v 0.062489 0.115759 0.585178
v -0.217595 0.115759 0.551169
v -0.449793 0.115759 0.390894
v -0.580911 0.115759 0.141070
v -0.580911 0.115759 -0.141071
v -0.449793 0.115759 -0.390895
v -0.217595 0.115759 -0.551169
v 0.062489 0.115759 -0.585178
v 0.326296 0.115759 -0.485129
v 0.570386 0.159920 -0.304356
v 0.645403 0.159920 0.000000
v 0.570386 0.159920 0.304356
v 0.362521 0.159920 0.538987
v 0.069426 0.159920 0.650144
v -0.241753 0.159920 0.612359
v -0.499729 0.159920 0.434291
v -0.645403 0.159920 0.156732
v -0.645403 0.159920 -0.156732
v -0.499729 0.159920 -0.434291
v -0.241752 0.159920 -0.612359
v 0.069427 0.159920 -0.650144
v 0.362521 0.159920 -0.538987
v 0.449261 0.602237 -0.239724
v 0.285537 0.602237 -0.424530
v 0.054683 0.602237 -0.512081
v -0.190415 0.602237 -0.482322
v -0.393608 0.602237 -0.342067
v -0.508348 0.602237 -0.123449
v -0.508348 0.602237 0.123449
v -0.393609 0.602237 0.342067
v -0.190415 0.602237 0.482322
v 0.054683 0.602237 0.512081
v 0.285537 0.602237 0.424530
v 0.449261 0.602237 0.239724
v 0.508348 0.602237 0.000000
v 0.428873 0.466372 -0.228362
v 0.272579 0.477826 -0.404409
v -0.006181 0.451513 0.000000
v 0.052202 0.483252 -0.487810
v -0.181773 0.481408 -0.459461
v -0.375745 0.472715 -0.325854
v -0.485278 0.459165 -0.117598
v -0.485278 0.443862 0.117598
v -0.375746 0.430312 0.325854
v -0.181774 0.421619 0.459461
v 0.052202 0.419775 0.487810
v 0.272579 0.425201 0.404409
v 0.428873 0.436655 0.228362
v 0.485278 0.451513 0.000000
vt 0.379200 0.267951
vt 0.379200 0.209932
vt 0.576163 0.215868
vt 0.576163 0.284400
vt 0.379200 0.144407
vt 0.576163 0.138471
vt 0.588277 0.220164
vt 0.588277 0.296305
vt 0.379200 0.305173
vt 0.576163 0.328367
vt 0.379200 0.086388
vt 0.576163 0.069938
vt 0.588277 0.134174
vt 0.709614 0.222006
vt 0.709614 0.301407
vt 0.379200 0.049166
vt 0.576163 0.025971
vt 0.588277 0.058034
vt 0.709614 0.132333
vt 0.588277 0.345153
vt 0.709614 0.352347
vt 0.709614 0.052932
vt 0.588277 0.009185
vt 0.709614 0.001992
vt 0.767260 0.356286
vt 0.830880 0.356286
vt 0.830880 0.553249
vt 0.755732 0.553249
vt 0.894501 0.356286
vt 0.906029 0.553249
vt 0.830880 0.565363
vt 0.747389 0.565363
vt 0.718214 0.356286
vt 0.697799 0.553249
vt 0.943547 0.356286
vt 0.963962 0.553249
vt 0.914372 0.565363
vt 0.830880 0.686700
vt 0.743813 0.686700
vt 0.917947 0.686700
vt 0.683024 0.565363
vt 0.676693 0.686700
vt 0.978737 0.565363
vt 0.985068 0.686700
vt 0.324869 0.692121
vt 0.324869 0.752093
vt 0.285621 0.753698
vt 0.289338 0.696569
vt 0.324869 0.819823
vt 0.281423 0.818218
vt 0.324869 0.653647
vt 0.291723 0.659918
vt 0.324869 0.879795
vt 0.277706 0.875347
vt 0.324869 0.918270
vt 0.275322 0.911999
vt 0.379673 0.704343
vt 0.379673 0.770105
vt 0.338326 0.770105
vt 0.334250 0.707460
vt 0.379673 0.835866
vt 0.342402 0.832749
vt 0.379673 0.653647
vt 0.331108 0.659166
vt 0.379673 0.886563
vt 0.345544 0.881043
vt 0.392993 0.401139
vt 0.436444 0.450185
vt 0.315087 0.513805
vt 0.452125 0.513805
vt 0.331727 0.377904
vt 0.436444 0.577426
vt 0.266680 0.385802
vt 0.392993 0.626472
vt 0.212754 0.423024
vt 0.331726 0.649707
vt 0.182303 0.481043
vt 0.266680 0.641809
vt 0.182303 0.546568
vt 0.212754 0.604587
vt 0.252738 0.850108
vt 0.209863 0.898402
vt 0.133393 0.787464
vt 0.149409 0.921281
vt 0.268211 0.787464
vt 0.085224 0.913504
vt 0.252738 0.724819
vt 0.032013 0.876853
vt 0.209863 0.676526
vt 0.001966 0.819724
vt 0.149409 0.653647
vt 0.001966 0.755204
vt 0.085224 0.661423
vt 0.032013 0.698075
vt 0.625370 0.423246
vt 0.567437 0.371922
vt 0.575779 0.356286
vt 0.640144 0.413308
vt 0.652815 0.495614
vt 0.670637 0.493711
vt 0.643486 0.572447
vt 0.660272 0.579074
vt 0.599519 0.636144
vt 0.611424 0.649843
vt 0.485331 0.572447
vt 0.529298 0.636144
vt 0.517394 0.649843
vt 0.468546 0.579074
vt 0.476002 0.495614
vt 0.458180 0.493711
vt 0.503448 0.423246
vt 0.488673 0.413308
vt 0.561381 0.371922
vt 0.553038 0.356286
vt 0.349766 0.275045
vt 0.290302 0.342166
vt 0.264926 0.304436
vt 0.309839 0.253740
vt 0.206457 0.373964
vt 0.201597 0.328453
vt 0.371226 0.187978
vt 0.326047 0.187978
vt 0.117438 0.363155
vt 0.134361 0.320290
vt 0.349766 0.100911
vt 0.309839 0.122216
vt 0.043639 0.312215
vt 0.078621 0.281815
vt 0.290302 0.033790
vt 0.264925 0.071520
vt 0.001966 0.232814
vt 0.047145 0.221843
vt 0.206457 0.001992
vt 0.201597 0.047503
vt 0.001966 0.143142
vt 0.047145 0.154113
vt 0.117438 0.012801
vt 0.134361 0.055666
vt 0.043639 0.063741
vt 0.078621 0.094141
vt 0.522365 0.850745
vt 0.461099 0.850745
vt 0.463728 0.653782
vt 0.536097 0.653782
vt 0.396052 0.850745
vt 0.386895 0.653782
vt 0.551870 0.690640
vt 0.616917 0.690640
vt 0.619547 0.887602
vt 0.542713 0.887602
vt 0.678183 0.690640
vt 0.691915 0.887602
vt 0.698532 0.775301
vt 0.698532 0.694898
vt 0.819869 0.690640
vt 0.819869 0.774485
vt 0.698532 0.860664
vt 0.819869 0.863504
vt 0.948756 0.775301
vt 0.948756 0.860664
vt 0.827418 0.863504
vt 0.827418 0.774485
vt 0.948756 0.694898
vt 0.827418 0.690640
vt 0.985068 0.867444
vt 0.985068 0.930772
vt 0.952428 0.931453
vt 0.950939 0.870998
vt 0.985068 0.998008
vt 0.951922 0.995637
vt 0.894830 0.998008
vt 0.894830 0.930772
vt 0.944884 0.931453
vt 0.944378 0.995637
vt 0.894830 0.867444
vt 0.943395 0.870998
vn 0.878750 -0.123375 -0.461062
vn 0.563868 -0.123943 -0.816512
vn 0.563496 -0.123943 -0.816768
vn 0.878631 -0.123376 -0.461288
vn 0.119861 -0.124743 -0.984923
vn 0.119319 -0.124744 -0.984988
vn -0.351561 -0.125592 -0.927702
vn -0.352041 -0.125593 -0.927520
vn -0.742399 -0.126296 -0.657947
vn -0.742640 -0.126296 -0.657674
vn -0.963102 -0.126693 -0.237450
vn -0.963134 -0.126693 -0.237322
vn -0.963103 -0.126693 0.237450
vn -0.963134 -0.126693 0.237322
vn -0.742399 -0.126296 0.657946
vn -0.742640 -0.126296 0.657674
vn -0.351562 -0.125592 0.927702
vn -0.352042 -0.125593 0.927520
vn 0.119861 -0.124743 0.984923
vn 0.119319 -0.124744 0.984988
vn 0.563867 -0.123943 0.816512
vn 0.563495 -0.123944 0.816769
vn 0.878749 -0.123376 0.461062
vn 0.878631 -0.123376 0.461288
vn 0.992386 -0.123171 0.000000
vn 0.992386 -0.123171 0.000000
vn 0.000000 -1.000000 -0.000000
vn 0.000000 -1.000000 0.000000
vn 0.000000 -1.000000 0.000000
vn 0.000000 -1.000000 -0.000000
vn 0.000000 -1.000000 0.000000
vn 0.000000 -1.000000 0.000000
vn 0.000000 -1.000000 0.000000
vn 0.000000 -1.000000 0.000000
vn 0.000000 -1.000000 0.000000
vn 0.000000 -1.000000 0.000000
vn 0.000000 -1.000000 0.000000
vn 0.000000 -1.000000 0.000000
vn 0.000000 -1.000000 0.000000
vn 0.000000 -1.000000 0.000000
vn -0.000000 0.997890 0.064926
vn -0.000000 0.997890 0.064926
vn 0.000000 0.997890 0.064926
vn 0.000000 0.997890 0.064927
vn 0.000000 0.997890 0.064927
vn 0.000000 0.997890 0.064926
vn 0.000000 0.997890 0.064926
vn 0.000000 0.997890 0.064926
vn -0.000000 0.997890 0.064927
vn -0.000000 0.997890 0.064926
vn 0.000000 0.997890 0.064926
vn 0.000000 0.997890 0.064926
vn -0.000000 0.997890 0.064926
vn 0.000000 0.997890 0.064927
vn 0.564985 -0.825101 0.000000
vn 0.499900 -0.825544 -0.261871
vn 0.499428 -0.825547 -0.262761
vn 0.564985 -0.825102 0.000000
vn 0.499901 -0.825544 0.261872
vn 0.499429 -0.825547 0.262761
vn 0.320201 -0.826763 0.462530
vn 0.318735 -0.826773 0.463524
vn 0.068423 -0.828465 0.555845
vn 0.066318 -0.828479 0.556079
vn -0.196847 -0.830250 0.521475
vn -0.198689 -0.830262 0.520757
vn -0.415175 -0.831713 0.368623
vn -0.416091 -0.831719 0.367576
vn -0.537827 -0.832532 0.132787
vn -0.537945 -0.832533 0.132302
vn -0.537828 -0.832532 -0.132787
vn -0.537946 -0.832532 -0.132301
vn -0.415176 -0.831712 -0.368625
vn -0.416092 -0.831718 -0.367577
vn -0.196847 -0.830249 -0.521476
vn -0.198689 -0.830261 -0.520758
vn 0.068423 -0.828465 -0.555845
vn 0.066318 -0.828479 -0.556079
vn 0.320201 -0.826764 -0.462529
vn 0.318735 -0.826773 -0.463523
vn 0.998054 -0.062362 0.000000
vn 0.883757 -0.062466 -0.463758
vn 0.883696 -0.062466 -0.463873
vn 0.998054 -0.062362 0.000000
vn 0.883757 -0.062467 0.463759
vn 0.883696 -0.062467 0.463874
vn 0.567039 -0.062757 0.821297
vn 0.566849 -0.062757 0.821428
vn 0.120432 -0.063167 0.990710
vn 0.120157 -0.063167 0.990743
vn -0.353766 -0.063602 0.933169
vn -0.354010 -0.063602 0.933076
vn -0.746917 -0.063963 0.661833
vn -0.747040 -0.063963 0.661695
vn -0.968933 -0.064167 0.238854
vn -0.968949 -0.064167 0.238789
vn -0.968933 -0.064167 -0.238855
vn -0.968949 -0.064167 -0.238790
vn -0.746917 -0.063963 -0.661834
vn -0.747040 -0.063963 -0.661695
vn -0.353766 -0.063602 -0.933169
vn -0.354010 -0.063602 -0.933076
vn 0.120432 -0.063167 -0.990710
vn 0.120157 -0.063167 -0.990743
vn 0.567039 -0.062757 -0.821297
vn 0.566850 -0.062757 -0.821427
vn 0.000000 1.000000 0.000000
vn 0.000000 1.000000 0.000000
vn 0.000000 1.000000 0.000000
vn 0.000000 1.000000 0.000000
vn 0.000000 1.000000 0.000000
vn 0.000000 1.000000 0.000000
vn 0.000000 1.000000 0.000000
vn 0.000000 1.000000 0.000000
vn 0.000000 1.000000 0.000000
vn 0.000000 1.000000 0.000000
vn 0.000000 1.000000 0.000000
vn 0.000000 1.000000 0.000000
vn 0.000000 1.000000 0.000000
vn 0.000000 1.000000 0.000000
vn 0.000000 1.000000 0.000000
vn 0.000000 1.000000 0.000000
vn 0.000000 1.000000 0.000000
vn 0.000000 1.000000 0.000000
vn 0.000000 1.000000 0.000000
vn 0.000000 1.000000 0.000000
vn 0.000000 1.000000 0.000000
vn 0.000000 1.000000 0.000000
vn 0.000000 1.000000 0.000000
vn 0.000000 1.000000 0.000000
vn 0.000000 1.000000 0.000000
vn 0.000000 1.000000 0.000000
vn 0.000000 1.000000 0.000000
vn 0.000000 1.000000 0.000000
vn 0.000000 1.000000 0.000000
vn 0.000000 1.000000 0.000000
vn 0.000000 1.000000 0.000000
vn 0.000000 1.000000 0.000000
vn 0.000000 1.000000 0.000000
vn 0.000000 1.000000 0.000000
vn 0.000000 1.000000 0.000000
vn 0.000000 1.000000 0.000000
vn 0.000000 1.000000 -0.000000
vn 0.000000 1.000000 -0.000000
vn 0.000000 1.000000 -0.000000
vn 0.000000 1.000000 -0.000000
vn 0.000000 1.000000 0.000000
vn 0.000000 1.000000 0.000000
vn 0.000000 1.000000 0.000000
vn 0.000000 1.000000 0.000000
vn 0.000000 1.000000 0.000000
vn 0.000000 1.000000 0.000000
vn 0.000000 1.000000 0.000000
vn 0.000000 1.000000 0.000000
vn 0.000000 1.000000 0.000000
vn 0.000000 1.000000 0.000000
vn 0.000000 1.000000 0.000000
vn 0.000000 1.000000 0.000000
vn -0.875647 0.168501 0.452602
vn -0.561017 0.186474 0.806528
vn -0.566754 0.186222 0.802565
vn -0.880020 0.168102 0.444193
vn -0.118537 0.197414 0.973127
vn -0.120735 0.197390 0.972862
vn 0.350358 0.195174 0.916055
vn 0.353416 0.195106 0.914894
vn 0.739657 0.181480 0.648053
vn 0.744631 0.181187 0.642415
vn 0.959468 0.163965 0.229207
vn 0.961666 0.163605 0.220074
vn 0.958305 0.149340 -0.243616
vn 0.956106 0.149095 -0.252253
vn 0.737427 0.139967 -0.660765
vn 0.732961 0.139863 -0.665738
vn 0.348992 0.135129 -0.927332
vn 0.345821 0.135105 -0.928522
vn -0.118228 0.133531 -0.983967
vn -0.117827 0.133531 -0.984015
vn -0.558977 0.134924 -0.818132
vn -0.555523 0.134892 -0.820487
vn -0.873404 0.140443 -0.466306
vn -0.869907 0.140304 -0.472839
vn -0.988400 0.151688 -0.007497
vn -0.988331 0.151380 -0.016931
s 1
g pCylinder22
usemtl initialShadingGroup
f 1/29/1 2/35/2 40/36/3 28/30/4
f 2/141/2 3/142/5 39/143/6 40/144/3
f 3/142/5 4/145/7 38/146/8 39/143/6
f 4/9/7 5/1/9 37/4/10 38/10/8
f 5/1/9 6/2/11 36/3/12 37/4/10
f 6/2/11 7/5/13 35/6/14 36/3/12
f 7/5/13 8/11/15 34/12/16 35/6/14
f 8/11/15 9/16/17 33/17/18 34/12/16
f 9/147/17 10/148/19 32/149/20 33/150/18
f 10/148/19 11/151/21 31/152/22 32/149/20
f 11/33/21 12/25/23 30/28/24 31/34/22
f 12/25/23 13/26/25 29/27/26 30/28/24
f 13/26/25 1/29/1 28/30/4 29/27/26
s 2
f 2/67/27 1/68/28 27/69/29
f 3/71/30 2/67/27 27/69/29
f 4/73/31 3/71/30 27/69/29
f 5/75/32 4/73/31 27/69/29
f 6/77/33 5/75/32 27/69/29
f 7/79/34 6/77/33 27/69/29
f 8/80/35 7/79/34 27/69/29
f 9/78/36 8/80/35 27/69/29
f 10/76/37 9/78/36 27/69/29
f 11/74/38 10/76/37 27/69/29
f 12/72/39 11/74/38 27/69/29
f 13/70/40 12/72/39 27/69/29
f 1/68/28 13/70/40 27/69/29
s 3
f 67/81/41 68/82/42 69/83/43
f 68/82/42 70/84/44 69/83/43
f 70/84/44 71/86/45 69/83/43
f 71/86/45 72/88/46 69/83/43
f 72/88/46 73/90/47 69/83/43
f 73/90/47 74/92/48 69/83/43
f 74/92/48 75/94/49 69/83/43
f 75/94/49 76/93/50 69/83/43
f 76/93/50 77/91/51 69/83/43
f 77/91/51 78/89/52 69/83/43
f 78/89/52 79/87/53 69/83/43
f 79/87/53 80/85/54 69/83/43
f 80/85/54 67/81/41 69/83/43
s 4
f 29/27/55 28/30/56 41/37/57 42/31/58
f 30/28/59 29/27/55 42/31/58 43/32/60
f 31/95/61 30/96/59 43/97/60 44/98/62
f 32/99/63 31/95/61 44/98/62 45/100/64
f 33/101/65 32/99/63 45/100/64 46/102/66
f 34/103/67 33/101/65 46/102/66 47/104/68
f 35/6/69 34/12/67 47/18/68 48/13/70
f 36/3/71 35/6/69 48/13/70 49/7/72
f 37/4/73 36/3/71 49/7/72 50/8/74
f 38/105/75 37/106/73 50/107/74 51/108/76
f 39/109/77 38/105/75 51/108/76 52/110/78
f 40/111/79 39/109/77 52/110/78 53/112/80
f 28/113/56 40/111/79 53/112/80 41/114/57
s 5
f 42/31/81 41/37/82 14/40/83 26/38/84
f 43/32/85 42/31/81 26/38/84 25/39/86
f 44/41/87 43/32/85 25/39/86 24/42/88
f 45/153/89 44/154/87 24/155/88 23/156/90
f 46/157/91 45/153/89 23/156/90 22/158/92
f 47/18/93 46/23/91 22/24/92 21/22/94
f 48/13/95 47/18/93 21/22/94 20/19/96
f 49/7/97 48/13/95 20/19/96 19/14/98
f 50/8/99 49/7/97 19/14/98 18/15/100
f 51/20/101 50/8/99 18/15/100 17/21/102
f 52/159/103 51/160/101 17/161/102 16/162/104
f 53/163/105 52/159/103 16/162/104 15/164/106
f 41/37/82 53/43/105 15/44/106 14/40/83
s off
f 14/115/107 15/116/108 55/117/109 54/118/110
f 15/116/111 16/119/112 56/120/113 55/117/114
f 16/119/115 17/123/116 57/124/117 56/120/118
f 17/123/119 18/127/120 58/128/121 57/124/122
f 18/127/123 19/131/124 59/132/125 58/128/126
f 19/131/127 20/135/128 60/136/129 59/132/130
f 20/135/131 21/139/132 61/140/133 60/136/134
f 21/139/135 22/137/136 62/138/137 61/140/138
f 22/137/139 23/133/140 63/134/141 62/138/142
f 23/133/143 24/129/144 64/130/145 63/134/146
f 24/129/147 25/125/148 65/126/149 64/130/150
f 25/125/151 26/121/152 66/122/153 65/126/154
f 26/121/155 14/115/156 54/118/157 66/122/158
s 6
f 54/61/159 55/65/160 68/66/161 67/62/162
f 55/165/160 56/166/163 70/167/164 68/168/161
f 56/166/163 57/169/165 71/170/166 70/167/164
f 57/51/165 58/45/167 72/48/168 71/52/166
f 58/45/167 59/46/169 73/47/170 72/48/168
f 59/46/169 60/49/171 74/50/172 73/47/170
f 60/49/171 61/53/173 75/54/174 74/50/172
f 61/53/173 62/55/175 76/56/176 75/54/174
f 62/171/175 63/172/177 77/173/178 76/174/176
f 63/172/177 64/175/179 78/176/180 77/173/178
f 64/63/179 65/57/181 79/60/182 78/64/180
f 65/57/181 66/58/183 80/59/184 79/60/182
f 66/58/183 54/61/159 67/62/162 80/59/184
g default
v 0.434634 -0.602237 -0.231918
v 0.276240 -0.602237 -0.410708
v 0.052903 -0.602237 -0.495408
v -0.184215 -0.602237 -0.466617
v -0.380793 -0.602237 -0.330930
v -0.491796 -0.602237 -0.119430
v -0.491796 -0.602237 0.119430
v -0.380793 -0.602237 0.330929
v -0.184215 -0.602237 0.466617
v 0.052903 -0.602237 0.495408
v 0.276240 -0.602237 0.410708
v 0.434633 -0.602237 0.231918
v 0.491796 -0.602237 0.000000
v 0.594811 0.602237 -0.317389
v 0.378045 0.602237 -0.562068
v 0.072400 0.602237 -0.677984
v -0.252105 0.602237 -0.638582
v -0.521128 0.602237 -0.452889
v -0.673040 0.602237 -0.163444
v -0.673041 0.602237 0.163444
v -0.521128 0.602237 0.452889
v -0.252105 0.602237 0.638582
v 0.072399 0.602237 0.677984
v 0.378045 0.602237 0.562068
v 0.594811 0.602237 0.317389
v 0.673041 0.602237 0.000000
v -0.007754 -0.602237 0.000000
v 0.513390 0.115759 -0.273943
v 0.580911 0.115759 0.000000
v 0.513390 0.115759 0.273943
v 0.326296 0.115759 0.485129
v 0.062489 0.115759 0.585178
v -0.217595 0.115759 0.551169
v -0.449793 0.115759 0.390894
v -0.580911 0.115759 0.141070
v -0.580911 0.115759 -0.141071
v -0.449793 0.115759 -0.390895
v -0.217595 0.115759 -0.551169
v 0.062489 0.115759 -0.585178
v 0.326296 0.115759 -0.485129
v 0.570386 0.159920 -0.304356
v 0.645403 0.159920 0.000000
v 0.570386 0.159920 0.304356
v 0.362521 0.159920 0.538987
v 0.069426 0.159920 0.650144
v -0.241753 0.159920 0.612359
v -0.499729 0.159920 0.434291
v -0.645403 0.159920 0.156732
v -0.645403 0.159920 -0.156732
v -0.499729 0.159920 -0.434291
v -0.241752 0.159920 -0.612359
v 0.069427 0.159920 -0.650144
v 0.362521 0.159920 -0.538987
v 0.449261 0.602237 -0.239724
v 0.285537 0.602237 -0.424530
v 0.054683 0.602237 -0.512081
v -0.190415 0.602237 -0.482322
v -0.393608 0.602237 -0.342067
v -0.508348 0.602237 -0.123449
v -0.508348 0.602237 0.123449
v -0.393609 0.602237 0.342067
v -0.190415 0.602237 0.482322
v 0.054683 0.602237 0.512081
v 0.285537 0.602237 0.424530
v 0.449261 0.602237 0.239724
v 0.508348 0.602237 0.000000
v 0.428873 0.466372 -0.228362
v 0.272579 0.477826 -0.404409
v -0.006181 0.451513 0.000000
v 0.052202 0.483252 -0.487810
v -0.181773 0.481408 -0.459461
v -0.375745 0.472715 -0.325854
v -0.485278 0.459165 -0.117598
v -0.485278 0.443862 0.117598
v -0.375746 0.430312 0.325854
v -0.181774 0.421619 0.459461
v 0.052202 0.419775 0.487810
v 0.272579 0.425201 0.404409
v 0.428873 0.436655 0.228362
v 0.485278 0.451513 0.000000
vt 0.379200 0.267951
vt 0.379200 0.209932
vt 0.576163 0.215868
vt 0.576163 0.284400
vt 0.379200 0.144407
vt 0.576163 0.138471
vt 0.588277 0.220164
vt 0.588277 0.296305
vt 0.379200 0.305173
vt 0.576163 0.328367
vt 0.379200 0.086388
vt 0.576163 0.069938
vt 0.588277 0.134174
vt 0.709614 0.222006
vt 0.709614 0.301407
vt 0.379200 0.049166
vt 0.576163 0.025971
vt 0.588277 0.058034
vt 0.709614 0.132333
vt 0.588277 0.345153
vt 0.709614 0.352347
vt 0.709614 0.052932
vt 0.588277 0.009185
vt 0.709614 0.001992
vt 0.767260 0.356286
vt 0.830880 0.356286
vt 0.830880 0.553249
vt 0.755732 0.553249
vt 0.894501 0.356286
vt 0.906029 0.553249
vt 0.830880 0.565363
vt 0.747389 0.565363
vt 0.718214 0.356286
vt 0.697799 0.553249
vt 0.943547 0.356286
vt 0.963962 0.553249
vt 0.914372 0.565363
vt 0.830880 0.686700
vt 0.743813 0.686700
vt 0.917947 0.686700
vt 0.683024 0.565363
vt 0.676693 0.686700
vt 0.978737 0.565363
vt 0.985068 0.686700
vt 0.324869 0.692121
vt 0.324869 0.752093
vt 0.285621 0.753698
vt 0.289338 0.696569
vt 0.324869 0.819823
vt 0.281423 0.818218
vt 0.324869 0.653647
vt 0.291723 0.659918
vt 0.324869 0.879795
vt 0.277706 0.875347
vt 0.324869 0.918270
vt 0.275322 0.911999
vt 0.379673 0.704343
vt 0.379673 0.770105
vt 0.338326 0.770105
vt 0.334250 0.707460
vt 0.379673 0.835866
vt 0.342402 0.832749
vt 0.379673 0.653647
vt 0.331108 0.659166
vt 0.379673 0.886563
vt 0.345544 0.881043
vt 0.392993 0.401139
vt 0.436444 0.450185
vt 0.315087 0.513805
vt 0.452125 0.513805
vt 0.331727 0.377904
vt 0.436444 0.577426
vt 0.266680 0.385802
vt 0.392993 0.626472
vt 0.212754 0.423024
vt 0.331726 0.649707
vt 0.182303 0.481043
vt 0.266680 0.641809
vt 0.182303 0.546568
vt 0.212754 0.604587
vt 0.252738 0.850108
vt 0.209863 0.898402
vt 0.133393 0.787464
vt 0.149409 0.921281
vt 0.268211 0.787464
vt 0.085224 0.913504
vt 0.252738 0.724819
vt 0.032013 0.876853
vt 0.209863 0.676526
vt 0.001966 0.819724
vt 0.149409 0.653647
vt 0.001966 0.755204
vt 0.085224 0.661423
vt 0.032013 0.698075
vt 0.625370 0.423246
vt 0.567437 0.371922
vt 0.575779 0.356286
vt 0.640144 0.413308
vt 0.652815 0.495614
vt 0.670637 0.493711
vt 0.643486 0.572447
vt 0.660272 0.579074
vt 0.599519 0.636144
vt 0.611424 0.649843
vt 0.485331 0.572447
vt 0.529298 0.636144
vt 0.517394 0.649843
vt 0.468546 0.579074
vt 0.476002 0.495614
vt 0.458180 0.493711
vt 0.503448 0.423246
vt 0.488673 0.413308
vt 0.561381 0.371922
vt 0.553038 0.356286
vt 0.349766 0.275045
vt 0.290302 0.342166
vt 0.264926 0.304436
vt 0.309839 0.253740
vt 0.206457 0.373964
vt 0.201597 0.328453
vt 0.371226 0.187978
vt 0.326047 0.187978
vt 0.117438 0.363155
vt 0.134361 0.320290
vt 0.349766 0.100911
vt 0.309839 0.122216
vt 0.043639 0.312215
vt 0.078621 0.281815
vt 0.290302 0.033790
vt 0.264925 0.071520
vt 0.001966 0.232814
vt 0.047145 0.221843
vt 0.206457 0.001992
vt 0.201597 0.047503
vt 0.001966 0.143142
vt 0.047145 0.154113
vt 0.117438 0.012801
vt 0.134361 0.055666
vt 0.043639 0.063741
vt 0.078621 0.094141
vt 0.522365 0.850745
vt 0.461099 0.850745
vt 0.463728 0.653782
vt 0.536097 0.653782
vt 0.396052 0.850745
vt 0.386895 0.653782
vt 0.551870 0.690640
vt 0.616917 0.690640
vt 0.619547 0.887602
vt 0.542713 0.887602
vt 0.678183 0.690640
vt 0.691915 0.887602
vt 0.698532 0.775301
vt 0.698532 0.694898
vt 0.819869 0.690640
vt 0.819869 0.774485
vt 0.698532 0.860664
vt 0.819869 0.863504
vt 0.948756 0.775301
vt 0.948756 0.860664
vt 0.827418 0.863504
vt 0.827418 0.774485
vt 0.948756 0.694898
vt 0.827418 0.690640
vt 0.985068 0.867444
vt 0.985068 0.930772
vt 0.952428 0.931453
vt 0.950939 0.870998
vt 0.985068 0.998008
vt 0.951922 0.995637
vt 0.894830 0.998008
vt 0.894830 0.930772
vt 0.944884 0.931453
vt 0.944378 0.995637
vt 0.894830 0.867444
vt 0.943395 0.870998
vn 0.878750 -0.123375 -0.461062
vn 0.563868 -0.123943 -0.816512
vn 0.563496 -0.123943 -0.816768
vn 0.878631 -0.123376 -0.461288
vn 0.119861 -0.124743 -0.984923
vn 0.119319 -0.124744 -0.984988
vn -0.351561 -0.125592 -0.927702
vn -0.352041 -0.125593 -0.927520
vn -0.742399 -0.126296 -0.657947
vn -0.742640 -0.126296 -0.657674
vn -0.963102 -0.126693 -0.237450
vn -0.963134 -0.126693 -0.237322
vn -0.963103 -0.126693 0.237450
vn -0.963134 -0.126693 0.237322
vn -0.742399 -0.126296 0.657946
vn -0.742640 -0.126296 0.657674
vn -0.351562 -0.125592 0.927702
vn -0.352042 -0.125593 0.927520
vn 0.119861 -0.124743 0.984923
vn 0.119319 -0.124744 0.984988
vn 0.563867 -0.123943 0.816512
vn 0.563495 -0.123944 0.816769
vn 0.878749 -0.123376 0.461062
vn 0.878631 -0.123376 0.461288
vn 0.992386 -0.123171 0.000000
vn 0.992386 -0.123171 0.000000
vn 0.000000 -1.000000 -0.000000
vn 0.000000 -1.000000 0.000000
vn 0.000000 -1.000000 0.000000
vn 0.000000 -1.000000 -0.000000
vn 0.000000 -1.000000 0.000000
vn 0.000000 -1.000000 0.000000
vn 0.000000 -1.000000 0.000000
vn 0.000000 -1.000000 0.000000
vn 0.000000 -1.000000 0.000000
vn 0.000000 -1.000000 0.000000
vn 0.000000 -1.000000 0.000000
vn 0.000000 -1.000000 0.000000
vn 0.000000 -1.000000 0.000000
vn 0.000000 -1.000000 0.000000
vn -0.000000 0.997890 0.064926
vn -0.000000 0.997890 0.064926
vn 0.000000 0.997890 0.064926
vn 0.000000 0.997890 0.064927
vn 0.000000 0.997890 0.064927
vn 0.000000 0.997890 0.064926
vn 0.000000 0.997890 0.064926
vn 0.000000 0.997890 0.064926
vn -0.000000 0.997890 0.064927
vn -0.000000 0.997890 0.064926
vn 0.000000 0.997890 0.064926
vn 0.000000 0.997890 0.064926
vn -0.000000 0.997890 0.064926
vn 0.000000 0.997890 0.064927
vn 0.564985 -0.825101 0.000000
vn 0.499900 -0.825544 -0.261871
vn 0.499428 -0.825547 -0.262761
vn 0.564985 -0.825102 0.000000
vn 0.499901 -0.825544 0.261872
vn 0.499429 -0.825547 0.262761
vn 0.320201 -0.826763 0.462530
vn 0.318735 -0.826773 0.463524
vn 0.068423 -0.828465 0.555845
vn 0.066318 -0.828479 0.556079
vn -0.196847 -0.830250 0.521475
vn -0.198689 -0.830262 0.520757
vn -0.415175 -0.831713 0.368623
vn -0.416091 -0.831719 0.367576
vn -0.537827 -0.832532 0.132787
vn -0.537945 -0.832533 0.132302
vn -0.537828 -0.832532 -0.132787
vn -0.537946 -0.832532 -0.132301
vn -0.415176 -0.831712 -0.368625
vn -0.416092 -0.831718 -0.367577
vn -0.196847 -0.830249 -0.521476
vn -0.198689 -0.830261 -0.520758
vn 0.068423 -0.828465 -0.555845
vn 0.066318 -0.828479 -0.556079
vn 0.320201 -0.826764 -0.462529
vn 0.318735 -0.826773 -0.463523
vn 0.998054 -0.062362 0.000000
vn 0.883757 -0.062466 -0.463758
vn 0.883696 -0.062466 -0.463873
vn 0.998054 -0.062362 0.000000
vn 0.883757 -0.062467 0.463759
vn 0.883696 -0.062467 0.463874
vn 0.567039 -0.062757 0.821297
vn 0.566849 -0.062757 0.821428
vn 0.120432 -0.063167 0.990710
vn 0.120157 -0.063167 0.990743
vn -0.353766 -0.063602 0.933169
vn -0.354010 -0.063602 0.933076
vn -0.746917 -0.063963 0.661833
vn -0.747040 -0.063963 0.661695
vn -0.968933 -0.064167 0.238854
vn -0.968949 -0.064167 0.238789
vn -0.968933 -0.064167 -0.238855
vn -0.968949 -0.064167 -0.238790
vn -0.746917 -0.063963 -0.661834
vn -0.747040 -0.063963 -0.661695
vn -0.353766 -0.063602 -0.933169
vn -0.354010 -0.063602 -0.933076
vn 0.120432 -0.063167 -0.990710
vn 0.120157 -0.063167 -0.990743
vn 0.567039 -0.062757 -0.821297
vn 0.566850 -0.062757 -0.821427
vn 0.000000 1.000000 0.000000
vn 0.000000 1.000000 0.000000
vn 0.000000 1.000000 0.000000
vn 0.000000 1.000000 0.000000
vn 0.000000 1.000000 0.000000
vn 0.000000 1.000000 0.000000
vn 0.000000 1.000000 0.000000
vn 0.000000 1.000000 0.000000
vn 0.000000 1.000000 0.000000
vn 0.000000 1.000000 0.000000
vn 0.000000 1.000000 0.000000
vn 0.000000 1.000000 0.000000
vn 0.000000 1.000000 0.000000
vn 0.000000 1.000000 0.000000
vn 0.000000 1.000000 0.000000
vn 0.000000 1.000000 0.000000
vn 0.000000 1.000000 0.000000
vn 0.000000 1.000000 0.000000
vn 0.000000 1.000000 0.000000
vn 0.000000 1.000000 0.000000
vn 0.000000 1.000000 0.000000
vn 0.000000 1.000000 0.000000
vn 0.000000 1.000000 0.000000
vn 0.000000 1.000000 0.000000
vn 0.000000 1.000000 0.000000
vn 0.000000 1.000000 0.000000
vn 0.000000 1.000000 0.000000
vn 0.000000 1.000000 0.000000
vn 0.000000 1.000000 0.000000
vn 0.000000 1.000000 0.000000
vn 0.000000 1.000000 0.000000
vn 0.000000 1.000000 0.000000
vn 0.000000 1.000000 0.000000
vn 0.000000 1.000000 0.000000
vn 0.000000 1.000000 0.000000
vn 0.000000 1.000000 0.000000
vn 0.000000 1.000000 -0.000000
vn 0.000000 1.000000 -0.000000
vn 0.000000 1.000000 -0.000000
vn 0.000000 1.000000 -0.000000
vn 0.000000 1.000000 0.000000
vn 0.000000 1.000000 0.000000
vn 0.000000 1.000000 0.000000
vn 0.000000 1.000000 0.000000
vn 0.000000 1.000000 0.000000
vn 0.000000 1.000000 0.000000
vn 0.000000 1.000000 0.000000
vn 0.000000 1.000000 0.000000
vn 0.000000 1.000000 0.000000
vn 0.000000 1.000000 0.000000
vn 0.000000 1.000000 0.000000
vn 0.000000 1.000000 0.000000
vn -0.875647 0.168501 0.452602
vn -0.561017 0.186474 0.806528
vn -0.566754 0.186222 0.802565
vn -0.880020 0.168102 0.444193
vn -0.118537 0.197414 0.973127
vn -0.120735 0.197390 0.972862
vn 0.350358 0.195174 0.916055
vn 0.353416 0.195106 0.914894
vn 0.739657 0.181480 0.648053
vn 0.744631 0.181187 0.642415
vn 0.959468 0.163965 0.229207
vn 0.961666 0.163605 0.220074
vn 0.958305 0.149340 -0.243616
vn 0.956106 0.149095 -0.252253
vn 0.737427 0.139967 -0.660765
vn 0.732961 0.139863 -0.665738
vn 0.348992 0.135129 -0.927332
vn 0.345821 0.135105 -0.928522
vn -0.118228 0.133531 -0.983967
vn -0.117827 0.133531 -0.984015
vn -0.558977 0.134924 -0.818132
vn -0.555523 0.134892 -0.820487
vn -0.873404 0.140443 -0.466306
vn -0.869907 0.140304 -0.472839
vn -0.988400 0.151688 -0.007497
vn -0.988331 0.151380 -0.016931
s 1
g pCylinder22
f 81/205/185 82/211/186 120/212/187 108/206/188
f 82/317/186 83/318/189 119/319/190 120/320/187
f 83/318/189 84/321/191 118/322/192 119/319/190
f 84/185/191 85/177/193 117/180/194 118/186/192
f 85/177/193 86/178/195 116/179/196 117/180/194
f 86/178/195 87/181/197 115/182/198 116/179/196
f 87/181/197 88/187/199 114/188/200 115/182/198
f 88/187/199 89/192/201 113/193/202 114/188/200
f 89/323/201 90/324/203 112/325/204 113/326/202
f 90/324/203 91/327/205 111/328/206 112/325/204
f 91/209/205 92/201/207 110/204/208 111/210/206
f 92/201/207 93/202/209 109/203/210 110/204/208
f 93/202/209 81/205/185 108/206/188 109/203/210
s 2
f 82/243/211 81/244/212 107/245/213
f 83/247/214 82/243/211 107/245/213
f 84/249/215 83/247/214 107/245/213
f 85/251/216 84/249/215 107/245/213
f 86/253/217 85/251/216 107/245/213
f 87/255/218 86/253/217 107/245/213
f 88/256/219 87/255/218 107/245/213
f 89/254/220 88/256/219 107/245/213
f 90/252/221 89/254/220 107/245/213
f 91/250/222 90/252/221 107/245/213
f 92/248/223 91/250/222 107/245/213
f 93/246/224 92/248/223 107/245/213
f 81/244/212 93/246/224 107/245/213
s 3
f 147/257/225 148/258/226 149/259/227
f 148/258/226 150/260/228 149/259/227
f 150/260/228 151/262/229 149/259/227
f 151/262/229 152/264/230 149/259/227
f 152/264/230 153/266/231 149/259/227
f 153/266/231 154/268/232 149/259/227
f 154/268/232 155/270/233 149/259/227
f 155/270/233 156/269/234 149/259/227
f 156/269/234 157/267/235 149/259/227
f 157/267/235 158/265/236 149/259/227
f 158/265/236 159/263/237 149/259/227
f 159/263/237 160/261/238 149/259/227
f 160/261/238 147/257/225 149/259/227
s 4
f 109/203/239 108/206/240 121/213/241 122/207/242
f 110/204/243 109/203/239 122/207/242 123/208/244
f 111/271/245 110/272/243 123/273/244 124/274/246
f 112/275/247 111/271/245 124/274/246 125/276/248
f 113/277/249 112/275/247 125/276/248 126/278/250
f 114/279/251 113/277/249 126/278/250 127/280/252
f 115/182/253 114/188/251 127/194/252 128/189/254
f 116/179/255 115/182/253 128/189/254 129/183/256
f 117/180/257 116/179/255 129/183/256 130/184/258
f 118/281/259 117/282/257 130/283/258 131/284/260
f 119/285/261 118/281/259 131/284/260 132/286/262
f 120/287/263 119/285/261 132/286/262 133/288/264
f 108/289/240 120/287/263 133/288/264 121/290/241
s 5
f 122/207/265 121/213/266 94/216/267 106/214/268
f 123/208/269 122/207/265 106/214/268 105/215/270
f 124/217/271 123/208/269 105/215/270 104/218/272
f 125/329/273 124/330/271 104/331/272 103/332/274
f 126/333/275 125/329/273 103/332/274 102/334/276
f 127/194/277 126/199/275 102/200/276 101/198/278
f 128/189/279 127/194/277 101/198/278 100/195/280
f 129/183/281 128/189/279 100/195/280 99/190/282
f 130/184/283 129/183/281 99/190/282 98/191/284
f 131/196/285 130/184/283 98/191/284 97/197/286
f 132/335/287 131/336/285 97/337/286 96/338/288
f 133/339/289 132/335/287 96/338/288 95/340/290
f 121/213/266 133/219/289 95/220/290 94/216/267
s off
f 94/291/291 95/292/292 135/293/293 134/294/294
f 95/292/295 96/295/296 136/296/297 135/293/298
f 96/295/299 97/299/300 137/300/301 136/296/302
f 97/299/303 98/303/304 138/304/305 137/300/306
f 98/303/307 99/307/308 139/308/309 138/304/310
f 99/307/311 100/311/312 140/312/313 139/308/314
f 100/311/315 101/315/316 141/316/317 140/312/318
f 101/315/319 102/313/320 142/314/321 141/316/322
f 102/313/323 103/309/324 143/310/325 142/314/326
f 103/309/327 104/305/328 144/306/329 143/310/330
f 104/305/331 105/301/332 145/302/333 144/306/334
f 105/301/335 106/297/336 146/298/337 145/302/338
f 106/297/339 94/291/340 134/294/341 146/298/342
s 6
f 134/237/343 135/241/344 148/242/345 147/238/346
f 135/341/344 136/342/347 150/343/348 148/344/345
f 136/342/347 137/345/349 151/346/350 150/343/348
f 137/227/349 138/221/351 152/224/352 151/228/350
f 138/221/351 139/222/353 153/223/354 152/224/352
f 139/222/353 140/225/355 154/226/356 153/223/354
f 140/225/355 141/229/357 155/230/358 154/226/356
f 141/229/357 142/231/359 156/232/360 155/230/358
f 142/347/359 143/348/361 157/349/362 156/350/360
f 143/348/361 144/351/363 158/352/364 157/349/362
f 144/239/363 145/233/365 159/236/366 158/240/364
f 145/233/365 146/234/367 160/235/368 159/236/366
f 146/234/367 134/237/343 147/238/346 160/235/368
