# This file uses centimeters as units for non-parametric coordinates.

mtllib StalagmiteSmall.mtl
g default
v -0.068129 -1.679857 -0.084143
v 0.071485 -1.712914 -0.084143
v -0.283467 1.683709 0.356684
v 0.283467 1.639845 0.356684
v -0.283467 1.905479 -0.188809
v 0.283467 1.861615 -0.188809
v -0.068129 -1.576212 -0.172719
v 0.071485 -1.609269 -0.172719
v -0.379865 1.303725 0.461246
v -0.379865 1.357188 -0.461246
v 0.379865 1.161103 -0.461246
v 0.379865 1.107640 0.461246
v -0.275198 1.265954 0.311274
v -0.272596 1.273223 -0.356380
v 0.273198 0.936521 -0.356380
v 0.274555 0.929075 0.311274
v -0.254402 0.382800 0.149347
v -0.239764 0.437756 -0.272215
v 0.233525 0.233090 -0.272215
v 0.248442 0.178175 0.149347
v -0.171832 -0.436769 0.055741
v -0.172805 -0.354494 -0.227671
v 0.165890 -0.480086 -0.227671
v 0.172669 -0.561261 0.055741
v -0.308741 0.135535 -0.318621
v -0.305507 0.051967 0.179866
v 0.292685 -0.068117 0.179866
v 0.250657 0.009031 -0.318621
v -0.330460 1.324988 -0.435583
v 0.330460 1.034119 -0.435583
v 0.000405 1.106098 -0.467656
v 0.365172 0.876666 -0.022553
v 0.330460 1.034119 0.403437
v -0.000425 1.096288 0.422549
v -0.328427 0.444386 -0.061434
v -0.249691 0.851261 0.212926
v -0.239285 0.880337 -0.296911
v 0.241692 0.593097 -0.296911
v -0.003143 0.344579 -0.342475
v 0.322328 0.171525 -0.061434
v 0.247118 0.563315 0.212926
v -0.002956 0.271332 0.219608
v -0.403590 0.114300 -0.069378
v -0.289791 0.162460 0.161494
v -0.283274 0.236904 -0.297330
v 0.246278 0.085743 -0.297330
v -0.032814 0.085676 -0.401702
v 0.368137 -0.050092 -0.069378
v 0.278819 0.014991 0.161494
v -0.002639 -0.021468 0.262947
v -0.251200 -0.086953 0.134964
v -0.255090 -0.008597 -0.282455
v 0.244479 -0.213029 0.134964
v 0.217365 -0.139070 -0.282455
v 0.001678 -1.891951 -0.089646
v 0.115723 -1.254332 -0.028847
v 0.001064 -0.512636 0.102977
v -0.112367 -1.179954 -0.028847
v -0.000000 1.677599 0.437908
v 0.379267 1.839359 0.096439
v 0.000000 2.034016 -0.245031
v -0.379267 1.872257 0.096439
v -0.004103 -0.403669 -0.274906
v 0.115723 -1.135538 -0.193112
v 0.001678 -1.737946 -0.179431
v -0.112367 -1.061160 -0.193112
v 0.082714 -1.827345 -0.134539
v -0.079358 -1.802552 -0.134539
v 0.226213 -0.541513 -0.085965
v -0.229251 -0.374791 -0.085965
v -0.506486 1.363137 -0.000000
v -0.387800 1.477525 0.456533
v -0.387800 1.691376 -0.360095
v 0.387800 1.592682 -0.360095
v 0.000000 1.268055 -0.614995
v 0.506486 1.101690 -0.000000
v 0.387800 1.378831 0.456533
v -0.000000 1.196772 0.614995
v -0.365193 1.325720 -0.022553
v -0.330460 1.324988 0.403437
v 0.001678 -1.236942 -0.001470
v 0.000000 1.962709 0.112512
v 0.001678 -1.078551 -0.220489
v 0.001678 -2.034016 -0.142392
v 0.153738 -1.207332 -0.110980
v -0.150383 -1.108160 -0.110980
v -0.517066 1.600900 0.048219
v 0.000000 1.677671 -0.496199
v 0.517066 1.469308 0.048219
v -0.000000 1.392537 0.592638
v -0.440613 1.373466 -0.016073
v 0.000000 1.179554 -0.575420
v 0.440613 0.985641 -0.016073
v -0.000000 1.179553 0.543273
v -0.325970 0.913732 -0.041993
v 0.001619 0.741622 -0.381884
v 0.325887 0.530274 -0.041993
v -0.001702 0.702383 0.297898
v -0.378046 0.224568 -0.067918
v -0.020667 0.173423 -0.373801
v 0.354062 0.025481 -0.067918
v -0.003317 0.076626 0.237965
v -0.333823 -0.026396 -0.073746
v -0.000777 -0.162683 0.204533
v 0.311600 -0.197429 -0.073746
v -0.021446 -0.061141 -0.352024
vt 0.122107 0.072780
vt 0.133217 0.047554
vt 0.128023 0.184238
vt 0.109916 0.173877
vt 0.134948 0.001992
vt 0.123320 0.033311
vt 0.141633 0.095629
vt 0.146129 0.200065
vt 0.122508 0.331020
vt 0.091269 0.326667
vt 0.153748 0.344562
vt 0.119814 0.406875
vt 0.073804 0.403436
vt 0.165825 0.419741
vt 0.118852 0.439356
vt 0.063905 0.435383
vt 0.173798 0.452390
vt 0.118530 0.456017
vt 0.067955 0.453704
vt 0.169105 0.469302
vt 0.117100 0.488213
vt 0.070633 0.489679
vt 0.163568 0.501785
vt 0.112814 0.567300
vt 0.056617 0.574584
vt 0.169012 0.581150
vt 0.108529 0.643664
vt 0.034935 0.655218
vt 0.182122 0.656859
vt 0.107100 0.667688
vt 0.014618 0.678375
vt 0.199583 0.678375
vt 0.103557 0.693271
vt 0.001873 0.694583
vt 0.205241 0.706369
vt 0.092927 0.774314
vt 0.002912 0.754368
vt 0.182941 0.801512
vt 0.082297 0.855893
vt 0.024925 0.811910
vt 0.145181 0.860800
vt 0.486000 0.053019
vt 0.497110 0.080068
vt 0.509300 0.190274
vt 0.491193 0.206101
vt 0.484268 0.001992
vt 0.495896 0.033311
vt 0.527948 0.354112
vt 0.496708 0.367775
vt 0.477583 0.102917
vt 0.473087 0.216462
vt 0.545412 0.431230
vt 0.499402 0.444580
vt 0.465468 0.372249
vt 0.555311 0.461856
vt 0.500365 0.475597
vt 0.453391 0.448504
vt 0.551261 0.486214
vt 0.500686 0.499906
vt 0.445418 0.480279
vt 0.548583 0.534789
vt 0.502116 0.548366
vt 0.450112 0.502626
vt 0.562600 0.638063
vt 0.506402 0.651835
vt 0.455648 0.546904
vt 0.584281 0.729484
vt 0.510687 0.742660
vt 0.450204 0.644473
vt 0.604598 0.742498
vt 0.512116 0.753185
vt 0.437094 0.731086
vt 0.608812 0.692080
vt 0.635426 0.710437
vt 0.419633 0.742498
vt 0.388805 0.710437
vt 0.412563 0.694243
vt 0.439800 0.960306
vt 0.441111 0.858623
vt 0.493527 0.847993
vt 0.513473 0.938007
vt 0.428014 0.756939
vt 0.466329 0.757978
vt 0.553349 0.837363
vt 0.560673 0.900246
vt 0.511783 0.779990
vt 0.651935 0.828674
vt 0.735546 0.832218
vt 0.714427 0.895101
vt 0.651935 0.907496
vt 0.651935 0.756939
vt 0.714427 0.774846
vt 0.737427 0.932862
vt 0.651935 0.962867
vt 0.568324 0.832218
vt 0.589444 0.895101
vt 0.589444 0.774846
vt 0.566443 0.932862
vt 0.757719 0.833954
vt 0.782003 0.926436
vt 0.771112 0.939181
vt 0.743197 0.837497
vt 0.854854 0.957264
vt 0.854854 0.973075
vt 0.782003 0.741471
vt 0.771112 0.735813
vt 0.927706 0.926436
vt 0.938597 0.939181
vt 0.854854 0.701919
vt 0.854854 0.710643
vt 0.854761 0.930650
vt 0.915381 0.906119
vt 0.694081 0.048749
vt 0.709470 0.001992
vt 0.709470 0.146392
vt 0.684329 0.158955
vt 0.724860 0.041462
vt 0.734612 0.142558
vt 0.709335 0.306068
vt 0.671219 0.322793
vt 0.747166 0.295348
vt 0.708929 0.383216
vt 0.653722 0.399911
vt 0.762997 0.372117
vt 0.708519 0.414348
vt 0.641750 0.430537
vt 0.773624 0.404064
vt 0.708369 0.435973
vt 0.645215 0.454895
vt 0.770567 0.422385
vt 0.708449 0.478897
vt 0.653017 0.503470
vt 0.763871 0.458360
vt 0.708725 0.573924
vt 0.654055 0.606744
vt 0.763579 0.543265
vt 0.709007 0.660762
vt 0.648432 0.698165
vt 0.769627 0.623899
vt 0.258408 0.453012
vt 0.295599 0.463853
vt 0.296873 0.612634
vt 0.271731 0.608800
vt 0.240267 0.376758
vt 0.291775 0.388342
vt 0.333074 0.480700
vt 0.322015 0.625197
vt 0.296873 0.758000
vt 0.281484 0.722345
vt 0.228440 0.344983
vt 0.289269 0.355975
vt 0.344422 0.405522
vt 0.312262 0.729633
vt 0.296873 0.823270
vt 0.279008 0.772243
vt 0.234054 0.322636
vt 0.291947 0.336631
vt 0.351761 0.372872
vt 0.314738 0.777708
vt 0.243646 0.278358
vt 0.295810 0.298899
vt 0.350796 0.355960
vt 0.243752 0.180789
vt 0.296860 0.211369
vt 0.347985 0.323477
vt 0.236408 0.094176
vt 0.296592 0.131019
vt 0.349785 0.244112
vt 0.356731 0.168403
vt 0.296503 0.114825
vt 0.369354 0.146887
vt 0.296503 0.095315
vt 0.380246 0.118893
vt 0.296503 0.005013
vt 0.381995 0.023750
vt 0.211011 0.001992
vt 0.212760 0.075665
vt 0.338475 0.996259
vt 0.314896 0.912516
vt 0.358054 0.912516
vt 0.376790 0.998008
vt 0.295247 0.828773
vt 0.355032 0.827024
vt 0.420897 0.912516
vt 0.422244 0.975007
vt 0.412574 0.850025
vn -0.626010 -0.138107 0.767488
vn -0.051194 -0.263880 0.963196
vn -0.028084 -0.139069 0.989884
vn -0.602650 -0.137693 0.786037
vn 0.574324 -0.149336 0.804892
vn 0.577940 -0.145396 0.803022
vn 0.602643 -0.205542 0.771087
vn -0.068594 -0.198317 0.977735
vn -0.684429 -0.213769 0.697037
vn -0.412008 0.609567 0.677258
vn 0.052756 0.632059 0.773123
vn 0.053229 0.913503 0.403336
vn -0.596237 0.751842 0.281487
vn 0.522762 0.541479 0.658423
vn 0.696353 0.673255 0.248635
vn 0.632814 0.688636 -0.354016
vn 0.065206 0.905000 -0.420384
vn -0.530517 0.778868 -0.334539
vn -0.642594 -0.180264 -0.744700
vn -0.047626 -0.139003 -0.989146
vn -0.008682 -0.071485 -0.997404
vn -0.618566 -0.086678 -0.780938
vn 0.568547 -0.145300 -0.809717
vn 0.607841 -0.084583 -0.789541
vn 0.518861 -0.080631 -0.851048
vn -0.022812 -0.112669 -0.993371
vn -0.551704 -0.076167 -0.830555
vn -0.072021 -0.725094 -0.684874
vn -0.917434 -0.244063 -0.314242
vn 0.899991 -0.268225 -0.343616
vn 0.993127 -0.115291 -0.020156
vn 0.982955 -0.167820 -0.075073
vn -0.993871 -0.110050 -0.010460
vn -0.978783 -0.197684 -0.053901
vn -0.628199 0.086113 -0.773273
vn -0.975241 -0.200210 -0.093916
vn -0.970710 0.237433 0.036707
vn -0.677868 0.371424 -0.634459
vn -0.728913 -0.260977 0.632912
vn -0.689650 0.241521 0.682679
vn 0.069757 0.420703 -0.904512
vn 0.742342 0.295105 -0.601532
vn 0.757424 0.013516 -0.652784
vn 0.101115 0.149135 -0.983633
vn 0.787059 -0.197585 0.584379
vn 0.989923 -0.134060 -0.045613
vn 0.986236 0.164134 0.019942
vn 0.752634 0.175895 0.634510
vn 0.061623 -0.188491 0.980140
vn 0.057153 0.276110 0.959425
vn -0.797879 -0.399058 -0.451820
vn -0.943976 -0.330013 -0.001318
vn -0.316804 -0.947768 -0.037039
vn -0.474628 -0.812063 -0.339532
vn -0.789666 -0.418171 0.448955
vn -0.297669 -0.954151 0.031452
vn -0.143271 -0.622102 -0.769716
vn 0.545969 -0.580759 -0.603851
vn 0.584474 -0.380883 -0.716463
vn -0.276223 -0.420372 -0.864285
vn 0.536656 -0.433380 0.724004
vn 0.958046 -0.286613 0.000157
vn 0.831035 -0.555397 -0.030259
vn 0.434814 -0.753752 0.492743
vn -0.299055 -0.463051 0.834356
vn -0.268719 -0.870880 0.411532
vn -0.680523 0.036731 -0.731805
vn -0.998483 0.054648 -0.006756
vn -0.997541 -0.068571 -0.014525
vn -0.756786 -0.105638 -0.645071
vn -0.678315 -0.023666 0.734390
vn -0.765272 -0.150778 0.625800
vn -0.086496 -0.146711 -0.985391
vn 0.687402 -0.116849 -0.716815
vn 0.705776 0.029116 -0.707836
vn 0.005709 0.001689 -0.999982
vn 0.674773 -0.014066 0.737891
vn 0.998828 0.046407 -0.013776
vn 0.996674 -0.080652 -0.011652
vn 0.656028 -0.179461 0.733090
vn -0.034464 -0.075607 0.996542
vn -0.128635 -0.222303 0.966455
vn -0.684596 -0.083507 -0.724123
vn -0.990811 -0.134120 -0.017476
vn -0.973342 0.227390 0.029988
vn -0.631003 0.254849 -0.732726
vn -0.674328 -0.152579 0.722496
vn -0.598482 0.174368 0.781931
vn 0.049667 0.217573 -0.974780
vn 0.670690 0.206857 -0.712309
vn 0.580598 -0.127565 -0.804135
vn -0.047183 -0.081580 -0.995549
vn 0.635452 -0.187741 0.748969
vn 0.978955 -0.176385 -0.102644
vn 0.980338 0.195418 -0.027384
vn 0.649821 0.202569 0.732597
vn -0.040499 -0.141948 0.989045
vn 0.027644 0.153495 0.987763
vn -0.934224 -0.350551 -0.065873
vn -0.646780 -0.323938 -0.690463
vn -0.685017 -0.361598 0.632455
vn -0.087470 -0.318764 0.943789
vn 0.595214 -0.338705 0.728698
vn 0.952201 -0.285122 -0.109628
vn 0.544549 -0.258863 -0.797783
vn -0.077469 -0.258472 -0.962907
s 1
g pCube23
usemtl initialShadingGroup
f 1/113/1 55/114/2 81/115/3 58/116/4
f 55/114/2 2/117/5 56/118/6 81/115/3
f 81/115/3 56/118/6 24/121/7 57/119/8
f 58/116/4 81/115/3 57/119/8 21/120/9
f 3/97/10 59/91/11 82/87/12 62/95/13
f 59/91/11 4/92/14 60/88/15 82/87/12
f 82/87/12 60/88/15 6/89/16 61/90/17
f 62/95/13 82/87/12 61/90/17 5/96/18
f 22/140/19 63/141/20 83/142/21 66/143/22
f 63/141/20 23/146/23 64/147/24 83/142/21
f 83/142/21 64/147/24 8/153/25 65/148/26
f 66/143/22 83/142/21 65/148/26 7/149/27
f 7/149/27 65/148/26 84/154/28 68/155/29
f 65/148/26 8/153/25 67/159/30 84/154/28
f 84/5/28 67/2/30 2/1/5 55/6/2
f 68/42/29 84/46/28 55/47/2 1/43/1
f 2/1/5 67/2/30 85/3/31 56/4/6
f 67/2/30 8/7/25 64/8/24 85/3/31
f 85/3/31 64/8/24 23/11/23 69/9/32
f 56/4/6 85/3/31 69/9/32 24/10/7
f 7/50/27 68/42/29 86/45/33 66/51/22
f 68/42/29 1/43/1 58/44/4 86/45/33
f 86/45/33 58/44/4 21/48/9 70/49/34
f 66/51/22 86/45/33 70/49/34 22/54/19
f 10/78/35 71/79/36 87/80/37 73/81/38
f 71/79/36 9/82/39 72/83/40 87/80/37
f 87/80/37 72/83/40 3/86/10 62/84/13
f 73/81/38 87/80/37 62/84/13 5/85/18
f 5/96/18 61/90/17 88/94/41 73/98/38
f 61/90/17 6/89/16 74/93/42 88/94/41
f 88/174/41 74/175/42 11/173/43 75/172/44
f 73/176/38 88/174/41 75/172/44 10/177/35
f 12/34/45 76/33/46 89/36/47 77/37/48
f 76/33/46 11/35/43 74/38/42 89/36/47
f 89/36/47 74/38/42 6/41/16 60/39/15
f 77/37/48 89/36/47 60/39/15 4/40/14
f 9/178/39 78/179/49 90/180/50 72/181/40
f 78/179/49 12/182/45 77/183/48 90/180/50
f 90/180/50 77/183/48 4/186/14 59/184/11
f 72/181/40 90/180/50 59/184/11 3/185/10
f 14/72/51 79/68/52 91/71/53 29/75/54
f 79/68/52 13/67/55 80/70/56 91/71/53
f 91/99/53 80/100/56 9/101/39 71/102/36
f 29/105/54 91/99/53 71/102/36 10/106/35
f 10/106/35 75/109/44 92/110/57 29/105/54
f 75/172/44 11/173/43 30/171/58 92/170/57
f 92/170/57 30/171/58 15/169/59 31/167/60
f 29/75/54 92/76/57 31/77/60 14/72/51
f 16/28/61 32/27/62 93/30/63 33/31/64
f 32/27/62 15/29/59 30/32/58 93/30/63
f 93/30/63 30/32/58 11/35/43 76/33/46
f 33/31/64 93/30/63 76/33/46 12/34/45
f 13/67/55 34/73/65 94/74/66 80/70/56
f 34/111/65 16/112/61 33/107/64 94/103/66
f 94/103/66 33/107/64 12/108/45 78/104/49
f 80/100/56 94/103/66 78/104/49 9/101/39
f 18/66/67 35/62/68 95/65/69 37/69/70
f 35/62/68 17/61/71 36/64/72 95/65/69
f 95/65/69 36/64/72 13/67/55 79/68/52
f 37/69/70 95/65/69 79/68/52 14/72/51
f 14/166/51 31/167/60 96/164/73 37/163/70
f 31/167/60 15/169/59 38/168/74 96/164/73
f 96/164/73 38/168/74 19/165/75 39/161/76
f 37/163/70 96/164/73 39/161/76 18/160/67
f 20/22/77 40/21/78 97/24/79 41/25/80
f 40/21/78 19/23/75 38/26/74 97/24/79
f 97/24/79 38/26/74 15/29/59 32/27/62
f 41/25/80 97/24/79 32/27/62 16/28/61
f 17/132/71 42/131/81 98/134/82 36/135/72
f 42/131/81 20/133/77 41/136/80 98/134/82
f 98/134/82 41/136/80 16/139/61 34/137/65
f 36/135/72 98/134/82 34/137/65 13/138/55
f 25/60/83 43/56/84 99/59/85 45/63/86
f 43/56/84 26/55/87 44/58/88 99/59/85
f 99/59/85 44/58/88 17/61/71 35/62/68
f 45/63/86 99/59/85 35/62/68 18/66/67
f 18/160/67 39/161/76 100/157/89 45/156/86
f 39/161/76 19/165/75 46/162/90 100/157/89
f 100/157/89 46/162/90 28/158/91 47/151/92
f 45/156/86 100/157/89 47/151/92 25/150/83
f 27/16/93 48/15/94 101/18/95 49/19/96
f 48/15/94 28/17/91 46/20/90 101/18/95
f 101/18/95 46/20/90 19/23/75 40/21/78
f 49/19/96 101/18/95 40/21/78 20/22/77
f 26/126/87 50/125/97 102/128/98 44/129/88
f 50/125/97 27/127/93 49/130/96 102/128/98
f 102/128/98 49/130/96 20/133/77 42/131/81
f 44/129/88 102/128/98 42/131/81 17/132/71
f 22/54/19 70/49/34 103/53/99 52/57/100
f 70/49/34 21/48/9 51/52/101 103/53/99
f 103/53/99 51/52/101 26/55/87 43/56/84
f 52/57/100 103/53/99 43/56/84 25/60/83
f 21/120/9 57/119/8 104/122/102 51/123/101
f 57/119/8 24/121/7 53/124/103 104/122/102
f 104/122/102 53/124/103 27/127/93 50/125/97
f 51/123/101 104/122/102 50/125/97 26/126/87
f 24/10/7 69/9/32 105/12/104 53/13/103
f 69/9/32 23/11/23 54/14/105 105/12/104
f 105/12/104 54/14/105 28/17/91 48/15/94
f 53/13/103 105/12/104 48/15/94 27/16/93
f 25/150/83 47/151/92 106/145/106 52/144/100
f 47/151/92 28/158/91 54/152/105 106/145/106
f 106/145/106 54/152/105 23/146/23 63/141/20
f 52/144/100 106/145/106 63/141/20 22/140/19
