# This file uses centimeters as units for non-parametric coordinates.

mtllib WaterPlaneCurve.mtl
g default
v -0.396067 0.220242 0.500000
v 0.396067 -0.220242 0.500000
v -0.396067 0.220242 -0.500000
v 0.396067 -0.220242 -0.500000
v 0.148666 0.131647 0.500000
v 0.148666 0.131647 -0.500000
v -0.075875 0.208636 0.500000
v -0.075875 0.208636 -0.500000
v 0.308992 -0.007878 0.500000
v 0.308992 -0.007878 -0.500000
vt 0.006829 0.006917
vt 0.993083 0.006992
vt 0.993065 0.233359
vt 0.006812 0.233285
vt 0.993050 0.442974
vt 0.006796 0.442899
vt 0.006778 0.677009
vt 0.993032 0.677084
vt 0.993008 0.993082
vt 0.006754 0.993008
vn 0.160530 0.987031 0.000000
vn 0.160530 0.987031 0.000000
vn 0.036222 0.999344 0.000000
vn 0.036222 0.999344 0.000000
vn 0.818052 0.575144 0.000000
vn 0.818052 0.575144 0.000000
vn 0.490308 0.871549 0.000000
vn 0.490308 0.871549 0.000000
vn 0.925243 0.379375 0.000000
vn 0.925243 0.379375 0.000000
s 1
g pPlane1
usemtl initialShadingGroup
f 7/7/1 8/8/2 3/9/3 1/10/4
f 9/4/5 10/3/6 6/5/7 5/6/8
f 5/6/8 6/5/7 8/8/2 7/7/1
f 2/1/9 4/2/10 10/3/6 9/4/5
