# This file uses centimeters as units for non-parametric coordinates.

mtllib WaterCollider.mtl
g default
v -5428.340332 -16.883734 2246.095947
v -4415.211914 -97.578568 903.874207
v -2851.330322 -97.578568 308.178101
v -2852.249756 -97.578568 338.714874
v -2847.824463 -97.578568 356.201599
v -2756.912598 -97.578568 621.697754
v -5843.653320 -16.883741 1056.803223
v -6068.539062 -16.883741 737.735474
v -6131.293945 -16.883741 418.506531
v -5736.607422 -16.883741 1167.122681
v -5649.001465 -16.883741 1347.965088
v -6040.361328 -16.883741 2656.495361
v -6831.733887 -16.883741 2159.911865
v -6931.660645 -16.883739 2058.120850
v -6859.099609 -16.883743 441.715454
v -7303.830566 -16.883743 1517.862549
v -7454.976074 -16.883741 1254.045654
v -7407.458984 -16.883743 977.451965
v -7261.492676 -16.883743 753.869507
v -6885.979492 -16.883743 658.105713
v -6659.472656 -97.578568 44.286148
v -4812.396484 -97.578568 -1406.671631
v -6817.518066 -97.578568 -48.396358
v -6797.228027 -97.578568 -182.499359
v -6764.663574 -97.578568 -421.912537
v -6837.954590 -97.578568 -624.955078
v -6979.400879 -97.578568 -786.521606
v -7170.970703 -97.578568 -911.017944
v -7378.361328 -97.578568 -981.348816
v -7479.571289 -97.578568 -1056.647949
v -7544.750977 -97.578568 -1227.261963
v -7449.851074 -97.578568 -1420.600464
v -7295.085938 -97.578568 -1553.481567
v -7052.060059 -97.578568 -1647.233276
v -6903.475586 -97.578568 -1702.119995
v -6836.405762 -97.578568 -1680.888916
v -6761.197266 -97.578568 -1637.128784
v -6686.269531 -97.578568 -1517.050903
v -6645.430664 -97.578568 -1315.540771
v -6573.467773 -97.578568 -1114.073853
v -6487.207031 -97.578568 -1057.258789
v -6163.191406 -97.578568 -1068.171875
v -5838.394531 -97.578568 -1170.695679
v -5685.553711 -97.578568 -1209.430908
v -5431.402344 -97.578568 -1282.815063
v -5140.971680 -97.578568 -1348.403076
v -3678.246094 -97.578568 -1615.256836
v -5202.297363 -85.981705 1734.794312
v -4294.971680 -85.981705 1414.215088
v -4597.708984 -85.981705 1243.035889
v -4076.312256 -97.578568 1271.459961
v -3675.548584 -97.578568 967.561890
v -3695.558838 -97.578568 821.310791
v -3455.888428 -97.578568 617.024292
v -2929.493652 -97.578568 880.791748
v -3127.943359 -97.578568 770.776611
v -5187.250977 -85.981705 942.119141
v -5228.735840 -85.981705 988.974182
v -5342.770020 -85.981705 1444.090454
v -5240.615234 -85.981705 1223.416016
v -5013.475586 -85.981705 1593.649048
v -4997.154785 -97.578568 547.791138
v -4975.223633 -97.578568 485.224548
v -4974.710449 -97.578568 483.762970
v -4957.536621 -97.578568 434.763916
v -5084.918457 -97.578568 135.439316
v -5120.135742 -97.578568 76.682495
v -6242.112793 -97.578568 -104.768677
v -5057.157227 -97.578568 262.618713
v -6026.003418 -97.578568 28.194572
v -5587.017090 -97.578568 -130.199646
v -5308.586426 -97.578568 -102.859444
v -4597.708984 -36.444832 1243.035889
v -5187.250977 -36.444832 942.119141
v -4294.971680 -36.444832 1414.215088
v -5228.735840 -36.444832 988.974182
v -5240.615234 -36.444832 1223.416016
v -5013.475586 -36.444832 1593.649048
v -5342.770020 -36.444832 1444.090454
v -5202.297363 -36.444832 1734.794312
v -4415.211914 -48.041687 903.874207
v -4076.312256 -48.041687 1271.459961
v -3675.548584 -48.041687 967.561890
v -2851.330566 -48.041695 308.178528
v -4812.396484 -48.041691 -1406.671631
v -2852.249756 -48.041695 338.714874
v -5120.135742 -48.041687 76.682495
v -5140.971680 -48.041691 -1348.403076
v -5308.586426 -48.041691 -102.859444
v -5431.402344 -48.041691 -1282.815063
v -5685.553711 -48.041691 -1209.430908
v -5838.394531 -48.041691 -1170.695679
v -5587.017090 -48.041691 -130.199646
v -6163.191406 -48.041691 -1068.171875
v -6242.112793 -48.041687 -104.768677
v -6659.472656 -48.041687 44.286148
v -6817.518066 -48.041687 -48.396358
v -6797.228027 -48.041687 -182.499359
v -6026.003418 -48.041687 28.194572
v -6487.207031 -48.041691 -1057.258789
v -6764.663574 -48.041687 -421.912537
v -6837.954590 -48.041687 -624.955078
v -6573.467773 -48.041691 -1114.073853
v -6979.400879 -48.041687 -786.521606
v -6645.430664 -48.041691 -1315.540771
v -7170.970703 -48.041687 -911.017944
v -6686.269531 -48.041691 -1517.050903
v -7378.361328 -48.041687 -981.348816
v -7479.571289 -48.041687 -1056.647949
v -7544.750977 -48.041687 -1227.261963
v -7449.851074 -48.041687 -1420.600464
v -7295.085938 -48.041687 -1553.481567
v -7052.060059 -48.041687 -1647.233276
v -6903.475586 -48.041687 -1702.119995
v -6761.197266 -48.041691 -1637.128784
v -6836.405762 -48.041691 -1680.888916
v -3678.246582 -48.041691 -1615.256836
v -4975.223633 -48.041687 485.224548
v -3695.558838 -48.041687 821.310791
v -4997.154785 -48.041687 547.791138
v -4974.710449 -48.041687 483.762970
v -3455.888428 -48.041695 617.024292
v -4957.536621 -48.041687 434.763916
v -2756.912598 -48.041695 621.697754
v -3127.943359 -48.041695 770.776611
v -2929.493652 -48.041695 880.791748
v -5057.157227 -48.041687 262.618713
v -5084.918457 -48.041687 135.439316
v -2847.824463 -48.041695 356.201599
v -5649.001465 32.653137 1347.965088
v -5428.340332 32.653145 2246.095947
v -5736.607422 32.653137 1167.122681
v -6931.660645 32.653137 2058.120850
v -6068.539062 32.653137 737.735474
v -5843.653320 32.653137 1056.803223
v -6831.733887 32.653137 2159.911865
v -7303.830566 32.653133 1517.862549
v -7454.976074 32.653137 1254.045654
v -7407.458984 32.653133 977.451965
v -7261.492676 32.653133 753.869507
v -6885.979492 32.653133 658.105713
v -6859.099609 32.653133 441.715454
v -6131.293945 32.653137 418.506531
v -6040.361328 32.653137 2656.495361
v -3346.235840 -48.041695 -1013.820862
v -3562.037842 -48.041691 -1316.975952
v -3347.891113 -97.578568 -1016.113342
v -3599.822266 -48.041691 -1017.431580
v -3677.969971 -48.041691 -914.984619
v -3896.516357 -48.041691 -1017.838440
v -3819.043457 -48.041691 -1251.846436
v -3560.507812 -97.578568 -1312.840210
v -3445.006836 -48.041695 -994.391052
v -3819.043457 -97.578568 -1251.846436
v -3896.516357 -97.578568 -1017.838440
v -3677.969971 -97.578568 -914.984619
v -3382.318115 -97.578568 -1009.643250
v -3595.472656 -97.578568 -1020.434387
v -2855.943848 -97.578560 304.143860
v -3721.790527 -48.041691 -1264.396851
v -3615.378418 -48.041691 -1303.458618
v -3721.790527 -97.578568 -1264.396851
v -3615.378418 -97.578568 -1303.458618
v -3484.284424 -97.578568 -1159.016968
v -3528.974121 -97.578568 -1151.085205
v -3603.521484 -97.578568 -1164.843262
v -3605.687500 -48.041691 -1163.347900
v -3530.535645 -48.041695 -1149.546997
v -3484.228271 -48.041695 -1159.951538
vt 0.033698 0.692654
vt 0.033698 0.671671
vt 0.039060 0.671671
vt 0.039060 0.692654
vt 0.033698 0.707721
vt 0.039060 0.707721
vt 0.033698 0.723041
vt 0.039060 0.723041
vt 0.033698 0.745017
vt 0.039060 0.745017
vt 0.033698 0.762504
vt 0.039060 0.762504
vt 0.033698 0.775979
vt 0.039060 0.775979
vt 0.025574 0.844944
vt 0.025574 0.824210
vt 0.030936 0.824210
vt 0.030936 0.844944
vt 0.025574 0.802209
vt 0.030936 0.802209
vt 0.025574 0.787216
vt 0.030936 0.787216
vt 0.025574 0.779971
vt 0.030936 0.779971
vt 0.022201 0.691344
vt 0.022201 0.671671
vt 0.027563 0.671671
vt 0.027563 0.691344
vt 0.022201 0.718507
vt 0.027563 0.718507
vt 0.022201 0.739433
vt 0.027563 0.739433
vt 0.022201 0.753816
vt 0.027563 0.753816
vt 0.001992 0.763187
vt 0.001992 0.756098
vt 0.007354 0.756098
vt 0.007354 0.763187
vt 0.001992 0.763353
vt 0.007354 0.763353
vt 0.001992 0.768905
vt 0.007354 0.768905
vt 0.001992 0.803665
vt 0.007354 0.803665
vt 0.001992 0.814937
vt 0.007354 0.814937
vt 0.001992 0.820351
vt 0.007354 0.820351
vt 0.001992 0.833729
vt 0.007354 0.833729
vt 0.013881 0.826894
vt 0.013881 0.788252
vt 0.019242 0.788252
vt 0.019242 0.826894
vt 0.013881 0.757807
vt 0.019242 0.757807
vt 0.460011 0.827796
vt 0.460011 0.784340
vt 0.465373 0.784340
vt 0.465373 0.827796
vt 0.460011 0.735617
vt 0.465373 0.735617
vt 0.460011 0.871667
vt 0.465373 0.871667
vt 0.460011 0.724599
vt 0.465373 0.724599
vt 0.460011 0.906301
vt 0.465373 0.906301
vt 0.460011 0.671671
vt 0.465373 0.671671
vt 0.460011 0.917099
vt 0.465373 0.917099
vt 0.460011 0.926104
vt 0.465373 0.926104
vt 0.388557 0.671671
vt 0.453876 0.796798
vt 0.387893 0.672346
vt 0.448805 0.801288
vt 0.321381 0.740056
vt 0.422889 0.824234
vt 0.399027 0.845360
vt 0.287094 0.774960
vt 0.029503 0.329688
vt 0.001992 0.278966
vt 0.045918 0.232396
vt 0.071340 0.405711
vt 0.078430 0.404599
vt 0.052415 0.225507
vt 0.078595 0.404573
vt 0.053955 0.223874
vt 0.084147 0.403703
vt 0.127568 0.111273
vt 0.060541 0.207859
vt 0.118908 0.398252
vt 0.065621 0.166214
vt 0.140570 0.101559
vt 0.130180 0.410908
vt 0.141957 0.100184
vt 0.135594 0.416987
vt 0.313207 0.370012
vt 0.551032 0.067801
vt 0.306900 0.405575
vt 0.620797 0.268073
vt 0.148972 0.437384
vt 0.299801 0.437010
vt 0.291858 0.450836
vt 0.282832 0.467379
vt 0.151157 0.465361
vt 0.277898 0.488265
vt 0.143570 0.498121
vt 0.276527 0.509084
vt 0.133452 0.523671
vt 0.167974 0.590063
vt 0.183293 0.592252
vt 0.152907 0.596277
vt 0.205269 0.600185
vt 0.131923 0.599791
vt 0.286725 0.526864
vt 0.222757 0.615494
vt 0.307459 0.533815
vt 0.236232 0.636229
vt 0.329460 0.540688
vt 0.246952 0.656570
vt 0.266625 0.667679
vt 0.293788 0.665750
vt 0.314715 0.655479
vt 0.329097 0.638728
vt 0.339244 0.612424
vt 0.349333 0.584171
vt 0.344453 0.546736
vt 0.351698 0.558292
vt 0.477261 0.748029
vt 0.427786 0.690597
vt 0.916580 0.713776
vt 0.743574 0.806719
vt 0.923478 0.750933
vt 0.796503 0.864341
vt 0.807520 0.875157
vt 0.962120 0.766470
vt 0.856244 0.927612
vt 0.899700 0.944207
vt 0.943571 0.938919
vt 0.978205 0.923653
vt 0.989003 0.906996
vt 0.998008 0.892484
vt 0.992565 0.773674
vt 0.215639 0.671671
vt 0.280959 0.796798
vt 0.214976 0.672346
vt 0.275887 0.801288
vt 0.148463 0.740056
vt 0.249971 0.824234
vt 0.226110 0.845360
vt 0.114177 0.774960
vt 0.483804 0.329688
vt 0.456293 0.278966
vt 0.500219 0.232396
vt 0.525641 0.405711
vt 0.532731 0.404599
vt 0.506716 0.225507
vt 0.532896 0.404573
vt 0.508256 0.223874
vt 0.538448 0.403703
vt 0.581869 0.111273
vt 0.514842 0.207859
vt 0.573209 0.398252
vt 0.519922 0.166214
vt 0.594871 0.101559
vt 0.584481 0.410908
vt 0.596257 0.100184
vt 0.589895 0.416987
vt 0.767508 0.370012
vt 0.628911 0.067801
vt 0.761201 0.405575
vt 0.785496 0.271134
vt 0.603273 0.437384
vt 0.754102 0.437010
vt 0.746159 0.450836
vt 0.737132 0.467379
vt 0.605458 0.465361
vt 0.732198 0.488265
vt 0.597871 0.498121
vt 0.730828 0.509084
vt 0.587753 0.523671
vt 0.622275 0.590063
vt 0.637594 0.592252
vt 0.607207 0.596277
vt 0.659570 0.600185
vt 0.586224 0.599791
vt 0.741026 0.526864
vt 0.677057 0.615494
vt 0.761760 0.533815
vt 0.690532 0.636229
vt 0.783761 0.540688
vt 0.701253 0.656570
vt 0.720926 0.667679
vt 0.748089 0.665750
vt 0.769015 0.655479
vt 0.783398 0.638728
vt 0.793545 0.612424
vt 0.803634 0.584171
vt 0.798753 0.546736
vt 0.805999 0.558292
vt 0.656685 0.708464
vt 0.521452 0.690597
vt 0.656011 0.713776
vt 0.483005 0.806719
vt 0.662909 0.750933
vt 0.535934 0.864341
vt 0.546952 0.875157
vt 0.701551 0.766470
vt 0.595675 0.927612
vt 0.639131 0.944207
vt 0.683002 0.938919
vt 0.717636 0.923653
vt 0.728434 0.906996
vt 0.737439 0.892484
vt 0.731996 0.773674
vt 0.108041 0.671671
vt 0.108041 0.796798
vt 0.102680 0.796798
vt 0.102680 0.671671
vt 0.108041 0.801288
vt 0.102680 0.801288
vt 0.108041 0.824234
vt 0.102680 0.824234
vt 0.108041 0.845360
vt 0.102680 0.845360
vt 0.922092 0.329688
vt 0.922092 0.278966
vt 0.927454 0.278966
vt 0.927454 0.329688
vt 0.922092 0.232396
vt 0.927454 0.232396
vt 0.922092 0.405711
vt 0.927454 0.405711
vt 0.922092 0.225507
vt 0.927454 0.225507
vt 0.922092 0.223874
vt 0.927454 0.223874
vt 0.922092 0.207859
vt 0.927454 0.207859
vt 0.922092 0.166214
vt 0.927454 0.166214
vt 0.922092 0.111274
vt 0.927454 0.111274
vt 0.922092 0.101559
vt 0.927454 0.101559
vt 0.922092 0.100184
vt 0.927454 0.100184
vt 0.922092 0.067801
vt 0.915760 0.363889
vt 0.915760 0.399453
vt 0.910399 0.399453
vt 0.910399 0.363889
vt 0.915760 0.430888
vt 0.910399 0.430888
vt 0.915760 0.265011
vt 0.915760 0.444714
vt 0.910399 0.444714
vt 0.915760 0.461257
vt 0.910399 0.461257
vt 0.915760 0.482143
vt 0.910399 0.482143
vt 0.915760 0.502961
vt 0.910399 0.502961
vt 0.915760 0.520741
vt 0.910399 0.520741
vt 0.091183 0.699648
vt 0.091183 0.671671
vt 0.096544 0.671671
vt 0.096544 0.699648
vt 0.091183 0.732408
vt 0.096544 0.732408
vt 0.091183 0.757958
vt 0.096544 0.757958
vt 0.091183 0.834078
vt 0.096544 0.834078
vt 0.048962 0.814813
vt 0.048962 0.794472
vt 0.054323 0.794472
vt 0.054323 0.814813
vt 0.016066 0.725802
vt 0.016066 0.752106
vt 0.010704 0.752106
vt 0.010704 0.725802
vt 0.016066 0.697550
vt 0.010704 0.697550
vt 0.016066 0.671671
vt 0.010704 0.671671
vt 0.068189 0.690597
vt 0.068189 0.806719
vt 0.073551 0.806719
vt 0.042630 0.787595
vt 0.042630 0.792907
vt 0.037268 0.792907
vt 0.042630 0.830064
vt 0.037268 0.830064
vt 0.062054 0.671671
vt 0.062054 0.790481
vt 0.056692 0.790481
vt 0.056692 0.671671
vt 0.050557 0.682804
vt 0.050557 0.682141
vt 0.045195 0.682141
vt 0.045195 0.682804
vt 0.050557 0.749317
vt 0.045195 0.749317
vt 0.050557 0.783603
vt 0.045195 0.783603
vt 0.050557 0.671671
vt 0.045195 0.671671
vt 0.604449 0.221143
vt 0.615886 0.253974
vt 0.828450 0.215462
vt 0.566680 0.233222
vt 0.538612 0.242397
vt 0.519871 0.264679
vt 0.543606 0.274038
vt 0.840743 0.247633
vt 0.595078 0.224139
vt 0.756610 0.258500
vt 0.745669 0.246659
vt 0.739357 0.231190
vt 0.739633 0.214079
vt 0.739498 0.222446
vt 0.629237 0.068512
vt 0.582898 0.263131
vt 0.600884 0.258138
vt 0.800115 0.252881
vt 0.825258 0.249633
vt 0.834621 0.231612
vt 0.782618 0.231927
vt 0.769928 0.237725
vt 0.574821 0.248237
vt 0.597993 0.241207
vt 0.610190 0.237624
vn 0.000000 1.000000 0.000000
vn 0.000000 1.000000 0.000000
vn 0.000000 1.000000 0.000000
vn 0.000000 1.000000 0.000000
vn 0.000000 1.000000 0.000000
vn 0.000000 1.000000 0.000000
vn 0.000000 1.000000 0.000000
vn 0.000000 1.000000 0.000000
vn 0.000000 1.000000 0.000000
vn 0.000000 1.000000 0.000000
vn 0.000000 1.000000 0.000000
vn 0.000000 1.000000 0.000000
vn 0.000000 1.000000 0.000000
vn 0.000000 1.000000 0.000000
vn 0.000000 1.000000 0.000000
vn 0.000000 1.000000 0.000000
vn 0.000000 1.000000 0.000000
vn 0.000000 1.000000 0.000000
vn -0.000000 1.000000 0.000000
vn -0.000000 1.000000 0.000000
vn -0.000000 1.000000 0.000000
vn 0.000000 1.000000 0.000000
vn -0.000000 1.000000 -0.000000
vn -0.000000 1.000000 -0.000000
vn -0.000000 1.000000 -0.000000
vn -0.000000 1.000000 0.000000
vn -0.000000 1.000000 0.000000
vn 0.000000 1.000000 0.000000
vn 0.000000 1.000000 -0.000000
vn 0.000000 1.000000 -0.000000
vn 0.000000 1.000000 -0.000000
vn -0.000000 1.000000 -0.000000
vn -0.000000 1.000000 -0.000000
vn 0.000000 1.000000 0.000000
vn 0.000000 1.000000 -0.000000
vn 0.000000 1.000000 -0.000000
vn 0.000000 1.000000 -0.000000
vn 0.000000 1.000000 -0.000000
vn 0.000000 1.000000 0.000000
vn 0.000000 1.000000 -0.000000
vn 0.000000 1.000000 0.000000
vn 0.000000 1.000000 -0.000000
vn 0.000000 1.000000 -0.000000
vn 0.000000 1.000000 -0.000000
vn 0.000000 1.000000 0.000000
vn 0.000000 1.000000 0.000000
vn 0.000000 1.000000 0.000000
vn 0.000000 1.000000 0.000000
vn 0.000000 1.000000 0.000000
vn 0.000000 1.000000 -0.000000
vn 0.000000 1.000000 -0.000000
vn 0.000000 1.000000 -0.000000
vn 0.000000 1.000000 -0.000000
vn 0.000000 1.000000 -0.000000
vn 0.000000 1.000000 0.000000
vn 0.000000 1.000000 0.000000
vn 0.000000 1.000000 -0.000000
vn 0.000000 1.000000 -0.000000
vn 0.000000 1.000000 -0.000000
vn 0.000000 1.000000 -0.000001
vn 0.000000 1.000000 0.000000
vn 0.000000 1.000000 -0.000000
vn 0.000000 1.000000 -0.000000
vn -0.000000 1.000000 0.000000
vn -0.000000 1.000000 0.000000
vn 0.000000 1.000000 0.000000
vn -0.000000 1.000000 0.000000
vn 0.000000 1.000000 -0.000000
vn 0.000000 1.000000 0.000000
vn 0.000000 1.000000 -0.000000
vn 0.000000 1.000000 0.000000
vn -0.000000 1.000000 -0.000000
vn 0.000000 1.000000 0.000000
vn -0.000000 1.000000 0.000000
vn -0.000000 1.000000 -0.000000
vn 0.000000 1.000000 0.000000
vn 0.000000 1.000000 0.000000
vn 0.000000 1.000000 0.000000
vn 0.000000 1.000000 0.000000
vn 0.000000 1.000000 0.000000
vn 0.000000 1.000000 0.000000
vn 0.000000 1.000000 0.000000
vn 0.000000 1.000000 -0.000002
vn 0.000000 1.000000 -0.000000
vn 0.000000 1.000000 -0.000000
vn 0.000000 1.000000 -0.000000
vn 0.000000 1.000000 0.000000
vn -0.000000 1.000000 0.000000
vn 0.000000 1.000000 0.000000
vn -0.000000 1.000000 -0.000000
vn 0.000000 1.000000 -0.000000
vn 0.000000 1.000000 -0.000000
vn 0.000000 1.000000 -0.000000
vn 0.000000 1.000000 -0.000000
vn 0.000000 1.000000 0.000000
vn 0.000000 1.000000 0.000000
vn 0.000000 1.000000 0.000000
vn 0.000000 1.000000 0.000000
vn 0.000000 1.000000 0.000000
vn 0.000000 1.000000 0.000000
vn 0.000000 1.000000 0.000000
vn 0.000000 -1.000000 -0.000001
vn 0.000000 -1.000000 -0.000001
vn 0.000000 -1.000000 -0.000001
vn 0.000000 -1.000000 0.000000
vn 0.000000 -1.000000 0.000000
vn 0.000000 -1.000000 0.000000
vn 0.000000 -1.000000 -0.000000
vn 0.000000 -1.000000 -0.000000
vn 0.000000 -1.000000 -0.000000
vn 0.000000 -1.000000 -0.000000
vn 0.000000 -1.000000 0.000000
vn 0.000000 -1.000000 0.000000
vn 0.000000 -1.000000 0.000000
vn -0.000000 -1.000000 0.000000
vn -0.000000 -1.000000 0.000000
vn -0.000000 -1.000000 0.000000
vn -0.000000 -1.000000 -0.000000
vn -0.000000 -1.000000 -0.000000
vn -0.000000 -1.000000 -0.000000
vn -0.000000 -1.000000 0.000000
vn 0.000000 -1.000000 0.000000
vn 0.000000 -1.000000 0.000000
vn 0.000000 -1.000000 0.000000
vn -0.000000 -1.000000 -0.000000
vn 0.000000 -1.000000 0.000000
vn 0.000000 -1.000000 0.000000
vn 0.000000 -1.000000 0.000000
vn 0.000000 -1.000000 0.000000
vn 0.000000 -1.000000 0.000000
vn 0.000000 -1.000000 -0.000000
vn 0.000000 -1.000000 -0.000000
vn 0.000000 -1.000000 -0.000000
vn 0.000000 -1.000000 -0.000000
vn 0.000000 -1.000000 0.000000
vn 0.000000 -1.000000 -0.000000
vn 0.000000 -1.000000 0.000000
vn 0.000000 -1.000000 -0.000000
vn 0.000000 -1.000000 -0.000000
vn 0.000000 -1.000000 0.000000
vn 0.000000 -1.000000 0.000000
vn 0.000000 -1.000000 -0.000000
vn 0.000000 -1.000000 -0.000000
vn 0.000000 -1.000000 -0.000000
vn 0.000000 -1.000000 0.000000
vn 0.000000 -1.000000 -0.000000
vn 0.000000 -1.000000 0.000000
vn 0.000000 -1.000000 -0.000000
vn 0.000000 -1.000000 0.000000
vn 0.000000 -1.000000 -0.000000
vn 0.000000 -1.000000 0.000000
vn 0.000000 -1.000000 0.000000
vn 0.000000 -1.000000 -0.000000
vn 0.000000 -1.000000 0.000000
vn 0.000000 -1.000000 -0.000000
vn 0.000000 -1.000000 -0.000000
vn 0.000000 -1.000000 -0.000000
vn 0.000000 -1.000000 0.000000
vn 0.000000 -1.000000 0.000000
vn 0.000000 -1.000000 0.000000
vn 0.000000 -1.000000 0.000000
vn 0.000000 -1.000000 0.000000
vn 0.000000 -1.000000 0.000000
vn 0.000000 -1.000000 -0.000000
vn 0.000000 -1.000000 -0.000000
vn 0.000000 -1.000000 0.000000
vn 0.000000 -1.000000 -0.000000
vn -0.000000 -1.000000 -0.000000
vn 0.000000 -1.000000 -0.000000
vn 0.000000 -1.000000 -0.000000
vn 0.000000 -1.000000 -0.000000
vn 0.000000 -1.000000 -0.000000
vn 0.000000 -1.000000 0.000000
vn 0.000000 -1.000000 0.000000
vn 0.000000 -1.000000 -0.000000
vn 0.000000 -1.000000 0.000000
vn 0.000000 -1.000000 0.000000
vn 0.000000 -1.000000 -0.000000
vn 0.000000 -1.000000 0.000000
vn 0.000000 -1.000000 0.000000
vn 0.000000 -1.000000 -0.000000
vn 0.000000 -1.000000 0.000000
vn 0.000000 -1.000000 0.000000
vn 0.000000 -1.000000 0.000000
vn 0.000000 -1.000000 0.000000
vn 0.000000 -1.000000 0.000000
vn 0.000000 -1.000000 0.000000
vn 0.000000 -1.000000 -0.000000
vn 0.000000 -1.000000 -0.000000
vn 0.000000 -1.000000 0.000000
vn 0.000000 -1.000000 0.000000
vn 0.000000 -1.000000 0.000000
vn 0.000000 -1.000000 -0.000000
vn 0.000000 -1.000000 -0.000000
vn 0.000000 -1.000000 -0.000000
vn 0.000000 -1.000000 -0.000000
vn 0.000000 -1.000000 0.000000
vn 0.000000 -1.000000 0.000000
vn 0.000000 -1.000000 0.000000
vn 0.000000 -1.000000 0.000000
vn 0.000000 -1.000000 0.000000
vn 0.000000 -1.000000 0.000000
vn 0.454626 0.000000 -0.890682
vn 0.454626 0.000000 -0.890682
vn 0.454626 0.000000 -0.890682
vn 0.454626 0.000000 -0.890682
vn 0.492203 0.000000 -0.870480
vn 0.492203 0.000000 -0.870480
vn 0.492203 0.000000 -0.870480
vn 0.492203 0.000000 -0.870480
vn -0.748709 0.000000 -0.662899
vn -0.748710 0.000000 -0.662898
vn -0.748709 0.000000 -0.662898
vn -0.748710 0.000000 -0.662898
vn -0.998719 0.000000 -0.050606
vn -0.998719 0.000000 -0.050606
vn -0.998719 0.000000 -0.050606
vn -0.998719 0.000000 -0.050606
vn 0.242292 0.000000 0.970204
vn 0.242291 0.000000 0.970204
vn 0.242291 0.000000 0.970204
vn 0.242292 0.000000 0.970204
vn -0.907481 0.000000 -0.420092
vn -0.907482 0.000000 -0.420092
vn -0.907481 0.000000 -0.420092
vn -0.907482 0.000000 -0.420092
vn -0.900391 0.000000 0.435083
vn -0.900391 0.000000 0.435083
vn -0.900391 0.000000 0.435083
vn -0.900391 0.000000 0.435083
vn 0.598721 0.000000 0.800958
vn 0.598720 0.000000 0.800958
vn 0.598721 0.000000 0.800958
vn 0.598720 0.000000 0.800958
vn -0.735212 0.000000 0.677837
vn -0.735212 0.000000 0.677837
vn -0.735212 0.000000 0.677837
vn -0.735212 0.000000 0.677837
vn 0.604223 0.000000 0.796815
vn 0.604223 0.000000 0.796815
vn 0.604223 0.000000 0.796815
vn 0.604223 0.000000 0.796815
vn 0.999547 0.000000 0.030095
vn 0.999547 0.000000 0.030093
vn 0.999547 0.000000 0.030091
vn 0.999547 0.000000 0.030088
vn -0.174612 0.000000 -0.984637
vn -0.174612 0.000000 -0.984637
vn -0.174612 0.000000 -0.984637
vn -0.174612 0.000000 -0.984637
vn -0.689786 0.000000 0.724013
vn -0.689786 0.000000 0.724013
vn -0.689786 0.000000 0.724013
vn -0.689786 0.000000 0.724013
vn -0.220283 0.000000 -0.975436
vn -0.220283 0.000000 -0.975436
vn -0.220283 0.000000 -0.975436
vn -0.220283 0.000000 -0.975436
vn -0.277409 0.000000 -0.960752
vn -0.277410 0.000000 -0.960752
vn -0.277409 0.000000 -0.960752
vn -0.277410 0.000000 -0.960752
vn -0.245669 0.000000 -0.969354
vn -0.245668 0.000000 -0.969354
vn -0.245669 0.000000 -0.969354
vn -0.245667 0.000000 -0.969354
vn -0.097724 0.000000 0.995214
vn -0.097724 0.000000 0.995214
vn -0.097724 0.000000 0.995214
vn -0.097724 0.000000 0.995214
vn -0.301015 0.000000 -0.953620
vn -0.301015 0.000000 -0.953619
vn -0.301015 0.000000 -0.953620
vn -0.301015 0.000000 -0.953619
vn 0.336332 0.000000 0.941743
vn 0.336332 0.000000 0.941744
vn 0.336332 0.000000 0.941744
vn 0.336332 0.000000 0.941743
vn -0.505862 0.000000 0.862614
vn -0.505862 0.000000 0.862614
vn -0.505862 0.000000 0.862614
vn -0.505862 0.000000 0.862614
vn -0.988747 0.000000 -0.149599
vn -0.988747 0.000000 -0.149599
vn -0.988747 0.000000 -0.149599
vn -0.988747 0.000000 -0.149599
vn 0.339401 0.000000 0.940642
vn 0.339401 0.000000 0.940642
vn 0.339401 0.000000 0.940642
vn 0.339401 0.000000 0.940642
vn -0.033662 0.000000 -0.999433
vn -0.033662 0.000000 -0.999433
vn -0.033662 0.000000 -0.999433
vn -0.033662 0.000000 -0.999433
vn -0.524020 0.000000 0.851706
vn -0.524020 0.000000 0.851706
vn -0.524020 0.000000 0.851706
vn -0.524020 0.000000 0.851706
vn -0.990876 0.000000 -0.134777
vn -0.990876 0.000000 -0.134777
vn -0.990876 0.000000 -0.134777
vn -0.990876 0.000000 -0.134777
vn -0.940598 0.000000 0.339522
vn -0.940598 0.000000 0.339522
vn -0.940598 0.000000 0.339522
vn -0.940598 0.000000 0.339522
vn 0.550052 0.000000 -0.835130
vn 0.550053 0.000000 -0.835130
vn 0.550053 0.000000 -0.835130
vn 0.550053 0.000000 -0.835130
vn -0.752403 0.000000 0.658704
vn -0.752402 0.000000 0.658704
vn -0.752403 0.000000 0.658704
vn -0.752402 0.000000 0.658704
vn 0.941727 0.000000 -0.336379
vn 0.941727 0.000000 -0.336380
vn 0.941727 0.000000 -0.336379
vn 0.941727 0.000000 -0.336380
vn -0.544915 0.000000 0.838492
vn -0.544914 0.000000 0.838492
vn -0.544915 0.000000 0.838492
vn -0.544914 0.000000 0.838492
vn 0.980075 0.000000 -0.198626
vn 0.980075 0.000000 -0.198626
vn 0.980075 0.000000 -0.198626
vn 0.980075 0.000000 -0.198626
vn -0.321158 0.000000 0.947026
vn -0.321158 0.000000 0.947026
vn -0.321158 0.000000 0.947026
vn -0.321158 0.000000 0.947026
vn -0.596909 0.000000 0.802309
vn -0.596909 0.000000 0.802309
vn -0.596909 0.000000 0.802309
vn -0.596909 0.000000 0.802309
vn -0.934152 0.000000 0.356874
vn -0.934152 0.000000 0.356874
vn -0.934152 0.000000 0.356874
vn -0.934152 0.000000 0.356874
vn -0.897689 0.000000 -0.440629
vn -0.897689 0.000000 -0.440629
vn -0.897689 0.000000 -0.440629
vn -0.897689 0.000000 -0.440630
vn -0.651428 0.000000 -0.758711
vn -0.651428 0.000000 -0.758711
vn -0.651428 0.000000 -0.758711
vn -0.651428 0.000000 -0.758711
vn -0.359916 0.000000 -0.932985
vn -0.359915 0.000000 -0.932985
vn -0.359916 0.000000 -0.932985
vn -0.359915 0.000000 -0.932985
vn -0.346510 0.000000 -0.938046
vn -0.346512 0.000000 -0.938046
vn -0.346511 0.000000 -0.938046
vn -0.346512 0.000000 -0.938046
vn 0.848382 0.000000 -0.529384
vn 0.848383 0.000000 -0.529384
vn 0.848382 0.000000 -0.529384
vn 0.848383 0.000000 -0.529383
vn 0.502914 0.000000 -0.864337
vn 0.502914 0.000000 -0.864337
vn 0.502914 0.000000 -0.864337
vn 0.502914 0.000000 -0.864337
vn 0.301792 0.000000 -0.953374
vn 0.301792 0.000000 -0.953374
vn 0.301792 0.000000 -0.953374
vn 0.301792 0.000000 -0.953374
vn -0.180880 0.000000 -0.983505
vn -0.180880 0.000000 -0.983505
vn -0.180880 0.000000 -0.983505
vn -0.180880 0.000000 -0.983505
vn 0.990769 0.000000 -0.135558
vn 0.990769 0.000000 -0.135558
vn 0.990769 0.000000 -0.135558
vn 0.990769 0.000000 -0.135558
vn -0.943704 0.000000 -0.330792
vn -0.943704 0.000000 -0.330792
vn -0.943704 0.000000 -0.330792
vn -0.943704 0.000000 -0.330792
vn -0.521932 0.000000 0.852987
vn -0.521932 0.000000 0.852987
vn -0.521932 0.000000 0.852987
vn -0.521932 0.000000 0.852987
vn -0.943530 0.000000 -0.331287
vn -0.943530 0.000000 -0.331287
vn -0.943525 0.000000 -0.331303
vn -0.943524 0.000000 -0.331303
vn 0.648693 0.000000 0.761051
vn 0.648693 0.000000 0.761051
vn 0.648693 0.000000 0.761051
vn 0.648692 0.000000 0.761051
vn -0.943713 0.000000 -0.330765
vn -0.943713 0.000000 -0.330765
vn -0.943713 0.000000 -0.330765
vn -0.943713 0.000000 -0.330764
vn -0.424498 0.000000 0.905429
vn -0.424497 0.000000 0.905429
vn -0.424498 0.000000 0.905429
vn -0.424497 0.000000 0.905429
vn -0.484852 0.000000 0.874596
vn -0.484852 0.000000 0.874596
vn -0.484852 0.000000 0.874596
vn -0.484852 0.000000 0.874596
vn 0.832270 0.000000 0.554371
vn 0.832270 0.000000 0.554370
vn 0.832270 0.000000 0.554371
vn 0.832270 0.000000 0.554370
vn -0.976995 0.000000 0.213262
vn -0.976995 0.000000 0.213262
vn -0.976995 0.000000 0.213262
vn -0.976995 0.000000 0.213262
vn 0.946072 0.000000 -0.323956
vn 0.946072 0.000000 -0.323956
vn 0.946072 0.000000 -0.323956
vn 0.946072 0.000000 -0.323956
vn -0.865519 0.000000 0.500876
vn -0.865519 0.000000 0.500877
vn -0.865519 0.000000 0.500877
vn -0.865519 0.000000 0.500877
vn -0.857730 0.000000 0.514101
vn -0.857730 0.000000 0.514101
vn -0.857730 0.000000 0.514101
vn -0.857730 0.000000 0.514101
vn 0.969439 0.000000 -0.245333
vn 0.969439 0.000000 -0.245332
vn 0.969439 0.000000 -0.245331
vn 0.969440 0.000000 -0.245331
vn 0.899961 0.000000 -0.435971
vn 0.899961 0.000000 -0.435970
vn 0.899961 0.000000 -0.435971
vn 0.899961 0.000000 -0.435970
vn 0.817376 0.000000 -0.576104
vn 0.817376 0.000000 -0.576104
vn 0.817376 0.000000 -0.576104
vn 0.817376 0.000000 -0.576104
vn -0.713612 0.000000 0.700541
vn -0.713611 0.000000 0.700542
vn -0.713612 0.000000 0.700541
vn -0.713611 0.000000 0.700542
vn -0.823513 0.000000 0.567297
vn -0.823513 0.000000 0.567297
vn -0.823513 0.000000 0.567297
vn -0.823513 0.000000 0.567297
vn -0.867686 0.000000 0.497113
vn -0.867686 0.000000 0.497113
vn -0.867686 0.000000 0.497113
vn -0.867686 0.000000 0.497113
vn -0.985562 0.000000 -0.169314
vn -0.985562 0.000000 -0.169313
vn -0.985562 0.000000 -0.169314
vn -0.985562 0.000000 -0.169313
vn -0.837351 0.000000 -0.546666
vn -0.837351 0.000000 -0.546666
vn -0.837351 0.000000 -0.546666
vn -0.837351 0.000000 -0.546666
vn -0.247112 0.000000 -0.968987
vn -0.247112 0.000000 -0.968987
vn -0.247112 0.000000 -0.968987
vn -0.247112 0.000000 -0.968987
vn -0.992373 0.000000 -0.123272
vn -0.992373 0.000000 -0.123272
vn -0.992373 0.000000 -0.123272
vn -0.992373 0.000000 -0.123272
vn 0.981220 0.000000 -0.192891
vn 0.981220 0.000000 -0.192891
vn 0.981220 0.000000 -0.192891
vn 0.981220 0.000000 -0.192891
vn -0.031873 0.000000 -0.999492
vn -0.031873 0.000000 -0.999492
vn -0.031873 0.000000 -0.999492
vn -0.031873 0.000000 -0.999492
vn -0.531519 0.000000 0.847046
vn -0.531519 0.000000 0.847046
vn -0.531519 0.000000 0.847046
vn -0.531519 0.000000 0.847046
vn 0.717675 0.000000 -0.696378
vn 0.717674 0.000000 -0.696379
vn 0.717675 0.000000 -0.696378
vn 0.717674 0.000000 -0.696379
vn 0.556940 0.000000 0.830553
vn 0.556939 0.000000 0.830553
vn 0.556940 0.000000 0.830553
vn 0.556939 0.000000 0.830553
vn 0.931866 -0.001508 -0.362799
vn 0.931791 -0.000149 -0.362996
vn 0.931859 -0.001370 -0.362819
vn 0.931782 0.000000 -0.363018
vn 0.971120 0.000000 -0.238594
vn 0.971120 0.000000 -0.238594
vn 0.971120 0.000000 -0.238594
vn 0.971120 0.000000 -0.238594
vn 0.936526 0.000000 -0.350599
vn 0.936522 -0.000337 -0.350610
vn 0.936243 -0.014716 -0.351045
vn 0.936235 -0.015040 -0.351054
vn 0.425826 0.000000 -0.904805
vn 0.425826 0.000000 -0.904805
vn 0.425826 0.000000 -0.904805
vn 0.425826 0.000000 -0.904805
vn 0.949326 0.000000 0.314293
vn 0.949326 0.000000 0.314293
vn 0.949326 0.000000 0.314293
vn 0.949326 0.000000 0.314293
vn -0.000000 -1.000000 -0.000000
vn 0.000000 -1.000000 -0.000000
vn 0.000000 -1.000000 0.000000
vn -0.000000 -1.000000 -0.000000
vn -0.000000 -1.000000 -0.000000
vn -0.000000 -1.000000 -0.000000
vn -0.791186 -0.016205 -0.611361
vn -0.791186 -0.016205 -0.611361
vn -0.791186 -0.016205 -0.611361
vn -0.791186 -0.016205 -0.611361
vn 0.000000 1.000000 0.000000
vn 0.000000 1.000000 0.000000
vn -0.000000 -1.000000 0.000000
vn -0.000000 -1.000000 0.000000
vn -0.000000 -1.000000 0.000000
vn -0.000000 -1.000000 0.000000
vn 0.127988 0.000000 0.991776
vn 0.127988 0.000000 0.991776
vn 0.127988 0.000000 0.991776
vn 0.127988 0.000000 0.991776
vn 0.000000 -1.000000 0.000000
vn 0.000000 -1.000000 0.000000
vn 0.000000 -1.000000 -0.000000
vn 0.000000 -1.000000 0.000000
vn 0.000000 -1.000000 0.000000
vn 0.000000 -1.000000 0.000000
vn 0.000000 -1.000000 0.000000
vn 0.000000 -1.000000 0.000000
vn 0.814575 -0.006121 -0.580025
vn 0.812949 -0.006062 -0.582303
vn 0.895986 -0.009390 -0.443984
vn 0.895986 -0.009390 -0.443984
vn 0.000000 1.000000 0.000000
vn 0.000000 1.000000 0.000000
vn 0.000000 1.000000 0.000000
vn 0.000000 1.000000 0.000000
vn 0.000000 1.000000 -0.000000
vn 0.000000 1.000000 -0.000000
vn 0.000000 1.000000 -0.000000
vn 0.000000 1.000000 -0.000000
vn -0.890386 -0.050092 0.452441
vn -0.892164 -0.050304 0.448902
vn -0.650039 -0.025671 0.759467
vn -0.650039 -0.025671 0.759467
vn 0.000000 -1.000000 -0.000000
vn 0.000000 -1.000000 -0.000000
vn 0.000000 -1.000000 0.000000
vn 0.000000 -1.000000 0.000000
vn -0.996561 -0.067712 0.047761
vn -0.996561 -0.067712 0.047761
vn 0.000000 1.000000 0.000000
vn 0.000000 1.000000 0.000000
vn 0.000000 1.000000 0.000000
vn 0.000000 1.000000 0.000000
vn 0.725243 -0.003093 -0.688487
vn 0.725242 -0.003093 -0.688487
s 1
g pPlane2
usemtl pPlane1SG
f 73/75/1 74/76/2 75/77/3
f 74/76/2 76/78/4 75/77/3
s 2
f 77/80/5 78/79/6 76/78/7
f 76/78/7 78/79/6 75/77/8
s off
f 81/83/9 82/84/10 83/85/11
f 131/133/12 130/132/13 132/134/14
s 3
f 134/139/15 133/138/16 135/136/17
f 135/136/17 133/138/16 136/137/18
s 4
f 133/138/19 134/139/20 137/140/21
f 137/140/21 134/139/20 138/141/22
f 138/141/22 134/139/20 139/142/23
f 139/142/23 134/139/20 140/143/24
f 140/143/24 134/139/20 141/144/25
f 141/144/25 134/139/20 142/145/26
f 142/145/26 134/139/20 143/146/27
s 5
f 84/101/28 85/100/29 86/98/30
f 86/98/30 85/100/29 87/99/31
f 85/100/29 88/102/32 87/99/31
f 87/99/31 88/102/32 89/104/33
f 88/102/32 90/105/34 89/104/33
f 90/105/34 91/106/35 89/104/33
f 91/106/35 92/107/36 89/104/33
f 89/104/33 92/107/36 93/108/37
f 92/107/36 94/109/38 93/108/37
f 96/117/39 95/112/40 97/115/41
f 97/115/41 95/112/40 98/113/42
f 93/108/37 94/109/38 99/110/43
f 94/109/38 100/111/44 99/110/43
f 99/110/43 100/111/44 95/112/40
f 95/112/40 100/111/44 98/113/42
f 98/113/42 100/111/44 101/114/45
f 101/114/45 100/111/44 102/116/46
f 100/111/44 103/118/47 102/116/46
f 102/116/46 103/118/47 104/119/48
f 103/118/47 105/120/49 104/119/48
f 104/119/48 105/120/49 106/121/50
f 105/120/49 107/122/51 106/121/50
f 106/121/50 107/122/51 108/123/52
f 108/123/52 107/122/51 109/124/53
f 109/124/53 107/122/51 110/125/54
f 110/125/54 107/122/51 111/126/55
f 111/126/55 107/122/51 112/127/56
f 112/127/56 107/122/51 113/128/57
f 113/128/57 107/122/51 114/129/58
f 107/122/51 115/130/59 114/129/58
f 115/130/59 116/131/60 114/129/58
s 7
f 160/328/61 117/103/62 151/319/63
f 117/103/62 85/100/64 151/319/63
f 151/319/63 85/100/64 150/318/65
f 85/100/64 84/101/66 150/318/65
f 150/318/65 84/101/66 149/317/67
f 149/317/67 84/101/66 148/316/68
f 145/313/69 153/321/70 84/101/66
f 84/101/66 153/321/70 148/316/68
s 8
f 136/137/71 144/135/72 135/136/73
f 135/136/73 144/135/72 132/134/74
f 144/135/72 131/133/75 132/134/74
s 2
f 77/80/5 79/81/76 78/79/6
f 78/79/6 79/81/76 80/82/77
s 9
f 119/88/78 118/87/79 83/85/80
f 118/87/79 120/86/81 83/85/80
f 120/86/81 81/83/82 83/85/80
s 10
f 118/87/83 119/88/84 121/89/85
f 119/88/84 122/90/86 121/89/85
s 11
f 121/89/87 122/90/88 123/91/89
f 123/91/89 122/90/88 124/92/90
f 122/90/88 125/93/91 124/92/90
f 125/93/91 126/95/92 124/92/90
s 12
f 128/97/93 127/94/94 129/96/95
f 129/96/95 127/94/94 124/92/96
f 127/94/94 123/91/97 124/92/96
s 13
f 87/99/98 128/97/99 86/98/100
f 86/98/100 128/97/99 129/96/101
s off
f 50/147/102 49/149/103 57/148/104
f 57/148/105 49/149/106 58/150/107
s 14
f 60/152/108 58/150/109 61/151/110
f 58/150/109 49/149/111 61/151/110
s off
f 2/155/112 52/157/113 51/156/114
f 1/205/115 10/206/116 11/204/117
s 15
f 8/211/118 7/208/119 14/210/120
f 7/208/119 13/209/121 14/210/120
s 16
f 14/210/122 16/212/123 8/211/124
f 16/212/123 17/213/125 8/211/124
f 17/213/125 18/214/126 8/211/124
f 18/214/126 19/215/127 8/211/124
f 19/215/127 20/216/128 8/211/124
f 20/216/128 15/217/129 8/211/124
f 15/217/129 9/218/130 8/211/124
s off
f 3/173/131 4/170/132 22/172/133 159/327/134
s 17
f 4/170/135 67/171/136 22/172/137
f 22/172/137 67/171/136 46/174/138
f 67/171/136 72/176/139 46/174/138
f 46/174/138 72/176/139 45/177/140
f 45/177/140 72/176/139 44/178/141
f 44/178/141 72/176/139 43/179/142
f 72/176/139 71/180/143 43/179/142
f 43/179/142 71/180/143 42/181/144
f 21/189/145 23/187/146 68/184/147
f 23/187/146 24/185/148 68/184/147
f 71/180/143 70/182/149 42/181/144
f 42/181/144 70/182/149 41/183/150
f 70/182/149 68/184/147 41/183/150
f 68/184/147 24/185/148 41/183/150
f 24/185/148 25/186/151 41/183/150
f 25/186/151 26/188/152 41/183/150
f 41/183/150 26/188/152 40/190/153
f 26/188/152 27/191/154 40/190/153
f 40/190/153 27/191/154 39/192/155
f 27/191/154 28/193/156 39/192/155
f 39/192/155 28/193/156 38/194/157
f 28/193/156 29/195/158 38/194/157
f 29/195/158 30/196/159 38/194/157
f 30/196/159 31/197/160 38/194/157
f 31/197/160 32/198/161 38/194/157
f 32/198/161 33/199/162 38/194/157
f 33/199/162 34/200/163 38/194/157
f 34/200/163 35/201/164 38/194/157
f 38/194/157 35/201/164 37/202/165
f 37/202/165 35/201/164 36/203/166
s 19
f 163/331/167 47/175/168 152/320/169
s 20
f 13/209/170 7/208/171 12/207/172
f 7/208/171 10/206/173 12/207/172
f 12/207/172 10/206/173 1/205/174
s 14
f 60/152/108 61/151/110 59/153/175
f 61/151/110 48/154/176 59/153/175
s 21
f 53/160/177 52/157/178 63/159/179
f 63/159/179 52/157/178 62/158/180
f 62/158/180 52/157/178 2/155/181
s off
f 63/159/182 64/161/183 53/160/184
f 53/160/185 64/161/186 54/162/187
s 22
f 64/161/188 65/163/189 54/162/190
f 65/163/189 6/164/191 54/162/190
f 54/162/190 6/164/191 56/165/192
f 56/165/192 6/164/191 55/167/193
s 23
f 66/169/194 5/168/195 69/166/196
f 5/168/195 6/164/197 69/166/196
f 69/166/196 6/164/197 65/163/198
s 24
f 67/171/199 4/170/200 66/169/201
f 4/170/200 5/168/202 66/169/201
s 25
f 50/219/203 57/220/204 73/222/205
f 73/222/205 57/220/204 74/221/206
s 26
f 49/303/207 50/304/208 75/306/209
f 75/306/209 50/304/208 73/305/210
s 27
f 57/220/211 58/223/212 74/221/213
f 74/221/213 58/223/212 76/224/214
s 28
f 58/223/215 60/225/216 76/224/217
f 76/224/217 60/225/216 77/226/218
s 29
f 61/307/219 49/303/220 78/308/221
f 78/308/221 49/303/220 75/306/222
s 30
f 60/225/223 59/227/224 77/226/225
f 77/226/225 59/227/224 79/228/226
s 31
f 59/311/227 48/309/228 79/312/229
f 79/312/229 48/309/228 80/310/230
s 32
f 48/309/231 61/307/232 80/310/233
f 80/310/233 61/307/232 78/308/234
s 33
f 2/229/235 51/230/236 81/232/237
f 81/232/237 51/230/236 82/231/238
s 34
f 51/230/239 52/233/240 82/231/241
f 82/231/241 52/233/240 83/234/242
s 35
f 4/249/243 3/251/244 86/250/245
f 86/250/245 3/251/244 84/101/246
s 36
f 22/252/247 46/253/248 85/255/249
f 85/255/249 46/253/248 88/254/250
s 37
f 72/49/251 67/47/252 89/50/253
f 89/50/253 67/47/252 87/48/254
s 38
f 46/253/255 45/256/256 88/254/257
f 88/254/257 45/256/256 90/257/258
s 39
f 45/256/259 44/259/260 90/257/261
f 90/257/261 44/259/260 91/260/262
s 40
f 44/259/263 43/261/264 91/260/265
f 91/260/265 43/261/264 92/262/266
s 41
f 71/269/267 72/270/268 93/272/269
f 93/272/269 72/270/268 89/271/270
s 42
f 43/261/271 42/263/272 92/262/273
f 92/262/273 42/263/272 94/264/274
s 43
f 21/277/275 68/275/276 96/278/277
f 96/278/277 68/275/276 95/276/278
s 44
f 23/1/279 21/2/280 97/4/281
f 97/4/281 21/2/280 96/3/282
s 45
f 24/5/283 23/1/284 98/6/285
f 98/6/285 23/1/284 97/4/286
s 46
f 70/273/287 71/269/288 99/274/289
f 99/274/289 71/269/288 93/272/290
s 47
f 42/263/291 41/265/292 94/264/293
f 94/264/293 41/265/292 100/266/294
s 48
f 68/275/295 70/273/296 95/276/297
f 95/276/297 70/273/296 99/274/298
s 49
f 25/7/299 24/5/300 101/8/301
f 101/8/301 24/5/300 98/6/302
s 50
f 26/9/303 25/7/304 102/10/305
f 102/10/305 25/7/304 101/8/306
s 51
f 41/265/307 40/267/308 100/266/309
f 100/266/309 40/267/308 103/268/310
s 52
f 27/11/311 26/9/312 104/12/313
f 104/12/313 26/9/312 102/10/314
s 53
f 40/15/315 39/16/316 103/18/317
f 103/18/317 39/16/316 105/17/318
s 54
f 28/13/319 27/11/320 106/14/321
f 106/14/321 27/11/320 104/12/322
s 55
f 39/16/323 38/19/324 105/17/325
f 105/17/325 38/19/324 107/20/326
s 56
f 29/279/327 28/280/328 108/282/329
f 108/282/329 28/280/328 106/281/330
s 57
f 30/25/331 29/26/332 109/28/333
f 109/28/333 29/26/332 108/27/334
s 58
f 31/29/335 30/25/336 110/30/337
f 110/30/337 30/25/336 109/28/338
s 59
f 32/31/339 31/29/340 111/32/341
f 111/32/341 31/29/340 110/30/342
s 60
f 33/33/343 32/31/344 112/34/345
f 112/34/345 32/31/344 111/32/346
s 61
f 34/283/347 33/284/348 113/286/349
f 113/286/349 33/284/348 112/285/350
s 62
f 35/287/351 34/283/352 114/288/353
f 114/288/353 34/283/352 113/286/354
s 63
f 38/19/355 37/21/356 107/20/357
f 107/20/357 37/21/356 115/22/358
s 64
f 37/21/359 36/23/360 115/22/361
f 115/22/361 36/23/360 116/24/362
s 65
f 36/289/363 35/287/364 116/290/365
f 116/290/365 35/287/364 114/288/366
s 66
f 47/258/367 22/252/368 117/103/369
f 117/103/369 22/252/368 85/255/370
s 67
f 52/233/371 53/237/372 83/234/373
f 83/234/373 53/237/372 119/238/374
s 68
f 63/35/375 62/36/376 118/38/377
f 118/38/377 62/36/376 120/37/378
s 69
f 62/235/379 2/229/380 120/236/381
f 120/236/381 2/229/380 81/232/382
s 70
f 64/39/383 63/35/384 121/40/385
f 121/40/385 63/35/384 118/38/386
s 71
f 53/237/387 54/239/388 119/238/389
f 119/238/389 54/239/388 122/240/390
s 72
f 65/41/391 64/39/392 123/42/393
f 123/42/393 64/39/392 121/40/394
s 73
f 54/239/395 56/241/396 122/240/397
f 122/240/397 56/241/396 125/242/398
s 74
f 56/241/399 55/243/400 125/242/401
f 125/242/401 55/243/400 126/244/402
s 75
f 55/243/403 6/245/404 126/244/405
f 126/244/405 6/245/404 124/246/406
s 76
f 66/45/407 69/43/408 128/46/409
f 128/46/409 69/43/408 127/44/410
s 77
f 6/245/411 5/247/412 124/246/413
f 124/246/413 5/247/412 129/248/414
s 78
f 69/43/415 65/41/416 127/44/417
f 127/44/417 65/41/416 123/42/418
s 79
f 67/47/419 66/45/420 87/48/421
f 87/48/421 66/45/420 128/46/422
s 80
f 5/247/423 4/249/424 129/248/425
f 129/248/425 4/249/424 86/250/426
s 81
f 11/294/427 10/295/428 130/132/429
f 130/132/429 10/295/428 132/296/430
s 82
f 7/51/431 8/52/432 135/54/433
f 135/54/433 8/52/432 134/53/434
s 83
f 14/61/435 13/65/436 133/62/437
f 133/62/437 13/65/436 136/66/438
s 84
f 16/58/439 14/61/440 137/59/441
f 137/59/441 14/61/440 133/62/442
s 85
f 17/57/443 16/58/444 138/60/445
f 138/60/445 16/58/444 137/59/446
s 86
f 18/63/447 17/57/448 139/64/449
f 139/64/449 17/57/448 138/60/450
s 87
f 19/67/451 18/63/452 140/68/453
f 140/68/453 18/63/452 139/64/454
s 88
f 20/71/455 19/67/456 141/72/457
f 141/72/457 19/67/456 140/68/458
s 89
f 15/73/459 20/71/460 142/74/461
f 142/74/461 20/71/460 141/72/462
s 90
f 8/52/463 9/55/464 134/53/465
f 134/53/465 9/55/464 143/56/466
s 91
f 9/299/467 15/300/468 143/302/469
f 143/302/469 15/300/468 142/301/470
s 92
f 13/65/471 12/69/472 136/66/473
f 136/66/473 12/69/472 144/70/474
s 93
f 10/295/475 7/297/476 132/296/477
f 132/296/477 7/297/476 135/298/478
s 94
f 12/292/479 1/291/480 144/293/481
f 144/293/481 1/291/480 131/133/482
s 95
f 152/320/483 47/258/484 146/314/485
f 146/314/485 47/258/484 117/103/486
s 96
f 11/294/487 130/132/488 1/291/489
f 1/291/489 130/132/488 131/133/490
s 97
f 84/101/491 3/251/492 145/313/493
f 145/313/493 3/251/492 147/315/494
s off
f 150/318/495 149/317/496 156/324/497 155/323/498
f 151/319/499 150/318/500 155/323/501 154/322/502
s 19
f 3/173/503 157/325/504 147/315/505
f 3/173/503 158/326/506 157/325/504
f 159/327/507 156/324/508 158/326/506 3/173/503
s off
f 149/317/509 148/316/510 158/326/511 156/324/512
s 7
f 161/329/513 117/103/62 160/328/61
f 146/314/514 117/103/62 161/329/513
s 19
f 22/172/515 47/175/168 162/330/516 154/322/517 155/323/518 156/324/508 159/327/507
f 162/330/516 47/175/168 163/331/167
s off
f 160/328/519 151/319/520 154/322/521 162/330/522
s 99
f 163/331/523 152/320/524 164/332/525 165/333/526
s 100
f 165/333/527 166/334/528 162/330/529 163/331/530
s 101
f 169/337/531 164/332/532 152/320/533 146/314/534
s 102
f 168/336/535 169/337/536 146/314/537 161/329/538
s 103
f 167/335/539 168/336/540 161/329/541 160/328/542
s 104
f 166/334/543 167/335/544 160/328/545 162/330/546
s 99
f 165/333/526 164/332/525 147/315/547 157/325/548
s 100
f 157/325/549 158/326/550 166/334/528 165/333/527
s 104
f 158/326/551 148/316/552 167/335/544 166/334/543
s 103
f 148/316/553 153/321/554 168/336/540 167/335/539
s 102
f 153/321/555 145/313/556 169/337/536 168/336/535
s 101
f 145/313/557 147/315/558 164/332/532 169/337/531
