# This file uses centimeters as units for non-parametric coordinates.

mtllib PlankShort.mtl
g default
v -2.020850 -0.155350 0.536334
v -2.020850 -0.139816 0.551867
v -2.026937 -0.139816 0.536334
v 2.026937 -0.139816 0.536334
v 2.020850 -0.155350 0.536334
v -2.026937 0.139816 0.536334
v -2.020850 0.139816 0.551867
v -2.020850 0.155350 0.536334
v 2.020850 0.155350 0.536334
v 2.026937 0.139816 0.536334
v -2.026937 0.139816 -0.536334
v -2.020850 0.155350 -0.536334
v -2.020850 0.139816 -0.551867
v 2.020850 0.139816 -0.551867
v 2.020850 0.155350 -0.536334
v 2.026937 0.139816 -0.536334
v -2.026937 -0.139816 -0.536334
v -2.020850 -0.139816 -0.551867
v -2.020850 -0.155350 -0.536334
v 2.020850 -0.155350 -0.536334
v 2.020850 -0.139816 -0.551867
v 2.026937 -0.139816 -0.536334
v 0.000000 -0.155350 0.536334
v 0.000000 -0.139816 0.551867
v 0.000000 0.139816 0.551867
v 0.000000 0.155350 0.536334
v 0.000000 0.155350 -0.536334
v 0.000000 0.139816 -0.551867
v 0.000000 -0.139816 -0.551867
v 0.000000 -0.155350 -0.536334
v 1.010425 -0.139816 0.551867
v 1.010425 -0.155350 0.536334
v 1.010425 -0.155350 -0.536334
v 1.010425 -0.139816 -0.551867
v 1.010425 0.139816 -0.551867
v 1.010425 0.155350 -0.536334
v 1.010425 0.155350 0.536334
v 1.010425 0.139816 0.551867
v -1.010425 -0.155350 0.536334
v -1.010425 -0.139816 0.551867
v -1.010425 0.139816 0.551867
v -1.010425 0.155350 0.536334
v -1.010425 0.155350 -0.536334
v -1.010425 0.139816 -0.551867
v -1.010425 -0.139816 -0.551867
v -1.010425 -0.155350 -0.536334
v -2.026937 -0.139816 0.000000
v -2.020850 -0.155350 0.000000
v -1.010425 -0.155350 0.000000
v 0.000000 -0.155350 0.000000
v 1.010425 -0.155350 0.000000
v 2.020850 -0.155350 0.000000
v 2.026937 -0.139816 0.000000
v 2.026937 0.139816 0.000000
v 2.020850 0.155350 0.000000
v 1.010425 0.155350 0.000000
v 0.000000 0.155350 0.000000
v -1.010425 0.155350 0.000000
v -2.020850 0.155350 0.000000
v -2.026937 0.139816 0.000000
v 2.020850 -0.139816 0.551867
v 2.020850 0.139816 0.551867
vt 0.403626 0.464062
vt 0.307626 0.247337
vt 0.333650 0.247193
vt 0.377501 0.464076
vt 0.404529 0.464283
vt 0.333650 0.233847
vt 0.307626 0.233619
vt 0.351663 0.463437
vt 0.351663 0.462657
vt 0.305876 0.233810
vt 0.359559 0.233329
vt 0.307626 0.232650
vt 0.333650 0.233223
vt 0.359400 0.247043
vt 0.359559 0.232360
vt 0.360516 0.232545
vt 0.403626 0.267686
vt 0.403626 0.268612
vt 0.377501 0.268094
vt 0.377501 0.267409
vt 0.351663 0.268510
vt 0.351663 0.267612
vt 0.333650 0.036008
vt 0.403626 0.254064
vt 0.350704 0.268307
vt 0.359559 0.037674
vt 0.307626 0.036133
vt 0.333650 0.036815
vt 0.354302 0.253989
vt 0.359559 0.038449
vt 0.307626 0.183723
vt 0.333650 0.183841
vt 0.333650 0.134956
vt 0.307626 0.134775
vt 0.359559 0.184264
vt 0.359559 0.135138
vt 0.333650 0.086070
vt 0.307626 0.085618
vt 0.359559 0.086222
vt 0.377501 0.414800
vt 0.403626 0.416062
vt 0.351663 0.413841
vt 0.377501 0.366030
vt 0.403626 0.366981
vt 0.351663 0.365040
vt 0.377501 0.317268
vt 0.403626 0.317929
vt 0.351663 0.316194
vt 0.554069 0.267777
vt 0.404529 0.367019
vt 0.306542 0.183742
vt 0.456494 0.267637
vt 0.306542 0.134769
vt 0.456494 0.254135
vt 0.408297 0.233239
vt 0.360516 0.135145
vt 0.350704 0.413828
vt 0.360516 0.086209
vt 0.350704 0.365004
vt 0.360516 0.038294
vt 0.506091 0.246226
vt 0.377501 0.254027
vt 0.351663 0.253990
vt 0.360516 0.184296
vt 0.359400 0.233511
vt 0.554069 0.254275
vt 0.505281 0.254205
vt 0.306542 0.085603
vt 0.506091 0.232694
vt 0.457194 0.232966
vt 0.307626 0.035324
vt 0.306542 0.232822
vt 0.377501 0.464884
vt 0.359559 0.247048
vt 0.408297 0.246771
vt 0.457194 0.246498
vt 0.404529 0.416130
vt 0.305876 0.247342
vt 0.350704 0.316136
vt 0.354302 0.267491
vt 0.404529 0.317956
vt 0.505281 0.267707
vt 0.350704 0.462798
vt 0.403626 0.464846
vt 0.407706 0.267567
vt 0.404529 0.268631
vt 0.403626 0.267898
vt 0.306542 0.036110
vt 0.407706 0.254065
vt 0.307626 0.035401
vt 0.305514 0.267421
vt 0.305514 0.253919
vt 0.256979 0.247614
vt 0.256979 0.234082
vn -0.931066 -0.364852 0.000000
vn -0.931066 -0.364852 0.000000
vn -0.931066 -0.364852 0.000000
vn -0.931066 -0.364852 0.000000
vn 0.000000 -0.707105 0.707109
vn 0.000000 -0.707105 0.707109
vn 0.000000 -0.707105 0.707109
vn 0.000000 -0.707105 0.707109
vn -0.931064 0.000000 0.364857
vn -0.931064 0.000000 0.364857
vn -0.931064 0.000000 0.364857
vn -0.931064 0.000000 0.364857
vn 0.931070 -0.364840 0.000000
vn 0.931070 -0.364840 0.000000
vn 0.931068 -0.364846 0.000000
vn 0.931068 -0.364846 0.000000
vn 0.931066 0.000000 0.364850
vn 0.931066 0.000000 0.364850
vn 0.931066 0.000000 0.364850
vn 0.931066 0.000000 0.364850
vn -0.931066 0.364852 0.000000
vn -0.931066 0.364852 0.000000
vn -0.931066 0.364852 0.000000
vn -0.931066 0.364852 0.000000
vn 0.000000 0.707105 0.707109
vn 0.000000 0.707105 0.707109
vn 0.000000 0.707105 0.707109
vn 0.000000 0.707105 0.707109
vn 0.931070 0.364840 0.000000
vn 0.931070 0.364840 0.000000
vn 0.931068 0.364846 0.000000
vn 0.931068 0.364846 0.000000
vn -0.931064 0.000000 -0.364857
vn -0.931064 0.000000 -0.364857
vn -0.931064 0.000000 -0.364857
vn -0.931064 0.000000 -0.364857
vn 0.000000 0.707105 -0.707109
vn 0.000000 0.707105 -0.707109
vn 0.000000 0.707105 -0.707109
vn 0.000000 0.707105 -0.707109
vn 0.931064 0.000000 -0.364857
vn 0.931064 0.000000 -0.364857
vn 0.931064 0.000000 -0.364857
vn 0.931064 0.000000 -0.364857
vn 0.000000 -0.707105 -0.707109
vn 0.000000 -0.707105 -0.707109
vn 0.000000 -0.707105 -0.707109
vn 0.000000 -0.707105 -0.707109
vn 0.000000 0.000000 1.000000
vn 0.000000 0.000000 1.000000
vn 0.000000 0.000000 1.000000
vn 0.000000 0.000000 1.000000
vn 0.000000 1.000000 0.000000
vn 0.000000 1.000000 0.000000
vn 0.000000 1.000000 0.000000
vn 0.000000 1.000000 0.000000
vn 0.000000 0.000000 -1.000000
vn 0.000000 0.000000 -1.000000
vn 0.000000 0.000000 -1.000000
vn 0.000000 0.000000 -1.000000
vn 0.000000 -1.000000 0.000000
vn 0.000000 -1.000000 0.000000
vn 0.000000 -1.000000 0.000000
vn 0.000000 -1.000000 0.000000
vn 1.000000 0.000000 0.000000
vn 1.000000 0.000000 0.000000
vn 1.000000 0.000000 0.000000
vn 1.000000 0.000000 0.000000
vn -1.000000 0.000000 0.000000
vn -1.000000 0.000000 0.000000
vn -1.000000 0.000000 0.000000
vn -1.000000 0.000000 0.000000
vn -0.874661 -0.342764 0.342755
vn -0.874661 -0.342764 0.342755
vn -0.874661 -0.342764 0.342755
vn 0.874666 -0.342758 0.342749
vn 0.874666 -0.342758 0.342749
vn 0.874666 -0.342758 0.342749
vn -0.874661 0.342764 0.342755
vn -0.874661 0.342764 0.342755
vn -0.874661 0.342764 0.342755
vn 0.874666 0.342758 0.342749
vn 0.874666 0.342758 0.342749
vn 0.874666 0.342758 0.342749
vn -0.874661 0.342764 -0.342755
vn -0.874661 0.342764 -0.342755
vn -0.874661 0.342764 -0.342755
vn 0.874661 0.342764 -0.342755
vn 0.874661 0.342764 -0.342755
vn 0.874661 0.342764 -0.342755
vn -0.874661 -0.342764 -0.342755
vn -0.874661 -0.342764 -0.342755
vn -0.874661 -0.342764 -0.342755
vn 0.874661 -0.342764 -0.342755
vn 0.874661 -0.342764 -0.342755
vn 0.874661 -0.342764 -0.342755
vn 0.000000 -0.707105 0.707109
vn 0.000000 -0.707105 0.707109
vn 0.000000 -0.707105 0.707109
vn 0.000000 -0.707105 0.707109
vn 0.000000 0.000000 1.000000
vn 0.000000 0.000000 1.000000
vn 0.000000 0.000000 1.000000
vn 0.000000 0.000000 1.000000
vn 0.000000 0.707105 0.707109
vn 0.000000 0.707105 0.707109
vn 0.000000 0.707105 0.707109
vn 0.000000 0.707105 0.707109
vn 0.000000 1.000000 0.000000
vn 0.000000 1.000000 0.000000
vn 0.000000 1.000000 0.000000
vn 0.000000 1.000000 0.000000
vn 0.000000 0.707105 -0.707109
vn 0.000000 0.707105 -0.707109
vn 0.000000 0.707105 -0.707109
vn 0.000000 0.707105 -0.707109
vn 0.000000 0.000000 -1.000000
vn 0.000000 0.000000 -1.000000
vn 0.000000 0.000000 -1.000000
vn 0.000000 0.000000 -1.000000
vn 0.000000 -0.707105 -0.707109
vn 0.000000 -0.707105 -0.707109
vn 0.000000 -0.707105 -0.707109
vn 0.000000 -0.707105 -0.707109
vn 0.000000 -1.000000 0.000000
vn 0.000000 -1.000000 0.000000
vn 0.000000 -1.000000 0.000000
vn 0.000000 -1.000000 0.000000
vn 0.000000 -0.707105 0.707109
vn 0.000000 -0.707105 0.707109
vn 0.000000 -1.000000 0.000000
vn 0.000000 -1.000000 0.000000
vn 0.000000 -0.707105 -0.707109
vn 0.000000 -0.707105 -0.707109
vn 0.000000 0.000000 -1.000000
vn 0.000000 0.000000 -1.000000
vn 0.000000 0.707105 -0.707109
vn 0.000000 0.707105 -0.707109
vn 0.000000 1.000000 0.000000
vn 0.000000 1.000000 0.000000
vn 0.000000 0.707105 0.707109
vn 0.000000 0.707105 0.707109
vn 0.000000 0.000000 1.000000
vn 0.000000 0.000000 1.000000
vn -0.931066 -0.364852 0.000000
vn -0.931066 -0.364852 0.000000
vn 0.000000 -1.000000 0.000000
vn 0.000000 -1.000000 0.000000
vn 0.000000 -1.000000 0.000000
vn 0.000000 -1.000000 0.000000
vn 0.000000 -1.000000 0.000000
vn 0.931066 -0.364852 0.000000
vn 0.931066 -0.364852 0.000000
vn 1.000000 0.000000 0.000000
vn 1.000000 0.000000 0.000000
vn 0.931066 0.364852 0.000000
vn 0.931066 0.364852 0.000000
vn 0.000000 1.000000 0.000000
vn 0.000000 1.000000 0.000000
vn 0.000000 1.000000 0.000000
vn 0.000000 1.000000 0.000000
vn 0.000000 1.000000 0.000000
vn -0.931066 0.364852 0.000000
vn -0.931066 0.364852 0.000000
vn -1.000000 0.000000 0.000000
vn -1.000000 0.000000 0.000000
s 1
g PlankShortLow
usemtl initialShadingGroup
f 1/1/1 3/84/2 47/73/3 48/4/4
s 2
f 2/5/5 1/1/6 39/41/7 40/77/8
s off
f 3/2/9 2/78/10 7/10/11 6/7/12
s 3
f 4/17/13 5/18/14 52/19/15 53/20/16
s off
f 61/85/17 4/17/18 10/24/19 62/89/20
s 4
f 6/7/21 8/12/22 59/13/23 60/6/24
s 5
f 8/12/25 7/72/26 41/51/27 42/31/28
s 6
f 9/27/29 10/71/30 54/23/31 55/28/32
s off
f 11/11/33 13/65/34 18/14/35 17/74/36
s 7
f 13/16/37 12/15/38 43/35/39 44/64/40
s off
f 14/29/41 16/63/42 22/22/43 21/80/44
s 8
f 19/9/45 18/83/46 45/57/47 46/42/48
s 9
f 2/78/49 40/93/50 41/94/51 7/10/52
s 10
f 8/12/53 42/31/54 58/32/55 59/13/56
s 11
f 13/65/57 44/55/58 45/75/59 18/14/60
s 12
f 48/4/61 49/40/62 39/41/63 1/1/64
s 13
f 4/17/65 53/20/66 54/62/67 10/24/68
s 14
f 60/6/69 47/3/70 3/2/71 6/7/72
s off
f 1/1/73 2/5/74 3/84/75
f 4/17/76 61/87/77 5/18/78
f 6/7/79 7/72/80 8/12/81
f 9/27/82 62/90/83 10/71/84
f 11/11/85 12/15/86 13/16/87
f 14/60/88 15/30/89 16/26/90
f 17/8/91 18/83/92 19/9/93
f 20/21/94 21/25/95 22/22/96
s 2
f 31/81/97 32/47/98 5/18/99 61/86/100
s 9
f 38/54/101 31/52/102 61/85/103 62/89/104
s 5
f 37/38/105 38/68/106 62/88/107 9/27/108
s 10
f 55/28/109 56/37/110 37/38/111 9/27/112
s 7
f 35/58/113 36/39/114 15/30/115 14/60/116
s 11
f 34/91/117 35/92/118 14/29/119 21/80/120
s 8
f 33/48/121 34/79/122 21/25/123 20/21/124
s 12
f 32/47/125 51/46/126 52/19/127 5/18/128
s 2
f 24/50/129 23/44/130 32/47/98 31/81/97
s 12
f 23/44/131 50/43/132 51/46/126 32/47/125
s 8
f 30/45/133 29/59/134 34/79/122 33/48/121
s 11
f 29/76/135 28/70/136 35/69/118 34/61/117
s 7
f 28/56/137 27/36/138 36/39/114 35/58/113
s 10
f 56/37/110 57/33/139 26/34/140 37/38/111
s 5
f 26/34/141 25/53/142 38/68/106 37/38/105
s 9
f 25/67/143 24/82/144 31/52/102 38/54/101
s 2
f 40/77/8 39/41/7 23/44/130 24/50/129
s 9
f 41/66/51 40/49/50 24/82/144 25/67/143
s 5
f 42/31/28 41/51/27 25/53/142 26/34/141
s 10
f 57/33/139 58/32/55 42/31/54 26/34/140
s 7
f 44/64/40 43/35/39 27/36/138 28/56/137
s 11
f 45/75/59 44/55/58 28/70/136 29/76/135
s 8
f 46/42/48 45/57/47 29/59/134 30/45/133
s 12
f 39/41/63 49/40/62 50/43/132 23/44/131
s 1
f 48/4/4 47/73/3 17/8/145 19/9/146
s 12
f 19/9/147 46/42/148 49/40/62 48/4/61
f 50/43/132 49/40/62 46/42/148 30/45/149
f 51/46/126 50/43/132 30/45/149 33/48/150
f 52/19/127 51/46/126 33/48/150 20/21/151
s 3
f 53/20/16 52/19/15 20/21/152 22/22/153
s 13
f 54/62/67 53/20/66 22/22/154 16/63/155
s 6
f 55/28/32 54/23/31 16/26/156 15/30/157
s 10
f 36/39/158 56/37/110 55/28/109 15/30/159
f 27/36/160 57/33/139 56/37/110 36/39/158
f 43/35/161 58/32/55 57/33/139 27/36/160
f 59/13/56 58/32/55 43/35/161 12/15/162
s 4
f 60/6/24 59/13/23 12/15/163 11/11/164
s 14
f 17/74/165 47/3/70 60/6/69 11/11/166
