# This file uses centimeters as units for non-parametric coordinates.

mtllib Pole.mtl
g default
v -2.302278 -0.221313 0.185533
v -2.302278 -0.199184 0.190907
v -2.309212 -0.199184 0.185533
v 2.309212 -0.199184 0.185534
v 2.302278 -0.221313 0.185533
v -2.309212 0.199184 0.185533
v -2.302278 0.199184 0.190907
v -2.302278 0.221313 0.185533
v 2.302278 0.221313 0.185533
v 2.309212 0.199184 0.185534
v -2.309212 0.199184 -0.185533
v -2.302278 0.221313 -0.185533
v -2.302278 0.199184 -0.190907
v 2.302278 0.199184 -0.190907
v 2.302278 0.221313 -0.185533
v 2.309212 0.199184 -0.185533
v -2.309212 -0.199184 -0.185533
v -2.302278 -0.199184 -0.190907
v -2.302278 -0.221313 -0.185533
v 2.302278 -0.221313 -0.185533
v 2.302278 -0.199184 -0.190907
v 2.309212 -0.199184 -0.185533
v 0.000000 -0.221313 0.185533
v 0.000000 -0.199184 0.190907
v 0.000000 0.199184 0.190907
v 0.000000 0.221313 0.185533
v 0.000000 0.221313 -0.185533
v 0.000000 0.199184 -0.190907
v 0.000000 -0.199184 -0.190907
v 0.000000 -0.221313 -0.185533
v 1.151139 -0.199184 0.190907
v 1.151139 -0.221313 0.185533
v 1.151139 -0.221313 -0.185533
v 1.151139 -0.199184 -0.190907
v 1.151139 0.199184 -0.190907
v 1.151139 0.221313 -0.185533
v 1.151139 0.221313 0.185533
v 1.151139 0.199184 0.190907
v -1.151139 -0.221313 0.185533
v -1.151139 -0.199184 0.190907
v -1.151139 0.199184 0.190907
v -1.151139 0.221313 0.185533
v -1.151139 0.221313 -0.185533
v -1.151139 0.199184 -0.190907
v -1.151139 -0.199184 -0.190907
v -1.151139 -0.221313 -0.185533
v -2.309212 -0.199184 0.000000
v -2.302278 -0.221313 0.000000
v -1.151139 -0.221313 0.000000
v 0.000000 -0.221313 0.000000
v 1.151139 -0.221313 0.000000
v 2.302278 -0.221313 0.000000
v 2.309212 -0.199184 0.000000
v 2.309212 0.199184 0.000000
v 2.302278 0.221313 0.000000
v 1.151139 0.221313 0.000000
v 0.000000 0.221313 0.000000
v -1.151139 0.221313 0.000000
v -2.302278 0.221313 0.000000
v -2.309212 0.199184 0.000000
v 2.302278 -0.199184 0.190907
v 2.302278 0.199184 0.190907
vt 0.247437 0.253074
vt 0.807076 0.273790
vt 0.816166 0.273783
vt 0.238293 0.252877
vt 0.248575 0.253528
vt 0.816166 0.254726
vt 0.807076 0.254175
vt 0.228886 0.251682
vt 0.229400 0.250912
vt 0.805672 0.254454
vt 0.825860 0.254161
vt 0.807076 0.252990
vt 0.816166 0.253862
vt 0.825860 0.273776
vt 0.824999 0.252934
vt 0.825860 0.253245
vt 0.247437 0.027828
vt 0.247437 0.029077
vt 0.238293 0.028420
vt 0.238293 0.027424
vt 0.229400 0.028642
vt 0.228886 0.027473
vt 0.816166 0.028234
vt 0.247437 0.008248
vt 0.228886 0.028228
vt 0.825860 0.029863
vt 0.807076 0.028806
vt 0.816166 0.029357
vt 0.228886 0.007898
vt 0.824999 0.030722
vt 0.807076 0.197464
vt 0.816166 0.197538
vt 0.816166 0.141495
vt 0.807076 0.141494
vt 0.824999 0.197640
vt 0.824999 0.141506
vt 0.816166 0.085462
vt 0.807076 0.085441
vt 0.824999 0.085446
vt 0.238293 0.196566
vt 0.247437 0.197794
vt 0.229400 0.195399
vt 0.238293 0.140539
vt 0.247437 0.141673
vt 0.229400 0.139435
vt 0.238293 0.084528
vt 0.247437 0.085656
vt 0.229400 0.083341
vt 0.429963 0.030901
vt 0.248575 0.141819
vt 0.805904 0.197467
vt 0.317495 0.028778
vt 0.805904 0.141492
vt 0.317495 0.009317
vt 0.880407 0.254397
vt 0.825860 0.141508
vt 0.228886 0.195268
vt 0.825860 0.085441
vt 0.228886 0.139298
vt 0.825860 0.030465
vt 0.992152 0.273647
vt 0.238293 0.008077
vt 0.228886 0.007906
vt 0.825860 0.197655
vt 0.825860 0.254440
vt 0.429963 0.011440
vt 0.373729 0.010379
vt 0.805904 0.085438
vt 0.992152 0.254312
vt 0.936279 0.254355
vt 0.807076 0.027669
vt 0.805904 0.253273
vt 0.238293 0.254020
vt 0.825860 0.273776
vt 0.880407 0.273733
vt 0.936279 0.273690
vt 0.248575 0.197954
vt 0.805672 0.273790
vt 0.228886 0.083194
vt 0.228886 0.027358
vt 0.248575 0.085796
vt 0.373729 0.029839
vt 0.228886 0.251062
vt 0.247437 0.254016
vt 0.261261 0.027716
vt 0.248575 0.029213
vt 0.247437 0.028009
vt 0.805904 0.028799
vt 0.261261 0.008256
vt 0.807076 0.027733
vt 0.186043 0.026296
vt 0.186043 0.006836
vt 0.749799 0.273833
vt 0.749799 0.254497
vn -0.954242 -0.299037 0.000000
vn -0.954242 -0.299037 0.000000
vn -0.954242 -0.299037 0.000000
vn -0.954242 -0.299037 0.000000
vn 0.000000 -0.235965 0.971762
vn 0.000000 -0.235965 0.971762
vn 0.000000 -0.235965 0.971762
vn 0.000000 -0.235965 0.971762
vn -0.612505 0.000000 0.790467
vn -0.612505 0.000000 0.790467
vn -0.612505 0.000000 0.790467
vn -0.612505 0.000000 0.790467
vn 0.954242 -0.299037 0.000001
vn 0.954242 -0.299037 0.000001
vn 0.954242 -0.299037 0.000000
vn 0.954242 -0.299037 0.000000
vn 0.612510 0.000000 0.790463
vn 0.612510 0.000000 0.790463
vn 0.612510 0.000000 0.790463
vn 0.612510 0.000000 0.790463
vn -0.954242 0.299037 0.000000
vn -0.954242 0.299037 0.000000
vn -0.954242 0.299037 0.000000
vn -0.954242 0.299037 0.000000
vn 0.000000 0.235965 0.971762
vn 0.000000 0.235965 0.971762
vn 0.000000 0.235965 0.971762
vn 0.000000 0.235965 0.971762
vn 0.954242 0.299037 0.000001
vn 0.954242 0.299037 0.000001
vn 0.954242 0.299037 0.000000
vn 0.954242 0.299037 0.000000
vn -0.612505 0.000000 -0.790467
vn -0.612505 0.000000 -0.790467
vn -0.612505 0.000000 -0.790467
vn -0.612505 0.000000 -0.790467
vn 0.000000 0.235965 -0.971762
vn 0.000000 0.235965 -0.971762
vn 0.000000 0.235965 -0.971762
vn 0.000000 0.235965 -0.971762
vn 0.612505 0.000000 -0.790467
vn 0.612505 0.000000 -0.790467
vn 0.612505 0.000000 -0.790467
vn 0.612505 0.000000 -0.790467
vn 0.000000 -0.235965 -0.971762
vn 0.000000 -0.235965 -0.971762
vn 0.000000 -0.235965 -0.971762
vn 0.000000 -0.235965 -0.971762
vn 0.000000 0.000000 1.000000
vn 0.000000 0.000000 1.000000
vn 0.000000 0.000000 1.000000
vn 0.000000 0.000000 1.000000
vn 0.000000 1.000000 0.000000
vn 0.000000 1.000000 0.000000
vn 0.000000 1.000000 0.000000
vn 0.000000 1.000000 0.000000
vn 0.000000 0.000000 -1.000000
vn 0.000000 0.000000 -1.000000
vn 0.000000 0.000000 -1.000000
vn 0.000000 0.000000 -1.000000
vn 0.000000 -1.000000 0.000000
vn 0.000000 -1.000000 0.000000
vn 0.000000 -1.000000 0.000000
vn 0.000000 -1.000000 0.000000
vn 1.000000 0.000000 0.000001
vn 1.000000 0.000000 0.000001
vn 1.000000 0.000000 0.000001
vn 1.000000 0.000000 0.000001
vn -1.000000 0.000000 0.000000
vn -1.000000 0.000000 0.000000
vn -1.000000 0.000000 0.000000
vn -1.000000 0.000000 0.000000
vn -0.601524 -0.188499 0.776297
vn -0.601524 -0.188499 0.776297
vn -0.601524 -0.188499 0.776297
vn 0.601529 -0.188497 0.776294
vn 0.601529 -0.188497 0.776294
vn 0.601529 -0.188497 0.776294
vn -0.601524 0.188499 0.776297
vn -0.601524 0.188499 0.776297
vn -0.601524 0.188499 0.776297
vn 0.601529 0.188497 0.776294
vn 0.601529 0.188497 0.776294
vn 0.601529 0.188497 0.776294
vn -0.601524 0.188499 -0.776297
vn -0.601524 0.188499 -0.776297
vn -0.601524 0.188499 -0.776297
vn 0.601524 0.188499 -0.776297
vn 0.601524 0.188499 -0.776297
vn 0.601524 0.188499 -0.776297
vn -0.601524 -0.188499 -0.776297
vn -0.601524 -0.188499 -0.776297
vn -0.601524 -0.188499 -0.776297
vn 0.601524 -0.188499 -0.776297
vn 0.601524 -0.188499 -0.776297
vn 0.601524 -0.188499 -0.776297
vn 0.000000 -0.235965 0.971762
vn 0.000000 -0.235965 0.971762
vn 0.000000 -0.235965 0.971762
vn 0.000000 -0.235965 0.971762
vn 0.000000 0.000000 1.000000
vn 0.000000 0.000000 1.000000
vn 0.000000 0.000000 1.000000
vn 0.000000 0.000000 1.000000
vn 0.000000 0.235965 0.971762
vn 0.000000 0.235965 0.971762
vn 0.000000 0.235965 0.971762
vn 0.000000 0.235965 0.971762
vn 0.000000 1.000000 0.000000
vn 0.000000 1.000000 0.000000
vn 0.000000 1.000000 0.000000
vn 0.000000 1.000000 0.000000
vn 0.000000 0.235965 -0.971762
vn 0.000000 0.235965 -0.971762
vn 0.000000 0.235965 -0.971762
vn 0.000000 0.235965 -0.971762
vn 0.000000 0.000000 -1.000000
vn 0.000000 0.000000 -1.000000
vn 0.000000 0.000000 -1.000000
vn 0.000000 0.000000 -1.000000
vn 0.000000 -0.235965 -0.971762
vn 0.000000 -0.235965 -0.971762
vn 0.000000 -0.235965 -0.971762
vn 0.000000 -0.235965 -0.971762
vn 0.000000 -1.000000 0.000000
vn 0.000000 -1.000000 0.000000
vn 0.000000 -1.000000 0.000000
vn 0.000000 -1.000000 0.000000
vn 0.000000 -0.235965 0.971762
vn 0.000000 -0.235965 0.971762
vn 0.000000 -1.000000 0.000000
vn 0.000000 -1.000000 0.000000
vn 0.000000 -0.235965 -0.971762
vn 0.000000 -0.235965 -0.971762
vn 0.000000 0.000000 -1.000000
vn 0.000000 0.000000 -1.000000
vn 0.000000 0.235965 -0.971762
vn 0.000000 0.235965 -0.971762
vn 0.000000 1.000000 0.000000
vn 0.000000 1.000000 0.000000
vn 0.000000 0.235965 0.971762
vn 0.000000 0.235965 0.971762
vn 0.000000 0.000000 1.000000
vn 0.000000 0.000000 1.000000
vn -0.954242 -0.299037 0.000000
vn -0.954242 -0.299037 0.000000
vn 0.000000 -1.000000 0.000000
vn 0.000000 -1.000000 0.000000
vn 0.000000 -1.000000 0.000000
vn 0.000000 -1.000000 0.000000
vn 0.000000 -1.000000 0.000000
vn 0.954242 -0.299037 0.000000
vn 0.954242 -0.299037 0.000000
vn 1.000000 0.000000 0.000000
vn 1.000000 0.000000 0.000000
vn 0.954242 0.299037 0.000000
vn 0.954242 0.299037 0.000000
vn 0.000000 1.000000 0.000000
vn 0.000000 1.000000 0.000000
vn 0.000000 1.000000 0.000000
vn 0.000000 1.000000 0.000000
vn 0.000000 1.000000 0.000000
vn -0.954242 0.299037 0.000000
vn -0.954242 0.299037 0.000000
vn -1.000000 0.000000 0.000000
vn -1.000000 0.000000 0.000000
s 1
g Pillar
usemtl initialShadingGroup
f 1/1/1 3/84/2 47/73/3 48/4/4
s 2
f 2/5/5 1/1/6 39/41/7 40/77/8
s off
f 3/2/9 2/78/10 7/10/11 6/7/12
s 3
f 4/17/13 5/18/14 52/19/15 53/20/16
s off
f 61/85/17 4/17/18 10/24/19 62/89/20
s 4
f 6/7/21 8/12/22 59/13/23 60/6/24
s 5
f 8/12/25 7/72/26 41/51/27 42/31/28
s 6
f 9/27/29 10/71/30 54/23/31 55/28/32
s off
f 11/11/33 13/65/34 18/14/35 17/74/36
s 7
f 13/16/37 12/15/38 43/35/39 44/64/40
s off
f 14/29/41 16/63/42 22/22/43 21/80/44
s 8
f 19/9/45 18/83/46 45/57/47 46/42/48
s 9
f 2/78/49 40/93/50 41/94/51 7/10/52
s 10
f 8/12/53 42/31/54 58/32/55 59/13/56
s 11
f 13/65/57 44/55/58 45/75/59 18/14/60
s 12
f 48/4/61 49/40/62 39/41/63 1/1/64
s 13
f 4/17/65 53/20/66 54/62/67 10/24/68
s 14
f 60/6/69 47/3/70 3/2/71 6/7/72
s off
f 1/1/73 2/5/74 3/84/75
f 4/17/76 61/87/77 5/18/78
f 6/7/79 7/72/80 8/12/81
f 9/27/82 62/90/83 10/71/84
f 11/11/85 12/15/86 13/16/87
f 14/60/88 15/30/89 16/26/90
f 17/8/91 18/83/92 19/9/93
f 20/21/94 21/25/95 22/22/96
s 2
f 31/81/97 32/47/98 5/18/99 61/86/100
s 9
f 38/54/101 31/52/102 61/85/103 62/89/104
s 5
f 37/38/105 38/68/106 62/88/107 9/27/108
s 10
f 55/28/109 56/37/110 37/38/111 9/27/112
s 7
f 35/58/113 36/39/114 15/30/115 14/60/116
s 11
f 34/91/117 35/92/118 14/29/119 21/80/120
s 8
f 33/48/121 34/79/122 21/25/123 20/21/124
s 12
f 32/47/125 51/46/126 52/19/127 5/18/128
s 2
f 24/50/129 23/44/130 32/47/98 31/81/97
s 12
f 23/44/131 50/43/132 51/46/126 32/47/125
s 8
f 30/45/133 29/59/134 34/79/122 33/48/121
s 11
f 29/76/135 28/70/136 35/69/118 34/61/117
s 7
f 28/56/137 27/36/138 36/39/114 35/58/113
s 10
f 56/37/110 57/33/139 26/34/140 37/38/111
s 5
f 26/34/141 25/53/142 38/68/106 37/38/105
s 9
f 25/67/143 24/82/144 31/52/102 38/54/101
s 2
f 40/77/8 39/41/7 23/44/130 24/50/129
s 9
f 41/66/51 40/49/50 24/82/144 25/67/143
s 5
f 42/31/28 41/51/27 25/53/142 26/34/141
s 10
f 57/33/139 58/32/55 42/31/54 26/34/140
s 7
f 44/64/40 43/35/39 27/36/138 28/56/137
s 11
f 45/75/59 44/55/58 28/70/136 29/76/135
s 8
f 46/42/48 45/57/47 29/59/134 30/45/133
s 12
f 39/41/63 49/40/62 50/43/132 23/44/131
s 1
f 48/4/4 47/73/3 17/8/145 19/9/146
s 12
f 19/9/147 46/42/148 49/40/62 48/4/61
f 50/43/132 49/40/62 46/42/148 30/45/149
f 51/46/126 50/43/132 30/45/149 33/48/150
f 52/19/127 51/46/126 33/48/150 20/21/151
s 3
f 53/20/16 52/19/15 20/21/152 22/22/153
s 13
f 54/62/67 53/20/66 22/22/154 16/63/155
s 6
f 55/28/32 54/23/31 16/26/156 15/30/157
s 10
f 36/39/158 56/37/110 55/28/109 15/30/159
f 27/36/160 57/33/139 56/37/110 36/39/158
f 43/35/161 58/32/55 57/33/139 27/36/160
f 59/13/56 58/32/55 43/35/161 12/15/162
s 4
f 60/6/24 59/13/23 12/15/163 11/11/164
s 14
f 17/74/165 47/3/70 60/6/69 11/11/166
