# This file uses centimeters as units for non-parametric coordinates.

mtllib Stairs.mtl
g default
v -2.083990 2.217049 -2.217048
v 2.083990 2.217049 -2.217048
v -2.083990 -2.217050 -2.217048
v 2.083990 -2.217050 -2.217048
v -2.083990 -2.217050 2.217048
v 2.083990 -2.217050 2.217048
v 2.083990 -1.330230 1.330230
v 2.083990 -1.330230 2.217048
v 2.083990 -0.443410 0.443408
v 2.083990 -0.443410 1.330230
v 2.083990 0.443410 -0.443407
v 2.083990 0.443410 0.443408
v 2.083990 1.330230 -1.330228
v 2.083990 1.330230 -0.443407
v 2.083990 2.217050 -1.330228
v -2.083990 -1.330230 1.330230
v -2.083990 -1.330230 2.217048
v -2.083990 -0.443410 0.443408
v -2.083990 -0.443410 1.330230
v -2.083990 0.443410 -0.443407
v -2.083990 0.443410 0.443408
v -2.083990 1.330230 -1.330228
v -2.083990 1.330230 -0.443407
v -2.083990 2.217050 -1.330228
vt 0.658264 0.341963
vt 0.321732 0.676886
vt 0.332528 0.341877
vt 0.647424 0.341837
vt 0.006935 0.006836
vt 0.658140 0.349462
vt 0.993141 0.349472
vt 0.725138 0.416464
vt 0.658138 0.416462
vt 0.792136 0.483467
vt 0.725136 0.483465
vt 0.859134 0.550469
vt 0.792134 0.550467
vt 0.926132 0.617472
vt 0.859132 0.617470
vt 0.926130 0.684472
vt 0.658138 0.006962
vt 0.926164 0.073861
vt 0.993164 0.073836
vt 0.859189 0.140887
vt 0.926189 0.140862
vt 0.792214 0.207912
vt 0.859214 0.207887
vt 0.725239 0.274938
vt 0.792239 0.274913
vt 0.725264 0.341938
vt 0.321752 0.542885
vt 0.321742 0.609885
vt 0.321772 0.408884
vt 0.321762 0.475885
vt 0.321792 0.274884
vt 0.321782 0.341884
vt 0.321811 0.140883
vt 0.321801 0.207884
vt 0.647466 0.676839
vt 0.321821 0.073883
vt 0.993131 0.684474
vt 0.006856 0.542838
vt 0.006846 0.609838
vt 0.006876 0.408838
vt 0.006866 0.475838
vt 0.006896 0.274837
vt 0.006886 0.341838
vt 0.006916 0.140837
vt 0.006906 0.207837
vt 0.993139 0.006836
vt 0.006925 0.073836
vt 0.332487 0.006875
vt 0.332570 0.676878
vt 0.321831 0.006883
vt 0.006836 0.676839
vt 0.647383 0.006836
vn 0.000000 0.000000 -1.000000
vn 0.000000 0.000000 -1.000000
vn 0.000000 0.000000 -1.000000
vn 0.000000 0.000000 -1.000000
vn 0.000000 -1.000000 0.000000
vn 0.000000 -1.000000 0.000000
vn 0.000000 -1.000000 0.000000
vn 0.000000 -1.000000 0.000000
vn 1.000000 -0.000000 0.000000
vn 1.000000 -0.000000 0.000000
vn 1.000000 0.000000 0.000000
vn -1.000000 -0.000000 0.000000
vn -1.000000 0.000000 0.000000
vn -1.000000 0.000000 0.000000
vn 0.000000 1.000000 -0.000001
vn 0.000000 1.000000 -0.000001
vn 0.000000 1.000000 -0.000001
vn 0.000000 1.000000 -0.000001
vn 0.000000 0.000000 1.000000
vn 0.000000 0.000000 1.000000
vn 0.000000 0.000000 1.000000
vn 0.000000 0.000000 1.000000
vn 0.000000 1.000000 0.000000
vn 0.000000 1.000000 0.000000
vn 0.000000 1.000000 0.000000
vn 0.000000 1.000000 0.000000
vn 0.000000 0.000000 1.000000
vn 0.000000 0.000000 1.000000
vn 0.000000 0.000000 1.000000
vn 0.000000 0.000000 1.000000
vn 0.000000 1.000000 0.000000
vn 0.000000 1.000000 0.000000
vn 0.000000 1.000000 0.000000
vn 0.000000 1.000000 0.000000
vn 0.000000 0.000000 1.000000
vn 0.000000 0.000000 1.000000
vn 0.000000 0.000000 1.000000
vn 0.000000 0.000000 1.000000
vn 0.000000 1.000000 0.000000
vn 0.000000 1.000000 0.000000
vn 0.000000 1.000000 0.000000
vn 0.000000 1.000000 0.000000
vn 0.000000 0.000000 1.000000
vn 0.000000 0.000000 1.000000
vn 0.000000 0.000000 1.000000
vn 0.000000 0.000000 1.000000
vn 0.000000 1.000000 0.000000
vn 0.000000 1.000000 0.000000
vn 0.000000 1.000000 0.000000
vn 0.000000 1.000000 0.000000
vn 0.000000 0.000000 1.000000
vn 0.000000 0.000000 1.000000
vn 0.000000 0.000000 1.000000
vn 0.000000 0.000000 1.000000
vn 1.000000 0.000000 0.000000
vn 1.000000 0.000000 0.000000
vn 1.000000 -0.000000 0.000000
vn 1.000000 -0.000000 0.000000
vn 1.000000 -0.000000 0.000000
vn 1.000000 0.000000 0.000000
vn 1.000000 0.000000 0.000000
vn 1.000000 0.000000 0.000000
vn 1.000000 0.000000 0.000000
vn -1.000000 0.000000 0.000000
vn -1.000000 0.000000 0.000000
vn -1.000000 0.000000 0.000000
vn -1.000000 0.000000 0.000000
vn -1.000000 0.000000 0.000000
vn -1.000000 -0.000000 0.000000
vn -1.000000 0.000000 0.000000
vn -1.000000 0.000000 0.000000
vn -1.000000 -0.000000 0.000000
s off
g pCube1
usemtl initialShadingGroup
f 2/52/1 4/4/2 3/3/3 1/48/4
f 4/4/5 6/35/6 5/49/7 3/3/8
s 1
f 4/7/9 8/9/10 6/6/11
s 2
f 3/17/12 24/26/13 1/1/14
s off
f 15/28/15 2/2/16 1/51/17 24/39/18
f 13/27/19 15/28/20 24/39/21 22/38/22
f 14/30/23 13/27/24 22/38/25 23/41/26
f 11/29/27 14/30/28 23/41/29 20/40/30
f 12/32/31 11/29/32 20/40/33 21/43/34
f 9/31/35 12/32/36 21/43/37 18/42/38
f 10/34/39 9/31/40 18/42/41 19/45/42
f 7/33/43 10/34/44 19/45/45 16/44/46
f 8/36/47 7/33/48 16/44/49 17/47/50
f 6/50/51 8/36/52 17/47/53 5/5/54
s 1
f 15/16/55 4/7/9 2/37/56
f 7/8/57 8/9/10 4/7/9
f 10/11/58 4/7/9 9/10/59
f 12/13/60 4/7/9 11/12/61
f 14/15/62 4/7/9 13/14/63
f 13/14/63 4/7/9 15/16/55
f 11/12/61 4/7/9 14/15/62
f 9/10/59 4/7/9 12/13/60
f 7/8/57 4/7/9 10/11/58
s 2
f 3/17/12 22/24/64 24/26/13
f 3/17/12 23/25/65 22/24/64
f 3/17/12 20/22/66 23/25/65
f 3/17/12 21/23/67 20/22/66
f 3/17/12 18/20/68 21/23/67
f 17/19/69 3/17/12 5/46/70
f 3/17/12 19/21/71 18/20/68
f 16/18/72 19/21/71 3/17/12
f 16/18/72 3/17/12 17/19/69
