# This file uses centimeters as units for non-parametric coordinates.

g default
v 0.475529 0.000000 -0.154509
v 0.404509 0.000000 -0.293893
v 0.293893 0.000000 -0.404509
v 0.154509 0.000000 -0.475529
v 0.000000 0.000000 -0.500000
v -0.154509 0.000000 -0.475528
v -0.293893 0.000000 -0.404509
v -0.404509 0.000000 -0.293893
v -0.475528 0.000000 -0.154509
v -0.500000 0.000000 0.000000
v -0.475528 0.000000 0.154509
v -0.404509 0.000000 0.293893
v -0.293893 0.000000 0.404509
v -0.154509 0.000000 0.475528
v -0.000000 0.000000 0.500000
v 0.154508 0.000000 0.475528
v 0.293893 0.000000 0.404509
v 0.404509 0.000000 0.293893
v 0.475528 0.000000 0.154509
v 0.500000 0.000000 0.000000
v 0.498803 0.154509 -0.162071
v 0.424307 0.154509 -0.308277
v 0.308277 0.154509 -0.424307
v 0.162071 0.154509 -0.498803
v 0.000000 0.154509 -0.524472
v -0.162071 0.154509 -0.498803
v -0.308277 0.154509 -0.424307
v -0.424307 0.154509 -0.308277
v -0.498802 0.154509 -0.162071
v -0.524472 0.154509 0.000000
v -0.498802 0.154509 0.162071
v -0.424307 0.154509 0.308277
v -0.308277 0.154509 0.424307
v -0.162071 0.154509 0.498802
v -0.000000 0.154509 0.524472
v 0.162071 0.154509 0.498802
v 0.308277 0.154509 0.424307
v 0.424307 0.154509 0.308277
v 0.498802 0.154509 0.162071
v 0.524472 0.154509 0.000000
v 0.566346 0.293893 -0.184017
v 0.481763 0.293893 -0.350021
v 0.350021 0.293893 -0.481763
v 0.184017 0.293893 -0.566346
v 0.000000 0.293893 -0.595492
v -0.184017 0.293893 -0.566346
v -0.350021 0.293893 -0.481763
v -0.481763 0.293893 -0.350021
v -0.566346 0.293893 -0.184017
v -0.595492 0.293893 0.000000
v -0.566346 0.293893 0.184017
v -0.481763 0.293893 0.350021
v -0.350021 0.293893 0.481763
v -0.184017 0.293893 0.566346
v -0.000000 0.293893 0.595492
v 0.184017 0.293893 0.566346
v 0.350021 0.293893 0.481763
v 0.481763 0.293893 0.350021
v 0.566346 0.293893 0.184017
v 0.595492 0.293893 0.000000
v 0.671548 0.404509 -0.218199
v 0.571253 0.404509 -0.415040
v 0.415040 0.404509 -0.571253
v 0.218199 0.404509 -0.671548
v 0.000000 0.404509 -0.706108
v -0.218199 0.404509 -0.671548
v -0.415040 0.404509 -0.571253
v -0.571253 0.404509 -0.415040
v -0.671548 0.404509 -0.218199
v -0.706108 0.404509 0.000000
v -0.671548 0.404509 0.218199
v -0.571253 0.404509 0.415040
v -0.415040 0.404509 0.571253
v -0.218199 0.404509 0.671548
v -0.000000 0.404509 0.706107
v 0.218199 0.404509 0.671548
v 0.415040 0.404509 0.571253
v 0.571253 0.404509 0.415040
v 0.671548 0.404509 0.218199
v 0.706107 0.404509 0.000000
v 0.804111 0.475528 -0.261271
v 0.684017 0.475528 -0.496968
v 0.496968 0.475528 -0.684017
v 0.261271 0.475528 -0.804111
v 0.000000 0.475528 -0.845492
v -0.261271 0.475528 -0.804111
v -0.496968 0.475528 -0.684017
v -0.684017 0.475528 -0.496968
v -0.804110 0.475528 -0.261271
v -0.845492 0.475528 0.000000
v -0.804110 0.475528 0.261271
v -0.684017 0.475528 0.496968
v -0.496968 0.475528 0.684017
v -0.261271 0.475528 0.804110
v -0.000000 0.475528 0.845492
v 0.261271 0.475528 0.804110
v 0.496967 0.475528 0.684017
v 0.684017 0.475528 0.496967
v 0.804110 0.475528 0.261271
v 0.845492 0.475528 0.000000
v 0.951057 0.500000 -0.309017
v 0.809018 0.500000 -0.587786
v 0.587786 0.500000 -0.809017
v 0.309017 0.500000 -0.951057
v 0.000000 0.500000 -1.000000
v -0.309017 0.500000 -0.951057
v -0.587785 0.500000 -0.809017
v -0.809017 0.500000 -0.587785
v -0.951057 0.500000 -0.309017
v -1.000000 0.500000 0.000000
v -0.951057 0.500000 0.309017
v -0.809017 0.500000 0.587785
v -0.587785 0.500000 0.809017
v -0.309017 0.500000 0.951057
v -0.000000 0.500000 1.000000
v 0.309017 0.500000 0.951057
v 0.587785 0.500000 0.809017
v 0.809017 0.500000 0.587785
v 0.951057 0.500000 0.309017
v 1.000000 0.500000 0.000000
v 1.098004 0.475528 -0.356763
v 0.934018 0.475528 -0.678604
v 0.678604 0.475528 -0.934018
v 0.356763 0.475528 -1.098004
v 0.000000 0.475528 -1.154509
v -0.356763 0.475528 -1.098003
v -0.678603 0.475528 -0.934017
v -0.934017 0.475528 -0.678603
v -1.098003 0.475528 -0.356763
v -1.154509 0.475528 0.000000
v -1.098003 0.475528 0.356763
v -0.934017 0.475528 0.678603
v -0.678603 0.475528 0.934017
v -0.356763 0.475528 1.098003
v -0.000000 0.475528 1.154509
v 0.356763 0.475528 1.098003
v 0.678603 0.475528 0.934017
v 0.934017 0.475528 0.678603
v 1.098003 0.475528 0.356763
v 1.154509 0.475528 0.000000
v 1.230566 0.404509 -0.399835
v 1.046782 0.404509 -0.760531
v 0.760531 0.404509 -1.046782
v 0.399835 0.404509 -1.230566
v 0.000000 0.404509 -1.293893
v -0.399835 0.404509 -1.230566
v -0.760531 0.404509 -1.046782
v -1.046781 0.404509 -0.760531
v -1.230565 0.404509 -0.399835
v -1.293893 0.404509 0.000000
v -1.230565 0.404509 0.399835
v -1.046781 0.404509 0.760531
v -0.760531 0.404509 1.046781
v -0.399835 0.404509 1.230565
v -0.000000 0.404509 1.293893
v 0.399835 0.404509 1.230565
v 0.760531 0.404509 1.046781
v 1.046781 0.404509 0.760531
v 1.230565 0.404509 0.399835
v 1.293893 0.404509 0.000000
v 1.335768 0.293893 -0.434017
v 1.136272 0.293893 -0.825550
v 0.825550 0.293893 -1.136272
v 0.434017 0.293893 -1.335768
v 0.000000 0.293893 -1.404509
v -0.434017 0.293893 -1.335768
v -0.825550 0.293893 -1.136272
v -1.136272 0.293893 -0.825550
v -1.335767 0.293893 -0.434017
v -1.404509 0.293893 0.000000
v -1.335767 0.293893 0.434017
v -1.136272 0.293893 0.825550
v -0.825550 0.293893 1.136271
v -0.434017 0.293893 1.335767
v -0.000000 0.293893 1.404509
v 0.434017 0.293893 1.335767
v 0.825549 0.293893 1.136271
v 1.136271 0.293893 0.825549
v 1.335767 0.293893 0.434017
v 1.404509 0.293893 0.000000
v 1.403312 0.154509 -0.455964
v 1.193728 0.154509 -0.867294
v 0.867294 0.154509 -1.193728
v 0.455964 0.154509 -1.403312
v 0.000000 0.154509 -1.475529
v -0.455964 0.154509 -1.403311
v -0.867294 0.154509 -1.193728
v -1.193728 0.154509 -0.867294
v -1.403311 0.154509 -0.455963
v -1.475529 0.154509 0.000000
v -1.403311 0.154509 0.455963
v -1.193728 0.154509 0.867294
v -0.867294 0.154509 1.193728
v -0.455963 0.154509 1.403311
v -0.000000 0.154509 1.475528
v 0.455963 0.154509 1.403311
v 0.867294 0.154509 1.193728
v 1.193727 0.154509 0.867294
v 1.403311 0.154509 0.455963
v 1.475528 0.154509 0.000000
v 1.426586 0.000000 -0.463526
v 1.213526 0.000000 -0.881678
v 0.881678 0.000000 -1.213526
v 0.463526 0.000000 -1.426586
v 0.000000 0.000000 -1.500001
v -0.463526 0.000000 -1.426586
v -0.881678 0.000000 -1.213526
v -1.213526 0.000000 -0.881678
v -1.426585 0.000000 -0.463526
v -1.500000 0.000000 0.000000
v -1.426585 0.000000 0.463526
v -1.213526 0.000000 0.881678
v -0.881678 0.000000 1.213526
v -0.463526 0.000000 1.426585
v -0.000000 0.000000 1.500000
v 0.463526 0.000000 1.426585
v 0.881678 0.000000 1.213526
v 1.213526 0.000000 0.881678
v 1.426585 0.000000 0.463526
v 1.500000 0.000000 0.000000
vt 0.000000 0.993240
vt 0.050000 0.993240
vt 0.100000 0.993240
vt 0.150000 0.993240
vt 0.200000 0.993240
vt 0.250000 0.993240
vt 0.300000 0.993240
vt 0.350000 0.993240
vt 0.400000 0.993240
vt 0.450000 0.993240
vt 0.500000 0.993240
vt 0.550000 0.993240
vt 0.600000 0.993240
vt 0.650000 0.993240
vt 0.700000 0.993240
vt 0.750000 0.993240
vt 0.800000 0.993240
vt 0.850000 0.993240
vt 0.900000 0.993240
vt 0.950000 0.993240
vt 1.000000 0.993240
vt 0.000000 0.894869
vt 0.050000 0.894869
vt 0.100000 0.894869
vt 0.150000 0.894869
vt 0.200000 0.894869
vt 0.250000 0.894869
vt 0.300000 0.894869
vt 0.350000 0.894869
vt 0.400000 0.894869
vt 0.450000 0.894869
vt 0.500000 0.894869
vt 0.550000 0.894869
vt 0.600000 0.894869
vt 0.650000 0.894869
vt 0.700000 0.894869
vt 0.750000 0.894869
vt 0.800000 0.894869
vt 0.850000 0.894869
vt 0.900000 0.894869
vt 0.950000 0.894869
vt 1.000000 0.894869
vt 0.000000 0.796497
vt 0.050000 0.796497
vt 0.100000 0.796497
vt 0.150000 0.796497
vt 0.200000 0.796497
vt 0.250000 0.796497
vt 0.300000 0.796497
vt 0.350000 0.796497
vt 0.400000 0.796497
vt 0.450000 0.796497
vt 0.500000 0.796497
vt 0.550000 0.796497
vt 0.600000 0.796497
vt 0.650000 0.796497
vt 0.700000 0.796497
vt 0.750000 0.796497
vt 0.800000 0.796497
vt 0.850000 0.796497
vt 0.900000 0.796497
vt 0.950000 0.796497
vt 1.000000 0.796497
vt 0.000000 0.698126
vt 0.050000 0.698126
vt 0.100000 0.698126
vt 0.150000 0.698126
vt 0.200000 0.698126
vt 0.250000 0.698126
vt 0.300000 0.698126
vt 0.350000 0.698126
vt 0.400000 0.698126
vt 0.450000 0.698126
vt 0.500000 0.698126
vt 0.550000 0.698126
vt 0.600000 0.698126
vt 0.650000 0.698126
vt 0.700000 0.698126
vt 0.750000 0.698126
vt 0.800000 0.698126
vt 0.850000 0.698126
vt 0.900000 0.698126
vt 0.950000 0.698126
vt 1.000000 0.698126
vt 0.000000 0.599754
vt 0.050000 0.599754
vt 0.100000 0.599754
vt 0.150000 0.599754
vt 0.200000 0.599754
vt 0.250000 0.599754
vt 0.300000 0.599754
vt 0.350000 0.599754
vt 0.400000 0.599754
vt 0.450000 0.599754
vt 0.500000 0.599754
vt 0.550000 0.599754
vt 0.600000 0.599754
vt 0.650000 0.599754
vt 0.700000 0.599754
vt 0.750000 0.599754
vt 0.800000 0.599754
vt 0.850000 0.599754
vt 0.900000 0.599754
vt 0.950000 0.599754
vt 1.000000 0.599754
vt 0.000000 0.501382
vt 0.050000 0.501382
vt 0.100000 0.501382
vt 0.150000 0.501382
vt 0.200000 0.501382
vt 0.250000 0.501382
vt 0.300000 0.501382
vt 0.350000 0.501382
vt 0.400000 0.501382
vt 0.450000 0.501382
vt 0.500000 0.501382
vt 0.550000 0.501382
vt 0.600000 0.501382
vt 0.650000 0.501382
vt 0.700000 0.501382
vt 0.750000 0.501382
vt 0.800000 0.501382
vt 0.850000 0.501382
vt 0.900000 0.501382
vt 0.950000 0.501382
vt 1.000000 0.501382
vt 0.000000 0.403011
vt 0.050000 0.403011
vt 0.100000 0.403011
vt 0.150000 0.403011
vt 0.200000 0.403011
vt 0.250000 0.403011
vt 0.300000 0.403011
vt 0.350000 0.403011
vt 0.400000 0.403011
vt 0.450000 0.403011
vt 0.500000 0.403011
vt 0.550000 0.403011
vt 0.600000 0.403011
vt 0.650000 0.403011
vt 0.700000 0.403011
vt 0.750000 0.403011
vt 0.800000 0.403011
vt 0.850000 0.403011
vt 0.900000 0.403011
vt 0.950000 0.403011
vt 1.000000 0.403011
vt 0.000000 0.304639
vt 0.050000 0.304639
vt 0.100000 0.304639
vt 0.150000 0.304639
vt 0.200000 0.304639
vt 0.250000 0.304639
vt 0.300000 0.304639
vt 0.350000 0.304639
vt 0.400000 0.304639
vt 0.450000 0.304639
vt 0.500000 0.304639
vt 0.550000 0.304639
vt 0.600000 0.304639
vt 0.650000 0.304639
vt 0.700000 0.304639
vt 0.750000 0.304639
vt 0.800000 0.304639
vt 0.850000 0.304639
vt 0.900000 0.304639
vt 0.950000 0.304639
vt 1.000000 0.304639
vt 0.000000 0.206268
vt 0.050000 0.206268
vt 0.100000 0.206268
vt 0.150000 0.206268
vt 0.200000 0.206268
vt 0.250000 0.206268
vt 0.300000 0.206268
vt 0.350000 0.206268
vt 0.400000 0.206268
vt 0.450000 0.206268
vt 0.500000 0.206268
vt 0.550000 0.206268
vt 0.600000 0.206268
vt 0.650000 0.206268
vt 0.700000 0.206268
vt 0.750000 0.206268
vt 0.800000 0.206268
vt 0.850000 0.206268
vt 0.900000 0.206268
vt 0.950000 0.206268
vt 1.000000 0.206268
vt 0.000000 0.107896
vt 0.050000 0.107896
vt 0.100000 0.107896
vt 0.150000 0.107896
vt 0.200000 0.107896
vt 0.250000 0.107896
vt 0.300000 0.107896
vt 0.350000 0.107896
vt 0.400000 0.107896
vt 0.450000 0.107896
vt 0.500000 0.107896
vt 0.550000 0.107896
vt 0.600000 0.107896
vt 0.650000 0.107896
vt 0.700000 0.107896
vt 0.750000 0.107896
vt 0.800000 0.107896
vt 0.850000 0.107896
vt 0.900000 0.107896
vt 0.950000 0.107896
vt 1.000000 0.107896
vt 0.000000 0.009525
vt 0.050000 0.009525
vt 0.100000 0.009525
vt 0.150000 0.009525
vt 0.200000 0.009525
vt 0.250000 0.009525
vt 0.300000 0.009525
vt 0.350000 0.009525
vt 0.400000 0.009525
vt 0.450000 0.009525
vt 0.500000 0.009525
vt 0.550000 0.009525
vt 0.600000 0.009525
vt 0.650000 0.009525
vt 0.700000 0.009525
vt 0.750000 0.009525
vt 0.800000 0.009525
vt 0.850000 0.009525
vt 0.900000 0.009525
vt 0.950000 0.009525
vt 1.000000 0.009525
vn -0.799057 0.156435 0.580549
vn -0.939348 0.156435 0.305212
vn -0.900983 0.320202 0.292746
vn -0.766422 0.320202 0.556838
vn -0.580549 0.156435 0.799057
vn -0.556838 0.320202 0.766422
vn -0.305212 0.156435 0.939348
vn -0.292747 0.320202 0.900983
vn 0.000000 0.156435 0.987688
vn 0.000000 0.320202 0.947349
vn 0.305213 0.156435 0.939347
vn 0.292747 0.320202 0.900983
vn 0.580549 0.156435 0.799057
vn 0.556838 0.320202 0.766422
vn 0.799057 0.156435 0.580549
vn 0.766422 0.320202 0.556838
vn 0.939347 0.156435 0.305212
vn 0.900983 0.320202 0.292747
vn 0.987688 0.156435 -0.000000
vn 0.947349 0.320202 -0.000000
vn 0.939347 0.156435 -0.305212
vn 0.900983 0.320202 -0.292747
vn 0.799057 0.156435 -0.580549
vn 0.766421 0.320202 -0.556838
vn 0.580548 0.156435 -0.799057
vn 0.556838 0.320202 -0.766422
vn 0.305212 0.156435 -0.939347
vn 0.292747 0.320202 -0.900983
vn 0.000000 0.156435 -0.987688
vn -0.000000 0.320202 -0.947349
vn -0.305213 0.156435 -0.939347
vn -0.292747 0.320202 -0.900983
vn -0.580549 0.156435 -0.799057
vn -0.556838 0.320202 -0.766422
vn -0.799057 0.156435 -0.580549
vn -0.766422 0.320202 -0.556838
vn -0.939347 0.156435 -0.305212
vn -0.900983 0.320202 -0.292747
vn -0.987688 0.156435 -0.000001
vn -0.947349 0.320202 -0.000001
vn -0.757602 0.604520 0.246159
vn -0.644455 0.604520 0.468224
vn -0.468224 0.604520 0.644455
vn -0.246160 0.604520 0.757602
vn 0.000000 0.604520 0.796590
vn 0.246160 0.604520 0.757602
vn 0.468224 0.604520 0.644455
vn 0.644455 0.604520 0.468224
vn 0.757602 0.604520 0.246160
vn 0.796590 0.604520 0.000000
vn 0.757602 0.604520 -0.246160
vn 0.644455 0.604520 -0.468224
vn 0.468224 0.604520 -0.644455
vn 0.246160 0.604520 -0.757602
vn -0.000000 0.604520 -0.796590
vn -0.246160 0.604520 -0.757602
vn -0.468224 0.604520 -0.644455
vn -0.644455 0.604520 -0.468224
vn -0.757602 0.604520 -0.246160
vn -0.796590 0.604520 -0.000001
vn -0.538658 0.824145 0.175020
vn -0.458210 0.824145 0.332909
vn -0.332909 0.824145 0.458210
vn -0.175021 0.824145 0.538658
vn 0.000000 0.824145 0.566379
vn 0.175021 0.824145 0.538658
vn 0.332909 0.824145 0.458210
vn 0.458210 0.824145 0.332909
vn 0.538658 0.824145 0.175021
vn 0.566379 0.824145 0.000000
vn 0.538658 0.824145 -0.175021
vn 0.458210 0.824145 -0.332909
vn 0.332909 0.824145 -0.458210
vn 0.175021 0.824145 -0.538659
vn -0.000000 0.824145 -0.566379
vn -0.175021 0.824145 -0.538659
vn -0.332909 0.824145 -0.458210
vn -0.458210 0.824145 -0.332909
vn -0.538659 0.824145 -0.175021
vn -0.566379 0.824145 -0.000001
vn -0.268212 0.959410 0.087147
vn -0.228155 0.959410 0.165764
vn -0.165764 0.959410 0.228155
vn -0.087147 0.959410 0.268212
vn 0.000000 0.959410 0.282015
vn 0.087148 0.959410 0.268212
vn 0.165764 0.959410 0.228155
vn 0.228155 0.959410 0.165764
vn 0.268213 0.959410 0.087147
vn 0.282015 0.959410 0.000000
vn 0.268213 0.959410 -0.087148
vn 0.228155 0.959410 -0.165765
vn 0.165764 0.959410 -0.228155
vn 0.087148 0.959410 -0.268213
vn -0.000000 0.959410 -0.282015
vn -0.087148 0.959410 -0.268213
vn -0.165765 0.959410 -0.228155
vn -0.228155 0.959410 -0.165765
vn -0.268213 0.959410 -0.087148
vn -0.282016 0.959410 -0.000000
vn 0.026302 0.999618 -0.008546
vn 0.022374 0.999618 -0.016256
vn 0.016256 0.999618 -0.022374
vn 0.008546 0.999618 -0.026302
vn -0.000000 0.999618 -0.027656
vn -0.008546 0.999618 -0.026302
vn -0.016256 0.999618 -0.022374
vn -0.022374 0.999618 -0.016256
vn -0.026302 0.999618 -0.008546
vn -0.027656 0.999618 -0.000000
vn -0.026302 0.999618 0.008546
vn -0.022374 0.999618 0.016256
vn -0.016256 0.999618 0.022374
vn -0.008546 0.999618 0.026302
vn -0.000000 0.999618 0.027656
vn 0.008546 0.999618 0.026302
vn 0.016256 0.999618 0.022374
vn 0.022374 0.999618 0.016256
vn 0.026302 0.999618 0.008546
vn 0.027656 0.999618 0.000000
vn 0.316323 0.943068 -0.102779
vn 0.269080 0.943068 -0.195498
vn 0.195498 0.943068 -0.269080
vn 0.102779 0.943068 -0.316322
vn -0.000000 0.943068 -0.332601
vn -0.102779 0.943068 -0.316323
vn -0.195498 0.943068 -0.269080
vn -0.269080 0.943068 -0.195498
vn -0.316322 0.943068 -0.102779
vn -0.332601 0.943068 -0.000000
vn -0.316322 0.943068 0.102779
vn -0.269080 0.943068 0.195498
vn -0.195498 0.943068 0.269080
vn -0.102779 0.943068 0.316323
vn 0.000000 0.943068 0.332601
vn 0.102779 0.943068 0.316323
vn 0.195498 0.943068 0.269080
vn 0.269080 0.943068 0.195498
vn 0.316323 0.943068 0.102779
vn 0.332601 0.943068 0.000000
vn 0.574571 0.796879 -0.186689
vn 0.488759 0.796879 -0.355104
vn 0.355104 0.796879 -0.488759
vn 0.186689 0.796879 -0.574571
vn -0.000000 0.796879 -0.604139
vn -0.186689 0.796879 -0.574570
vn -0.355104 0.796879 -0.488759
vn -0.488759 0.796879 -0.355104
vn -0.574570 0.796879 -0.186689
vn -0.604139 0.796879 0.000000
vn -0.574571 0.796879 0.186689
vn -0.488759 0.796879 0.355104
vn -0.355104 0.796879 0.488759
vn -0.186689 0.796879 0.574571
vn 0.000000 0.796879 0.604139
vn 0.186689 0.796879 0.574571
vn 0.355104 0.796879 0.488759
vn 0.488759 0.796879 0.355104
vn 0.574571 0.796879 0.186689
vn 0.604139 0.796879 0.000001
vn 0.777400 0.576061 -0.252592
vn 0.661296 0.576061 -0.480460
vn 0.480460 0.576061 -0.661296
vn 0.252592 0.576061 -0.777400
vn -0.000000 0.576061 -0.817407
vn -0.252593 0.576061 -0.777400
vn -0.480460 0.576061 -0.661296
vn -0.661296 0.576061 -0.480460
vn -0.777400 0.576061 -0.252593
vn -0.817407 0.576061 0.000000
vn -0.777400 0.576061 0.252593
vn -0.661296 0.576061 0.480460
vn -0.480460 0.576061 0.661296
vn -0.252593 0.576060 0.777400
vn 0.000000 0.576061 0.817407
vn 0.252593 0.576061 0.777400
vn 0.480460 0.576061 0.661296
vn 0.661296 0.576061 0.480460
vn 0.777400 0.576061 0.252593
vn 0.817407 0.576061 0.000001
vn 0.906679 0.301905 -0.294597
vn 0.771267 0.301905 -0.560358
vn 0.560358 0.301905 -0.771267
vn 0.294597 0.301905 -0.906678
vn -0.000000 0.301905 -0.953338
vn -0.294598 0.301905 -0.906678
vn -0.560358 0.301905 -0.771266
vn -0.771267 0.301905 -0.560358
vn -0.906678 0.301905 -0.294598
vn -0.953338 0.301905 0.000000
vn -0.906678 0.301905 0.294598
vn -0.771267 0.301905 0.560358
vn -0.560358 0.301905 0.771267
vn -0.294598 0.301905 0.906678
vn 0.000000 0.301905 0.953338
vn 0.294598 0.301905 0.906678
vn 0.560358 0.301905 0.771267
vn 0.771267 0.301905 0.560358
vn 0.906678 0.301905 0.294598
vn 0.953338 0.301905 0.000001
vn 0.939348 0.156435 -0.305212
vn 0.799057 0.156434 -0.580549
vn 0.580549 0.156435 -0.799057
vn 0.305212 0.156435 -0.939348
vn -0.000000 0.156435 -0.987688
vn -0.305213 0.156435 -0.939347
vn -0.580549 0.156435 -0.799056
vn -0.799057 0.156435 -0.580548
vn -0.939347 0.156435 -0.305212
vn -0.987688 0.156434 0.000000
vn -0.939347 0.156434 0.305212
vn -0.799057 0.156435 0.580549
vn -0.580549 0.156435 0.799057
vn -0.305212 0.156435 0.939348
vn 0.000000 0.156435 0.987688
vn 0.305213 0.156434 0.939347
vn 0.580549 0.156435 0.799057
vn 0.799057 0.156435 0.580549
vn 0.939347 0.156435 0.305212
vn 0.987688 0.156435 0.000001
s 1
g pTorus1
f 2/2/1 1/1/2 21/22/3 22/23/4
f 3/3/5 2/2/1 22/23/4 23/24/6
f 4/4/7 3/3/5 23/24/6 24/25/8
f 5/5/9 4/4/7 24/25/8 25/26/10
f 6/6/11 5/5/9 25/26/10 26/27/12
f 7/7/13 6/6/11 26/27/12 27/28/14
f 8/8/15 7/7/13 27/28/14 28/29/16
f 9/9/17 8/8/15 28/29/16 29/30/18
f 10/10/19 9/9/17 29/30/18 30/31/20
f 11/11/21 10/10/19 30/31/20 31/32/22
f 12/12/23 11/11/21 31/32/22 32/33/24
f 13/13/25 12/12/23 32/33/24 33/34/26
f 14/14/27 13/13/25 33/34/26 34/35/28
f 15/15/29 14/14/27 34/35/28 35/36/30
f 16/16/31 15/15/29 35/36/30 36/37/32
f 17/17/33 16/16/31 36/37/32 37/38/34
f 18/18/35 17/17/33 37/38/34 38/39/36
f 19/19/37 18/18/35 38/39/36 39/40/38
f 20/20/39 19/19/37 39/40/38 40/41/40
f 1/21/2 20/20/39 40/41/40 21/42/3
f 22/23/4 21/22/3 41/43/41 42/44/42
f 23/24/6 22/23/4 42/44/42 43/45/43
f 24/25/8 23/24/6 43/45/43 44/46/44
f 25/26/10 24/25/8 44/46/44 45/47/45
f 26/27/12 25/26/10 45/47/45 46/48/46
f 27/28/14 26/27/12 46/48/46 47/49/47
f 28/29/16 27/28/14 47/49/47 48/50/48
f 29/30/18 28/29/16 48/50/48 49/51/49
f 30/31/20 29/30/18 49/51/49 50/52/50
f 31/32/22 30/31/20 50/52/50 51/53/51
f 32/33/24 31/32/22 51/53/51 52/54/52
f 33/34/26 32/33/24 52/54/52 53/55/53
f 34/35/28 33/34/26 53/55/53 54/56/54
f 35/36/30 34/35/28 54/56/54 55/57/55
f 36/37/32 35/36/30 55/57/55 56/58/56
f 37/38/34 36/37/32 56/58/56 57/59/57
f 38/39/36 37/38/34 57/59/57 58/60/58
f 39/40/38 38/39/36 58/60/58 59/61/59
f 40/41/40 39/40/38 59/61/59 60/62/60
f 21/42/3 40/41/40 60/62/60 41/63/41
f 42/44/42 41/43/41 61/64/61 62/65/62
f 43/45/43 42/44/42 62/65/62 63/66/63
f 44/46/44 43/45/43 63/66/63 64/67/64
f 45/47/45 44/46/44 64/67/64 65/68/65
f 46/48/46 45/47/45 65/68/65 66/69/66
f 47/49/47 46/48/46 66/69/66 67/70/67
f 48/50/48 47/49/47 67/70/67 68/71/68
f 49/51/49 48/50/48 68/71/68 69/72/69
f 50/52/50 49/51/49 69/72/69 70/73/70
f 51/53/51 50/52/50 70/73/70 71/74/71
f 52/54/52 51/53/51 71/74/71 72/75/72
f 53/55/53 52/54/52 72/75/72 73/76/73
f 54/56/54 53/55/53 73/76/73 74/77/74
f 55/57/55 54/56/54 74/77/74 75/78/75
f 56/58/56 55/57/55 75/78/75 76/79/76
f 57/59/57 56/58/56 76/79/76 77/80/77
f 58/60/58 57/59/57 77/80/77 78/81/78
f 59/61/59 58/60/58 78/81/78 79/82/79
f 60/62/60 59/61/59 79/82/79 80/83/80
f 41/63/41 60/62/60 80/83/80 61/84/61
f 62/65/62 61/64/61 81/85/81 82/86/82
f 63/66/63 62/65/62 82/86/82 83/87/83
f 64/67/64 63/66/63 83/87/83 84/88/84
f 65/68/65 64/67/64 84/88/84 85/89/85
f 66/69/66 65/68/65 85/89/85 86/90/86
f 67/70/67 66/69/66 86/90/86 87/91/87
f 68/71/68 67/70/67 87/91/87 88/92/88
f 69/72/69 68/71/68 88/92/88 89/93/89
f 70/73/70 69/72/69 89/93/89 90/94/90
f 71/74/71 70/73/70 90/94/90 91/95/91
f 72/75/72 71/74/71 91/95/91 92/96/92
f 73/76/73 72/75/72 92/96/92 93/97/93
f 74/77/74 73/76/73 93/97/93 94/98/94
f 75/78/75 74/77/74 94/98/94 95/99/95
f 76/79/76 75/78/75 95/99/95 96/100/96
f 77/80/77 76/79/76 96/100/96 97/101/97
f 78/81/78 77/80/77 97/101/97 98/102/98
f 79/82/79 78/81/78 98/102/98 99/103/99
f 80/83/80 79/82/79 99/103/99 100/104/100
f 61/84/61 80/83/80 100/104/100 81/105/81
f 82/86/82 81/85/81 101/106/101 102/107/102
f 83/87/83 82/86/82 102/107/102 103/108/103
f 84/88/84 83/87/83 103/108/103 104/109/104
f 85/89/85 84/88/84 104/109/104 105/110/105
f 86/90/86 85/89/85 105/110/105 106/111/106
f 87/91/87 86/90/86 106/111/106 107/112/107
f 88/92/88 87/91/87 107/112/107 108/113/108
f 89/93/89 88/92/88 108/113/108 109/114/109
f 90/94/90 89/93/89 109/114/109 110/115/110
f 91/95/91 90/94/90 110/115/110 111/116/111
f 92/96/92 91/95/91 111/116/111 112/117/112
f 93/97/93 92/96/92 112/117/112 113/118/113
f 94/98/94 93/97/93 113/118/113 114/119/114
f 95/99/95 94/98/94 114/119/114 115/120/115
f 96/100/96 95/99/95 115/120/115 116/121/116
f 97/101/97 96/100/96 116/121/116 117/122/117
f 98/102/98 97/101/97 117/122/117 118/123/118
f 99/103/99 98/102/98 118/123/118 119/124/119
f 100/104/100 99/103/99 119/124/119 120/125/120
f 81/105/81 100/104/100 120/125/120 101/126/101
f 102/107/102 101/106/101 121/127/121 122/128/122
f 103/108/103 102/107/102 122/128/122 123/129/123
f 104/109/104 103/108/103 123/129/123 124/130/124
f 105/110/105 104/109/104 124/130/124 125/131/125
f 106/111/106 105/110/105 125/131/125 126/132/126
f 107/112/107 106/111/106 126/132/126 127/133/127
f 108/113/108 107/112/107 127/133/127 128/134/128
f 109/114/109 108/113/108 128/134/128 129/135/129
f 110/115/110 109/114/109 129/135/129 130/136/130
f 111/116/111 110/115/110 130/136/130 131/137/131
f 112/117/112 111/116/111 131/137/131 132/138/132
f 113/118/113 112/117/112 132/138/132 133/139/133
f 114/119/114 113/118/113 133/139/133 134/140/134
f 115/120/115 114/119/114 134/140/134 135/141/135
f 116/121/116 115/120/115 135/141/135 136/142/136
f 117/122/117 116/121/116 136/142/136 137/143/137
f 118/123/118 117/122/117 137/143/137 138/144/138
f 119/124/119 118/123/118 138/144/138 139/145/139
f 120/125/120 119/124/119 139/145/139 140/146/140
f 101/126/101 120/125/120 140/146/140 121/147/121
f 122/128/122 121/127/121 141/148/141 142/149/142
f 123/129/123 122/128/122 142/149/142 143/150/143
f 124/130/124 123/129/123 143/150/143 144/151/144
f 125/131/125 124/130/124 144/151/144 145/152/145
f 126/132/126 125/131/125 145/152/145 146/153/146
f 127/133/127 126/132/126 146/153/146 147/154/147
f 128/134/128 127/133/127 147/154/147 148/155/148
f 129/135/129 128/134/128 148/155/148 149/156/149
f 130/136/130 129/135/129 149/156/149 150/157/150
f 131/137/131 130/136/130 150/157/150 151/158/151
f 132/138/132 131/137/131 151/158/151 152/159/152
f 133/139/133 132/138/132 152/159/152 153/160/153
f 134/140/134 133/139/133 153/160/153 154/161/154
f 135/141/135 134/140/134 154/161/154 155/162/155
f 136/142/136 135/141/135 155/162/155 156/163/156
f 137/143/137 136/142/136 156/163/156 157/164/157
f 138/144/138 137/143/137 157/164/157 158/165/158
f 139/145/139 138/144/138 158/165/158 159/166/159
f 140/146/140 139/145/139 159/166/159 160/167/160
f 121/147/121 140/146/140 160/167/160 141/168/141
f 142/149/142 141/148/141 161/169/161 162/170/162
f 143/150/143 142/149/142 162/170/162 163/171/163
f 144/151/144 143/150/143 163/171/163 164/172/164
f 145/152/145 144/151/144 164/172/164 165/173/165
f 146/153/146 145/152/145 165/173/165 166/174/166
f 147/154/147 146/153/146 166/174/166 167/175/167
f 148/155/148 147/154/147 167/175/167 168/176/168
f 149/156/149 148/155/148 168/176/168 169/177/169
f 150/157/150 149/156/149 169/177/169 170/178/170
f 151/158/151 150/157/150 170/178/170 171/179/171
f 152/159/152 151/158/151 171/179/171 172/180/172
f 153/160/153 152/159/152 172/180/172 173/181/173
f 154/161/154 153/160/153 173/181/173 174/182/174
f 155/162/155 154/161/154 174/182/174 175/183/175
f 156/163/156 155/162/155 175/183/175 176/184/176
f 157/164/157 156/163/156 176/184/176 177/185/177
f 158/165/158 157/164/157 177/185/177 178/186/178
f 159/166/159 158/165/158 178/186/178 179/187/179
f 160/167/160 159/166/159 179/187/179 180/188/180
f 141/168/141 160/167/160 180/188/180 161/189/161
f 162/170/162 161/169/161 181/190/181 182/191/182
f 163/171/163 162/170/162 182/191/182 183/192/183
f 164/172/164 163/171/163 183/192/183 184/193/184
f 165/173/165 164/172/164 184/193/184 185/194/185
f 166/174/166 165/173/165 185/194/185 186/195/186
f 167/175/167 166/174/166 186/195/186 187/196/187
f 168/176/168 167/175/167 187/196/187 188/197/188
f 169/177/169 168/176/168 188/197/188 189/198/189
f 170/178/170 169/177/169 189/198/189 190/199/190
f 171/179/171 170/178/170 190/199/190 191/200/191
f 172/180/172 171/179/171 191/200/191 192/201/192
f 173/181/173 172/180/172 192/201/192 193/202/193
f 174/182/174 173/181/173 193/202/193 194/203/194
f 175/183/175 174/182/174 194/203/194 195/204/195
f 176/184/176 175/183/175 195/204/195 196/205/196
f 177/185/177 176/184/176 196/205/196 197/206/197
f 178/186/178 177/185/177 197/206/197 198/207/198
f 179/187/179 178/186/178 198/207/198 199/208/199
f 180/188/180 179/187/179 199/208/199 200/209/200
f 161/189/161 180/188/180 200/209/200 181/210/181
f 182/191/182 181/190/181 201/211/201 202/212/202
f 183/192/183 182/191/182 202/212/202 203/213/203
f 184/193/184 183/192/183 203/213/203 204/214/204
f 185/194/185 184/193/184 204/214/204 205/215/205
f 186/195/186 185/194/185 205/215/205 206/216/206
f 187/196/187 186/195/186 206/216/206 207/217/207
f 188/197/188 187/196/187 207/217/207 208/218/208
f 189/198/189 188/197/188 208/218/208 209/219/209
f 190/199/190 189/198/189 209/219/209 210/220/210
f 191/200/191 190/199/190 210/220/210 211/221/211
f 192/201/192 191/200/191 211/221/211 212/222/212
f 193/202/193 192/201/192 212/222/212 213/223/213
f 194/203/194 193/202/193 213/223/213 214/224/214
f 195/204/195 194/203/194 214/224/214 215/225/215
f 196/205/196 195/204/195 215/225/215 216/226/216
f 197/206/197 196/205/196 216/226/216 217/227/217
f 198/207/198 197/206/197 217/227/217 218/228/218
f 199/208/199 198/207/198 218/228/218 219/229/219
f 200/209/200 199/208/199 219/229/219 220/230/220
f 181/210/181 200/209/200 220/230/220 201/231/201
