# This file uses centimeters as units for non-parametric coordinates.

mtllib BirchTreeLow.mtl
g default
v -0.662486 -2.217434 -0.212718
v -0.662537 -2.213337 -0.114546
v -0.632925 -2.206447 -0.021309
v -0.575806 -2.198353 0.057897
v -0.497362 -2.187909 0.115339
v -0.404833 -2.177583 0.145343
v -0.308033 -2.168301 0.145017
v -0.215369 -2.160960 0.114398
v -0.136639 -2.156265 0.056485
v -0.079097 -2.153646 -0.022982
v -0.048930 -2.154161 -0.116419
v -0.049093 -2.158005 -0.214486
v -0.079877 -2.162739 -0.307638
v -0.136821 -2.170248 -0.386778
v -0.215698 -2.179674 -0.444269
v -0.307991 -2.190179 -0.474598
v -0.405128 -2.200278 -0.474279
v -0.496948 -2.209075 -0.443647
v -0.575542 -2.214361 -0.385750
v -0.632367 -2.218083 -0.306164
v -0.742679 -0.845674 -0.029030
v -0.742309 -0.842912 0.065546
v -0.712576 -0.838458 0.155429
v -0.656891 -0.831381 0.231747
v -0.580132 -0.823736 0.287074
v -0.490365 -0.816438 0.315982
v -0.395794 -0.810123 0.315653
v -0.306116 -0.805468 0.286157
v -0.229882 -0.802894 0.230367
v -0.174186 -0.802207 0.153781
v -0.145102 -0.802707 0.063807
v -0.145811 -0.804799 -0.030649
v -0.175783 -0.806255 -0.120366
v -0.231800 -0.811836 -0.196795
v -0.308550 -0.817432 -0.252083
v -0.398684 -0.825605 -0.281268
v -0.493018 -0.833287 -0.280966
v -0.582690 -0.839024 -0.251596
v -0.658679 -0.843164 -0.195760
v -0.713659 -0.846284 -0.119075
v -0.478193 0.467029 0.044535
v -0.476894 0.459990 0.136589
v -0.446070 0.454288 0.224341
v -0.389351 0.450213 0.299111
v -0.312231 0.447156 0.353329
v -0.222387 0.446609 0.382029
v -0.128864 0.447240 0.381932
v -0.041096 0.448930 0.353108
v 0.032346 0.452038 0.298409
v 0.084586 0.455510 0.223060
v 0.112496 0.462079 0.135515
v 0.113774 0.473832 0.044825
v 0.085634 0.484027 -0.041598
v 0.030770 0.491457 -0.115526
v -0.045261 0.496282 -0.169301
v -0.135311 0.496044 -0.198277
v -0.229559 0.494446 -0.198463
v -0.319639 0.488355 -0.170802
v -0.395434 0.483271 -0.116860
v -0.450027 0.474024 -0.042958
v -0.031624 1.718093 0.340464
v -0.033077 1.714136 0.422289
v -0.009063 1.708691 0.500341
v 0.038428 1.701972 0.566946
v 0.103826 1.694930 0.615389
v 0.182396 1.690199 0.641863
v 0.263814 1.684650 0.642076
v 0.342766 1.682593 0.617744
v 0.408875 1.680672 0.569879
v 0.457234 1.681130 0.504244
v 0.484341 1.681565 0.426817
v 0.485911 1.684208 0.344902
v 0.460823 1.686607 0.266366
v 0.414282 1.692254 0.200222
v 0.347926 1.697055 0.151589
v 0.270513 1.703548 0.125968
v 0.188686 1.709836 0.125202
v 0.110339 1.714823 0.149669
v 0.043274 1.717956 0.197146
v -0.004992 1.719359 0.262860
v 0.259884 2.432223 0.453368
v 0.258613 2.426877 0.524647
v 0.280239 2.422935 0.592214
v 0.323466 2.423560 0.648881
v 0.383126 2.424357 0.688666
v 0.453665 2.427585 0.707968
v 0.528483 2.432366 0.705154
v 0.599309 2.437509 0.680196
v 0.661155 2.446889 0.636759
v 0.705998 2.453291 0.577948
v 0.730089 2.459650 0.509936
v 0.729856 2.464953 0.438867
v 0.707978 2.471699 0.372609
v 0.665172 2.475546 0.318600
v 0.605950 2.476379 0.280745
v 0.536764 2.473828 0.263736
v 0.462733 2.466356 0.267171
v 0.392447 2.459104 0.291002
v 0.330772 2.449223 0.331839
v 0.284906 2.439979 0.387067
v 0.587147 3.664721 0.444696
v 0.588093 3.662903 0.511987
v 0.610236 3.665530 0.576057
v 0.649373 3.669035 0.630800
v 0.703627 3.672855 0.670342
v 0.768066 3.677108 0.690286
v 0.836010 3.679561 0.689884
v 0.900451 3.678954 0.668830
v 0.955346 3.677053 0.629125
v 0.994884 3.671373 0.574380
v 1.015816 3.662625 0.510347
v 1.016012 3.661982 0.443084
v 0.995234 3.663992 0.379149
v 0.954910 3.662789 0.325031
v 0.900324 3.667839 0.286020
v 0.835768 3.669315 0.265684
v 0.767770 3.669609 0.266216
v 0.702409 3.667552 0.287078
v 0.647430 3.668734 0.326536
v 0.607562 3.667094 0.380690
v 0.905007 5.593157 0.382283
v 0.904830 5.593593 0.439082
v 0.922026 5.593065 0.494129
v 0.953804 5.593074 0.540871
v 0.997182 5.592181 0.574690
v 1.048219 5.590103 0.592936
v 1.102290 5.589128 0.593942
v 1.153442 5.586865 0.577415
v 1.198429 5.583174 0.546331
v 1.232063 5.577948 0.502559
v 1.251790 5.572101 0.451338
v 1.254879 5.567050 0.397733
v 1.241133 5.565369 0.346257
v 1.211684 5.569332 0.302587
v 1.169086 5.571896 0.270333
v 1.118166 5.570172 0.253022
v 1.062795 5.574150 0.251155
v 1.009072 5.584325 0.265304
v 0.961658 5.590003 0.293573
v 0.925140 5.592481 0.333001
v 0.429448 -5.593593 -0.281391
v 0.370705 -5.593593 -0.396447
v 0.279386 -5.593593 -0.487766
v 0.164318 -5.593593 -0.546395
v 0.036293 -5.593593 -0.566381
v -0.091341 -5.593593 -0.546114
v -0.206327 -5.593593 -0.487526
v -0.297579 -5.593593 -0.396273
v -0.356167 -5.593593 -0.281288
v -0.376552 -5.593593 -0.153826
v -0.356167 -5.593593 -0.026364
v -0.297579 -5.593593 0.088621
v -0.206327 -5.593593 0.179874
v -0.091341 -5.593593 0.238462
v 0.036293 -5.593593 0.258729
v 0.164318 -5.593593 0.238743
v 0.279386 -5.593593 0.180113
v 0.370704 -5.593593 0.088795
v 0.429448 -5.593593 -0.026261
v 0.449652 -5.593593 -0.153826
v 0.273924 -4.172895 -0.275274
v 0.218100 -4.172895 -0.384833
v 0.130892 -4.172895 -0.471696
v 0.021361 -4.172895 -0.527504
v -0.100426 -4.172895 -0.546543
v -0.221782 -4.172895 -0.527322
v -0.331474 -4.172895 -0.471412
v -0.418320 -4.172895 -0.384565
v -0.474079 -4.172895 -0.275133
v -0.493389 -4.172895 -0.153826
v -0.474079 -4.172895 -0.032519
v -0.418320 -4.172895 0.076913
v -0.331474 -4.172895 0.163759
v -0.221782 -4.172895 0.219670
v -0.100426 -4.172895 0.238891
v 0.021361 -4.172895 0.219852
v 0.130891 -4.172895 0.164044
v 0.218100 -4.172895 0.077181
v 0.273924 -4.172895 -0.032379
v 0.293159 -4.172895 -0.153826
v 0.101558 -2.756436 -0.268239
v 0.048968 -2.756350 -0.371452
v -0.033178 -2.756217 -0.453277
v -0.136362 -2.756048 -0.505852
v -0.251055 -2.755862 -0.523778
v -0.365376 -2.755675 -0.505672
v -0.468660 -2.755507 -0.453007
v -0.550474 -2.755373 -0.371194
v -0.603001 -2.755287 -0.268103
v -0.621100 -2.755258 -0.153826
v -0.603001 -2.755287 -0.039549
v -0.550473 -2.755373 0.063542
v -0.468660 -2.755507 0.145355
v -0.365376 -2.755675 0.198019
v -0.251055 -2.755862 0.216126
v -0.136362 -2.756048 0.198200
v -0.033178 -2.756217 0.145625
v 0.048968 -2.756350 0.063800
v 0.101558 -2.756436 -0.039413
v 0.119679 -2.756466 -0.153826
v -0.147402 -1.374619 -0.261022
v -0.196668 -1.373688 -0.357725
v -0.273404 -1.372238 -0.434469
v -0.370327 -1.370411 -0.483586
v -0.477461 -1.368386 -0.500556
v -0.585324 -1.366578 -0.483586
v -0.681316 -1.364535 -0.434219
v -0.757983 -1.363085 -0.357543
v -0.807206 -1.362154 -0.260927
v -0.824167 -1.361833 -0.153826
v -0.807206 -1.362154 -0.046725
v -0.757983 -1.363085 0.049891
v -0.681316 -1.364535 0.126567
v -0.585324 -1.366578 0.175934
v -0.477461 -1.368386 0.192904
v -0.370327 -1.370411 0.175934
v -0.273404 -1.372238 0.126816
v -0.196668 -1.373688 0.050073
v -0.147402 -1.374619 -0.046630
v -0.130425 -1.374939 -0.153826
v -0.404036 -0.017288 -0.254227
v -0.450149 -0.014796 -0.344799
v -0.521971 -0.010914 -0.416678
v -0.612471 -0.006023 -0.462827
v -0.712791 -0.000602 -0.478729
v -0.813112 0.004820 -0.462827
v -0.903612 0.009711 -0.416678
v -0.975433 0.013592 -0.344799
v -1.021546 0.016085 -0.254227
v -1.037435 0.016943 -0.153826
v -1.021546 0.016085 -0.053425
v -0.975433 0.013592 0.037147
v -0.903612 0.009711 0.109026
v -0.813112 0.004820 0.155175
v -0.712791 -0.000602 0.171077
v -0.612471 -0.006023 0.155175
v -0.521971 -0.010914 0.109026
v -0.450149 -0.014796 0.037147
v -0.404037 -0.017288 -0.053425
v -0.388148 -0.018146 -0.153826
v -0.596447 1.335909 -0.248325
v -0.639776 1.340310 -0.333574
v -0.707325 1.347136 -0.401228
v -0.792361 1.355774 -0.444665
v -0.886625 1.365349 -0.459632
v -0.980889 1.374924 -0.444665
v -1.066006 1.383562 -0.401326
v -1.133519 1.390417 -0.333646
v -1.176959 1.394835 -0.248410
v -1.191737 1.396351 -0.153826
v -1.176959 1.394835 -0.059242
v -1.133519 1.390417 0.025994
v -1.066006 1.383562 0.093674
v -0.980889 1.374924 0.137013
v -0.886625 1.365349 0.151980
v -0.792361 1.355774 0.137013
v -0.707325 1.347136 0.093576
v -0.639776 1.340310 0.025922
v -0.596448 1.335909 -0.059327
v -0.581518 1.334393 -0.153826
v -0.689939 2.697973 -0.243702
v -0.731046 2.704179 -0.324780
v -0.795071 2.713845 -0.389124
v -0.875747 2.726024 -0.430436
v -0.965177 2.739525 -0.444670
v -1.054664 2.753026 -0.430516
v -1.135363 2.765205 -0.389193
v -1.199408 2.774871 -0.324830
v -1.240526 2.781077 -0.243728
v -1.254879 2.783215 -0.153826
v -1.240526 2.781077 -0.063924
v -1.199408 2.774871 0.017178
v -1.135364 2.765205 0.081541
v -1.054664 2.753026 0.122864
v -0.965177 2.739525 0.137018
v -0.875747 2.726024 0.122783
v -0.795071 2.713845 0.081472
v -0.731046 2.704179 0.017128
v -0.689940 2.697973 -0.063950
v -0.675776 2.695835 -0.153826
v -0.683734 4.074884 -0.240708
v -0.723381 4.082372 -0.319085
v -0.785132 4.094034 -0.381285
v -0.862942 4.108728 -0.421220
v -0.949196 4.125017 -0.434981
v -1.035450 4.141306 -0.421220
v -1.113260 4.156001 -0.381285
v -1.175011 4.167662 -0.319085
v -1.214657 4.175149 -0.240708
v -1.228319 4.177729 -0.153826
v -1.214657 4.175149 -0.066944
v -1.175011 4.167662 0.011433
v -1.113261 4.156001 0.073633
v -1.035450 4.141306 0.113568
v -0.949196 4.125017 0.127329
v -0.862942 4.108728 0.113568
v -0.785131 4.094034 0.073633
v -0.723381 4.082372 0.011433
v -0.683734 4.074885 -0.066944
v -0.670074 4.072305 -0.153826
v -0.598857 5.471706 -0.239652
v -0.637985 5.479656 -0.317077
v -0.698929 5.492037 -0.378522
v -0.775723 5.507639 -0.417972
v -0.860850 5.524934 -0.431566
v -0.945976 5.542229 -0.417972
v -1.022770 5.557831 -0.378522
v -1.083714 5.570212 -0.317077
v -1.122843 5.578162 -0.239652
v -1.136325 5.580901 -0.153826
v -1.122843 5.578162 -0.068000
v -1.083714 5.570212 0.009425
v -1.022770 5.557831 0.070870
v -0.945976 5.542229 0.110320
v -0.860850 5.524934 0.123914
v -0.775723 5.507639 0.110320
v -0.698929 5.492037 0.070870
v -0.637985 5.479656 0.009425
v -0.598857 5.471706 -0.068000
v -0.585374 5.468967 -0.153826
vt 0.253130 0.010254
vt 0.261638 0.011758
vt 0.262166 0.130503
vt 0.253960 0.129518
vt 0.270125 0.013327
vt 0.270347 0.131762
vt 0.278627 0.014743
vt 0.278467 0.133299
vt 0.287107 0.016054
vt 0.286584 0.134875
vt 0.295599 0.017018
vt 0.294688 0.136323
vt 0.304027 0.017558
vt 0.302858 0.137499
vt 0.312430 0.017602
vt 0.311102 0.138269
vt 0.320770 0.017154
vt 0.319425 0.138534
vt 0.329073 0.016349
vt 0.327827 0.138302
vt 0.337322 0.015204
vt 0.336257 0.137665
vt 0.345528 0.013825
vt 0.344693 0.136659
vt 0.353768 0.012540
vt 0.353153 0.135573
vt 0.361998 0.011274
vt 0.361573 0.134083
vt 0.370310 0.010180
vt 0.369952 0.132669
vt 0.378665 0.009359
vt 0.378299 0.131198
vt 0.387086 0.008943
vt 0.386594 0.130039
vt 0.395484 0.008974
vt 0.394899 0.129355
vt 0.403951 0.009550
vt 0.403179 0.129139
vt 0.412446 0.010405
vt 0.411434 0.129313
vt 0.244612 0.008965
vt 0.245713 0.128919
vt 0.263418 0.243103
vt 0.255296 0.242955
vt 0.271579 0.243976
vt 0.279738 0.245435
vt 0.287885 0.247233
vt 0.295996 0.249270
vt 0.304084 0.251196
vt 0.312149 0.252792
vt 0.320212 0.253931
vt 0.328323 0.254430
vt 0.336440 0.254563
vt 0.344448 0.254551
vt 0.352378 0.253844
vt 0.360271 0.252516
vt 0.368153 0.250822
vt 0.376066 0.248788
vt 0.384016 0.246989
vt 0.392027 0.245315
vt 0.400080 0.244385
vt 0.408119 0.243827
vt 0.247228 0.243496
vt 0.271166 0.360319
vt 0.264046 0.360099
vt 0.278202 0.361131
vt 0.285169 0.362379
vt 0.292037 0.363891
vt 0.298950 0.365696
vt 0.305815 0.367219
vt 0.312796 0.368692
vt 0.319799 0.369587
vt 0.326845 0.370027
vt 0.333950 0.369784
vt 0.341007 0.369031
vt 0.348015 0.367635
vt 0.354900 0.366148
vt 0.361852 0.364369
vt 0.368829 0.362835
vt 0.375910 0.361613
vt 0.383081 0.360847
vt 0.390299 0.360678
vt 0.397438 0.361242
vt 0.256881 0.360489
vt 0.277971 0.428289
vt 0.271718 0.428820
vt 0.284191 0.428484
vt 0.290327 0.429598
vt 0.296416 0.431085
vt 0.302521 0.432963
vt 0.308739 0.434988
vt 0.315020 0.436873
vt 0.321351 0.438843
vt 0.327696 0.440141
vt 0.333971 0.440945
vt 0.340216 0.441104
vt 0.346356 0.440927
vt 0.352354 0.440081
vt 0.358376 0.438683
vt 0.364396 0.436890
vt 0.370590 0.434709
vt 0.376870 0.432802
vt 0.383172 0.431027
vt 0.389378 0.429827
vt 0.265619 0.430225
vt 0.279922 0.541127
vt 0.274041 0.541593
vt 0.285858 0.541437
vt 0.291716 0.542150
vt 0.297506 0.543196
vt 0.303269 0.544502
vt 0.309071 0.545758
vt 0.314900 0.546743
vt 0.320756 0.547510
vt 0.326652 0.547755
vt 0.332557 0.547477
vt 0.338404 0.547585
vt 0.344253 0.547599
vt 0.350099 0.547034
vt 0.355944 0.546776
vt 0.361792 0.546042
vt 0.367651 0.545144
vt 0.373549 0.544081
vt 0.379433 0.543476
vt 0.385294 0.542888
vt 0.268213 0.542489
vt 0.286398 0.713717
vt 0.281426 0.714053
vt 0.291460 0.713550
vt 0.296426 0.713669
vt 0.301260 0.713924
vt 0.306028 0.714243
vt 0.310769 0.714770
vt 0.315497 0.715222
vt 0.320327 0.715534
vt 0.325225 0.715631
vt 0.330101 0.715546
vt 0.334861 0.715351
vt 0.339569 0.715257
vt 0.344227 0.715461
vt 0.348944 0.715376
vt 0.353651 0.714800
vt 0.358539 0.714662
vt 0.363487 0.715077
vt 0.368361 0.715170
vt 0.373082 0.715114
vt 0.276791 0.714621
vt 0.029429 0.008980
vt 0.040743 0.008958
vt 0.046352 0.133869
vt 0.035580 0.133875
vt 0.052047 0.009260
vt 0.057129 0.134194
vt 0.063339 0.009814
vt 0.067880 0.134769
vt 0.074656 0.010526
vt 0.078648 0.135505
vt 0.085935 0.011285
vt 0.089375 0.136287
vt 0.097197 0.011985
vt 0.100124 0.137013
vt 0.108462 0.012531
vt 0.110853 0.137580
vt 0.119733 0.012847
vt 0.121588 0.137911
vt 0.131008 0.012883
vt 0.132327 0.137957
vt 0.142280 0.012615
vt 0.143064 0.137694
vt 0.153541 0.012068
vt 0.153790 0.137146
vt 0.164793 0.011290
vt 0.164504 0.136363
vt 0.176038 0.010358
vt 0.175236 0.135420
vt 0.187299 0.009366
vt 0.185945 0.134420
vt 0.198599 0.008419
vt 0.196696 0.133465
vt 0.209878 0.007630
vt 0.207434 0.132670
vt 0.221175 0.007092
vt 0.218202 0.132125
vt 0.232490 0.006877
vt 0.228973 0.131910
vt 0.006836 0.010164
vt 0.018123 0.009378
vt 0.024816 0.134258
vt 0.014071 0.135033
vt 0.052309 0.258063
vt 0.042158 0.257990
vt 0.062464 0.258536
vt 0.072596 0.259313
vt 0.082745 0.260280
vt 0.092871 0.261299
vt 0.103032 0.262242
vt 0.113200 0.262982
vt 0.123394 0.263426
vt 0.133601 0.263511
vt 0.143805 0.263224
vt 0.153988 0.262580
vt 0.164140 0.261639
vt 0.174281 0.260497
vt 0.184385 0.259278
vt 0.194513 0.258111
vt 0.204627 0.257136
vt 0.214770 0.256463
vt 0.224916 0.256192
vt 0.032017 0.258374
vt 0.021907 0.259234
vt 0.059095 0.380187
vt 0.049587 0.379970
vt 0.068577 0.380893
vt 0.078034 0.381972
vt 0.087448 0.383268
vt 0.096921 0.384607
vt 0.106300 0.385857
vt 0.115757 0.386833
vt 0.125250 0.387431
vt 0.134764 0.387576
vt 0.144272 0.387243
vt 0.153751 0.386457
vt 0.163187 0.385294
vt 0.172539 0.383859
vt 0.181982 0.382334
vt 0.191367 0.380853
vt 0.200799 0.379589
vt 0.210261 0.378699
vt 0.219758 0.378298
vt 0.040082 0.380315
vt 0.030620 0.381248
vt 0.065365 0.501290
vt 0.056469 0.500966
vt 0.074224 0.502111
vt 0.083036 0.503305
vt 0.091813 0.504711
vt 0.100581 0.506157
vt 0.109367 0.507471
vt 0.118190 0.508503
vt 0.127052 0.509135
vt 0.135935 0.509295
vt 0.144813 0.508956
vt 0.153660 0.508144
vt 0.162461 0.506934
vt 0.171219 0.505444
vt 0.179955 0.503822
vt 0.188702 0.502241
vt 0.197489 0.500872
vt 0.206329 0.499874
vt 0.215215 0.499375
vt 0.047568 0.501219
vt 0.038704 0.502075
vt 0.070669 0.622018
vt 0.062297 0.621656
vt 0.079015 0.622824
vt 0.087320 0.623961
vt 0.095598 0.625282
vt 0.103868 0.626627
vt 0.112155 0.627841
vt 0.120471 0.628789
vt 0.128816 0.629368
vt 0.137180 0.629507
vt 0.145538 0.629189
vt 0.153870 0.628432
vt 0.162164 0.627308
vt 0.170424 0.625918
vt 0.178664 0.624398
vt 0.186912 0.622903
vt 0.195193 0.621591
vt 0.203522 0.620611
vt 0.211886 0.620074
vt 0.053918 0.621815
vt 0.045566 0.622519
vt 0.075014 0.742955
vt 0.067044 0.742591
vt 0.082971 0.743696
vt 0.090909 0.744712
vt 0.098833 0.745877
vt 0.106757 0.747057
vt 0.114685 0.748115
vt 0.122626 0.748937
vt 0.130580 0.749431
vt 0.138542 0.749540
vt 0.146500 0.749245
vt 0.154440 0.748565
vt 0.162360 0.747559
vt 0.170261 0.746316
vt 0.178156 0.744954
vt 0.186051 0.743606
vt 0.193965 0.742407
vt 0.201903 0.741484
vt 0.209865 0.740937
vt 0.059074 0.742668
vt 0.051120 0.743207
vt 0.078377 0.864745
vt 0.070661 0.864384
vt 0.086096 0.865416
vt 0.093815 0.866311
vt 0.101532 0.867327
vt 0.109246 0.868348
vt 0.116957 0.869260
vt 0.124665 0.869964
vt 0.132369 0.870380
vt 0.140068 0.870459
vt 0.147762 0.870182
vt 0.155452 0.869567
vt 0.163138 0.868666
vt 0.170822 0.867555
vt 0.178506 0.866336
vt 0.186193 0.865122
vt 0.193884 0.864028
vt 0.201582 0.863158
vt 0.209285 0.862597
vt 0.062953 0.864385
vt 0.055253 0.864768
vt 0.080530 0.987862
vt 0.072906 0.987501
vt 0.088169 0.988500
vt 0.095821 0.989340
vt 0.103485 0.990285
vt 0.111155 0.991232
vt 0.118825 0.992077
vt 0.126491 0.992725
vt 0.134150 0.993103
vt 0.141802 0.993164
vt 0.149450 0.992896
vt 0.157095 0.992310
vt 0.164741 0.991455
vt 0.172385 0.990403
vt 0.180026 0.989248
vt 0.187662 0.988094
vt 0.195289 0.987046
vt 0.202908 0.986198
vt 0.210520 0.985627
vt 0.065294 0.987466
vt 0.057686 0.987773
vn -0.984832 -0.034752 -0.169994
vn -0.986867 -0.076092 0.142494
vn -0.984662 0.049582 0.167281
vn -0.986664 0.077542 -0.143112
vn -0.986867 -0.076092 0.142494
vn -0.890081 -0.109117 0.442548
vn -0.887452 0.017428 0.460571
vn -0.984662 0.049582 0.167281
vn -0.890081 -0.109117 0.442548
vn -0.703425 -0.130607 0.698666
vn -0.704477 -0.014856 0.709571
vn -0.887452 0.017428 0.460571
vn -0.703425 -0.130607 0.698666
vn -0.447092 -0.138480 0.883704
vn -0.453471 -0.046780 0.890043
vn -0.704477 -0.014856 0.709571
vn -0.447092 -0.138480 0.883704
vn -0.147023 -0.132153 0.980265
vn -0.159326 -0.075192 0.984358
vn -0.453471 -0.046780 0.890043
vn -0.147023 -0.132153 0.980265
vn 0.167157 -0.112269 0.979517
vn 0.151077 -0.097330 0.983719
vn -0.159326 -0.075192 0.984358
vn 0.167157 -0.112269 0.979517
vn 0.464798 -0.080612 0.881739
vn 0.447387 -0.110116 0.887536
vn 0.151077 -0.097330 0.983719
vn 0.464798 -0.080612 0.881739
vn 0.716139 -0.040169 0.696801
vn 0.700543 -0.111029 0.704920
vn 0.447387 -0.110116 0.887536
vn 0.716139 -0.040169 0.696801
vn 0.897501 0.005504 0.440979
vn 0.885358 -0.099148 0.454215
vn 0.700543 -0.111029 0.704920
vn 0.897501 0.005504 0.440979
vn 0.989327 0.052366 0.135978
vn 0.984844 -0.076233 0.155790
vn 0.885358 -0.099148 0.454215
vn 0.989327 0.052366 0.135978
vn 0.978980 0.094447 -0.180772
vn 0.985507 -0.043216 -0.164036
vn 0.984844 -0.076233 0.155790
vn 0.978980 0.094447 -0.180772
vn 0.872373 0.126978 -0.472062
vn 0.885205 -0.008327 -0.465127
vn 0.985507 -0.043216 -0.164036
vn 0.872373 0.126978 -0.472062
vn 0.681306 0.147798 -0.716923
vn 0.695014 0.032096 -0.718280
vn 0.885205 -0.008327 -0.465127
vn 0.681306 0.147798 -0.716923
vn 0.426687 0.154815 -0.891050
vn 0.435976 0.066500 -0.897498
vn 0.695014 0.032096 -0.718280
vn 0.426687 0.154815 -0.891050
vn 0.133390 0.147635 -0.980006
vn 0.134834 0.095309 -0.986274
vn 0.435976 0.066500 -0.897498
vn 0.133390 0.147635 -0.980006
vn -0.171195 0.127056 -0.977010
vn -0.176853 0.112718 -0.977762
vn 0.134834 0.095309 -0.986274
vn -0.171195 0.127056 -0.977010
vn -0.458465 0.095294 -0.883589
vn -0.469131 0.118839 -0.875096
vn -0.176853 0.112718 -0.977762
vn -0.458465 0.095294 -0.883589
vn -0.705836 0.055060 -0.706232
vn -0.716841 0.114377 -0.687792
vn -0.469131 0.118839 -0.875096
vn -0.705836 0.055060 -0.706232
vn -0.887386 0.010315 -0.460913
vn -0.894267 0.099246 -0.436391
vn -0.716841 0.114377 -0.687792
vn -0.887386 0.010315 -0.460913
vn -0.984832 -0.034752 -0.169994
vn -0.986664 0.077542 -0.143112
vn -0.894267 0.099246 -0.436391
vn -0.986664 0.077542 -0.143112
vn -0.984662 0.049582 0.167281
vn -0.957189 0.240596 0.160945
vn -0.949528 0.278959 -0.143449
vn -0.984662 0.049582 0.167281
vn -0.887452 0.017428 0.460571
vn -0.873482 0.180647 0.452101
vn -0.957189 0.240596 0.160945
vn -0.887452 0.017428 0.460571
vn -0.704477 -0.014856 0.709571
vn -0.702758 0.102370 0.704025
vn -0.873482 0.180647 0.452101
vn -0.704477 -0.014856 0.709571
vn -0.453471 -0.046780 0.890043
vn -0.458084 0.012368 0.888823
vn -0.702758 0.102370 0.704025
vn -0.453471 -0.046780 0.890043
vn -0.159326 -0.075192 0.984358
vn -0.162858 -0.080623 0.983350
vn -0.458084 0.012368 0.888823
vn -0.159326 -0.075192 0.984358
vn 0.151077 -0.097330 0.983719
vn 0.151093 -0.165084 0.974638
vn -0.162858 -0.080623 0.983350
vn 0.151077 -0.097330 0.983719
vn 0.447387 -0.110116 0.887536
vn 0.446201 -0.230047 0.864860
vn 0.151093 -0.165084 0.974638
vn 0.447387 -0.110116 0.887536
vn 0.700543 -0.111029 0.704920
vn 0.692244 -0.268891 0.669698
vn 0.446201 -0.230047 0.864860
vn 0.700543 -0.111029 0.704920
vn 0.885358 -0.099148 0.454215
vn 0.863775 -0.277858 0.420343
vn 0.692244 -0.268891 0.669698
vn 0.885358 -0.099148 0.454215
vn 0.984844 -0.076233 0.155790
vn 0.955911 -0.260566 0.135427
vn 0.863775 -0.277858 0.420343
vn 0.984844 -0.076233 0.155790
vn 0.985507 -0.043216 -0.164036
vn 0.960777 -0.217237 -0.172380
vn 0.955911 -0.260566 0.135427
vn 0.985507 -0.043216 -0.164036
vn 0.885205 -0.008327 -0.465127
vn 0.872056 -0.148898 -0.466206
vn 0.960777 -0.217237 -0.172380
vn 0.885205 -0.008327 -0.465127
vn 0.695014 0.032096 -0.718280
vn 0.694308 -0.063571 -0.716865
vn 0.872056 -0.148898 -0.466206
vn 0.695014 0.032096 -0.718280
vn 0.435976 0.066500 -0.897498
vn 0.445528 0.028939 -0.894800
vn 0.694308 -0.063571 -0.716865
vn 0.435976 0.066500 -0.897498
vn 0.134834 0.095309 -0.986274
vn 0.153204 0.116231 -0.981335
vn 0.445528 0.028939 -0.894800
vn 0.134834 0.095309 -0.986274
vn -0.176853 0.112718 -0.977762
vn -0.152040 0.193135 -0.969321
vn 0.153204 0.116231 -0.981335
vn -0.176853 0.112718 -0.977762
vn -0.469131 0.118839 -0.875096
vn -0.437841 0.247838 -0.864218
vn -0.152040 0.193135 -0.969321
vn -0.469131 0.118839 -0.875096
vn -0.716841 0.114377 -0.687792
vn -0.680363 0.284276 -0.675495
vn -0.437841 0.247838 -0.864218
vn -0.716841 0.114377 -0.687792
vn -0.894267 0.099246 -0.436391
vn -0.855329 0.292044 -0.427927
vn -0.680363 0.284276 -0.675495
vn -0.894267 0.099246 -0.436391
vn -0.986664 0.077542 -0.143112
vn -0.949528 0.278959 -0.143449
vn -0.855329 0.292044 -0.427927
vn -0.949528 0.278959 -0.143449
vn -0.957189 0.240596 0.160945
vn -0.934220 0.311345 0.174062
vn -0.920348 0.369875 -0.127093
vn -0.957189 0.240596 0.160945
vn -0.873482 0.180647 0.452101
vn -0.855773 0.224304 0.466197
vn -0.934220 0.311345 0.174062
vn -0.873482 0.180647 0.452101
vn -0.702758 0.102370 0.704025
vn -0.685919 0.115944 0.718381
vn -0.855773 0.224304 0.466197
vn -0.702758 0.102370 0.704025
vn -0.458084 0.012368 0.888823
vn -0.439992 -0.002166 0.897999
vn -0.685919 0.115944 0.718381
vn -0.458084 0.012368 0.888823
vn -0.162858 -0.080623 0.983350
vn -0.146503 -0.114629 0.982546
vn -0.439992 -0.002166 0.897999
vn -0.162858 -0.080623 0.983350
vn 0.151093 -0.165084 0.974638
vn 0.157573 -0.212057 0.964470
vn -0.146503 -0.114629 0.982546
vn 0.151093 -0.165084 0.974638
vn 0.446201 -0.230047 0.864860
vn 0.438841 -0.282694 0.852938
vn 0.157573 -0.212057 0.964470
vn 0.446201 -0.230047 0.864860
vn 0.692244 -0.268891 0.669698
vn 0.672886 -0.325461 0.664304
vn 0.438841 -0.282694 0.852938
vn 0.692244 -0.268891 0.669698
vn 0.863775 -0.277858 0.420343
vn 0.839089 -0.336883 0.427129
vn 0.672886 -0.325461 0.664304
vn 0.863775 -0.277858 0.420343
vn 0.955911 -0.260566 0.135427
vn 0.935840 -0.317933 0.152058
vn 0.839089 -0.336883 0.427129
vn 0.955911 -0.260566 0.135427
vn 0.960777 -0.217237 -0.172380
vn 0.952285 -0.265186 -0.151094
vn 0.935840 -0.317933 0.152058
vn 0.960777 -0.217237 -0.172380
vn 0.872056 -0.148898 -0.466206
vn 0.875915 -0.180076 -0.447600
vn 0.952285 -0.265186 -0.151094
vn 0.872056 -0.148898 -0.466206
vn 0.694308 -0.063571 -0.716865
vn 0.704635 -0.069331 -0.706174
vn 0.875915 -0.180076 -0.447600
vn 0.694308 -0.063571 -0.716865
vn 0.445528 0.028939 -0.894800
vn 0.454136 0.056149 -0.889161
vn 0.704635 -0.069331 -0.706174
vn 0.445528 0.028939 -0.894800
vn 0.153204 0.116231 -0.981335
vn 0.159510 0.176432 -0.971302
vn 0.454136 0.056149 -0.889161
vn 0.153204 0.116231 -0.981335
vn -0.152040 0.193135 -0.969321
vn -0.140770 0.277202 -0.950444
vn 0.159510 0.176432 -0.971302
vn -0.152040 0.193135 -0.969321
vn -0.437841 0.247838 -0.864218
vn -0.416785 0.349452 -0.839151
vn -0.140770 0.277202 -0.950444
vn -0.437841 0.247838 -0.864218
vn -0.680363 0.284276 -0.675495
vn -0.650307 0.389674 -0.652116
vn -0.416785 0.349452 -0.839151
vn -0.680363 0.284276 -0.675495
vn -0.855329 0.292044 -0.427927
vn -0.822724 0.396094 -0.407719
vn -0.650307 0.389674 -0.652116
vn -0.855329 0.292044 -0.427927
vn -0.949528 0.278959 -0.143449
vn -0.920348 0.369875 -0.127093
vn -0.822724 0.396094 -0.407719
vn -0.920348 0.369875 -0.127093
vn -0.934220 0.311345 0.174062
vn -0.940565 0.296495 0.165617
vn -0.939470 0.314085 -0.136921
vn -0.934220 0.311345 0.174062
vn -0.855773 0.224304 0.466197
vn -0.855500 0.253954 0.451251
vn -0.940565 0.296495 0.165617
vn -0.855773 0.224304 0.466197
vn -0.685919 0.115944 0.718381
vn -0.684121 0.187198 0.704936
vn -0.855500 0.253954 0.451251
vn -0.685919 0.115944 0.718381
vn -0.439992 -0.002166 0.897999
vn -0.433242 0.102830 0.895392
vn -0.684121 0.187198 0.704936
vn -0.439992 -0.002166 0.897999
vn -0.146503 -0.114629 0.982546
vn -0.135625 0.011637 0.990692
vn -0.433242 0.102830 0.895392
vn -0.146503 -0.114629 0.982546
vn 0.157573 -0.212057 0.964470
vn 0.169278 -0.075320 0.982686
vn -0.135625 0.011637 0.990692
vn 0.157573 -0.212057 0.964470
vn 0.438841 -0.282694 0.852938
vn 0.450805 -0.152067 0.879574
vn 0.169278 -0.075320 0.982686
vn 0.438841 -0.282694 0.852938
vn 0.672886 -0.325461 0.664304
vn 0.685401 -0.209013 0.697524
vn 0.450805 -0.152067 0.879574
vn 0.672886 -0.325461 0.664304
vn 0.839089 -0.336883 0.427129
vn 0.855703 -0.247818 0.454267
vn 0.685401 -0.209013 0.697524
vn 0.839089 -0.336883 0.427129
vn 0.935840 -0.317933 0.152058
vn 0.951517 -0.262160 0.160898
vn 0.855703 -0.247818 0.454267
vn 0.935840 -0.317933 0.152058
vn 0.952285 -0.265186 -0.151094
vn 0.955571 -0.249396 -0.157114
vn 0.951517 -0.262160 0.160898
vn 0.952285 -0.265186 -0.151094
vn 0.875915 -0.180076 -0.447600
vn 0.864465 -0.208642 -0.457350
vn 0.955571 -0.249396 -0.157114
vn 0.875915 -0.180076 -0.447600
vn 0.704635 -0.069331 -0.706174
vn 0.680035 -0.142667 -0.719165
vn 0.864465 -0.208642 -0.457350
vn 0.704635 -0.069331 -0.706174
vn 0.454136 0.056149 -0.889161
vn 0.423060 -0.058008 -0.904243
vn 0.680035 -0.142667 -0.719165
vn 0.454136 0.056149 -0.889161
vn 0.159510 0.176432 -0.971302
vn 0.124780 0.034668 -0.991579
vn 0.423060 -0.058008 -0.904243
vn 0.159510 0.176432 -0.971302
vn -0.140770 0.277202 -0.950444
vn -0.173663 0.126011 -0.976710
vn 0.124780 0.034668 -0.991579
vn -0.140770 0.277202 -0.950444
vn -0.416785 0.349452 -0.839151
vn -0.445531 0.201964 -0.872189
vn -0.173663 0.126011 -0.976710
vn -0.416785 0.349452 -0.839151
vn -0.650307 0.389674 -0.652116
vn -0.675862 0.263769 -0.688213
vn -0.445531 0.201964 -0.872189
vn -0.650307 0.389674 -0.652116
vn -0.822724 0.396094 -0.407719
vn -0.848818 0.302861 -0.433339
vn -0.675862 0.263769 -0.688213
vn -0.822724 0.396094 -0.407719
vn -0.920348 0.369875 -0.127093
vn -0.939470 0.314085 -0.136921
vn -0.848818 0.302861 -0.433339
vn -0.939470 0.314085 -0.136921
vn -0.940565 0.296495 0.165617
vn -0.965056 0.205472 0.162626
vn -0.968158 0.198428 -0.152630
vn -0.940565 0.296495 0.165617
vn -0.855500 0.253954 0.451251
vn -0.875434 0.192819 0.443212
vn -0.965056 0.205472 0.162626
vn -0.855500 0.253954 0.451251
vn -0.684121 0.187198 0.704936
vn -0.702543 0.163494 0.692605
vn -0.875434 0.192819 0.443212
vn -0.684121 0.187198 0.704936
vn -0.433242 0.102830 0.895392
vn -0.447893 0.117120 0.886383
vn -0.702543 0.163494 0.692605
vn -0.433242 0.102830 0.895392
vn -0.135625 0.011637 0.990692
vn -0.147203 0.060806 0.987235
vn -0.447893 0.117120 0.886383
vn -0.135625 0.011637 0.990692
vn 0.169278 -0.075320 0.982686
vn 0.164511 0.001774 0.986374
vn -0.147203 0.060806 0.987235
vn 0.169278 -0.075320 0.982686
vn 0.450805 -0.152067 0.879574
vn 0.453889 -0.054112 0.889414
vn 0.164511 0.001774 0.986374
vn 0.450805 -0.152067 0.879574
vn 0.685401 -0.209013 0.697524
vn 0.695987 -0.101043 0.710910
vn 0.453889 -0.054112 0.889414
vn 0.685401 -0.209013 0.697524
vn 0.855703 -0.247818 0.454267
vn 0.872502 -0.137726 0.468798
vn 0.695987 -0.101043 0.710910
vn 0.855703 -0.247818 0.454267
vn 0.951517 -0.262160 0.160898
vn 0.970298 -0.164102 0.177743
vn 0.872502 -0.137726 0.468798
vn 0.951517 -0.262160 0.160898
vn 0.955571 -0.249396 -0.157114
vn 0.975433 -0.169626 -0.140564
vn 0.970298 -0.164102 0.177743
vn 0.955571 -0.249396 -0.157114
vn 0.864465 -0.208642 -0.457350
vn 0.880843 -0.156632 -0.446746
vn 0.975433 -0.169626 -0.140564
vn 0.864465 -0.208642 -0.457350
vn 0.680035 -0.142667 -0.719165
vn 0.692989 -0.128180 -0.709462
vn 0.880843 -0.156632 -0.446746
vn 0.680035 -0.142667 -0.719165
vn 0.423060 -0.058008 -0.904243
vn 0.440200 -0.083401 -0.894018
vn 0.692989 -0.128180 -0.709462
vn 0.423060 -0.058008 -0.904243
vn 0.124780 0.034668 -0.991579
vn 0.145755 -0.030724 -0.988844
vn 0.440200 -0.083401 -0.894018
vn 0.124780 0.034668 -0.991579
vn -0.173663 0.126011 -0.976710
vn -0.151991 0.024776 -0.988071
vn 0.145755 -0.030724 -0.988844
vn -0.173663 0.126011 -0.976710
vn -0.445531 0.201964 -0.872189
vn -0.430356 0.079568 -0.899145
vn -0.151991 0.024776 -0.988071
vn -0.445531 0.201964 -0.872189
vn -0.675862 0.263769 -0.688213
vn -0.672696 0.128443 -0.728686
vn -0.430356 0.079568 -0.899145
vn -0.675862 0.263769 -0.688213
vn -0.848818 0.302861 -0.433339
vn -0.865018 0.171258 -0.471608
vn -0.672696 0.128443 -0.728686
vn -0.848818 0.302861 -0.433339
vn -0.939470 0.314085 -0.136921
vn -0.968158 0.198428 -0.152630
vn -0.865018 0.171258 -0.471608
vn -0.968158 0.198428 -0.152630
vn -0.965056 0.205472 0.162626
vn -0.973324 0.165677 0.158716
vn -0.973647 0.155582 -0.166750
vn -0.965056 0.205472 0.162626
vn -0.875434 0.192819 0.443212
vn -0.883358 0.161639 0.439945
vn -0.973324 0.165677 0.158716
vn -0.875434 0.192819 0.443212
vn -0.702543 0.163494 0.692605
vn -0.710706 0.144565 0.688475
vn -0.883358 0.161639 0.439945
vn -0.702543 0.163494 0.692605
vn -0.447893 0.117120 0.886383
vn -0.455716 0.113592 0.882848
vn -0.710706 0.144565 0.688475
vn -0.447893 0.117120 0.886383
vn -0.147203 0.060806 0.987235
vn -0.151878 0.072470 0.985739
vn -0.455716 0.113592 0.882848
vn -0.147203 0.060806 0.987235
vn 0.164511 0.001774 0.986374
vn 0.165196 0.026633 0.985901
vn -0.151878 0.072470 0.985739
vn 0.164511 0.001774 0.986374
vn 0.453889 -0.054112 0.889414
vn 0.455828 -0.017977 0.889886
vn 0.165196 0.026633 0.985901
vn 0.453889 -0.054112 0.889414
vn 0.695987 -0.101043 0.710910
vn 0.698121 -0.058106 0.713618
vn 0.455828 -0.017977 0.889886
vn 0.695987 -0.101043 0.710910
vn 0.872502 -0.137726 0.468798
vn 0.874115 -0.090911 0.477136
vn 0.698121 -0.058106 0.713618
vn 0.872502 -0.137726 0.468798
vn 0.970298 -0.164102 0.177743
vn 0.973958 -0.114399 0.195750
vn 0.874115 -0.090911 0.477136
vn 0.970298 -0.164102 0.177743
vn 0.975433 -0.169626 -0.140564
vn 0.984489 -0.126271 -0.121808
vn 0.973958 -0.114399 0.195750
vn 0.975433 -0.169626 -0.140564
vn 0.880843 -0.156632 -0.446746
vn 0.891470 -0.122632 -0.436168
vn 0.984489 -0.126271 -0.121808
vn 0.880843 -0.156632 -0.446746
vn 0.692989 -0.128180 -0.709462
vn 0.706019 -0.103282 -0.700621
vn 0.891470 -0.122632 -0.436168
vn 0.692989 -0.128180 -0.709462
vn 0.440200 -0.083401 -0.894018
vn 0.462914 -0.072553 -0.883429
vn 0.706019 -0.103282 -0.700621
vn 0.440200 -0.083401 -0.894018
vn 0.145755 -0.030724 -0.988844
vn 0.171930 -0.032197 -0.984583
vn 0.462914 -0.072553 -0.883429
vn 0.145755 -0.030724 -0.988844
vn -0.151991 0.024776 -0.988071
vn -0.134934 0.012926 -0.990770
vn 0.171930 -0.032197 -0.984583
vn -0.151991 0.024776 -0.988071
vn -0.430356 0.079568 -0.899145
vn -0.416678 0.056112 -0.907321
vn -0.134934 0.012926 -0.990770
vn -0.430356 0.079568 -0.899145
vn -0.672696 0.128443 -0.728686
vn -0.660209 0.095065 -0.745041
vn -0.416678 0.056112 -0.907321
vn -0.672696 0.128443 -0.728686
vn -0.865018 0.171258 -0.471608
vn -0.859303 0.129836 -0.494713
vn -0.660209 0.095065 -0.745041
vn -0.865018 0.171258 -0.471608
vn -0.968158 0.198428 -0.152630
vn -0.973647 0.155582 -0.166750
vn -0.859303 0.129836 -0.494713
vn 0.946653 0.104924 -0.304694
vn 0.808495 0.091659 -0.581321
vn 0.804833 0.096284 -0.585640
vn 0.945228 0.110434 -0.307163
vn 0.808495 0.091659 -0.581321
vn 0.592195 0.070930 -0.802667
vn 0.585778 0.074213 -0.807067
vn 0.804833 0.096284 -0.585640
vn 0.592195 0.070930 -0.802667
vn 0.316200 0.044414 -0.947652
vn 0.307688 0.046145 -0.950368
vn 0.585778 0.074213 -0.807067
vn 0.316200 0.044414 -0.947652
vn 0.008577 0.014784 -0.999854
vn -0.000647 0.014964 -0.999888
vn 0.307688 0.046145 -0.950368
vn 0.008577 0.014784 -0.999854
vn -0.300506 -0.014964 -0.953663
vn -0.308980 -0.016218 -0.950930
vn -0.000647 0.014964 -0.999888
vn -0.300506 -0.014964 -0.953663
vn -0.580974 -0.041961 -0.812840
vn -0.587038 -0.044358 -0.808344
vn -0.308980 -0.016218 -0.950930
vn -0.580974 -0.041961 -0.812840
vn -0.804097 -0.063467 -0.591101
vn -0.807160 -0.066659 -0.586558
vn -0.587038 -0.044358 -0.808344
vn -0.804097 -0.063467 -0.591101
vn -0.947134 -0.077243 -0.311402
vn -0.947804 -0.080902 -0.308419
vn -0.807160 -0.066659 -0.586558
vn -0.947134 -0.077243 -0.311402
vn -0.996633 -0.081995 0.000000
vn -0.996312 -0.085802 0.000000
vn -0.947804 -0.080902 -0.308419
vn -0.996633 -0.081995 0.000000
vn -0.947134 -0.077243 0.311402
vn -0.947804 -0.080902 0.308419
vn -0.996312 -0.085802 0.000000
vn -0.947134 -0.077243 0.311402
vn -0.804097 -0.063467 0.591101
vn -0.807159 -0.066659 0.586558
vn -0.947804 -0.080902 0.308419
vn -0.804097 -0.063467 0.591101
vn -0.580974 -0.041961 0.812840
vn -0.587037 -0.044358 0.808344
vn -0.807159 -0.066659 0.586558
vn -0.580974 -0.041961 0.812840
vn -0.300506 -0.014964 0.953663
vn -0.308980 -0.016218 0.950930
vn -0.587037 -0.044358 0.808344
vn -0.300506 -0.014964 0.953663
vn 0.008577 0.014784 0.999854
vn -0.000647 0.014964 0.999888
vn -0.308980 -0.016218 0.950930
vn 0.008577 0.014784 0.999854
vn 0.316200 0.044414 0.947652
vn 0.307688 0.046145 0.950368
vn -0.000647 0.014964 0.999888
vn 0.316200 0.044414 0.947652
vn 0.592195 0.070930 0.802667
vn 0.585778 0.074213 0.807067
vn 0.307688 0.046145 0.950368
vn 0.592195 0.070930 0.802667
vn 0.808495 0.091659 0.581321
vn 0.804833 0.096284 0.585639
vn 0.585778 0.074213 0.807067
vn 0.808495 0.091659 0.581321
vn 0.946653 0.104924 0.304695
vn 0.945227 0.110434 0.307164
vn 0.804833 0.096284 0.585639
vn 0.946653 0.104924 0.304695
vn 0.993988 0.109490 0.000001
vn 0.993332 0.115293 0.000001
vn 0.945227 0.110434 0.307164
vn 0.993988 0.109490 0.000001
vn 0.946653 0.104924 -0.304694
vn 0.945228 0.110434 -0.307163
vn 0.993332 0.115293 0.000001
vn 0.945228 0.110434 -0.307163
vn 0.804833 0.096284 -0.585640
vn 0.803315 0.123759 -0.582554
vn 0.941689 0.142113 -0.305001
vn 0.804833 0.096284 -0.585640
vn 0.585778 0.074213 -0.807067
vn 0.586162 0.094910 -0.804615
vn 0.803315 0.123759 -0.582554
vn 0.585778 0.074213 -0.807067
vn 0.307688 0.046145 -0.950368
vn 0.309626 0.058123 -0.949080
vn 0.586162 0.094910 -0.804615
vn 0.307688 0.046145 -0.950368
vn -0.000647 0.014964 -0.999888
vn 0.001656 0.017014 -0.999854
vn 0.309626 0.058123 -0.949080
vn -0.000647 0.014964 -0.999888
vn -0.308980 -0.016218 -0.950930
vn -0.307341 -0.024346 -0.951288
vn 0.001656 0.017014 -0.999854
vn -0.308980 -0.016218 -0.950930
vn -0.587038 -0.044358 -0.808344
vn -0.585973 -0.061683 -0.807980
vn -0.307341 -0.024346 -0.951288
vn -0.587038 -0.044358 -0.808344
vn -0.807160 -0.066659 -0.586558
vn -0.805127 -0.091076 -0.586068
vn -0.585973 -0.061683 -0.807980
vn -0.807160 -0.066659 -0.586558
vn -0.947804 -0.080902 -0.308419
vn -0.945131 -0.109899 -0.307652
vn -0.805127 -0.091076 -0.586068
vn -0.947804 -0.080902 -0.308419
vn -0.996312 -0.085802 0.000000
vn -0.993207 -0.116361 0.000000
vn -0.945131 -0.109899 -0.307652
vn -0.996312 -0.085802 0.000000
vn -0.947804 -0.080902 0.308419
vn -0.945131 -0.109899 0.307653
vn -0.993207 -0.116361 0.000000
vn -0.947804 -0.080902 0.308419
vn -0.807159 -0.066659 0.586558
vn -0.805127 -0.091076 0.586068
vn -0.945131 -0.109899 0.307653
vn -0.807159 -0.066659 0.586558
vn -0.587037 -0.044358 0.808344
vn -0.585973 -0.061683 0.807980
vn -0.805127 -0.091076 0.586068
vn -0.587037 -0.044358 0.808344
vn -0.308980 -0.016218 0.950930
vn -0.307340 -0.024346 0.951288
vn -0.585973 -0.061683 0.807980
vn -0.308980 -0.016218 0.950930
vn -0.000647 0.014964 0.999888
vn 0.001656 0.017014 0.999854
vn -0.307340 -0.024346 0.951288
vn -0.000647 0.014964 0.999888
vn 0.307688 0.046145 0.950368
vn 0.309626 0.058124 0.949080
vn 0.001656 0.017014 0.999854
vn 0.307688 0.046145 0.950368
vn 0.585778 0.074213 0.807067
vn 0.586162 0.094910 0.804615
vn 0.309626 0.058124 0.949080
vn 0.585778 0.074213 0.807067
vn 0.804833 0.096284 0.585639
vn 0.803315 0.123759 0.582553
vn 0.586162 0.094910 0.804615
vn 0.804833 0.096284 0.585639
vn 0.945227 0.110434 0.307164
vn 0.941689 0.142113 0.305002
vn 0.803315 0.123759 0.582553
vn 0.945227 0.110434 0.307164
vn 0.993332 0.115293 0.000001
vn 0.988932 0.148368 0.000001
vn 0.941689 0.142113 0.305002
vn 0.993332 0.115293 0.000001
vn 0.945228 0.110434 -0.307163
vn 0.941689 0.142113 -0.305001
vn 0.988932 0.148368 0.000001
vn 0.941689 0.142113 -0.305001
vn 0.803315 0.123759 -0.582554
vn 0.800603 0.151222 -0.579799
vn 0.936854 0.174246 -0.303222
vn 0.803315 0.123759 -0.582554
vn 0.586162 0.094910 -0.804615
vn 0.584705 0.114797 -0.803082
vn 0.800603 0.151222 -0.579799
vn 0.586162 0.094910 -0.804615
vn 0.309626 0.058123 -0.949080
vn 0.308508 0.068298 -0.948767
vn 0.584705 0.114797 -0.803082
vn 0.309626 0.058123 -0.949080
vn 0.001656 0.017014 -0.999854
vn -0.000287 0.016442 -0.999865
vn 0.308508 0.068298 -0.948767
vn 0.001656 0.017014 -0.999854
vn -0.307341 -0.024346 -0.951288
vn -0.310369 -0.035454 -0.949955
vn -0.000287 0.016442 -0.999865
vn -0.307341 -0.024346 -0.951288
vn -0.585973 -0.061683 -0.807980
vn -0.588373 -0.081848 -0.804437
vn -0.310369 -0.035454 -0.949955
vn -0.585973 -0.061683 -0.807980
vn -0.805127 -0.091076 -0.586068
vn -0.804552 -0.117839 -0.582074
vn -0.588373 -0.081848 -0.804437
vn -0.805127 -0.091076 -0.586068
vn -0.945131 -0.109899 -0.307652
vn -0.941976 -0.140679 -0.304778
vn -0.804552 -0.117839 -0.582074
vn -0.945131 -0.109899 -0.307652
vn -0.993207 -0.116361 0.000000
vn -0.988916 -0.148474 0.000000
vn -0.941976 -0.140679 -0.304778
vn -0.993207 -0.116361 0.000000
vn -0.945131 -0.109899 0.307653
vn -0.941976 -0.140679 0.304779
vn -0.988916 -0.148474 0.000000
vn -0.945131 -0.109899 0.307653
vn -0.805127 -0.091076 0.586068
vn -0.804552 -0.117839 0.582074
vn -0.941976 -0.140679 0.304779
vn -0.805127 -0.091076 0.586068
vn -0.585973 -0.061683 0.807980
vn -0.588373 -0.081848 0.804437
vn -0.804552 -0.117839 0.582074
vn -0.585973 -0.061683 0.807980
vn -0.307340 -0.024346 0.951288
vn -0.310369 -0.035454 0.949955
vn -0.588373 -0.081848 0.804437
vn -0.307340 -0.024346 0.951288
vn 0.001656 0.017014 0.999854
vn -0.000287 0.016442 0.999865
vn -0.310369 -0.035454 0.949955
vn 0.001656 0.017014 0.999854
vn 0.309626 0.058124 0.949080
vn 0.308508 0.068298 0.948767
vn -0.000287 0.016442 0.999865
vn 0.309626 0.058124 0.949080
vn 0.586162 0.094910 0.804615
vn 0.584705 0.114797 0.803082
vn 0.308508 0.068298 0.948767
vn 0.586162 0.094910 0.804615
vn 0.803315 0.123759 0.582553
vn 0.800603 0.151222 0.579798
vn 0.584705 0.114797 0.803082
vn 0.803315 0.123759 0.582553
vn 0.941689 0.142113 0.305002
vn 0.936853 0.174246 0.303223
vn 0.800603 0.151222 0.579798
vn 0.941689 0.142113 0.305002
vn 0.988932 0.148368 0.000001
vn 0.983282 0.182090 0.000001
vn 0.936853 0.174246 0.303223
vn 0.988932 0.148368 0.000001
vn 0.941689 0.142113 -0.305001
vn 0.936854 0.174246 -0.303222
vn 0.983282 0.182090 0.000001
vn 0.936854 0.174246 -0.303222
vn 0.800603 0.151222 -0.579799
vn 0.803063 0.137048 -0.579920
vn 0.939677 0.158168 -0.303298
vn 0.800603 0.151222 -0.579799
vn 0.584705 0.114797 -0.803082
vn 0.586252 0.103685 -0.803466
vn 0.803063 0.137048 -0.579920
vn 0.584705 0.114797 -0.803082
vn 0.308508 0.068298 -0.948767
vn 0.308689 0.061286 -0.949187
vn 0.586252 0.103685 -0.803466
vn 0.308508 0.068298 -0.948767
vn -0.000287 0.016442 -0.999865
vn -0.002275 0.014257 -0.999896
vn 0.308689 0.061286 -0.949187
vn -0.000287 0.016442 -0.999865
vn -0.310369 -0.035454 -0.949955
vn -0.313455 -0.032354 -0.949052
vn -0.002275 0.014257 -0.999896
vn -0.310369 -0.035454 -0.949955
vn -0.588373 -0.081848 -0.804437
vn -0.591382 -0.073671 -0.803019
vn -0.313455 -0.032354 -0.949052
vn -0.588373 -0.081848 -0.804437
vn -0.804552 -0.117839 -0.582074
vn -0.807664 -0.105575 -0.580114
vn -0.591382 -0.073671 -0.803019
vn -0.804552 -0.117839 -0.582074
vn -0.941976 -0.140679 -0.304778
vn -0.944551 -0.125624 -0.303384
vn -0.807664 -0.105575 -0.580114
vn -0.941976 -0.140679 -0.304778
vn -0.988916 -0.148474 0.000000
vn -0.991193 -0.132427 0.000000
vn -0.944551 -0.125624 -0.303384
vn -0.988916 -0.148474 0.000000
vn -0.941976 -0.140679 0.304779
vn -0.944551 -0.125624 0.303385
vn -0.991193 -0.132427 0.000000
vn -0.941976 -0.140679 0.304779
vn -0.804552 -0.117839 0.582074
vn -0.807664 -0.105575 0.580114
vn -0.944551 -0.125624 0.303385
vn -0.804552 -0.117839 0.582074
vn -0.588373 -0.081848 0.804437
vn -0.591382 -0.073671 0.803019
vn -0.807664 -0.105575 0.580114
vn -0.588373 -0.081848 0.804437
vn -0.310369 -0.035454 0.949955
vn -0.313455 -0.032354 0.949052
vn -0.591382 -0.073671 0.803019
vn -0.310369 -0.035454 0.949955
vn -0.000287 0.016442 0.999865
vn -0.002274 0.014257 0.999896
vn -0.313455 -0.032354 0.949052
vn -0.000287 0.016442 0.999865
vn 0.308508 0.068298 0.948767
vn 0.308690 0.061287 0.949186
vn -0.002274 0.014257 0.999896
vn 0.308508 0.068298 0.948767
vn 0.584705 0.114797 0.803082
vn 0.586252 0.103685 0.803466
vn 0.308690 0.061287 0.949186
vn 0.584705 0.114797 0.803082
vn 0.800603 0.151222 0.579798
vn 0.803063 0.137048 0.579920
vn 0.586252 0.103685 0.803466
vn 0.800603 0.151222 0.579798
vn 0.936853 0.174246 0.303223
vn 0.939677 0.158168 0.303300
vn 0.803063 0.137048 0.579920
vn 0.936853 0.174246 0.303223
vn 0.983282 0.182090 0.000001
vn 0.986229 0.165387 0.000002
vn 0.939677 0.158168 0.303300
vn 0.983282 0.182090 0.000001
vn 0.936854 0.174246 -0.303222
vn 0.939677 0.158168 -0.303298
vn 0.986229 0.165387 0.000002
vn 0.939677 0.158168 -0.303298
vn 0.803063 0.137048 -0.579920
vn 0.807868 0.088838 -0.582629
vn 0.946797 0.102429 -0.305096
vn 0.803063 0.137048 -0.579920
vn 0.586252 0.103685 -0.803466
vn 0.588759 0.067619 -0.805475
vn 0.807868 0.088838 -0.582629
vn 0.586252 0.103685 -0.803466
vn 0.308689 0.061286 -0.949187
vn 0.309204 0.040902 -0.950116
vn 0.588759 0.067619 -0.805475
vn 0.308689 0.061286 -0.949187
vn -0.002275 0.014257 -0.999896
vn -0.002917 0.011541 -0.999929
vn 0.309204 0.040902 -0.950116
vn -0.002275 0.014257 -0.999896
vn -0.313455 -0.032354 -0.949052
vn -0.314384 -0.017276 -0.949139
vn -0.002917 0.011541 -0.999929
vn -0.313455 -0.032354 -0.949052
vn -0.591382 -0.073671 -0.803019
vn -0.593209 -0.042644 -0.803918
vn -0.314384 -0.017276 -0.949139
vn -0.591382 -0.073671 -0.803019
vn -0.807664 -0.105575 -0.580114
vn -0.811372 -0.062212 -0.581210
vn -0.593209 -0.042644 -0.803918
vn -0.807664 -0.105575 -0.580114
vn -0.944551 -0.125624 -0.303384
vn -0.949661 -0.074494 -0.304293
vn -0.811372 -0.062212 -0.581210
vn -0.944551 -0.125624 -0.303384
vn -0.991193 -0.132427 0.000000
vn -0.996899 -0.078688 0.000000
vn -0.949661 -0.074494 -0.304293
vn -0.991193 -0.132427 0.000000
vn -0.944551 -0.125624 0.303385
vn -0.949661 -0.074494 0.304293
vn -0.996899 -0.078688 0.000000
vn -0.944551 -0.125624 0.303385
vn -0.807664 -0.105575 0.580114
vn -0.811372 -0.062212 0.581210
vn -0.949661 -0.074494 0.304293
vn -0.807664 -0.105575 0.580114
vn -0.591382 -0.073671 0.803019
vn -0.593209 -0.042644 0.803918
vn -0.811372 -0.062212 0.581210
vn -0.591382 -0.073671 0.803019
vn -0.313455 -0.032354 0.949052
vn -0.314384 -0.017276 0.949139
vn -0.593209 -0.042644 0.803918
vn -0.313455 -0.032354 0.949052
vn -0.002274 0.014257 0.999896
vn -0.002917 0.011541 0.999929
vn -0.314384 -0.017276 0.949139
vn -0.002274 0.014257 0.999896
vn 0.308690 0.061287 0.949186
vn 0.309204 0.040902 0.950116
vn -0.002917 0.011541 0.999929
vn 0.308690 0.061287 0.949186
vn 0.586252 0.103685 0.803466
vn 0.588760 0.067619 0.805475
vn 0.309204 0.040902 0.950116
vn 0.586252 0.103685 0.803466
vn 0.803063 0.137048 0.579920
vn 0.807868 0.088838 0.582630
vn 0.588760 0.067619 0.805475
vn 0.803063 0.137048 0.579920
vn 0.939677 0.158168 0.303300
vn 0.946796 0.102429 0.305098
vn 0.807868 0.088838 0.582630
vn 0.939677 0.158168 0.303300
vn 0.986229 0.165387 0.000002
vn 0.994249 0.107096 0.000002
vn 0.946796 0.102429 0.305098
vn 0.986229 0.165387 0.000002
vn 0.939677 0.158168 -0.303298
vn 0.946797 0.102429 -0.305096
vn 0.994249 0.107096 0.000002
vn 0.946797 0.102429 -0.305096
vn 0.807868 0.088838 -0.582629
vn 0.809895 0.028648 -0.585875
vn 0.951012 0.032429 -0.307448
vn 0.807868 0.088838 -0.582629
vn 0.588759 0.067619 -0.805475
vn 0.588830 0.022875 -0.807933
vn 0.809895 0.028648 -0.585875
vn 0.588759 0.067619 -0.805475
vn 0.309204 0.040902 -0.950116
vn 0.308710 0.015829 -0.951024
vn 0.588830 0.022875 -0.807933
vn 0.309204 0.040902 -0.950116
vn -0.002917 0.011541 -0.999929
vn -0.002449 0.008335 -0.999962
vn 0.308710 0.015829 -0.951024
vn -0.002917 0.011541 -0.999929
vn -0.314384 -0.017276 -0.949139
vn -0.313136 0.001216 -0.949708
vn -0.002449 0.008335 -0.999962
vn -0.314384 -0.017276 -0.949139
vn -0.593209 -0.042644 -0.803918
vn -0.592267 -0.004877 -0.805727
vn -0.313136 0.001216 -0.949708
vn -0.593209 -0.042644 -0.803918
vn -0.811372 -0.062212 -0.581210
vn -0.811865 -0.009475 -0.583768
vn -0.592267 -0.004877 -0.805727
vn -0.811372 -0.062212 -0.581210
vn -0.949661 -0.074494 -0.304293
vn -0.951781 -0.012326 -0.306531
vn -0.811865 -0.009475 -0.583768
vn -0.949661 -0.074494 -0.304293
vn -0.996899 -0.078688 0.000000
vn -0.999912 -0.013297 0.000000
vn -0.951781 -0.012326 -0.306531
vn -0.996899 -0.078688 0.000000
vn -0.949661 -0.074494 0.304293
vn -0.951781 -0.012326 0.306531
vn -0.999912 -0.013297 0.000000
vn -0.949661 -0.074494 0.304293
vn -0.811372 -0.062212 0.581210
vn -0.811865 -0.009475 0.583768
vn -0.951781 -0.012326 0.306531
vn -0.811372 -0.062212 0.581210
vn -0.593209 -0.042644 0.803918
vn -0.592267 -0.004877 0.805727
vn -0.811865 -0.009475 0.583768
vn -0.593209 -0.042644 0.803918
vn -0.314384 -0.017276 0.949139
vn -0.313135 0.001216 0.949708
vn -0.592267 -0.004877 0.805727
vn -0.314384 -0.017276 0.949139
vn -0.002917 0.011541 0.999929
vn -0.002449 0.008335 0.999962
vn -0.313135 0.001216 0.949708
vn -0.002917 0.011541 0.999929
vn 0.309204 0.040902 0.950116
vn 0.308710 0.015828 0.951024
vn -0.002449 0.008335 0.999962
vn 0.309204 0.040902 0.950116
vn 0.588760 0.067619 0.805475
vn 0.588831 0.022875 0.807933
vn 0.308710 0.015828 0.951024
vn 0.588760 0.067619 0.805475
vn 0.807868 0.088838 0.582630
vn 0.809895 0.028648 0.585875
vn 0.588831 0.022875 0.807933
vn 0.807868 0.088838 0.582630
vn 0.946796 0.102429 0.305098
vn 0.951012 0.032429 0.307450
vn 0.809895 0.028648 0.585875
vn 0.946796 0.102429 0.305098
vn 0.994249 0.107096 0.000002
vn 0.999431 0.033742 0.000001
vn 0.951012 0.032429 0.307450
vn 0.994249 0.107096 0.000002
vn 0.946797 0.102429 -0.305096
vn 0.951012 0.032429 -0.307448
vn 0.999431 0.033742 0.000001
vn 0.951012 0.032429 -0.307448
vn 0.809895 0.028648 -0.585875
vn 0.808076 -0.025037 -0.588546
vn 0.950438 -0.030091 -0.309454
vn 0.809895 0.028648 -0.585875
vn 0.588830 0.022875 -0.807933
vn 0.586391 -0.017092 -0.809848
vn 0.808076 -0.025037 -0.588546
vn 0.588830 0.022875 -0.807933
vn 0.308710 0.015829 -0.951024
vn 0.307206 -0.006959 -0.951618
vn 0.586391 -0.017092 -0.809848
vn 0.308710 0.015829 -0.951024
vn -0.002449 0.008335 -0.999962
vn -0.001828 0.004431 -0.999989
vn 0.307206 -0.006959 -0.951618
vn -0.002449 0.008335 -0.999962
vn -0.313136 0.001216 -0.949708
vn -0.310578 0.015985 -0.950414
vn -0.001828 0.004431 -0.999989
vn -0.313136 0.001216 -0.949708
vn -0.592267 -0.004877 -0.805727
vn -0.588759 0.026530 -0.807873
vn -0.310578 0.015985 -0.950414
vn -0.592267 -0.004877 -0.805727
vn -0.811865 -0.009475 -0.583768
vn -0.809117 0.034980 -0.586606
vn -0.588759 0.026530 -0.807873
vn -0.811865 -0.009475 -0.583768
vn -0.951781 -0.012326 -0.306531
vn -0.950357 0.040459 -0.308519
vn -0.809117 0.034980 -0.586606
vn -0.951781 -0.012326 -0.306531
vn -0.999912 -0.013297 0.000000
vn -0.999102 0.042369 -0.000000
vn -0.950357 0.040459 -0.308519
vn -0.999912 -0.013297 0.000000
vn -0.951781 -0.012326 0.306531
vn -0.950357 0.040459 0.308519
vn -0.999102 0.042369 -0.000000
vn -0.951781 -0.012326 0.306531
vn -0.811865 -0.009475 0.583768
vn -0.809117 0.034980 0.586605
vn -0.950357 0.040459 0.308519
vn -0.811865 -0.009475 0.583768
vn -0.592267 -0.004877 0.805727
vn -0.588759 0.026531 0.807873
vn -0.809117 0.034980 0.586605
vn -0.592267 -0.004877 0.805727
vn -0.313135 0.001216 0.949708
vn -0.310577 0.015985 0.950414
vn -0.588759 0.026531 0.807873
vn -0.313135 0.001216 0.949708
vn -0.002449 0.008335 0.999962
vn -0.001828 0.004431 0.999989
vn -0.310577 0.015985 0.950414
vn -0.002449 0.008335 0.999962
vn 0.308710 0.015828 0.951024
vn 0.307206 -0.006959 0.951618
vn -0.001828 0.004431 0.999989
vn 0.308710 0.015828 0.951024
vn 0.588831 0.022875 0.807933
vn 0.586391 -0.017092 0.809848
vn 0.307206 -0.006959 0.951618
vn 0.588831 0.022875 0.807933
vn 0.809895 0.028648 0.585875
vn 0.808077 -0.025037 0.588545
vn 0.586391 -0.017092 0.809848
vn 0.809895 0.028648 0.585875
vn 0.951012 0.032429 0.307450
vn 0.950438 -0.030091 0.309456
vn 0.808077 -0.025037 0.588545
vn 0.951012 0.032429 0.307450
vn 0.999431 0.033742 0.000001
vn 0.999493 -0.031824 0.000001
vn 0.950438 -0.030091 0.309456
vn 0.999431 0.033742 0.000001
vn 0.951012 0.032429 -0.307448
vn 0.950438 -0.030091 -0.309454
vn 0.999493 -0.031824 0.000001
vn 0.950438 -0.030091 -0.309454
vn 0.808076 -0.025037 -0.588546
vn 0.802200 -0.048172 -0.595109
vn 0.947800 -0.057356 -0.313666
vn 0.808076 -0.025037 -0.588546
vn 0.586391 -0.017092 -0.809848
vn 0.577017 -0.033967 -0.816026
vn 0.802200 -0.048172 -0.595109
vn 0.586391 -0.017092 -0.809848
vn 0.307206 -0.006959 -0.951618
vn 0.295751 -0.016222 -0.955127
vn 0.577017 -0.033967 -0.816026
vn 0.307206 -0.006959 -0.951618
vn -0.001828 0.004431 -0.999989
vn -0.013216 0.003274 -0.999907
vn 0.295751 -0.016222 -0.955127
vn -0.001828 0.004431 -0.999989
vn -0.310578 0.015985 -0.950414
vn -0.319668 0.022613 -0.947260
vn -0.013216 0.003274 -0.999907
vn -0.310578 0.015985 -0.950414
vn -0.588759 0.026530 -0.807873
vn -0.594307 0.039947 -0.803246
vn -0.319668 0.022613 -0.947260
vn -0.588759 0.026530 -0.807873
vn -0.809117 0.034980 -0.586606
vn -0.811229 0.053639 -0.582264
vn -0.594307 0.039947 -0.803246
vn -0.809117 0.034980 -0.586606
vn -0.950357 0.040459 -0.308519
vn -0.950081 0.062404 -0.305699
vn -0.811229 0.053639 -0.582264
vn -0.950357 0.040459 -0.308519
vn -0.999102 0.042369 -0.000000
vn -0.997858 0.065421 -0.000000
vn -0.950081 0.062404 -0.305699
vn -0.999102 0.042369 -0.000000
vn -0.950357 0.040459 0.308519
vn -0.950081 0.062404 0.305698
vn -0.997858 0.065421 -0.000000
vn -0.950357 0.040459 0.308519
vn -0.809117 0.034980 0.586605
vn -0.811229 0.053639 0.582264
vn -0.950081 0.062404 0.305698
vn -0.809117 0.034980 0.586605
vn -0.588759 0.026531 0.807873
vn -0.594307 0.039947 0.803246
vn -0.811229 0.053639 0.582264
vn -0.588759 0.026531 0.807873
vn -0.310577 0.015985 0.950414
vn -0.319667 0.022613 0.947260
vn -0.594307 0.039947 0.803246
vn -0.310577 0.015985 0.950414
vn -0.001828 0.004431 0.999989
vn -0.013216 0.003274 0.999907
vn -0.319667 0.022613 0.947260
vn -0.001828 0.004431 0.999989
vn 0.307206 -0.006959 0.951618
vn 0.295751 -0.016222 0.955127
vn -0.013216 0.003274 0.999907
vn 0.307206 -0.006959 0.951618
vn 0.586391 -0.017092 0.809848
vn 0.577017 -0.033967 0.816026
vn 0.295751 -0.016222 0.955127
vn 0.586391 -0.017092 0.809848
vn 0.808077 -0.025037 0.588545
vn 0.802201 -0.048172 0.595108
vn 0.577017 -0.033967 0.816026
vn 0.808077 -0.025037 0.588545
vn 0.950438 -0.030091 0.309456
vn 0.947799 -0.057356 0.313667
vn 0.802201 -0.048172 0.595108
vn 0.950438 -0.030091 0.309456
vn 0.999493 -0.031824 0.000001
vn 0.998166 -0.060533 0.000001
vn 0.947799 -0.057356 0.313667
vn 0.999493 -0.031824 0.000001
vn 0.950438 -0.030091 -0.309454
vn 0.947800 -0.057356 -0.313666
vn 0.998166 -0.060533 0.000001
s off
g BirchTreeLow:pCylinder10
usemtl initialShadingGroup
f 1/1/1 2/2/2 22/3/3 21/4/4
f 2/2/5 3/5/6 23/6/7 22/3/8
f 3/5/9 4/7/10 24/8/11 23/6/12
f 4/7/13 5/9/14 25/10/15 24/8/16
f 5/9/17 6/11/18 26/12/19 25/10/20
f 6/11/21 7/13/22 27/14/23 26/12/24
f 7/13/25 8/15/26 28/16/27 27/14/28
f 8/15/29 9/17/30 29/18/31 28/16/32
f 9/17/33 10/19/34 30/20/35 29/18/36
f 10/19/37 11/21/38 31/22/39 30/20/40
f 11/21/41 12/23/42 32/24/43 31/22/44
f 12/23/45 13/25/46 33/26/47 32/24/48
f 13/25/49 14/27/50 34/28/51 33/26/52
f 14/27/53 15/29/54 35/30/55 34/28/56
f 15/29/57 16/31/58 36/32/59 35/30/60
f 16/31/61 17/33/62 37/34/63 36/32/64
f 17/33/65 18/35/66 38/36/67 37/34/68
f 18/35/69 19/37/70 39/38/71 38/36/72
f 19/37/73 20/39/74 40/40/75 39/38/76
f 20/41/77 1/1/78 21/4/79 40/42/80
f 21/4/81 22/3/82 42/43/83 41/44/84
f 22/3/85 23/6/86 43/45/87 42/43/88
f 23/6/89 24/8/90 44/46/91 43/45/92
f 24/8/93 25/10/94 45/47/95 44/46/96
f 25/10/97 26/12/98 46/48/99 45/47/100
f 26/12/101 27/14/102 47/49/103 46/48/104
f 27/14/105 28/16/106 48/50/107 47/49/108
f 28/16/109 29/18/110 49/51/111 48/50/112
f 29/18/113 30/20/114 50/52/115 49/51/116
f 30/20/117 31/22/118 51/53/119 50/52/120
f 31/22/121 32/24/122 52/54/123 51/53/124
f 32/24/125 33/26/126 53/55/127 52/54/128
f 33/26/129 34/28/130 54/56/131 53/55/132
f 34/28/133 35/30/134 55/57/135 54/56/136
f 35/30/137 36/32/138 56/58/139 55/57/140
f 36/32/141 37/34/142 57/59/143 56/58/144
f 37/34/145 38/36/146 58/60/147 57/59/148
f 38/36/149 39/38/150 59/61/151 58/60/152
f 39/38/153 40/40/154 60/62/155 59/61/156
f 40/42/157 21/4/158 41/44/159 60/63/160
f 41/44/161 42/43/162 62/64/163 61/65/164
f 42/43/165 43/45/166 63/66/167 62/64/168
f 43/45/169 44/46/170 64/67/171 63/66/172
f 44/46/173 45/47/174 65/68/175 64/67/176
f 45/47/177 46/48/178 66/69/179 65/68/180
f 46/48/181 47/49/182 67/70/183 66/69/184
f 47/49/185 48/50/186 68/71/187 67/70/188
f 48/50/189 49/51/190 69/72/191 68/71/192
f 49/51/193 50/52/194 70/73/195 69/72/196
f 50/52/197 51/53/198 71/74/199 70/73/200
f 51/53/201 52/54/202 72/75/203 71/74/204
f 52/54/205 53/55/206 73/76/207 72/75/208
f 53/55/209 54/56/210 74/77/211 73/76/212
f 54/56/213 55/57/214 75/78/215 74/77/216
f 55/57/217 56/58/218 76/79/219 75/78/220
f 56/58/221 57/59/222 77/80/223 76/79/224
f 57/59/225 58/60/226 78/81/227 77/80/228
f 58/60/229 59/61/230 79/82/231 78/81/232
f 59/61/233 60/62/234 80/83/235 79/82/236
f 60/63/237 41/44/238 61/65/239 80/84/240
f 61/65/241 62/64/242 82/85/243 81/86/244
f 62/64/245 63/66/246 83/87/247 82/85/248
f 63/66/249 64/67/250 84/88/251 83/87/252
f 64/67/253 65/68/254 85/89/255 84/88/256
f 65/68/257 66/69/258 86/90/259 85/89/260
f 66/69/261 67/70/262 87/91/263 86/90/264
f 67/70/265 68/71/266 88/92/267 87/91/268
f 68/71/269 69/72/270 89/93/271 88/92/272
f 69/72/273 70/73/274 90/94/275 89/93/276
f 70/73/277 71/74/278 91/95/279 90/94/280
f 71/74/281 72/75/282 92/96/283 91/95/284
f 72/75/285 73/76/286 93/97/287 92/96/288
f 73/76/289 74/77/290 94/98/291 93/97/292
f 74/77/293 75/78/294 95/99/295 94/98/296
f 75/78/297 76/79/298 96/100/299 95/99/300
f 76/79/301 77/80/302 97/101/303 96/100/304
f 77/80/305 78/81/306 98/102/307 97/101/308
f 78/81/309 79/82/310 99/103/311 98/102/312
f 79/82/313 80/83/314 100/104/315 99/103/316
f 80/84/317 61/65/318 81/86/319 100/105/320
f 81/86/321 82/85/322 102/106/323 101/107/324
f 82/85/325 83/87/326 103/108/327 102/106/328
f 83/87/329 84/88/330 104/109/331 103/108/332
f 84/88/333 85/89/334 105/110/335 104/109/336
f 85/89/337 86/90/338 106/111/339 105/110/340
f 86/90/341 87/91/342 107/112/343 106/111/344
f 87/91/345 88/92/346 108/113/347 107/112/348
f 88/92/349 89/93/350 109/114/351 108/113/352
f 89/93/353 90/94/354 110/115/355 109/114/356
f 90/94/357 91/95/358 111/116/359 110/115/360
f 91/95/361 92/96/362 112/117/363 111/116/364
f 92/96/365 93/97/366 113/118/367 112/117/368
f 93/97/369 94/98/370 114/119/371 113/118/372
f 94/98/373 95/99/374 115/120/375 114/119/376
f 95/99/377 96/100/378 116/121/379 115/120/380
f 96/100/381 97/101/382 117/122/383 116/121/384
f 97/101/385 98/102/386 118/123/387 117/122/388
f 98/102/389 99/103/390 119/124/391 118/123/392
f 99/103/393 100/104/394 120/125/395 119/124/396
f 100/105/397 81/86/398 101/107/399 120/126/400
f 101/107/401 102/106/402 122/127/403 121/128/404
f 102/106/405 103/108/406 123/129/407 122/127/408
f 103/108/409 104/109/410 124/130/411 123/129/412
f 104/109/413 105/110/414 125/131/415 124/130/416
f 105/110/417 106/111/418 126/132/419 125/131/420
f 106/111/421 107/112/422 127/133/423 126/132/424
f 107/112/425 108/113/426 128/134/427 127/133/428
f 108/113/429 109/114/430 129/135/431 128/134/432
f 109/114/433 110/115/434 130/136/435 129/135/436
f 110/115/437 111/116/438 131/137/439 130/136/440
f 111/116/441 112/117/442 132/138/443 131/137/444
f 112/117/445 113/118/446 133/139/447 132/138/448
f 113/118/449 114/119/450 134/140/451 133/139/452
f 114/119/453 115/120/454 135/141/455 134/140/456
f 115/120/457 116/121/458 136/142/459 135/141/460
f 116/121/461 117/122/462 137/143/463 136/142/464
f 117/122/465 118/123/466 138/144/467 137/143/468
f 118/123/469 119/124/470 139/145/471 138/144/472
f 119/124/473 120/125/474 140/146/475 139/145/476
f 120/126/477 101/107/478 121/128/479 140/147/480
f 141/148/481 142/149/482 162/150/483 161/151/484
f 142/149/485 143/152/486 163/153/487 162/150/488
f 143/152/489 144/154/490 164/155/491 163/153/492
f 144/154/493 145/156/494 165/157/495 164/155/496
f 145/156/497 146/158/498 166/159/499 165/157/500
f 146/158/501 147/160/502 167/161/503 166/159/504
f 147/160/505 148/162/506 168/163/507 167/161/508
f 148/162/509 149/164/510 169/165/511 168/163/512
f 149/164/513 150/166/514 170/167/515 169/165/516
f 150/166/517 151/168/518 171/169/519 170/167/520
f 151/168/521 152/170/522 172/171/523 171/169/524
f 152/170/525 153/172/526 173/173/527 172/171/528
f 153/172/529 154/174/530 174/175/531 173/173/532
f 154/174/533 155/176/534 175/177/535 174/175/536
f 155/176/537 156/178/538 176/179/539 175/177/540
f 156/178/541 157/180/542 177/181/543 176/179/544
f 157/180/545 158/182/546 178/183/547 177/181/548
f 158/182/549 159/184/550 179/185/551 178/183/552
f 159/186/553 160/187/554 180/188/555 179/189/556
f 160/187/557 141/148/558 161/151/559 180/188/560
f 161/151/561 162/150/562 182/190/563 181/191/564
f 162/150/565 163/153/566 183/192/567 182/190/568
f 163/153/569 164/155/570 184/193/571 183/192/572
f 164/155/573 165/157/574 185/194/575 184/193/576
f 165/157/577 166/159/578 186/195/579 185/194/580
f 166/159/581 167/161/582 187/196/583 186/195/584
f 167/161/585 168/163/586 188/197/587 187/196/588
f 168/163/589 169/165/590 189/198/591 188/197/592
f 169/165/593 170/167/594 190/199/595 189/198/596
f 170/167/597 171/169/598 191/200/599 190/199/600
f 171/169/601 172/171/602 192/201/603 191/200/604
f 172/171/605 173/173/606 193/202/607 192/201/608
f 173/173/609 174/175/610 194/203/611 193/202/612
f 174/175/613 175/177/614 195/204/615 194/203/616
f 175/177/617 176/179/618 196/205/619 195/204/620
f 176/179/621 177/181/622 197/206/623 196/205/624
f 177/181/625 178/183/626 198/207/627 197/206/628
f 178/183/629 179/185/630 199/208/631 198/207/632
f 179/189/633 180/188/634 200/209/635 199/210/636
f 180/188/637 161/151/638 181/191/639 200/209/640
f 181/191/641 182/190/642 202/211/643 201/212/644
f 182/190/645 183/192/646 203/213/647 202/211/648
f 183/192/649 184/193/650 204/214/651 203/213/652
f 184/193/653 185/194/654 205/215/655 204/214/656
f 185/194/657 186/195/658 206/216/659 205/215/660
f 186/195/661 187/196/662 207/217/663 206/216/664
f 187/196/665 188/197/666 208/218/667 207/217/668
f 188/197/669 189/198/670 209/219/671 208/218/672
f 189/198/673 190/199/674 210/220/675 209/219/676
f 190/199/677 191/200/678 211/221/679 210/220/680
f 191/200/681 192/201/682 212/222/683 211/221/684
f 192/201/685 193/202/686 213/223/687 212/222/688
f 193/202/689 194/203/690 214/224/691 213/223/692
f 194/203/693 195/204/694 215/225/695 214/224/696
f 195/204/697 196/205/698 216/226/699 215/225/700
f 196/205/701 197/206/702 217/227/703 216/226/704
f 197/206/705 198/207/706 218/228/707 217/227/708
f 198/207/709 199/208/710 219/229/711 218/228/712
f 199/210/713 200/209/714 220/230/715 219/231/716
f 200/209/717 181/191/718 201/212/719 220/230/720
f 201/212/721 202/211/722 222/232/723 221/233/724
f 202/211/725 203/213/726 223/234/727 222/232/728
f 203/213/729 204/214/730 224/235/731 223/234/732
f 204/214/733 205/215/734 225/236/735 224/235/736
f 205/215/737 206/216/738 226/237/739 225/236/740
f 206/216/741 207/217/742 227/238/743 226/237/744
f 207/217/745 208/218/746 228/239/747 227/238/748
f 208/218/749 209/219/750 229/240/751 228/239/752
f 209/219/753 210/220/754 230/241/755 229/240/756
f 210/220/757 211/221/758 231/242/759 230/241/760
f 211/221/761 212/222/762 232/243/763 231/242/764
f 212/222/765 213/223/766 233/244/767 232/243/768
f 213/223/769 214/224/770 234/245/771 233/244/772
f 214/224/773 215/225/774 235/246/775 234/245/776
f 215/225/777 216/226/778 236/247/779 235/246/780
f 216/226/781 217/227/782 237/248/783 236/247/784
f 217/227/785 218/228/786 238/249/787 237/248/788
f 218/228/789 219/229/790 239/250/791 238/249/792
f 219/231/793 220/230/794 240/251/795 239/252/796
f 220/230/797 201/212/798 221/233/799 240/251/800
f 221/233/801 222/232/802 242/253/803 241/254/804
f 222/232/805 223/234/806 243/255/807 242/253/808
f 223/234/809 224/235/810 244/256/811 243/255/812
f 224/235/813 225/236/814 245/257/815 244/256/816
f 225/236/817 226/237/818 246/258/819 245/257/820
f 226/237/821 227/238/822 247/259/823 246/258/824
f 227/238/825 228/239/826 248/260/827 247/259/828
f 228/239/829 229/240/830 249/261/831 248/260/832
f 229/240/833 230/241/834 250/262/835 249/261/836
f 230/241/837 231/242/838 251/263/839 250/262/840
f 231/242/841 232/243/842 252/264/843 251/263/844
f 232/243/845 233/244/846 253/265/847 252/264/848
f 233/244/849 234/245/850 254/266/851 253/265/852
f 234/245/853 235/246/854 255/267/855 254/266/856
f 235/246/857 236/247/858 256/268/859 255/267/860
f 236/247/861 237/248/862 257/269/863 256/268/864
f 237/248/865 238/249/866 258/270/867 257/269/868
f 238/249/869 239/250/870 259/271/871 258/270/872
f 239/252/873 240/251/874 260/272/875 259/273/876
f 240/251/877 221/233/878 241/254/879 260/272/880
f 241/254/881 242/253/882 262/274/883 261/275/884
f 242/253/885 243/255/886 263/276/887 262/274/888
f 243/255/889 244/256/890 264/277/891 263/276/892
f 244/256/893 245/257/894 265/278/895 264/277/896
f 245/257/897 246/258/898 266/279/899 265/278/900
f 246/258/901 247/259/902 267/280/903 266/279/904
f 247/259/905 248/260/906 268/281/907 267/280/908
f 248/260/909 249/261/910 269/282/911 268/281/912
f 249/261/913 250/262/914 270/283/915 269/282/916
f 250/262/917 251/263/918 271/284/919 270/283/920
f 251/263/921 252/264/922 272/285/923 271/284/924
f 252/264/925 253/265/926 273/286/927 272/285/928
f 253/265/929 254/266/930 274/287/931 273/286/932
f 254/266/933 255/267/934 275/288/935 274/287/936
f 255/267/937 256/268/938 276/289/939 275/288/940
f 256/268/941 257/269/942 277/290/943 276/289/944
f 257/269/945 258/270/946 278/291/947 277/290/948
f 258/270/949 259/271/950 279/292/951 278/291/952
f 259/273/953 260/272/954 280/293/955 279/294/956
f 260/272/957 241/254/958 261/275/959 280/293/960
f 261/275/961 262/274/962 282/295/963 281/296/964
f 262/274/965 263/276/966 283/297/967 282/295/968
f 263/276/969 264/277/970 284/298/971 283/297/972
f 264/277/973 265/278/974 285/299/975 284/298/976
f 265/278/977 266/279/978 286/300/979 285/299/980
f 266/279/981 267/280/982 287/301/983 286/300/984
f 267/280/985 268/281/986 288/302/987 287/301/988
f 268/281/989 269/282/990 289/303/991 288/302/992
f 269/282/993 270/283/994 290/304/995 289/303/996
f 270/283/997 271/284/998 291/305/999 290/304/1000
f 271/284/1001 272/285/1002 292/306/1003 291/305/1004
f 272/285/1005 273/286/1006 293/307/1007 292/306/1008
f 273/286/1009 274/287/1010 294/308/1011 293/307/1012
f 274/287/1013 275/288/1014 295/309/1015 294/308/1016
f 275/288/1017 276/289/1018 296/310/1019 295/309/1020
f 276/289/1021 277/290/1022 297/311/1023 296/310/1024
f 277/290/1025 278/291/1026 298/312/1027 297/311/1028
f 278/291/1029 279/292/1030 299/313/1031 298/312/1032
f 279/294/1033 280/293/1034 300/314/1035 299/315/1036
f 280/293/1037 261/275/1038 281/296/1039 300/314/1040
f 281/296/1041 282/295/1042 302/316/1043 301/317/1044
f 282/295/1045 283/297/1046 303/318/1047 302/316/1048
f 283/297/1049 284/298/1050 304/319/1051 303/318/1052
f 284/298/1053 285/299/1054 305/320/1055 304/319/1056
f 285/299/1057 286/300/1058 306/321/1059 305/320/1060
f 286/300/1061 287/301/1062 307/322/1063 306/321/1064
f 287/301/1065 288/302/1066 308/323/1067 307/322/1068
f 288/302/1069 289/303/1070 309/324/1071 308/323/1072
f 289/303/1073 290/304/1074 310/325/1075 309/324/1076
f 290/304/1077 291/305/1078 311/326/1079 310/325/1080
f 291/305/1081 292/306/1082 312/327/1083 311/326/1084
f 292/306/1085 293/307/1086 313/328/1087 312/327/1088
f 293/307/1089 294/308/1090 314/329/1091 313/328/1092
f 294/308/1093 295/309/1094 315/330/1095 314/329/1096
f 295/309/1097 296/310/1098 316/331/1099 315/330/1100
f 296/310/1101 297/311/1102 317/332/1103 316/331/1104
f 297/311/1105 298/312/1106 318/333/1107 317/332/1108
f 298/312/1109 299/313/1110 319/334/1111 318/333/1112
f 299/315/1113 300/314/1114 320/335/1115 319/336/1116
f 300/314/1117 281/296/1118 301/317/1119 320/335/1120
