# This file uses centimeters as units for non-parametric coordinates.

mtllib Cloverbush.mtl
g default
v 0.055070 0.425471 0.064372
v 0.018463 0.388851 0.348601
v 0.181431 0.401949 0.223616
v 0.037463 0.422365 0.210960
v -0.107898 0.412373 0.189357
v 0.174524 0.395040 0.277243
v 0.084749 0.424402 0.067886
v -0.103166 0.417106 0.152618
v -0.114175 0.406093 0.238096
v -0.076155 0.458085 0.160099
v 0.330151 0.417676 0.113132
v 0.105763 0.448924 -0.068354
v 0.132061 0.459541 0.138703
v 0.148233 0.426836 0.341585
v 0.182424 0.441300 -0.077216
v -0.080512 0.460350 0.118048
v 0.095715 0.432060 0.347655
v 0.217905 0.419907 0.333531
v 0.447383 0.296150 -0.030731
v -0.421892 0.296150 0.150464
v 0.103343 0.296150 0.494504
v 0.012745 0.343330 0.059867
v -0.077852 0.296150 -0.374771
v -0.060669 0.296150 0.528691
v 0.465969 0.296150 0.058437
v 0.034509 0.296150 -0.398192
v -0.226912 0.296150 -0.343700
v -0.360400 0.371211 -0.084836
v 0.040400 0.437879 -0.065927
v -0.136470 0.366338 -0.272652
v -0.167149 0.424981 -0.085092
v -0.183530 0.442752 0.121889
v -0.060848 0.378917 -0.269084
v -0.355573 0.363373 -0.125307
v -0.235337 0.434134 0.119445
v -0.114802 0.454184 0.125132
v 0.239646 0.463744 0.222127
v -0.001004 0.472315 -0.022843
v 0.000188 0.491228 0.218490
v 0.123959 0.485899 0.096485
v 0.238453 0.444830 -0.019206
v -0.045217 0.492845 0.172269
v 0.215205 0.468503 0.246509
v 0.269559 0.443722 0.012459
v 0.197187 0.446300 -0.061213
v -0.020040 0.459415 -0.020371
v -0.065194 0.400346 0.380998
v 0.162839 0.429120 0.203177
v -0.043218 0.451341 0.187314
v -0.248073 0.430641 0.157450
v 0.154320 0.417975 0.278906
v 0.022110 0.459259 -0.015681
v -0.242237 0.438276 0.105570
v -0.255816 0.420512 0.226276
v -0.244256 0.394075 0.346218
v -0.056481 0.472068 0.083132
v -0.294258 0.459701 0.129642
v -0.150110 0.449716 0.225902
v -0.006479 0.406443 0.299707
v -0.258830 0.474416 0.080004
v -0.273776 0.399538 0.328773
v -0.030750 0.396362 0.333713
v 0.025721 0.419817 0.254594
v -0.075622 0.393064 -0.014870
v 0.332946 0.415207 -0.068913
v 0.106296 0.371017 -0.241344
v 0.125092 0.425391 -0.049390
v 0.151027 0.437254 0.157561
v 0.183384 0.375195 -0.251541
v -0.080210 0.386270 -0.055789
v 0.098217 0.434392 0.164546
v 0.221087 0.441051 0.148294
v -0.160995 0.308889 -0.490142
v 0.251099 0.370385 0.186454
v 0.378524 0.264883 -0.339746
v 0.056689 0.380017 -0.167146
v -0.288420 0.414391 0.036057
v 0.456277 0.276486 -0.212087
v -0.092581 0.293553 -0.528691
v -0.341686 0.406442 -0.051399
v -0.217755 0.424936 0.152077
v -0.131883 0.410984 -0.109751
v 0.247813 0.315654 0.448114
v 0.345607 0.385230 -0.018215
v 0.059910 0.399005 0.181505
v -0.229678 0.341408 0.356578
v 0.417247 0.367243 0.087041
v -0.072872 0.415479 -0.148197
v -0.278756 0.353730 0.284469
v -0.164569 0.325061 0.452239
v 0.186132 0.357061 0.209313
v -0.452129 0.316389 -0.049669
v -0.260811 0.321284 0.400241
v -0.138856 0.373241 0.081424
v -0.005186 0.352166 -0.240597
v -0.381236 0.313610 0.351376
v 0.159910 0.353894 0.275049
v 0.077314 0.357423 -0.207121
v -0.114633 0.345192 -0.285006
v -0.194080 0.429423 -0.023392
v -0.307205 0.378659 0.366967
v -0.054714 0.420051 0.233227
v -0.256031 0.425485 0.176467
v -0.446571 0.388031 0.110349
v -0.076058 0.410473 0.306879
v -0.153884 0.432707 -0.010788
v -0.431948 0.394593 0.059891
v -0.465969 0.379326 0.177286
v -0.366721 0.408993 -0.072437
v 0.043325 0.444412 -0.072888
v -0.149684 0.363511 -0.256116
v -0.165452 0.446035 -0.087812
v -0.173712 0.489894 0.110791
v -0.072318 0.370193 -0.256201
v -0.364256 0.396029 -0.110073
v -0.226713 0.485316 0.110849
v -0.103398 0.495967 0.110714
v -0.113853 0.386781 -0.146602
v -0.216188 0.390775 0.253943
v 0.031231 0.416901 0.103183
v -0.171386 0.410284 0.051564
v -0.361272 0.360654 0.004158
v 0.011923 0.417655 0.178757
v -0.073590 0.392550 -0.136445
v -0.348044 0.360138 -0.047616
v -0.378820 0.361339 0.072842
vt 0.000000 0.500000
vt 0.500000 0.500000
vt 0.500000 1.000000
vt 0.000000 0.688677
vt 0.500000 0.000000
vt 0.397422 0.000000
vt 1.000000 0.370742
vt 1.000000 0.500000
vt 1.000000 0.671477
vt 0.000000 0.500000
vt 0.500000 0.500000
vt 0.500000 1.000000
vt 0.000000 0.688677
vt 0.500000 0.000000
vt 0.397422 0.000000
vt 1.000000 0.370742
vt 1.000000 0.500000
vt 1.000000 0.671477
vt 0.000000 0.500000
vt 0.500000 0.500000
vt 0.500000 1.000000
vt 0.000000 0.688677
vt 0.500000 0.000000
vt 0.397422 0.000000
vt 1.000000 0.370742
vt 1.000000 0.500000
vt 1.000000 0.671477
vt 0.000000 0.500000
vt 0.500000 0.500000
vt 0.500000 1.000000
vt 0.000000 0.688677
vt 0.500000 0.000000
vt 0.397422 0.000000
vt 1.000000 0.370742
vt 1.000000 0.500000
vt 1.000000 0.671477
vt 0.000000 0.500000
vt 0.500000 0.500000
vt 0.500000 1.000000
vt 0.000000 0.688677
vt 0.500000 0.000000
vt 0.397422 0.000000
vt 1.000000 0.370742
vt 1.000000 0.500000
vt 1.000000 0.671477
vt 0.000000 0.500000
vt 0.500000 0.500000
vt 0.500000 1.000000
vt 0.000000 0.688677
vt 0.500000 0.000000
vt 0.397422 0.000000
vt 1.000000 0.370742
vt 1.000000 0.500000
vt 1.000000 0.671477
vt 0.000000 0.500000
vt 0.500000 0.500000
vt 0.500000 1.000000
vt 0.000000 0.688677
vt 0.500000 0.000000
vt 0.397422 0.000000
vt 1.000000 0.370742
vt 1.000000 0.500000
vt 1.000000 0.671477
vt 0.000000 0.500000
vt 0.500000 0.500000
vt 0.500000 1.000000
vt 0.000000 0.688677
vt 0.500000 0.000000
vt 0.397422 0.000000
vt 1.000000 0.370742
vt 1.000000 0.500000
vt 1.000000 0.671477
vt 0.000000 0.500000
vt 0.500000 0.500000
vt 0.500000 1.000000
vt 0.000000 0.688677
vt 0.500000 0.000000
vt 0.397422 0.000000
vt 1.000000 0.370742
vt 1.000000 0.500000
vt 1.000000 0.671477
vt 0.000000 0.500000
vt 0.500000 0.500000
vt 0.500000 1.000000
vt 0.000000 0.688677
vt 0.500000 0.000000
vt 0.397422 0.000000
vt 1.000000 0.370742
vt 1.000000 0.500000
vt 1.000000 0.671477
vt 0.000000 0.500000
vt 0.500000 0.500000
vt 0.500000 1.000000
vt 0.000000 0.688677
vt 0.500000 0.000000
vt 0.397422 0.000000
vt 1.000000 0.370742
vt 1.000000 0.500000
vt 1.000000 0.671477
vt 0.000000 0.500000
vt 0.500000 0.500000
vt 0.500000 1.000000
vt 0.000000 0.688677
vt 0.500000 0.000000
vt 0.397422 0.000000
vt 1.000000 0.370742
vt 1.000000 0.500000
vt 1.000000 0.671477
vt 0.000000 0.500000
vt 0.500000 0.500000
vt 0.500000 1.000000
vt 0.000000 0.688677
vt 0.500000 0.000000
vt 0.397422 0.000000
vt 1.000000 0.370742
vt 1.000000 0.500000
vt 1.000000 0.671477
vt 0.000000 0.500000
vt 0.500000 0.500000
vt 0.500000 1.000000
vt 0.000000 0.688677
vt 0.500000 0.000000
vt 0.397422 0.000000
vt 1.000000 0.370742
vt 1.000000 0.500000
vt 1.000000 0.671477
vn 0.099083 0.982005 0.160777
vn 0.020421 0.991145 0.131206
vn 0.010724 0.977823 0.209157
vn 0.088637 0.972040 0.217445
vn 0.052179 0.997544 0.046727
vn 0.117755 0.991625 0.053036
vn -0.052377 0.997968 0.036294
vn -0.061117 0.990983 0.119239
vn -0.069226 0.977486 0.199318
vn 0.115843 0.992453 -0.040211
vn 0.104473 0.993594 0.043081
vn 0.182058 0.982760 0.032205
vn 0.171880 0.984176 -0.043056
vn 0.015346 0.999424 0.030281
vn 0.007145 0.999383 -0.034384
vn 0.028553 0.990403 0.135226
vn 0.111446 0.985903 0.124803
vn 0.191922 0.974797 0.113741
vn -0.004824 0.996513 0.083300
vn -0.000000 1.000000 0.000000
vn -0.076050 0.996962 0.016810
vn -0.059433 0.994100 0.090735
vn 0.089036 0.996021 0.003749
vn 0.103513 0.992314 0.067804
vn 0.064970 0.992946 -0.099188
vn -0.016616 0.996679 -0.079713
vn -0.093031 0.993797 -0.060937
vn -0.117685 0.950717 -0.286858
vn -0.152192 0.966495 -0.206700
vn -0.070970 0.977416 -0.199050
vn -0.064016 0.958731 -0.277013
vn -0.240419 0.942674 -0.231439
vn -0.236328 0.922332 -0.305700
vn -0.243757 0.961837 -0.124304
vn -0.158201 0.979894 -0.121570
vn -0.077591 0.989954 -0.118194
vn 0.042079 0.998447 -0.036502
vn 0.115627 0.990170 -0.078701
vn 0.057710 0.989530 -0.132285
vn 0.005923 0.996923 -0.078159
vn 0.158934 0.987289 0.000929
vn 0.113215 0.992495 0.046223
vn 0.236112 0.968664 -0.077082
vn 0.173644 0.975229 -0.137024
vn 0.114790 0.974764 -0.191466
vn 0.066788 0.982506 0.173845
vn -0.012470 0.989325 0.145190
vn -0.020384 0.974490 0.223501
vn 0.057190 0.971385 0.230522
vn 0.018653 0.998012 0.060196
vn 0.084182 0.994271 0.065874
vn -0.086099 0.995001 0.050593
vn -0.094184 0.986546 0.133628
vn -0.101517 0.971392 0.214690
vn -0.050653 0.973436 0.223288
vn 0.006726 0.956841 0.290535
vn 0.050229 0.974174 0.220139
vn -0.016227 0.983780 0.178644
vn -0.066527 0.934242 0.350378
vn -0.121430 0.941819 0.313420
vn 0.033502 0.909999 0.413255
vn 0.081520 0.939955 0.331420
vn 0.119989 0.957464 0.262422
vn -0.060869 0.968804 -0.240237
vn -0.074434 0.984897 -0.156322
vn 0.004647 0.986409 -0.164246
vn -0.004821 0.970190 -0.242298
vn -0.164305 0.972598 -0.164490
vn -0.174971 0.956446 -0.233659
vn -0.146861 0.987336 -0.059990
vn -0.063864 0.995245 -0.073545
vn 0.014016 0.996220 -0.085724
vn 0.210124 0.959612 -0.187062
vn 0.126778 0.977817 -0.166736
vn 0.165689 0.981437 -0.096589
vn 0.234078 0.962614 -0.136318
vn 0.097638 0.962590 -0.252759
vn 0.158063 0.943599 -0.290924
vn 0.008521 0.980847 -0.194595
vn 0.054353 0.990834 -0.123666
vn 0.096823 0.993692 -0.056583
vn 0.103786 0.986762 0.124618
vn 0.024218 0.987854 0.153487
vn 0.070246 0.973527 0.217510
vn 0.132581 0.975886 0.173405
vn -0.005893 0.997675 0.067898
vn 0.047991 0.998380 0.030557
vn -0.093153 0.987417 0.127786
vn -0.046088 0.979356 0.196821
vn 0.001312 0.964389 0.264486
vn -0.121379 0.988784 0.087026
vn -0.071964 0.997213 0.019678
vn -0.144327 0.989484 -0.009556
vn -0.172212 0.983073 0.062534
vn 0.000803 0.997430 0.071648
vn -0.022313 0.990807 0.133433
vn 0.037374 0.998943 -0.026761
vn -0.040641 0.997609 -0.055905
vn -0.114852 0.989878 -0.083365
vn -0.039039 0.989354 0.140195
vn -0.111821 0.988974 0.097090
vn -0.131535 0.976038 0.173342
vn -0.058257 0.979439 0.193144
vn -0.064762 0.997707 0.019657
vn -0.001880 0.999294 0.037515
vn -0.166743 0.985953 -0.009654
vn -0.189957 0.979242 0.070722
vn -0.211742 0.965705 0.150261
vn -0.053395 0.907864 -0.415852
vn -0.082211 0.939872 -0.331485
vn 0.001189 0.945549 -0.325477
vn 0.005038 0.912815 -0.408343
vn -0.174362 0.920025 -0.350930
vn -0.175350 0.887149 -0.426870
vn -0.171014 0.955187 -0.241602
vn -0.084971 0.966227 -0.243279
vn -0.002529 0.969979 -0.243174
vn -0.057727 0.998329 -0.002565
vn -0.131876 0.990305 -0.043637
vn -0.147757 0.988453 0.033597
vn -0.074720 0.995952 0.049971
vn -0.086113 0.988806 -0.121849
vn -0.023712 0.994073 -0.106098
vn -0.192449 0.970126 -0.147715
vn -0.211666 0.975268 -0.063642
vn -0.228152 0.973508 0.015128
s 1
g Leaves30
usemtl lambert7SG
f 3/1/1 4/2/2 2/3/3 6/4/4
f 1/5/5 4/2/2 3/1/1 7/6/6
f 1/5/5 8/7/7 5/8/8 4/2/2
f 4/2/2 5/8/8 9/9/9 2/3/3
s 2
f 12/10/10 13/11/11 11/12/12 15/13/13
f 10/14/14 13/11/11 12/10/10 16/15/15
f 10/14/14 17/16/16 14/17/17 13/11/11
f 13/11/11 14/17/17 18/18/18 11/12/12
s 3
f 21/19/19 22/20/20 20/21/21 24/22/22
f 19/23/23 22/20/20 21/19/19 25/24/24
f 19/23/23 26/25/25 23/26/26 22/20/20
f 22/20/20 23/26/26 27/27/27 20/21/21
s 4
f 30/28/28 31/29/29 29/30/30 33/31/31
f 28/32/32 31/29/29 30/28/28 34/33/33
f 28/32/32 35/34/34 32/35/35 31/29/29
f 31/29/29 32/35/35 36/36/36 29/30/30
s 5
f 39/37/37 40/38/38 38/39/39 42/40/40
f 37/41/41 40/38/38 39/37/37 43/42/42
f 37/41/41 44/43/43 41/44/44 40/38/38
f 40/38/38 41/44/44 45/45/45 38/39/39
s 6
f 48/46/46 49/47/47 47/48/48 51/49/49
f 46/50/50 49/47/47 48/46/46 52/51/51
f 46/50/50 53/52/52 50/53/53 49/47/47
f 49/47/47 50/53/53 54/54/54 47/48/48
s 7
f 57/55/55 58/56/56 56/57/57 60/58/58
f 55/59/59 58/56/56 57/55/55 61/60/60
f 55/59/59 62/61/61 59/62/62 58/56/56
f 58/56/56 59/62/62 63/63/63 56/57/57
s 8
f 66/64/64 67/65/65 65/66/66 69/67/67
f 64/68/68 67/65/65 66/64/64 70/69/69
f 64/68/68 71/70/70 68/71/71 67/65/65
f 67/65/65 68/71/71 72/72/72 65/66/66
s 9
f 75/73/73 76/74/74 74/75/75 78/76/76
f 73/77/77 76/74/74 75/73/73 79/78/78
f 73/77/77 80/79/79 77/80/80 76/74/74
f 76/74/74 77/80/80 81/81/81 74/75/75
s 10
f 84/82/82 85/83/83 83/84/84 87/85/85
f 82/86/86 85/83/83 84/82/82 88/87/87
f 82/86/86 89/88/88 86/89/89 85/83/83
f 85/83/83 86/89/89 90/90/90 83/84/84
s 11
f 93/91/91 94/92/92 92/93/93 96/94/94
f 91/95/95 94/92/92 93/91/91 97/96/96
f 91/95/95 98/97/97 95/98/98 94/92/92
f 94/92/92 95/98/98 99/99/99 92/93/93
s 12
f 102/100/100 103/101/101 101/102/102 105/103/103
f 100/104/104 103/101/101 102/100/100 106/105/105
f 100/104/104 107/106/106 104/107/107 103/101/101
f 103/101/101 104/107/107 108/108/108 101/102/102
s 13
f 111/109/109 112/110/110 110/111/111 114/112/112
f 109/113/113 112/110/110 111/109/109 115/114/114
f 109/113/113 116/115/115 113/116/116 112/110/110
f 112/110/110 113/116/116 117/117/117 110/111/111
s 14
f 120/118/118 121/119/119 119/120/120 123/121/121
f 118/122/122 121/119/119 120/118/118 124/123/123
f 118/122/122 125/124/124 122/125/125 121/119/119
f 121/119/119 122/125/125 126/126/126 119/120/120
