# This file uses centimeters as units for non-parametric coordinates.

mtllib Cloverbush.mtl
g default
v -2.106822 -0.257430 0.559180
v -2.091693 -0.261348 0.590069
v -2.072297 -0.258274 0.561561
v -2.101279 0.083298 0.599687
v -2.086150 0.079379 0.630576
v -2.066754 0.082453 0.602068
v -1.693961 0.363008 0.023840
v -2.603301 0.363669 0.142725
v -2.073729 0.075932 0.657796
v -2.801281 0.306846 0.647792
v -2.243267 0.211986 1.369356
v -2.042192 0.080649 0.613806
v -1.734277 0.210778 1.309862
v -1.361537 0.303713 0.477118
v -2.108191 0.080630 0.622994
v 1.959442 0.451024 1.818901
v 2.708811 0.405763 0.849849
v 1.014999 0.696786 1.077085
v 1.764367 0.651525 0.108032
v 1.811670 0.279312 0.937323
v 1.601509 -0.653616 0.842112
v 1.651583 -0.666646 0.881443
v 1.660955 -0.662209 0.817282
v 1.776306 0.292703 0.933083
v 1.826380 0.279673 0.972414
v 1.835751 0.284109 0.908253
v 0.719842 0.016683 -2.151557
v 0.742343 0.013423 -2.145852
v 0.735562 0.011738 -2.168228
v 0.760159 0.243648 -2.180861
v 0.782660 0.240388 -2.175156
v 0.775879 0.238703 -2.197531
v 0.640295 0.351941 -2.668602
v 0.321242 0.475523 -2.150378
v 0.802106 0.237637 -2.169660
v 0.502439 0.484872 -1.828671
v 1.113837 0.379925 -1.800341
v 0.792316 0.234812 -2.205011
v 1.296109 0.310494 -2.087336
v 1.016773 0.288563 -2.641515
v 0.769453 0.243761 -2.167155
v -2.477532 0.108170 0.237355
v -1.797410 0.108170 -0.178111
v -2.892998 0.108170 -0.442767
v -2.212876 0.108170 -0.858233
v -2.345204 -0.072441 -0.310439
v -2.366628 -0.696786 -0.322110
v -2.344600 -0.696786 -0.286050
v -2.324385 -0.696786 -0.323157
v -2.366628 -0.068335 -0.322110
v -2.344600 -0.068335 -0.286050
v -2.324385 -0.068335 -0.323157
v 0.022984 -0.212179 0.342913
v 0.029550 -0.217265 0.383199
v 0.060838 -0.220496 0.356693
v 0.096720 0.187016 0.381289
v 0.103286 0.181930 0.421574
v 0.134574 0.178699 0.395068
v 0.797227 0.371769 -0.155379
v -0.260740 0.582045 -0.309929
v 0.108050 0.177655 0.456784
v -0.651974 0.604688 0.206275
v -0.269530 0.437286 1.212808
v 0.158128 0.172287 0.416396
v 0.320284 0.319246 1.307405
v 1.017194 0.270913 0.471117
v 0.081154 0.187522 0.405822
v 1.174674 -0.072616 -0.457720
v 1.207365 -0.077998 -0.447684
v 1.199534 -0.077085 -0.481392
v 1.231634 0.265771 -0.461783
v 1.264325 0.260389 -0.451747
v 1.256495 0.261302 -0.485455
v 1.098782 0.498999 -1.171502
v 0.576620 0.595870 -0.423840
v 1.292522 0.255747 -0.442234
v 0.812892 0.561987 0.066613
v 1.713566 0.411393 0.151119
v 1.281515 0.256961 -0.495426
v 2.010987 0.356362 -0.262553
v 1.652443 0.406598 -1.105142
v 1.244026 0.263928 -0.440779
v 0.637198 -0.056367 2.191407
v 0.640447 -0.058884 2.211339
v 0.655927 -0.060482 2.198224
v 0.673680 0.141140 2.210393
v 0.676929 0.138623 2.230325
v 0.692408 0.137025 2.217211
v 1.020265 0.232549 1.944870
v 0.496822 0.336586 1.868404
v 0.679286 0.136508 2.247746
v 0.303253 0.347788 2.123803
v 0.492473 0.264964 2.621799
v 0.704062 0.133852 2.227763
v 0.784291 0.206562 2.668602
v 1.129097 0.182649 2.254837
v 0.665978 0.141390 2.222531
v 1.944543 0.349306 -1.784911
v 2.707106 0.240240 -1.580507
v 2.130435 0.217679 -2.548650
v 2.892998 0.108613 -2.344246
v 2.387435 0.052553 -2.041802
v 2.272368 -0.559082 -1.986444
v 2.262512 -0.552103 -1.945951
v 2.302454 -0.560601 -1.956812
v 2.381404 0.054743 -2.065695
v 2.371548 0.061722 -2.025202
v 2.411490 0.053224 -2.036063
v -1.193641 -0.079949 -1.790346
v -1.159249 -0.081074 -1.794127
v -1.179808 -0.083809 -1.821844
v -1.186751 0.260957 -1.829102
v -1.152359 0.259833 -1.832883
v -1.172919 0.257097 -1.860600
v -1.617892 0.418756 -2.433223
v -1.809858 0.523879 -1.542644
v -1.122357 0.258935 -1.835361
v -1.396800 0.555866 -1.187853
v -0.524822 0.506445 -1.467580
v -1.153542 0.254532 -1.879634
v -0.410680 0.447737 -1.963701
v -1.076199 0.389759 -2.591999
v -1.166944 0.262173 -1.814809
v -0.566220 0.408616 -0.472172
v 0.256783 0.408616 -0.066394
v -0.160443 0.408616 -1.295174
v 0.662560 0.408616 -0.889397
v 0.048170 0.200671 -0.680784
v 0.046331 -0.518165 -0.708813
v 0.024816 -0.518165 -0.665177
v 0.073363 -0.518165 -0.668363
v 0.046331 0.205398 -0.708813
v 0.024816 0.205398 -0.665177
v 0.073363 0.205398 -0.668363
v -0.640594 0.268296 2.069739
v 0.312045 0.288867 1.766332
v -0.944267 0.385643 1.124216
v 0.008372 0.406214 0.820810
v -0.319771 0.112251 1.418525
v -0.355056 -0.662762 1.305635
v -0.338956 -0.668983 1.355767
v -0.303264 -0.664928 1.316769
v -0.342319 0.120162 1.398711
v -0.326218 0.113940 1.448843
v -0.290527 0.117996 1.409846
vt 0.914930 0.008661
vt 0.931183 0.008661
vt 0.947436 0.008661
vt 0.963688 0.008661
vt 0.914930 0.241214
vt 0.931183 0.241214
vt 0.947436 0.241214
vt 0.963688 0.241214
vt 0.718197 0.424071
vt 0.581967 0.283044
vt 0.824712 0.264278
vt 0.718197 0.424071
vt 0.581967 0.283044
vt 0.824712 0.264278
vt 0.718197 0.424071
vt 0.581967 0.283044
vt 0.824712 0.264278
vt 0.794508 0.461825
vt 0.895673 0.360660
vt 0.996837 0.461825
vt 0.794508 0.259496
vt 0.996837 0.259496
vt 0.848350 0.008661
vt 0.864602 0.008661
vt 0.864602 0.241214
vt 0.848350 0.241214
vt 0.880855 0.008661
vt 0.880855 0.241214
vt 0.897108 0.008661
vt 0.897108 0.241214
vt 0.914930 0.008661
vt 0.931183 0.008661
vt 0.931183 0.241214
vt 0.914930 0.241214
vt 0.947436 0.008661
vt 0.947436 0.241214
vt 0.963688 0.008661
vt 0.963688 0.241214
vt 0.718197 0.424071
vt 0.581967 0.283044
vt 0.824712 0.264278
vt 0.718197 0.424071
vt 0.581967 0.283044
vt 0.824712 0.264278
vt 0.718197 0.424071
vt 0.581967 0.283044
vt 0.824712 0.264278
vt 0.794508 0.461825
vt 0.895673 0.360660
vt 0.996837 0.461825
vt 0.794508 0.259496
vt 0.996837 0.259496
vt 0.848350 0.008661
vt 0.864602 0.008661
vt 0.864602 0.241214
vt 0.848350 0.241214
vt 0.880855 0.008661
vt 0.880855 0.241214
vt 0.897108 0.008661
vt 0.897108 0.241214
vt 0.914930 0.008661
vt 0.931183 0.008661
vt 0.931183 0.241214
vt 0.914930 0.241214
vt 0.947436 0.008661
vt 0.947436 0.241214
vt 0.963688 0.008661
vt 0.963688 0.241214
vt 0.718197 0.424071
vt 0.581967 0.283044
vt 0.824712 0.264278
vt 0.718197 0.424071
vt 0.581967 0.283044
vt 0.824712 0.264278
vt 0.718197 0.424071
vt 0.581967 0.283044
vt 0.824712 0.264278
vt 0.914930 0.008661
vt 0.931183 0.008661
vt 0.931183 0.241214
vt 0.914930 0.241214
vt 0.947436 0.008661
vt 0.947436 0.241214
vt 0.963688 0.008661
vt 0.963688 0.241214
vt 0.718197 0.424071
vt 0.581967 0.283044
vt 0.824712 0.264278
vt 0.718197 0.424071
vt 0.581967 0.283044
vt 0.824712 0.264278
vt 0.718197 0.424071
vt 0.581967 0.283044
vt 0.824712 0.264278
vt 0.914930 0.008661
vt 0.931183 0.008661
vt 0.931183 0.241214
vt 0.914930 0.241214
vt 0.947436 0.008661
vt 0.947436 0.241214
vt 0.963688 0.008661
vt 0.963688 0.241214
vt 0.718197 0.424071
vt 0.581967 0.283044
vt 0.824712 0.264278
vt 0.718197 0.424071
vt 0.581967 0.283044
vt 0.824712 0.264278
vt 0.718197 0.424071
vt 0.581967 0.283044
vt 0.824712 0.264278
vt 0.794508 0.461825
vt 0.895673 0.360660
vt 0.996837 0.461825
vt 0.794508 0.259496
vt 0.996837 0.259496
vt 0.848350 0.008661
vt 0.864602 0.008661
vt 0.864602 0.241214
vt 0.848350 0.241214
vt 0.880855 0.008661
vt 0.880855 0.241214
vt 0.897108 0.008661
vt 0.897108 0.241214
vt 0.914930 0.008661
vt 0.931183 0.008661
vt 0.931183 0.241214
vt 0.914930 0.241214
vt 0.947436 0.008661
vt 0.947436 0.241214
vt 0.963688 0.008661
vt 0.963688 0.241214
vt 0.718197 0.424071
vt 0.581967 0.283044
vt 0.824712 0.264278
vt 0.718197 0.424071
vt 0.581967 0.283044
vt 0.824712 0.264278
vt 0.718197 0.424071
vt 0.581967 0.283044
vt 0.824712 0.264278
vt 0.794508 0.461825
vt 0.895673 0.360660
vt 0.996837 0.461825
vt 0.794508 0.259496
vt 0.996837 0.259496
vt 0.848350 0.008661
vt 0.864602 0.008661
vt 0.864602 0.241214
vt 0.848350 0.241214
vt 0.880855 0.008661
vt 0.880855 0.241214
vt 0.897108 0.008661
vt 0.897108 0.241214
vt 0.794508 0.461825
vt 0.895673 0.360660
vt 0.996837 0.461825
vt 0.794508 0.259496
vt 0.996837 0.259496
vt 0.848350 0.008661
vt 0.864602 0.008661
vt 0.864602 0.241214
vt 0.848350 0.241214
vt 0.880855 0.008661
vt 0.880855 0.241214
vt 0.897108 0.008661
vt 0.897108 0.241214
vn -0.828132 0.079438 -0.554876
vn -0.071162 -0.116610 0.990625
vn -0.071162 -0.116610 0.990625
vn -0.828132 0.079438 -0.554876
vn 0.899299 0.037173 -0.435751
vn 0.899300 0.037173 -0.435751
vn 0.058248 0.895833 0.440556
vn 0.058248 0.895833 0.440556
vn 0.058248 0.895833 0.440556
vn 0.280620 0.955457 -0.091406
vn 0.280620 0.955457 -0.091406
vn 0.280620 0.955457 -0.091406
vn -0.290355 0.956638 -0.023203
vn -0.290355 0.956638 -0.023203
vn -0.290355 0.956638 -0.023203
vn 0.470399 0.881058 0.049618
vn 0.180833 0.979001 0.094113
vn 0.206548 0.896994 0.390819
vn 0.137863 0.967590 -0.211574
vn -0.125988 0.983526 0.129627
vn -0.972887 0.192087 -0.128815
vn 0.361573 -0.155164 0.919341
vn 0.361573 -0.155164 0.919342
vn -0.972887 0.192087 -0.128816
vn 0.611314 -0.036923 -0.790526
vn 0.611313 -0.036922 -0.790527
vn -0.941391 0.202093 0.270076
vn 0.721214 -0.038815 0.691624
vn 0.721214 -0.038815 0.691624
vn -0.941391 0.202093 0.270076
vn 0.220178 -0.163276 -0.961698
vn 0.220178 -0.163276 -0.961698
vn 0.444550 0.893704 0.060569
vn 0.444550 0.893704 0.060569
vn 0.444550 0.893704 0.060569
vn 0.171281 0.876285 -0.450320
vn 0.171281 0.876284 -0.450320
vn 0.171281 0.876284 -0.450320
vn -0.129551 0.991230 0.026074
vn -0.129551 0.991230 0.026074
vn -0.129551 0.991230 0.026074
vn 0.296663 0.952290 0.071663
vn -0.000000 1.000000 -0.000000
vn -0.071664 0.952290 0.296663
vn 0.071663 0.952290 -0.296663
vn -0.296663 0.952290 -0.071663
vn -0.878146 0.000000 -0.478392
vn 0.024773 0.000000 0.999693
vn 0.024773 0.000000 0.999693
vn -0.878146 0.000000 -0.478392
vn 0.853373 0.000000 -0.521301
vn 0.853373 0.000000 -0.521301
vn -0.623484 0.188116 -0.758868
vn -0.346987 -0.026031 0.937509
vn -0.346988 -0.026031 0.937509
vn -0.623484 0.188116 -0.758868
vn 0.970472 -0.162085 -0.178640
vn 0.970472 -0.162085 -0.178641
vn 0.117895 0.900620 0.418310
vn 0.117895 0.900620 0.418310
vn 0.117895 0.900621 0.418310
vn 0.477742 0.877781 -0.035535
vn 0.477742 0.877781 -0.035535
vn 0.477742 0.877781 -0.035535
vn -0.079513 0.989163 -0.123431
vn -0.079513 0.989163 -0.123431
vn -0.079513 0.989163 -0.123431
vn -0.959835 0.164298 0.227425
vn 0.675812 -0.104999 0.729557
vn 0.675812 -0.104999 0.729557
vn -0.959835 0.164298 0.227425
vn 0.284022 -0.059299 -0.956982
vn 0.284023 -0.059299 -0.956982
vn 0.425742 0.886247 0.182508
vn 0.425742 0.886247 0.182508
vn 0.425742 0.886247 0.182508
vn 0.186163 0.920251 -0.344211
vn 0.186163 0.920251 -0.344211
vn 0.186163 0.920251 -0.344211
vn -0.146408 0.981816 0.120838
vn -0.146408 0.981816 0.120838
vn -0.146408 0.981816 0.120838
vn -0.623488 0.188117 -0.758865
vn -0.346994 -0.026032 0.937506
vn -0.346995 -0.026032 0.937506
vn -0.623489 0.188117 -0.758864
vn 0.970472 -0.162085 -0.178643
vn 0.970472 -0.162085 -0.178643
vn 0.117895 0.900620 0.418310
vn 0.117895 0.900620 0.418311
vn 0.117895 0.900620 0.418311
vn 0.477742 0.877781 -0.035535
vn 0.477742 0.877781 -0.035535
vn 0.477742 0.877781 -0.035535
vn -0.079513 0.989163 -0.123431
vn -0.079513 0.989163 -0.123431
vn -0.079513 0.989163 -0.123431
vn 0.321372 0.936236 0.142064
vn 0.173499 0.976727 -0.126106
vn -0.091601 0.995302 0.031367
vn 0.422044 0.864952 -0.271546
vn 0.009071 0.924018 -0.382242
vn -0.276405 -0.074607 -0.958141
vn -0.680405 0.211455 0.701666
vn -0.680405 0.211455 0.701666
vn -0.276405 -0.074607 -0.958141
vn 0.956816 -0.136848 0.256469
vn 0.956816 -0.136848 0.256469
vn -0.804294 0.083143 0.588386
vn 0.916473 0.026861 0.399194
vn 0.916473 0.026861 0.399193
vn -0.804294 0.083143 0.588386
vn -0.112180 -0.110005 -0.987580
vn -0.112179 -0.110005 -0.987580
vn 0.345939 0.937562 -0.036101
vn 0.345939 0.937562 -0.036101
vn 0.345939 0.937562 -0.036101
vn -0.084473 0.902306 -0.422740
vn -0.084473 0.902306 -0.422740
vn -0.084473 0.902306 -0.422740
vn -0.211126 0.968190 0.134290
vn -0.211126 0.968190 0.134290
vn -0.211126 0.968190 0.134290
vn 0.098125 0.952290 0.288991
vn 0.000000 1.000000 0.000000
vn -0.288991 0.952290 0.098125
vn 0.288991 0.952290 -0.098125
vn -0.098125 0.952290 -0.288991
vn -0.065484 0.000000 -0.997854
vn -0.831425 0.000000 0.555637
vn -0.831425 0.000000 0.555637
vn -0.065484 0.000000 -0.997854
vn 0.896909 0.000000 0.442216
vn 0.896909 0.000000 0.442216
vn 0.286502 0.924623 0.250977
vn 0.016153 0.992878 0.118036
vn -0.124668 0.915744 0.381931
vn 0.155433 0.975271 -0.157122
vn -0.255738 0.966392 -0.026168
vn -0.739309 0.091339 -0.667143
vn -0.213332 -0.111911 0.970549
vn -0.213332 -0.111911 0.970549
vn -0.739309 0.091339 -0.667143
vn 0.952639 0.020571 -0.303406
vn 0.952639 0.020572 -0.303406
s 1
g pCylinder39
usemtl pasted__lambert3SG
f 1/1/1 2/2/2 5/6/3 4/5/4
f 2/2/2 3/3/5 6/7/6 5/6/3
f 3/3/5 1/4/1 4/8/4 6/7/6
s off
f 9/9/7 7/10/8 8/11/9
f 12/12/10 10/13/11 11/14/12
f 15/15/13 13/16/14 14/17/15
s 2
f 18/18/16 20/19/17 19/20/18
f 16/21/19 20/19/17 18/18/16
f 16/21/19 17/22/20 20/19/17
f 19/20/18 20/19/17 17/22/20
s 3
f 21/23/21 22/24/22 25/25/23 24/26/24
f 22/24/22 23/27/25 26/28/26 25/25/23
f 23/27/25 21/29/21 24/30/24 26/28/26
s 4
f 27/31/27 28/32/28 31/33/29 30/34/30
f 28/32/28 29/35/31 32/36/32 31/33/29
f 29/35/31 27/37/27 30/38/30 32/36/32
s off
f 35/39/33 33/40/34 34/41/35
f 38/42/36 36/43/37 37/44/38
f 41/45/39 39/46/40 40/47/41
s 5
f 44/48/42 46/49/43 45/50/44
f 42/51/45 46/49/43 44/48/42
f 42/51/45 43/52/46 46/49/43
f 45/50/44 46/49/43 43/52/46
s 6
f 47/53/47 48/54/48 51/55/49 50/56/50
f 48/54/48 49/57/51 52/58/52 51/55/49
f 49/57/51 47/59/47 50/60/50 52/58/52
s 7
f 53/61/53 54/62/54 57/63/55 56/64/56
f 54/62/54 55/65/57 58/66/58 57/63/55
f 55/65/57 53/67/53 56/68/56 58/66/58
s off
f 61/69/59 59/70/60 60/71/61
f 64/72/62 62/73/63 63/74/64
f 67/75/65 65/76/66 66/77/67
s 8
f 68/78/68 69/79/69 72/80/70 71/81/71
f 69/79/69 70/82/72 73/83/73 72/80/70
f 70/82/72 68/84/68 71/85/71 73/83/73
s off
f 76/86/74 74/87/75 75/88/76
f 79/89/77 77/90/78 78/91/79
f 82/92/80 80/93/81 81/94/82
s 9
f 83/95/83 84/96/84 87/97/85 86/98/86
f 84/96/84 85/99/87 88/100/88 87/97/85
f 85/99/87 83/101/83 86/102/86 88/100/88
s off
f 91/103/89 89/104/90 90/105/91
f 94/106/92 92/107/93 93/108/94
f 97/109/95 95/110/96 96/111/97
s 10
f 100/112/98 102/113/99 101/114/100
f 98/115/101 102/113/99 100/112/98
f 98/115/101 99/116/102 102/113/99
f 101/114/100 102/113/99 99/116/102
s 11
f 103/117/103 104/118/104 107/119/105 106/120/106
f 104/118/104 105/121/107 108/122/108 107/119/105
f 105/121/107 103/123/103 106/124/106 108/122/108
s 12
f 109/125/109 110/126/110 113/127/111 112/128/112
f 110/126/110 111/129/113 114/130/114 113/127/111
f 111/129/113 109/131/109 112/132/112 114/130/114
s off
f 117/133/115 115/134/116 116/135/117
f 120/136/118 118/137/119 119/138/120
f 123/139/121 121/140/122 122/141/123
s 13
f 126/142/124 128/143/125 127/144/126
f 124/145/127 128/143/125 126/142/124
f 124/145/127 125/146/128 128/143/125
f 127/144/126 128/143/125 125/146/128
s 14
f 129/147/129 130/148/130 133/149/131 132/150/132
f 130/148/130 131/151/133 134/152/134 133/149/131
f 131/151/133 129/153/129 132/154/132 134/152/134
s 15
f 137/155/135 139/156/136 138/157/137
f 135/158/138 139/156/136 137/155/135
f 135/158/138 136/159/139 139/156/136
f 138/157/137 139/156/136 136/159/139
s 16
f 140/160/140 141/161/141 144/162/142 143/163/143
f 141/161/141 142/164/144 145/165/145 144/162/142
f 142/164/144 140/166/140 143/167/143 145/165/145
