# This file uses centimeters as units for non-parametric coordinates.

mtllib DaisyPlane1.mtl
g default
v -1.663109 -0.152869 1.663109
v 1.663109 -0.152869 1.663109
v -1.663109 -0.131110 -1.663108
v 1.663109 -0.131110 -1.663108
v -1.663109 -0.231088 0.000000
v 1.663109 -0.013470 0.000000
v 0.000000 -0.152869 1.663109
v 0.000000 0.231088 0.000000
v 0.000000 -0.131110 -1.663108
vt 0.000000 0.500000
vt 0.500000 0.500000
vt 0.500000 1.000000
vt 0.000000 1.000000
vt 1.000000 0.000000
vt 1.000000 0.500000
vt 0.500000 0.000000
vt 1.000000 1.000000
vt 0.000000 0.000000
vn -0.137624 0.990463 0.006574
vn -0.031763 0.999475 0.006449
vn -0.032494 0.993311 -0.110801
vn -0.137209 0.987478 -0.077847
vn 0.072440 0.985252 0.155022
vn 0.073325 0.997286 0.006614
vn -0.032444 0.991801 0.123608
vn 0.072579 0.987144 -0.142405
vn -0.137060 0.986405 0.090668
s 1
g polySurface47 pPlane87
usemtl lambert7SG
f 5/1/1 8/2/2 9/3/3 3/4/4
f 2/5/5 6/6/6 8/2/2 7/7/7
f 9/3/3 8/2/2 6/6/6 4/8/8
f 7/7/7 8/2/2 5/1/1 1/9/9
