# This file uses centimeters as units for non-parametric coordinates.

mtllib FERN.mtl
g default
v -0.047044 0.330953 -0.110228
v -0.109353 0.404593 0.040471
v -0.178565 0.446468 0.207868
v -0.257902 0.438798 0.399751
v -0.337381 0.353077 0.591978
v 0.333645 0.330953 0.047173
v 0.271336 0.404593 0.197872
v 0.202124 0.446468 0.365268
v 0.122787 0.438798 0.557152
v 0.043308 0.353077 0.749379
v 0.048827 0.412129 -0.287391
v -0.147008 0.539433 -0.295199
v -0.364542 0.611825 -0.303872
v -0.613896 0.598566 -0.313814
v -0.863698 0.450376 -0.323774
v 0.029103 0.412129 0.207319
v -0.166732 0.539433 0.199511
v -0.384266 0.611825 0.190837
v -0.633621 0.598566 0.180895
v -0.883422 0.450376 0.170936
v 0.222351 0.320333 0.048988
v 0.337288 0.409049 -0.014983
v 0.464959 0.459498 -0.086041
v 0.611306 0.450258 -0.167494
v 0.757915 0.346987 -0.249093
v 0.060752 0.320333 -0.241359
v 0.175688 0.409049 -0.305329
v 0.303359 0.459498 -0.376388
v 0.449707 0.450258 -0.457841
v 0.596316 0.346987 -0.539440
v -0.088456 0.236204 0.113033
v 0.118494 0.333070 0.209915
v 0.347092 0.385308 0.317239
v 0.607340 0.367989 0.439856
v 0.865547 0.242426 0.562123
v 0.154923 0.233286 -0.403938
v 0.361874 0.330153 -0.307057
v 0.590471 0.382390 -0.199733
v 0.850720 0.365072 -0.077116
v 1.108926 0.239508 0.045151
v -0.190028 0.377294 -0.110121
v -0.269083 0.527322 0.106904
v -0.356897 0.612635 0.347976
v -0.457556 0.597010 0.624311
v -0.558396 0.422368 0.901142
v 0.358210 0.377294 0.089583
v 0.279155 0.527322 0.306608
v 0.191341 0.612635 0.547680
v 0.090682 0.597010 0.824015
v -0.010157 0.422368 1.100845
v 0.257921 0.219281 -0.097744
v 0.218502 0.354165 -0.293814
v 0.174715 0.430868 -0.511610
v 0.124523 0.416819 -0.761264
v 0.074241 0.259805 -1.011366
v -0.237384 0.219281 0.001835
v -0.276803 0.354165 -0.194236
v -0.320590 0.430868 -0.412031
v -0.370782 0.416819 -0.661686
v -0.421063 0.259805 -0.911787
v 0.061363 0.081472 -0.219499
v -0.102846 0.160630 -0.158154
v -0.285250 0.205643 -0.090013
v -0.494336 0.197399 -0.011903
v -0.703796 0.105254 0.066346
v 0.216329 0.081472 0.195319
v 0.052119 0.160630 0.256664
v -0.130285 0.205643 0.324805
v -0.339371 0.197399 0.402914
v -0.548831 0.105254 0.481163
v 0.270976 0.168731 -0.273816
v 0.133692 0.305576 -0.433625
v -0.018804 0.383393 -0.611140
v -0.193607 0.369140 -0.814621
v -0.368724 0.209844 -1.018468
v -0.132723 0.168731 0.072986
v -0.270008 0.305576 -0.086823
v -0.422504 0.383393 -0.264338
v -0.597307 0.369140 -0.467819
v -0.772423 0.209844 -0.671666
v 0.133390 0.070056 0.109079
v 0.267903 0.165420 0.152663
v 0.417320 0.219650 0.201077
v 0.588593 0.209717 0.256572
v 0.760174 0.098707 0.312166
v 0.243490 0.070056 -0.230720
v 0.378003 0.165420 -0.187136
v 0.527419 0.219650 -0.138723
v 0.698693 0.209717 -0.083228
v 0.870273 0.098707 -0.027634
v -0.144636 -0.020379 -0.088568
v -0.069296 0.083747 0.145223
v 0.013681 0.139899 0.403695
v 0.107805 0.121283 0.698270
v 0.200711 -0.013691 0.990983
v 0.440383 -0.023515 -0.275695
v 0.515723 0.080611 -0.041905
v 0.598700 0.136764 0.216567
v 0.692825 0.118147 0.511143
v 0.785730 -0.016827 0.803855
v -0.043442 0.131286 -0.331925
v -0.272103 0.292557 -0.235180
v -0.526101 0.384264 -0.127715
v -0.817253 0.367468 -0.004531
v -1.108926 0.179737 0.118873
v 0.200950 0.131286 0.245709
v -0.027711 0.292557 0.342454
v -0.281708 0.384264 0.449918
v -0.572860 0.367468 0.573102
v -0.864534 0.179737 0.696507
v 0.274894 -0.038570 0.029601
v 0.400298 0.106423 -0.145016
v 0.539598 0.188874 -0.338981
v 0.699274 0.173773 -0.561318
v 0.859236 0.004991 -0.784054
v -0.166215 -0.038570 -0.287190
v -0.040811 0.106423 -0.461807
v 0.098489 0.188874 -0.655771
v 0.258165 0.173773 -0.878109
v 0.418127 0.004991 -1.100845
vt 0.744364 0.000000
vt 0.744364 0.250000
vt 0.744364 0.500000
vt 0.744364 0.750000
vt 0.744364 1.000000
vt 0.249261 0.000000
vt 0.249261 0.250000
vt 0.249261 0.500000
vt 0.249261 0.750000
vt 0.249261 1.000000
vt 0.744364 0.000000
vt 0.744364 0.250000
vt 0.249261 0.250000
vt 0.249261 0.000000
vt 0.249261 0.500000
vt 0.744364 0.500000
vt 0.249261 0.750000
vt 0.744364 0.750000
vt 0.249261 1.000000
vt 0.744364 1.000000
vt 0.744364 0.000000
vt 0.744364 0.250000
vt 0.249261 0.250000
vt 0.249261 0.000000
vt 0.249261 0.500000
vt 0.744364 0.500000
vt 0.249261 0.750000
vt 0.744364 0.750000
vt 0.249261 1.000000
vt 0.744364 1.000000
vt 0.744364 0.000000
vt 0.744364 0.250000
vt 0.249261 0.250000
vt 0.249261 0.000000
vt 0.249261 0.500000
vt 0.744364 0.500000
vt 0.249261 0.750000
vt 0.744364 0.750000
vt 0.249261 1.000000
vt 0.744364 1.000000
vt 0.744364 0.000000
vt 0.744364 0.250000
vt 0.249261 0.250000
vt 0.249261 0.000000
vt 0.249261 0.500000
vt 0.744364 0.500000
vt 0.249261 0.750000
vt 0.744364 0.750000
vt 0.249261 1.000000
vt 0.744364 1.000000
vt 0.744364 0.000000
vt 0.744364 0.250000
vt 0.249261 0.250000
vt 0.249261 0.000000
vt 0.249261 0.500000
vt 0.744364 0.500000
vt 0.249261 0.750000
vt 0.744364 0.750000
vt 0.249261 1.000000
vt 0.744364 1.000000
vt 0.744364 0.000000
vt 0.744364 0.250000
vt 0.249261 0.250000
vt 0.249261 0.000000
vt 0.249261 0.500000
vt 0.744364 0.500000
vt 0.249261 0.750000
vt 0.744364 0.750000
vt 0.249261 1.000000
vt 0.744364 1.000000
vt 0.744364 0.000000
vt 0.744364 0.250000
vt 0.249261 0.250000
vt 0.249261 0.000000
vt 0.249261 0.500000
vt 0.744364 0.500000
vt 0.249261 0.750000
vt 0.744364 0.750000
vt 0.249261 1.000000
vt 0.744364 1.000000
vt 0.744364 0.000000
vt 0.744364 0.250000
vt 0.249261 0.250000
vt 0.249261 0.000000
vt 0.249261 0.500000
vt 0.744364 0.500000
vt 0.249261 0.750000
vt 0.744364 0.750000
vt 0.249261 1.000000
vt 0.744364 1.000000
vt 0.744364 0.000000
vt 0.744364 0.250000
vt 0.249261 0.250000
vt 0.249261 0.000000
vt 0.249261 0.500000
vt 0.744364 0.500000
vt 0.249261 0.750000
vt 0.744364 0.750000
vt 0.249261 1.000000
vt 0.744364 1.000000
vt 0.744364 0.000000
vt 0.744364 0.250000
vt 0.249261 0.250000
vt 0.249261 0.000000
vt 0.249261 0.500000
vt 0.744364 0.500000
vt 0.249261 0.750000
vt 0.744364 0.750000
vt 0.249261 1.000000
vt 0.744364 1.000000
vt 0.744364 0.000000
vt 0.744364 0.250000
vt 0.249261 0.250000
vt 0.249261 0.000000
vt 0.249261 0.500000
vt 0.744364 0.500000
vt 0.249261 0.750000
vt 0.744364 0.750000
vt 0.249261 1.000000
vt 0.744364 1.000000
vn -0.342802 0.641970 -0.685828
vn -0.590790 0.752924 0.289953
vn 0.624038 0.531159 0.573103
vn 0.858467 0.495550 0.132155
vn 0.393742 0.529676 0.751273
vn -0.531898 0.642232 0.551926
vn 0.159856 0.487439 0.858400
vn -0.419806 0.511765 0.749573
vn 0.095486 0.345488 0.933552
vn -0.443440 0.358842 0.821336
vn 0.133553 0.544950 -0.827764
vn -0.338261 0.661761 -0.669068
vn -0.456833 0.749427 0.479232
vn 0.116397 0.647465 0.753154
vn -0.670011 0.661118 0.337651
vn -0.558910 0.648398 -0.516914
vn -0.820521 0.540556 0.185864
vn -0.753730 0.532632 -0.384959
vn -0.914585 0.368621 0.166293
vn -0.859869 0.364399 -0.357544
vn 0.843123 0.518271 0.143312
vn 0.839782 0.532465 -0.106052
vn 0.396655 0.528546 -0.750535
vn 0.149711 0.513044 -0.845206
vn 0.578338 0.519592 -0.628927
vn 0.841162 0.521902 -0.141652
vn 0.639536 0.418150 -0.645092
vn 0.887551 0.419887 -0.189601
vn 0.697616 0.283301 -0.658082
vn 0.875068 0.333296 -0.350956
vn -0.639366 0.400568 0.656320
vn 0.393726 0.520851 0.757426
vn 0.670932 0.386805 -0.632639
vn 0.409743 0.262969 -0.873475
vn 0.848389 0.386288 -0.361963
vn 0.653039 0.416695 0.632380
vn 0.937211 0.331486 -0.108411
vn 0.793615 0.354060 0.494790
vn 0.980756 0.184057 0.065118
vn 0.837354 0.195267 0.510597
vn -0.687349 0.630996 -0.359716
vn -0.610840 0.736784 0.289869
vn 0.537755 0.632749 0.557179
vn 0.845995 0.509552 0.157001
vn 0.307430 0.618245 0.723367
vn -0.545686 0.641554 0.539106
vn 0.108560 0.496813 0.861041
vn -0.547154 0.511274 0.662737
vn -0.038176 0.290356 0.956157
vn -0.483497 0.322096 0.813932
vn 0.838478 0.366031 -0.403703
vn 0.585834 0.499800 -0.637965
vn -0.752495 0.506827 -0.420569
vn -0.919679 0.373665 0.120687
vn -0.581143 0.496439 -0.644842
vn 0.347266 0.491879 -0.798412
vn -0.438643 0.378075 -0.815262
vn 0.147788 0.375542 -0.914946
vn -0.419777 0.208685 -0.883311
vn 0.094637 0.207549 -0.973636
vn 0.173308 0.128310 -0.976474
vn -0.451702 0.250546 -0.856266
vn 0.159505 0.241581 0.957182
vn 0.708485 0.127011 0.694203
vn -0.419245 0.256994 0.870740
vn -0.918266 0.354366 -0.176668
vn -0.665631 0.230778 0.709702
vn -0.966123 0.234878 -0.106954
vn -0.724761 0.125089 0.677550
vn -0.984255 0.125571 0.124393
vn 0.687008 0.231257 -0.688869
vn 0.188824 0.378044 -0.906327
vn -0.851401 0.497686 -0.165604
vn -0.828826 0.362825 0.425917
vn -0.798191 0.410463 -0.440921
vn -0.090920 0.388996 -0.916742
vn -0.704984 0.352715 -0.615297
vn -0.190780 0.337061 -0.921951
vn -0.729955 0.177185 -0.660130
vn -0.362993 0.170065 -0.916141
vn 0.709698 0.126067 0.693135
vn 0.860616 0.238719 0.449836
vn 0.869750 0.224880 -0.439278
vn 0.706342 0.122742 -0.697148
vn 0.951820 0.241457 -0.189045
vn 0.865621 0.251265 0.433088
vn 0.967089 0.216270 -0.134041
vn 0.880223 0.223822 0.418462
vn 0.989494 0.120125 -0.080446
vn 0.904436 0.121250 0.409017
vn -0.882337 0.099354 -0.460011
vn -0.441402 0.209196 0.872583
vn 0.984213 0.122147 -0.128086
vn 0.872541 0.091279 -0.479938
vn 0.906094 0.136220 0.400546
vn 0.118655 0.212450 0.969941
vn 0.761301 0.125972 0.636045
vn 0.153031 0.130336 0.979589
vn 0.698489 0.080935 0.711029
vn 0.185263 0.084153 0.979079
vn -0.146498 0.215650 -0.965419
vn -0.664079 0.388898 -0.638559
vn -0.125995 0.392003 0.911295
vn 0.674342 0.217898 0.705537
vn -0.443944 0.404732 0.799441
vn -0.898775 0.402687 -0.173341
vn -0.664605 0.341311 0.664685
vn -0.938171 0.340539 -0.062200
vn -0.755977 0.139049 0.639659
vn -0.983410 0.139211 0.116294
vn 0.984951 0.091779 0.146455
vn 0.899262 0.131629 -0.417136
vn -0.132997 0.130872 -0.982438
vn -0.462930 0.090651 -0.881748
vn 0.149388 0.209051 -0.966427
vn 0.852007 0.212363 -0.478525
vn 0.234749 0.141269 -0.961736
vn 0.746135 0.141745 -0.650531
vn 0.372552 0.086125 -0.924006
vn 0.729971 0.086576 -0.677972
s 1
g pPlane135
usemtl lambert19SG
f 1/1/1 2/2/2 7/7/3 6/6/4
f 8/8/5 7/7/3 2/2/2 3/3/6
f 9/9/7 8/8/5 3/3/6 4/4/8
f 10/10/9 9/9/7 4/4/8 5/5/10
s 2
f 11/11/11 12/12/12 17/13/13 16/14/14
f 18/15/15 17/13/13 12/12/12 13/16/16
f 19/17/17 18/15/15 13/16/16 14/18/18
f 20/19/19 19/17/17 14/18/18 15/20/20
s 3
f 21/21/21 22/22/22 27/23/23 26/24/24
f 28/25/25 27/23/23 22/22/22 23/26/26
f 29/27/27 28/25/25 23/26/26 24/28/28
f 30/29/29 29/27/27 24/28/28 25/30/30
s 4
f 31/31/31 32/32/32 37/33/33 36/34/34
f 38/35/35 37/33/33 32/32/32 33/36/36
f 39/37/37 38/35/35 33/36/36 34/38/38
f 40/39/39 39/37/37 34/38/38 35/40/40
s 5
f 41/41/41 42/42/42 47/43/43 46/44/44
f 48/45/45 47/43/43 42/42/42 43/46/46
f 49/47/47 48/45/45 43/46/46 44/48/48
f 50/49/49 49/47/47 44/48/48 45/50/50
s 6
f 51/51/51 52/52/52 57/53/53 56/54/54
f 58/55/55 57/53/53 52/52/52 53/56/56
f 59/57/57 58/55/55 53/56/56 54/58/58
f 60/59/59 59/57/57 54/58/58 55/60/60
s 7
f 61/61/61 62/62/62 67/63/63 66/64/64
f 68/65/65 67/63/63 62/62/62 63/66/66
f 69/67/67 68/65/65 63/66/66 64/68/68
f 70/69/69 69/67/67 64/68/68 65/70/70
s 8
f 71/71/71 72/72/72 77/73/73 76/74/74
f 78/75/75 77/73/73 72/72/72 73/76/76
f 79/77/77 78/75/75 73/76/76 74/78/78
f 80/79/79 79/77/77 74/78/78 75/80/80
s 9
f 81/81/81 82/82/82 87/83/83 86/84/84
f 88/85/85 87/83/83 82/82/82 83/86/86
f 89/87/87 88/85/85 83/86/86 84/88/88
f 90/89/89 89/87/87 84/88/88 85/90/90
s 10
f 91/91/91 92/92/92 97/93/93 96/94/94
f 98/95/95 97/93/93 92/92/92 93/96/96
f 99/97/97 98/95/95 93/96/96 94/98/98
f 100/99/99 99/97/97 94/98/98 95/100/100
s 11
f 101/101/101 102/102/102 107/103/103 106/104/104
f 108/105/105 107/103/103 102/102/102 103/106/106
f 109/107/107 108/105/105 103/106/106 104/108/108
f 110/109/109 109/107/107 104/108/108 105/110/110
s 12
f 111/111/111 112/112/112 117/113/113 116/114/114
f 118/115/115 117/113/113 112/112/112 113/116/116
f 119/117/117 118/115/115 113/116/116 114/118/118
f 120/119/119 119/117/117 114/118/118 115/120/120
