# This file uses centimeters as units for non-parametric coordinates.

mtllib FERN.mtl
g default
v -0.047044 0.043921 -0.110228
v -0.109353 0.117560 0.040471
v -0.178565 0.159435 0.207868
v -0.257902 0.151766 0.399751
v -0.337381 0.066045 0.591978
v 0.333645 0.043921 0.047173
v 0.271336 0.117560 0.197872
v 0.202124 0.159435 0.365268
v 0.122787 0.151766 0.557152
v 0.043308 0.066045 0.749379
v 0.048827 0.125097 -0.287391
v -0.147008 0.252401 -0.295199
v -0.364542 0.324792 -0.303872
v -0.613896 0.311534 -0.313814
v -0.863698 0.163343 -0.323774
v 0.029103 0.125097 0.207319
v -0.166732 0.252401 0.199511
v -0.384266 0.324792 0.190837
v -0.633621 0.311534 0.180895
v -0.883422 0.163343 0.170936
v 0.222351 0.033301 0.048988
v 0.337288 0.122017 -0.014983
v 0.464959 0.172465 -0.086041
v 0.611306 0.163225 -0.167494
v 0.757915 0.059954 -0.249093
v 0.060752 0.033301 -0.241359
v 0.175688 0.122017 -0.305329
v 0.303360 0.172465 -0.376388
v 0.449707 0.163225 -0.457841
v 0.596316 0.059954 -0.539440
v -0.088456 -0.050829 0.113033
v 0.118494 0.046038 0.209915
v 0.347092 0.098275 0.317239
v 0.607340 0.080957 0.439856
v 0.865547 -0.044607 0.562123
v 0.154923 -0.053746 -0.403938
v 0.361874 0.043120 -0.307057
v 0.590471 0.095358 -0.199733
v 0.850720 0.078039 -0.077116
v 1.108926 -0.047524 0.045151
v -0.190028 0.090262 -0.110121
v -0.269083 0.240290 0.106904
v -0.356897 0.325603 0.347976
v -0.457556 0.309978 0.624311
v -0.558396 0.135336 0.901142
v 0.358210 0.090262 0.089583
v 0.279155 0.240290 0.306608
v 0.191341 0.325603 0.547680
v 0.090682 0.309978 0.824015
v -0.010157 0.135336 1.100845
v 0.257921 -0.067752 -0.097744
v 0.218502 0.067133 -0.293814
v 0.174715 0.143835 -0.511610
v 0.124523 0.129787 -0.761264
v 0.074241 -0.027228 -1.011366
v -0.237384 -0.067752 0.001835
v -0.276803 0.067133 -0.194236
v -0.320590 0.143835 -0.412031
v -0.370782 0.129787 -0.661686
v -0.421063 -0.027228 -0.911787
v 0.061363 -0.205561 -0.219499
v -0.102846 -0.126403 -0.158154
v -0.285250 -0.081389 -0.090013
v -0.494336 -0.089634 -0.011903
v -0.703796 -0.181779 0.066346
v 0.216329 -0.205561 0.195319
v 0.052119 -0.126403 0.256664
v -0.130285 -0.081389 0.324805
v -0.339371 -0.089634 0.402914
v -0.548831 -0.181779 0.481163
v 0.270976 -0.118301 -0.273816
v 0.133692 0.018543 -0.433625
v -0.018804 0.096360 -0.611140
v -0.193607 0.082108 -0.814621
v -0.368724 -0.077188 -1.018468
v -0.132723 -0.118301 0.072986
v -0.270008 0.018543 -0.086823
v -0.422504 0.096360 -0.264338
v -0.597307 0.082108 -0.467819
v -0.772423 -0.077188 -0.671666
v 0.133390 -0.216977 0.109079
v 0.267903 -0.121612 0.152663
v 0.417320 -0.067383 0.201077
v 0.588593 -0.077315 0.256572
v 0.760174 -0.188326 0.312166
v 0.243490 -0.216977 -0.230720
v 0.378003 -0.121612 -0.187136
v 0.527419 -0.067383 -0.138723
v 0.698693 -0.077315 -0.083228
v 0.870273 -0.188326 -0.027634
v -0.144636 -0.307411 -0.088568
v -0.069296 -0.203286 0.145223
v 0.013681 -0.147133 0.403695
v 0.107805 -0.165749 0.698270
v 0.200711 -0.300723 0.990983
v 0.440383 -0.310547 -0.275695
v 0.515723 -0.206421 -0.041905
v 0.598700 -0.150269 0.216567
v 0.692825 -0.168885 0.511143
v 0.785730 -0.303859 0.803855
v -0.043442 -0.155747 -0.331925
v -0.272103 0.005525 -0.235180
v -0.526101 0.097232 -0.127715
v -0.817253 0.080435 -0.004531
v -1.108926 -0.107295 0.118873
v 0.200950 -0.155747 0.245709
v -0.027711 0.005525 0.342454
v -0.281708 0.097232 0.449918
v -0.572860 0.080435 0.573102
v -0.864534 -0.107295 0.696507
v 0.274894 -0.325603 0.029601
v 0.400298 -0.180609 -0.145016
v 0.539598 -0.098159 -0.338980
v 0.699274 -0.113260 -0.561318
v 0.859236 -0.282042 -0.784054
v -0.166215 -0.325603 -0.287190
v -0.040811 -0.180609 -0.461807
v 0.098489 -0.098159 -0.655771
v 0.258165 -0.113260 -0.878109
v 0.418127 -0.282042 -1.100845
vt 0.744364 0.000000
vt 0.744364 0.250000
vt 0.744364 0.500000
vt 0.744364 0.750000
vt 0.744364 1.000000
vt 0.249261 0.000000
vt 0.249261 0.250000
vt 0.249261 0.500000
vt 0.249261 0.750000
vt 0.249261 1.000000
vt 0.744364 0.000000
vt 0.744364 0.250000
vt 0.249261 0.250000
vt 0.249261 0.000000
vt 0.249261 0.500000
vt 0.744364 0.500000
vt 0.249261 0.750000
vt 0.744364 0.750000
vt 0.249261 1.000000
vt 0.744364 1.000000
vt 0.744364 0.000000
vt 0.744364 0.250000
vt 0.249261 0.250000
vt 0.249261 0.000000
vt 0.249261 0.500000
vt 0.744364 0.500000
vt 0.249261 0.750000
vt 0.744364 0.750000
vt 0.249261 1.000000
vt 0.744364 1.000000
vt 0.744364 0.000000
vt 0.744364 0.250000
vt 0.249261 0.250000
vt 0.249261 0.000000
vt 0.249261 0.500000
vt 0.744364 0.500000
vt 0.249261 0.750000
vt 0.744364 0.750000
vt 0.249261 1.000000
vt 0.744364 1.000000
vt 0.744364 0.000000
vt 0.744364 0.250000
vt 0.249261 0.250000
vt 0.249261 0.000000
vt 0.249261 0.500000
vt 0.744364 0.500000
vt 0.249261 0.750000
vt 0.744364 0.750000
vt 0.249261 1.000000
vt 0.744364 1.000000
vt 0.744364 0.000000
vt 0.744364 0.250000
vt 0.249261 0.250000
vt 0.249261 0.000000
vt 0.249261 0.500000
vt 0.744364 0.500000
vt 0.249261 0.750000
vt 0.744364 0.750000
vt 0.249261 1.000000
vt 0.744364 1.000000
vt 0.744364 0.000000
vt 0.744364 0.250000
vt 0.249261 0.250000
vt 0.249261 0.000000
vt 0.249261 0.500000
vt 0.744364 0.500000
vt 0.249261 0.750000
vt 0.744364 0.750000
vt 0.249261 1.000000
vt 0.744364 1.000000
vt 0.744364 0.000000
vt 0.744364 0.250000
vt 0.249261 0.250000
vt 0.249261 0.000000
vt 0.249261 0.500000
vt 0.744364 0.500000
vt 0.249261 0.750000
vt 0.744364 0.750000
vt 0.249261 1.000000
vt 0.744364 1.000000
vt 0.744364 0.000000
vt 0.744364 0.250000
vt 0.249261 0.250000
vt 0.249261 0.000000
vt 0.249261 0.500000
vt 0.744364 0.500000
vt 0.249261 0.750000
vt 0.744364 0.750000
vt 0.249261 1.000000
vt 0.744364 1.000000
vt 0.744364 0.000000
vt 0.744364 0.250000
vt 0.249261 0.250000
vt 0.249261 0.000000
vt 0.249261 0.500000
vt 0.744364 0.500000
vt 0.249261 0.750000
vt 0.744364 0.750000
vt 0.249261 1.000000
vt 0.744364 1.000000
vt 0.744364 0.000000
vt 0.744364 0.250000
vt 0.249261 0.250000
vt 0.249261 0.000000
vt 0.249261 0.500000
vt 0.744364 0.500000
vt 0.249261 0.750000
vt 0.744364 0.750000
vt 0.249261 1.000000
vt 0.744364 1.000000
vt 0.744364 0.000000
vt 0.744364 0.250000
vt 0.249261 0.250000
vt 0.249261 0.000000
vt 0.249261 0.500000
vt 0.744364 0.500000
vt 0.249261 0.750000
vt 0.744364 0.750000
vt 0.249261 1.000000
vt 0.744364 1.000000
vn -0.295086 0.749650 -0.592409
vn -0.485810 0.841538 0.236227
vn 0.571423 0.634398 0.520590
vn 0.840085 0.526818 0.129306
vn 0.362619 0.626183 0.690219
vn -0.516284 0.667561 0.536482
vn 0.156952 0.518865 0.840325
vn -0.411145 0.542641 0.732462
vn 0.093219 0.381148 0.919802
vn -0.436941 0.394349 0.808438
vn 0.121503 0.649389 -0.750687
vn -0.299276 0.747707 -0.592763
vn -0.440820 0.768729 0.463394
vn 0.101224 0.746497 0.657644
vn -0.601814 0.738975 0.302879
vn -0.543320 0.673521 -0.501172
vn -0.767914 0.615482 0.177457
vn -0.736050 0.563010 -0.375833
vn -0.899949 0.403969 0.164018
vn -0.846833 0.399719 -0.350853
vn 0.763587 0.632329 0.130749
vn 0.766518 0.635246 -0.094412
vn 0.363585 0.630648 -0.685630
vn 0.137420 0.626234 -0.767428
vn 0.564537 0.550275 -0.615220
vn 0.821856 0.552555 -0.138690
vn 0.607106 0.506182 -0.612537
vn 0.841513 0.508564 -0.182258
vn 0.677205 0.367352 -0.637531
vn 0.863129 0.369026 -0.344715
vn -0.590620 0.531149 0.607494
vn 0.357486 0.633370 0.686328
vn 0.634489 0.491868 -0.596230
vn 0.391944 0.378717 -0.838423
vn 0.834591 0.421243 -0.354981
vn 0.614613 0.518920 0.594115
vn 0.923997 0.367353 -0.106211
vn 0.780875 0.389516 0.488377
vn 0.972821 0.222609 0.063744
vn 0.829750 0.233789 0.506811
vn -0.668061 0.656657 -0.349994
vn -0.591164 0.756511 0.279671
vn 0.522371 0.658358 0.541935
vn 0.827123 0.540494 0.154054
vn 0.297695 0.644191 0.704553
vn -0.530149 0.666909 0.523617
vn 0.105551 0.528037 0.842637
vn -0.533576 0.542042 0.649220
vn -0.034860 0.350143 0.936047
vn -0.477713 0.358028 0.802251
vn 0.825381 0.401423 -0.396996
vn 0.572527 0.530945 -0.624748
vn -0.735525 0.537820 -0.412010
vn -0.858959 0.499858 0.111044
vn -0.567901 0.527643 -0.631729
vn 0.338808 0.523163 -0.781991
vn -0.431805 0.413257 -0.801725
vn 0.145394 0.410779 -0.900067
vn -0.415645 0.247192 -0.875291
vn 0.093189 0.246011 -0.964777
vn 0.170014 0.238402 -0.956169
vn -0.430760 0.386971 -0.815291
vn 0.152816 0.372660 0.915299
vn 0.695265 0.230559 0.680771
vn -0.400520 0.379845 0.833847
vn -0.904158 0.389932 -0.174504
vn -0.658632 0.269046 0.702722
vn -0.932138 0.347548 -0.101630
vn -0.717224 0.190855 0.670197
vn -0.973353 0.193665 0.122792
vn 0.660674 0.352940 -0.662528
vn 0.186447 0.413194 -0.891352
vn -0.832937 0.528886 -0.162772
vn -0.815826 0.398278 0.419288
vn -0.751476 0.511110 -0.417192
vn -0.083863 0.482605 -0.871814
vn -0.694989 0.388242 -0.605192
vn -0.188661 0.372851 -0.908509
vn -0.724484 0.215889 -0.654611
vn -0.359429 0.208681 -0.909540
vn 0.695053 0.238490 0.678251
vn 0.824468 0.366211 0.431442
vn 0.861138 0.263236 -0.434913
vn 0.694485 0.218534 -0.685517
vn 0.918773 0.349413 -0.183757
vn 0.832645 0.365189 0.416341
vn 0.957887 0.254711 -0.132572
vn 0.871669 0.262175 0.414075
vn 0.986965 0.139653 -0.079981
vn 0.902180 0.140809 0.407729
vn -0.880352 0.118991 -0.459154
vn -0.437305 0.247713 0.864524
vn 0.971121 0.202524 -0.126129
vn 0.870819 0.110922 -0.478926
vn 0.892466 0.220834 0.393366
vn 0.117186 0.250912 0.960891
vn 0.755173 0.182678 0.629558
vn 0.151237 0.202997 0.967429
vn 0.697121 0.100599 0.709861
vn 0.184850 0.103806 0.977269
vn -0.145041 0.254104 -0.956240
vn -0.623656 0.503201 -0.598199
vn -0.116951 0.507289 0.853804
vn 0.667702 0.256320 0.698909
vn -0.421096 0.503313 0.754556
vn -0.849700 0.500595 -0.165575
vn -0.654916 0.377084 0.654899
vn -0.924610 0.376172 -0.059931
vn -0.750259 0.187807 0.633909
vn -0.975581 0.187070 0.115092
vn 0.982948 0.111430 0.146274
vn 0.883337 0.228896 -0.409050
vn -0.130426 0.224117 -0.965795
vn -0.461910 0.110302 -0.880041
vn 0.147983 0.247570 -0.957502
vn 0.843826 0.250819 -0.474392
vn 0.232990 0.208305 -0.949908
vn 0.737471 0.210512 -0.641733
vn 0.371665 0.105708 -0.922329
vn 0.728728 0.106220 -0.676516
s 1
g pPlane135
usemtl lambert19SG
f 1/1/1 2/2/2 7/7/3 6/6/4
f 8/8/5 7/7/3 2/2/2 3/3/6
f 9/9/7 8/8/5 3/3/6 4/4/8
f 10/10/9 9/9/7 4/4/8 5/5/10
s 2
f 11/11/11 12/12/12 17/13/13 16/14/14
f 18/15/15 17/13/13 12/12/12 13/16/16
f 19/17/17 18/15/15 13/16/16 14/18/18
f 20/19/19 19/17/17 14/18/18 15/20/20
s 3
f 21/21/21 22/22/22 27/23/23 26/24/24
f 28/25/25 27/23/23 22/22/22 23/26/26
f 29/27/27 28/25/25 23/26/26 24/28/28
f 30/29/29 29/27/27 24/28/28 25/30/30
s 4
f 31/31/31 32/32/32 37/33/33 36/34/34
f 38/35/35 37/33/33 32/32/32 33/36/36
f 39/37/37 38/35/35 33/36/36 34/38/38
f 40/39/39 39/37/37 34/38/38 35/40/40
s 5
f 41/41/41 42/42/42 47/43/43 46/44/44
f 48/45/45 47/43/43 42/42/42 43/46/46
f 49/47/47 48/45/45 43/46/46 44/48/48
f 50/49/49 49/47/47 44/48/48 45/50/50
s 6
f 51/51/51 52/52/52 57/53/53 56/54/54
f 58/55/55 57/53/53 52/52/52 53/56/56
f 59/57/57 58/55/55 53/56/56 54/58/58
f 60/59/59 59/57/57 54/58/58 55/60/60
s 7
f 61/61/61 62/62/62 67/63/63 66/64/64
f 68/65/65 67/63/63 62/62/62 63/66/66
f 69/67/67 68/65/65 63/66/66 64/68/68
f 70/69/69 69/67/67 64/68/68 65/70/70
s 8
f 71/71/71 72/72/72 77/73/73 76/74/74
f 78/75/75 77/73/73 72/72/72 73/76/76
f 79/77/77 78/75/75 73/76/76 74/78/78
f 80/79/79 79/77/77 74/78/78 75/80/80
s 9
f 81/81/81 82/82/82 87/83/83 86/84/84
f 88/85/85 87/83/83 82/82/82 83/86/86
f 89/87/87 88/85/85 83/86/86 84/88/88
f 90/89/89 89/87/87 84/88/88 85/90/90
s 10
f 91/91/91 92/92/92 97/93/93 96/94/94
f 98/95/95 97/93/93 92/92/92 93/96/96
f 99/97/97 98/95/95 93/96/96 94/98/98
f 100/99/99 99/97/97 94/98/98 95/100/100
s 11
f 101/101/101 102/102/102 107/103/103 106/104/104
f 108/105/105 107/103/103 102/102/102 103/106/106
f 109/107/107 108/105/105 103/106/106 104/108/108
f 110/109/109 109/107/107 104/108/108 105/110/110
s 12
f 111/111/111 112/112/112 117/113/113 116/114/114
f 118/115/115 117/113/113 112/112/112 113/116/116
f 119/117/117 118/115/115 113/116/116 114/118/118
f 120/119/119 119/117/117 114/118/118 115/120/120
