# This file uses centimeters as units for non-parametric coordinates.

mtllib Gunnera.mtl
g default
v 2.340642 0.645822 0.854503
v 2.818024 0.373078 0.797990
v 3.196678 0.205587 0.431870
v 3.331973 0.207325 -0.104011
v 3.172230 0.377628 -0.604964
v 2.778465 0.651446 -0.879644
v 2.301084 0.924190 -0.823131
v 1.922429 1.091681 -0.457011
v 1.787135 1.089943 0.078869
v 1.946878 0.919640 0.579823
v 2.482015 0.768691 0.597818
v 2.807864 0.582523 0.559244
v 3.066325 0.468197 0.309339
v 3.158674 0.469384 -0.056441
v 3.049637 0.585629 -0.398381
v 2.780863 0.772530 -0.585871
v 2.455013 0.958699 -0.547296
v 2.196552 1.073025 -0.297391
v 2.104203 1.071838 0.068389
v 2.213240 0.955593 0.410329
v 2.523273 0.749305 0.384504
v 2.524832 0.589717 -0.021528
v 2.733359 0.629276 0.359634
v 2.899997 0.555567 0.198512
v 2.959538 0.556332 -0.037318
v 2.889238 0.631278 -0.257778
v 2.715950 0.751780 -0.378659
v 2.505864 0.871809 -0.353788
v 2.339226 0.945519 -0.192667
v 2.279686 0.944754 0.043163
v 2.349985 0.869807 0.263623
v 1.659383 -0.926134 -0.252418
v 1.624821 -0.902099 -0.276528
v 1.621563 -0.907492 -0.228426
v 2.594368 0.539400 -0.027058
v 2.513015 0.611473 -0.086656
v 2.501212 0.592362 0.035247
v 2.260507 0.157808 -0.107846
v 2.224610 0.175501 -0.085074
v 2.227702 0.180620 -0.130730
v 2.409456 0.360749 -0.072347
v 2.356242 0.389755 -0.037366
v 2.362281 0.399651 -0.106375
v 2.122297 -0.054362 -0.143761
v 2.092342 -0.039598 -0.124759
v 2.094923 -0.035327 -0.162857
v -1.374733 -0.240798 1.875634
v -0.908821 -0.192185 2.154789
v -0.405163 0.016298 2.139665
v -0.056140 0.305017 1.836039
v 0.004934 0.563691 1.359885
v -0.245269 0.693516 0.893079
v -0.711181 0.644903 0.613924
v -1.214839 0.436421 0.629048
v -1.563862 0.147702 0.932674
v -1.624936 -0.110973 1.408827
v -1.242977 0.026495 1.778250
v -0.924956 0.059677 1.968795
v -0.581171 0.201983 1.958472
v -0.342935 0.399056 1.751223
v -0.301247 0.575622 1.426211
v -0.472031 0.664237 1.107580
v -0.790052 0.631055 0.917035
v -1.133837 0.488749 0.927358
v -1.372072 0.291676 1.134607
v -1.413760 0.115111 1.459618
v -1.098215 0.120200 1.649482
v -0.787056 0.168877 1.356072
v -0.893177 0.141594 1.772332
v -0.671528 0.233343 1.765677
v -0.517930 0.360402 1.632057
v -0.491052 0.474240 1.422511
v -0.601162 0.531373 1.217079
v -0.806201 0.509979 1.094229
v -1.027849 0.418230 1.100885
v -1.181447 0.291171 1.234504
v -1.208325 0.177334 1.444049
v -0.181115 -1.296404 0.646433
v -0.203076 -1.285008 0.605459
v -0.226172 -1.310576 0.638684
v -0.713842 0.166857 1.398930
v -0.773934 0.206544 1.300082
v -0.830956 0.135931 1.382054
v -0.613632 -0.248691 1.127119
v -0.656397 -0.262143 1.119765
v -0.634477 -0.237875 1.088229
v -0.678866 -0.038428 1.247322
v -0.744659 -0.056782 1.237261
v -0.712146 -0.017814 1.190451
v -0.536388 -0.460547 1.013886
v -0.572074 -0.471772 1.007749
v -0.553782 -0.451522 0.981434
v 1.390096 0.256766 -1.490904
v 1.665560 0.100176 -1.679088
v 1.759198 -0.046234 -2.004065
v 1.635245 -0.126541 -2.341704
v 1.341045 -0.110070 -2.563039
v 0.988974 -0.003113 -2.583528
v 0.713510 0.153477 -2.395344
v 0.619871 0.299887 -2.070367
v 0.743825 0.380194 -1.732728
v 1.038024 0.363723 -1.511393
v 1.354266 0.301272 -1.694930
v 1.542291 0.194387 -1.823380
v 1.606207 0.094451 -2.045201
v 1.521599 0.039635 -2.275666
v 1.320785 0.050878 -2.426745
v 1.080469 0.123884 -2.440730
v 0.892444 0.230769 -2.312280
v 0.828528 0.330705 -2.090458
v 0.913136 0.385521 -1.859993
v 1.113950 0.374278 -1.708915
v 1.301051 0.255653 -1.822372
v 1.176091 0.085407 -2.022429
v 1.422277 0.186741 -1.905188
v 1.463486 0.122309 -2.048204
v 1.408936 0.086968 -2.196792
v 1.279465 0.094216 -2.294197
v 1.124525 0.141286 -2.303214
v 1.003299 0.210198 -2.220397
v 0.962091 0.274630 -2.077382
v 1.016640 0.309972 -1.928794
v 1.146111 0.302723 -1.831389
v 0.845049 -0.978687 -1.653078
v 0.814146 -0.969299 -1.654876
v 0.830809 -0.964933 -1.627497
v 1.218737 0.056241 -2.047323
v 1.142712 0.087829 -2.054653
v 1.183820 0.095185 -1.983328
v 1.064702 -0.222256 -1.921190
v 1.051186 -0.209201 -1.896909
v 1.035371 -0.213346 -1.922897
v 1.128498 -0.077078 -1.981091
v 1.108509 -0.055736 -1.944731
v 1.085026 -0.060531 -1.984764
v 1.007864 -0.372803 -1.864751
v 0.996586 -0.361909 -1.844490
v 0.983388 -0.365368 -1.866175
v -2.629267 0.318615 -1.394055
v -3.148693 -0.081906 -0.896868
v -3.331973 -0.234722 -0.109168
v -3.109100 -0.081463 0.668170
v -2.565204 0.319332 1.138230
v -1.908036 0.814572 1.121464
v -1.388610 1.215093 0.624277
v -1.205331 1.367909 -0.163423
v -1.428203 1.214650 -0.940760
v -1.972099 0.813855 -1.410820
v -2.642708 0.567167 -0.991625
v -2.997257 0.293781 -0.652257
v -3.122359 0.189472 -0.114591
v -2.970231 0.294083 0.416003
v -2.598980 0.567657 0.736855
v -2.150412 0.905697 0.725411
v -1.795864 1.179083 0.386042
v -1.670761 1.283392 -0.151624
v -1.822889 1.178781 -0.682217
v -2.194140 0.905207 -1.003069
v -2.534216 0.599359 -0.687146
v -2.206870 0.484559 -0.137835
v -2.762805 0.423097 -0.468344
v -2.843462 0.355846 -0.121694
v -2.745380 0.423292 0.220397
v -2.506023 0.599674 0.427261
v -2.216816 0.817620 0.419882
v -1.988228 0.993881 0.201079
v -1.907570 1.061132 -0.145570
v -2.005652 0.993686 -0.487660
v -2.245009 0.817304 -0.694524
v -0.652679 -1.627052 -0.155695
v -0.594996 -1.583582 -0.157166
v -0.625419 -1.605335 -0.218975
v -2.282601 0.409973 -0.066374
v -2.147542 0.535752 -0.069826
v -2.219115 0.472817 -0.227908
v -1.726159 -0.110422 -0.130558
v -1.700286 -0.089809 -0.190620
v -1.671410 -0.069163 -0.131955
v -1.979961 0.169640 -0.108780
v -1.943018 0.203894 -0.199999
v -1.901510 0.238199 -0.110784
v -1.484112 -0.404259 -0.141515
v -1.462522 -0.387058 -0.191634
v -1.438426 -0.369830 -0.142680
v 1.717310 1.818709 -0.277276
v 1.059066 1.851715 -1.187432
v -0.006238 1.800052 -1.541291
v -1.071691 1.683453 -1.203694
v -1.730326 1.546455 -0.303590
v -1.730568 1.441387 0.815212
v -1.072324 1.408382 1.725367
v -0.007021 1.460045 2.079227
v 1.058431 1.576643 1.741629
v 1.717066 1.713641 0.841526
v 1.147131 2.046967 -0.076831
v 0.697829 2.069496 -0.698083
v -0.029323 2.034232 -0.939620
v -0.756577 1.954644 -0.709183
v -1.206147 1.861133 -0.094792
v -1.206313 1.789416 0.668877
v -0.757009 1.766887 1.290128
v -0.029858 1.802151 1.531665
v 0.697396 1.881739 1.301228
v 1.146966 1.975250 0.686838
v 0.732857 1.953810 0.051180
v 0.004461 1.490870 0.255900
v 0.443178 1.968336 -0.349361
v -0.025640 1.945600 -0.505087
v -0.494524 1.894287 -0.356517
v -0.784377 1.833997 0.039600
v -0.784483 1.787759 0.531963
v -0.494802 1.773234 0.932503
v -0.025985 1.795970 1.088230
v 0.442898 1.847282 0.939660
v 0.732751 1.907572 0.543543
v 0.259177 -2.060274 -0.117674
v 0.259155 -2.069496 -0.019471
v 0.344319 -2.058161 -0.067923
v -0.088704 1.479490 0.108350
v -0.090828 1.482027 0.360350
v 0.127808 1.497940 0.236011
v 0.060760 0.449878 0.193353
v 0.141571 0.451884 0.240574
v 0.060740 0.441125 0.286561
v -0.000907 0.963069 0.194119
v 0.121498 0.971243 0.266176
v -0.001751 0.960018 0.336358
v 0.108525 -0.067266 0.167673
v 0.175960 -0.065593 0.207077
v 0.108508 -0.074571 0.245452
v 1.072181 0.425757 2.583528
v 1.707237 0.139235 2.551186
v 2.286668 0.093523 2.165689
v 2.589151 0.306083 1.574285
v 2.499148 0.695723 1.002869
v 2.051037 1.113615 0.669702
v 1.415981 1.400138 0.702044
v 0.836551 1.445850 1.087540
v 0.534068 1.233290 1.678944
v 0.624071 0.843650 2.250360
v 1.296214 0.677401 2.366115
v 1.729688 0.481827 2.344039
v 2.125195 0.450625 2.080908
v 2.331663 0.595714 1.677228
v 2.270229 0.861674 1.287192
v 1.964359 1.146917 1.059780
v 1.530884 1.342491 1.081857
v 1.135378 1.373693 1.344988
v 0.928910 1.228605 1.748667
v 0.990344 0.962645 2.138703
v 1.403600 0.737363 2.119862
v 1.528437 0.700870 1.584915
v 1.683075 0.611270 2.105629
v 1.938071 0.591153 1.935980
v 2.071187 0.684696 1.675715
v 2.031579 0.856169 1.424246
v 1.834374 1.040075 1.277626
v 1.554899 1.166168 1.291860
v 1.299904 1.186285 1.461508
v 1.166788 1.092741 1.721773
v 1.206396 0.921269 1.973241
v 0.709371 -1.068374 0.519315
v 0.670038 -1.031694 0.490072
v 0.654460 -1.056702 0.543734
v 1.621557 0.645375 1.579522
v 1.527791 0.751433 1.512987
v 1.484621 0.681367 1.646007
v 1.278473 0.203881 1.252206
v 1.226355 0.214959 1.275382
v 1.241141 0.238696 1.224449
v 1.427650 0.440355 1.409508
v 1.349737 0.459648 1.446316
v 1.373499 0.498177 1.370498
v 1.143746 -0.043084 1.094054
v 1.100255 -0.033840 1.113394
v 1.112593 -0.014033 1.070892
vt 0.718617 0.722266
vt 0.840544 0.761882
vt 0.793972 0.825983
vt 0.840544 0.682650
vt 0.907729 0.783712
vt 0.835495 0.883134
vt 0.718617 0.850467
vt 0.793972 0.618549
vt 0.907729 0.660820
vt 0.995672 0.812287
vt 0.900536 0.957943
vt 0.718617 0.921110
vt 0.643263 0.825983
vt 0.718617 0.594065
vt 0.835495 0.561398
vt 0.995672 0.632245
vt 0.718617 1.002156
vt 0.601740 0.883134
vt 0.596691 0.761882
vt 0.643263 0.618549
vt 0.718617 0.523423
vt 0.889847 0.486589
vt 0.519974 0.971650
vt 0.529506 0.783712
vt 0.596691 0.682650
vt 0.601740 0.561398
vt 0.718617 0.430953
vt 0.441562 0.812287
vt 0.529506 0.660820
vt 0.547388 0.486589
vt 0.441562 0.632245
vt 0.954796 0.009162
vt 0.967574 0.009162
vt 0.967574 0.066885
vt 0.954796 0.066885
vt 0.980352 0.009162
vt 0.980352 0.066885
vt 0.993131 0.009162
vt 0.993131 0.066885
vt 0.980352 0.124607
vt 0.993131 0.124607
vt 0.993131 0.182330
vt 0.980352 0.182330
vt 0.967574 0.124607
vt 0.967574 0.182330
vt 0.954796 0.124607
vt 0.954796 0.182330
vt 0.993131 0.240053
vt 0.980352 0.240053
vt 0.967574 0.240053
vt 0.954796 0.240053
vt 0.718617 0.722266
vt 0.840544 0.761882
vt 0.793972 0.825983
vt 0.718617 0.850467
vt 0.643263 0.825983
vt 0.596691 0.761882
vt 0.596691 0.682650
vt 0.643263 0.618549
vt 0.718617 0.594065
vt 0.793972 0.618549
vt 0.840544 0.682650
vt 0.907729 0.783712
vt 0.995672 0.812287
vt 0.900536 0.957943
vt 0.835495 0.883134
vt 0.718617 1.002156
vt 0.718617 0.921110
vt 0.519974 0.971650
vt 0.601740 0.883134
vt 0.441562 0.812287
vt 0.529506 0.783712
vt 0.441562 0.632245
vt 0.529506 0.660820
vt 0.547388 0.486589
vt 0.601740 0.561398
vt 0.718617 0.430953
vt 0.718617 0.523423
vt 0.889847 0.486589
vt 0.835495 0.561398
vt 0.995672 0.632245
vt 0.907729 0.660820
vt 0.954796 0.009162
vt 0.967574 0.009162
vt 0.967574 0.066885
vt 0.954796 0.066885
vt 0.980352 0.009162
vt 0.980352 0.066885
vt 0.993131 0.009162
vt 0.993131 0.066885
vt 0.980352 0.124607
vt 0.993131 0.124607
vt 0.993131 0.182330
vt 0.980352 0.182330
vt 0.967574 0.124607
vt 0.967574 0.182330
vt 0.954796 0.124607
vt 0.954796 0.182330
vt 0.993131 0.240053
vt 0.980352 0.240053
vt 0.967574 0.240053
vt 0.954796 0.240053
vt 0.718617 0.722266
vt 0.840544 0.761882
vt 0.793972 0.825983
vt 0.718617 0.850467
vt 0.643263 0.825983
vt 0.596691 0.761882
vt 0.596691 0.682650
vt 0.643263 0.618549
vt 0.718617 0.594065
vt 0.793972 0.618549
vt 0.840544 0.682650
vt 0.907729 0.783712
vt 0.995672 0.812287
vt 0.900536 0.957943
vt 0.835495 0.883134
vt 0.718617 1.002156
vt 0.718617 0.921110
vt 0.519974 0.971650
vt 0.601740 0.883134
vt 0.441562 0.812287
vt 0.529506 0.783712
vt 0.441562 0.632245
vt 0.529506 0.660820
vt 0.547388 0.486589
vt 0.601740 0.561398
vt 0.718617 0.430953
vt 0.718617 0.523423
vt 0.889847 0.486589
vt 0.835495 0.561398
vt 0.995672 0.632245
vt 0.907729 0.660820
vt 0.954796 0.009162
vt 0.967574 0.009162
vt 0.967574 0.066885
vt 0.954796 0.066885
vt 0.980352 0.009162
vt 0.980352 0.066885
vt 0.993131 0.009162
vt 0.993131 0.066885
vt 0.980352 0.124607
vt 0.993131 0.124607
vt 0.993131 0.182330
vt 0.980352 0.182330
vt 0.967574 0.124607
vt 0.967574 0.182330
vt 0.954796 0.124607
vt 0.954796 0.182330
vt 0.993131 0.240053
vt 0.980352 0.240053
vt 0.967574 0.240053
vt 0.954796 0.240053
vt 0.718617 0.722266
vt 0.840544 0.761882
vt 0.793972 0.825983
vt 0.718617 0.850467
vt 0.643263 0.825983
vt 0.596691 0.761882
vt 0.596691 0.682650
vt 0.643263 0.618549
vt 0.718617 0.594065
vt 0.793972 0.618549
vt 0.840544 0.682650
vt 0.907729 0.783712
vt 0.995672 0.812287
vt 0.900536 0.957943
vt 0.835495 0.883134
vt 0.718617 1.002156
vt 0.718617 0.921110
vt 0.519974 0.971650
vt 0.601740 0.883134
vt 0.441562 0.812287
vt 0.529506 0.783712
vt 0.441562 0.632245
vt 0.529506 0.660820
vt 0.547388 0.486589
vt 0.601740 0.561398
vt 0.718617 0.430953
vt 0.718617 0.523423
vt 0.889847 0.486589
vt 0.835495 0.561398
vt 0.995672 0.632245
vt 0.907729 0.660820
vt 0.954796 0.009162
vt 0.967574 0.009162
vt 0.967574 0.066885
vt 0.954796 0.066885
vt 0.980352 0.009162
vt 0.980352 0.066885
vt 0.993131 0.009162
vt 0.993131 0.066885
vt 0.980352 0.124607
vt 0.993131 0.124607
vt 0.993131 0.182330
vt 0.980352 0.182330
vt 0.967574 0.124607
vt 0.967574 0.182330
vt 0.954796 0.124607
vt 0.954796 0.182330
vt 0.993131 0.240053
vt 0.980352 0.240053
vt 0.967574 0.240053
vt 0.954796 0.240053
vt 0.718617 0.722266
vt 0.840544 0.761882
vt 0.793972 0.825983
vt 0.718617 0.850467
vt 0.643263 0.825983
vt 0.596691 0.761882
vt 0.596691 0.682650
vt 0.643263 0.618549
vt 0.718617 0.594065
vt 0.793972 0.618549
vt 0.840544 0.682650
vt 0.907729 0.783712
vt 0.995672 0.812287
vt 0.900536 0.957943
vt 0.835495 0.883134
vt 0.718617 1.002156
vt 0.718617 0.921110
vt 0.519974 0.971650
vt 0.601740 0.883134
vt 0.441562 0.812287
vt 0.529506 0.783712
vt 0.441562 0.632245
vt 0.529506 0.660820
vt 0.547388 0.486589
vt 0.601740 0.561398
vt 0.718617 0.430953
vt 0.718617 0.523423
vt 0.889847 0.486589
vt 0.835495 0.561398
vt 0.995672 0.632245
vt 0.907729 0.660820
vt 0.954796 0.009162
vt 0.967574 0.009162
vt 0.967574 0.066885
vt 0.954796 0.066885
vt 0.980352 0.009162
vt 0.980352 0.066885
vt 0.993131 0.009162
vt 0.993131 0.066885
vt 0.980352 0.124607
vt 0.993131 0.124607
vt 0.993131 0.182330
vt 0.980352 0.182330
vt 0.967574 0.124607
vt 0.967574 0.182330
vt 0.954796 0.124607
vt 0.954796 0.182330
vt 0.993131 0.240053
vt 0.980352 0.240053
vt 0.967574 0.240053
vt 0.954796 0.240053
vt 0.718617 0.722266
vt 0.840544 0.761882
vt 0.793972 0.825983
vt 0.718617 0.850467
vt 0.643263 0.825983
vt 0.596691 0.761882
vt 0.596691 0.682650
vt 0.643263 0.618549
vt 0.718617 0.594065
vt 0.793972 0.618549
vt 0.840544 0.682650
vt 0.907729 0.783712
vt 0.995672 0.812287
vt 0.900536 0.957943
vt 0.835495 0.883134
vt 0.718617 1.002156
vt 0.718617 0.921110
vt 0.519974 0.971650
vt 0.601740 0.883134
vt 0.441562 0.812287
vt 0.529506 0.783712
vt 0.441562 0.632245
vt 0.529506 0.660820
vt 0.547388 0.486589
vt 0.601740 0.561398
vt 0.718617 0.430953
vt 0.718617 0.523423
vt 0.889847 0.486589
vt 0.835495 0.561398
vt 0.995672 0.632245
vt 0.907729 0.660820
vt 0.954796 0.009162
vt 0.967574 0.009162
vt 0.967574 0.066885
vt 0.954796 0.066885
vt 0.980352 0.009162
vt 0.980352 0.066885
vt 0.993131 0.009162
vt 0.993131 0.066885
vt 0.980352 0.124607
vt 0.993131 0.124607
vt 0.993131 0.182330
vt 0.980352 0.182330
vt 0.967574 0.124607
vt 0.967574 0.182330
vt 0.954796 0.124607
vt 0.954796 0.182330
vt 0.993131 0.240053
vt 0.980352 0.240053
vt 0.967574 0.240053
vt 0.954796 0.240053
vn 0.503421 0.854225 0.129870
vn 0.545418 0.833288 -0.090275
vn 0.426025 0.901502 -0.076141
vn 0.331323 0.943391 0.015425
vn 0.297486 0.942957 0.149449
vn 0.337438 0.900364 0.274738
vn 0.435919 0.831882 0.343435
vn 0.555312 0.763669 0.329301
vn 0.650013 0.721779 0.237734
vn 0.683851 0.722214 0.103711
vn 0.643898 0.764807 -0.021577
vn 0.395833 0.806330 0.439486
vn 0.339726 0.761703 0.551720
vn 0.579608 0.624650 0.523323
vn 0.570220 0.706697 0.418842
vn 0.769881 0.540486 0.339349
vn 0.708542 0.645513 0.285099
vn 0.837867 0.541359 0.070070
vn 0.757966 0.646147 0.089342
vn 0.757596 0.626936 -0.181658
vn 0.699611 0.708359 -0.093657
vn 0.559730 0.764529 -0.319684
vn 0.555769 0.808385 -0.193997
vn 0.319847 0.901582 -0.291286
vn 0.381382 0.908018 -0.173353
vn 0.129575 0.985746 -0.107312
vn 0.243059 0.969202 -0.039609
vn 0.061589 0.984872 0.161967
vn 0.193636 0.968567 0.156148
vn 0.141860 0.899296 0.413694
vn 0.251991 0.906356 0.339146
vn 0.882091 -0.470712 0.018596
vn -0.378096 0.319035 -0.869057
vn -0.393973 0.334528 -0.856082
vn 0.874983 -0.484128 -0.005044
vn -0.468915 0.150397 0.870345
vn -0.504497 0.168802 0.846752
vn -0.511793 0.139395 0.847725
vn 0.820326 -0.571765 -0.012298
vn 0.739776 -0.671374 -0.044595
vn -0.552281 0.120871 0.824849
vn -0.384774 0.344995 -0.856112
vn -0.397786 0.353551 -0.846621
vn 0.700489 -0.712143 -0.046555
vn -0.523756 0.070105 0.848979
vn -0.357213 0.334788 -0.871961
vn -0.337178 0.844716 0.415651
vn -0.185484 0.941736 0.280588
vn -0.303587 0.929413 0.209826
vn -0.431258 0.876565 0.213660
vn -0.519731 0.803378 0.290625
vn -0.535212 0.737808 0.411324
vn -0.471789 0.704898 0.529654
vn -0.353686 0.717221 0.600417
vn -0.226015 0.770069 0.596583
vn -0.137542 0.843256 0.519618
vn -0.122061 0.908826 0.398918
vn -0.527770 0.625406 0.574740
vn -0.588836 0.516696 0.621528
vn -0.351545 0.541455 0.763703
vn -0.355267 0.643405 0.678097
vn -0.095030 0.647636 0.756001
vn -0.168788 0.720595 0.672498
vn 0.082729 0.794682 0.601363
vn -0.039563 0.827493 0.560081
vn 0.113834 0.926426 0.358856
vn -0.016950 0.923267 0.383786
vn -0.013596 0.992546 0.121109
vn -0.109588 0.971334 0.210951
vn -0.250887 0.967787 -0.021066
vn -0.282091 0.953335 0.107595
vn -0.507402 0.861606 -0.013364
vn -0.468570 0.876145 0.113194
vn -0.685161 0.714560 0.141275
vn -0.597795 0.769247 0.225611
vn -0.716266 0.582816 0.383782
vn -0.620407 0.673473 0.401906
vn 0.787009 0.064795 0.613530
vn 0.035724 0.423377 -0.905249
vn 0.010095 0.421986 -0.906546
vn 0.804006 0.060988 0.591485
vn -0.812658 -0.480310 0.329985
vn -0.832126 -0.473777 0.288274
vn -0.817745 -0.500226 0.284721
vn 0.833753 -0.029696 0.551339
vn 0.869795 -0.131698 0.475513
vn -0.816512 -0.524611 0.241022
vn 0.008504 0.434503 -0.900630
vn -0.009234 0.430679 -0.902458
vn 0.875148 -0.181270 0.448617
vn -0.780397 -0.559549 0.279078
vn 0.038752 0.446864 -0.893762
vn 0.292323 0.900646 -0.321534
vn 0.209690 0.829092 -0.518302
vn 0.106367 0.887826 -0.447717
vn 0.071245 0.942742 -0.325823
vn 0.117738 0.972864 -0.199180
vn 0.228088 0.966686 -0.116160
vn 0.360145 0.926568 -0.108475
vn 0.463468 0.867834 -0.179060
vn 0.498590 0.812917 -0.300954
vn 0.452097 0.782795 -0.427598
vn 0.341747 0.788973 -0.510617
vn 0.386162 0.922419 -0.004593
vn 0.412290 0.902510 0.124469
vn 0.619885 0.784501 -0.017349
vn 0.537077 0.836631 -0.107690
vn 0.690453 0.674164 -0.262257
vn 0.588378 0.756419 -0.285731
vn 0.597039 0.613643 -0.516707
vn 0.520469 0.712422 -0.470708
vn 0.375326 0.626056 -0.683509
vn 0.359290 0.721446 -0.591968
vn 0.109999 0.706661 -0.698949
vn 0.166406 0.780044 -0.603192
vn -0.097596 0.824670 -0.557131
vn 0.015492 0.865832 -0.500095
vn -0.168163 0.935007 -0.312223
vn -0.035809 0.946044 -0.322055
vn -0.074750 0.995527 -0.057773
vn 0.032100 0.990040 -0.137077
vn 0.146964 0.983115 0.109029
vn 0.193278 0.981017 -0.015818
vn 0.823791 -0.371092 -0.428554
vn -0.851998 0.056660 -0.520470
vn -0.861029 0.073439 -0.503225
vn 0.807967 -0.390572 -0.441183
vn 0.067716 0.321277 0.944561
vn 0.022051 0.329969 0.943734
vn 0.023076 0.301215 0.953277
vn 0.778887 -0.481719 -0.401600
vn 0.717746 -0.592967 -0.365009
vn -0.018148 0.274048 0.961545
vn -0.855894 0.084339 -0.510228
vn -0.863028 0.093811 -0.496369
vn 0.693814 -0.636242 -0.337368
vn 0.029135 0.233665 0.971881
vn -0.840167 0.072971 -0.537396
vn -0.601525 0.798713 0.014992
vn -0.525722 0.820127 0.225850
vn -0.438486 0.887393 0.142348
vn -0.407705 0.913059 0.010056
vn -0.445135 0.887319 -0.120497
vn -0.536482 0.820006 -0.199442
vn -0.646852 0.736832 -0.196626
vn -0.734089 0.669565 -0.113125
vn -0.764869 0.643900 0.019168
vn -0.727439 0.669639 0.149720
vn -0.636092 0.736952 0.228665
vn -0.656984 0.694060 -0.294368
vn -0.659054 0.629847 -0.411024
vn -0.834328 0.494696 -0.243254
vn -0.784403 0.595809 -0.172405
vn -0.896174 0.443129 0.022546
vn -0.829363 0.558322 0.020824
vn -0.820968 0.494845 0.284850
vn -0.774691 0.595918 0.211510
vn -0.637437 0.630089 0.443467
vn -0.641269 0.694236 0.326819
vn -0.415682 0.797202 0.437810
vn -0.480060 0.815722 0.322707
vn -0.240408 0.932353 0.270039
vn -0.352641 0.913973 0.200743
vn -0.178562 0.983920 0.004239
vn -0.307681 0.951460 0.007514
vn -0.253768 0.932204 -0.258065
vn -0.362354 0.913864 -0.183172
vn -0.437300 0.796960 -0.416681
vn -0.495776 0.815546 -0.298481
vn -0.709676 -0.488429 0.507738
vn 0.717499 0.492710 0.492374
vn 0.722804 0.505782 0.470892
vn -0.690186 -0.496771 0.526177
vn -0.047688 -0.010352 -0.998809
vn -0.007645 0.013246 -0.999883
vn 0.001737 -0.015581 -0.999877
vn -0.628902 -0.579820 0.517969
vn -0.531468 -0.669023 0.519567
vn 0.050154 -0.028195 -0.998343
vn 0.713634 0.515805 0.473995
vn 0.719057 0.522682 0.457996
vn -0.491751 -0.707568 0.507473
vn 0.019865 -0.083437 -0.996315
vn 0.699071 0.508169 0.503055
vn -0.079087 0.992502 0.093190
vn -0.289146 0.944152 0.158023
vn -0.208175 0.940092 0.269981
vn -0.077132 0.946447 0.313510
vn 0.053930 0.960790 0.271982
vn 0.134949 0.977642 0.161260
vn 0.134979 0.990567 0.023635
vn 0.054008 0.994627 -0.088324
vn -0.077036 0.988272 -0.131852
vn -0.208097 0.973929 -0.090324
vn -0.289116 0.957077 0.020398
vn 0.234993 0.971945 -0.010067
vn 0.355421 0.933272 -0.051754
vn 0.192735 0.941430 -0.276700
vn 0.116726 0.977875 -0.173596
vn -0.070555 0.928661 -0.364157
vn -0.074678 0.968593 -0.237174
vn -0.333883 0.899844 -0.280720
vn -0.266109 0.947643 -0.176518
vn -0.496666 0.865984 -0.058258
vn -0.384447 0.923029 -0.014795
vn -0.496726 0.840017 0.218256
vn -0.384490 0.904151 0.186221
vn -0.334040 0.831859 0.443201
vn -0.266223 0.898221 0.349750
vn -0.070749 0.844628 0.530658
vn -0.074818 0.907503 0.413328
vn 0.192579 0.873446 0.447220
vn 0.116613 0.928453 0.352672
vn 0.355361 0.907305 0.224759
vn 0.234950 0.953067 0.190949
vn -0.491281 0.086946 -0.866651
vn -0.506661 -0.150983 0.848822
vn -0.485941 -0.143600 0.862114
vn -0.508714 0.066532 -0.858361
vn 0.996141 0.086340 -0.015742
vn 0.996602 0.076810 0.029761
vn 0.998637 0.049260 0.017276
vn -0.493884 -0.035405 -0.868807
vn -0.487645 -0.166834 -0.856953
vn 0.998983 0.007258 0.044505
vn -0.489877 -0.130233 0.862009
vn -0.474233 -0.127832 0.871070
vn -0.472246 -0.221228 -0.853254
vn 0.999799 -0.013145 -0.015128
vn -0.518710 -0.127845 0.845338
vn 0.381138 0.790681 0.479122
vn 0.468484 0.838815 0.277330
vn 0.342620 0.895602 0.283740
vn 0.227781 0.904662 0.360143
vn 0.167831 0.862534 0.477355
vn 0.185669 0.785310 0.590606
vn 0.274482 0.702486 0.656637
vn 0.400345 0.645699 0.650228
vn 0.515184 0.636640 0.573825
vn 0.575134 0.678768 0.456612
vn 0.557297 0.755992 0.343362
vn 0.218545 0.647738 0.729845
vn 0.145593 0.569395 0.809069
vn 0.398477 0.455299 0.796191
vn 0.402383 0.564794 0.720483
vn 0.629210 0.437096 0.642683
vn 0.570119 0.551561 0.608888
vn 0.749661 0.521739 0.407182
vn 0.657683 0.613094 0.437685
vn 0.713822 0.676896 0.179639
vn 0.631629 0.725888 0.272270
vn 0.535380 0.843304 0.046970
vn 0.501908 0.846862 0.175823
vn 0.282496 0.957400 0.059849
vn 0.318069 0.929806 0.185186
vn 0.051763 0.975602 0.213357
vn 0.150333 0.943038 0.296781
vn -0.068688 0.890959 0.448858
vn 0.062770 0.881506 0.467983
vn -0.032848 0.735802 0.676400
vn 0.088824 0.768711 0.633399
vn 0.901857 -0.425148 0.076827
vn -0.224441 0.554834 -0.801115
vn -0.244041 0.565141 -0.788073
vn 0.901003 -0.430996 0.049360
vn -0.647109 -0.135782 0.750209
vn -0.678827 -0.112265 0.725665
vn -0.683265 -0.140806 0.716465
vn 0.857744 -0.514050 0.005193
vn 0.795466 -0.601766 -0.071492
vn -0.716308 -0.152841 0.680839
vn -0.236091 0.575419 -0.783042
vn -0.251522 0.580267 -0.774614
vn 0.761549 -0.641285 -0.093792
vn -0.688419 -0.207573 0.694977
vn -0.205041 0.571399 -0.794646
s 1
g pCylinder29
usemtl pasted__lambert3SG
f 22/1/1 21/2/2 23/3/3
f 22/1/1 23/3/3 24/7/4
f 22/1/1 24/7/4 25/13/5
f 22/1/1 25/13/5 26/19/6
f 22/1/1 26/19/6 27/25/7
f 22/1/1 27/25/7 28/20/8
f 22/1/1 28/20/8 29/14/9
f 22/1/1 29/14/9 30/8/10
f 22/1/1 30/8/10 31/4/11
f 22/1/1 31/4/11 21/2/2
f 11/5/12 1/10/13 2/11/14 12/6/15
f 12/6/15 2/11/14 3/17/16 13/12/17
f 13/12/17 3/17/16 4/23/18 14/18/19
f 14/18/19 4/23/18 5/28/20 15/24/21
f 15/24/21 5/28/20 6/31/22 16/29/23
f 16/29/23 6/31/22 7/30/24 17/26/25
f 17/26/25 7/30/24 8/27/26 18/21/27
f 18/21/27 8/27/26 9/22/28 19/15/29
f 19/15/29 9/22/28 10/16/30 20/9/31
f 20/9/31 10/16/30 1/10/13 11/5/12
f 21/2/2 11/5/12 12/6/15 23/3/3
f 23/3/3 12/6/15 13/12/17 24/7/4
f 24/7/4 13/12/17 14/18/19 25/13/5
f 25/13/5 14/18/19 15/24/21 26/19/6
f 26/19/6 15/24/21 16/29/23 27/25/7
f 27/25/7 16/29/23 17/26/25 28/20/8
f 28/20/8 17/26/25 18/21/27 29/14/9
f 29/14/9 18/21/27 19/15/29 30/8/10
f 30/8/10 19/15/29 20/9/31 31/4/11
f 31/4/11 20/9/31 11/5/12 21/2/2
s 3
f 32/32/32 33/33/33 46/34/34 44/35/35
f 33/33/33 34/36/36 45/37/37 46/34/34
f 34/36/36 32/38/32 44/39/35 45/37/37
f 39/40/38 38/41/39 41/42/40 42/43/41
f 40/44/42 39/40/38 42/43/41 43/45/43
f 38/46/39 40/44/42 43/45/43 41/47/40
f 42/43/41 41/42/40 35/48/44 37/49/45
f 43/45/43 42/43/41 37/49/45 36/50/46
f 41/47/40 43/45/43 36/50/46 35/51/44
f 45/37/37 44/39/35 38/41/39 39/40/38
f 46/34/34 45/37/37 39/40/38 40/44/42
f 44/35/35 46/34/34 40/44/42 38/46/39
s 4
f 68/52/47 67/53/48 69/54/49
f 68/52/47 69/54/49 70/55/50
f 68/52/47 70/55/50 71/56/51
f 68/52/47 71/56/51 72/57/52
f 68/52/47 72/57/52 73/58/53
f 68/52/47 73/58/53 74/59/54
f 68/52/47 74/59/54 75/60/55
f 68/52/47 75/60/55 76/61/56
f 68/52/47 76/61/56 77/62/57
f 68/52/47 77/62/57 67/53/48
f 57/63/58 47/64/59 48/65/60 58/66/61
f 58/66/61 48/65/60 49/67/62 59/68/63
f 59/68/63 49/67/62 50/69/64 60/70/65
f 60/70/65 50/69/64 51/71/66 61/72/67
f 61/72/67 51/71/66 52/73/68 62/74/69
f 62/74/69 52/73/68 53/75/70 63/76/71
f 63/76/71 53/75/70 54/77/72 64/78/73
f 64/78/73 54/77/72 55/79/74 65/80/75
f 65/80/75 55/79/74 56/81/76 66/82/77
f 66/82/77 56/81/76 47/64/59 57/63/58
f 67/53/48 57/63/58 58/66/61 69/54/49
f 69/54/49 58/66/61 59/68/63 70/55/50
f 70/55/50 59/68/63 60/70/65 71/56/51
f 71/56/51 60/70/65 61/72/67 72/57/52
f 72/57/52 61/72/67 62/74/69 73/58/53
f 73/58/53 62/74/69 63/76/71 74/59/54
f 74/59/54 63/76/71 64/78/73 75/60/55
f 75/60/55 64/78/73 65/80/75 76/61/56
f 76/61/56 65/80/75 66/82/77 77/62/57
f 77/62/57 66/82/77 57/63/58 67/53/48
s 6
f 78/83/78 79/84/79 92/85/80 90/86/81
f 79/84/79 80/87/82 91/88/83 92/85/80
f 80/87/82 78/89/78 90/90/81 91/88/83
f 85/91/84 84/92/85 87/93/86 88/94/87
f 86/95/88 85/91/84 88/94/87 89/96/89
f 84/97/85 86/95/88 89/96/89 87/98/86
f 88/94/87 87/93/86 81/99/90 83/100/91
f 89/96/89 88/94/87 83/100/91 82/101/92
f 87/98/86 89/96/89 82/101/92 81/102/90
f 91/88/83 90/90/81 84/92/85 85/91/84
f 92/85/80 91/88/83 85/91/84 86/95/88
f 90/86/81 92/85/80 86/95/88 84/97/85
s 7
f 114/103/93 113/104/94 115/105/95
f 114/103/93 115/105/95 116/106/96
f 114/103/93 116/106/96 117/107/97
f 114/103/93 117/107/97 118/108/98
f 114/103/93 118/108/98 119/109/99
f 114/103/93 119/109/99 120/110/100
f 114/103/93 120/110/100 121/111/101
f 114/103/93 121/111/101 122/112/102
f 114/103/93 122/112/102 123/113/103
f 114/103/93 123/113/103 113/104/94
f 103/114/104 93/115/105 94/116/106 104/117/107
f 104/117/107 94/116/106 95/118/108 105/119/109
f 105/119/109 95/118/108 96/120/110 106/121/111
f 106/121/111 96/120/110 97/122/112 107/123/113
f 107/123/113 97/122/112 98/124/114 108/125/115
f 108/125/115 98/124/114 99/126/116 109/127/117
f 109/127/117 99/126/116 100/128/118 110/129/119
f 110/129/119 100/128/118 101/130/120 111/131/121
f 111/131/121 101/130/120 102/132/122 112/133/123
f 112/133/123 102/132/122 93/115/105 103/114/104
f 113/104/94 103/114/104 104/117/107 115/105/95
f 115/105/95 104/117/107 105/119/109 116/106/96
f 116/106/96 105/119/109 106/121/111 117/107/97
f 117/107/97 106/121/111 107/123/113 118/108/98
f 118/108/98 107/123/113 108/125/115 119/109/99
f 119/109/99 108/125/115 109/127/117 120/110/100
f 120/110/100 109/127/117 110/129/119 121/111/101
f 121/111/101 110/129/119 111/131/121 122/112/102
f 122/112/102 111/131/121 112/133/123 123/113/103
f 123/113/103 112/133/123 103/114/104 113/104/94
s 9
f 124/134/124 125/135/125 138/136/126 136/137/127
f 125/135/125 126/138/128 137/139/129 138/136/126
f 126/138/128 124/140/124 136/141/127 137/139/129
f 131/142/130 130/143/131 133/144/132 134/145/133
f 132/146/134 131/142/130 134/145/133 135/147/135
f 130/148/131 132/146/134 135/147/135 133/149/132
f 134/145/133 133/144/132 127/150/136 129/151/137
f 135/147/135 134/145/133 129/151/137 128/152/138
f 133/149/132 135/147/135 128/152/138 127/153/136
f 137/139/129 136/141/127 130/143/131 131/142/130
f 138/136/126 137/139/129 131/142/130 132/146/134
f 136/137/127 138/136/126 132/146/134 130/148/131
s 10
f 160/154/139 159/155/140 161/156/141
f 160/154/139 161/156/141 162/157/142
f 160/154/139 162/157/142 163/158/143
f 160/154/139 163/158/143 164/159/144
f 160/154/139 164/159/144 165/160/145
f 160/154/139 165/160/145 166/161/146
f 160/154/139 166/161/146 167/162/147
f 160/154/139 167/162/147 168/163/148
f 160/154/139 168/163/148 169/164/149
f 160/154/139 169/164/149 159/155/140
f 149/165/150 139/166/151 140/167/152 150/168/153
f 150/168/153 140/167/152 141/169/154 151/170/155
f 151/170/155 141/169/154 142/171/156 152/172/157
f 152/172/157 142/171/156 143/173/158 153/174/159
f 153/174/159 143/173/158 144/175/160 154/176/161
f 154/176/161 144/175/160 145/177/162 155/178/163
f 155/178/163 145/177/162 146/179/164 156/180/165
f 156/180/165 146/179/164 147/181/166 157/182/167
f 157/182/167 147/181/166 148/183/168 158/184/169
f 158/184/169 148/183/168 139/166/151 149/165/150
f 159/155/140 149/165/150 150/168/153 161/156/141
f 161/156/141 150/168/153 151/170/155 162/157/142
f 162/157/142 151/170/155 152/172/157 163/158/143
f 163/158/143 152/172/157 153/174/159 164/159/144
f 164/159/144 153/174/159 154/176/161 165/160/145
f 165/160/145 154/176/161 155/178/163 166/161/146
f 166/161/146 155/178/163 156/180/165 167/162/147
f 167/162/147 156/180/165 157/182/167 168/163/148
f 168/163/148 157/182/167 158/184/169 169/164/149
f 169/164/149 158/184/169 149/165/150 159/155/140
s 12
f 170/185/170 171/186/171 184/187/172 182/188/173
f 171/186/171 172/189/174 183/190/175 184/187/172
f 172/189/174 170/191/170 182/192/173 183/190/175
f 177/193/176 176/194/177 179/195/178 180/196/179
f 178/197/180 177/193/176 180/196/179 181/198/181
f 176/199/177 178/197/180 181/198/181 179/200/178
f 180/196/179 179/195/178 173/201/182 175/202/183
f 181/198/181 180/196/179 175/202/183 174/203/184
f 179/200/178 181/198/181 174/203/184 173/204/182
f 183/190/175 182/192/173 176/194/177 177/193/176
f 184/187/172 183/190/175 177/193/176 178/197/180
f 182/188/173 184/187/172 178/197/180 176/199/177
s 13
f 206/205/185 205/206/186 207/207/187
f 206/205/185 207/207/187 208/208/188
f 206/205/185 208/208/188 209/209/189
f 206/205/185 209/209/189 210/210/190
f 206/205/185 210/210/190 211/211/191
f 206/205/185 211/211/191 212/212/192
f 206/205/185 212/212/192 213/213/193
f 206/205/185 213/213/193 214/214/194
f 206/205/185 214/214/194 215/215/195
f 206/205/185 215/215/195 205/206/186
f 195/216/196 185/217/197 186/218/198 196/219/199
f 196/219/199 186/218/198 187/220/200 197/221/201
f 197/221/201 187/220/200 188/222/202 198/223/203
f 198/223/203 188/222/202 189/224/204 199/225/205
f 199/225/205 189/224/204 190/226/206 200/227/207
f 200/227/207 190/226/206 191/228/208 201/229/209
f 201/229/209 191/228/208 192/230/210 202/231/211
f 202/231/211 192/230/210 193/232/212 203/233/213
f 203/233/213 193/232/212 194/234/214 204/235/215
f 204/235/215 194/234/214 185/217/197 195/216/196
f 205/206/186 195/216/196 196/219/199 207/207/187
f 207/207/187 196/219/199 197/221/201 208/208/188
f 208/208/188 197/221/201 198/223/203 209/209/189
f 209/209/189 198/223/203 199/225/205 210/210/190
f 210/210/190 199/225/205 200/227/207 211/211/191
f 211/211/191 200/227/207 201/229/209 212/212/192
f 212/212/192 201/229/209 202/231/211 213/213/193
f 213/213/193 202/231/211 203/233/213 214/214/194
f 214/214/194 203/233/213 204/235/215 215/215/195
f 215/215/195 204/235/215 195/216/196 205/206/186
s 15
f 216/236/216 217/237/217 230/238/218 228/239/219
f 217/237/217 218/240/220 229/241/221 230/238/218
f 218/240/220 216/242/216 228/243/219 229/241/221
f 223/244/222 222/245/223 225/246/224 226/247/225
f 224/248/226 223/244/222 226/247/225 227/249/227
f 222/250/223 224/248/226 227/249/227 225/251/224
f 226/247/225 225/246/224 219/252/228 221/253/229
f 227/249/227 226/247/225 221/253/229 220/254/230
f 225/251/224 227/249/227 220/254/230 219/255/228
f 229/241/221 228/243/219 222/245/223 223/244/222
f 230/238/218 229/241/221 223/244/222 224/248/226
f 228/239/219 230/238/218 224/248/226 222/250/223
s 16
f 252/256/231 251/257/232 253/258/233
f 252/256/231 253/258/233 254/259/234
f 252/256/231 254/259/234 255/260/235
f 252/256/231 255/260/235 256/261/236
f 252/256/231 256/261/236 257/262/237
f 252/256/231 257/262/237 258/263/238
f 252/256/231 258/263/238 259/264/239
f 252/256/231 259/264/239 260/265/240
f 252/256/231 260/265/240 261/266/241
f 252/256/231 261/266/241 251/257/232
f 241/267/242 231/268/243 232/269/244 242/270/245
f 242/270/245 232/269/244 233/271/246 243/272/247
f 243/272/247 233/271/246 234/273/248 244/274/249
f 244/274/249 234/273/248 235/275/250 245/276/251
f 245/276/251 235/275/250 236/277/252 246/278/253
f 246/278/253 236/277/252 237/279/254 247/280/255
f 247/280/255 237/279/254 238/281/256 248/282/257
f 248/282/257 238/281/256 239/283/258 249/284/259
f 249/284/259 239/283/258 240/285/260 250/286/261
f 250/286/261 240/285/260 231/268/243 241/267/242
f 251/257/232 241/267/242 242/270/245 253/258/233
f 253/258/233 242/270/245 243/272/247 254/259/234
f 254/259/234 243/272/247 244/274/249 255/260/235
f 255/260/235 244/274/249 245/276/251 256/261/236
f 256/261/236 245/276/251 246/278/253 257/262/237
f 257/262/237 246/278/253 247/280/255 258/263/238
f 258/263/238 247/280/255 248/282/257 259/264/239
f 259/264/239 248/282/257 249/284/259 260/265/240
f 260/265/240 249/284/259 250/286/261 261/266/241
f 261/266/241 250/286/261 241/267/242 251/257/232
s 18
f 262/287/262 263/288/263 276/289/264 274/290/265
f 263/288/263 264/291/266 275/292/267 276/289/264
f 264/291/266 262/293/262 274/294/265 275/292/267
f 269/295/268 268/296/269 271/297/270 272/298/271
f 270/299/272 269/295/268 272/298/271 273/300/273
f 268/301/269 270/299/272 273/300/273 271/302/270
f 272/298/271 271/297/270 265/303/274 267/304/275
f 273/300/273 272/298/271 267/304/275 266/305/276
f 271/302/270 273/300/273 266/305/276 265/306/274
f 275/292/267 274/294/265 268/296/269 269/295/268
f 276/289/264 275/292/267 269/295/268 270/299/272
f 274/290/265 276/289/264 270/299/272 268/301/269
