# This file uses centimeters as units for non-parametric coordinates.

mtllib Lavender.mtl
g default
v -0.093425 -0.116544 0.020942
v -0.124688 -0.059104 -0.057494
v -0.182161 -0.013630 -0.100710
v -0.272090 0.012991 -0.110077
v -0.387333 0.003970 -0.086656
v -0.097973 -0.116577 0.033437
v -0.172444 -0.059455 0.073690
v -0.244326 -0.014087 0.070058
v -0.319278 0.012644 0.019547
v -0.392481 0.003934 -0.072524
v 0.023760 -0.087619 0.018914
v 0.097553 0.009827 0.053328
v 0.182787 0.087112 0.055833
v 0.279896 0.131426 -0.007725
v 0.386247 0.115885 -0.132547
v 0.008170 -0.090975 -0.031432
v 0.046074 -0.001255 -0.112911
v 0.112142 0.071904 -0.172298
v 0.226437 0.119918 -0.180359
v 0.385092 0.115636 -0.136280
v -0.028968 -0.164544 -0.037449
v 0.065449 -0.069573 -0.143375
v 0.071851 0.005507 -0.256452
v 0.028518 0.049603 -0.400643
v -0.088104 0.034617 -0.550182
v -0.044044 -0.164728 -0.033419
v -0.158176 -0.070328 -0.112270
v -0.188502 0.004752 -0.225346
v -0.175415 0.048847 -0.369537
v -0.093048 0.034524 -0.549756
v -0.015724 -0.128073 0.036644
v -0.093053 0.001458 0.127205
v -0.116902 0.103476 0.237711
v -0.047992 0.161414 0.376902
v 0.073268 0.142058 0.544946
v -0.004253 -0.128810 0.035111
v 0.109721 -0.011569 0.100100
v 0.174277 0.084770 0.198789
v 0.152029 0.148564 0.350165
v 0.077513 0.141785 0.544379
v -0.214317 1.048886 -0.008889
v 0.239672 1.052081 -0.009197
v -0.179772 1.659198 -0.067625
v 0.273810 1.676970 -0.069335
v -0.180576 2.286077 -0.127954
v 0.271843 2.320574 -0.131274
v -0.225841 2.837998 -0.181070
v 0.225841 2.879736 -0.185087
v -0.214317 1.048886 -0.008889
v 0.239672 1.052081 -0.009197
v -0.179772 1.659198 -0.067625
v 0.273810 1.676970 -0.069335
v -0.180576 2.286077 -0.127954
v 0.271843 2.320574 -0.131274
v -0.225841 2.837998 -0.181070
v 0.225841 2.879736 -0.185087
v 0.012677 1.072229 0.216914
v 0.012677 1.028738 -0.235000
v 0.047019 1.689830 0.157477
v 0.047019 1.646339 -0.294437
v 0.045633 2.325071 0.096343
v 0.045633 2.281580 -0.355571
v 0.000000 2.880613 0.042879
v 0.000000 2.837121 -0.409036
v 0.012677 1.072229 0.216914
v 0.012677 1.028738 -0.235000
v 0.047019 1.689830 0.157477
v 0.047019 1.646339 -0.294437
v 0.045633 2.325071 0.096343
v 0.045633 2.281580 -0.355571
v 0.000000 2.880613 0.042879
v 0.000000 2.837121 -0.409036
v -0.147832 1.064731 0.150841
v 0.173187 1.036237 -0.168928
v -0.113347 1.677178 0.091901
v 0.207384 1.658991 -0.228860
v -0.114321 2.306506 0.031335
v 0.205588 2.300145 -0.290564
v -0.159694 2.859487 -0.021883
v 0.159694 2.858248 -0.344274
v -0.147832 1.064731 0.150841
v 0.173187 1.036237 -0.168928
v -0.113347 1.677178 0.091901
v 0.207384 1.658991 -0.228860
v -0.114321 2.306506 0.031335
v 0.205588 2.300145 -0.290564
v -0.159694 2.859487 -0.021883
v 0.159694 2.858248 -0.344274
v 0.173187 1.066990 0.150624
v -0.147832 1.033978 -0.168710
v 0.207384 1.689744 0.090691
v -0.113347 1.646425 -0.227651
v 0.205588 2.330899 0.028988
v -0.114321 2.275753 -0.288216
v 0.159694 2.889001 -0.024723
v -0.159694 2.828734 -0.341434
v 0.173187 1.066990 0.150624
v -0.147832 1.033978 -0.168710
v 0.207384 1.689744 0.090691
v -0.113347 1.646425 -0.227651
v 0.205588 2.330899 0.028988
v -0.114321 2.275753 -0.288216
v 0.159694 2.889001 -0.024723
v -0.159694 2.828734 -0.341434
v 0.028141 1.199362 -0.014926
v 0.023761 0.761853 0.014740
v -0.007446 0.324345 -0.003214
v -0.019451 -0.113164 -0.032206
v -0.014931 1.199362 -0.026467
v -0.019372 0.761853 0.003166
v -0.050518 0.324345 -0.014755
v -0.062462 -0.113164 -0.043714
v 0.006605 1.199362 0.001599
v 0.002225 0.761853 0.031265
v -0.028982 0.324345 0.013311
v -0.040987 -0.113164 -0.015681
v 0.006605 1.199362 -0.042992
v 0.002164 0.761853 -0.013359
v -0.028982 0.324345 -0.031280
v -0.040926 -0.113164 -0.060239
v 0.028141 1.199362 -0.014926
v 0.023761 0.761853 0.014740
v -0.007446 0.324345 -0.003214
v -0.019451 -0.113164 -0.032206
v -0.014931 1.199362 -0.026467
v -0.019372 0.761853 0.003166
v -0.050518 0.324345 -0.014755
v -0.062462 -0.113164 -0.043714
v 0.006605 1.199362 0.001599
v 0.002225 0.761853 0.031265
v -0.028982 0.324345 0.013311
v -0.040987 -0.113164 -0.015681
v 0.006605 1.199362 -0.042992
v 0.002164 0.761853 -0.013359
v -0.028982 0.324345 -0.031280
v -0.040926 -0.113164 -0.060239
v -0.006883 -0.152288 -0.380857
v -0.030605 -0.117480 -0.452194
v -0.076852 -0.089455 -0.495083
v -0.150271 -0.074233 -0.510062
v -0.244233 -0.084986 -0.495572
v -0.011236 -0.151061 -0.371064
v -0.076309 -0.104603 -0.349376
v -0.136347 -0.072692 -0.361240
v -0.195431 -0.061509 -0.408467
v -0.249160 -0.083597 -0.484496
v 0.086541 -0.122923 -0.380594
v 0.139670 -0.036723 -0.361652
v 0.204735 0.030132 -0.365227
v 0.284553 0.063301 -0.417049
v 0.378011 0.041700 -0.510080
v 0.076841 -0.132529 -0.421202
v 0.107640 -0.068440 -0.495741
v 0.160781 -0.013393 -0.549236
v 0.251291 0.030364 -0.556295
v 0.377292 0.040988 -0.513090
v 0.050653 -0.194181 -0.418657
v 0.128195 -0.125717 -0.510778
v 0.135953 -0.078885 -0.610265
v 0.106688 -0.063338 -0.733146
v 0.021299 -0.099760 -0.856421
v 0.038261 -0.194674 -0.416112
v -0.054152 -0.134903 -0.496210
v -0.076071 -0.090095 -0.597409
v -0.059748 -0.071439 -0.717660
v 0.017285 -0.100056 -0.856299
v 0.055593 -0.155343 -0.363243
v -0.017962 -0.045033 -0.310371
v -0.048084 0.048604 -0.235641
v -0.002724 0.115527 -0.128181
v 0.087036 0.126947 0.014366
v 0.064980 -0.155485 -0.363845
v 0.147974 -0.047546 -0.321005
v 0.190196 0.044997 -0.250911
v 0.160959 0.113049 -0.138670
v 0.090510 0.126894 0.014144
v -0.158263 0.770213 -0.554403
v 0.208430 0.797756 -0.533884
v -0.156126 1.253512 -0.675232
v 0.209623 1.292531 -0.657657
v -0.183251 1.747931 -0.801033
v 0.180852 1.800077 -0.786867
v -0.243135 2.180773 -0.913868
v 0.120066 2.238591 -0.901189
v -0.158263 0.770213 -0.554403
v 0.208430 0.797756 -0.533884
v -0.156126 1.253512 -0.675232
v 0.209623 1.292531 -0.657657
v -0.183251 1.747931 -0.801033
v 0.180852 1.800077 -0.786867
v -0.243135 2.180773 -0.913868
v 0.120066 2.238591 -0.901189
v 0.011764 0.828587 -0.365974
v 0.038404 0.739382 -0.722313
v 0.013429 1.317624 -0.488275
v 0.040068 1.228419 -0.844614
v -0.014520 1.818606 -0.615781
v 0.012120 1.729401 -0.972119
v -0.074854 2.254285 -0.729359
v -0.048214 2.165079 -1.085698
v 0.011764 0.828587 -0.365974
v 0.038404 0.739382 -0.722313
v 0.013429 1.317624 -0.488275
v 0.040068 1.228419 -0.844614
v -0.014520 1.818606 -0.615781
v 0.012120 1.729401 -0.972119
v -0.074854 2.254285 -0.729359
v -0.048214 2.165079 -1.085698
v -0.113980 0.805786 -0.425413
v 0.164149 0.762183 -0.662874
v -0.111981 1.290765 -0.546674
v 0.165479 1.255278 -0.786216
v -0.139348 1.787106 -0.672974
v 0.136949 1.760901 -0.914926
v -0.199364 2.220779 -0.786026
v 0.076296 2.198585 -1.029031
v -0.113980 0.805786 -0.425413
v 0.164149 0.762183 -0.662874
v -0.111981 1.290765 -0.546674
v 0.165479 1.255278 -0.786216
v -0.139348 1.787106 -0.672974
v 0.136949 1.760901 -0.914926
v -0.199364 2.220779 -0.786026
v 0.076296 2.198585 -1.029031
v 0.145312 0.825261 -0.410904
v -0.095143 0.742708 -0.677383
v 0.146642 1.318356 -0.534246
v -0.093144 1.227687 -0.798643
v 0.118112 1.823979 -0.662957
v -0.120511 1.724028 -0.924943
v 0.057459 2.261663 -0.777061
v -0.180527 2.157701 -1.037996
v 0.145312 0.825261 -0.410904
v -0.095143 0.742708 -0.677383
v 0.146642 1.318356 -0.534246
v -0.093144 1.227687 -0.798643
v 0.118112 1.823979 -0.662957
v -0.120511 1.724028 -0.924943
v 0.057459 2.261663 -0.777061
v -0.180527 2.157701 -1.037996
v 0.030832 0.903284 -0.566531
v 0.046446 0.556452 -0.488919
v 0.042975 0.202410 -0.450673
v 0.055618 -0.151903 -0.420367
v -0.003343 0.899521 -0.577776
v 0.012224 0.552681 -0.500194
v 0.008800 0.198646 -0.461918
v 0.021491 -0.155659 -0.431583
v 0.012532 0.904086 -0.554308
v 0.028147 0.557254 -0.476696
v 0.024675 0.203212 -0.438450
v 0.037318 -0.151101 -0.408144
v 0.014957 0.898718 -0.589999
v 0.030524 0.551879 -0.512417
v 0.027100 0.197844 -0.474141
v 0.039790 -0.156461 -0.443806
v 0.030832 0.903284 -0.566531
v 0.046446 0.556452 -0.488919
v 0.042975 0.202410 -0.450673
v 0.055618 -0.151903 -0.420367
v -0.003343 0.899521 -0.577776
v 0.012224 0.552681 -0.500194
v 0.008800 0.198646 -0.461918
v 0.021491 -0.155659 -0.431583
v 0.012532 0.904086 -0.554308
v 0.028147 0.557254 -0.476696
v 0.024675 0.203212 -0.438450
v 0.037318 -0.151101 -0.408144
v 0.014957 0.898718 -0.589999
v 0.030524 0.551879 -0.512417
v 0.027100 0.197844 -0.474141
v 0.039790 -0.156461 -0.443806
v 0.277743 -0.087153 0.601038
v 0.233763 -0.025046 0.577251
v 0.191674 0.025415 0.586975
v 0.145827 0.060301 0.632761
v 0.095417 0.066277 0.709591
v 0.281914 -0.088860 0.610391
v 0.277555 -0.042964 0.675444
v 0.248679 0.002091 0.714798
v 0.189098 0.042597 0.729787
v 0.100134 0.064349 0.720172
v 0.345167 -0.082664 0.535332
v 0.425282 -0.027702 0.515570
v 0.489825 0.016602 0.471472
v 0.518013 0.047107 0.383821
v 0.504577 0.043326 0.255974
v 0.309701 -0.073350 0.516478
v 0.308173 0.003054 0.453312
v 0.329117 0.058808 0.386036
v 0.396400 0.079046 0.319168
v 0.501948 0.044016 0.254576
v 0.269477 -0.121366 0.531925
v 0.286051 -0.044833 0.424036
v 0.247861 0.031325 0.360815
v 0.159782 0.097709 0.307532
v 0.016283 0.132078 0.290625
v 0.263628 -0.120026 0.542530
v 0.184685 -0.018088 0.565753
v 0.127190 0.063519 0.523024
v 0.068766 0.121534 0.438262
v 0.013886 0.132662 0.293613
v 0.324091 -0.110207 0.565939
v 0.361945 -0.019577 0.661989
v 0.431836 0.038915 0.738335
v 0.555056 0.045488 0.777381
v 0.702535 -0.018574 0.800865
v 0.329138 -0.112167 0.558682
v 0.451169 -0.054224 0.533714
v 0.559960 -0.010837 0.554136
v 0.643069 0.011312 0.650849
v 0.704403 -0.019299 0.798180
v 0.476373 0.802287 0.683759
v 0.715597 0.737371 0.430378
v 0.609156 1.261683 0.648964
v 0.850905 1.207923 0.395439
v 0.726471 1.738933 0.633471
v 0.970749 1.698075 0.380169
v 0.806338 2.165726 0.644690
v 1.051589 2.130490 0.391616
v 0.476373 0.802287 0.683759
v 0.715597 0.737371 0.430378
v 0.609156 1.261683 0.648964
v 0.850905 1.207923 0.395439
v 0.726471 1.738933 0.633471
v 0.970749 1.698075 0.380169
v 0.806338 2.165726 0.644690
v 1.051589 2.130490 0.391616
v 0.719978 0.743370 0.680912
v 0.471993 0.796288 0.433225
v 0.854023 1.208345 0.646045
v 0.606038 1.261262 0.398359
v 0.972602 1.692046 0.630664
v 0.724617 1.744963 0.382977
v 1.052956 2.121649 0.641996
v 0.804971 2.174566 0.394310
v 0.719978 0.743370 0.680912
v 0.471993 0.796288 0.433225
v 0.854023 1.208345 0.646045
v 0.606038 1.261262 0.398359
v 0.972602 1.692046 0.630664
v 0.724617 1.744963 0.382977
v 1.052956 2.121649 0.641996
v 0.804971 2.174566 0.394310
v 0.599082 0.774071 0.734223
v 0.592888 0.765587 0.379914
v 0.732235 1.235101 0.699407
v 0.727825 1.234506 0.344997
v 0.849920 1.714241 0.683946
v 0.847300 1.722768 0.329694
v 0.929930 2.141857 0.695199
v 0.927997 2.154359 0.341107
v 0.599082 0.774071 0.734223
v 0.592888 0.765587 0.379914
v 0.732235 1.235101 0.699407
v 0.727825 1.234506 0.344997
v 0.849920 1.714241 0.683946
v 0.847300 1.722768 0.329694
v 0.929930 2.141857 0.695199
v 0.927997 2.154359 0.341107
v 0.768240 0.728169 0.555055
v 0.423731 0.811489 0.559082
v 0.903177 1.197087 0.520138
v 0.556884 1.272519 0.524266
v 1.022651 1.685350 0.504835
v 0.674569 1.751659 0.508805
v 1.103349 2.116941 0.516248
v 0.754578 2.179275 0.520058
v 0.768240 0.728169 0.555055
v 0.423731 0.811489 0.559082
v 0.903177 1.197087 0.520138
v 0.556884 1.272519 0.524266
v 1.022651 1.685350 0.504835
v 0.674569 1.751659 0.508805
v 1.103349 2.116941 0.516248
v 0.754578 2.179275 0.520058
v 0.636515 0.879257 0.549261
v 0.545502 0.549256 0.556046
v 0.415349 0.232215 0.551823
v 0.289485 -0.085592 0.530866
v 0.607808 0.887823 0.566998
v 0.516744 0.557837 0.573798
v 0.386642 0.240781 0.569559
v 0.260827 -0.077041 0.548586
v 0.633884 0.879335 0.570291
v 0.542871 0.549334 0.577076
v 0.412719 0.232293 0.572853
v 0.286855 -0.085514 0.551895
v 0.610438 0.887745 0.545968
v 0.519375 0.557759 0.552768
v 0.389273 0.240703 0.548529
v 0.263458 -0.077119 0.527556
v 0.636515 0.879257 0.549261
v 0.545502 0.549256 0.556046
v 0.415349 0.232215 0.551823
v 0.289485 -0.085592 0.530866
v 0.607808 0.887823 0.566998
v 0.516744 0.557837 0.573798
v 0.386642 0.240781 0.569559
v 0.260827 -0.077041 0.548586
v 0.633884 0.879335 0.570291
v 0.542871 0.549334 0.577076
v 0.412719 0.232293 0.572853
v 0.286855 -0.085514 0.551895
v 0.610438 0.887745 0.545968
v 0.519375 0.557759 0.552768
v 0.389273 0.240703 0.548529
v 0.263458 -0.077119 0.527556
v 0.244891 0.005853 -0.195809
v 0.190833 0.052515 -0.242440
v 0.140235 0.101606 -0.251303
v 0.087557 0.149703 -0.218019
v 0.033479 0.181564 -0.142107
v 0.249551 0.008436 -0.186066
v 0.239761 0.079636 -0.140145
v 0.203927 0.136911 -0.118142
v 0.135903 0.176502 -0.116942
v 0.038749 0.184489 -0.131085
v 0.315875 -0.009370 -0.265765
v 0.394611 0.045123 -0.311351
v 0.457960 0.077549 -0.375947
v 0.484135 0.074768 -0.476304
v 0.469925 0.017446 -0.600548
v 0.277026 -0.011685 -0.286516
v 0.266332 0.037480 -0.379873
v 0.281924 0.067062 -0.469979
v 0.350923 0.066832 -0.547461
v 0.467045 0.017275 -0.602087
v 0.239885 -0.056863 -0.249887
v 0.248297 -0.023896 -0.388367
v 0.198649 0.021103 -0.479956
v 0.097119 0.055237 -0.555411
v -0.059512 0.066844 -0.579316
v 0.233540 -0.051841 -0.239670
v 0.137805 0.049437 -0.254323
v 0.067054 0.106099 -0.326951
v -0.002059 0.122316 -0.431532
v -0.062121 0.068382 -0.576486
v 0.296756 -0.026199 -0.223347
v 0.326735 0.106119 -0.166897
v 0.394463 0.202215 -0.118406
v 0.524831 0.237729 -0.088255
v 0.689167 0.200041 -0.045997
v 0.302330 -0.030549 -0.229964
v 0.425274 0.029212 -0.283876
v 0.535963 0.091779 -0.286386
v 0.622032 0.161867 -0.203646
v 0.691230 0.198431 -0.048446
v 0.352850 0.935084 -0.483924
v 0.614052 0.793338 -0.719383
v 0.440493 1.386611 -0.710803
v 0.703081 1.256041 -0.951045
v 0.509665 1.861919 -0.925108
v 0.773443 1.744392 -1.170478
v 0.544965 2.294541 -1.090786
v 0.809124 2.182736 -1.338256
v 0.352850 0.935084 -0.483924
v 0.614052 0.793338 -0.719383
v 0.440493 1.386611 -0.710803
v 0.703081 1.256041 -0.951045
v 0.509665 1.861919 -0.925108
v 0.773443 1.744392 -1.170478
v 0.544965 2.294541 -1.090786
v 0.809124 2.182736 -1.338256
v 0.618724 0.901943 -0.474305
v 0.348178 0.826479 -0.729002
v 0.707060 1.359058 -0.703575
v 0.436513 1.283594 -0.958272
v 0.776827 1.840887 -0.920444
v 0.506280 1.765423 -1.175141
v 0.812318 2.276371 -1.087172
v 0.541771 2.200907 -1.341869
v 0.618724 0.901943 -0.474305
v 0.348178 0.826479 -0.729002
v 0.707060 1.359058 -0.703575
v 0.436513 1.283594 -0.958272
v 0.776827 1.840887 -0.920444
v 0.506280 1.765423 -1.175141
v 0.812318 2.276371 -1.087172
v 0.541771 2.200907 -1.341869
v 0.486755 0.941006 -0.428357
v 0.480148 0.787415 -0.774950
v 0.574600 1.394170 -0.655936
v 0.568973 1.248482 -1.005911
v 0.643947 1.871388 -0.870992
v 0.639161 1.734923 -1.224593
v 0.679303 2.304848 -1.036977
v 0.674786 2.172429 -1.392064
v 0.486755 0.941006 -0.428357
v 0.480148 0.787415 -0.774950
v 0.574600 1.394170 -0.655936
v 0.568973 1.248482 -1.005911
v 0.643947 1.871388 -0.870992
v 0.639161 1.734923 -1.224593
v 0.679303 2.304848 -1.036977
v 0.674786 2.172429 -1.392064
v 0.671453 0.840776 -0.594852
v 0.295450 0.887645 -0.608455
v 0.760278 1.301843 -0.825813
v 0.383295 1.340809 -0.836034
v 0.830466 1.788284 -1.044495
v 0.452642 1.818027 -1.051090
v 0.866092 2.225790 -1.211966
v 0.487998 2.251487 -1.217075
v 0.671453 0.840776 -0.594852
v 0.295450 0.887645 -0.608455
v 0.760278 1.301843 -0.825813
v 0.383295 1.340809 -0.836034
v 0.830466 1.788284 -1.044495
v 0.452642 1.818027 -1.051090
v 0.866092 2.225790 -1.211966
v 0.487998 2.251487 -1.217075
v 0.513794 0.972908 -0.655638
v 0.455431 0.641594 -0.510873
v 0.353913 0.314360 -0.380407
v 0.256996 -0.019999 -0.266377
v 0.482322 0.985510 -0.640225
v 0.423905 0.654212 -0.495448
v 0.322441 0.326963 -0.364993
v 0.225578 -0.007413 -0.250976
v 0.511047 0.981287 -0.634753
v 0.452684 0.649973 -0.489988
v 0.351166 0.322739 -0.359522
v 0.254249 -0.011620 -0.245492
v 0.485069 0.977131 -0.661110
v 0.426652 0.645833 -0.516334
v 0.325188 0.318584 -0.385879
v 0.228325 -0.015792 -0.271861
v 0.513794 0.972908 -0.655638
v 0.455431 0.641594 -0.510873
v 0.353913 0.314360 -0.380407
v 0.256996 -0.019999 -0.266377
v 0.482322 0.985510 -0.640225
v 0.423905 0.654212 -0.495448
v 0.322441 0.326963 -0.364993
v 0.225578 -0.007413 -0.250976
v 0.511047 0.981287 -0.634753
v 0.452684 0.649973 -0.489988
v 0.351166 0.322739 -0.359522
v 0.254249 -0.011620 -0.245492
v 0.485069 0.977131 -0.661110
v 0.426652 0.645833 -0.516334
v 0.325188 0.318584 -0.385879
v 0.228325 -0.015792 -0.271861
v -0.509185 0.004773 0.080170
v -0.562117 0.043614 0.058390
v -0.612855 0.070178 0.064796
v -0.664899 0.079298 0.100630
v -0.714179 0.060526 0.160640
v -0.506145 0.003713 0.088582
v -0.530204 0.032483 0.146705
v -0.571312 0.055689 0.179760
v -0.633365 0.068300 0.187895
v -0.710744 0.059328 0.170156
v -0.450620 0.036051 0.032442
v -0.402178 0.107036 0.028853
v -0.360604 0.167183 0.001830
v -0.339806 0.209555 -0.067832
v -0.337767 0.215704 -0.179216
v -0.480310 0.034558 0.012546
v -0.500214 0.102106 -0.036843
v -0.495138 0.160418 -0.088324
v -0.441612 0.204436 -0.136055
v -0.339968 0.215593 -0.180691
v -0.498609 -0.018077 0.017772
v -0.499989 0.059829 -0.067697
v -0.549193 0.115868 -0.121641
v -0.636160 0.147610 -0.173810
v -0.760615 0.132708 -0.203667
v -0.504687 -0.019911 0.026224
v -0.602632 0.035257 0.042976
v -0.670908 0.087579 0.004567
v -0.728577 0.125031 -0.071467
v -0.762994 0.132126 -0.201364
v -0.461489 0.004207 0.054309
v -0.468820 0.078742 0.147017
v -0.438419 0.139383 0.224715
v -0.345306 0.178634 0.273672
v -0.208771 0.170204 0.307746
v -0.456159 0.004946 0.048586
v -0.374603 0.091810 0.045864
v -0.303127 0.158149 0.079462
v -0.252369 0.191524 0.173893
v -0.206798 0.170478 0.305628
v -0.641665 0.772597 0.232351
v -0.406208 0.820686 0.040483
v -0.678861 1.186586 0.248257
v -0.444933 1.244438 0.057291
v -0.735910 1.608140 0.279944
v -0.504097 1.677124 0.090305
v -0.809275 1.974779 0.326688
v -0.578499 2.048558 0.137724
v -0.641665 0.772597 0.232351
v -0.406208 0.820686 0.040483
v -0.678861 1.186586 0.248257
v -0.444933 1.244438 0.057291
v -0.735910 1.608140 0.279944
v -0.504097 1.677124 0.090305
v -0.809275 1.974779 0.326688
v -0.578499 2.048558 0.137724
v -0.427344 0.800727 0.255977
v -0.620529 0.792557 0.016856
v -0.465305 1.219597 0.272334
v -0.658490 1.211427 0.033213
v -0.523411 1.646717 0.304685
v -0.716596 1.638547 0.065564
v -0.597294 2.015754 0.351766
v -0.790479 2.007584 0.112645
v -0.427344 0.800727 0.255977
v -0.620529 0.792557 0.016856
v -0.465305 1.219597 0.272334
v -0.658490 1.211427 0.033213
v -0.523411 1.646717 0.304685
v -0.716596 1.638547 0.065564
v -0.597294 2.015754 0.351766
v -0.790479 2.007584 0.112645
v -0.538882 0.782528 0.288794
v -0.508991 0.810755 -0.015961
v -0.576302 1.197947 0.304833
v -0.547492 1.233077 0.000715
v -0.633661 1.621131 0.336714
v -0.606346 1.664133 0.033535
v -0.707178 1.988472 0.383557
v -0.680596 2.034865 0.080854
v -0.538882 0.782528 0.288794
v -0.508991 0.810755 -0.015961
v -0.576302 1.197947 0.304833
v -0.547492 1.233077 0.000715
v -0.633661 1.621131 0.336714
v -0.606346 1.664133 0.033535
v -0.707178 1.988472 0.383557
v -0.680596 2.034865 0.080854
v -0.372389 0.816532 0.153123
v -0.675484 0.776751 0.119710
v -0.410890 1.238854 0.169799
v -0.712905 1.192170 0.135748
v -0.469744 1.669910 0.202619
v -0.770263 1.615354 0.167630
v -0.543994 2.040642 0.249939
v -0.843780 1.982695 0.214473
v -0.372389 0.816532 0.153123
v -0.675484 0.776751 0.119710
v -0.410890 1.238854 0.169799
v -0.712905 1.192170 0.135748
v -0.469744 1.669910 0.202619
v -0.770263 1.615354 0.167630
v -0.543994 2.040642 0.249939
v -0.843780 1.982695 0.214473
v -0.525706 0.897951 0.141708
v -0.493833 0.603816 0.115221
v -0.496469 0.309168 0.075343
v -0.493906 0.016974 0.021608
v -0.553060 0.894126 0.153931
v -0.521233 0.599987 0.127452
v -0.523823 0.305343 0.087566
v -0.521214 0.013153 0.033823
v -0.529748 0.895008 0.159402
v -0.497874 0.600873 0.132915
v -0.500511 0.306225 0.093037
v -0.497947 0.014031 0.039302
v -0.549019 0.897069 0.136237
v -0.517191 0.602930 0.109758
v -0.519782 0.308286 0.069871
v -0.517173 0.016096 0.016128
v -0.525706 0.897951 0.141708
v -0.493833 0.603816 0.115221
v -0.496469 0.309168 0.075343
v -0.493906 0.016974 0.021608
v -0.553060 0.894126 0.153931
v -0.521233 0.599987 0.127452
v -0.523823 0.305343 0.087566
v -0.521214 0.013153 0.033823
v -0.529748 0.895008 0.159402
v -0.497874 0.600873 0.132915
v -0.500511 0.306225 0.093037
v -0.497947 0.014031 0.039302
v -0.549019 0.897069 0.136237
v -0.517191 0.602930 0.109758
v -0.519782 0.308286 0.069871
v -0.517173 0.016096 0.016128
v 0.439377 -0.175283 0.034731
v 0.487590 -0.138692 -0.037691
v 0.494003 -0.106643 -0.109208
v 0.455191 -0.085719 -0.184336
v 0.373446 -0.091197 -0.256238
v 0.427765 -0.173012 0.038052
v 0.365674 -0.114852 -0.002819
v 0.335299 -0.075609 -0.063814
v 0.334725 -0.062163 -0.149879
v 0.360311 -0.088626 -0.252485
v 0.509458 -0.147716 0.117052
v 0.538953 -0.051928 0.178115
v 0.595102 0.019748 0.233094
v 0.701191 0.049253 0.265615
v 0.848416 0.013143 0.279651
v 0.537091 -0.160541 0.078918
v 0.630198 -0.094276 0.052196
v 0.720316 -0.038366 0.060296
v 0.795944 0.005276 0.134853
v 0.850465 0.012192 0.276825
v 0.510489 -0.228787 0.057307
v 0.653246 -0.161546 0.058797
v 0.749951 -0.114998 -0.006419
v 0.837530 -0.103135 -0.121369
v 0.880215 -0.146842 -0.286227
v 0.499234 -0.228419 0.048294
v 0.507478 -0.159748 -0.090506
v 0.583984 -0.113761 -0.182997
v 0.702592 -0.101036 -0.256049
v 0.877171 -0.146921 -0.289659
v 0.469013 -0.181543 0.102286
v 0.379084 -0.048395 0.077201
v 0.300082 0.064471 0.105954
v 0.244864 0.144330 0.224469
v 0.186314 0.160559 0.406978
v 0.476334 -0.182325 0.110074
v 0.508490 -0.062219 0.214885
v 0.485906 0.044621 0.303667
v 0.372512 0.130695 0.360285
v 0.189022 0.160270 0.409860
v 0.561949 0.871234 -0.216654
v 0.812320 0.881006 0.119916
v 0.711375 1.412590 -0.298733
v 0.964637 1.435274 0.034962
v 0.844900 1.968087 -0.409987
v 1.101096 2.005574 -0.080108
v 0.937953 2.456479 -0.541026
v 1.195291 2.500372 -0.212973
v 0.561949 0.871234 -0.216654
v 0.812320 0.881006 0.119916
v 0.711375 1.412590 -0.298733
v 0.964637 1.435274 0.034962
v 0.844900 1.968087 -0.409987
v 1.101096 2.005574 -0.080108
v 0.937953 2.456479 -0.541026
v 1.195291 2.500372 -0.212973
v 0.525590 0.938655 0.069987
v 0.848680 0.813585 -0.166724
v 0.676461 1.486467 -0.013530
v 0.999551 1.361398 -0.250241
v 0.811453 2.049365 -0.126692
v 1.134543 1.924296 -0.363404
v 0.905077 2.540960 -0.258644
v 1.228167 2.415891 -0.495355
v 0.525590 0.938655 0.069987
v 0.848680 0.813585 -0.166724
v 0.676461 1.486467 -0.013530
v 0.999551 1.361398 -0.250241
v 0.811453 2.049365 -0.126692
v 1.134543 1.924296 -0.363404
v 0.905077 2.540960 -0.258644
v 1.228167 2.415891 -0.495355
v 0.484386 0.916883 -0.083674
v 0.889884 0.835357 -0.013063
v 0.634235 1.460131 -0.166174
v 1.041777 1.387734 -0.097597
v 0.768189 2.017795 -0.277987
v 1.177807 1.955865 -0.212108
v 0.861409 2.507126 -0.409294
v 1.271835 2.449726 -0.344705
v 0.484386 0.916883 -0.083674
v 0.889884 0.835357 -0.013063
v 0.634235 1.460131 -0.166174
v 1.041777 1.387734 -0.097597
v 0.768189 2.017795 -0.277987
v 1.177807 1.955865 -0.212108
v 0.861409 2.507126 -0.409294
v 1.271835 2.449726 -0.344705
v 0.661425 0.923794 0.154318
v 0.712845 0.828446 -0.251054
v 0.813318 1.476171 0.069783
v 0.862694 1.371693 -0.333555
v 0.949347 2.044302 -0.044728
v 0.996648 1.929358 -0.445368
v 1.043376 2.538163 -0.177325
v 1.089868 2.418688 -0.576674
v 0.661425 0.923794 0.154318
v 0.712845 0.828446 -0.251054
v 0.813318 1.476171 0.069783
v 0.862694 1.371693 -0.333555
v 0.949347 2.044302 -0.044728
v 0.996648 1.929358 -0.445368
v 1.043376 2.538163 -0.177325
v 1.089868 2.418688 -0.576674
v 0.721301 1.009887 -0.058640
v 0.634459 0.619762 0.008671
v 0.567567 0.220192 0.030545
v 0.519279 -0.181178 0.060764
v 0.706023 1.007039 -0.096809
v 0.619172 0.616907 -0.029561
v 0.552288 0.217344 -0.007624
v 0.504009 -0.184019 0.022657
v 0.697414 1.012693 -0.065778
v 0.610572 0.622568 0.001533
v 0.543679 0.222998 0.023407
v 0.495391 -0.178372 0.053626
v 0.729910 1.004233 -0.089671
v 0.643059 0.614101 -0.022423
v 0.576176 0.214538 -0.000486
v 0.527897 -0.186824 0.029795
v 0.721301 1.009887 -0.058640
v 0.634459 0.619762 0.008671
v 0.567567 0.220192 0.030545
v 0.519279 -0.181178 0.060764
v 0.706023 1.007039 -0.096809
v 0.619172 0.616907 -0.029561
v 0.552288 0.217344 -0.007624
v 0.504009 -0.184019 0.022657
v 0.697414 1.012693 -0.065778
v 0.610572 0.622568 0.001533
v 0.543679 0.222998 0.023407
v 0.495391 -0.178372 0.053626
v 0.729910 1.004233 -0.089671
v 0.643059 0.614101 -0.022423
v 0.576176 0.214538 -0.000486
v 0.527897 -0.186824 0.029795
v 0.028575 0.026871 0.451809
v -0.024032 0.071567 0.447392
v -0.069478 0.100192 0.468281
v -0.111369 0.107686 0.515871
v -0.147860 0.084171 0.582935
v 0.033268 0.024497 0.459121
v 0.025243 0.046648 0.524157
v -0.005334 0.067753 0.568210
v -0.062680 0.083063 0.591723
v -0.142553 0.081487 0.591208
v 0.077920 0.060511 0.395957
v 0.130730 0.128116 0.389721
v 0.170751 0.188595 0.361138
v 0.179635 0.238555 0.294011
v 0.157844 0.259499 0.186611
v 0.044592 0.063596 0.383336
v 0.020681 0.138303 0.348046
v 0.019731 0.202574 0.303947
v 0.065354 0.249133 0.250733
v 0.155373 0.259728 0.185675
v 0.023111 0.012004 0.386413
v 0.010267 0.100635 0.313231
v -0.044162 0.166432 0.278887
v -0.137127 0.210359 0.252044
v -0.265928 0.207535 0.249878
v 0.018885 0.009438 0.395756
v -0.067529 0.067948 0.440773
v -0.137434 0.129188 0.425367
v -0.206625 0.180115 0.369433
v -0.267790 0.206800 0.252580
v 0.069208 0.026767 0.415851
v 0.089203 0.088457 0.515844
v 0.141296 0.136036 0.591085
v 0.246064 0.162354 0.621719
v 0.385376 0.140773 0.622473
v 0.073203 0.027930 0.409189
v 0.159834 0.109021 0.398082
v 0.242720 0.165566 0.421982
v 0.315736 0.182639 0.505556
v 0.386854 0.141203 0.620008
v 0.003800 0.774062 0.718933
v 0.195046 0.832511 0.485322
v 0.009246 1.183659 0.791208
v 0.200103 1.251739 0.559959
v -0.000449 1.599872 0.884155
v 0.189668 1.678915 0.655974
v -0.027760 1.960789 0.988962
v 0.161939 2.044549 0.762230
v 0.003800 0.774062 0.718933
v 0.195046 0.832511 0.485322
v 0.009246 1.183659 0.791208
v 0.200103 1.251739 0.559959
v -0.000449 1.599872 0.884155
v 0.189668 1.678915 0.655974
v -0.027760 1.960789 0.988962
v 0.161939 2.044549 0.762230
v 0.219761 0.785106 0.696094
v -0.020915 0.821467 0.508161
v 0.225013 1.199518 0.769550
v -0.015664 1.235879 0.581617
v 0.214948 1.621212 0.864031
v -0.025729 1.657574 0.676098
v 0.187428 1.984488 0.969562
v -0.053249 2.020850 0.781629
v 0.219761 0.785106 0.696094
v -0.020915 0.821467 0.508161
v 0.225013 1.199518 0.769550
v -0.015664 1.235879 0.581617
v 0.214948 1.621212 0.864031
v -0.025729 1.657574 0.676098
v 0.187428 1.984488 0.969562
v -0.053249 2.020850 0.781629
v 0.116899 0.769766 0.751166
v 0.081947 0.836807 0.453089
v 0.122289 1.180773 0.823787
v 0.087061 1.254624 0.527380
v 0.112485 1.598592 0.917183
v 0.076734 1.680195 0.622946
v 0.085112 1.960200 1.022202
v 0.049066 2.045139 0.728989
v 0.116899 0.769766 0.751166
v 0.081947 0.836807 0.453089
v 0.122289 1.180773 0.823787
v 0.087061 1.254624 0.527380
v 0.112485 1.598592 0.917183
v 0.076734 1.680195 0.622946
v 0.085112 1.960200 1.022202
v 0.049066 2.045139 0.728989
v 0.252131 0.811096 0.585978
v -0.053285 0.795477 0.618277
v 0.257245 1.228913 0.660269
v -0.047895 1.206485 0.690898
v 0.246918 1.654483 0.755835
v -0.057699 1.624304 0.784294
v 0.219250 2.019427 0.861878
v -0.085072 1.985911 0.889314
v 0.252131 0.811096 0.585978
v -0.053285 0.795477 0.618277
v 0.257245 1.228913 0.660269
v -0.047895 1.206485 0.690898
v 0.246918 1.654483 0.755835
v -0.057699 1.624304 0.784294
v 0.219250 2.019427 0.861878
v -0.085072 1.985911 0.889314
v 0.108185 0.902868 0.619491
v 0.106288 0.613552 0.552219
v 0.067892 0.327720 0.479828
v 0.031745 0.045850 0.393144
v 0.083930 0.899174 0.637106
v 0.081989 0.609856 0.569853
v 0.043636 0.324027 0.497444
v 0.007533 0.042159 0.410742
v 0.107854 0.897832 0.637171
v 0.105957 0.608516 0.569900
v 0.067561 0.322684 0.497509
v 0.031414 0.040814 0.410825
v 0.084261 0.904210 0.619426
v 0.082320 0.614892 0.552172
v 0.043967 0.329063 0.479763
v 0.007864 0.047195 0.393061
v 0.108185 0.902868 0.619491
v 0.106288 0.613552 0.552219
v 0.067892 0.327720 0.479828
v 0.031745 0.045850 0.393144
v 0.083930 0.899174 0.637106
v 0.081989 0.609856 0.569853
v 0.043636 0.324027 0.497444
v 0.007533 0.042159 0.410742
v 0.107854 0.897832 0.637171
v 0.105957 0.608516 0.569900
v 0.067561 0.322684 0.497509
v 0.031414 0.040814 0.410825
v 0.084261 0.904210 0.619426
v 0.082320 0.614892 0.552172
v 0.043967 0.329063 0.479763
v 0.007864 0.047195 0.393061
vt 0.976773 0.098765
vt 0.976773 0.299383
vt 0.976773 0.500000
vt 0.976773 0.700617
vt 0.976773 0.901235
vt 0.602037 0.098765
vt 0.602037 0.299383
vt 0.602037 0.500000
vt 0.602037 0.700617
vt 0.602037 0.901235
vt 0.976773 0.098765
vt 0.976773 0.299383
vt 0.602037 0.299383
vt 0.602037 0.098765
vt 0.602037 0.500000
vt 0.976773 0.500000
vt 0.602037 0.700617
vt 0.976773 0.700617
vt 0.602037 0.901235
vt 0.976773 0.901235
vt 0.976773 0.098765
vt 0.976773 0.299383
vt 0.602037 0.299383
vt 0.602037 0.098765
vt 0.602037 0.500000
vt 0.976773 0.500000
vt 0.602037 0.700617
vt 0.976773 0.700617
vt 0.602037 0.901235
vt 0.976773 0.901235
vt 0.976773 0.098765
vt 0.976773 0.299383
vt 0.602037 0.299383
vt 0.602037 0.098765
vt 0.602037 0.500000
vt 0.976773 0.500000
vt 0.602037 0.700617
vt 0.976773 0.700617
vt 0.602037 0.901235
vt 0.976773 0.901235
vt 0.010923 0.000000
vt 0.010923 0.333333
vt 0.396484 0.333333
vt 0.396484 0.000000
vt 0.010923 0.666667
vt 0.396484 0.666667
vt 0.010923 1.000000
vt 0.396484 1.000000
vt 0.010923 0.000000
vt 0.396484 0.000000
vt 0.396484 0.333333
vt 0.010923 0.333333
vt 0.396484 0.666667
vt 0.010923 0.666667
vt 0.396484 1.000000
vt 0.010923 1.000000
vt 0.010923 0.000000
vt 0.010923 0.333333
vt 0.396484 0.333333
vt 0.396484 0.000000
vt 0.010923 0.666667
vt 0.396484 0.666667
vt 0.010923 1.000000
vt 0.396484 1.000000
vt 0.010923 0.000000
vt 0.396484 0.000000
vt 0.396484 0.333333
vt 0.010923 0.333333
vt 0.396484 0.666667
vt 0.010923 0.666667
vt 0.396484 1.000000
vt 0.010923 1.000000
vt 0.010923 0.000000
vt 0.010923 0.333333
vt 0.396484 0.333333
vt 0.396484 0.000000
vt 0.010923 0.666667
vt 0.396484 0.666667
vt 0.010923 1.000000
vt 0.396484 1.000000
vt 0.010923 0.000000
vt 0.396484 0.000000
vt 0.396484 0.333333
vt 0.010923 0.333333
vt 0.396484 0.666667
vt 0.010923 0.666667
vt 0.396484 1.000000
vt 0.010923 1.000000
vt 0.010923 0.000000
vt 0.010923 0.333333
vt 0.396484 0.333333
vt 0.396484 0.000000
vt 0.010923 0.666667
vt 0.396484 0.666667
vt 0.010923 1.000000
vt 0.396484 1.000000
vt 0.010923 0.000000
vt 0.396484 0.000000
vt 0.396484 0.333333
vt 0.010923 0.333333
vt 0.396484 0.666667
vt 0.010923 0.666667
vt 0.396484 1.000000
vt 0.010923 1.000000
vt 0.678443 0.000000
vt 0.678443 1.000000
vt 0.697752 1.000000
vt 0.697752 0.000000
vt 0.717062 1.000000
vt 0.717062 0.000000
vt 0.736372 1.000000
vt 0.736372 0.000000
vt 0.678443 0.000000
vt 0.678443 1.000000
vt 0.697752 1.000000
vt 0.697752 0.000000
vt 0.717062 1.000000
vt 0.717062 0.000000
vt 0.736372 1.000000
vt 0.736372 0.000000
vt 0.678443 0.000000
vt 0.697752 0.000000
vt 0.697752 1.000000
vt 0.678443 1.000000
vt 0.717062 0.000000
vt 0.717062 1.000000
vt 0.736372 0.000000
vt 0.736372 1.000000
vt 0.678443 0.000000
vt 0.697752 0.000000
vt 0.697752 1.000000
vt 0.678443 1.000000
vt 0.717062 0.000000
vt 0.717062 1.000000
vt 0.736372 0.000000
vt 0.736372 1.000000
vt 0.976773 0.098765
vt 0.976773 0.299383
vt 0.602037 0.299383
vt 0.602037 0.098765
vt 0.602037 0.500000
vt 0.976773 0.500000
vt 0.602037 0.700617
vt 0.976773 0.700617
vt 0.602037 0.901235
vt 0.976773 0.901235
vt 0.976773 0.098765
vt 0.976773 0.299383
vt 0.602037 0.299383
vt 0.602037 0.098765
vt 0.602037 0.500000
vt 0.976773 0.500000
vt 0.602037 0.700617
vt 0.976773 0.700617
vt 0.602037 0.901235
vt 0.976773 0.901235
vt 0.976773 0.098765
vt 0.976773 0.299383
vt 0.602037 0.299383
vt 0.602037 0.098765
vt 0.602037 0.500000
vt 0.976773 0.500000
vt 0.602037 0.700617
vt 0.976773 0.700617
vt 0.602037 0.901235
vt 0.976773 0.901235
vt 0.976773 0.098765
vt 0.976773 0.299383
vt 0.602037 0.299383
vt 0.602037 0.098765
vt 0.602037 0.500000
vt 0.976773 0.500000
vt 0.602037 0.700617
vt 0.976773 0.700617
vt 0.602037 0.901235
vt 0.976773 0.901235
vt 0.010923 0.000000
vt 0.010923 0.333333
vt 0.396484 0.333333
vt 0.396484 0.000000
vt 0.010923 0.666667
vt 0.396484 0.666667
vt 0.010923 1.000000
vt 0.396484 1.000000
vt 0.010923 0.000000
vt 0.396484 0.000000
vt 0.396484 0.333333
vt 0.010923 0.333333
vt 0.396484 0.666667
vt 0.010923 0.666667
vt 0.396484 1.000000
vt 0.010923 1.000000
vt 0.010923 0.000000
vt 0.010923 0.333333
vt 0.396484 0.333333
vt 0.396484 0.000000
vt 0.010923 0.666667
vt 0.396484 0.666667
vt 0.010923 1.000000
vt 0.396484 1.000000
vt 0.010923 0.000000
vt 0.396484 0.000000
vt 0.396484 0.333333
vt 0.010923 0.333333
vt 0.396484 0.666667
vt 0.010923 0.666667
vt 0.396484 1.000000
vt 0.010923 1.000000
vt 0.010923 0.000000
vt 0.010923 0.333333
vt 0.396484 0.333333
vt 0.396484 0.000000
vt 0.010923 0.666667
vt 0.396484 0.666667
vt 0.010923 1.000000
vt 0.396484 1.000000
vt 0.010923 0.000000
vt 0.396484 0.000000
vt 0.396484 0.333333
vt 0.010923 0.333333
vt 0.396484 0.666667
vt 0.010923 0.666667
vt 0.396484 1.000000
vt 0.010923 1.000000
vt 0.010923 0.000000
vt 0.010923 0.333333
vt 0.396484 0.333333
vt 0.396484 0.000000
vt 0.010923 0.666667
vt 0.396484 0.666667
vt 0.010923 1.000000
vt 0.396484 1.000000
vt 0.010923 0.000000
vt 0.396484 0.000000
vt 0.396484 0.333333
vt 0.010923 0.333333
vt 0.396484 0.666667
vt 0.010923 0.666667
vt 0.396484 1.000000
vt 0.010923 1.000000
vt 0.678443 0.000000
vt 0.678443 1.000000
vt 0.697752 1.000000
vt 0.697752 0.000000
vt 0.717062 1.000000
vt 0.717062 0.000000
vt 0.736372 1.000000
vt 0.736372 0.000000
vt 0.678443 0.000000
vt 0.678443 1.000000
vt 0.697752 1.000000
vt 0.697752 0.000000
vt 0.717062 1.000000
vt 0.717062 0.000000
vt 0.736372 1.000000
vt 0.736372 0.000000
vt 0.678443 0.000000
vt 0.697752 0.000000
vt 0.697752 1.000000
vt 0.678443 1.000000
vt 0.717062 0.000000
vt 0.717062 1.000000
vt 0.736372 0.000000
vt 0.736372 1.000000
vt 0.678443 0.000000
vt 0.697752 0.000000
vt 0.697752 1.000000
vt 0.678443 1.000000
vt 0.717062 0.000000
vt 0.717062 1.000000
vt 0.736372 0.000000
vt 0.736372 1.000000
vt 0.976773 0.098765
vt 0.976773 0.299383
vt 0.602037 0.299383
vt 0.602037 0.098765
vt 0.602037 0.500000
vt 0.976773 0.500000
vt 0.602037 0.700617
vt 0.976773 0.700617
vt 0.602037 0.901235
vt 0.976773 0.901235
vt 0.976773 0.098765
vt 0.976773 0.299383
vt 0.602037 0.299383
vt 0.602037 0.098765
vt 0.602037 0.500000
vt 0.976773 0.500000
vt 0.602037 0.700617
vt 0.976773 0.700617
vt 0.602037 0.901235
vt 0.976773 0.901235
vt 0.976773 0.098765
vt 0.976773 0.299383
vt 0.602037 0.299383
vt 0.602037 0.098765
vt 0.602037 0.500000
vt 0.976773 0.500000
vt 0.602037 0.700617
vt 0.976773 0.700617
vt 0.602037 0.901235
vt 0.976773 0.901235
vt 0.976773 0.098765
vt 0.976773 0.299383
vt 0.602037 0.299383
vt 0.602037 0.098765
vt 0.602037 0.500000
vt 0.976773 0.500000
vt 0.602037 0.700617
vt 0.976773 0.700617
vt 0.602037 0.901235
vt 0.976773 0.901235
vt 0.010923 0.000000
vt 0.010923 0.333333
vt 0.396484 0.333333
vt 0.396484 0.000000
vt 0.010923 0.666667
vt 0.396484 0.666667
vt 0.010923 1.000000
vt 0.396484 1.000000
vt 0.010923 0.000000
vt 0.396484 0.000000
vt 0.396484 0.333333
vt 0.010923 0.333333
vt 0.396484 0.666667
vt 0.010923 0.666667
vt 0.396484 1.000000
vt 0.010923 1.000000
vt 0.010923 0.000000
vt 0.010923 0.333333
vt 0.396484 0.333333
vt 0.396484 0.000000
vt 0.010923 0.666667
vt 0.396484 0.666667
vt 0.010923 1.000000
vt 0.396484 1.000000
vt 0.010923 0.000000
vt 0.396484 0.000000
vt 0.396484 0.333333
vt 0.010923 0.333333
vt 0.396484 0.666667
vt 0.010923 0.666667
vt 0.396484 1.000000
vt 0.010923 1.000000
vt 0.010923 0.000000
vt 0.010923 0.333333
vt 0.396484 0.333333
vt 0.396484 0.000000
vt 0.010923 0.666667
vt 0.396484 0.666667
vt 0.010923 1.000000
vt 0.396484 1.000000
vt 0.010923 0.000000
vt 0.396484 0.000000
vt 0.396484 0.333333
vt 0.010923 0.333333
vt 0.396484 0.666667
vt 0.010923 0.666667
vt 0.396484 1.000000
vt 0.010923 1.000000
vt 0.010923 0.000000
vt 0.010923 0.333333
vt 0.396484 0.333333
vt 0.396484 0.000000
vt 0.010923 0.666667
vt 0.396484 0.666667
vt 0.010923 1.000000
vt 0.396484 1.000000
vt 0.010923 0.000000
vt 0.396484 0.000000
vt 0.396484 0.333333
vt 0.010923 0.333333
vt 0.396484 0.666667
vt 0.010923 0.666667
vt 0.396484 1.000000
vt 0.010923 1.000000
vt 0.678443 0.000000
vt 0.678443 1.000000
vt 0.697752 1.000000
vt 0.697752 0.000000
vt 0.717062 1.000000
vt 0.717062 0.000000
vt 0.736372 1.000000
vt 0.736372 0.000000
vt 0.678443 0.000000
vt 0.678443 1.000000
vt 0.697752 1.000000
vt 0.697752 0.000000
vt 0.717062 1.000000
vt 0.717062 0.000000
vt 0.736372 1.000000
vt 0.736372 0.000000
vt 0.678443 0.000000
vt 0.697752 0.000000
vt 0.697752 1.000000
vt 0.678443 1.000000
vt 0.717062 0.000000
vt 0.717062 1.000000
vt 0.736372 0.000000
vt 0.736372 1.000000
vt 0.678443 0.000000
vt 0.697752 0.000000
vt 0.697752 1.000000
vt 0.678443 1.000000
vt 0.717062 0.000000
vt 0.717062 1.000000
vt 0.736372 0.000000
vt 0.736372 1.000000
vt 0.976773 0.098765
vt 0.976773 0.299383
vt 0.602037 0.299383
vt 0.602037 0.098765
vt 0.602037 0.500000
vt 0.976773 0.500000
vt 0.602037 0.700617
vt 0.976773 0.700617
vt 0.602037 0.901235
vt 0.976773 0.901235
vt 0.976773 0.098765
vt 0.976773 0.299383
vt 0.602037 0.299383
vt 0.602037 0.098765
vt 0.602037 0.500000
vt 0.976773 0.500000
vt 0.602037 0.700617
vt 0.976773 0.700617
vt 0.602037 0.901235
vt 0.976773 0.901235
vt 0.976773 0.098765
vt 0.976773 0.299383
vt 0.602037 0.299383
vt 0.602037 0.098765
vt 0.602037 0.500000
vt 0.976773 0.500000
vt 0.602037 0.700617
vt 0.976773 0.700617
vt 0.602037 0.901235
vt 0.976773 0.901235
vt 0.976773 0.098765
vt 0.976773 0.299383
vt 0.602037 0.299383
vt 0.602037 0.098765
vt 0.602037 0.500000
vt 0.976773 0.500000
vt 0.602037 0.700617
vt 0.976773 0.700617
vt 0.602037 0.901235
vt 0.976773 0.901235
vt 0.010923 0.000000
vt 0.010923 0.333333
vt 0.396484 0.333333
vt 0.396484 0.000000
vt 0.010923 0.666667
vt 0.396484 0.666667
vt 0.010923 1.000000
vt 0.396484 1.000000
vt 0.010923 0.000000
vt 0.396484 0.000000
vt 0.396484 0.333333
vt 0.010923 0.333333
vt 0.396484 0.666667
vt 0.010923 0.666667
vt 0.396484 1.000000
vt 0.010923 1.000000
vt 0.010923 0.000000
vt 0.010923 0.333333
vt 0.396484 0.333333
vt 0.396484 0.000000
vt 0.010923 0.666667
vt 0.396484 0.666667
vt 0.010923 1.000000
vt 0.396484 1.000000
vt 0.010923 0.000000
vt 0.396484 0.000000
vt 0.396484 0.333333
vt 0.010923 0.333333
vt 0.396484 0.666667
vt 0.010923 0.666667
vt 0.396484 1.000000
vt 0.010923 1.000000
vt 0.010923 0.000000
vt 0.010923 0.333333
vt 0.396484 0.333333
vt 0.396484 0.000000
vt 0.010923 0.666667
vt 0.396484 0.666667
vt 0.010923 1.000000
vt 0.396484 1.000000
vt 0.010923 0.000000
vt 0.396484 0.000000
vt 0.396484 0.333333
vt 0.010923 0.333333
vt 0.396484 0.666667
vt 0.010923 0.666667
vt 0.396484 1.000000
vt 0.010923 1.000000
vt 0.010923 0.000000
vt 0.010923 0.333333
vt 0.396484 0.333333
vt 0.396484 0.000000
vt 0.010923 0.666667
vt 0.396484 0.666667
vt 0.010923 1.000000
vt 0.396484 1.000000
vt 0.010923 0.000000
vt 0.396484 0.000000
vt 0.396484 0.333333
vt 0.010923 0.333333
vt 0.396484 0.666667
vt 0.010923 0.666667
vt 0.396484 1.000000
vt 0.010923 1.000000
vt 0.678443 0.000000
vt 0.678443 1.000000
vt 0.697752 1.000000
vt 0.697752 0.000000
vt 0.717062 1.000000
vt 0.717062 0.000000
vt 0.736372 1.000000
vt 0.736372 0.000000
vt 0.678443 0.000000
vt 0.678443 1.000000
vt 0.697752 1.000000
vt 0.697752 0.000000
vt 0.717062 1.000000
vt 0.717062 0.000000
vt 0.736372 1.000000
vt 0.736372 0.000000
vt 0.678443 0.000000
vt 0.697752 0.000000
vt 0.697752 1.000000
vt 0.678443 1.000000
vt 0.717062 0.000000
vt 0.717062 1.000000
vt 0.736372 0.000000
vt 0.736372 1.000000
vt 0.678443 0.000000
vt 0.697752 0.000000
vt 0.697752 1.000000
vt 0.678443 1.000000
vt 0.717062 0.000000
vt 0.717062 1.000000
vt 0.736372 0.000000
vt 0.736372 1.000000
vt 0.976773 0.098765
vt 0.976773 0.299383
vt 0.602037 0.299383
vt 0.602037 0.098765
vt 0.602037 0.500000
vt 0.976773 0.500000
vt 0.602037 0.700617
vt 0.976773 0.700617
vt 0.602037 0.901235
vt 0.976773 0.901235
vt 0.976773 0.098765
vt 0.976773 0.299383
vt 0.602037 0.299383
vt 0.602037 0.098765
vt 0.602037 0.500000
vt 0.976773 0.500000
vt 0.602037 0.700617
vt 0.976773 0.700617
vt 0.602037 0.901235
vt 0.976773 0.901235
vt 0.976773 0.098765
vt 0.976773 0.299383
vt 0.602037 0.299383
vt 0.602037 0.098765
vt 0.602037 0.500000
vt 0.976773 0.500000
vt 0.602037 0.700617
vt 0.976773 0.700617
vt 0.602037 0.901235
vt 0.976773 0.901235
vt 0.976773 0.098765
vt 0.976773 0.299383
vt 0.602037 0.299383
vt 0.602037 0.098765
vt 0.602037 0.500000
vt 0.976773 0.500000
vt 0.602037 0.700617
vt 0.976773 0.700617
vt 0.602037 0.901235
vt 0.976773 0.901235
vt 0.010923 0.000000
vt 0.010923 0.333333
vt 0.396484 0.333333
vt 0.396484 0.000000
vt 0.010923 0.666667
vt 0.396484 0.666667
vt 0.010923 1.000000
vt 0.396484 1.000000
vt 0.010923 0.000000
vt 0.396484 0.000000
vt 0.396484 0.333333
vt 0.010923 0.333333
vt 0.396484 0.666667
vt 0.010923 0.666667
vt 0.396484 1.000000
vt 0.010923 1.000000
vt 0.010923 0.000000
vt 0.010923 0.333333
vt 0.396484 0.333333
vt 0.396484 0.000000
vt 0.010923 0.666667
vt 0.396484 0.666667
vt 0.010923 1.000000
vt 0.396484 1.000000
vt 0.010923 0.000000
vt 0.396484 0.000000
vt 0.396484 0.333333
vt 0.010923 0.333333
vt 0.396484 0.666667
vt 0.010923 0.666667
vt 0.396484 1.000000
vt 0.010923 1.000000
vt 0.010923 0.000000
vt 0.010923 0.333333
vt 0.396484 0.333333
vt 0.396484 0.000000
vt 0.010923 0.666667
vt 0.396484 0.666667
vt 0.010923 1.000000
vt 0.396484 1.000000
vt 0.010923 0.000000
vt 0.396484 0.000000
vt 0.396484 0.333333
vt 0.010923 0.333333
vt 0.396484 0.666667
vt 0.010923 0.666667
vt 0.396484 1.000000
vt 0.010923 1.000000
vt 0.010923 0.000000
vt 0.010923 0.333333
vt 0.396484 0.333333
vt 0.396484 0.000000
vt 0.010923 0.666667
vt 0.396484 0.666667
vt 0.010923 1.000000
vt 0.396484 1.000000
vt 0.010923 0.000000
vt 0.396484 0.000000
vt 0.396484 0.333333
vt 0.010923 0.333333
vt 0.396484 0.666667
vt 0.010923 0.666667
vt 0.396484 1.000000
vt 0.010923 1.000000
vt 0.678443 0.000000
vt 0.678443 1.000000
vt 0.697752 1.000000
vt 0.697752 0.000000
vt 0.717062 1.000000
vt 0.717062 0.000000
vt 0.736372 1.000000
vt 0.736372 0.000000
vt 0.678443 0.000000
vt 0.678443 1.000000
vt 0.697752 1.000000
vt 0.697752 0.000000
vt 0.717062 1.000000
vt 0.717062 0.000000
vt 0.736372 1.000000
vt 0.736372 0.000000
vt 0.678443 0.000000
vt 0.697752 0.000000
vt 0.697752 1.000000
vt 0.678443 1.000000
vt 0.717062 0.000000
vt 0.717062 1.000000
vt 0.736372 0.000000
vt 0.736372 1.000000
vt 0.678443 0.000000
vt 0.697752 0.000000
vt 0.697752 1.000000
vt 0.678443 1.000000
vt 0.717062 0.000000
vt 0.717062 1.000000
vt 0.736372 0.000000
vt 0.736372 1.000000
vt 0.976773 0.098765
vt 0.976773 0.299383
vt 0.602037 0.299383
vt 0.602037 0.098765
vt 0.602037 0.500000
vt 0.976773 0.500000
vt 0.602037 0.700617
vt 0.976773 0.700617
vt 0.602037 0.901235
vt 0.976773 0.901235
vt 0.976773 0.098765
vt 0.976773 0.299383
vt 0.602037 0.299383
vt 0.602037 0.098765
vt 0.602037 0.500000
vt 0.976773 0.500000
vt 0.602037 0.700617
vt 0.976773 0.700617
vt 0.602037 0.901235
vt 0.976773 0.901235
vt 0.976773 0.098765
vt 0.976773 0.299383
vt 0.602037 0.299383
vt 0.602037 0.098765
vt 0.602037 0.500000
vt 0.976773 0.500000
vt 0.602037 0.700617
vt 0.976773 0.700617
vt 0.602037 0.901235
vt 0.976773 0.901235
vt 0.976773 0.098765
vt 0.976773 0.299383
vt 0.602037 0.299383
vt 0.602037 0.098765
vt 0.602037 0.500000
vt 0.976773 0.500000
vt 0.602037 0.700617
vt 0.976773 0.700617
vt 0.602037 0.901235
vt 0.976773 0.901235
vt 0.010923 0.000000
vt 0.010923 0.333333
vt 0.396484 0.333333
vt 0.396484 0.000000
vt 0.010923 0.666667
vt 0.396484 0.666667
vt 0.010923 1.000000
vt 0.396484 1.000000
vt 0.010923 0.000000
vt 0.396484 0.000000
vt 0.396484 0.333333
vt 0.010923 0.333333
vt 0.396484 0.666667
vt 0.010923 0.666667
vt 0.396484 1.000000
vt 0.010923 1.000000
vt 0.010923 0.000000
vt 0.010923 0.333333
vt 0.396484 0.333333
vt 0.396484 0.000000
vt 0.010923 0.666667
vt 0.396484 0.666667
vt 0.010923 1.000000
vt 0.396484 1.000000
vt 0.010923 0.000000
vt 0.396484 0.000000
vt 0.396484 0.333333
vt 0.010923 0.333333
vt 0.396484 0.666667
vt 0.010923 0.666667
vt 0.396484 1.000000
vt 0.010923 1.000000
vt 0.010923 0.000000
vt 0.010923 0.333333
vt 0.396484 0.333333
vt 0.396484 0.000000
vt 0.010923 0.666667
vt 0.396484 0.666667
vt 0.010923 1.000000
vt 0.396484 1.000000
vt 0.010923 0.000000
vt 0.396484 0.000000
vt 0.396484 0.333333
vt 0.010923 0.333333
vt 0.396484 0.666667
vt 0.010923 0.666667
vt 0.396484 1.000000
vt 0.010923 1.000000
vt 0.010923 0.000000
vt 0.010923 0.333333
vt 0.396484 0.333333
vt 0.396484 0.000000
vt 0.010923 0.666667
vt 0.396484 0.666667
vt 0.010923 1.000000
vt 0.396484 1.000000
vt 0.010923 0.000000
vt 0.396484 0.000000
vt 0.396484 0.333333
vt 0.010923 0.333333
vt 0.396484 0.666667
vt 0.010923 0.666667
vt 0.396484 1.000000
vt 0.010923 1.000000
vt 0.678443 0.000000
vt 0.678443 1.000000
vt 0.697752 1.000000
vt 0.697752 0.000000
vt 0.717062 1.000000
vt 0.717062 0.000000
vt 0.736372 1.000000
vt 0.736372 0.000000
vt 0.678443 0.000000
vt 0.678443 1.000000
vt 0.697752 1.000000
vt 0.697752 0.000000
vt 0.717062 1.000000
vt 0.717062 0.000000
vt 0.736372 1.000000
vt 0.736372 0.000000
vt 0.678443 0.000000
vt 0.697752 0.000000
vt 0.697752 1.000000
vt 0.678443 1.000000
vt 0.717062 0.000000
vt 0.717062 1.000000
vt 0.736372 0.000000
vt 0.736372 1.000000
vt 0.678443 0.000000
vt 0.697752 0.000000
vt 0.697752 1.000000
vt 0.678443 1.000000
vt 0.717062 0.000000
vt 0.717062 1.000000
vt 0.736372 0.000000
vt 0.736372 1.000000
vt 0.976773 0.098765
vt 0.976773 0.299383
vt 0.602037 0.299383
vt 0.602037 0.098765
vt 0.602037 0.500000
vt 0.976773 0.500000
vt 0.602037 0.700617
vt 0.976773 0.700617
vt 0.602037 0.901235
vt 0.976773 0.901235
vt 0.976773 0.098765
vt 0.976773 0.299383
vt 0.602037 0.299383
vt 0.602037 0.098765
vt 0.602037 0.500000
vt 0.976773 0.500000
vt 0.602037 0.700617
vt 0.976773 0.700617
vt 0.602037 0.901235
vt 0.976773 0.901235
vt 0.976773 0.098765
vt 0.976773 0.299383
vt 0.602037 0.299383
vt 0.602037 0.098765
vt 0.602037 0.500000
vt 0.976773 0.500000
vt 0.602037 0.700617
vt 0.976773 0.700617
vt 0.602037 0.901235
vt 0.976773 0.901235
vt 0.976773 0.098765
vt 0.976773 0.299383
vt 0.602037 0.299383
vt 0.602037 0.098765
vt 0.602037 0.500000
vt 0.976773 0.500000
vt 0.602037 0.700617
vt 0.976773 0.700617
vt 0.602037 0.901235
vt 0.976773 0.901235
vt 0.010923 0.000000
vt 0.010923 0.333333
vt 0.396484 0.333333
vt 0.396484 0.000000
vt 0.010923 0.666667
vt 0.396484 0.666667
vt 0.010923 1.000000
vt 0.396484 1.000000
vt 0.010923 0.000000
vt 0.396484 0.000000
vt 0.396484 0.333333
vt 0.010923 0.333333
vt 0.396484 0.666667
vt 0.010923 0.666667
vt 0.396484 1.000000
vt 0.010923 1.000000
vt 0.010923 0.000000
vt 0.010923 0.333333
vt 0.396484 0.333333
vt 0.396484 0.000000
vt 0.010923 0.666667
vt 0.396484 0.666667
vt 0.010923 1.000000
vt 0.396484 1.000000
vt 0.010923 0.000000
vt 0.396484 0.000000
vt 0.396484 0.333333
vt 0.010923 0.333333
vt 0.396484 0.666667
vt 0.010923 0.666667
vt 0.396484 1.000000
vt 0.010923 1.000000
vt 0.010923 0.000000
vt 0.010923 0.333333
vt 0.396484 0.333333
vt 0.396484 0.000000
vt 0.010923 0.666667
vt 0.396484 0.666667
vt 0.010923 1.000000
vt 0.396484 1.000000
vt 0.010923 0.000000
vt 0.396484 0.000000
vt 0.396484 0.333333
vt 0.010923 0.333333
vt 0.396484 0.666667
vt 0.010923 0.666667
vt 0.396484 1.000000
vt 0.010923 1.000000
vt 0.010923 0.000000
vt 0.010923 0.333333
vt 0.396484 0.333333
vt 0.396484 0.000000
vt 0.010923 0.666667
vt 0.396484 0.666667
vt 0.010923 1.000000
vt 0.396484 1.000000
vt 0.010923 0.000000
vt 0.396484 0.000000
vt 0.396484 0.333333
vt 0.010923 0.333333
vt 0.396484 0.666667
vt 0.010923 0.666667
vt 0.396484 1.000000
vt 0.010923 1.000000
vt 0.678443 0.000000
vt 0.678443 1.000000
vt 0.697752 1.000000
vt 0.697752 0.000000
vt 0.717062 1.000000
vt 0.717062 0.000000
vt 0.736372 1.000000
vt 0.736372 0.000000
vt 0.678443 0.000000
vt 0.678443 1.000000
vt 0.697752 1.000000
vt 0.697752 0.000000
vt 0.717062 1.000000
vt 0.717062 0.000000
vt 0.736372 1.000000
vt 0.736372 0.000000
vt 0.678443 0.000000
vt 0.697752 0.000000
vt 0.697752 1.000000
vt 0.678443 1.000000
vt 0.717062 0.000000
vt 0.717062 1.000000
vt 0.736372 0.000000
vt 0.736372 1.000000
vt 0.678443 0.000000
vt 0.697752 0.000000
vt 0.697752 1.000000
vt 0.678443 1.000000
vt 0.717062 0.000000
vt 0.717062 1.000000
vt 0.736372 0.000000
vt 0.736372 1.000000
vn -0.164886 0.985877 0.029303
vn -0.168173 0.982295 -0.082556
vn -0.192777 0.977026 0.090872
vn -0.155844 0.985237 0.070852
vn -0.410793 0.908848 0.072422
vn -0.196529 0.974943 -0.104229
vn -0.432214 0.900408 0.049558
vn -0.382315 0.904119 -0.190798
vn -0.450948 0.888911 -0.080522
vn -0.449172 0.889264 -0.086337
vn 0.095052 0.991162 0.092539
vn 0.152348 0.985124 0.079505
vn 0.075879 0.984100 -0.160592
vn 0.022554 0.990999 -0.131959
vn 0.109046 0.975858 -0.189235
vn 0.205157 0.977627 0.046436
vn 0.311733 0.907037 -0.283031
vn 0.415406 0.908592 -0.043575
vn 0.416753 0.890529 -0.182414
vn 0.417269 0.890593 -0.180917
vn -0.099355 0.989628 -0.103754
vn 0.086792 0.980180 -0.178083
vn -0.185616 0.976333 -0.111001
vn -0.107183 0.989027 -0.101672
vn -0.290227 0.903769 -0.314596
vn 0.085047 0.907517 -0.411315
vn -0.199788 0.888585 -0.412918
vn 0.062466 0.889873 -0.451911
vn -0.093266 0.787888 -0.608715
vn -0.091510 0.787951 -0.608900
vn -0.061813 0.990316 0.124313
vn -0.129113 0.980699 0.146832
vn 0.138054 0.981446 0.133061
vn -0.020698 0.990635 0.134960
vn 0.283575 0.909490 0.303996
vn -0.193664 0.909848 0.366975
vn 0.188966 0.894970 0.404129
vn -0.070567 0.895559 0.439311
vn 0.086146 0.794908 0.600583
vn 0.084634 0.794929 0.600770
vn -0.193981 0.980845 -0.017724
vn -0.152208 0.986201 -0.065114
vn 0.206639 0.977326 -0.046196
vn 0.206937 0.978191 -0.017857
vn -0.136349 0.986734 -0.088123
vn 0.182680 0.979106 -0.089327
vn -0.139640 0.983336 -0.116409
vn 0.138782 0.983311 -0.117636
vn -0.193981 0.980845 -0.017724
vn 0.206937 0.978191 -0.017857
vn 0.206639 0.977326 -0.046196
vn -0.152208 0.986201 -0.065114
vn 0.182680 0.979106 -0.089327
vn -0.136349 0.986734 -0.088123
vn 0.138782 0.983311 -0.117636
vn -0.139640 0.983336 -0.116409
vn 0.019582 0.980677 0.194654
vn 0.034599 0.988657 0.146150
vn 0.034747 0.975302 -0.218126
vn 0.019770 0.978519 -0.205205
vn 0.044860 0.994789 0.091553
vn 0.031110 0.972368 -0.231373
vn 0.004798 0.998617 0.052365
vn -0.004930 0.970051 -0.242853
vn 0.019582 0.980677 0.194654
vn 0.019770 0.978519 -0.205205
vn 0.034747 0.975302 -0.218126
vn 0.034599 0.988657 0.146150
vn 0.031110 0.972368 -0.231373
vn 0.044860 0.994789 0.091553
vn -0.004930 0.970051 -0.242853
vn 0.004798 0.998617 0.052365
vn -0.135659 0.981207 0.137220
vn -0.105198 0.989991 0.094076
vn 0.154081 0.974148 -0.165214
vn 0.149307 0.977788 -0.147098
vn -0.105942 0.994092 0.023626
vn 0.127932 0.972906 -0.192579
vn -0.113593 0.993395 -0.016226
vn 0.096834 0.973740 -0.206042
vn -0.135659 0.981207 0.137220
vn 0.149307 0.977788 -0.147098
vn 0.154081 0.974148 -0.165214
vn -0.105198 0.989991 0.094076
vn 0.127932 0.972906 -0.192579
vn -0.105942 0.994092 0.023626
vn 0.096834 0.973740 -0.206042
vn -0.113593 0.993395 -0.016226
vn 0.148718 0.979342 0.137011
vn 0.165714 0.983190 0.076663
vn -0.088956 0.980132 -0.177281
vn -0.136253 0.979694 -0.147086
vn 0.152685 0.988023 0.022328
vn -0.081097 0.977984 -0.192278
vn 0.112742 0.993469 -0.017562
vn -0.097228 0.973849 -0.205342
vn 0.148718 0.979342 0.137011
vn -0.136253 0.979694 -0.147086
vn -0.088956 0.980132 -0.177281
vn 0.165714 0.983190 0.076663
vn -0.081097 0.977984 -0.192278
vn 0.152685 0.988023 0.022328
vn -0.097228 0.973849 -0.205342
vn 0.112742 0.993469 -0.017562
vn 0.085370 0.995386 -0.043803
vn -0.043803 0.995460 -0.084502
vn -0.101096 0.994747 0.016062
vn 0.094470 0.994296 0.049497
vn -0.129910 0.991233 -0.024077
vn -0.097362 0.994027 -0.049309
vn -0.137340 0.987593 -0.076146
vn -0.063547 0.990540 -0.121622
vn 0.081860 0.996556 0.013251
vn 0.015854 0.994784 -0.100766
vn 0.015542 0.995068 -0.097971
vn 0.015579 0.994107 0.107278
vn -0.089270 0.991891 -0.090462
vn -0.108563 0.992591 0.054561
vn -0.074700 0.987863 -0.136187
vn -0.126182 0.990093 -0.061595
vn 0.085370 0.995386 -0.043803
vn 0.094470 0.994296 0.049497
vn -0.101096 0.994747 0.016062
vn -0.043803 0.995460 -0.084502
vn -0.097362 0.994027 -0.049309
vn -0.129910 0.991233 -0.024077
vn -0.063547 0.990540 -0.121622
vn -0.137340 0.987593 -0.076146
vn 0.081860 0.996556 0.013251
vn 0.015579 0.994107 0.107278
vn 0.015542 0.995068 -0.097971
vn 0.015854 0.994784 -0.100766
vn -0.108563 0.992591 0.054561
vn -0.089270 0.991891 -0.090462
vn -0.126182 0.990093 -0.061595
vn -0.074700 0.987863 -0.136187
vn -0.223883 0.965805 -0.130756
vn -0.219448 0.945449 -0.240766
vn -0.255272 0.964313 -0.070263
vn -0.217625 0.971953 -0.089145
vn -0.467197 0.879498 -0.090607
vn -0.245808 0.933053 -0.262659
vn -0.486507 0.866324 -0.113110
vn -0.420911 0.837711 -0.347958
vn -0.495774 0.834406 -0.240779
vn -0.493636 0.834013 -0.246468
vn 0.030476 0.998063 -0.054236
vn 0.088772 0.994065 -0.062884
vn 0.028761 0.952233 -0.304015
vn -0.026675 0.959665 -0.279878
vn 0.064198 0.942106 -0.329114
vn 0.144027 0.985350 -0.091336
vn 0.276397 0.874060 -0.399529
vn 0.363515 0.918169 -0.157548
vn 0.375221 0.879839 -0.291706
vn 0.375631 0.880159 -0.290209
vn -0.149912 0.954215 -0.258845
vn 0.041032 0.946512 -0.320048
vn -0.234567 0.934161 -0.268925
vn -0.157813 0.953399 -0.257149
vn -0.320869 0.825253 -0.464759
vn 0.059181 0.840098 -0.539197
vn -0.223310 0.801829 -0.554260
vn 0.040444 0.815132 -0.577861
vn -0.098192 0.680666 -0.725983
vn -0.096434 0.680820 -0.726075
vn -0.127847 0.991285 -0.031770
vn -0.195827 0.980566 -0.011952
vn 0.071160 0.997412 -0.010303
vn -0.087627 0.995973 -0.018951
vn 0.208855 0.961671 0.177673
vn -0.270733 0.938944 0.212339
vn 0.108759 0.955776 0.273247
vn -0.152137 0.943944 0.292959
vn -0.000968 0.879220 0.476416
vn -0.002488 0.879165 0.476510
vn -0.249415 0.951886 -0.178062
vn -0.204944 0.952976 -0.223236
vn 0.151730 0.971409 -0.182601
vn 0.150077 0.976488 -0.154754
vn -0.187637 0.951165 -0.245107
vn 0.130653 0.965137 -0.226803
vn -0.188820 0.943392 -0.272687
vn 0.088581 0.962103 -0.257898
vn -0.249415 0.951886 -0.178062
vn 0.150077 0.976488 -0.154754
vn 0.151730 0.971409 -0.182601
vn -0.204944 0.952976 -0.223236
vn 0.130653 0.965137 -0.226803
vn -0.187637 0.951165 -0.245107
vn 0.088581 0.962103 -0.257898
vn -0.188820 0.943392 -0.272687
vn -0.050926 0.997742 0.043778
vn -0.033184 0.999439 -0.004431
vn -0.007837 0.932222 -0.361803
vn -0.023808 0.936296 -0.350405
vn -0.019663 0.998085 -0.058645
vn -0.010400 0.927114 -0.374635
vn -0.057163 0.993324 -0.100194
vn -0.045391 0.920676 -0.387680
vn -0.050926 0.997742 0.043778
vn -0.023808 0.936296 -0.350405
vn -0.007837 0.932222 -0.361803
vn -0.033184 0.999439 -0.004431
vn -0.010400 0.927114 -0.374635
vn -0.019663 0.998085 -0.058645
vn -0.045391 0.920676 -0.387680
vn -0.057163 0.993324 -0.100194
vn -0.201733 0.979196 -0.021889
vn -0.169015 0.983531 -0.064046
vn 0.107545 0.947042 -0.302566
vn 0.101362 0.952997 -0.285521
vn -0.165273 0.977072 -0.134223
vn 0.083407 0.939980 -0.330879
vn -0.170180 0.969951 -0.173876
vn 0.053286 0.936692 -0.346076
vn -0.201733 0.979196 -0.021889
vn 0.101362 0.952997 -0.285521
vn 0.107545 0.947042 -0.302566
vn -0.169015 0.983531 -0.064046
vn 0.083407 0.939980 -0.330879
vn -0.165273 0.977072 -0.134223
vn 0.053286 0.936692 -0.346076
vn -0.170180 0.969951 -0.173876
vn 0.081639 0.996647 -0.005473
vn 0.102389 0.992643 -0.064625
vn -0.134069 0.934642 -0.329347
vn -0.183178 0.935478 -0.302205
vn 0.092771 0.988464 -0.119720
vn -0.125110 0.930832 -0.343364
vn 0.055342 0.985204 -0.162202
vn -0.140060 0.923718 -0.356551
vn 0.081639 0.996647 -0.005473
vn -0.183178 0.935478 -0.302205
vn -0.134069 0.934642 -0.329347
vn 0.102389 0.992643 -0.064625
vn -0.125110 0.930832 -0.343364
vn 0.092771 0.988464 -0.119720
vn -0.140060 0.923718 -0.356551
vn 0.055342 0.985204 -0.162202
vn 0.029725 0.981342 -0.189958
vn -0.096212 0.966600 -0.237546
vn -0.159977 0.976925 -0.141508
vn 0.032598 0.994730 -0.097214
vn -0.185781 0.965545 -0.182232
vn -0.151833 0.966769 -0.205682
vn -0.189478 0.953722 -0.233478
vn -0.113101 0.954896 -0.274556
vn 0.022336 0.990723 -0.134046
vn -0.035662 0.967573 -0.250063
vn -0.036177 0.968247 -0.247366
vn -0.049842 0.997756 -0.044707
vn -0.140890 0.959105 -0.245495
vn -0.169869 0.980004 -0.103623
vn -0.123077 0.949336 -0.289160
vn -0.179485 0.959106 -0.218861
vn 0.029725 0.981342 -0.189958
vn 0.032598 0.994730 -0.097214
vn -0.159977 0.976925 -0.141508
vn -0.096212 0.966600 -0.237546
vn -0.151833 0.966769 -0.205682
vn -0.185781 0.965545 -0.182232
vn -0.113101 0.954896 -0.274556
vn -0.189478 0.953722 -0.233478
vn 0.022336 0.990723 -0.134046
vn -0.049842 0.997756 -0.044707
vn -0.036177 0.968247 -0.247366
vn -0.035662 0.967573 -0.250063
vn -0.169869 0.980004 -0.103623
vn -0.140890 0.959105 -0.245495
vn -0.179485 0.959106 -0.218861
vn -0.123077 0.949336 -0.289160
vn 0.209785 0.962414 0.172479
vn 0.131147 0.986650 0.096553
vn 0.229769 0.944418 0.235119
vn 0.243657 0.950051 0.195024
vn 0.049752 0.925420 0.375663
vn 0.095216 0.990277 0.101419
vn 0.017356 0.926982 0.374705
vn -0.109786 0.979092 0.171249
vn -0.086369 0.951022 0.296814
vn -0.088981 0.952425 0.291493
vn 0.428978 0.902780 0.031086
vn 0.456930 0.889296 -0.019175
vn 0.243444 0.960848 -0.132310
vn 0.228935 0.970628 -0.073958
vn 0.243966 0.953623 -0.176308
vn 0.467921 0.880117 -0.080277
vn 0.296236 0.872278 -0.389069
vn 0.527766 0.796218 -0.295804
vn 0.429656 0.812311 -0.394394
vn 0.431031 0.811912 -0.393715
vn 0.165439 0.985674 0.032818
vn 0.237814 0.959270 -0.152464
vn 0.098427 0.991162 0.088938
vn 0.161388 0.986086 0.039846
vn -0.131269 0.991166 0.018937
vn 0.057382 0.946794 -0.316684
vn -0.141235 0.983284 -0.114911
vn 0.009453 0.944101 -0.329522
vn -0.232131 0.914517 -0.331320
vn -0.231054 0.914288 -0.332702
vn 0.344514 0.924104 0.165353
vn 0.311436 0.922300 0.228848
vn 0.482251 0.875575 0.028329
vn 0.379461 0.914024 0.143422
vn 0.673360 0.738162 0.041267
vn 0.394598 0.813965 0.426325
vn 0.672669 0.718133 0.178332
vn 0.521820 0.759506 0.388400
vn 0.705194 0.594995 0.385594
vn 0.704309 0.595257 0.386806
vn 0.156990 0.974514 0.160240
vn 0.154833 0.983121 0.097465
vn 0.406445 0.901925 -0.146064
vn 0.425995 0.895846 -0.126448
vn 0.150177 0.986173 0.070075
vn 0.361813 0.918589 -0.159014
vn 0.127875 0.990397 0.052547
vn 0.314479 0.937770 -0.147277
vn 0.156990 0.974514 0.160240
vn 0.425995 0.895846 -0.126448
vn 0.406445 0.901925 -0.146064
vn 0.154833 0.983121 0.097465
vn 0.361813 0.918589 -0.159014
vn 0.150177 0.986173 0.070075
vn 0.314479 0.937770 -0.147277
vn 0.127875 0.990397 0.052547
vn 0.443738 0.882474 0.155997
vn 0.423620 0.898932 0.111655
vn 0.174320 0.974189 -0.143416
vn 0.173922 0.976975 -0.123575
vn 0.395632 0.916006 0.066390
vn 0.162055 0.975288 -0.150174
vn 0.343439 0.936726 0.067774
vn 0.129353 0.982704 -0.132521
vn 0.443738 0.882474 0.155997
vn 0.173922 0.976975 -0.123575
vn 0.174320 0.974189 -0.143416
vn 0.423620 0.898932 0.111655
vn 0.162055 0.975288 -0.150174
vn 0.395632 0.916006 0.066390
vn 0.129353 0.982704 -0.132521
vn 0.343439 0.936726 0.067774
vn 0.300711 0.926349 0.226828
vn 0.294845 0.939342 0.175222
vn 0.289939 0.937636 -0.191768
vn 0.300036 0.937631 -0.175573
vn 0.248152 0.960403 0.126675
vn 0.253527 0.948033 -0.192243
vn 0.215950 0.970820 0.104275
vn 0.223779 0.957987 -0.179397
vn 0.300711 0.926349 0.226828
vn 0.300036 0.937631 -0.175573
vn 0.289939 0.937636 -0.191768
vn 0.294845 0.939342 0.175222
vn 0.253527 0.948033 -0.192243
vn 0.248152 0.960403 0.126675
vn 0.223779 0.957987 -0.179397
vn 0.215950 0.970820 0.104275
vn 0.491447 0.870593 0.023396
vn 0.463423 0.885602 -0.030779
vn 0.120024 0.992422 -0.026313
vn 0.108384 0.993699 0.028568
vn 0.419536 0.905802 -0.059262
vn 0.114559 0.992508 -0.042480
vn 0.367445 0.928210 -0.058399
vn 0.093639 0.994793 -0.040224
vn 0.491447 0.870593 0.023396
vn 0.108384 0.993699 0.028568
vn 0.120024 0.992422 -0.026313
vn 0.463423 0.885602 -0.030779
vn 0.114559 0.992508 -0.042480
vn 0.419536 0.905802 -0.059262
vn 0.093639 0.994793 -0.040224
vn 0.367445 0.928210 -0.058399
vn 0.331931 0.941574 -0.057105
vn 0.217584 0.976018 0.006773
vn 0.246520 0.961933 0.117950
vn 0.400558 0.916270 0.001539
vn 0.199017 0.973760 0.110376
vn 0.204790 0.976329 0.069585
vn 0.157838 0.984285 0.079181
vn 0.177791 0.984054 -0.005223
vn 0.368348 0.929572 -0.014696
vn 0.246586 0.967969 -0.047246
vn 0.248345 0.967623 -0.045060
vn 0.386302 0.917122 0.098278
vn 0.181871 0.982700 0.034977
vn 0.266762 0.952001 0.150108
vn 0.159656 0.987144 -0.007521
vn 0.175913 0.981030 0.081460
vn 0.331931 0.941574 -0.057105
vn 0.400558 0.916270 0.001539
vn 0.246520 0.961933 0.117950
vn 0.217584 0.976018 0.006773
vn 0.204790 0.976329 0.069585
vn 0.199017 0.973760 0.110376
vn 0.177791 0.984054 -0.005223
vn 0.157838 0.984285 0.079181
vn 0.368348 0.929572 -0.014696
vn 0.386302 0.917122 0.098278
vn 0.248345 0.967623 -0.045060
vn 0.246586 0.967969 -0.047246
vn 0.266762 0.952001 0.150108
vn 0.181871 0.982700 0.034977
vn 0.175913 0.981030 0.081460
vn 0.159656 0.987144 -0.007521
vn 0.104318 0.971131 -0.214529
vn 0.023309 0.956609 -0.290441
vn 0.126307 0.980480 -0.150685
vn 0.139394 0.971742 -0.190492
vn -0.050201 0.998723 -0.005662
vn -0.012790 0.958222 -0.285739
vn -0.082577 0.996568 -0.005715
vn -0.215172 0.954180 -0.207945
vn -0.188508 0.978620 -0.082269
vn -0.191271 0.977620 -0.087603
vn 0.328321 0.884201 -0.332257
vn 0.357439 0.855416 -0.374834
vn 0.137138 0.856760 -0.497148
vn 0.121806 0.886565 -0.446279
vn 0.138326 0.833385 -0.535102
vn 0.369202 0.824763 -0.428318
vn 0.198567 0.682661 -0.703239
vn 0.437244 0.671390 -0.598376
vn 0.337704 0.638801 -0.691296
vn 0.339116 0.638830 -0.690577
vn 0.057335 0.934809 -0.350492
vn 0.131659 0.847060 -0.514932
vn -0.009728 0.954594 -0.297752
vn 0.053281 0.937466 -0.343974
vn -0.238246 0.905028 -0.352368
vn -0.046782 0.754983 -0.654074
vn -0.247652 0.845728 -0.472666
vn -0.094167 0.742839 -0.662814
vn -0.331104 0.690921 -0.642649
vn -0.330012 0.690291 -0.643887
vn 0.242396 0.946616 -0.212516
vn 0.209879 0.965889 -0.151688
vn 0.384229 0.863451 -0.326836
vn 0.278173 0.932463 -0.230504
vn 0.589184 0.761128 -0.271196
vn 0.304856 0.949950 0.068255
vn 0.591040 0.794944 -0.136877
vn 0.437145 0.898096 0.048248
vn 0.637317 0.764093 0.099945
vn 0.636411 0.764708 0.101005
vn 0.050488 0.972326 -0.228107
vn 0.047241 0.956072 -0.289302
vn 0.305543 0.813586 -0.494693
vn 0.325691 0.817429 -0.475116
vn 0.042208 0.947963 -0.315571
vn 0.259329 0.819517 -0.511018
vn 0.019532 0.942938 -0.332395
vn 0.210221 0.836911 -0.505358
vn 0.050488 0.972326 -0.228107
vn 0.325691 0.817429 -0.475116
vn 0.305543 0.813586 -0.494693
vn 0.047241 0.956072 -0.289302
vn 0.259329 0.819517 -0.511018
vn 0.042208 0.947963 -0.315571
vn 0.210221 0.836911 -0.505358
vn 0.019532 0.942938 -0.332395
vn 0.345534 0.914665 -0.209747
vn 0.323627 0.910870 -0.256089
vn 0.066944 0.857902 -0.509433
vn 0.066297 0.867993 -0.492131
vn 0.293828 0.906506 -0.303171
vn 0.054613 0.855113 -0.515557
vn 0.239695 0.920880 -0.307451
vn 0.021346 0.865408 -0.500613
vn 0.345534 0.914665 -0.209747
vn 0.066297 0.867993 -0.492131
vn 0.066944 0.857902 -0.509433
vn 0.323627 0.910870 -0.256089
vn 0.054613 0.855113 -0.515557
vn 0.293828 0.906506 -0.303171
vn 0.021346 0.865408 -0.500613
vn 0.239695 0.920880 -0.307451
vn 0.198771 0.967772 -0.154618
vn 0.191390 0.959441 -0.206987
vn 0.185723 0.817371 -0.545354
vn 0.195804 0.824551 -0.530827
vn 0.142554 0.955627 -0.257791
vn 0.148395 0.823121 -0.548134
vn 0.109351 0.953449 -0.281030
vn 0.117776 0.834209 -0.538725
vn 0.198771 0.967772 -0.154618
vn 0.195804 0.824551 -0.530827
vn 0.185723 0.817371 -0.545354
vn 0.191390 0.959441 -0.206987
vn 0.148395 0.823121 -0.548134
vn 0.142554 0.955627 -0.257791
vn 0.117776 0.834209 -0.538725
vn 0.109351 0.953449 -0.281030
vn 0.393900 0.857905 -0.329912
vn 0.364265 0.848241 -0.384446
vn 0.011298 0.913931 -0.405712
vn -0.000266 0.934884 -0.354955
vn 0.318366 0.851569 -0.416502
vn 0.005813 0.907298 -0.420449
vn 0.264149 0.867306 -0.421907
vn -0.015226 0.908177 -0.418310
vn 0.393900 0.857905 -0.329912
vn -0.000266 0.934884 -0.354955
vn 0.011298 0.913931 -0.405712
vn 0.364265 0.848241 -0.384446
vn 0.005813 0.907298 -0.420449
vn 0.318366 0.851569 -0.416502
vn -0.015226 0.908177 -0.418310
vn 0.264149 0.867306 -0.421907
vn 0.227396 0.876546 -0.424215
vn 0.110151 0.921189 -0.373199
vn 0.140743 0.953541 -0.266365
vn 0.298523 0.882497 -0.363433
vn 0.092215 0.956793 -0.275761
vn 0.097566 0.944166 -0.314694
vn 0.050052 0.950465 -0.306776
vn 0.069688 0.920037 -0.385585
vn 0.265015 0.885321 -0.382066
vn 0.139713 0.896069 -0.421355
vn 0.141505 0.896761 -0.419281
vn 0.284516 0.918768 -0.273708
vn 0.073998 0.934535 -0.348092
vn 0.162030 0.958697 -0.233764
vn 0.051319 0.920194 -0.388083
vn 0.068380 0.950141 -0.304230
vn 0.227396 0.876546 -0.424215
vn 0.298523 0.882497 -0.363433
vn 0.140743 0.953541 -0.266365
vn 0.110151 0.921189 -0.373199
vn 0.097566 0.944166 -0.314694
vn 0.092215 0.956793 -0.275761
vn 0.069688 0.920037 -0.385585
vn 0.050052 0.950465 -0.306776
vn 0.265015 0.885321 -0.382066
vn 0.284516 0.918768 -0.273708
vn 0.141505 0.896761 -0.419281
vn 0.139713 0.896069 -0.421355
vn 0.162030 0.958697 -0.233764
vn 0.073998 0.934535 -0.348092
vn 0.068380 0.950141 -0.304230
vn 0.051319 0.920194 -0.388083
vn -0.178662 0.945856 0.270991
vn -0.252294 0.949464 0.186722
vn -0.160123 0.928757 0.334323
vn -0.145174 0.943740 0.297118
vn -0.334127 0.830193 0.446249
vn -0.287332 0.939455 0.186720
vn -0.364530 0.820228 0.440845
vn -0.479900 0.847745 0.225885
vn -0.461061 0.814964 0.351078
vn -0.463435 0.815976 0.345561
vn 0.060581 0.985587 0.157949
vn 0.096625 0.989080 0.111282
vn -0.115117 0.993031 -0.025266
vn -0.138224 0.989915 0.031014
vn -0.107372 0.991811 -0.069162
vn 0.116550 0.991831 0.051835
vn -0.006878 0.960605 -0.277833
vn 0.225272 0.961286 -0.158686
vn 0.139019 0.953145 -0.268680
vn 0.140365 0.953182 -0.267845
vn -0.213590 0.968426 0.128572
vn -0.117629 0.991988 -0.046074
vn -0.283387 0.942919 0.174918
vn -0.218219 0.966522 0.134968
vn -0.488265 0.869605 0.073378
vn -0.262548 0.935967 -0.234594
vn -0.480572 0.874849 -0.060749
vn -0.304491 0.917960 -0.254235
vn -0.516588 0.804794 -0.292307
vn -0.515364 0.805131 -0.293536
vn -0.039343 0.959150 0.280150
vn -0.075877 0.938072 0.338029
vn 0.120102 0.979662 0.160741
vn -0.001052 0.964880 0.262689
vn 0.345905 0.918759 0.190348
vn 0.020196 0.843517 0.536723
vn 0.338308 0.883469 0.324084
vn 0.161748 0.842876 0.513223
vn 0.392030 0.755999 0.524193
vn 0.390989 0.755781 0.525284
vn -0.230610 0.939755 0.252348
vn -0.229208 0.954513 0.190706
vn 0.058605 0.998077 -0.020182
vn 0.076853 0.997041 0.001496
vn -0.231769 0.958977 0.163234
vn 0.012590 0.999197 -0.038037
vn -0.252095 0.957064 0.143093
vn -0.039429 0.998719 -0.031717
vn -0.230610 0.939755 0.252348
vn 0.076853 0.997041 0.001496
vn 0.058605 0.998077 -0.020182
vn -0.229208 0.954513 0.190706
vn 0.012590 0.999197 -0.038037
vn -0.231769 0.958977 0.163234
vn -0.039429 0.998719 -0.031717
vn -0.252095 0.957064 0.143093
vn 0.068632 0.957001 0.281849
vn 0.048623 0.970427 0.236449
vn -0.182726 0.982133 -0.045005
vn -0.186195 0.982188 -0.025268
vn 0.021213 0.981734 0.189071
vn -0.193755 0.979600 -0.053327
vn -0.034779 0.982198 0.184598
vn -0.228542 0.972713 -0.039969
vn 0.068632 0.957001 0.281849
vn -0.186195 0.982188 -0.025268
vn -0.182726 0.982133 -0.045005
vn 0.048623 0.970427 0.236449
vn -0.193755 0.979600 -0.053327
vn 0.021213 0.981734 0.189071
vn -0.228542 0.972713 -0.039969
vn -0.034779 0.982198 0.184598
vn -0.087065 0.938251 0.334820
vn -0.091872 0.954411 0.284005
vn -0.057397 0.995212 -0.079114
vn -0.049761 0.996854 -0.061701
vn -0.137687 0.963152 0.231042
vn -0.094815 0.991948 -0.083957
vn -0.168929 0.964042 0.205150
vn -0.127305 0.989044 -0.074739
vn -0.087065 0.938251 0.334820
vn -0.049761 0.996854 -0.061701
vn -0.057397 0.995212 -0.079114
vn -0.091872 0.954411 0.284005
vn -0.094815 0.991948 -0.083957
vn -0.137687 0.963152 0.231042
vn -0.127305 0.989044 -0.074739
vn -0.168929 0.964042 0.205150
vn 0.130949 0.978911 0.156801
vn 0.105198 0.989363 0.100470
vn -0.251847 0.965630 0.064282
vn -0.268809 0.956072 0.116912
vn 0.060194 0.995892 0.067646
vn -0.255236 0.965709 0.047556
vn 0.003729 0.998019 0.062799
vn -0.275640 0.960111 0.046999
vn 0.130949 0.978911 0.156801
vn -0.268809 0.956072 0.116912
vn -0.251847 0.965630 0.064282
vn 0.105198 0.989363 0.100470
vn -0.255236 0.965709 0.047556
vn 0.060194 0.995892 0.067646
vn -0.275640 0.960111 0.046999
vn 0.003729 0.998019 0.062799
vn -0.034137 0.997612 0.060048
vn -0.159138 0.981164 0.109508
vn -0.138846 0.965039 0.222310
vn 0.032448 0.991529 0.125764
vn -0.186293 0.960007 0.208999
vn -0.177640 0.969347 0.169735
vn -0.224949 0.958860 0.173166
vn -0.197604 0.975895 0.092641
vn -0.000509 0.994348 0.106171
vn -0.123731 0.990519 0.059681
vn -0.122208 0.990562 0.062062
vn 0.008848 0.975614 0.219317
vn -0.197540 0.971258 0.132803
vn -0.119851 0.959170 0.256182
vn -0.215255 0.972581 0.088039
vn -0.207291 0.962000 0.177727
vn -0.034137 0.997612 0.060048
vn 0.032448 0.991529 0.125764
vn -0.138846 0.965039 0.222310
vn -0.159138 0.981164 0.109508
vn -0.177640 0.969347 0.169735
vn -0.186293 0.960007 0.208999
vn -0.197604 0.975895 0.092641
vn -0.224949 0.958860 0.173166
vn -0.000509 0.994348 0.106171
vn 0.008848 0.975614 0.219317
vn -0.122208 0.990562 0.062062
vn -0.123731 0.990519 0.059681
vn -0.119851 0.959170 0.256182
vn -0.197540 0.971258 0.132803
vn -0.207291 0.962000 0.177727
vn -0.215255 0.972581 0.088039
vn 0.031922 0.968032 -0.248786
vn 0.117611 0.941510 -0.315794
vn -0.034598 0.971547 -0.234304
vn 0.004441 0.976084 -0.217346
vn -0.160378 0.897437 -0.410958
vn 0.116685 0.929398 -0.350149
vn -0.156408 0.884130 -0.440285
vn 0.063385 0.839248 -0.540041
vn -0.066774 0.845867 -0.529198
vn -0.061076 0.845049 -0.531189
vn 0.137566 0.990485 -0.003981
vn 0.181001 0.982849 0.035316
vn 0.324656 0.931296 -0.165186
vn 0.271417 0.943042 -0.192364
vn 0.365697 0.917900 -0.154028
vn 0.237337 0.969598 0.059589
vn 0.549581 0.834654 -0.036245
vn 0.422703 0.887044 0.185673
vn 0.530175 0.840891 0.108703
vn 0.529312 0.841269 0.109977
vn 0.176418 0.945474 -0.273780
vn 0.344332 0.924051 -0.166028
vn 0.128734 0.929549 -0.345495
vn 0.170025 0.945184 -0.278782
vn 0.215747 0.815017 -0.537774
vn 0.515911 0.805040 -0.292824
vn 0.344733 0.781473 -0.520057
vn 0.531744 0.779068 -0.332118
vn 0.546869 0.644504 -0.534368
vn 0.548069 0.644557 -0.533072
vn 0.019033 0.993584 -0.111485
vn -0.040267 0.987682 -0.151204
vn 0.129695 0.990006 0.055378
vn 0.035154 0.996762 -0.072320
vn 0.070330 0.957089 0.281132
vn -0.263271 0.962471 -0.065862
vn -0.067182 0.961869 0.265130
vn -0.249275 0.965374 0.076915
vn -0.298817 0.902578 0.309938
vn -0.299861 0.902612 0.308829
vn 0.050908 0.952973 -0.298748
vn 0.113966 0.949178 -0.293383
vn 0.311214 0.950313 0.007117
vn 0.289180 0.956982 0.023669
vn 0.141629 0.945238 -0.294052
vn 0.331242 0.942805 -0.037380
vn 0.161446 0.936053 -0.312636
vn 0.328095 0.940383 -0.089633
vn 0.050908 0.952973 -0.298748
vn 0.289180 0.956982 0.023669
vn 0.311214 0.950313 0.007117
vn 0.113966 0.949178 -0.293383
vn 0.331242 0.942805 -0.037380
vn 0.141629 0.945238 -0.294052
vn 0.328095 0.940383 -0.089633
vn 0.161446 0.936053 -0.312636
vn 0.010508 0.999937 -0.004001
vn 0.058930 0.998038 -0.021134
vn 0.344177 0.910196 -0.230402
vn 0.325576 0.915749 -0.235379
vn 0.109039 0.993002 -0.045372
vn 0.352002 0.904545 -0.240607
vn 0.116692 0.988040 -0.100798
vn 0.339248 0.899325 -0.275907
vn 0.010508 0.999937 -0.004001
vn 0.325576 0.915749 -0.235379
vn 0.344177 0.910196 -0.230402
vn 0.058930 0.998038 -0.021134
vn 0.352002 0.904545 -0.240607
vn 0.109039 0.993002 -0.045372
vn 0.339248 0.899325 -0.275907
vn 0.116692 0.988040 -0.100798
vn -0.036504 0.986098 -0.162106
vn 0.017006 0.986342 -0.163831
vn 0.373290 0.921902 -0.103685
vn 0.356730 0.929104 -0.097511
vn 0.072751 0.975881 -0.205827
vn 0.379115 0.914638 -0.140393
vn 0.099514 0.966892 -0.234984
vn 0.371354 0.912176 -0.173298
vn -0.036504 0.986098 -0.162106
vn 0.356730 0.929104 -0.097511
vn 0.373290 0.921902 -0.103685
vn 0.017006 0.986342 -0.163831
vn 0.379115 0.914638 -0.140393
vn 0.072751 0.975881 -0.205827
vn 0.371354 0.912176 -0.173298
vn 0.099514 0.966892 -0.234984
vn 0.132599 0.988935 0.066520
vn 0.190895 0.980594 0.044669
vn 0.239108 0.921260 -0.306769
vn 0.187085 0.926248 -0.327207
vn 0.226736 0.973954 0.002046
vn 0.255276 0.916210 -0.308858
vn 0.235267 0.970435 -0.053911
vn 0.255335 0.909215 -0.328834
vn 0.132599 0.988935 0.066520
vn 0.187085 0.926248 -0.327207
vn 0.239108 0.921260 -0.306769
vn 0.190895 0.980594 0.044669
vn 0.255276 0.916210 -0.308858
vn 0.226736 0.973954 0.002046
vn 0.255335 0.909215 -0.328834
vn 0.235267 0.970435 -0.053911
vn 0.239967 0.966471 -0.091376
vn 0.195201 0.956052 -0.218772
vn 0.081702 0.975049 -0.206407
vn 0.171645 0.984707 -0.029826
vn 0.095659 0.962895 -0.252356
vn 0.135357 0.960988 -0.241209
vn 0.131729 0.948521 -0.288021
vn 0.211958 0.943291 -0.255491
vn 0.193073 0.979269 -0.061277
vn 0.243422 0.953039 -0.180176
vn 0.241076 0.953885 -0.178844
vn 0.079108 0.995077 -0.059689
vn 0.172290 0.950584 -0.258277
vn 0.046567 0.980719 -0.189796
vn 0.216389 0.937497 -0.272535
vn 0.127283 0.954139 -0.270957
vn 0.239967 0.966471 -0.091376
vn 0.171645 0.984707 -0.029826
vn 0.081702 0.975049 -0.206407
vn 0.195201 0.956052 -0.218772
vn 0.135357 0.960988 -0.241209
vn 0.095659 0.962895 -0.252356
vn 0.211958 0.943291 -0.255491
vn 0.131729 0.948521 -0.288021
vn 0.193073 0.979269 -0.061277
vn 0.079108 0.995077 -0.059689
vn 0.241076 0.953885 -0.178844
vn 0.243422 0.953039 -0.180176
vn 0.046567 0.980719 -0.189796
vn 0.172290 0.950584 -0.258277
vn 0.127283 0.954139 -0.270957
vn 0.216389 0.937497 -0.272535
vn -0.027292 0.910176 0.413321
vn -0.116906 0.929758 0.349118
vn 0.002982 0.883566 0.468297
vn 0.010754 0.902443 0.430675
vn -0.150677 0.782068 0.604704
vn -0.151866 0.922082 0.355951
vn -0.182311 0.774869 0.605260
vn -0.338827 0.838333 0.427075
vn -0.296188 0.787870 0.539938
vn -0.299606 0.789763 0.535266
vn 0.184087 0.949510 0.254054
vn 0.209227 0.956961 0.201123
vn -0.025948 0.992676 0.117985
vn -0.036387 0.983485 0.177294
vn -0.028128 0.996888 0.073647
vn 0.215848 0.966420 0.139437
vn 0.021033 0.987747 -0.154642
vn 0.272660 0.957659 -0.092443
vn 0.164083 0.969885 -0.179999
vn 0.165577 0.969725 -0.179496
vn -0.090265 0.953882 0.286290
vn -0.033031 0.994606 0.098326
vn -0.150293 0.926846 0.344047
vn -0.093540 0.951431 0.293307
vn -0.378264 0.881010 0.284143
vn -0.220166 0.973777 -0.057322
vn -0.399615 0.903763 0.153363
vn -0.266863 0.961274 -0.068828
vn -0.491648 0.867944 -0.070401
vn -0.490696 0.868365 -0.071830
vn 0.111280 0.913253 0.391899
vn 0.086494 0.886936 0.453722
vn 0.241975 0.939500 0.242461
vn 0.145191 0.918842 0.366945
vn 0.462202 0.860970 0.212369
vn 0.214537 0.760594 0.612756
vn 0.480796 0.808551 0.339235
vn 0.346860 0.754147 0.557630
vn 0.564976 0.652156 0.505466
vn 0.564182 0.651860 0.506732
vn -0.082394 0.909947 0.406457
vn -0.093143 0.932750 0.348285
vn 0.144395 0.985965 0.083801
vn 0.166764 0.980866 0.100462
vn -0.101222 0.941025 0.322840
vn 0.095894 0.992394 0.077186
vn -0.125545 0.943134 0.307794
vn 0.046695 0.994370 0.095124
vn -0.082394 0.909947 0.406457
vn 0.166764 0.980866 0.100462
vn 0.144395 0.985965 0.083801
vn -0.093143 0.932750 0.348285
vn 0.095894 0.992394 0.077186
vn -0.101222 0.941025 0.322840
vn 0.046695 0.994370 0.095124
vn -0.125545 0.943134 0.307794
vn 0.216349 0.904052 0.368622
vn 0.188226 0.924709 0.330883
vn -0.096946 0.988845 0.113078
vn -0.095998 0.986462 0.132954
vn 0.152286 0.944007 0.292677
vn -0.109712 0.988159 0.107258
vn 0.096956 0.948619 0.301200
vn -0.141223 0.981758 0.127311
vn 0.216349 0.904052 0.368622
vn -0.095998 0.986462 0.132954
vn -0.096946 0.988845 0.113078
vn 0.188226 0.924709 0.330883
vn -0.109712 0.988159 0.107258
vn 0.152286 0.944007 0.292677
vn -0.141223 0.981758 0.127311
vn 0.096956 0.948619 0.301200
vn 0.074940 0.888255 0.453197
vn 0.060654 0.911380 0.407072
vn 0.018560 0.998422 0.053009
vn 0.029935 0.997217 0.068286
vn 0.005377 0.930059 0.367371
vn -0.019149 0.998219 0.056495
vn -0.030549 0.936405 0.349588
vn -0.048966 0.996167 0.072487
vn 0.074940 0.888255 0.453197
vn 0.029935 0.997217 0.068286
vn 0.018560 0.998422 0.053009
vn 0.060654 0.911380 0.407072
vn -0.019149 0.998219 0.056495
vn 0.005377 0.930059 0.367371
vn -0.048966 0.996167 0.072487
vn -0.030549 0.936405 0.349588
vn 0.251583 0.938599 0.236087
vn 0.215219 0.958152 0.188748
vn -0.141736 0.962197 0.232567
vn -0.147595 0.946736 0.286193
vn 0.164928 0.971881 0.168069
vn -0.148676 0.964742 0.217184
vn 0.109209 0.978218 0.176532
vn -0.169135 0.960576 0.220653
vn 0.251583 0.938599 0.236087
vn -0.147595 0.946736 0.286193
vn -0.141736 0.962197 0.232567
vn 0.215219 0.958152 0.188748
vn -0.148676 0.964742 0.217184
vn 0.164928 0.971881 0.168069
vn -0.169135 0.960576 0.220653
vn 0.109209 0.978218 0.176532
vn 0.071785 0.980586 0.182477
vn -0.040359 0.965591 0.256915
vn 0.002518 0.933174 0.359417
vn 0.150270 0.961503 0.230068
vn -0.046948 0.932999 0.356804
vn -0.046261 0.946972 0.317969
vn -0.092437 0.939139 0.330868
vn -0.081899 0.965090 0.248784
vn 0.114232 0.969017 0.218991
vn -0.015988 0.979304 0.201761
vn -0.013983 0.978930 0.203719
vn 0.146319 0.934667 0.324019
vn -0.073488 0.955094 0.287044
vn 0.027832 0.921605 0.387129
vn -0.100356 0.963553 0.247982
vn -0.073997 0.940510 0.331609
vn 0.071785 0.980586 0.182477
vn 0.150270 0.961503 0.230068
vn 0.002518 0.933174 0.359417
vn -0.040359 0.965591 0.256915
vn -0.046261 0.946972 0.317969
vn -0.046948 0.932999 0.356804
vn -0.081899 0.965090 0.248784
vn -0.092437 0.939139 0.330868
vn 0.114232 0.969017 0.218991
vn 0.146319 0.934667 0.324019
vn -0.013983 0.978930 0.203719
vn -0.015988 0.979304 0.201761
vn 0.027832 0.921605 0.387129
vn -0.073488 0.955094 0.287044
vn -0.073997 0.940510 0.331609
vn -0.100356 0.963553 0.247982
s 1
g Foliage:pPlane228
usemtl lambert2SG
f 1/1/1 2/2/2 7/7/3 6/6/4
f 8/8/5 7/7/3 2/2/2 3/3/6
f 9/9/7 8/8/5 3/3/6 4/4/8
f 10/10/9 9/9/7 4/4/8 5/5/10
s 2
f 11/11/11 12/12/12 17/13/13 16/14/14
f 18/15/15 17/13/13 12/12/12 13/16/16
f 19/17/17 18/15/15 13/16/16 14/18/18
f 20/19/19 19/17/17 14/18/18 15/20/20
s 3
f 21/21/21 22/22/22 27/23/23 26/24/24
f 28/25/25 27/23/23 22/22/22 23/26/26
f 29/27/27 28/25/25 23/26/26 24/28/28
f 30/29/29 29/27/27 24/28/28 25/30/30
s 4
f 31/31/31 32/32/32 37/33/33 36/34/34
f 38/35/35 37/33/33 32/32/32 33/36/36
f 39/37/37 38/35/35 33/36/36 34/38/38
f 40/39/39 39/37/37 34/38/38 35/40/40
s 5
f 41/41/41 43/42/42 44/43/43 42/44/44
f 43/42/42 45/45/45 46/46/46 44/43/43
f 45/45/45 47/47/47 48/48/48 46/46/46
s 6
f 49/49/49 50/50/50 52/51/51 51/52/52
f 51/52/52 52/51/51 54/53/53 53/54/54
f 53/54/54 54/53/53 56/55/55 55/56/56
s 7
f 57/57/57 59/58/58 60/59/59 58/60/60
f 59/58/58 61/61/61 62/62/62 60/59/59
f 61/61/61 63/63/63 64/64/64 62/62/62
s 8
f 65/65/65 66/66/66 68/67/67 67/68/68
f 67/68/68 68/67/67 70/69/69 69/70/70
f 69/70/70 70/69/69 72/71/71 71/72/72
s 9
f 73/73/73 75/74/74 76/75/75 74/76/76
f 75/74/74 77/77/77 78/78/78 76/75/75
f 77/77/77 79/79/79 80/80/80 78/78/78
s 10
f 81/81/81 82/82/82 84/83/83 83/84/84
f 83/84/84 84/83/83 86/85/85 85/86/86
f 85/86/86 86/85/85 88/87/87 87/88/88
s 11
f 89/89/89 91/90/90 92/91/91 90/92/92
f 91/90/90 93/93/93 94/94/94 92/91/91
f 93/93/93 95/95/95 96/96/96 94/94/94
s 12
f 97/97/97 98/98/98 100/99/99 99/100/100
f 99/100/100 100/99/99 102/101/101 101/102/102
f 101/102/102 102/101/101 104/103/103 103/104/104
s 13
f 105/105/105 109/106/106 110/107/107 106/108/108
f 106/108/108 110/107/107 111/109/109 107/110/110
f 107/110/110 111/109/109 112/111/111 108/112/112
s 14
f 113/113/113 117/114/114 118/115/115 114/116/116
f 114/116/116 118/115/115 119/117/117 115/118/118
f 115/118/118 119/117/117 120/119/119 116/120/120
s 15
f 121/121/121 122/122/122 126/123/123 125/124/124
f 122/122/122 123/125/125 127/126/126 126/123/123
f 123/125/125 124/127/127 128/128/128 127/126/126
s 16
f 129/129/129 130/130/130 134/131/131 133/132/132
f 130/130/130 131/133/133 135/134/134 134/131/131
f 131/133/133 132/135/135 136/136/136 135/134/134
s 17
f 137/137/137 138/138/138 143/139/139 142/140/140
f 144/141/141 143/139/139 138/138/138 139/142/142
f 145/143/143 144/141/141 139/142/142 140/144/144
f 146/145/145 145/143/143 140/144/144 141/146/146
s 18
f 147/147/147 148/148/148 153/149/149 152/150/150
f 154/151/151 153/149/149 148/148/148 149/152/152
f 155/153/153 154/151/151 149/152/152 150/154/154
f 156/155/155 155/153/153 150/154/154 151/156/156
s 19
f 157/157/157 158/158/158 163/159/159 162/160/160
f 164/161/161 163/159/159 158/158/158 159/162/162
f 165/163/163 164/161/161 159/162/162 160/164/164
f 166/165/165 165/163/163 160/164/164 161/166/166
s 20
f 167/167/167 168/168/168 173/169/169 172/170/170
f 174/171/171 173/169/169 168/168/168 169/172/172
f 175/173/173 174/171/171 169/172/172 170/174/174
f 176/175/175 175/173/173 170/174/174 171/176/176
s 21
f 177/177/177 179/178/178 180/179/179 178/180/180
f 179/178/178 181/181/181 182/182/182 180/179/179
f 181/181/181 183/183/183 184/184/184 182/182/182
s 22
f 185/185/185 186/186/186 188/187/187 187/188/188
f 187/188/188 188/187/187 190/189/189 189/190/190
f 189/190/190 190/189/189 192/191/191 191/192/192
s 23
f 193/193/193 195/194/194 196/195/195 194/196/196
f 195/194/194 197/197/197 198/198/198 196/195/195
f 197/197/197 199/199/199 200/200/200 198/198/198
s 24
f 201/201/201 202/202/202 204/203/203 203/204/204
f 203/204/204 204/203/203 206/205/205 205/206/206
f 205/206/206 206/205/205 208/207/207 207/208/208
s 25
f 209/209/209 211/210/210 212/211/211 210/212/212
f 211/210/210 213/213/213 214/214/214 212/211/211
f 213/213/213 215/215/215 216/216/216 214/214/214
s 26
f 217/217/217 218/218/218 220/219/219 219/220/220
f 219/220/220 220/219/219 222/221/221 221/222/222
f 221/222/222 222/221/221 224/223/223 223/224/224
s 27
f 225/225/225 227/226/226 228/227/227 226/228/228
f 227/226/226 229/229/229 230/230/230 228/227/227
f 229/229/229 231/231/231 232/232/232 230/230/230
s 28
f 233/233/233 234/234/234 236/235/235 235/236/236
f 235/236/236 236/235/235 238/237/237 237/238/238
f 237/238/238 238/237/237 240/239/239 239/240/240
s 29
f 241/241/241 245/242/242 246/243/243 242/244/244
f 242/244/244 246/243/243 247/245/245 243/246/246
f 243/246/246 247/245/245 248/247/247 244/248/248
s 30
f 249/249/249 253/250/250 254/251/251 250/252/252
f 250/252/252 254/251/251 255/253/253 251/254/254
f 251/254/254 255/253/253 256/255/255 252/256/256
s 31
f 257/257/257 258/258/258 262/259/259 261/260/260
f 258/258/258 259/261/261 263/262/262 262/259/259
f 259/261/261 260/263/263 264/264/264 263/262/262
s 32
f 265/265/265 266/266/266 270/267/267 269/268/268
f 266/266/266 267/269/269 271/270/270 270/267/267
f 267/269/269 268/271/271 272/272/272 271/270/270
s 33
f 273/273/273 274/274/274 279/275/275 278/276/276
f 280/277/277 279/275/275 274/274/274 275/278/278
f 281/279/279 280/277/277 275/278/278 276/280/280
f 282/281/281 281/279/279 276/280/280 277/282/282
s 34
f 283/283/283 284/284/284 289/285/285 288/286/286
f 290/287/287 289/285/285 284/284/284 285/288/288
f 291/289/289 290/287/287 285/288/288 286/290/290
f 292/291/291 291/289/289 286/290/290 287/292/292
s 35
f 293/293/293 294/294/294 299/295/295 298/296/296
f 300/297/297 299/295/295 294/294/294 295/298/298
f 301/299/299 300/297/297 295/298/298 296/300/300
f 302/301/301 301/299/299 296/300/300 297/302/302
s 36
f 303/303/303 304/304/304 309/305/305 308/306/306
f 310/307/307 309/305/305 304/304/304 305/308/308
f 311/309/309 310/307/307 305/308/308 306/310/310
f 312/311/311 311/309/309 306/310/310 307/312/312
s 37
f 313/313/313 315/314/314 316/315/315 314/316/316
f 315/314/314 317/317/317 318/318/318 316/315/315
f 317/317/317 319/319/319 320/320/320 318/318/318
s 38
f 321/321/321 322/322/322 324/323/323 323/324/324
f 323/324/324 324/323/323 326/325/325 325/326/326
f 325/326/326 326/325/325 328/327/327 327/328/328
s 39
f 329/329/329 331/330/330 332/331/331 330/332/332
f 331/330/330 333/333/333 334/334/334 332/331/331
f 333/333/333 335/335/335 336/336/336 334/334/334
s 40
f 337/337/337 338/338/338 340/339/339 339/340/340
f 339/340/340 340/339/339 342/341/341 341/342/342
f 341/342/342 342/341/341 344/343/343 343/344/344
s 41
f 345/345/345 347/346/346 348/347/347 346/348/348
f 347/346/346 349/349/349 350/350/350 348/347/347
f 349/349/349 351/351/351 352/352/352 350/350/350
s 42
f 353/353/353 354/354/354 356/355/355 355/356/356
f 355/356/356 356/355/355 358/357/357 357/358/358
f 357/358/358 358/357/357 360/359/359 359/360/360
s 43
f 361/361/361 363/362/362 364/363/363 362/364/364
f 363/362/362 365/365/365 366/366/366 364/363/363
f 365/365/365 367/367/367 368/368/368 366/366/366
s 44
f 369/369/369 370/370/370 372/371/371 371/372/372
f 371/372/372 372/371/371 374/373/373 373/374/374
f 373/374/374 374/373/373 376/375/375 375/376/376
s 45
f 377/377/377 381/378/378 382/379/379 378/380/380
f 378/380/380 382/379/379 383/381/381 379/382/382
f 379/382/382 383/381/381 384/383/383 380/384/384
s 46
f 385/385/385 389/386/386 390/387/387 386/388/388
f 386/388/388 390/387/387 391/389/389 387/390/390
f 387/390/390 391/389/389 392/391/391 388/392/392
s 47
f 393/393/393 394/394/394 398/395/395 397/396/396
f 394/394/394 395/397/397 399/398/398 398/395/395
f 395/397/397 396/399/399 400/400/400 399/398/398
s 48
f 401/401/401 402/402/402 406/403/403 405/404/404
f 402/402/402 403/405/405 407/406/406 406/403/403
f 403/405/405 404/407/407 408/408/408 407/406/406
s 49
f 409/409/409 410/410/410 415/411/411 414/412/412
f 416/413/413 415/411/411 410/410/410 411/414/414
f 417/415/415 416/413/413 411/414/414 412/416/416
f 418/417/417 417/415/415 412/416/416 413/418/418
s 50
f 419/419/419 420/420/420 425/421/421 424/422/422
f 426/423/423 425/421/421 420/420/420 421/424/424
f 427/425/425 426/423/423 421/424/424 422/426/426
f 428/427/427 427/425/425 422/426/426 423/428/428
s 51
f 429/429/429 430/430/430 435/431/431 434/432/432
f 436/433/433 435/431/431 430/430/430 431/434/434
f 437/435/435 436/433/433 431/434/434 432/436/436
f 438/437/437 437/435/435 432/436/436 433/438/438
s 52
f 439/439/439 440/440/440 445/441/441 444/442/442
f 446/443/443 445/441/441 440/440/440 441/444/444
f 447/445/445 446/443/443 441/444/444 442/446/446
f 448/447/447 447/445/445 442/446/446 443/448/448
s 53
f 449/449/449 451/450/450 452/451/451 450/452/452
f 451/450/450 453/453/453 454/454/454 452/451/451
f 453/453/453 455/455/455 456/456/456 454/454/454
s 54
f 457/457/457 458/458/458 460/459/459 459/460/460
f 459/460/460 460/459/459 462/461/461 461/462/462
f 461/462/462 462/461/461 464/463/463 463/464/464
s 55
f 465/465/465 467/466/466 468/467/467 466/468/468
f 467/466/466 469/469/469 470/470/470 468/467/467
f 469/469/469 471/471/471 472/472/472 470/470/470
s 56
f 473/473/473 474/474/474 476/475/475 475/476/476
f 475/476/476 476/475/475 478/477/477 477/478/478
f 477/478/478 478/477/477 480/479/479 479/480/480
s 57
f 481/481/481 483/482/482 484/483/483 482/484/484
f 483/482/482 485/485/485 486/486/486 484/483/483
f 485/485/485 487/487/487 488/488/488 486/486/486
s 58
f 489/489/489 490/490/490 492/491/491 491/492/492
f 491/492/492 492/491/491 494/493/493 493/494/494
f 493/494/494 494/493/493 496/495/495 495/496/496
s 59
f 497/497/497 499/498/498 500/499/499 498/500/500
f 499/498/498 501/501/501 502/502/502 500/499/499
f 501/501/501 503/503/503 504/504/504 502/502/502
s 60
f 505/505/505 506/506/506 508/507/507 507/508/508
f 507/508/508 508/507/507 510/509/509 509/510/510
f 509/510/510 510/509/509 512/511/511 511/512/512
s 61
f 513/513/513 517/514/514 518/515/515 514/516/516
f 514/516/516 518/515/515 519/517/517 515/518/518
f 515/518/518 519/517/517 520/519/519 516/520/520
s 62
f 521/521/521 525/522/522 526/523/523 522/524/524
f 522/524/524 526/523/523 527/525/525 523/526/526
f 523/526/526 527/525/525 528/527/527 524/528/528
s 63
f 529/529/529 530/530/530 534/531/531 533/532/532
f 530/530/530 531/533/533 535/534/534 534/531/531
f 531/533/533 532/535/535 536/536/536 535/534/534
s 64
f 537/537/537 538/538/538 542/539/539 541/540/540
f 538/538/538 539/541/541 543/542/542 542/539/539
f 539/541/541 540/543/543 544/544/544 543/542/542
s 65
f 545/545/545 546/546/546 551/547/547 550/548/548
f 552/549/549 551/547/547 546/546/546 547/550/550
f 553/551/551 552/549/549 547/550/550 548/552/552
f 554/553/553 553/551/551 548/552/552 549/554/554
s 66
f 555/555/555 556/556/556 561/557/557 560/558/558
f 562/559/559 561/557/557 556/556/556 557/560/560
f 563/561/561 562/559/559 557/560/560 558/562/562
f 564/563/563 563/561/561 558/562/562 559/564/564
s 67
f 565/565/565 566/566/566 571/567/567 570/568/568
f 572/569/569 571/567/567 566/566/566 567/570/570
f 573/571/571 572/569/569 567/570/570 568/572/572
f 574/573/573 573/571/571 568/572/572 569/574/574
s 68
f 575/575/575 576/576/576 581/577/577 580/578/578
f 582/579/579 581/577/577 576/576/576 577/580/580
f 583/581/581 582/579/579 577/580/580 578/582/582
f 584/583/583 583/581/581 578/582/582 579/584/584
s 69
f 585/585/585 587/586/586 588/587/587 586/588/588
f 587/586/586 589/589/589 590/590/590 588/587/587
f 589/589/589 591/591/591 592/592/592 590/590/590
s 70
f 593/593/593 594/594/594 596/595/595 595/596/596
f 595/596/596 596/595/595 598/597/597 597/598/598
f 597/598/598 598/597/597 600/599/599 599/600/600
s 71
f 601/601/601 603/602/602 604/603/603 602/604/604
f 603/602/602 605/605/605 606/606/606 604/603/603
f 605/605/605 607/607/607 608/608/608 606/606/606
s 72
f 609/609/609 610/610/610 612/611/611 611/612/612
f 611/612/612 612/611/611 614/613/613 613/614/614
f 613/614/614 614/613/613 616/615/615 615/616/616
s 73
f 617/617/617 619/618/618 620/619/619 618/620/620
f 619/618/618 621/621/621 622/622/622 620/619/619
f 621/621/621 623/623/623 624/624/624 622/622/622
s 74
f 625/625/625 626/626/626 628/627/627 627/628/628
f 627/628/628 628/627/627 630/629/629 629/630/630
f 629/630/630 630/629/629 632/631/631 631/632/632
s 75
f 633/633/633 635/634/634 636/635/635 634/636/636
f 635/634/634 637/637/637 638/638/638 636/635/635
f 637/637/637 639/639/639 640/640/640 638/638/638
s 76
f 641/641/641 642/642/642 644/643/643 643/644/644
f 643/644/644 644/643/643 646/645/645 645/646/646
f 645/646/646 646/645/645 648/647/647 647/648/648
s 77
f 649/649/649 653/650/650 654/651/651 650/652/652
f 650/652/652 654/651/651 655/653/653 651/654/654
f 651/654/654 655/653/653 656/655/655 652/656/656
s 78
f 657/657/657 661/658/658 662/659/659 658/660/660
f 658/660/660 662/659/659 663/661/661 659/662/662
f 659/662/662 663/661/661 664/663/663 660/664/664
s 79
f 665/665/665 666/666/666 670/667/667 669/668/668
f 666/666/666 667/669/669 671/670/670 670/667/667
f 667/669/669 668/671/671 672/672/672 671/670/670
s 80
f 673/673/673 674/674/674 678/675/675 677/676/676
f 674/674/674 675/677/677 679/678/678 678/675/675
f 675/677/677 676/679/679 680/680/680 679/678/678
s 81
f 681/681/681 682/682/682 687/683/683 686/684/684
f 688/685/685 687/683/683 682/682/682 683/686/686
f 689/687/687 688/685/685 683/686/686 684/688/688
f 690/689/689 689/687/687 684/688/688 685/690/690
s 82
f 691/691/691 692/692/692 697/693/693 696/694/694
f 698/695/695 697/693/693 692/692/692 693/696/696
f 699/697/697 698/695/695 693/696/696 694/698/698
f 700/699/699 699/697/697 694/698/698 695/700/700
s 83
f 701/701/701 702/702/702 707/703/703 706/704/704
f 708/705/705 707/703/703 702/702/702 703/706/706
f 709/707/707 708/705/705 703/706/706 704/708/708
f 710/709/709 709/707/707 704/708/708 705/710/710
s 84
f 711/711/711 712/712/712 717/713/713 716/714/714
f 718/715/715 717/713/713 712/712/712 713/716/716
f 719/717/717 718/715/715 713/716/716 714/718/718
f 720/719/719 719/717/717 714/718/718 715/720/720
s 85
f 721/721/721 723/722/722 724/723/723 722/724/724
f 723/722/722 725/725/725 726/726/726 724/723/723
f 725/725/725 727/727/727 728/728/728 726/726/726
s 86
f 729/729/729 730/730/730 732/731/731 731/732/732
f 731/732/732 732/731/731 734/733/733 733/734/734
f 733/734/734 734/733/733 736/735/735 735/736/736
s 87
f 737/737/737 739/738/738 740/739/739 738/740/740
f 739/738/738 741/741/741 742/742/742 740/739/739
f 741/741/741 743/743/743 744/744/744 742/742/742
s 88
f 745/745/745 746/746/746 748/747/747 747/748/748
f 747/748/748 748/747/747 750/749/749 749/750/750
f 749/750/750 750/749/749 752/751/751 751/752/752
s 89
f 753/753/753 755/754/754 756/755/755 754/756/756
f 755/754/754 757/757/757 758/758/758 756/755/755
f 757/757/757 759/759/759 760/760/760 758/758/758
s 90
f 761/761/761 762/762/762 764/763/763 763/764/764
f 763/764/764 764/763/763 766/765/765 765/766/766
f 765/766/766 766/765/765 768/767/767 767/768/768
s 91
f 769/769/769 771/770/770 772/771/771 770/772/772
f 771/770/770 773/773/773 774/774/774 772/771/771
f 773/773/773 775/775/775 776/776/776 774/774/774
s 92
f 777/777/777 778/778/778 780/779/779 779/780/780
f 779/780/780 780/779/779 782/781/781 781/782/782
f 781/782/782 782/781/781 784/783/783 783/784/784
s 93
f 785/785/785 789/786/786 790/787/787 786/788/788
f 786/788/788 790/787/787 791/789/789 787/790/790
f 787/790/790 791/789/789 792/791/791 788/792/792
s 94
f 793/793/793 797/794/794 798/795/795 794/796/796
f 794/796/796 798/795/795 799/797/797 795/798/798
f 795/798/798 799/797/797 800/799/799 796/800/800
s 95
f 801/801/801 802/802/802 806/803/803 805/804/804
f 802/802/802 803/805/805 807/806/806 806/803/803
f 803/805/805 804/807/807 808/808/808 807/806/806
s 96
f 809/809/809 810/810/810 814/811/811 813/812/812
f 810/810/810 811/813/813 815/814/814 814/811/811
f 811/813/813 812/815/815 816/816/816 815/814/814
s 97
f 817/817/817 818/818/818 823/819/819 822/820/820
f 824/821/821 823/819/819 818/818/818 819/822/822
f 825/823/823 824/821/821 819/822/822 820/824/824
f 826/825/825 825/823/823 820/824/824 821/826/826
s 98
f 827/827/827 828/828/828 833/829/829 832/830/830
f 834/831/831 833/829/829 828/828/828 829/832/832
f 835/833/833 834/831/831 829/832/832 830/834/834
f 836/835/835 835/833/833 830/834/834 831/836/836
s 99
f 837/837/837 838/838/838 843/839/839 842/840/840
f 844/841/841 843/839/839 838/838/838 839/842/842
f 845/843/843 844/841/841 839/842/842 840/844/844
f 846/845/845 845/843/843 840/844/844 841/846/846
s 100
f 847/847/847 848/848/848 853/849/849 852/850/850
f 854/851/851 853/849/849 848/848/848 849/852/852
f 855/853/853 854/851/851 849/852/852 850/854/854
f 856/855/855 855/853/853 850/854/854 851/856/856
s 101
f 857/857/857 859/858/858 860/859/859 858/860/860
f 859/858/858 861/861/861 862/862/862 860/859/859
f 861/861/861 863/863/863 864/864/864 862/862/862
s 102
f 865/865/865 866/866/866 868/867/867 867/868/868
f 867/868/868 868/867/867 870/869/869 869/870/870
f 869/870/870 870/869/869 872/871/871 871/872/872
s 103
f 873/873/873 875/874/874 876/875/875 874/876/876
f 875/874/874 877/877/877 878/878/878 876/875/875
f 877/877/877 879/879/879 880/880/880 878/878/878
s 104
f 881/881/881 882/882/882 884/883/883 883/884/884
f 883/884/884 884/883/883 886/885/885 885/886/886
f 885/886/886 886/885/885 888/887/887 887/888/888
s 105
f 889/889/889 891/890/890 892/891/891 890/892/892
f 891/890/890 893/893/893 894/894/894 892/891/891
f 893/893/893 895/895/895 896/896/896 894/894/894
s 106
f 897/897/897 898/898/898 900/899/899 899/900/900
f 899/900/900 900/899/899 902/901/901 901/902/902
f 901/902/902 902/901/901 904/903/903 903/904/904
s 107
f 905/905/905 907/906/906 908/907/907 906/908/908
f 907/906/906 909/909/909 910/910/910 908/907/907
f 909/909/909 911/911/911 912/912/912 910/910/910
s 108
f 913/913/913 914/914/914 916/915/915 915/916/916
f 915/916/916 916/915/915 918/917/917 917/918/918
f 917/918/918 918/917/917 920/919/919 919/920/920
s 109
f 921/921/921 925/922/922 926/923/923 922/924/924
f 922/924/924 926/923/923 927/925/925 923/926/926
f 923/926/926 927/925/925 928/927/927 924/928/928
s 110
f 929/929/929 933/930/930 934/931/931 930/932/932
f 930/932/932 934/931/931 935/933/933 931/934/934
f 931/934/934 935/933/933 936/935/935 932/936/936
s 111
f 937/937/937 938/938/938 942/939/939 941/940/940
f 938/938/938 939/941/941 943/942/942 942/939/939
f 939/941/941 940/943/943 944/944/944 943/942/942
s 112
f 945/945/945 946/946/946 950/947/947 949/948/948
f 946/946/946 947/949/949 951/950/950 950/947/947
f 947/949/949 948/951/951 952/952/952 951/950/950
