# This file uses centimeters as units for non-parametric coordinates.

mtllib Leavesplant.mtl
g default
v 0.625589 0.288408 -0.321047
v 0.685107 0.235651 -0.131134
v 0.888803 0.227400 -0.159987
v 0.823853 0.170897 -0.382409
v 1.013323 0.206647 -0.254044
v 0.649591 0.290953 -0.476611
v 0.806244 0.213722 -0.627440
v 0.985362 0.141896 -0.657343
v 1.054775 0.156117 -0.475366
v 1.009576 0.052712 -0.102641
v 0.855567 0.048618 0.213698
v 1.139727 0.006322 0.416850
v 1.282806 -0.183760 0.085909
v 1.391925 -0.080448 0.452128
v 1.212071 -0.016343 -0.265751
v 1.546480 -0.224489 -0.246393
v 1.777735 -0.369938 -0.054714
v 1.669371 -0.268290 0.244118
v 1.288574 0.147407 0.415673
v 1.019722 0.184593 0.519961
v 1.080153 0.205735 0.803583
v 1.339729 0.008783 0.718334
v 1.210890 0.160865 0.977700
v 1.498905 0.080263 0.441651
v 1.682266 -0.058799 0.672395
v 1.710889 -0.126739 0.938133
v 1.485472 -0.003726 1.038665
v 0.730889 0.279134 -0.517792
v 0.746474 0.258696 -0.313508
v 0.914033 0.373602 -0.280141
v 0.967479 0.304915 -0.502196
v 1.049535 0.436336 -0.330004
v 0.796451 0.305791 -0.658411
v 1.006575 0.345674 -0.745084
v 1.192518 0.394938 -0.711404
v 1.179501 0.434873 -0.520690
v 1.087735 0.299740 -0.167169
v 0.874393 0.184628 0.087862
v 1.049337 0.303646 0.368996
v 1.370822 0.256700 0.122890
v 1.278547 0.379364 0.487767
v 1.331609 0.373966 -0.253153
v 1.697758 0.401131 -0.109188
v 1.895773 0.406653 0.159392
v 1.661502 0.404820 0.397067
v 1.080814 0.504930 0.392568
v 0.823701 0.370007 0.407702
v 0.767962 0.403382 0.691110
v 1.104076 0.402703 0.712639
v 0.837722 0.432194 0.900216
v 1.270050 0.572522 0.487665
v 1.415957 0.552433 0.778370
v 1.393125 0.496484 1.047443
v 1.120557 0.456549 1.060257
v -0.687875 -0.140490 -0.340787
v -0.493503 -0.182963 -0.137392
v -0.658313 -0.153693 0.092684
v -0.891174 -0.264145 -0.112744
v -0.853157 -0.163984 0.188890
v -0.894009 -0.145739 -0.410120
v -1.179979 -0.231234 -0.297832
v -1.331665 -0.293890 -0.083609
v -1.152066 -0.243701 0.111458
v -0.667797 -0.361127 0.314698
v -0.181855 -0.371224 0.328221
v -0.113568 -0.350765 0.809202
v -0.614107 -0.608886 0.817658
v -0.231891 -0.412556 1.156182
v -0.997773 -0.426874 0.472833
v -1.190055 -0.638097 0.936961
v -1.104201 -0.770414 1.370328
v -0.666745 -0.628314 1.403879
v -0.206831 -0.127135 0.956218
v 0.092453 -0.124062 0.688150
v 0.402647 -0.057328 0.934660
v 0.129649 -0.278393 1.239988
v 0.532590 -0.075392 1.212449
v -0.309640 -0.171858 1.242240
v -0.145328 -0.302135 1.640782
v 0.161439 -0.365107 1.857945
v 0.430149 -0.236222 1.620427
v -0.139287 0.155829 -0.696824
v 0.064053 0.108084 -0.566734
v -0.016013 0.167946 -0.341887
v -0.267503 0.089824 -0.450957
v -0.155960 0.189419 -0.217988
v -0.326311 0.172676 -0.708470
v -0.545690 0.142305 -0.544107
v -0.628098 0.121078 -0.326785
v -0.429293 0.153745 -0.208971
v 0.005959 0.005931 -0.136009
v 0.409868 -0.062325 -0.231056
v 0.579635 -0.023331 0.151689
v 0.140931 -0.180826 0.293157
v 0.555592 -0.039681 0.471896
v -0.237164 0.000754 0.074329
v -0.310777 -0.126626 0.522102
v -0.153326 -0.223194 0.875604
v 0.230896 -0.154255 0.793751
v 0.559682 0.188339 0.273654
v 0.745517 0.136974 -0.015444
v 1.065918 0.170720 0.114767
v 0.887833 0.035070 0.449296
v 1.235708 0.156472 0.318628
v 0.536146 0.180819 0.538192
v 0.750635 0.074053 0.845253
v 1.047972 -0.004319 0.963889
v 1.228630 0.057418 0.695229
v 0.363385 0.978345 -0.879530
v 0.297937 0.940778 -0.645317
v 0.058200 0.994099 -0.660585
v 0.092841 0.903142 -0.928490
v -0.100970 1.006678 -0.760105
v 0.320762 0.984907 -1.062663
v 0.101423 0.940960 -1.223982
v -0.129793 0.913260 -1.239546
v -0.186737 0.955836 -1.017251
v -0.234636 0.831717 -0.504498
v -0.026643 0.786796 -0.141791
v -0.345860 0.831715 0.128242
v -0.602748 0.648898 -0.243061
v -0.659115 0.811196 0.197728
v -0.505415 0.811200 -0.676647
v -0.952327 0.675940 -0.612462
v -1.243732 0.585088 -0.355735
v -1.057347 0.675937 -0.015020
v -0.367770 1.040855 0.065429
v -0.036498 1.002451 0.163074
v -0.070647 1.052731 0.505209
v -0.438670 0.904438 0.437434
v -0.217168 1.046091 0.726746
v -0.627759 1.029679 0.119018
v -0.858142 0.932221 0.417541
v -0.885046 0.869385 0.739960
v -0.577595 0.943434 0.832788
v 0.433667 -0.327802 1.450842
v 0.441949 -0.381223 1.171500
v 0.709141 -0.300936 1.115674
v 0.756380 -0.391128 1.429136
v 0.914529 -0.268192 1.179465
v 0.533855 -0.305319 1.642630
v 0.829326 -0.329248 1.760193
v 1.094259 -0.342921 1.710702
v 1.089432 -0.303880 1.443722
v 0.906544 -0.479721 0.969124
v 0.573068 -0.570245 0.627037
v 0.846775 -0.512010 0.229397
v 1.257428 -0.679662 0.576517
v 1.177887 -0.516747 0.060412
v 1.260481 -0.472127 1.082633
v 1.752394 -0.598749 0.885169
v 2.010938 -0.698153 0.516442
v 1.695959 -0.629237 0.186708
v 0.969290 -0.261867 0.177042
v 0.574719 -0.337076 0.167132
v 0.508957 -0.298545 -0.227370
v 0.952351 -0.437602 -0.253601
v 0.608640 -0.309478 -0.517752
v 1.244769 -0.258793 0.041100
v 1.423671 -0.373039 -0.356075
v 1.365553 -0.464102 -0.721535
v 0.989019 -0.407671 -0.737926
v 1.340833 -0.522387 0.098037
v 1.304596 -0.575916 -0.057166
v 1.413261 -0.558616 -0.113826
v 1.474280 -0.564319 0.069692
v 1.510727 -0.545891 -0.093990
v 1.410640 -0.495826 0.198782
v 1.552592 -0.504755 0.248239
v 1.658767 -0.526435 0.203556
v 1.620979 -0.538964 0.048195
v 1.472991 -0.658129 -0.194934
v 1.280985 -0.720724 -0.359910
v 1.344865 -0.750451 -0.610028
v 1.563997 -0.799612 -0.424755
v 1.463143 -0.784052 -0.728054
v 1.640199 -0.656474 -0.154440
v 1.820239 -0.751130 -0.288768
v 1.877591 -0.843802 -0.507606
v 1.699261 -0.838302 -0.680706
v 1.396449 -0.655172 -0.669916
v 1.224384 -0.672488 -0.642706
v 1.142979 -0.696792 -0.866694
v 1.325497 -0.776038 -0.899041
v 1.145405 -0.737163 -1.037998
v 1.495672 -0.679649 -0.766073
v 1.514665 -0.778570 -0.994532
v 1.437221 -0.854837 -1.191138
v 1.275335 -0.817868 -1.180332
v -0.743784 -0.538908 -0.235897
v -0.466573 -0.595215 -0.266520
v -0.437004 -0.538908 -0.543845
v -0.753576 -0.630197 -0.552434
v -0.520473 -0.523581 -0.744154
v -0.944409 -0.523581 -0.318604
v -1.090159 -0.572077 -0.598072
v -1.066676 -0.609123 -0.864346
v -0.800493 -0.572077 -0.888841
v -0.310353 -0.735395 -0.738167
v 0.062553 -0.799522 -0.432793
v 0.431680 -0.768649 -0.747779
v 0.046256 -0.968374 -1.106660
v 0.567651 -0.803553 -1.092028
v -0.457756 -0.757599 -1.078745
v -0.309083 -0.928127 -1.574547
v 0.032743 -1.052731 -1.857945
v 0.391555 -0.959526 -1.583623
v 0.471867 -0.530543 -0.896145
v 0.520115 -0.571289 -0.499342
v 0.919143 -0.530543 -0.475736
v 0.902115 -0.707792 -0.905754
v 1.198451 -0.552554 -0.601755
v 0.580365 -0.552554 -1.182715
v 0.958252 -0.685269 -1.388614
v 1.327632 -0.774041 -1.358464
v 1.380577 -0.685269 -0.991657
v 0.742224 0.729344 0.705748
v 0.577381 0.683359 0.528937
v 0.700570 0.770038 0.334356
v 0.926782 0.695878 0.491120
v 0.862471 0.811859 0.248121
v 0.920033 0.755624 0.761344
v 1.172210 0.754574 0.649673
v 1.302374 0.760087 0.456030
v 1.132879 0.792997 0.298999
v 0.737832 0.628576 0.115913
v 0.329551 0.528063 0.109686
v 0.246802 0.595589 -0.297042
v 0.716990 0.478537 -0.347048
v 0.342794 0.612955 -0.603410
v 1.021343 0.658540 -0.032754
v 1.202656 0.581304 -0.460896
v 1.136021 0.511943 -0.847972
v 0.739018 0.550158 -0.850813
v 0.276717 0.819253 -0.392733
v 0.035771 0.728485 -0.159373
v -0.249200 0.756746 -0.356206
v 0.009045 0.665886 -0.651296
v -0.367640 0.753382 -0.594011
v 0.359119 0.839759 -0.644488
v 0.227515 0.752325 -1.000474
v -0.028808 0.669379 -1.190330
v -0.269064 0.693305 -0.965984
v 0.359604 0.676780 1.013681
v 0.273607 0.642310 0.916719
v 0.157806 0.667531 0.979483
v 0.242003 0.633628 1.105555
v 0.103053 0.676825 1.065680
v 0.381914 0.689605 1.112938
v 0.314712 0.670534 1.246031
v 0.206474 0.652026 1.310230
v 0.124171 0.661801 1.213740
v 0.052114 0.571169 0.988051
v 0.069665 0.530794 0.763134
v -0.152306 0.534275 0.706190
v -0.182379 0.450792 0.956401
v -0.321122 0.513438 0.748301
v -0.038637 0.564420 1.137801
v -0.266845 0.479181 1.219284
v -0.466487 0.410344 1.167743
v -0.459861 0.444345 0.953147
v -0.224560 0.644922 0.725722
v -0.084144 0.624977 0.600215
v -0.184031 0.632764 0.439502
v -0.341837 0.549205 0.566943
v -0.307936 0.614224 0.366898
v -0.363944 0.631024 0.762422
v -0.543384 0.557457 0.676133
v -0.630410 0.505169 0.527951
v -0.505116 0.545978 0.405880
v 0.516918 0.213739 -0.775114
v 0.356634 0.172911 -0.655062
v 0.205259 0.201297 -0.789412
v 0.371435 0.134468 -0.944223
v 0.152192 0.203297 -0.936376
v 0.582869 0.220490 -0.916618
v 0.526255 0.173086 -1.133459
v 0.385979 0.135001 -1.261709
v 0.231983 0.161338 -1.146960
v 0.049402 0.052356 -0.824131
v 0.001148 0.020859 -0.479649
v -0.347811 0.030444 -0.468519
v -0.311669 -0.129606 -0.838333
v -0.585518 -0.009145 -0.583595
v -0.036613 0.021136 -1.075011
v -0.350709 -0.122254 -1.259477
v -0.665703 -0.222854 -1.239530
v -0.725764 -0.142944 -0.923703
v -0.447343 0.194826 -0.535717
v -0.279846 0.183048 -0.300973
v -0.481111 0.214553 -0.096527
v -0.675335 0.068686 -0.326245
v -0.689588 0.194168 -0.027114
v -0.642924 0.166907 -0.634027
v -0.939325 0.063981 -0.555320
v -1.118200 0.002815 -0.357337
v -0.971209 0.082607 -0.140630
v -0.740077 -0.713608 -0.653635
v -0.726392 -0.712745 -0.486069
v -0.842462 -0.684992 -0.453278
v -0.875642 -0.752407 -0.631573
v -0.936104 -0.685189 -0.489145
v -0.794619 -0.724733 -0.766016
v -0.927577 -0.757540 -0.828641
v -1.038868 -0.770324 -0.794135
v -1.024251 -0.730520 -0.639461
v -0.912100 -0.757024 -0.353223
v -0.745682 -0.752147 -0.152518
v -0.845351 -0.704704 0.082724
v -1.034024 -0.823428 -0.104542
v -0.979267 -0.706205 0.188142
v -1.071507 -0.778506 -0.414288
v -1.268048 -0.836361 -0.282217
v -1.355757 -0.858019 -0.055049
v -1.205022 -0.786960 0.129410
v -0.906546 -0.598663 0.101053
v -0.732123 -0.613214 0.104421
v -0.684332 -0.560092 0.333074
v -0.868490 -0.635916 0.364311
v -0.711445 -0.544018 0.506243
v -1.018520 -0.597318 0.185615
v -1.069625 -0.619495 0.428999
v -1.020978 -0.624484 0.648263
v -0.859808 -0.583076 0.648077
v -0.755344 0.086352 0.960700
v -0.809875 0.062068 0.763648
v -1.010510 0.106083 0.777820
v -0.981727 0.021855 0.999089
v -1.143790 0.113490 0.861273
v -0.791179 0.086224 1.113992
v -0.974834 0.044450 1.247335
v -1.168302 0.020711 1.259288
v -1.215765 0.063081 1.074658
v -1.166846 -0.027084 0.698978
v -0.992459 -0.053470 0.394512
v -1.259333 -0.007798 0.169793
v -1.474533 -0.172125 0.474440
v -1.521370 -0.022969 0.110771
v -1.393564 -0.049621 0.842046
v -1.767387 -0.160955 0.783825
v -2.010938 -0.229205 0.566109
v -1.854715 -0.142745 0.284161
v -1.366291 0.167181 0.171778
v -1.088998 0.138198 0.089264
v -1.117282 0.190682 -0.195316
v -1.425210 0.064451 -0.143519
v -1.239675 0.191836 -0.380898
v -1.583778 0.159360 0.126385
v -1.776229 0.086890 -0.126425
v -1.798415 0.044191 -0.397970
v -1.541110 0.109080 -0.473041
vt 0.926465 0.865957
vt 0.965887 0.871541
vt 0.989986 0.889744
vt 0.953317 0.914587
vt 0.998008 0.932578
vt 0.984574 0.967796
vt 0.914946 0.902712
vt 0.919591 0.932818
vt 0.949909 0.962009
vt 0.048136 0.653801
vt 0.008820 0.598807
vt 0.001992 0.549998
vt 0.072868 0.571116
vt 0.042249 0.496303
vt 0.100083 0.475331
vt 0.109359 0.623995
vt 0.140926 0.584806
vt 0.137180 0.520086
vt 0.502656 0.745282
vt 0.482473 0.797314
vt 0.444081 0.735382
vt 0.497628 0.704576
vt 0.427582 0.785618
vt 0.393885 0.760316
vt 0.401542 0.663550
vt 0.452971 0.669089
vt 0.382086 0.707175
vt 0.727244 0.869033
vt 0.759672 0.862576
vt 0.785896 0.872226
vt 0.770016 0.905551
vt 0.811049 0.909130
vt 0.813568 0.946040
vt 0.724228 0.908569
vt 0.736916 0.935784
vt 0.777582 0.952558
vt 0.570750 0.439188
vt 0.516342 0.405330
vt 0.493355 0.360970
vt 0.563971 0.343112
vt 0.510909 0.286856
vt 0.556907 0.241516
vt 0.620108 0.397899
vt 0.636748 0.350701
vt 0.608886 0.279839
vt 0.261329 0.789841
vt 0.250541 0.734992
vt 0.264042 0.694523
vt 0.315591 0.730825
vt 0.318781 0.663550
vt 0.371532 0.666030
vt 0.311089 0.792770
vt 0.347712 0.774365
vt 0.375950 0.718104
vt 0.858557 0.434930
vt 0.853787 0.511893
vt 0.795410 0.504535
vt 0.814029 0.466826
vt 0.897921 0.472547
vt 0.911339 0.512441
vt 0.848148 0.597142
vt 0.810396 0.562384
vt 0.889608 0.567786
vt 0.984792 0.428321
vt 0.901137 0.333598
vt 0.975109 0.268083
vt 0.998008 0.335235
vt 0.890746 0.430938
vt 0.826884 0.400334
vt 0.806287 0.226638
vt 0.890950 0.220145
vt 0.789671 0.310509
vt 0.664691 0.228372
vt 0.671890 0.121573
vt 0.749873 0.126903
vt 0.724724 0.180664
vt 0.606770 0.176492
vt 0.586873 0.121137
vt 0.678042 0.001977
vt 0.730047 0.047945
vt 0.618672 0.044006
vt 0.578031 0.663550
vt 0.555624 0.727717
vt 0.510536 0.706130
vt 0.534515 0.679045
vt 0.603207 0.702903
vt 0.605461 0.739098
vt 0.531592 0.797504
vt 0.508791 0.759029
vt 0.573651 0.781556
vt 0.895901 0.216153
vt 0.843852 0.114700
vt 0.924103 0.080108
vt 0.928756 0.142079
vt 0.817731 0.197759
vt 0.770678 0.157051
vt 0.786903 0.001977
vt 0.861263 0.017819
vt 0.756431 0.070392
vt 0.244690 0.473779
vt 0.272233 0.383836
vt 0.339558 0.409125
vt 0.306698 0.448579
vt 0.208725 0.417829
vt 0.204170 0.366632
vt 0.303225 0.284245
vt 0.338189 0.336240
vt 0.245680 0.307205
vt 0.559838 0.801495
vt 0.520145 0.856299
vt 0.482636 0.823711
vt 0.513441 0.804450
vt 0.572505 0.846824
vt 0.564256 0.882266
vt 0.477058 0.916499
vt 0.466038 0.873477
vt 0.521806 0.913487
vt 0.477175 0.001977
vt 0.496774 0.113473
vt 0.411467 0.124382
vt 0.424915 0.063757
vt 0.547371 0.042231
vt 0.580688 0.094636
vt 0.518581 0.237525
vt 0.452641 0.201453
vt 0.568266 0.181128
vt 0.644374 0.443179
vt 0.591276 0.521013
vt 0.535284 0.478145
vt 0.578159 0.449788
vt 0.663271 0.507292
vt 0.652900 0.557608
vt 0.532727 0.607402
vt 0.514761 0.547900
vt 0.595126 0.602195
vt 0.233602 0.785083
vt 0.183740 0.724230
vt 0.232060 0.693623
vt 0.244406 0.733373
vt 0.179540 0.786686
vt 0.142422 0.767297
vt 0.129248 0.658840
vt 0.180917 0.659774
vt 0.119670 0.710113
vt 0.090165 0.280254
vt 0.099942 0.147807
vt 0.199826 0.163201
vt 0.167122 0.227282
vt 0.023960 0.215715
vt 0.001992 0.147216
vt 0.111569 0.001977
vt 0.175384 0.062936
vt 0.040208 0.052014
vt 0.161085 0.479689
vt 0.234170 0.561115
vt 0.167650 0.612237
vt 0.148358 0.556038
vt 0.237448 0.477771
vt 0.290763 0.504080
vt 0.314139 0.651676
vt 0.241267 0.654848
vt 0.325386 0.580947
vt 0.522834 0.979596
vt 0.555673 0.955045
vt 0.562727 0.986723
vt 0.543864 0.990562
vt 0.529847 0.949559
vt 0.543357 0.930062
vt 0.591378 0.929138
vt 0.584065 0.959206
vt 0.570829 0.920490
vt 0.386917 0.916768
vt 0.399467 0.861996
vt 0.458165 0.881515
vt 0.435323 0.904406
vt 0.354988 0.879609
vt 0.347152 0.847248
vt 0.415501 0.801305
vt 0.449002 0.835818
vt 0.373149 0.812405
vt 0.594831 0.801495
vt 0.614400 0.851105
vt 0.579546 0.877998
vt 0.579077 0.844845
vt 0.628132 0.806762
vt 0.647335 0.825371
vt 0.636023 0.907636
vt 0.604692 0.905545
vt 0.651011 0.869586
vt 0.007919 0.796400
vt 0.061590 0.790678
vt 0.100357 0.806832
vt 0.063253 0.851945
vt 0.128359 0.861025
vt 0.123618 0.912541
vt 0.001992 0.850050
vt 0.017999 0.888878
vt 0.072085 0.917085
vt 0.307524 0.001977
vt 0.378963 0.062938
vt 0.405278 0.129562
vt 0.304370 0.132393
vt 0.371197 0.224702
vt 0.301755 0.277792
vt 0.235354 0.061077
vt 0.206827 0.126991
vt 0.235600 0.222945
vt 0.340898 0.487454
vt 0.418123 0.482885
vt 0.472178 0.507275
vt 0.414827 0.566108
vt 0.507426 0.582734
vt 0.497179 0.653723
vt 0.331560 0.564249
vt 0.352558 0.619710
vt 0.425692 0.659558
vt 0.787505 0.742432
vt 0.794823 0.674811
vt 0.841852 0.687257
vt 0.825163 0.718591
vt 0.753286 0.710529
vt 0.742526 0.676117
vt 0.801615 0.602121
vt 0.832005 0.634924
vt 0.764138 0.627312
vt 0.029059 0.285450
vt 0.104042 0.373844
vt 0.031622 0.423459
vt 0.013044 0.364166
vt 0.108075 0.284245
vt 0.162944 0.313017
vt 0.185138 0.470789
vt 0.108305 0.471339
vt 0.198034 0.395877
vt 0.720957 0.232363
vt 0.715785 0.327567
vt 0.642884 0.316481
vt 0.665806 0.270457
vt 0.767589 0.277527
vt 0.783536 0.326250
vt 0.708459 0.431889
vt 0.661961 0.388470
vt 0.758066 0.395145
vt 0.697131 0.938733
vt 0.674720 0.926587
vt 0.664123 0.909905
vt 0.691015 0.902187
vt 0.668210 0.881250
vt 0.684138 0.862576
vt 0.713774 0.919968
vt 0.718092 0.900758
vt 0.705086 0.875000
vt 0.912925 0.758202
vt 0.923946 0.801161
vt 0.915796 0.833833
vt 0.875521 0.806981
vt 0.876151 0.860683
vt 0.834620 0.861966
vt 0.869396 0.761599
vt 0.840414 0.779162
vt 0.824645 0.823328
vt 0.772232 0.746423
vt 0.803336 0.765755
vt 0.817387 0.789735
vt 0.778672 0.796296
vt 0.809843 0.827896
vt 0.786218 0.852144
vt 0.747942 0.773599
vt 0.740840 0.800574
vt 0.757540 0.835302
vt 0.297066 0.796761
vt 0.299931 0.852724
vt 0.257500 0.851205
vt 0.267770 0.822762
vt 0.328086 0.819995
vt 0.340850 0.847381
vt 0.302745 0.914168
vt 0.272942 0.891960
vt 0.329894 0.889347
vt 0.988669 0.603288
vt 0.928128 0.672705
vt 0.875130 0.623405
vt 0.921134 0.601134
vt 0.998008 0.669957
vt 0.981361 0.718510
vt 0.859611 0.750350
vt 0.847987 0.689227
vt 0.920573 0.754211
vt 0.723678 0.435880
vt 0.728569 0.512421
vt 0.670678 0.515179
vt 0.684111 0.474832
vt 0.769109 0.468296
vt 0.788136 0.506148
vt 0.734587 0.598130
vt 0.692647 0.569682
vt 0.772903 0.563511
vt 0.657988 0.917973
vt 0.629103 0.946133
vt 0.617401 0.918568
vt 0.635524 0.911627
vt 0.655339 0.950403
vt 0.644784 0.972152
vt 0.597513 0.977594
vt 0.600342 0.947660
vt 0.619052 0.984272
vt 0.200645 0.796761
vt 0.191360 0.852565
vt 0.134716 0.841968
vt 0.155118 0.816051
vt 0.239488 0.828969
vt 0.251306 0.859819
vt 0.181781 0.914831
vt 0.146082 0.885659
vt 0.225746 0.897857
vt 0.724302 0.857933
vt 0.697910 0.807635
vt 0.728304 0.780166
vt 0.733551 0.813680
vt 0.690545 0.858584
vt 0.668875 0.842219
vt 0.668399 0.752681
vt 0.699591 0.752717
vt 0.658984 0.795116
vt 0.898257 0.961880
vt 0.859427 0.959137
vt 0.833633 0.942986
vt 0.864998 0.916314
vt 0.819704 0.901689
vt 0.828890 0.865957
vt 0.908811 0.923744
vt 0.901875 0.894077
vt 0.866332 0.868270
vt 0.432307 0.281784
vt 0.475797 0.333433
vt 0.487220 0.384146
vt 0.416838 0.375081
vt 0.453663 0.448659
vt 0.399097 0.478894
vt 0.373382 0.315534
vt 0.345694 0.359411
vt 0.356961 0.431759
vt 0.627566 0.611393
vt 0.682642 0.616867
vt 0.718558 0.640554
vt 0.672617 0.676462
vt 0.736391 0.698892
vt 0.721862 0.748689
vt 0.611597 0.665059
vt 0.620382 0.707150
vt 0.669309 0.744396
vn 0.473440 0.877128 -0.080625
vn 0.561159 0.822426 -0.093358
vn 0.578230 0.806395 -0.124007
vn 0.521822 0.816732 -0.246274
vn 0.424825 0.879824 -0.213152
vn 0.386677 0.867341 -0.313369
vn 0.527880 0.785567 -0.322844
vn 0.450657 0.809089 -0.377204
vn 0.557397 0.789816 -0.255929
vn 0.575494 0.808046 0.125969
vn 0.590172 0.768988 0.245671
vn 0.674936 0.713052 0.189785
vn 0.668150 0.741121 0.065693
vn 0.602933 0.794778 -0.069280
vn 0.633731 0.763657 -0.123339
vn 0.749533 0.660692 -0.041072
vn 0.713069 0.692504 -0.109416
vn 0.725291 0.679043 0.113378
vn 0.539025 0.793959 0.281214
vn 0.494205 0.774148 0.395546
vn 0.509021 0.746196 0.429057
vn 0.599144 0.734418 0.318836
vn 0.616685 0.767226 0.176248
vn 0.652714 0.736707 0.176714
vn 0.646689 0.673471 0.358091
vn 0.667278 0.690534 0.279113
vn 0.595701 0.695005 0.402626
vn 0.458898 0.864638 -0.204485
vn 0.540315 0.830053 -0.138102
vn 0.550133 0.821494 -0.150002
vn 0.522019 0.810942 -0.264327
vn 0.475510 0.827609 -0.298252
vn 0.437188 0.816409 -0.377285
vn 0.533715 0.788610 -0.305357
vn 0.474223 0.797545 -0.372874
vn 0.545201 0.802618 -0.241993
vn 0.566323 0.820970 0.072707
vn 0.547079 0.808358 0.217399
vn 0.568841 0.789029 0.232062
vn 0.626417 0.776333 0.070066
vn 0.581107 0.809387 -0.084895
vn 0.603845 0.790133 -0.105172
vn 0.678566 0.732218 0.058358
vn 0.654729 0.754548 -0.044580
vn 0.638942 0.754260 0.151146
vn 0.493516 0.833473 0.248526
vn 0.412425 0.825478 0.385345
vn 0.399744 0.808521 0.431854
vn 0.512031 0.796774 0.320898
vn 0.528468 0.822864 0.208846
vn 0.546538 0.808108 0.219676
vn 0.518043 0.759164 0.394084
vn 0.547327 0.779697 0.304147
vn 0.451611 0.778209 0.436393
vn -0.477598 0.872569 -0.102590
vn -0.623495 0.776284 -0.092933
vn -0.604699 0.788852 0.109778
vn -0.578828 0.811298 0.082178
vn -0.530972 0.802099 -0.273324
vn -0.563288 0.778849 -0.275864
vn -0.652481 0.743945 -0.144272
vn -0.708362 0.702389 -0.069801
vn -0.657570 0.749456 0.076922
vn -0.225883 0.876981 0.424125
vn -0.474531 0.694014 0.541447
vn -0.130976 0.702053 0.699977
vn -0.097702 0.776432 0.622582
vn -0.559003 0.783874 0.270293
vn -0.636932 0.706122 0.309368
vn -0.577182 0.653349 0.489893
vn -0.512467 0.619943 0.594179
vn -0.336188 0.651754 0.679848
vn 0.080238 0.811060 0.579434
vn 0.085266 0.710325 0.698690
vn 0.275332 0.748037 0.603849
vn 0.256574 0.783785 0.565553
vn -0.121361 0.781148 0.612437
vn -0.145033 0.742920 0.653480
vn -0.080714 0.678465 0.730186
vn 0.071850 0.655032 0.752178
vn 0.168991 0.682696 0.710892
vn 0.067139 0.884282 -0.462101
vn -0.216038 0.888593 -0.404635
vn -0.127863 0.970305 -0.205326
vn -0.040814 0.913106 -0.405673
vn -0.085786 0.870272 -0.485043
vn -0.240397 0.829419 -0.504255
vn -0.395373 0.827674 -0.398292
vn -0.439841 0.868231 -0.229599
vn -0.391375 0.897761 -0.202114
vn 0.412611 0.885349 -0.214263
vn 0.194990 0.894798 0.401640
vn 0.423008 0.815468 0.395065
vn 0.478059 0.872280 0.102895
vn 0.022194 0.981304 -0.191179
vn -0.399156 0.913835 0.074694
vn -0.277641 0.819460 0.501400
vn -0.107283 0.781307 0.614858
vn 0.129528 0.794857 0.592811
vn 0.501148 0.864621 -0.035787
vn 0.537986 0.795239 0.279580
vn 0.612639 0.776945 0.145019
vn 0.594514 0.800238 0.078561
vn 0.418113 0.883061 0.213037
vn 0.351954 0.865729 0.355867
vn 0.417638 0.784612 0.458216
vn 0.485909 0.744178 0.458357
vn 0.576017 0.751972 0.320535
vn 0.173518 0.917563 -0.357728
vn 0.054553 0.891386 -0.449949
vn -0.047183 0.915325 -0.399943
vn 0.040278 0.924999 -0.377828
vn 0.179602 0.893827 -0.410872
vn 0.138463 0.874907 -0.464075
vn 0.045266 0.857456 -0.512562
vn -0.054483 0.853156 -0.518802
vn -0.079527 0.882777 -0.463013
vn -0.022140 0.991772 -0.126088
vn -0.382524 0.907807 -0.171935
vn -0.395401 0.912711 0.103037
vn -0.220014 0.971587 0.087249
vn -0.157857 0.926897 -0.340505
vn -0.273652 0.895489 -0.351019
vn -0.444379 0.851451 -0.278492
vn -0.558120 0.815636 -0.152444
vn -0.507723 0.861268 -0.020849
vn -0.024220 0.992716 0.118020
vn -0.272726 0.924614 0.265914
vn -0.110328 0.917932 0.381090
vn -0.040216 0.957856 0.284421
vn -0.217781 0.975249 0.038215
vn -0.364113 0.929110 0.064620
vn -0.410554 0.890623 0.195542
vn -0.387665 0.862039 0.326503
vn -0.263618 0.883962 0.386155
vn 0.277323 0.699525 0.658602
vn 0.338458 0.671724 0.658964
vn 0.459588 0.692812 0.555689
vn 0.359704 0.702593 0.613984
vn 0.179282 0.685397 0.705755
vn 0.251915 0.670943 0.697406
vn 0.322447 0.652784 0.685493
vn 0.400210 0.644380 0.651618
vn 0.464188 0.665030 0.585034
vn 0.456217 0.750392 0.478307
vn 0.675409 0.659604 0.329767
vn 0.718529 0.691641 0.073141
vn 0.642930 0.753391 0.137999
vn 0.500733 0.684391 0.529976
vn 0.556726 0.659783 0.504720
vn 0.697323 0.622575 0.355162
vn 0.783343 0.592667 0.187400
vn 0.762295 0.639717 0.098333
vn 0.585274 0.800962 0.126151
vn 0.648308 0.748935 -0.137086
vn 0.459390 0.782448 -0.420399
vn 0.531455 0.808690 -0.252143
vn 0.631919 0.766912 0.111912
vn 0.672932 0.737836 0.052538
vn 0.712348 0.684673 -0.154216
vn 0.661066 0.669691 -0.338386
vn 0.550403 0.698052 -0.458016
vn 0.734395 0.675900 -0.061825
vn 0.744401 0.664348 0.067150
vn 0.745539 0.663178 -0.066089
vn 0.739128 0.669295 -0.075722
vn 0.729890 0.678783 0.080706
vn 0.728665 0.675518 0.112796
vn 0.738099 0.663306 0.123432
vn 0.749705 0.653421 0.104803
vn 0.753231 0.655560 0.053710
vn 0.733794 0.659292 -0.163954
vn 0.758572 0.628011 -0.173699
vn 0.696265 0.628725 -0.346295
vn 0.692236 0.644721 -0.324259
vn 0.749776 0.653840 -0.101632
vn 0.762765 0.641258 -0.083532
vn 0.778571 0.615585 -0.121997
vn 0.787945 0.585717 -0.189944
vn 0.730757 0.606749 -0.312810
vn 0.669145 0.660363 -0.340831
vn 0.661028 0.632041 -0.404434
vn 0.562231 0.640702 -0.522873
vn 0.580533 0.653376 -0.485883
vn 0.684890 0.649254 -0.330750
vn 0.688301 0.636342 -0.348297
vn 0.672689 0.614793 -0.411726
vn 0.610052 0.588632 -0.530424
vn 0.572585 0.616702 -0.540209
vn -0.548511 0.782369 -0.295016
vn -0.428450 0.770670 -0.471697
vn -0.338183 0.748910 -0.569883
vn -0.538377 0.698409 -0.471566
vn -0.631555 0.761653 -0.144995
vn -0.653192 0.704337 -0.277939
vn -0.556522 0.667653 -0.494493
vn -0.643484 0.681264 -0.349010
vn -0.495816 0.684750 -0.534121
vn 0.101068 0.772874 -0.626459
vn 0.346726 0.689698 -0.635687
vn 0.349238 0.658320 -0.666819
vn 0.082810 0.650650 -0.754849
vn -0.303590 0.697660 -0.648925
vn -0.309065 0.667538 -0.677401
vn 0.050244 0.570408 -0.819823
vn -0.140350 0.615402 -0.775618
vn 0.168321 0.609653 -0.774591
vn 0.461591 0.764704 -0.449624
vn 0.635752 0.700944 -0.323260
vn 0.660570 0.675966 -0.326678
vn 0.531834 0.664688 -0.524731
vn 0.329793 0.702545 -0.630609
vn 0.332684 0.677783 -0.655692
vn 0.556808 0.608493 -0.565422
vn 0.415263 0.634633 -0.651764
vn 0.649122 0.633700 -0.420790
vn 0.320969 0.895161 0.309298
vn 0.444830 0.863824 0.236503
vn 0.440850 0.889525 0.119988
vn 0.387256 0.901053 0.195286
vn 0.355103 0.869231 0.344005
vn 0.413334 0.840524 0.350250
vn 0.490963 0.826892 0.274236
vn 0.534945 0.822741 0.192176
vn 0.503339 0.854410 0.128970
vn 0.235357 0.967752 0.089795
vn 0.426620 0.880746 -0.205623
vn 0.213938 0.900789 -0.377902
vn 0.174350 0.964093 -0.200317
vn 0.437957 0.895883 0.074745
vn 0.501969 0.864517 -0.025262
vn 0.537957 0.815983 -0.211599
vn 0.479734 0.795966 -0.369179
vn 0.373547 0.829344 -0.415513
vn 0.027644 0.989757 -0.140062
vn 0.026329 0.908544 -0.416958
vn -0.208229 0.908526 -0.362246
vn -0.151937 0.961353 -0.229597
vn 0.163025 0.956358 -0.242490
vn 0.205392 0.909091 -0.362447
vn 0.106793 0.870404 -0.480616
vn -0.021726 0.833024 -0.552810
vn -0.120023 0.869494 -0.479140
vn 0.123865 0.871891 0.473776
vn 0.075902 0.869111 0.488758
vn 0.052390 0.859663 0.508169
vn 0.110762 0.836167 0.537175
vn 0.179466 0.858834 0.479787
vn 0.187120 0.836045 0.515767
vn 0.085662 0.819161 0.567131
vn 0.131646 0.824570 0.550231
vn 0.058208 0.830170 0.554463
vn 0.047095 0.887585 0.458230
vn -0.091603 0.892885 0.440868
vn -0.198861 0.880952 0.429394
vn -0.099553 0.835291 0.540720
vn 0.035782 0.862818 0.504247
vn -0.033454 0.829198 0.557953
vn -0.233337 0.803647 0.547453
vn -0.124067 0.810916 0.571859
vn -0.249503 0.826706 0.504287
vn -0.067030 0.911020 0.406877
vn -0.160574 0.924502 0.345705
vn -0.259501 0.923311 0.283118
vn -0.219660 0.900549 0.375182
vn -0.118155 0.895212 0.429691
vn -0.207590 0.884734 0.417316
vn -0.359342 0.879289 0.312608
vn -0.314077 0.877385 0.362701
vn -0.329122 0.901879 0.279808
vn 0.235626 0.866936 -0.439207
vn 0.240283 0.802708 -0.545824
vn 0.096123 0.815730 -0.570390
vn 0.121349 0.828436 -0.546780
vn 0.301586 0.818121 -0.489617
vn 0.308217 0.803199 -0.509778
vn 0.272780 0.781736 -0.560785
vn 0.167343 0.769884 -0.615853
vn 0.118727 0.788934 -0.602899
vn 0.046680 0.889816 -0.453925
vn -0.240420 0.789854 -0.564206
vn -0.412980 0.808383 -0.419481
vn -0.310710 0.877801 -0.364588
vn 0.062968 0.814251 -0.577088
vn -0.045307 0.785193 -0.617591
vn -0.154557 0.745107 -0.648789
vn -0.329630 0.704308 -0.628724
vn -0.422773 0.757902 -0.496838
vn -0.288827 0.906700 -0.307365
vn -0.507440 0.823132 -0.254870
vn -0.480973 0.875509 -0.046360
vn -0.428375 0.899842 -0.082341
vn -0.322424 0.874376 -0.362642
vn -0.406758 0.816961 -0.408808
vn -0.534782 0.787804 -0.305571
vn -0.612967 0.772681 -0.165033
vn -0.590884 0.801213 -0.094415
vn -0.621792 0.694472 -0.362055
vn -0.628357 0.674982 -0.386739
vn -0.646028 0.683825 -0.339162
vn -0.638450 0.691241 -0.338478
vn -0.526236 0.686143 -0.502279
vn -0.521761 0.676249 -0.520052
vn -0.541879 0.662209 -0.517538
vn -0.570030 0.655850 -0.494900
vn -0.644549 0.667583 -0.372678
vn -0.703856 0.698914 -0.126909
vn -0.734409 0.671005 -0.101958
vn -0.717411 0.686145 0.120528
vn -0.711120 0.697151 0.091045
vn -0.664370 0.682453 -0.304746
vn -0.678621 0.667311 -0.306870
vn -0.745739 0.649473 -0.148520
vn -0.762474 0.642774 -0.073995
vn -0.744244 0.661442 0.092710
vn -0.644860 0.758338 0.095283
vn -0.651007 0.697194 0.300183
vn -0.567652 0.750801 0.337742
vn -0.581185 0.761389 0.287248
vn -0.704865 0.703103 0.093871
vn -0.710088 0.694278 0.117273
vn -0.668062 0.683117 0.295033
vn -0.637942 0.678538 0.364166
vn -0.548287 0.692325 0.469114
vn -0.449323 0.785340 0.425852
vn -0.491402 0.771909 0.403336
vn -0.512496 0.755131 0.408810
vn -0.466388 0.749577 0.469698
vn -0.409508 0.776047 0.479640
vn -0.358822 0.759699 0.542313
vn -0.486285 0.705721 0.515252
vn -0.432755 0.730623 0.528123
vn -0.518228 0.716481 0.467005
vn -0.575856 0.778725 0.248954
vn -0.642567 0.761131 0.088250
vn -0.696328 0.714940 0.063147
vn -0.690017 0.698025 0.191409
vn -0.575571 0.749069 0.328046
vn -0.612995 0.705106 0.356459
vn -0.733178 0.651456 0.195078
vn -0.677539 0.671131 0.300873
vn -0.727746 0.677610 0.105974
vn -0.603893 0.794788 0.060211
vn -0.596312 0.795601 -0.106912
vn -0.605970 0.777993 -0.165913
vn -0.656475 0.750412 -0.076953
vn -0.636274 0.767153 0.081434
vn -0.667368 0.742298 0.060119
vn -0.698677 0.698681 -0.153933
vn -0.704518 0.707245 -0.058806
vn -0.653484 0.733907 -0.185309
s 1
g pPlane27
usemtl initialShadingGroup
f 2/1/1 3/2/2 5/3/3 4/4/4
f 1/7/5 2/1/1 4/4/4 6/8/6
f 6/8/6 4/4/4 8/6/7 7/9/8
f 4/4/4 5/3/3 9/5/9 8/6/7
s 2
f 11/10/10 12/11/11 14/12/12 13/13/13
f 10/16/14 11/10/10 13/13/13 15/17/15
f 15/17/15 13/13/13 17/15/16 16/18/17
f 13/13/13 14/12/12 18/14/18 17/15/16
s 3
f 20/20/19 21/23/20 23/24/21 22/21/22
f 19/19/23 20/20/19 22/21/22 24/22/24
f 24/22/24 22/21/22 26/25/25 25/26/26
f 22/21/22 23/24/21 27/27/27 26/25/25
s 4
f 29/28/28 30/29/29 32/30/30 31/31/31
f 28/34/32 29/28/28 31/31/31 33/35/33
f 33/35/33 31/31/31 35/33/34 34/36/35
f 31/31/31 32/30/30 36/32/36 35/33/34
s 5
f 38/37/37 39/38/38 41/39/39 40/40/40
f 37/43/41 38/37/37 40/40/40 42/44/42
f 42/44/42 40/40/40 44/42/43 43/45/44
f 40/40/40 41/39/39 45/41/45 44/42/43
s 6
f 47/46/46 48/47/47 50/48/48 49/49/49
f 46/52/50 47/46/46 49/49/49 51/53/51
f 51/53/51 49/49/49 53/51/52 52/54/53
f 49/49/49 50/48/48 54/50/54 53/51/52
s 7
f 56/55/55 58/56/56 59/57/57 57/58/58
f 55/59/59 60/60/60 58/56/56 56/55/55
f 60/60/60 61/63/61 62/61/62 58/56/56
f 58/56/56 62/61/62 63/62/63 59/57/57
s 8
f 65/64/64 67/65/65 68/66/66 66/67/67
f 64/68/68 69/69/69 67/65/65 65/64/64
f 69/69/69 70/72/70 71/70/71 67/65/65
f 67/65/65 71/70/71 72/71/72 68/66/66
s 9
f 74/73/73 76/74/74 77/75/75 75/76/76
f 73/77/77 78/78/78 76/74/74 74/73/73
f 78/78/78 79/81/79 80/79/80 76/74/74
f 76/74/74 80/79/80 81/80/81 77/75/75
s 10
f 83/82/82 85/83/83 86/84/84 84/85/85
f 82/86/86 87/87/87 85/83/83 83/82/82
f 87/87/87 88/90/88 89/88/89 85/83/83
f 85/83/83 89/88/89 90/89/90 86/84/84
s 11
f 92/91/91 94/92/92 95/93/93 93/94/94
f 91/95/95 96/96/96 94/92/92 92/91/91
f 96/96/96 97/99/97 98/97/98 94/92/92
f 94/92/92 98/97/98 99/98/99 95/93/93
s 12
f 101/100/100 103/101/101 104/102/102 102/103/103
f 100/104/104 105/105/105 103/101/101 101/100/100
f 105/105/105 106/108/106 107/106/107 103/101/101
f 103/101/101 107/106/107 108/107/108 104/102/102
s 13
f 110/109/109 112/110/110 113/111/111 111/112/112
f 109/113/113 114/114/114 112/110/110 110/109/109
f 114/114/114 115/117/115 116/115/116 112/110/110
f 112/110/110 116/115/116 117/116/117 113/111/111
s 14
f 119/118/118 121/119/119 122/120/120 120/121/121
f 118/122/122 123/123/123 121/119/119 119/118/118
f 123/123/123 124/126/124 125/124/125 121/119/119
f 121/119/119 125/124/125 126/125/126 122/120/120
s 15
f 128/127/127 130/128/128 131/129/129 129/130/130
f 127/131/131 132/132/132 130/128/128 128/127/127
f 132/132/132 133/135/133 134/133/134 130/128/128
f 130/128/128 134/133/134 135/134/135 131/129/129
s 16
f 137/136/136 139/137/137 140/138/138 138/139/139
f 136/140/140 141/141/141 139/137/137 137/136/136
f 141/141/141 142/144/142 143/142/143 139/137/137
f 139/137/137 143/142/143 144/143/144 140/138/138
s 17
f 146/145/145 148/146/146 149/147/147 147/148/148
f 145/149/149 150/150/150 148/146/146 146/145/145
f 150/150/150 151/153/151 152/151/152 148/146/146
f 148/146/146 152/151/152 153/152/153 149/147/147
s 18
f 155/154/154 157/155/155 158/156/156 156/157/157
f 154/158/158 159/159/159 157/155/155 155/154/154
f 159/159/159 160/162/160 161/160/161 157/155/155
f 157/155/155 161/160/161 162/161/162 158/156/156
s 19
f 164/163/163 166/164/164 167/165/165 165/166/166
f 163/167/167 168/168/168 166/164/164 164/163/163
f 168/168/168 169/171/169 170/169/170 166/164/164
f 166/164/164 170/169/170 171/170/171 167/165/165
s 20
f 173/172/172 175/173/173 176/174/174 174/175/175
f 172/176/176 177/177/177 175/173/173 173/172/172
f 177/177/177 178/180/178 179/178/179 175/173/173
f 175/173/173 179/178/179 180/179/180 176/174/174
s 21
f 182/181/181 184/182/182 185/183/183 183/184/184
f 181/185/185 186/186/186 184/182/182 182/181/181
f 186/186/186 187/189/187 188/187/188 184/182/182
f 184/182/182 188/187/188 189/188/189 185/183/183
s 22
f 191/190/190 192/191/191 194/192/192 193/193/193
f 190/196/194 191/190/190 193/193/193 195/197/195
f 195/197/195 193/193/193 197/195/196 196/198/197
f 193/193/193 194/192/192 198/194/198 197/195/196
s 23
f 200/199/199 201/200/200 203/201/201 202/202/202
f 199/205/203 200/199/199 202/202/202 204/206/204
f 204/206/204 202/202/202 206/204/205 205/207/206
f 202/202/202 203/201/201 207/203/207 206/204/205
s 24
f 209/208/208 210/209/209 212/210/210 211/211/211
f 208/214/212 209/208/208 211/211/211 213/215/213
f 213/215/213 211/211/211 215/213/214 214/216/215
f 211/211/211 212/210/210 216/212/216 215/213/214
s 25
f 218/217/217 220/218/218 221/219/219 219/220/220
f 217/221/221 222/222/222 220/218/218 218/217/217
f 222/222/222 223/225/223 224/223/224 220/218/218
f 220/218/218 224/223/224 225/224/225 221/219/219
s 26
f 227/226/226 229/227/227 230/228/228 228/229/229
f 226/230/230 231/231/231 229/227/227 227/226/226
f 231/231/231 232/234/232 233/232/233 229/227/227
f 229/227/227 233/232/233 234/233/234 230/228/228
s 27
f 236/235/235 238/236/236 239/237/237 237/238/238
f 235/239/239 240/240/240 238/236/236 236/235/235
f 240/240/240 241/243/241 242/241/242 238/236/236
f 238/236/236 242/241/242 243/242/243 239/237/237
s 28
f 245/244/244 246/245/245 248/246/246 247/247/247
f 244/250/248 245/244/244 247/247/247 249/251/249
f 249/251/249 247/247/247 251/249/250 250/252/251
f 247/247/247 248/246/246 252/248/252 251/249/250
s 29
f 254/253/253 255/254/254 257/255/255 256/256/256
f 253/259/257 254/253/253 256/256/256 258/260/258
f 258/260/258 256/256/256 260/258/259 259/261/260
f 256/256/256 257/255/255 261/257/261 260/258/259
s 30
f 263/262/262 264/263/263 266/264/264 265/265/265
f 262/268/266 263/262/262 265/265/265 267/269/267
f 267/269/267 265/265/265 269/267/268 268/270/269
f 265/265/265 266/264/264 270/266/270 269/267/268
s 31
f 272/271/271 274/272/272 275/273/273 273/274/274
f 271/275/275 276/276/276 274/272/272 272/271/271
f 276/276/276 277/279/277 278/277/278 274/272/272
f 274/272/272 278/277/278 279/278/279 275/273/273
s 32
f 281/280/280 283/281/281 284/282/282 282/283/283
f 280/284/284 285/285/285 283/281/281 281/280/280
f 285/285/285 286/288/286 287/286/287 283/281/281
f 283/281/281 287/286/287 288/287/288 284/282/282
s 33
f 290/289/289 292/290/290 293/291/291 291/292/292
f 289/293/293 294/294/294 292/290/290 290/289/289
f 294/294/294 295/297/295 296/295/296 292/290/290
f 292/290/290 296/295/296 297/296/297 293/291/291
s 34
f 299/298/298 301/299/299 302/300/300 300/301/301
f 298/302/302 303/303/303 301/299/299 299/298/298
f 303/303/303 304/306/304 305/304/305 301/299/299
f 301/299/299 305/304/305 306/305/306 302/300/300
s 35
f 308/307/307 310/308/308 311/309/309 309/310/310
f 307/311/311 312/312/312 310/308/308 308/307/307
f 312/312/312 313/315/313 314/313/314 310/308/308
f 310/308/308 314/313/314 315/314/315 311/309/309
s 36
f 317/316/316 319/317/317 320/318/318 318/319/319
f 316/320/320 321/321/321 319/317/317 317/316/316
f 321/321/321 322/324/322 323/322/323 319/317/317
f 319/317/317 323/322/323 324/323/324 320/318/318
s 37
f 326/325/325 327/326/326 329/327/327 328/328/328
f 325/331/329 326/325/325 328/328/328 330/332/330
f 330/332/330 328/328/328 332/330/331 331/333/332
f 328/328/328 329/327/327 333/329/333 332/330/331
s 38
f 335/334/334 336/335/335 338/336/336 337/337/337
f 334/340/338 335/334/334 337/337/337 339/341/339
f 339/341/339 337/337/337 341/339/340 340/342/341
f 337/337/337 338/336/336 342/338/342 341/339/340
s 39
f 344/343/343 345/344/344 347/345/345 346/346/346
f 343/349/347 344/343/343 346/346/346 348/350/348
f 348/350/348 346/346/346 350/348/349 349/351/350
f 346/346/346 347/345/345 351/347/351 350/348/349
