# This file uses centimeters as units for non-parametric coordinates.

mtllib LeavesPlane.mtl
g default
v -2.693619 -0.313335 2.693619
v 2.693619 -0.313335 2.693619
v -2.693619 -0.313335 -2.693619
v 2.693619 -0.313335 -2.693619
v -2.693619 -0.313335 0.000000
v 2.693619 -0.313335 0.000000
v 0.000000 -0.313335 2.693619
v 0.000000 0.313335 0.000000
v 0.000000 -0.313335 -2.693619
vt 0.000000 0.000000
vt 1.000000 0.000000
vt 0.000000 1.000000
vt 1.000000 1.000000
vt 0.000000 0.500000
vt 1.000000 0.500000
vt 0.500000 0.000000
vt 0.500000 0.500000
vt 0.500000 1.000000
vn -0.115546 0.993302 0.000000
vn 0.000000 1.000000 0.000000
vn 0.000000 0.993302 -0.115546
vn -0.114782 0.986737 -0.114782
vn 0.114782 0.986737 0.114782
vn 0.115546 0.993302 0.000000
vn 0.000000 0.993302 0.115546
vn 0.114782 0.986737 -0.114782
vn -0.114782 0.986737 0.114782
s 1
g pPlane1
usemtl lambert2SG
f 5/5/1 8/8/2 9/9/3 3/3/4
f 2/2/5 6/6/6 8/8/2 7/7/7
f 9/9/3 8/8/2 6/6/6 4/4/8
f 7/7/7 8/8/2 5/5/1 1/1/9
