# This file uses centimeters as units for non-parametric coordinates.

mtllib Mushrooms small.mtl
g default
v -0.058421 -0.542450 -0.101833
v -0.058383 -0.542206 0.101337
v 0.073866 -0.542278 -0.000228
v -0.044518 0.569295 0.018205
v -0.044122 0.512443 0.183419
v 0.047960 0.541078 0.100941
v -0.054023 0.023724 -0.123283
v 0.079031 0.020075 -0.017169
v -0.052970 0.018507 0.088217
v -0.128493 -0.542340 0.005727
v -0.133570 0.021378 -0.009680
v -0.105510 0.543736 0.110475
v -0.049789 0.266727 -0.078083
v 0.065192 0.252135 0.016797
v -0.049029 0.238511 0.111124
v -0.121072 0.254042 0.025240
v 0.022503 0.647054 -0.028502
v -0.160058 0.637675 0.026467
v -0.165508 0.564017 0.204349
v 0.013685 0.527873 0.259318
v 0.129883 0.579193 0.115408
v 0.022889 0.743291 0.026360
v -0.135214 0.735169 0.073965
v -0.139933 0.671379 0.228015
v 0.015253 0.640077 0.275620
v 0.115882 0.684521 0.150990
v 0.008595 0.798765 0.105083
v -0.082686 0.794076 0.132567
v -0.085411 0.757247 0.221509
v 0.004186 0.739175 0.248993
v 0.062284 0.764834 0.177038
v -0.016550 0.798612 0.186572
v 0.005994 0.575048 -0.015647
v -0.160502 0.568385 0.025386
v -0.164884 0.503517 0.158171
v -0.001096 0.470089 0.199204
v 0.104513 0.514297 0.091778
v -0.329384 -0.597259 0.310002
v -0.214680 -0.560271 0.329577
v -0.263203 -0.565444 0.233867
v -0.430609 0.218766 0.393159
v -0.328587 0.208192 0.404704
v -0.373400 0.222917 0.339009
v -0.427751 -0.196917 0.346134
v -0.358387 -0.166933 0.269659
v -0.307439 -0.162213 0.365457
v -0.273333 -0.584729 0.365899
v -0.368543 -0.185994 0.408591
v -0.378662 0.211130 0.439822
v -0.439088 -0.014996 0.365362
v -0.375602 0.003333 0.298751
v -0.327870 -0.000763 0.381059
v -0.383554 -0.012480 0.420709
v -0.464400 0.272490 0.350756
v -0.444105 0.257429 0.473974
v -0.332751 0.236578 0.489319
v -0.284226 0.238752 0.375583
v -0.365589 0.260947 0.289947
v -0.448102 0.351103 0.362772
v -0.430526 0.338060 0.469482
v -0.334090 0.320003 0.482771
v -0.292066 0.321886 0.384273
v -0.362529 0.341107 0.310110
v -0.413078 0.403494 0.383669
v -0.402930 0.395963 0.445278
v -0.347253 0.385538 0.452950
v -0.322990 0.386625 0.396083
v -0.363672 0.397722 0.353264
v -0.368711 0.415624 0.407847
v -0.456623 0.219679 0.348505
v -0.440434 0.205387 0.471157
v -0.342367 0.187024 0.484671
v -0.297948 0.189968 0.370370
v -0.368562 0.210149 0.286215
v 0.199516 -0.583457 -0.206885
v 0.108814 -0.522711 -0.102697
v 0.223413 -0.566794 -0.086465
v 0.463516 0.198285 -0.302269
v 0.374023 0.209292 -0.208934
v 0.467079 0.194374 -0.207899
v 0.369461 -0.209689 -0.299202
v 0.390677 -0.194330 -0.175509
v 0.274044 -0.150236 -0.189410
v 0.114800 -0.544024 -0.187930
v 0.276398 -0.169120 -0.281679
v 0.383219 0.214958 -0.282676
v 0.419318 -0.033287 -0.309708
v 0.433038 -0.026756 -0.199497
v 0.327288 0.004087 -0.208106
v 0.332289 -0.003594 -0.291662
v 0.541181 0.229666 -0.303085
v 0.418429 0.258730 -0.367808
v 0.315523 0.262823 -0.268514
v 0.374676 0.236289 -0.142423
v 0.514141 0.215796 -0.163789
v 0.543733 0.310682 -0.288955
v 0.437426 0.335853 -0.345007
v 0.348307 0.339398 -0.259016
v 0.399536 0.316418 -0.149818
v 0.520315 0.298671 -0.168321
v 0.516558 0.372937 -0.264152
v 0.455182 0.387469 -0.296514
v 0.403729 0.389516 -0.246867
v 0.433305 0.376249 -0.183821
v 0.503038 0.366003 -0.194504
v 0.466937 0.399749 -0.235323
v 0.520565 0.180294 -0.297817
v 0.401607 0.209207 -0.366201
v 0.310981 0.212812 -0.278756
v 0.373928 0.186127 -0.156326
v 0.503459 0.166030 -0.168107
vt 0.273155 0.075047
vt 0.371431 0.033310
vt 0.385340 0.094317
vt 0.300230 0.130462
vt 0.272210 0.036642
vt 0.345526 0.000006
vt 0.385009 0.150817
vt 0.335871 0.171685
vt 0.871880 0.627220
vt 0.964508 0.677657
vt 0.926217 0.731115
vt 0.852289 0.682376
vt 0.885879 0.591777
vt 0.968869 0.633613
vt 0.879076 0.762376
vt 0.833376 0.730827
vt 0.775420 0.592602
vt 0.764099 0.658982
vt 0.805203 0.552736
vt 0.777248 0.719935
vt 0.711508 0.418553
vt 0.770647 0.425790
vt 0.738491 0.650732
vt 0.678475 0.644413
vt 0.718128 0.742586
vt 0.665772 0.735831
vt 0.636160 0.633802
vt 0.672161 0.408611
vt 0.692970 0.862369
vt 0.649738 0.852136
vt 0.628033 0.728584
vt 0.616054 0.851592
vt 0.340633 0.841956
vt 0.409340 0.830067
vt 0.410518 0.875448
vt 0.351015 0.885743
vt 0.338544 0.812412
vt 0.406670 0.801227
vt 0.402199 0.912531
vt 0.367846 0.918475
vt 0.276986 0.830698
vt 0.279338 0.802512
vt 0.138493 0.717373
vt 0.206587 0.718804
vt 0.201582 0.762987
vt 0.143845 0.765827
vt 0.140305 0.688999
vt 0.210776 0.691666
vt 0.270457 0.735966
vt 0.254385 0.781837
vt 0.196654 0.801230
vt 0.161576 0.804958
vt 0.274011 0.706622
vt 0.228456 0.813545
vt 0.183993 0.829237
vt 0.000000 0.456500
vt 0.067662 0.444718
vt 0.111338 0.673886
vt 0.042029 0.684316
vt 0.115700 0.775578
vt 0.054206 0.780282
vt 0.111009 0.906249
vt 0.058648 0.904317
vt 0.428146 0.550739
vt 0.487164 0.326161
vt 0.534691 0.337309
vt 0.479251 0.561500
vt 0.466653 0.651714
vt 0.420254 0.647425
vt 0.423153 0.771892
vt 0.464317 0.768360
vt 0.518703 0.739066
vt 0.516346 0.662162
vt 0.563804 0.667901
vt 0.564426 0.736992
vt 0.491201 0.743633
vt 0.487113 0.665307
vt 0.603722 0.683211
vt 0.604008 0.722843
vt 0.530742 0.816102
vt 0.575592 0.805734
vt 0.501264 0.813640
vt 0.315191 0.217819
vt 0.393613 0.227640
vt 0.384965 0.272425
vt 0.317050 0.263920
vt 0.317112 0.189567
vt 0.389567 0.198113
vt 0.367417 0.308467
vt 0.328206 0.303557
vt 0.344544 0.335109
vt 0.807565 0.838253
vt 0.756467 0.820785
vt 0.794230 0.794119
vt 0.808685 0.892267
vt 0.721118 0.862336
vt 0.756694 0.764825
vt 0.841148 0.793728
vt 0.809341 0.748245
vt 0.933148 0.519892
vt 0.935784 0.485128
vt 0.958067 0.505442
vt 0.965443 0.473971
vt 0.960360 0.537325
vt 0.954499 0.576356
vt 0.907367 0.546160
vt 0.986602 0.516803
vt 0.213472 0.838183
vt 0.227147 0.875026
vt 0.192946 0.866673
vt 0.198390 0.902328
vt 0.262666 0.894433
vt 0.212859 0.941721
vt 0.162371 0.886612
vt 0.163288 0.847105
vt 0.935892 0.777316
vt 0.934987 0.883131
vt 0.873938 0.874364
vt 0.874721 0.782725
vt 0.975340 0.790419
vt 0.973329 0.885529
vt 0.294027 0.680206
vt 0.398488 0.663305
vt 0.400186 0.726142
vt 0.309720 0.740778
vt 0.286537 0.638683
vt 0.380129 0.620100
vt 0.388573 0.782164
vt 0.336342 0.790614
vt 0.639933 0.920100
vt 0.702083 0.907702
vt 0.701503 0.954093
vt 0.647679 0.964830
vt 0.641334 0.891171
vt 0.696069 0.880252
vt 0.693158 0.993801
vt 0.662083 1.000000
vt 0.452449 0.000000
vt 0.445938 0.064306
vt 0.401152 0.059904
vt 0.406791 0.004213
vt 0.397040 0.446174
vt 0.348620 0.424978
vt 0.445366 0.213888
vt 0.498068 0.235891
vt 0.475980 0.121838
vt 0.525401 0.137843
vt 0.501592 0.000000
vt 0.547467 0.008963
vt 0.678137 0.122234
vt 0.741931 0.096850
vt 0.832986 0.309865
vt 0.768110 0.334931
vt 0.856103 0.403797
vt 0.797374 0.421192
vt 0.875198 0.526435
vt 0.823635 0.534868
vt 0.509530 0.921554
vt 0.432146 0.907801
vt 0.446120 0.864174
vt 0.513136 0.876085
vt 0.501435 0.950237
vt 0.425030 0.935921
vt 0.467400 0.829745
vt 0.506093 0.836621
vt 0.534869 0.908095
vt 0.613201 0.897580
vt 0.616475 0.943602
vt 0.548637 0.952708
vt 0.535786 0.879251
vt 0.608118 0.869722
vt 0.609245 0.984139
vt 0.570078 0.989397
vt 0.090753 0.032429
vt 0.160955 0.015670
vt 0.229903 0.319847
vt 0.155807 0.336064
vt 0.224967 -0.000000
vt 0.298632 0.305953
vt 0.260959 0.445796
vt 0.192835 0.461245
vt 0.000000 0.051211
vt 0.065166 0.361801
vt 0.322086 0.432149
vt 0.309200 0.606287
vt 0.248491 0.625987
vt 0.115826 0.490433
vt 0.361392 0.586226
vt 0.180888 0.647397
vt 0.568022 0.044438
vt 0.660348 0.048975
vt 0.652905 0.360782
vt 0.559429 0.355250
vt 0.628754 0.488763
vt 0.547094 0.477267
vt 0.583641 0.649661
vt 0.515767 0.631189
vt 0.894006 0.001990
vt 0.938769 0.000006
vt 0.963338 0.228541
vt 0.915427 0.229106
vt 0.968849 0.327198
vt 0.925537 0.327479
vt 0.835733 0.012263
vt 0.857272 0.241200
vt 0.978659 0.451861
vt 0.939928 0.456454
vt 0.874886 0.338336
vt 0.896385 0.461045
vn -0.039368 -0.037995 -0.998502
vn -0.999938 -0.002489 0.010852
vn -0.999440 0.014634 -0.030082
vn -0.029803 0.027290 -0.999183
vn 0.028960 0.021699 0.999345
vn 0.999876 -0.013325 0.008418
vn 0.998717 0.006201 -0.050259
vn 0.030671 -0.012176 0.999455
vn -0.038326 0.256867 -0.965687
vn 0.996515 0.056091 -0.061737
vn 0.039482 -0.173489 0.984044
vn -0.997779 0.057013 -0.034445
vn -0.056279 0.320363 -0.945622
vn 0.997633 0.049598 -0.047624
vn 0.033997 -0.240659 0.970014
vn -0.998375 0.051901 -0.023520
vn 0.329411 0.263217 -0.906755
vn -0.775543 0.262524 -0.574121
vn -0.731853 0.548526 -0.404363
vn 0.340787 0.587413 -0.734037
vn -0.783204 -0.153698 0.602469
vn -0.749989 0.180316 0.636398
vn 0.268236 -0.375272 0.887255
vn 0.290954 -0.009326 0.956692
vn 0.993874 -0.110339 0.006342
vn 0.964323 0.236537 0.118872
vn -0.559831 0.809993 -0.174645
vn 0.301758 0.846766 -0.438098
vn -0.571008 0.501264 0.650142
vn 0.257462 0.347091 0.901799
vn 0.797859 0.552447 0.241295
vn 0.068261 0.922617 0.379630
vn 0.268872 -0.126131 -0.954882
vn -0.827826 -0.021484 -0.560573
vn -0.801108 -0.391241 0.452942
vn 0.210659 -0.684466 0.697946
vn 0.888197 -0.450873 -0.088436
vn -0.968666 -0.229957 -0.093837
vn -0.161880 -0.137564 0.977175
vn -0.140719 -0.114889 0.983361
vn -0.978285 -0.179838 -0.103038
vn 0.969061 0.213337 0.124131
vn 0.080634 0.104202 -0.991282
vn 0.103152 0.130936 -0.986010
vn 0.977621 0.188390 0.093625
vn -0.997797 0.004270 -0.066211
vn 0.052937 0.162887 -0.985224
vn 0.995233 0.061356 0.075801
vn -0.174130 -0.084729 0.981071
vn -0.997121 0.056310 -0.050793
vn 0.050554 0.159552 -0.985894
vn 0.997648 0.008072 0.068067
vn -0.176565 -0.087343 0.980406
vn -0.917106 0.126686 -0.377978
vn -0.730281 0.046820 0.681540
vn -0.664623 0.283359 0.691364
vn -0.857479 0.370686 -0.356821
vn 0.549978 -0.041262 0.834160
vn 0.519675 0.191519 0.832621
vn 0.989253 -0.013704 -0.145569
vn 0.966371 0.217214 -0.137644
vn 0.167751 0.129946 -0.977228
vn 0.176772 0.355206 -0.917922
vn -0.517488 0.599697 0.610385
vn -0.685401 0.677638 -0.266519
vn 0.485632 0.500879 0.716437
vn 0.858876 0.505130 -0.084705
vn 0.201248 0.653699 -0.729505
vn 0.160808 0.982833 0.090445
vn -0.914168 -0.056022 -0.401446
vn -0.706369 -0.110916 0.699100
vn 0.516655 -0.205960 0.831052
vn 0.966741 -0.186153 -0.175384
vn 0.176931 -0.029775 -0.983773
vn 0.558712 -0.429762 -0.709328
vn -0.712233 0.142050 -0.687420
vn -0.680819 0.141045 -0.718744
vn 0.590401 -0.372284 -0.716122
vn -0.572680 0.416807 0.705910
vn 0.694652 -0.148619 0.703826
vn 0.736477 -0.154341 0.658620
vn -0.584272 0.385952 0.713910
vn 0.650529 -0.149851 -0.744551
vn 0.760582 -0.113486 0.639247
vn -0.629421 0.232526 0.741459
vn -0.661095 0.177418 -0.729024
vn 0.649669 -0.081812 -0.755802
vn 0.750439 -0.113853 0.651060
vn -0.650092 0.166864 0.741307
vn -0.670009 0.177261 -0.720879
vn 0.885044 -0.096425 -0.455410
vn -0.096115 0.169823 -0.980776
vn -0.066371 0.436558 -0.897225
vn 0.902600 0.189274 -0.386636
vn -0.953459 0.277057 -0.118975
vn -0.843712 0.523674 -0.117965
vn -0.471941 0.070884 0.878776
vn -0.374022 0.334935 0.864828
vn 0.682169 -0.131192 0.719329
vn 0.697053 0.126856 0.705709
vn 0.014938 0.741366 -0.670934
vn 0.794523 0.548294 -0.260973
vn -0.605202 0.794636 -0.047797
vn -0.230641 0.640180 0.732785
vn 0.624809 0.485237 0.611686
vn 0.166481 0.977931 0.126234
vn 0.838324 -0.316155 -0.444138
vn -0.185935 0.002081 -0.982560
vn -0.978791 0.095389 -0.181301
vn -0.485814 -0.150054 0.861086
vn 0.637631 -0.303844 0.707888
s 1
g pCylinder5
usemtl initialShadingGroup
f 1/174/1 10/175/2 11/176/3 7/177/4
f 2/190/5 3/191/6 8/192/7 9/193/8
f 3/182/6 1/174/1 7/177/4 8/183/7
f 8/183/7 7/177/4 13/181/9 14/187/10
f 9/193/8 8/192/7 14/194/10 15/195/11
f 7/177/4 11/176/3 16/180/12 13/181/9
f 11/176/3 10/175/2 2/178/5 9/179/8
f 15/184/11 16/180/12 11/176/3 9/179/8
f 14/187/10 13/181/9 4/186/13 6/189/14
f 15/195/11 14/194/10 6/196/14 5/197/15
f 12/185/16 16/180/12 15/184/11 5/188/15
f 13/181/9 16/180/12 12/185/16 4/186/13
s 2
f 17/116/17 18/117/18 23/118/19 22/119/20
f 18/1/18 19/2/21 24/3/22 23/4/19
f 19/122/21 20/123/23 25/124/24 24/125/22
f 20/17/23 21/9/25 26/12/26 25/18/24
f 21/9/25 17/10/17 22/11/20 26/12/26
f 22/95/20 23/96/19 28/93/27 27/92/28
f 23/4/19 24/3/22 29/7/29 28/8/27
f 24/125/22 25/124/24 30/128/30 29/129/29
f 25/18/24 26/12/26 31/16/31 30/20/30
f 26/12/26 22/11/20 27/15/28 31/16/31
f 27/92/28 28/93/27 32/94/32
f 28/93/27 29/97/29 32/94/32
f 29/97/29 30/99/30 32/94/32
f 30/99/30 31/98/31 32/94/32
f 31/98/31 27/92/28 32/94/32
f 18/117/18 17/116/17 33/120/33 34/121/34
f 19/2/21 18/1/18 34/5/34 35/6/35
f 20/123/23 19/122/21 35/126/35 36/127/36
f 21/9/25 20/17/23 36/19/36 37/13/37
f 17/10/17 21/9/25 37/13/37 33/14/33
s 3
f 38/198/38 47/199/39 48/200/40 44/201/41
f 39/21/42 40/22/43 45/23/44 46/24/45
f 40/204/43 38/198/38 44/201/41 45/205/44
f 45/205/44 44/201/41 50/203/46 51/208/47
f 46/24/45 45/23/44 51/25/47 52/26/48
f 44/201/41 48/200/40 53/202/49 50/203/46
f 48/27/40 47/28/39 39/21/42 46/24/45
f 52/26/48 53/31/49 48/27/40 46/24/45
f 51/208/47 50/203/46 41/207/50 43/209/51
f 52/26/48 51/25/47 43/29/51 42/30/52
f 49/32/53 53/31/49 52/26/48 42/30/52
f 50/203/46 53/202/49 49/206/53 41/207/50
s 4
f 54/33/54 55/34/55 60/35/56 59/36/57
f 55/130/55 56/131/58 61/132/59 60/133/56
f 56/43/58 57/44/60 62/45/61 61/46/59
f 57/44/60 58/49/62 63/50/63 62/45/61
f 58/138/62 54/139/54 59/140/57 63/141/63
f 59/36/57 60/35/56 65/39/64 64/40/65
f 60/133/56 61/132/59 66/136/66 65/137/64
f 61/46/59 62/45/61 67/51/67 66/52/66
f 62/45/61 63/50/63 68/54/68 67/51/67
f 63/105/63 59/106/57 64/100/65 68/104/68
f 64/100/65 65/101/64 69/102/69
f 65/101/64 66/103/66 69/102/69
f 66/52/66 67/51/67 69/55/69
f 67/107/67 68/104/68 69/102/69
f 68/104/68 64/100/65 69/102/69
f 55/34/55 54/33/54 70/37/70 71/38/71
f 56/131/58 55/130/55 71/134/71 72/135/72
f 57/44/60 56/43/58 72/47/72 73/48/73
f 58/49/62 57/44/60 73/48/73 74/53/74
f 54/33/54 58/41/62 74/42/74 70/37/70
s 5
f 75/142/75 84/143/76 85/144/77 81/145/78
f 76/150/79 77/151/80 82/152/81 83/153/82
f 77/56/80 75/57/75 81/58/78 82/59/81
f 82/59/81 81/58/78 87/60/83 88/61/84
f 83/153/82 82/152/81 88/154/84 89/155/85
f 81/145/78 85/144/77 90/146/86 87/147/83
f 85/64/77 84/65/76 76/66/79 83/67/82
f 89/68/85 90/69/86 85/64/77 83/67/82
f 88/61/84 87/60/83 78/62/87 80/63/88
f 89/155/85 88/154/84 80/156/88 79/157/89
f 86/70/90 90/69/86 89/68/85 79/71/89
f 87/147/83 90/146/86 86/148/90 78/149/87
s 6
f 91/158/91 92/159/92 97/160/93 96/161/94
f 92/80/92 93/72/95 98/75/96 97/81/93
f 93/72/95 94/73/97 99/74/98 98/75/96
f 94/166/97 95/167/99 100/168/100 99/169/98
f 95/83/99 91/84/91 96/85/94 100/86/100
f 96/161/94 97/160/93 102/164/101 101/165/102
f 97/112/93 98/113/96 103/111/103 102/109/101
f 98/75/96 99/74/98 104/78/104 103/79/103
f 99/169/98 100/168/100 105/172/105 104/173/104
f 100/86/100 96/85/94 101/89/102 105/90/105
f 101/108/102 102/109/101 106/110/106
f 102/109/101 103/111/103 106/110/106
f 103/111/103 104/114/104 106/110/106
f 104/114/104 105/115/105 106/110/106
f 105/90/105 101/89/102 106/91/106
f 92/159/92 91/158/91 107/162/107 108/163/108
f 93/72/95 92/80/92 108/82/108 109/76/109
f 94/73/97 93/72/95 109/76/109 110/77/110
f 95/167/99 94/166/97 110/170/110 111/171/111
f 91/84/91 95/83/99 111/87/111 107/88/107
