# This file uses centimeters as units for non-parametric coordinates.

v 0.072080 1.402281 0.906251
v 0.206020 -0.210724 -0.700075
v -0.836393 1.123863 -0.160809
v 0.205271 0.347576 -0.217516
v -0.374471 -0.262769 0.936969
v -1.966408 -0.244803 0.147052
v -0.412781 -1.481661 0.997426
v 0.969908 -1.094560 -0.049893
v 0.195132 -0.085118 -0.699667
v 0.497666 0.132656 1.635300
v 0.400912 0.902216 0.036247
v -0.354607 -0.207758 -0.452225
v -0.909968 1.324473 0.274975
v 0.017993 -0.691741 0.798217
v -1.065869 -0.012770 1.435162
v -0.085969 0.821550 0.256532
v 1.511683 -0.800098 0.123198
v 0.297334 -0.799502 0.876067
v 1.083856 0.349189 -1.019499
v 0.028064 -0.151150 0.319724
v -0.918341 0.852912 -0.051264
v 0.005785 0.224934 0.942538
v 1.241557 -0.149082 0.330625
v 0.461175 -0.115727 -1.265760
v -0.540496 -1.260507 -0.189023
v -0.152592 -0.301320 -1.634029
v 1.072937 0.114866 -1.028782
v -0.622760 -0.744617 0.059030
v 0.169621 -0.866962 1.645133
v 1.205923 0.007569 1.194877
v 1.310381 0.691121 -0.796404
v -0.713605 -0.032461 -0.034879
v -0.203709 -0.042077 -1.369559
v -0.519878 0.600935 -0.998971
v -0.098513 0.789072 0.353254
v 1.415442 -0.072721 0.001395
v 0.538391 -0.371741 -0.350620
v -0.190587 -1.028608 1.131160
v -1.415251 -1.251651 0.429800
v 0.427326 -0.198305 -0.413176
v 0.407738 1.818006 0.651773
v -0.689093 0.536682 0.091659
v 0.014512 0.192862 -1.328384
v 0.709145 -0.227799 0.252465
v -0.295240 0.553886 0.901802
v -0.503230 -1.272505 -0.424647
v 1.132631 -0.579292 -0.380267
v 0.663939 0.472593 0.465499
v 0.585786 0.991428 -0.472862
v -0.967939 0.647222 -1.264072
v -1.360325 -0.151335 -0.146129
v -0.184248 -0.439226 0.890203
v 0.249507 -0.473281 -1.348258
v 1.096719 -0.049724 -0.278543
v -0.597586 -0.495461 -0.231389
v 0.037959 -0.056419 -1.433380
v 1.455287 0.461826 -0.494680
v -1.155524 0.667053 0.418226
v 0.977096 0.277192 1.125301
v -0.252479 -0.167057 1.701708
v -0.281152 0.323844 0.439410
v 0.881719 -1.579617 0.913310
v 0.408364 -0.028453 1.640207
v -0.140265 -0.892652 0.493591
v 0.952973 0.024767 0.425551
v 0.402575 0.561818 -1.176695
v -0.847230 0.766726 -0.491609
v -0.704436 0.172470 0.799874
v 1.059655 0.134757 0.587474
v 0.528823 -0.391820 -0.651844
v -0.740099 -0.974151 1.151136
v -0.158917 -1.818006 0.155349
v -0.954330 0.565348 0.308387
v 0.356190 -0.426968 -1.272074
v -1.069041 -0.410444 -1.172567
v 1.375107 -0.935604 0.100616
v 0.843491 0.714163 -0.292077
v -0.063302 0.190566 -1.264203
v -0.085361 0.344759 -0.584783
v 0.721825 -0.222080 0.893628
v 1.966408 0.285028 0.408538
v 0.051708 -0.396973 1.565512
v 0.516184 0.825535 0.990021
v -0.428188 0.493094 -0.478379
v -0.102090 0.275049 0.998824
v 0.726016 0.808541 -1.057784
v 1.147287 0.883744 0.667160
v 0.542083 -0.999357 -0.422108
v 0.173588 1.230851 -0.121451
v -0.741610 0.222617 -0.554272
v 0.974023 -0.378422 -0.148874
v 0.252310 -0.817006 -1.301362
v -1.276134 -0.638036 -0.412326
v -0.992885 0.922718 0.555126
v 0.351146 -0.009244 -1.033911
v 0.699678 0.462377 0.268992
v -0.073147 0.025151 1.452648
v 1.038449 0.757512 0.933554
v 0.474990 0.439494 -0.721720
v 0.994666 -1.303092 -0.172631
v 0.879681 0.465813 -0.300342
v 0.057060 0.496653 0.867477
v -1.690071 0.216078 0.363479
v 0.515055 0.274400 -0.214473
v -1.057892 0.956929 -0.681961
v 0.608584 0.466094 0.254361
v -0.715182 0.609168 0.772657
v -1.383716 0.122548 -0.800499
v -0.519838 1.319805 1.284844
v -0.002937 -0.409032 -0.109412
v 0.752015 0.716422 1.040352
v -0.327131 0.009437 -0.791813
v 1.353631 -0.549889 -0.647778
v 1.257750 -0.471458 0.775638
v 0.524097 0.751406 0.202292
v -0.670396 0.441813 1.481313
v -1.481088 -0.277308 0.550131
v 1.572856 -0.164680 -0.306746
v 0.246201 -0.946437 -1.194100
v -0.673763 0.006367 -0.658110
v -0.633843 -1.016108 0.632128
v -0.311807 -0.602371 -1.066010
v 0.674360 0.343488 -0.648542
v 1.255720 0.153299 0.554062
v -0.412890 0.193660 -0.999682
v -0.021592 1.214254 -0.079502
v 0.961673 -1.011220 0.772997
v 0.278581 -0.281175 1.793721
v -0.532720 0.696886 0.551247
v 0.715790 0.041782 0.576217
v -0.852439 0.017262 -1.079097
v -1.040931 0.152371 0.330751
v -0.497349 -0.004604 -1.793721
v 0.350498 -0.197892 0.314313
v 0.694934 0.740494 -0.706594
v 0.417184 -1.216522 0.004103
v -0.397644 -0.695771 -1.047719
v -0.460551 0.876090 -0.220766
v 0.388764 -1.382309 0.163824
v 0.730679 0.174816 -0.621676
v -0.670716 0.399644 -0.785996
v 0.750586 0.699556 1.054284
v 1.398379 1.280930 -0.495208
v 0.555108 0.362148 -1.192482
v -0.197318 0.612589 1.072411
v -1.512532 0.805153 0.548399
v -1.183485 -0.396461 -0.719042
v -0.693485 0.516836 0.525273
v 1.009498 0.139831 0.866256
v 1.416940 1.077870 -0.131506
v 1.166155 0.467617 0.866728
v 1.076752 -0.948930 -0.202830
v -0.097887 -0.412855 -0.814634
v -0.250128 0.047660 1.682699
v 0.700001 -0.182816 -0.377433
v -0.651499 0.141385 -0.046078
v -0.043035 -1.114149 -1.093516
v -0.089344 0.879798 0.011945
v 0.661586 0.516523 -1.148053
v 0.827796 1.348933 0.660860
v 0.674875 0.153594 1.428478
v -0.024069 -0.665108 0.014349
v 0.876985 -0.032772 -1.276829
v -0.674013 -0.898771 -1.331650
v -0.733159 -0.883205 0.095836
v 0.765989 1.599311 -0.730786
v -0.229016 0.126909 -0.754289
v 0.343620 -0.279922 0.489910
v -0.392593 0.804982 -0.472153
v 0.522050 -1.246215 -0.077150
v -0.122709 -0.361630 0.841137
v -0.012847 1.004939 -0.329309
v -1.486580 -0.528545 0.493216
v -1.286045 0.618144 -0.849707
v 0.572211 0.130266 0.750112
v -0.462352 -0.544539 0.031937
v 0.610930 -0.690442 -1.377081
v -1.410878 -0.679658 -0.556567
v -0.272825 -0.775555 -1.415111
v 0.779662 -0.265529 -0.076941
v -1.099261 0.464499 0.818217
v -0.227657 1.575770 0.601793
v 1.105907 0.458871 0.237516
v 0.370497 0.632590 0.022144
v -0.439877 0.232988 -1.084685
v -1.686582 -0.351356 0.039069
v -0.730812 -1.248245 -0.075040
v 0.566269 0.625347 0.010065
v -0.441720 0.192006 0.925287
v -0.495606 -0.730549 -1.626469
v 1.035853 0.098245 -1.271097
v 0.725969 0.072893 0.123458
v -0.639218 -0.271118 1.153353
v 0.352124 0.890394 -0.540206
v -0.733432 -0.487730 -0.255782
v 0.734639 0.681547 1.319577
v -0.019060 -1.230668 0.331962
v 1.321365 -0.748475 0.442455
v 0.239221 0.044634 -1.274477
v 0.384932 -0.687314 0.338462
v 1.331566 0.316836 0.708626
v 0.654829 -0.717704 0.932537
v -0.038293 -0.364489 -0.665392
v -1.093846 0.371790 -0.044781
v 1.240268 -0.812471 0.219215
v -0.747714 0.282143 0.442290
v 0.315197 0.535173 -0.478391
v -0.364868 -0.243729 0.878438
v -0.220498 -0.563708 -0.506563
v 0.955426 0.756325 -0.688958
v 0.594557 1.047067 0.403680
v 0.768747 -0.370324 0.449678
v -0.966445 -0.593718 0.137019
v 0.000541 1.039685 -0.070924
v 0.507981 -1.109702 -0.638949
v 0.552780 -0.489269 0.647329
v 0.025839 1.582695 0.669913
v 0.438613 -0.162839 -0.738185
v -0.877656 0.906274 -0.206219
v -0.782768 0.941931 0.839653
v 0.305882 -0.955448 0.195598
v 0.855890 0.309002 0.569917
v -0.642965 0.363782 0.994504
v -1.147095 -1.267458 0.501086
v -0.377637 -1.143049 -0.696375
v -0.642511 -0.297723 0.874308
v -0.785091 -0.481396 -0.887649
v 0.447696 0.219897 -1.060513
v 0.324017 -0.139551 -0.909067
v 0.177174 0.684734 0.248710
v 1.152482 -0.464338 1.190498
v 0.081593 0.178003 1.504903
v 0.608974 -1.078228 -0.323693
v 0.783697 0.567861 0.323160
v -0.665458 -0.860431 -0.187280
v 1.129837 0.434302 0.360984
v -0.261528 0.738305 0.475621
v 0.733690 -0.988964 0.590671
v 0.064037 0.436502 -1.058457
v 1.388368 -0.672042 -0.639132
v 0.092043 0.037541 -0.899862
v 0.980720 -0.712203 1.061808
v -0.164581 -1.193482 0.356036
v -0.176141 0.329259 -1.042793
v 1.054881 1.166900 0.684331
v -0.415836 0.222724 0.361719
v -1.165312 0.069749 -0.901025
v 0.881238 0.767106 -0.176223
v -0.257293 0.379344 0.595039
v 0.884471 -0.011197 0.488868
v -0.327111 0.421486 -1.393914
v -0.413119 -0.699232 -0.511842
v 1.275253 0.079011 0.003529
v -0.532315 1.309542 -0.643388
v 1.053115 1.483763 0.140583
v -1.275017 -0.448263 -1.080820
v -0.029448 0.129881 0.739707
v -1.540932 -0.695672 0.301039
v -0.951605 -1.216495 0.598668
v -0.958773 -1.045489 -0.819839
v 0.343122 0.156382 -0.681529
v -0.801445 0.374859 0.987891
v -0.121474 0.173955 -0.641781
v 1.140027 0.655627 -0.174807
v -0.077696 -1.366670 -0.870102
v -0.855144 0.312810 0.462163
v -1.546407 -0.417590 -0.552788
v 0.060899 -0.460708 1.171442
v -0.940005 -0.168073 -0.856505
v 0.410327 -0.536398 -0.569456
v -1.116023 0.200486 0.380230
v -1.146681 1.168773 -0.669978
v 0.481566 0.669412 -1.177920
v -0.505509 0.982654 -0.970028
v -0.327678 0.606058 0.757718
v 0.318175 -0.623745 0.423183
v -0.207466 -0.790438 -0.325987
v 1.766689 0.331763 -0.534284
v 1.507172 -1.062731 -0.706023
v 0.610836 1.087232 1.014104
v 0.991181 1.209119 -0.357733
v -0.496354 0.367439 -0.844939
v -0.041835 0.540644 0.977465
v -0.316980 -0.912135 -0.758547
v 0.952910 -0.056547 0.143618
v 0.201480 0.844286 -1.221882
v 0.151652 0.662646 1.050679
v -0.908035 0.463442 0.113216
v -0.630874 1.314028 0.016469
v 0.239846 -0.783542 0.221553
v -0.628393 -0.269622 -0.790131
v 0.218567 0.430390 -0.947453
v 0.883302 0.952127 1.170549
v -0.274047 1.454312 -0.081213
v 0.605691 -0.050718 -1.047085
v 0.014851 -0.994920 0.337815
v 0.907844 -0.288150 1.200657
v 0.346864 -0.768156 -0.076111
v 1.423397 1.212066 0.270021
v 0.021692 0.279526 0.839358
v 0.307330 0.554369 1.256813
v 0.736694 -0.387465 0.271901
v -0.135057 0.524297 -0.980015
v 0.809126 -0.127815 -0.312486
v -0.859624 0.201557 -0.827600
v -1.306314 -0.957585 -0.121685
v -0.321105 -0.716851 -1.148400
v -1.349406 0.091780 -0.573797
v -0.324397 0.384793 0.848192
v -0.282311 -0.037519 -0.454233
v 0.341799 0.015947 0.829934
v 1.720504 0.887057 0.123611
v 0.557876 0.023237 -1.341511
v -1.017501 0.172159 0.300445
v -0.466958 1.212881 -0.509035
v -0.259825 1.586610 0.125784
v 0.821708 -0.232017 -0.724447
v 0.946026 1.538808 -0.639131
v 0.342532 -0.441120 0.896738
v -0.537375 -1.047913 -1.117604
v 0.744813 -0.484962 -0.833811
v -1.399118 0.642813 0.201529
v -0.649326 1.208378 -0.875227
v 0.708278 0.124920 -0.498953
v -0.615196 -0.762826 -1.439564
v 0.955301 -0.430842 0.180108
v 0.719062 -1.595979 -0.612420
v -0.769898 1.419518 0.672228
v 0.312673 -0.570596 0.412433
v 0.782330 0.630362 1.027720
v 0.884964 -0.456215 -1.394011
v 0.025593 1.089332 -1.217031
v -0.779813 0.522942 -0.181667
v 1.192120 -0.791811 0.445556
v -0.123276 1.061427 0.257798
v 1.224520 0.872441 -0.177156
v 0.514862 -0.572032 1.092081
v 1.682835 0.272692 0.052449
v 0.773409 0.178790 -1.045542
v 0.665417 -1.469420 -0.948965
v -0.504703 0.228427 0.024762
v 0.816887 -0.230028 0.315755
v 0.249409 -0.329080 0.543461
v -0.345758 0.380234 -1.540444
v -1.054875 -0.238411 -0.032802
v 0.816104 -0.581772 -0.905508
v -0.878273 -1.082846 -1.096724
v -1.113926 -0.813883 0.286599
v -0.672294 -0.200021 -0.121050
v 0.743101 -0.178381 -0.315072
v 0.962273 0.405997 1.348965
v 0.775991 -0.456731 1.616292
v -0.603554 0.520034 1.067347
v -0.295044 0.193494 -0.288990
v 0.567266 0.018991 -0.986513
v -0.673027 1.243109 0.484276
v -1.119524 0.335578 -0.524925
v -0.983597 0.007357 0.044343
v -0.162650 -1.112171 0.382221
v 1.149674 -0.451665 -0.617824
v -0.933259 -0.848475 0.095354
v -0.461687 0.318594 -0.580684
v 0.957462 0.364320 0.488185
v -0.331730 0.022086 -1.547003
v 0.276023 -0.463614 0.596532
v 0.979895 -0.126485 -1.000172
v 0.658679 1.386596 0.414906
v 0.522517 -0.693608 -0.509334
v -0.411275 0.384796 -0.590155
v -0.300757 1.161442 -1.057790
v -0.046278 -0.659419 0.291179
v -1.022057 -0.071825 -1.073058
v -0.078270 -0.036541 -1.594953
v 0.747118 -0.698287 0.425155
v -0.613156 -0.626275 -0.006034
v 0.580577 -0.505030 0.144839
v 0.007743 -0.310512 -1.526262
v -0.098130 1.100179 -1.325764
v 0.425982 0.027317 -0.342265
v -0.959220 0.266440 -0.086351
v -1.370694 -1.271251 -0.876764
v -1.439004 -0.137942 0.961075
v 0.288392 0.119553 1.290244
v 0.616165 -0.467910 0.029724
v -0.785403 1.436109 -0.006905
v 0.553814 0.519649 -0.731579
v 0.060205 -0.678141 -0.128997
v -0.279636 0.019581 -1.736065
v -0.764379 0.263875 0.478739
v -1.654473 0.273716 -0.638889
v 1.352937 0.569184 -0.309193
v 0.598445 0.679930 1.296120
v -0.684402 0.454701 0.708724
v 1.537898 0.010221 0.080156
v -0.234433 0.121584 0.009479
v -0.212488 -0.378499 -1.328763
v -0.563852 0.675851 -0.328314
v 1.172344 -0.710986 0.183857
v 0.103203 -0.918947 -0.740884
v -0.598352 -0.974093 0.702163
v 0.993783 -1.415426 0.047269
v 1.458352 -0.084414 0.279729
v -0.650612 -0.671864 0.211891
v -1.333132 0.892275 0.708067
v -0.078541 1.523249 0.444759
v 0.374167 1.050656 -0.360037
v -0.398282 -0.547100 -0.455192
v 0.862007 -1.171391 -0.203424
v 1.511628 -0.490075 0.569045
v -0.017466 0.392845 -0.873985
v 0.872463 0.787028 0.613025
v 0.481861 -0.108920 0.447936
v -1.243854 0.251297 0.673114
v -1.574025 -1.079668 0.271894
v 0.430444 1.274199 -1.527207
v -0.280311 -0.245428 -0.940594
v 0.516820 -0.161670 0.242209
v -0.608603 0.574400 -0.762123
v 1.046639 -0.925355 -0.302868
v 0.206580 0.470830 0.406725
v 0.264587 0.835514 -0.227007
v -0.411814 -1.120651 0.730025
v 0.798294 0.167369 0.917630
v 1.060110 0.307773 -0.721428
v 0.550301 -1.332793 -1.176613
v -0.757401 -1.068278 -0.665336
v 0.883322 0.400333 0.437446
v -0.772434 -1.134365 0.116220
v 0.979585 -1.024541 0.393574
v -0.343998 -0.773789 0.005362
v 1.051282 -1.071079 -0.073830
v 1.431196 0.648783 0.163441
v 0.561898 0.252565 -1.073570
v -0.078452 1.425795 0.097770
v -1.395893 0.912732 -0.108560
v -0.615723 0.573135 1.674503
v -0.898464 1.328161 0.090663
v -0.348876 0.178443 -0.555524
v 0.270399 -1.399414 -0.164731
v 0.319079 0.831570 0.304689
v 1.302580 -0.449649 -0.436767
v 0.115408 -0.673612 -1.220225
v 0.306791 1.049781 0.260754
v 1.339382 0.259967 -0.332040
v 0.683519 -0.333466 0.459946
v -1.577776 -0.057138 0.358960
v -0.797569 -0.688599 1.375814
v 0.354244 0.561758 -0.388090
v 1.006723 -0.888668 0.405062
v 0.064435 -1.698409 -0.300536
v 0.952303 -0.929400 -0.338418
v 0.484531 0.532187 1.348283
v 0.996065 0.498646 -0.353411
v 1.043073 1.539519 0.568725
v 0.507521 -0.412242 -0.481907
v -0.239931 0.931157 0.409805
v -0.079949 1.234743 -0.605734
v 0.271113 -0.498972 -0.777617
v -0.838657 -0.807503 0.067768
v 1.500642 -0.079542 -0.495234
v 0.557910 1.420168 -0.351426
v -0.653303 0.665775 -0.424302
v 0.322252 -0.374688 0.998317
v 0.637541 0.381699 -1.129706
v 0.040553 -0.840876 -0.693389
v 0.604119 0.301128 0.665732
v 0.831420 -1.109154 0.695636
v -0.681148 -1.371927 -0.199708
v -0.666207 0.025456 -1.424144
v 0.975744 -0.579488 0.038063
v 0.422953 0.716109 -0.201326
v 0.258574 1.495904 -0.293046
v 0.981917 -0.127466 -0.293304
v -0.319802 -0.707504 -0.190636
v -1.006525 0.296477 1.061683
v 0.940030 0.429123 -0.118715
v -0.386775 0.749277 -0.541263
v -1.198417 -0.787563 -1.145055
v 0.589650 0.196502 -0.127978
v 0.185699 -0.872202 -1.489319
v 0.378566 0.650530 -0.248814
v -0.213302 -1.447493 -0.918144
v 0.921657 -1.038939 -0.152371
v -0.035555 -0.288682 0.218646
v -0.007623 1.378736 -0.395758
v -0.759759 0.969830 -1.539674
v 0.089301 1.094635 0.887516
v 0.392391 -0.824274 -0.306610
v 1.134625 0.126918 0.998333
v -1.369882 -0.697847 -0.611675
v 0.460341 0.660489 -0.539444
v -1.289845 0.709596 -0.844387
v 1.157436 0.636407 0.768878
v 0.707458 -1.082512 0.806174
v 0.082891 -0.946739 -0.471691
v -0.526838 0.863892 0.098246
v -1.157282 -0.370335 0.445637
v 0.389546 -1.219748 0.234981
v 0.457509 1.154543 0.339560
v 0.549984 -0.959653 -0.509931
v 0.481950 0.284160 -1.209759
v -0.273995 0.721506 1.215850
v -0.456817 0.230213 -1.003434
v 0.442429 -0.315956 -0.036732
v 0.071671 0.795986 0.175195
v 0.276203 -1.349731 -0.569169
v -0.797245 -0.429407 -0.774517
v 0.995840 -1.638807 -0.379927
v -0.048003 0.301863 0.206763
v 1.208541 0.124269 -0.449755
v -0.131519 -0.228207 1.128900
v 0.197709 -0.205153 -1.127444
v -0.225856 0.859279 -0.273608
v 0.309085 -0.898195 -0.814489
v -0.318865 -0.191188 1.260561
v 0.978354 0.009798 0.062486
v -0.358350 0.049140 0.010537
v 1.674213 0.897357 -0.580415
v 1.339997 -0.435286 -0.188217
v -0.649849 0.775472 -0.765435
v -0.323983 -1.446016 -0.366922
v 0.047229 -0.327651 0.441112
v -0.598302 0.049602 -0.924067
v 0.079262 1.216250 0.232823
v 1.357991 1.093937 -0.392756
v 0.406555 -0.844466 0.173802
v 0.286447 1.427670 0.022201
v 0.512340 0.129023 1.214276
v -0.350532 1.469619 0.642941
v 0.664439 0.038210 0.361060
v -0.293162 -0.456047 -0.577112
v -0.763394 -0.775157 0.134324
v 0.261808 0.190235 -0.949896
v 1.426238 -0.284343 -0.271416
v -0.522076 1.408154 0.060137
v -0.223434 -0.303738 0.432686
v 0.822114 -0.333166 -0.540669
v 1.464229 -0.431659 0.313015
v 0.255201 -1.734267 0.317639
v -0.791723 -0.762689 0.279627
v 0.889721 1.538171 -0.529027
v 1.560608 0.449495 -1.166328
v 0.465890 -0.696187 -0.361617
v -0.769606 0.321198 0.121949
v 1.144690 -0.915886 0.050494
v -0.019230 -0.230454 1.205495
v -0.873605 0.462365 -0.113791
v 0.049820 -1.249377 -1.304269
v 0.594141 0.041434 -1.023237
v -0.110436 0.859676 0.028687
v 1.148899 -0.895640 0.758722
v 1.503258 0.485841 0.672731
v 0.603250 -1.500910 0.404279
v 0.471592 0.270108 0.472938
v -0.807194 0.199599 -0.160459
v -1.074216 -0.014826 -1.074282
v -0.007123 0.760285 -1.623801
v 0.694154 0.945138 -0.001273
v 0.453734 0.397262 -0.510609
v -1.157770 -1.210265 -0.648159
v -1.311232 0.209485 -0.601099
v -0.792426 -1.007985 0.599452
v 0.626056 -0.874406 0.706799
v 0.580351 0.507880 -0.409334
v -0.559853 -0.993707 0.132232
v 1.602329 -0.283466 0.275543
v 0.410665 0.495009 0.151567
v 0.058652 1.203969 -0.886109
v -0.407618 -0.872634 -0.067377
v -1.278955 0.251101 -0.206841
v -0.228835 1.552014 -0.372852
v -1.138555 0.474319 -0.601848
v -0.638081 -0.273776 0.930612
v 1.755855 0.397331 -0.481758
v -0.209904 0.170350 0.651505
v 0.449634 1.367015 0.233821
v -1.318479 0.780693 -0.343249
v -0.476857 0.744851 0.810806
v 0.353424 -0.685804 0.160871
v 0.742861 -0.022567 -0.453760
v -1.036146 0.473204 0.883908
v -0.652181 -0.123847 -0.745403
v -0.905206 0.237891 -0.098518
v 1.361662 0.303978 -0.337168
v 0.395717 1.298421 -0.682840
v 0.054608 0.596945 0.560863
v -0.866459 -0.778202 -0.086563
v -0.460448 -0.426776 -1.410614
v 0.430291 0.243346 -1.046347
v 0.418166 -0.586519 1.077609
v -0.259267 0.560362 0.560689
v 0.102750 0.968026 -1.506668
v 0.767065 -0.370692 0.215694
v -0.059095 -0.443572 -1.356152
v -0.732859 0.362556 -1.338150
v -0.247781 -0.072197 0.847188
v 0.252954 0.971340 0.009481
v -0.097279 -1.188607 0.676939
v -0.953001 0.357533 -0.764311
v -1.465089 -0.868486 0.416027
v 1.131766 -0.458668 -0.115543
v -1.091430 0.043771 -0.186015
v 0.012376 -1.346462 -0.099879
v 0.826037 -0.553856 0.139220
v -0.268282 1.323181 0.831468
v 0.366541 0.314880 1.620002
v -1.138510 -0.032577 1.103864
v 0.266649 -0.291364 1.100032
v 0.471869 0.842972 -0.252639
v 0.293889 -0.233344 1.232209
v 0.612692 1.038221 0.032192
v -0.222071 0.359928 -0.908311
v -0.417821 -0.273052 -0.527865
v 0.967627 -0.620381 -0.491074
v 1.108441 0.112175 1.122025
v 0.736764 -0.630031 -0.128148
v -0.366430 1.040034 0.964490
v -0.732160 -0.334357 0.827569
v 1.767884 0.672211 -0.624899
v -0.410753 0.005093 -0.532678
v 0.772322 -0.795802 -0.513773
v -0.025262 -1.400769 -0.766319
v 0.954798 0.621867 -0.381045
v -0.426126 0.321868 -0.592012
v 0.219676 0.821016 0.303093
v 0.960538 -1.104267 -0.668718
v -0.099982 -0.926959 0.272195
v 0.601217 -0.396214 -1.542554
v 1.078067 1.199963 -0.923369
v 0.836108 0.754102 0.412341
v -0.473421 0.478468 -0.262901
v -1.371274 -1.055237 -0.275630
v -0.140429 -1.775033 -0.367119
v -1.396949 -0.660795 0.466599
v -0.333979 -1.602504 0.309321
v 0.776195 -0.279411 -0.109598
v -0.434768 1.537221 -0.658668
v 0.467957 -0.534004 -0.350243
v 1.075259 0.744936 -0.158009
v 0.085877 0.194072 0.717210
v -0.722039 -0.165978 -0.824279
v -0.672792 -1.561999 -0.524017
v -0.925246 0.632935 0.298656
v 0.001092 -1.312068 -0.448919
v 0.502960 -0.399375 0.529129
v -0.862355 -0.424593 -0.852872
v 1.388535 -0.364095 -0.492532
v 0.331837 0.056725 0.372197
v 0.957968 -0.983170 0.143009
v 0.739342 -0.722508 -1.244692
v -0.508350 0.471127 -0.823915
v -0.136597 -0.700281 0.452280
v 0.373611 0.065603 -0.640682
v 1.606923 0.769265 0.428129
v 0.049873 1.401294 -0.788575
v 0.447414 -0.842467 -0.701913
v -0.804169 -0.157232 -0.775728
v -0.940524 -0.939302 -0.498028
v 0.492100 0.605228 0.374913
v -0.510991 0.780385 -0.627377
v 1.359288 0.877802 -0.438725
v -0.402662 0.994367 -0.639969
v -0.455215 -0.391716 -0.982706
v 0.072530 0.007716 -1.592307
v -0.248616 -0.035318 0.664909
v 0.111202 -1.107100 -0.208745
v 0.060423 1.633577 -0.537779
v 0.409185 0.209447 -1.542155
v 0.981661 -0.448516 -0.410425
v 1.302833 0.961260 0.015593
v 1.127705 -0.445009 0.197782
v -0.541463 -0.166774 0.740937
v 1.618138 0.621814 0.565364
v -0.462134 0.632188 -0.368644
v 0.034277 -0.172627 0.702479
v 0.155578 0.446181 0.559766
v 0.819048 -0.658479 -0.664198
v 0.173221 0.093661 -1.693106
v -0.466131 -0.013134 1.165100
v 0.155289 -1.113533 -0.733050
v -1.014864 -1.297389 0.065947
v 0.403646 -1.323143 0.330327
v -0.645718 0.459933 -0.628570
v 0.121869 0.414373 0.575669
v 1.810197 0.087035 -0.337759
v -0.347785 0.732941 0.017108
v 1.298578 1.395529 -0.077862
v 1.332864 -0.655901 0.109030
v 0.065246 -0.790409 0.754404
v -0.754553 -0.429276 -0.780544
v 0.969594 -0.147062 0.462085
v 1.585671 0.604733 -1.025802
v 0.315485 0.409631 -1.650318
v -1.327747 -0.569612 0.286690
v 0.136416 -1.550765 0.514986
v 0.914352 -0.359462 0.645632
v -0.759465 -0.572485 -1.377535
v 0.659894 -0.666901 -1.511559
v 0.860324 0.064786 0.095618
v 0.390652 -0.618390 -0.674857
v 0.340724 0.502439 0.703477
v 0.364345 -0.605532 1.605308
v -0.702196 -0.722196 -0.929580
v -0.267443 0.217941 0.514610
v -0.009152 1.358824 -0.305835
v -0.146299 -0.498587 -0.973415
v 1.408985 -0.656001 0.686804
v 1.278110 -0.529087 -1.081053
v -0.899674 0.244665 0.316980
v 0.127545 0.404926 -1.124440
v 1.202424 0.871028 -0.306612
v -0.437298 -0.548419 0.253603
v 1.117775 1.108895 0.440865
v 1.307620 -0.260076 0.078466
v 0.613720 -0.831378 1.467603
v -0.223728 -0.284872 -0.581792
v 0.227091 0.581454 0.461135
v 1.401195 -0.049467 0.071656
v -0.679590 -0.829128 -0.440665
v -0.317746 0.354524 0.273124
v -1.138292 -0.841145 0.034855
v 0.976427 -0.399147 0.764657
v -0.100072 -1.759995 0.380209
v -0.368340 -0.640135 -0.288891
v -0.203071 1.618434 -0.021379
v -1.219501 0.867961 -0.688551
v 0.116720 -0.387186 -0.450474
v -0.800390 1.391089 0.643443
v -0.927616 0.487427 -0.881602
v 1.084587 -0.402129 0.118366
v -0.310343 0.285584 -1.549336
v -0.174605 -1.015820 -0.975422
v -0.607311 -0.645345 -0.620759
v -0.722042 -0.286539 0.757484
v 1.021092 0.055352 0.813583
v -0.902747 -0.875280 0.152178
v 0.264145 -0.652226 -0.641589
v 0.392374 0.996216 0.010141
v -0.752415 -0.785787 -0.364057
v -0.384737 0.361650 0.403835
v 1.298922 -0.205882 0.445719
v 0.607186 1.113937 -1.028939
v 0.758762 1.376518 0.367318
v 0.475926 -0.342005 0.721207
v 0.418914 0.765798 -0.310649
v -0.432166 -0.121067 0.417769
v 0.137324 -1.481780 -0.573540
v 1.101469 -1.249901 -0.148087
v -0.052426 0.452449 0.837075
v -0.558287 -0.670536 0.112873
vt 0.230358 0.845780
vt 0.776056 0.167004
vt 0.230358 0.167004
vt 0.230358 0.845780
vt 0.776056 0.845780
vt 0.230358 0.167004
vt 0.230358 0.845780
vt 0.776056 0.167004
vt 0.230358 0.167004
vt 0.230358 0.845780
vt 0.776056 0.167004
vt 0.230358 0.167004
vt 0.776056 0.845780
vt 0.776056 0.167004
vt 0.230358 0.167004
vt 0.776056 0.845780
vt 0.776056 0.167004
vt 0.230358 0.167004
vt 0.230358 0.845780
vt 0.776056 0.167004
vt 0.230358 0.167004
vt 0.230358 0.845780
vt 0.776056 0.845780
vt 0.230358 0.167004
vt 0.230358 0.845780
vt 0.776056 0.167004
vt 0.230358 0.167004
vt 0.230358 0.845780
vt 0.776056 0.167004
vt 0.230358 0.167004
vt 0.776056 0.845780
vt 0.776056 0.167004
vt 0.230358 0.167004
vt 0.230358 0.845780
vt 0.776056 0.845780
vt 0.230358 0.167004
vt 0.230358 0.845780
vt 0.776056 0.167004
vt 0.230358 0.167004
vt 0.230358 0.845780
vt 0.776056 0.167004
vt 0.230358 0.167004
vt 0.230358 0.845780
vt 0.776056 0.167004
vt 0.230358 0.167004
vt 0.230358 0.845780
vt 0.776056 0.167004
vt 0.230358 0.167004
vt 0.230358 0.845780
vt 0.776056 0.167004
vt 0.230358 0.167004
vt 0.776056 0.845780
vt 0.776056 0.167004
vt 0.230358 0.167004
vt 0.230358 0.845780
vt 0.776056 0.845780
vt 0.230358 0.167004
vt 0.776056 0.845780
vt 0.776056 0.167004
vt 0.230358 0.167004
vt 0.230358 0.845780
vt 0.776056 0.167004
vt 0.230358 0.167004
vt 0.230358 0.845780
vt 0.776056 0.845780
vt 0.230358 0.167004
vt 0.230358 0.845780
vt 0.776056 0.845780
vt 0.230358 0.167004
vt 0.776056 0.845780
vt 0.776056 0.167004
vt 0.230358 0.167004
vt 0.776056 0.845780
vt 0.776056 0.167004
vt 0.230358 0.167004
vt 0.230358 0.845780
vt 0.776056 0.167004
vt 0.230358 0.167004
vt 0.230358 0.845780
vt 0.776056 0.167004
vt 0.230358 0.167004
vt 0.230358 0.845780
vt 0.776056 0.845780
vt 0.230358 0.167004
vt 0.230358 0.845780
vt 0.776056 0.167004
vt 0.230358 0.167004
vt 0.776056 0.845780
vt 0.776056 0.167004
vt 0.230358 0.167004
vt 0.230358 0.845780
vt 0.776056 0.845780
vt 0.230358 0.167004
vt 0.776056 0.845780
vt 0.776056 0.167004
vt 0.230358 0.167004
vt 0.230358 0.845780
vt 0.776056 0.845780
vt 0.230358 0.167004
vt 0.230358 0.845780
vt 0.776056 0.167004
vt 0.230358 0.167004
vt 0.230358 0.845780
vt 0.776056 0.167004
vt 0.230358 0.167004
vt 0.230358 0.845780
vt 0.776056 0.845780
vt 0.230358 0.167004
vt 0.230358 0.845780
vt 0.776056 0.167004
vt 0.230358 0.167004
vt 0.230358 0.845780
vt 0.776056 0.167004
vt 0.230358 0.167004
vt 0.230358 0.845780
vt 0.776056 0.167004
vt 0.230358 0.167004
vt 0.230358 0.845780
vt 0.776056 0.167004
vt 0.230358 0.167004
vt 0.230358 0.845780
vt 0.776056 0.167004
vt 0.230358 0.167004
vt 0.776056 0.845780
vt 0.776056 0.167004
vt 0.230358 0.167004
vt 0.230358 0.845780
vt 0.776056 0.845780
vt 0.230358 0.167004
vt 0.776056 0.845780
vt 0.776056 0.167004
vt 0.230358 0.167004
vt 0.776056 0.845780
vt 0.776056 0.167004
vt 0.230358 0.167004
vt 0.230358 0.845780
vt 0.776056 0.845780
vt 0.230358 0.167004
vt 0.230358 0.845780
vt 0.776056 0.167004
vt 0.230358 0.167004
vt 0.230358 0.845780
vt 0.776056 0.167004
vt 0.230358 0.167004
vt 0.230358 0.845780
vt 0.776056 0.845780
vt 0.230358 0.167004
vt 0.230358 0.845780
vt 0.776056 0.167004
vt 0.230358 0.167004
vt 0.230358 0.845780
vt 0.776056 0.167004
vt 0.230358 0.167004
vt 0.776056 0.845780
vt 0.776056 0.167004
vt 0.230358 0.167004
vt 0.776056 0.845780
vt 0.776056 0.167004
vt 0.230358 0.167004
vt 0.230358 0.845780
vt 0.776056 0.845780
vt 0.230358 0.167004
vt 0.230358 0.845780
vt 0.776056 0.167004
vt 0.230358 0.167004
vt 0.230358 0.845780
vt 0.776056 0.167004
vt 0.230358 0.167004
vt 0.776056 0.845780
vt 0.776056 0.167004
vt 0.230358 0.167004
vt 0.230358 0.845780
vt 0.776056 0.167004
vt 0.230358 0.167004
vt 0.230358 0.845780
vt 0.776056 0.845780
vt 0.230358 0.167004
vt 0.230358 0.845780
vt 0.776056 0.845780
vt 0.230358 0.167004
vt 0.230358 0.845780
vt 0.776056 0.845780
vt 0.230358 0.167004
vt 0.230358 0.845780
vt 0.776056 0.845780
vt 0.230358 0.167004
vt 0.776056 0.845780
vt 0.776056 0.167004
vt 0.230358 0.167004
vt 0.230358 0.845780
vt 0.776056 0.167004
vt 0.230358 0.167004
vt 0.230358 0.845780
vt 0.776056 0.167004
vt 0.230358 0.167004
vt 0.776056 0.845780
vt 0.776056 0.167004
vt 0.230358 0.167004
vt 0.230358 0.845780
vt 0.776056 0.167004
vt 0.230358 0.167004
vt 0.230358 0.845780
vt 0.776056 0.167004
vt 0.230358 0.167004
vt 0.776056 0.845780
vt 0.776056 0.167004
vt 0.230358 0.167004
vt 0.230358 0.845780
vt 0.776056 0.845780
vt 0.230358 0.167004
vt 0.230358 0.845780
vt 0.776056 0.845780
vt 0.230358 0.167004
vt 0.776056 0.845780
vt 0.776056 0.167004
vt 0.230358 0.167004
vt 0.230358 0.845780
vt 0.776056 0.167004
vt 0.230358 0.167004
vt 0.776056 0.845780
vt 0.776056 0.167004
vt 0.230358 0.167004
vt 0.230358 0.845780
vt 0.776056 0.167004
vt 0.230358 0.167004
vt 0.230358 0.845780
vt 0.776056 0.167004
vt 0.230358 0.167004
vt 0.230358 0.845780
vt 0.776056 0.845780
vt 0.230358 0.167004
vt 0.230358 0.845780
vt 0.776056 0.167004
vt 0.230358 0.167004
vt 0.776056 0.845780
vt 0.776056 0.167004
vt 0.230358 0.167004
vt 0.230358 0.845780
vt 0.776056 0.167004
vt 0.230358 0.167004
vt 0.776056 0.845780
vt 0.776056 0.167004
vt 0.230358 0.167004
vt 0.230358 0.845780
vt 0.776056 0.167004
vt 0.230358 0.167004
vt 0.776056 0.845780
vt 0.776056 0.167004
vt 0.230358 0.167004
vt 0.776056 0.845780
vt 0.776056 0.167004
vt 0.230358 0.167004
vt 0.230358 0.845780
vt 0.776056 0.167004
vt 0.230358 0.167004
vt 0.230358 0.845780
vt 0.776056 0.167004
vt 0.230358 0.167004
vt 0.230358 0.845780
vt 0.776056 0.845780
vt 0.230358 0.167004
vt 0.230358 0.845780
vt 0.776056 0.167004
vt 0.230358 0.167004
vt 0.776056 0.845780
vt 0.776056 0.167004
vt 0.230358 0.167004
vt 0.776056 0.845780
vt 0.776056 0.167004
vt 0.230358 0.167004
vt 0.230358 0.845780
vt 0.776056 0.845780
vt 0.230358 0.167004
vt 0.230358 0.845780
vt 0.776056 0.167004
vt 0.230358 0.167004
vt 0.776056 0.845780
vt 0.776056 0.167004
vt 0.230358 0.167004
vt 0.230358 0.845780
vt 0.776056 0.845780
vt 0.230358 0.167004
vt 0.230358 0.845780
vt 0.776056 0.167004
vt 0.230358 0.167004
vt 0.776056 0.845780
vt 0.776056 0.167004
vt 0.230358 0.167004
vt 0.776056 0.845780
vt 0.776056 0.167004
vt 0.230358 0.167004
vt 0.230358 0.845780
vt 0.776056 0.167004
vt 0.230358 0.167004
vt 0.230358 0.845780
vt 0.776056 0.167004
vt 0.230358 0.167004
vt 0.230358 0.845780
vt 0.776056 0.167004
vt 0.230358 0.167004
vt 0.230358 0.845780
vt 0.776056 0.845780
vt 0.230358 0.167004
vt 0.230358 0.845780
vt 0.776056 0.167004
vt 0.230358 0.167004
vt 0.230358 0.845780
vt 0.776056 0.845780
vt 0.230358 0.167004
vt 0.230358 0.845780
vt 0.776056 0.845780
vt 0.230358 0.167004
vt 0.776056 0.845780
vt 0.776056 0.167004
vt 0.230358 0.167004
vt 0.230358 0.845780
vt 0.776056 0.167004
vt 0.230358 0.167004
vt 0.776056 0.845780
vt 0.776056 0.167004
vt 0.230358 0.167004
vt 0.230358 0.845780
vt 0.776056 0.845780
vt 0.230358 0.167004
vt 0.776056 0.845780
vt 0.776056 0.167004
vt 0.230358 0.167004
vt 0.776056 0.845780
vt 0.776056 0.167004
vt 0.230358 0.167004
vt 0.230358 0.845780
vt 0.776056 0.167004
vt 0.230358 0.167004
vt 0.776056 0.845780
vt 0.776056 0.167004
vt 0.230358 0.167004
vt 0.230358 0.845780
vt 0.776056 0.167004
vt 0.230358 0.167004
vt 0.776056 0.845780
vt 0.776056 0.167004
vt 0.230358 0.167004
vt 0.230358 0.845780
vt 0.776056 0.167004
vt 0.230358 0.167004
vt 0.230358 0.845780
vt 0.776056 0.167004
vt 0.230358 0.167004
vt 0.230358 0.845780
vt 0.776056 0.845780
vt 0.230358 0.167004
vt 0.230358 0.845780
vt 0.776056 0.167004
vt 0.230358 0.167004
vt 0.776056 0.845780
vt 0.776056 0.167004
vt 0.230358 0.167004
vt 0.230358 0.845780
vt 0.776056 0.845780
vt 0.230358 0.167004
vt 0.230358 0.845780
vt 0.776056 0.845780
vt 0.230358 0.167004
vt 0.230358 0.845780
vt 0.776056 0.167004
vt 0.230358 0.167004
vt 0.776056 0.845780
vt 0.776056 0.167004
vt 0.230358 0.167004
vt 0.230358 0.845780
vt 0.776056 0.167004
vt 0.230358 0.167004
vt 0.776056 0.845780
vt 0.776056 0.167004
vt 0.230358 0.167004
vt 0.230358 0.845780
vt 0.776056 0.167004
vt 0.230358 0.167004
vt 0.230358 0.845780
vt 0.776056 0.845780
vt 0.230358 0.167004
vt 0.230358 0.845780
vt 0.776056 0.167004
vt 0.230358 0.167004
vt 0.230358 0.845780
vt 0.776056 0.167004
vt 0.230358 0.167004
vt 0.776056 0.845780
vt 0.776056 0.167004
vt 0.230358 0.167004
vt 0.230358 0.845780
vt 0.776056 0.167004
vt 0.230358 0.167004
vt 0.230358 0.845780
vt 0.776056 0.167004
vt 0.230358 0.167004
vt 0.776056 0.845780
vt 0.776056 0.167004
vt 0.230358 0.167004
vt 0.230358 0.845780
vt 0.776056 0.167004
vt 0.230358 0.167004
vt 0.230358 0.845780
vt 0.776056 0.167004
vt 0.230358 0.167004
vt 0.230358 0.845780
vt 0.776056 0.167004
vt 0.230358 0.167004
vt 0.230358 0.845780
vt 0.776056 0.167004
vt 0.230358 0.167004
vt 0.230358 0.845780
vt 0.776056 0.167004
vt 0.230358 0.167004
vt 0.230358 0.845780
vt 0.776056 0.167004
vt 0.230358 0.167004
vt 0.230358 0.845780
vt 0.776056 0.167004
vt 0.230358 0.167004
vt 0.230358 0.845780
vt 0.776056 0.167004
vt 0.230358 0.167004
vt 0.230358 0.845780
vt 0.776056 0.167004
vt 0.230358 0.167004
vt 0.230358 0.845780
vt 0.776056 0.167004
vt 0.230358 0.167004
vt 0.230358 0.845780
vt 0.776056 0.845780
vt 0.230358 0.167004
vt 0.230358 0.845780
vt 0.776056 0.167004
vt 0.230358 0.167004
vt 0.230358 0.845780
vt 0.776056 0.167004
vt 0.230358 0.167004
vt 0.230358 0.845780
vt 0.776056 0.167004
vt 0.230358 0.167004
vt 0.776056 0.845780
vt 0.776056 0.167004
vt 0.230358 0.167004
vt 0.776056 0.845780
vt 0.776056 0.167004
vt 0.230358 0.167004
vt 0.230358 0.845780
vt 0.776056 0.167004
vt 0.230358 0.167004
vt 0.230358 0.845780
vt 0.776056 0.167004
vt 0.230358 0.167004
vt 0.230358 0.845780
vt 0.776056 0.167004
vt 0.230358 0.167004
vt 0.230358 0.845780
vt 0.776056 0.167004
vt 0.230358 0.167004
vt 0.230358 0.845780
vt 0.776056 0.167004
vt 0.230358 0.167004
vt 0.776056 0.845780
vt 0.776056 0.167004
vt 0.230358 0.167004
vt 0.230358 0.845780
vt 0.776056 0.845780
vt 0.230358 0.167004
vt 0.776056 0.845780
vt 0.776056 0.167004
vt 0.230358 0.167004
vt 0.230358 0.845780
vt 0.776056 0.167004
vt 0.230358 0.167004
vt 0.776056 0.845780
vt 0.776056 0.167004
vt 0.230358 0.167004
vt 0.230358 0.845780
vt 0.776056 0.167004
vt 0.230358 0.167004
vt 0.776056 0.845780
vt 0.776056 0.167004
vt 0.230358 0.167004
vt 0.230358 0.845780
vt 0.776056 0.167004
vt 0.230358 0.167004
vt 0.230358 0.845780
vt 0.776056 0.167004
vt 0.230358 0.167004
vt 0.230358 0.845780
vt 0.776056 0.167004
vt 0.230358 0.167004
vt 0.230358 0.845780
vt 0.776056 0.167004
vt 0.230358 0.167004
vt 0.230358 0.845780
vt 0.776056 0.845780
vt 0.230358 0.167004
vt 0.776056 0.845780
vt 0.776056 0.167004
vt 0.230358 0.167004
vt 0.776056 0.845780
vt 0.776056 0.167004
vt 0.230358 0.167004
vt 0.776056 0.845780
vt 0.776056 0.167004
vt 0.230358 0.167004
vt 0.776056 0.845780
vt 0.776056 0.167004
vt 0.230358 0.167004
vt 0.776056 0.845780
vt 0.776056 0.167004
vt 0.230358 0.167004
vt 0.230358 0.845780
vt 0.776056 0.167004
vt 0.230358 0.167004
vt 0.776056 0.845780
vt 0.776056 0.167004
vt 0.230358 0.167004
vt 0.776056 0.845780
vt 0.776056 0.167004
vt 0.230358 0.167004
vt 0.230358 0.845780
vt 0.776056 0.167004
vt 0.230358 0.167004
vt 0.230358 0.845780
vt 0.776056 0.167004
vt 0.230358 0.167004
vt 0.230358 0.845780
vt 0.776056 0.167004
vt 0.230358 0.167004
vt 0.230358 0.845780
vt 0.776056 0.167004
vt 0.230358 0.167004
vt 0.230358 0.845780
vt 0.776056 0.167004
vt 0.230358 0.167004
vt 0.230358 0.845780
vt 0.776056 0.167004
vt 0.230358 0.167004
vt 0.230358 0.845780
vt 0.776056 0.845780
vt 0.230358 0.167004
vt 0.230358 0.845780
vt 0.776056 0.167004
vt 0.230358 0.167004
vt 0.776056 0.845780
vt 0.776056 0.167004
vt 0.230358 0.167004
vt 0.776056 0.845780
vt 0.776056 0.167004
vt 0.230358 0.167004
vt 0.230358 0.845780
vt 0.776056 0.167004
vt 0.230358 0.167004
vt 0.230358 0.845780
vt 0.776056 0.845780
vt 0.230358 0.167004
vt 0.776056 0.845780
vt 0.776056 0.167004
vt 0.230358 0.167004
vt 0.230358 0.845780
vt 0.776056 0.845780
vt 0.230358 0.167004
vt 0.776056 0.845780
vt 0.776056 0.167004
vt 0.230358 0.167004
vt 0.776056 0.845780
vt 0.776056 0.167004
vt 0.230358 0.167004
vt 0.230358 0.845780
vt 0.776056 0.845780
vt 0.230358 0.167004
vt 0.776056 0.845780
vt 0.776056 0.167004
vt 0.230358 0.167004
vt 0.230358 0.845780
vt 0.776056 0.845780
vt 0.230358 0.167004
vt 0.230358 0.845780
vt 0.776056 0.167004
vt 0.230358 0.167004
vt 0.776056 0.845780
vt 0.776056 0.167004
vt 0.230358 0.167004
vt 0.230358 0.845780
vt 0.776056 0.167004
vt 0.230358 0.167004
vt 0.776056 0.845780
vt 0.776056 0.167004
vt 0.230358 0.167004
vt 0.230358 0.845780
vt 0.776056 0.167004
vt 0.230358 0.167004
vt 0.776056 0.845780
vt 0.776056 0.167004
vt 0.230358 0.167004
vt 0.230358 0.845780
vt 0.776056 0.167004
vt 0.230358 0.167004
vt 0.230358 0.845780
vt 0.776056 0.167004
vt 0.230358 0.167004
vt 0.776056 0.845780
vt 0.776056 0.167004
vt 0.230358 0.167004
vt 0.230358 0.845780
vt 0.776056 0.845780
vt 0.230358 0.167004
vt 0.230358 0.845780
vt 0.776056 0.167004
vt 0.230358 0.167004
vt 0.230358 0.845780
vt 0.776056 0.845780
vt 0.230358 0.167004
vt 0.776056 0.845780
vt 0.776056 0.167004
vt 0.230358 0.167004
vt 0.776056 0.845780
vt 0.776056 0.167004
vt 0.230358 0.167004
vt 0.776056 0.845780
vt 0.776056 0.167004
vt 0.230358 0.167004
vt 0.776056 0.845780
vt 0.776056 0.167004
vt 0.230358 0.167004
vt 0.230358 0.845780
vt 0.776056 0.167004
vt 0.230358 0.167004
vt 0.230358 0.845780
vt 0.776056 0.167004
vt 0.230358 0.167004
vt 0.230358 0.845780
vt 0.776056 0.845780
vt 0.230358 0.167004
vt 0.776056 0.845780
vt 0.776056 0.167004
vt 0.230358 0.167004
vt 0.230358 0.845780
vt 0.776056 0.167004
vt 0.230358 0.167004
vt 0.776056 0.845780
vt 0.776056 0.167004
vt 0.230358 0.167004
vt 0.776056 0.845780
vt 0.776056 0.167004
vt 0.230358 0.167004
vt 0.230358 0.845780
vt 0.776056 0.845780
vt 0.230358 0.167004
vt 0.230358 0.845780
vt 0.776056 0.845780
vt 0.230358 0.167004
vt 0.776056 0.845780
vt 0.776056 0.167004
vt 0.230358 0.167004
vt 0.776056 0.845780
vt 0.776056 0.167004
vt 0.230358 0.167004
vt 0.230358 0.845780
vt 0.776056 0.167004
vt 0.230358 0.167004
vt 0.776056 0.845780
vt 0.776056 0.167004
vt 0.230358 0.167004
vt 0.230358 0.845780
vt 0.776056 0.167004
vt 0.230358 0.167004
vt 0.230358 0.845780
vt 0.776056 0.845780
vt 0.230358 0.167004
vt 0.776056 0.845780
vt 0.776056 0.167004
vt 0.230358 0.167004
vt 0.230358 0.845780
vt 0.776056 0.167004
vt 0.230358 0.167004
vt 0.776056 0.845780
vt 0.776056 0.167004
vt 0.230358 0.167004
vt 0.776056 0.845780
vt 0.776056 0.167004
vt 0.230358 0.167004
vt 0.230358 0.845780
vt 0.776056 0.167004
vt 0.230358 0.167004
vt 0.230358 0.845780
vt 0.776056 0.845780
vt 0.230358 0.167004
vt 0.230358 0.845780
vt 0.776056 0.167004
vt 0.230358 0.167004
vt 0.230358 0.845780
vt 0.776056 0.167004
vt 0.230358 0.167004
vt 0.230358 0.845780
vt 0.776056 0.845780
vt 0.230358 0.167004
vt 0.230358 0.845780
vt 0.776056 0.167004
vt 0.230358 0.167004
vt 0.230358 0.845780
vt 0.776056 0.167004
vt 0.230358 0.167004
vt 0.230358 0.845780
vt 0.776056 0.167004
vt 0.230358 0.167004
vt 0.230358 0.845780
vt 0.776056 0.167004
vt 0.230358 0.167004
vt 0.776056 0.845780
vt 0.776056 0.167004
vt 0.230358 0.167004
vt 0.776056 0.845780
vt 0.776056 0.167004
vt 0.230358 0.167004
vt 0.776056 0.845780
vt 0.776056 0.167004
vt 0.230358 0.167004
vt 0.230358 0.845780
vt 0.776056 0.167004
vt 0.230358 0.167004
vt 0.776056 0.845780
vt 0.776056 0.167004
vt 0.230358 0.167004
vt 0.230358 0.845780
vt 0.776056 0.167004
vt 0.230358 0.167004
vt 0.776056 0.845780
vt 0.776056 0.167004
vt 0.230358 0.167004
vt 0.230358 0.845780
vt 0.776056 0.845780
vt 0.230358 0.167004
vt 0.230358 0.845780
vt 0.776056 0.845780
vt 0.230358 0.167004
vt 0.230358 0.845780
vt 0.776056 0.845780
vt 0.230358 0.167004
vt 0.230358 0.845780
vt 0.776056 0.845780
vt 0.230358 0.167004
vt 0.230358 0.845780
vt 0.776056 0.845780
vt 0.230358 0.167004
vt 0.776056 0.845780
vt 0.776056 0.167004
vt 0.230358 0.167004
vn 0.196550 -0.263349 -0.944466
vn -0.017868 0.845377 0.533871
vn -0.632449 0.771155 -0.072992
vn -0.469616 -0.147667 0.870434
vn -0.815092 0.257102 -0.519156
vn -0.991737 -0.081426 0.099133
vn -0.911438 -0.308789 0.271900
vn 0.241993 -0.010420 -0.970222
vn 0.644161 -0.764464 -0.025532
vn -0.210187 -0.596326 0.774737
vn -0.746915 -0.137692 -0.650507
vn 0.247516 0.966192 0.072171
vn -0.562100 0.807996 0.176596
vn -0.614722 0.045446 0.787434
vn -0.066495 -0.559086 0.826439
vn -0.245180 0.908986 0.337093
vn 0.166117 -0.638538 0.751448
vn 0.895992 -0.434402 0.092162
vn 0.027557 0.728122 -0.684894
vn -0.721731 0.691767 -0.023725
vn -0.140009 -0.226691 0.963851
vn 0.947753 -0.107390 0.300387
vn -0.748102 0.328999 -0.576283
vn 0.291338 -0.022499 -0.956356
vn 0.572157 -0.719651 0.393369
vn 0.681480 0.143898 -0.717551
vn -0.133318 -0.146072 -0.980250
vn 0.593692 0.467946 -0.654643
vn 0.681192 0.033822 0.731323
vn 0.042836 -0.431272 0.901204
vn 0.732879 0.481382 -0.480790
vn -0.166476 0.038458 -0.985295
vn -0.992523 0.111798 0.048986
vn -0.182765 0.884400 0.429458
vn 0.579488 -0.128942 -0.804716
vn 0.998950 -0.029499 0.035044
vn -0.537617 -0.388417 -0.748398
vn -0.760394 -0.601104 0.245915
vn -0.177277 -0.619351 0.764838
vn 0.153533 0.930635 0.332185
vn 0.622043 -0.189211 -0.759778
vn -0.807753 0.571847 0.143273
vn -0.652899 0.639928 -0.405234
vn -0.334450 0.515754 0.788759
vn 0.860914 -0.262700 0.435679
vn -0.925561 -0.089841 0.367785
vn 0.622050 0.578617 0.527500
vn 0.880248 -0.365743 -0.302316
vn 0.117937 0.347772 0.930132
vn -0.997874 -0.013392 -0.063779
vn -0.586014 0.408818 -0.699611
vn -0.259722 -0.333558 0.906247
vn 0.959505 0.029426 -0.280151
vn 0.156003 -0.290752 -0.943995
vn -0.049482 0.028849 -0.998358
vn 0.703964 0.072770 0.706498
vn 0.893794 0.344276 -0.287414
vn -0.801808 0.520403 0.293743
vn -0.205325 -0.048301 0.977501
vn 0.592479 0.213545 0.776767
vn 0.406399 -0.772125 0.488532
vn -0.495840 0.505424 0.706180
vn 0.190861 0.020075 0.981412
vn 0.872028 0.071928 0.484142
vn -0.539992 -0.164644 -0.825409
vn 0.221565 0.520641 -0.824525
vn -0.691843 0.169734 0.701815
vn 0.638180 0.576668 -0.510079
vn 0.861976 0.160558 0.480853
vn 0.590925 -0.424459 -0.686034
vn -0.124446 -0.986966 0.102033
vn -0.481327 -0.515281 0.709091
vn -0.794937 0.542108 0.272387
vn -0.722564 -0.156144 -0.673439
vn 0.212150 -0.278067 -0.936841
vn 0.228071 -0.842509 -0.488018
vn -0.119443 0.255893 -0.959298
vn 0.642964 0.735875 -0.212331
vn 0.609030 0.520515 -0.598454
vn 0.960096 0.178935 0.214937
vn 0.580275 -0.178733 0.794566
vn 0.303391 0.640687 0.705318
vn -0.814243 -0.569763 0.111261
vn -0.617029 0.627253 -0.475215
vn 0.449091 0.548621 -0.705217
vn -0.184149 0.303037 0.935018
vn 0.677646 0.608517 0.412920
vn 0.421195 -0.853076 -0.307987
vn -0.829279 0.289584 -0.477952
vn 0.077577 0.995327 -0.057506
vn 0.151340 -0.507555 -0.848224
vn -0.630715 -0.149961 0.761387
vn -0.896626 -0.381139 -0.225379
vn -0.675620 0.634777 0.374960
vn 0.706092 0.608334 0.362442
vn 0.270399 0.027634 -0.962352
vn 0.586226 0.559134 0.586266
vn -0.938162 -0.257976 -0.230869
vn 0.456333 0.489299 -0.743201
vn 0.055903 -0.758187 0.649637
vn -0.042078 0.522151 0.851814
vn 0.787280 0.560364 -0.257261
vn 0.731885 0.573897 -0.367405
vn -0.961006 0.166088 0.221096
vn -0.674543 0.621385 -0.398588
vn -0.607958 0.489945 0.624773
vn -0.102340 0.049277 -0.993528
vn -0.889173 0.111647 -0.443742
vn -0.192244 -0.976332 -0.099089
vn -0.304012 0.692797 0.653919
vn 0.432252 0.550712 0.714056
vn -0.600716 0.177195 0.779578
vn 0.809161 -0.281188 0.515938
vn 0.845327 -0.329978 -0.420163
vn -0.466528 0.162645 -0.869424
vn -0.930975 -0.106005 0.349353
vn -0.436805 0.277744 0.855605
vn 0.530514 0.820027 0.214732
vn -0.750709 0.154331 -0.642354
vn 0.150133 -0.575058 -0.804219
vn 0.233457 0.012327 0.972289
vn 0.601215 0.469348 -0.646725
vn -0.277251 -0.452097 -0.847785
vn 0.888162 0.158676 0.431267
vn -0.052293 0.995253 -0.082084
vn -0.420736 0.278649 -0.863328
vn 0.100185 -0.113227 0.988505
vn 0.249852 0.013370 -0.968192
vn -0.543492 0.678351 0.494425
vn 0.709413 0.089440 0.699095
vn -0.919209 0.231300 0.318678
vn -0.653166 0.076888 -0.753301
vn -0.305464 0.052245 -0.950769
vn 0.487786 0.705849 -0.513655
vn 0.570261 -0.344091 0.745925
vn -0.370163 -0.500255 -0.782767
vn 0.252184 0.450379 0.856483
vn -0.460009 0.872250 -0.166045
vn -0.691213 -0.721725 0.036575
vn -0.666312 0.448541 -0.595684
vn 0.724033 0.244014 -0.645161
vn -0.377004 -0.368849 0.849599
vn 0.368616 0.347867 -0.862038
vn 0.671617 0.701449 -0.238536
vn -0.826663 0.472727 0.305217
vn 0.118464 -0.974546 -0.190333
vn -0.874390 -0.198130 -0.442930
vn -0.218676 0.931152 -0.291781
vn 0.764311 0.641221 -0.068293
vn 0.732953 0.120740 0.669478
vn -0.049611 0.964567 0.259133
vn -0.138975 -0.364555 -0.920753
vn 0.750834 -0.636710 -0.175637
vn -0.185198 0.064695 0.980569
vn -0.941495 0.332518 -0.054940
vn 0.833759 -0.099074 -0.543168
vn -0.046353 -0.696924 -0.715646
vn 0.443189 0.431451 -0.785769
vn -0.205536 0.977443 0.048579
vn 0.355195 0.127858 0.926007
vn 0.123915 0.622236 -0.772960
vn -0.112025 -0.992210 0.054493
vn 0.977666 0.028006 0.208291
vn -0.677639 -0.730121 0.087914
vn -0.408884 -0.500675 -0.762980
vn 0.676712 0.682424 0.276332
vn 0.407744 -0.320392 0.855040
vn -0.392835 0.290071 -0.872663
vn -0.472622 0.813823 -0.338113
vn -0.240998 -0.308902 0.920054
vn 0.346917 -0.937879 0.005567
vn -0.903670 -0.274101 0.329012
vn -0.092570 0.959489 -0.266105
vn -0.796748 0.407156 -0.446561
vn -0.785860 -0.610471 0.098737
vn 0.931057 0.032914 -0.363386
vn 0.348758 -0.421422 -0.837121
vn -0.213784 -0.452447 -0.865788
vn -0.500473 -0.111033 0.858603
vn 0.958826 -0.239486 -0.152642
vn -0.176142 0.913404 0.366970
vn 0.106791 -0.756325 0.645421
vn 0.879336 0.425690 0.213441
vn -0.414915 0.283650 -0.864516
vn -0.622696 0.102418 0.775732
vn -0.986909 -0.153059 0.050823
vn -0.532802 -0.845717 -0.029753
vn -0.473253 0.225530 0.851568
vn 0.509827 0.858633 0.053158
vn -0.797666 -0.592612 -0.111981
vn 0.943438 0.228733 0.240011
vn 0.617128 0.123571 -0.777100
vn 0.195990 0.870712 -0.451053
vn -0.516753 -0.134179 0.845555
vn -0.881923 -0.420433 -0.213185
vn 0.367397 0.452729 0.812438
vn 0.825449 -0.477071 0.301724
vn -0.141874 -0.937763 0.316974
vn 0.621062 0.610940 -0.490952
vn 0.834920 0.242845 0.493898
vn 0.327916 -0.815074 0.477626
vn -0.289746 0.042202 0.956173
vn -0.918652 0.394828 0.013772
vn -0.120505 -0.368412 -0.921819
vn 0.807969 -0.563152 0.173336
vn 0.347221 0.742070 -0.573384
vn -0.817132 0.348979 0.458814
vn -0.402581 -0.685959 -0.606125
vn 0.459665 0.765322 0.450544
vn 0.646112 0.581189 -0.494730
vn 0.740791 -0.347745 0.574719
vn -0.811291 0.575135 0.105005
vn -0.901465 -0.412903 0.129896
vn -0.042133 0.994958 -0.091008
vn 0.509695 -0.480476 0.713690
vn 0.327186 -0.842377 -0.428194
vn 0.473383 -0.178448 -0.862592
vn -0.032448 0.928238 0.370569
vn -0.695764 0.711597 -0.097688
vn -0.545850 0.648039 0.531124
vn 0.772446 0.372312 0.514501
vn 0.167422 -0.950702 0.261027
vn 0.017604 0.980918 -0.193621
vn -0.324841 -0.802480 -0.500504
vn -0.687177 -0.652966 0.318472
vn 0.458795 0.526196 0.715979
vn 0.300058 0.282521 -0.911124
vn -0.692472 -0.310799 -0.651066
vn 0.106223 0.929257 0.353834
vn 0.705286 -0.707721 0.041256
vn 0.630999 -0.242390 0.736945
vn 0.439072 -0.862368 -0.252065
vn -0.004598 0.148299 0.988932
vn 0.697832 0.654313 0.291384
vn -0.679256 -0.724913 -0.114507
vn -0.385561 0.753472 0.532562
vn 0.854220 0.404829 0.326224
vn -0.020029 0.437920 -0.898791
vn 0.537606 -0.718954 0.440551
vn 0.834761 -0.377206 -0.401111
vn 0.018559 0.137596 -0.990315
vn -0.211569 -0.920315 0.329026
vn 0.559871 -0.441424 0.701206
vn 0.561232 0.731034 0.388083
vn -0.185328 0.345034 -0.920112
vn -0.721208 0.409148 0.558979
vn -0.825112 0.118464 -0.552410
vn -0.454861 0.502114 0.735515
vn 0.648512 0.745498 -0.153831
vn 0.850985 0.053999 0.522407
vn -0.511693 -0.695191 -0.504856
vn -0.229593 0.332424 -0.914758
vn -0.355803 0.847094 -0.394760
vn 0.991299 0.131597 -0.003009
vn 0.518462 0.851019 0.083446
vn -0.176086 0.275537 0.945025
vn -0.793500 -0.189986 -0.578154
vn -0.913117 -0.351455 0.206631
vn -0.629454 -0.628057 -0.457528
vn 0.267133 0.044923 0.962612
vn 0.372831 0.356434 -0.856710
vn 0.202407 0.513636 0.833792
vn 0.814468 0.570108 -0.107793
vn -0.312603 0.417199 -0.853361
vn -0.088445 -0.830776 -0.549535
vn -0.939778 -0.201932 -0.275755
vn -0.825943 0.345603 0.445394
vn 0.001859 -0.356423 0.934323
vn 0.468840 -0.524962 -0.710355
vn -0.792641 -0.028509 -0.609022
vn -0.650832 0.678435 -0.340799
vn 0.843270 -0.513236 -0.159642
vn 0.252463 0.549542 -0.796408
vn 0.087500 -0.108388 -0.990250
vn 0.352021 -0.734930 0.579619
vn -0.361335 0.558181 0.746908
vn -0.353028 -0.878591 -0.321636
vn 0.766029 -0.539588 -0.349350
vn 0.930859 0.238666 -0.276659
vn 0.574086 0.793527 -0.201842
vn -0.826252 0.308841 0.471090
vn -0.520743 0.455596 -0.721983
vn -0.319504 -0.754476 -0.573309
vn -0.151826 0.513983 0.844257
vn 0.981232 0.008368 0.192652
vn 0.111028 0.609467 -0.784999
vn -0.854172 0.499721 0.143767
vn 0.006832 0.542980 0.839718
vn -0.474868 0.877503 0.066995
vn -0.694089 -0.118192 -0.710120
vn 0.203143 -0.909816 0.361896
vn 0.435833 0.590370 0.679347
vn 0.105408 0.500186 -0.859478
vn -0.227816 0.973649 -0.010363
vn 0.895104 0.434529 -0.099866
vn 0.525367 -0.164379 0.834847
vn -0.102356 -0.903817 0.415498
vn 0.710075 0.688960 0.145351
vn 0.344358 -0.938613 0.020569
vn -0.057591 0.343904 0.937237
vn 0.835193 -0.405270 0.371764
vn -0.376345 0.926447 0.007746
vn -0.208383 0.544137 -0.812706
vn 0.209578 -0.914867 0.345101
vn -0.835979 -0.547100 -0.042673
vn -0.740093 0.220575 -0.635302
vn -0.934618 0.126029 -0.332573
vn 0.824079 -0.424752 0.374807
vn -0.367151 0.462180 0.807211
vn 0.252203 0.058255 0.965919
vn 0.576546 0.509675 -0.638613
vn 0.857995 0.508855 0.070086
vn 0.367221 0.064891 -0.927867
vn -0.387857 0.879808 -0.274782
vn -0.919354 0.244509 0.308225
vn 0.722696 -0.138903 -0.677064
vn -0.207015 0.974615 0.085268
vn 0.455448 0.831638 -0.317719
vn 0.195407 -0.341680 0.919278
vn 0.608091 -0.406084 -0.682144
vn -0.361997 -0.636407 -0.681135
vn -0.417356 0.755049 -0.505683
vn -0.174580 -0.570541 0.802499
vn 0.797665 0.260398 -0.543988
vn -0.377456 -0.414480 -0.828090
vn 0.377397 -0.870451 -0.316049
vn 0.917975 -0.368591 0.146501
vn -0.455600 0.810692 0.367705
vn 0.450763 0.521670 0.724343
vn 0.357798 -0.726050 0.587223
vn 0.009969 -0.957927 -0.286839
vn -0.790205 0.594943 -0.147035
vn -0.033702 0.714425 -0.698900
vn 0.795455 -0.518048 0.314448
vn 0.778603 0.619355 -0.100881
vn -0.152191 0.966382 0.207228
vn -0.637465 -0.769135 0.045492
vn 0.589090 0.188931 -0.785670
vn 0.977408 0.203585 0.056812
vn 0.351644 -0.778775 -0.519476
vn 0.863493 -0.248357 0.438974
vn -0.851031 0.507367 0.135374
vn -0.252068 0.268600 -0.929686
vn 0.302568 -0.428004 0.851625
vn -0.989024 -0.145433 0.026076
vn 0.697714 -0.343072 0.628885
vn -0.810102 -0.536287 0.236919
vn -0.537821 -0.601044 -0.591180
vn 0.905814 -0.241158 -0.348345
vn -0.319698 0.261071 0.910843
vn 0.479900 0.250971 0.840660
vn 0.782214 -0.588754 0.203740
vn -0.664194 0.587151 -0.462709
vn -0.485291 0.434711 0.758630
vn 0.491762 0.099339 -0.865044
vn -0.869176 0.342472 -0.356716
vn -0.459691 0.831933 0.310761
vn -0.218202 -0.910222 0.351972
vn 0.196700 0.609253 -0.768193
vn 0.833095 -0.319014 -0.451866
vn -0.665145 0.477082 -0.574435
vn 0.263117 -0.522501 0.811026
vn 0.794150 0.389397 0.466579
vn 0.243257 -0.543593 0.803326
vn -0.274966 0.074159 -0.958590
vn 0.697615 -0.070748 -0.712971
vn 0.352494 0.893800 0.277252
vn -0.533787 0.513376 -0.671950
vn 0.528833 -0.690157 -0.493983
vn -0.152937 -0.874472 0.460335
vn -0.259721 0.750410 -0.607807
vn -0.730171 0.031165 -0.682553
vn -0.094873 0.035413 -0.994859
vn -0.794033 -0.603329 0.074202
vn 0.647542 -0.613516 0.451983
vn 0.372694 0.852377 0.366814
vn -0.104330 0.657402 -0.746283
vn -0.075855 -0.176519 -0.981370
vn -0.958459 0.268557 -0.096091
vn -0.045018 -0.781866 -0.621819
vn -0.708456 -0.574704 -0.409641
vn -0.859055 -0.482353 -0.171352
vn 0.835801 -0.534940 0.123595
vn 0.155440 0.116897 0.980904
vn -0.882798 0.206763 0.421802
vn -0.043421 -0.968823 -0.243920
vn 0.428488 0.539819 -0.724565
vn -0.197681 0.055325 -0.978704
vn -0.923231 0.187126 -0.335602
vn -0.818538 0.345278 0.459106
vn -0.082626 0.400016 -0.912776
vn -0.648959 0.409519 0.641207
vn 0.338551 0.470589 0.814819
vn 0.751153 -0.211352 -0.625380
vn -0.192768 -0.224924 -0.955118
vn -0.848884 0.511521 0.133199
vn -0.612098 0.733907 -0.294478
vn 0.061231 -0.755432 -0.652360
vn 0.852206 -0.498735 0.158139
vn -0.171770 0.382030 0.908046
vn 0.978769 -0.030838 0.202632
vn 0.565989 -0.822219 0.060101
vn 0.989827 0.071296 -0.123125
vn -0.089744 0.948722 0.303105
vn -0.761133 0.510088 0.400609
vn 0.956323 0.284571 -0.066825
vn 0.611726 -0.782316 -0.117359
vn -0.607755 -0.543359 -0.579133
vn -0.118278 0.495150 -0.860719
vn 0.885543 -0.250135 0.391467
vn 0.579812 0.634955 0.510539
vn 0.070047 -0.994601 0.076566
vn -0.846702 -0.508235 0.157457
vn -0.863307 0.212261 0.457872
vn 0.631462 0.758641 -0.160376
vn 0.859322 -0.213046 0.464949
vn -0.405193 -0.202656 -0.891487
vn 0.749117 -0.639496 -0.172826
vn -0.592269 0.525405 -0.610874
vn 0.130721 0.749739 0.648694
vn -0.338648 -0.747549 0.571391
vn 0.203579 0.957870 -0.202584
vn 0.632848 0.207487 0.745958
vn -0.471417 0.847460 -0.244086
vn -0.573242 -0.669361 -0.472599
vn 0.275797 -0.713682 -0.643890
vn -0.639331 -0.760868 0.111067
vn 0.799806 0.409453 0.438929
vn 0.669192 -0.667231 0.327086
vn 0.689762 -0.722149 -0.052236
vn -0.044861 0.958945 0.280021
vn 0.871265 0.472809 0.131714
vn -0.526048 -0.111102 -0.843167
vn -0.838322 0.542452 -0.054437
vn -0.115752 0.987918 0.103048
vn -0.131518 -0.400218 0.906934
vn -0.636326 0.363542 -0.680388
vn -0.574114 0.815052 0.077994
vn 0.216508 0.906837 0.361624
vn 0.199243 -0.972515 -0.120490
vn 0.899574 -0.260944 -0.350251
vn 0.070963 -0.421895 -0.903863
vn 0.951188 0.238236 -0.196176
vn 0.242707 0.929043 0.279237
vn 0.707950 -0.262218 0.655781
vn -0.483757 -0.348183 0.802962
vn -0.975469 0.020332 0.219194
vn -0.499265 -0.114304 -0.858877
vn -0.018372 -0.976211 -0.216041
vn 0.702954 -0.622922 0.343255
vn 0.231898 0.378896 0.895914
vn 0.695878 -0.659364 -0.284593
vn 0.796223 0.505657 -0.332175
vn 0.608864 -0.499757 -0.616058
vn 0.498545 0.809550 0.309970
vn -0.268905 0.856689 0.440199
vn -0.776494 0.609502 0.159888
vn -0.773396 -0.625414 0.103521
vn 0.171076 -0.499478 -0.849267
vn 0.267078 -0.768781 -0.581073
vn -0.675960 0.647703 -0.351510
vn 0.329463 0.922284 -0.202102
vn 0.189186 -0.250817 0.949368
vn -0.072058 -0.750456 -0.656981
vn 0.426062 0.353252 -0.832877
vn 0.524679 -0.678090 0.514690
vn -0.980778 0.091068 -0.172570
vn -0.520599 -0.847639 -0.102397
vn -0.467416 0.064048 -0.881714
vn 0.382827 0.904428 -0.188293
vn 0.860581 -0.498556 0.104124
vn -0.755762 0.645894 -0.107914
vn -0.500503 -0.834551 -0.230262
vn 0.975553 -0.068842 -0.208702
vn -0.684894 0.227993 0.692054
vn -0.455046 0.753555 -0.474434
vn 0.857511 0.502825 -0.108823
vn 0.906387 0.395725 -0.147862
vn -0.692429 -0.384017 -0.610797
vn 0.079166 -0.483407 -0.871809
vn 0.445539 0.858155 -0.255078
vn 0.660722 -0.744502 -0.095728
vn -0.193579 -0.825387 -0.530343
vn -0.635853 -0.421786 -0.646365
vn -0.417570 0.511027 -0.751324
vn -0.055435 0.961347 -0.269702
vn 0.380402 -0.852435 -0.358676
vn 0.035492 0.767560 0.639994
vn 0.707341 0.115411 0.697387
vn 0.438933 0.748924 -0.496437
vn -0.857453 -0.369690 -0.357917
vn -0.783507 0.426174 -0.452208
vn 0.451649 0.765053 -0.459029
vn 0.047434 -0.864095 -0.501089
vn 0.469739 -0.671353 0.573263
vn -0.895598 -0.221053 0.386056
vn 0.989298 0.082019 -0.120678
vn 0.279413 -0.924785 0.258267
vn 0.293469 0.909819 0.293438
vn 0.363606 0.255281 -0.895892
vn 0.449885 -0.771211 -0.450375
vn -0.205998 0.513053 0.833271
vn 0.847258 -0.520374 0.106611
vn -0.456346 0.245186 -0.855355
vn -0.030589 0.962915 0.268066
vn -0.714041 -0.266859 -0.647249
vn 0.160159 -0.908327 -0.386382
vn 0.506299 -0.839616 -0.196740
vn 0.904972 0.187132 -0.382110
vn -0.296508 0.758900 0.579787
vn -0.167088 -0.107281 0.980088
vn -0.301611 0.914726 -0.268900
vn 0.130750 -0.099684 -0.986391
vn -0.244876 -0.083612 0.965942
vn 0.165893 -0.676761 -0.717268
vn 0.987382 0.081205 0.135950
vn -0.961617 0.234682 0.142185
vn 0.958195 -0.255915 -0.127944
vn 0.820834 0.493097 -0.288249
vn -0.548525 0.630821 -0.548803
vn -0.122013 -0.398380 0.909069
vn -0.290068 -0.923152 -0.252292
vn 0.388706 -0.017657 -0.921193
vn 0.736315 0.649385 -0.190102
vn 0.015583 0.967595 0.252027
vn 0.155535 0.986976 0.041088
vn 0.446106 -0.859765 0.248584
vn 0.371209 0.122046 0.920494
vn -0.789815 0.596330 -0.143470
vn -0.427578 -0.508067 -0.747693
vn 0.866026 0.101947 0.489496
vn 0.244483 -0.773482 0.584768
vn 0.978147 -0.126993 -0.164624
vn 0.170284 0.245702 -0.954272
vn 0.258129 0.822705 -0.506484
vn 0.837226 -0.250116 -0.486307
vn -0.444061 -0.375688 0.813430
vn 0.462924 0.763410 0.450451
vn -0.727076 -0.612613 0.309946
vn 0.121591 -0.963837 0.237139
vn 0.761883 0.262555 -0.592114
vn -0.466133 0.742828 0.480548
vn 0.477570 -0.756471 -0.446854
vn 0.779312 -0.620945 0.084270
vn -0.907735 0.389479 0.155960
vn -0.108397 -0.106099 0.988430
vn -0.862587 0.495781 -0.100721
vn 0.457646 0.088558 -0.884713
vn -0.034522 -0.667384 -0.743913
vn -0.237404 0.965963 0.102739
vn 0.842712 0.334512 0.421827
vn 0.667466 -0.517753 0.535183
vn -0.476105 -0.872379 -0.110808
vn -0.956611 0.253790 -0.143131
vn 0.617495 0.405282 0.674127
vn -0.059903 0.465429 -0.883056
vn -0.649947 0.257290 0.715102
vn 0.533557 0.843973 0.055016
vn 0.527688 0.625892 -0.574286
vn -0.900499 0.193725 -0.389324
vn -0.695390 -0.630509 -0.344806
vn 0.491191 -0.644516 0.585945
vn -0.820764 0.382573 -0.424245
vn 0.566982 0.652082 -0.503309
vn -0.612081 -0.779891 0.130873
vn 0.487333 0.834102 0.258420
vn 0.974652 -0.119707 0.189007
vn -0.031996 0.828768 -0.558678
vn -0.965191 0.226476 -0.130829
vn -0.533549 -0.843576 -0.060867
vn -0.837549 0.372167 -0.400004
vn 0.131550 0.559189 0.818537
vn -0.630756 -0.190919 0.752128
vn 0.938661 0.252935 -0.234391
vn 0.244668 0.949961 0.194196
vn -0.414379 0.256379 0.873247
vn -0.400158 0.626368 0.668982
vn -0.441293 -0.423974 -0.790889
vn 0.456924 -0.850379 0.260913
vn -0.705963 0.354379 0.613214
vn 0.873250 0.070418 -0.482157
vn -0.711053 -0.064145 -0.700206
vn -0.959368 0.261411 -0.106197
vn 0.221700 0.867728 -0.444857
vn 0.946680 0.255516 -0.196235
vn 0.299380 0.762104 -0.574080
vn -0.379024 -0.230599 -0.896195
vn -0.787159 -0.612062 -0.075900
vn 0.376109 0.255220 -0.890733
vn -0.357074 0.651291 0.669566
vn 0.220500 -0.389959 0.894043
vn 0.844649 -0.373896 0.383106
vn 0.030993 0.562372 -0.826303
vn -0.117435 -0.253874 -0.960082
vn -0.494187 0.258984 -0.829883
vn 0.235448 0.970562 0.050740
vn -0.404991 -0.042576 0.913329
vn -0.795739 0.338431 -0.502258
vn -0.115775 -0.831969 0.542608
vn -0.870856 -0.429774 0.238546
vn -0.986522 0.087238 -0.138435
vn 0.928782 -0.355673 -0.104212
vn -0.068200 -0.995477 -0.066139
vn 0.840325 -0.517566 0.161179
vn 0.164765 0.221487 0.961143
vn -0.218264 0.825622 0.520297
vn 0.157243 -0.203648 0.966335
vn -0.656285 0.743416 -0.128932
vn 0.443895 0.865332 -0.232719
vn -0.582262 -0.754026 0.303999
vn -0.360830 0.396164 -0.844308
vn 0.430772 0.900369 0.061411
vn 0.775704 -0.491917 -0.395350
vn -0.226371 0.393957 0.890817
vn 0.671273 0.105840 0.733615
vn 0.762774 -0.636485 -0.114293
vn -0.676307 -0.219693 0.703096
vn -0.304074 0.687245 0.659723
vn 0.871384 0.378192 -0.312506
vn 0.657665 -0.641823 -0.394386
vn -0.702903 0.086703 -0.705981
vn -0.074516 -0.859573 -0.505551
vn -0.633105 0.408460 -0.657524
vn 0.761271 0.553544 -0.337721
vn 0.170250 0.914425 0.367207
vn -0.191296 -0.913866 0.358128
vn 0.622340 -0.669937 -0.404819
vn 0.358238 -0.912767 -0.196269
vn 0.656791 0.659380 0.365846
vn 0.548161 0.676084 -0.492371
vn 0.873977 -0.224326 -0.431095
vn -0.141303 -0.965080 -0.220577
vn -0.828105 -0.544061 -0.135055
vn -0.274688 -0.930469 0.242434
vn -0.505376 0.857850 0.093213
vn 0.959901 -0.246580 -0.133374
vn -0.294653 0.889818 -0.348431
vn 0.771184 0.628109 -0.103704
vn 0.556304 -0.648944 -0.519036
vn 0.055001 -0.729384 0.681891
vn -0.450559 -0.847639 -0.280186
vn -0.708071 -0.080219 -0.701570
vn -0.784544 0.533879 0.315378
vn 0.616058 -0.390029 0.684361
vn -0.064070 -0.930187 -0.361452
vn -0.713471 -0.254039 -0.653011
vn 0.458567 0.233563 0.857418
vn 0.908377 -0.211964 -0.360448
vn 0.431856 -0.409444 -0.803652
vn -0.444956 0.370828 0.815169
vn -0.564650 0.494026 -0.661142
vn 0.438816 0.217196 -0.871933
vn 0.537096 0.043148 0.842417
vn 0.850622 0.466735 0.242077
vn -0.031603 0.874020 -0.484861
vn -0.739007 -0.075117 -0.669497
vn 0.347742 -0.672615 -0.653195
vn -0.712931 -0.616167 -0.334765
vn -0.519976 0.677233 -0.520559
vn 0.469590 0.747822 0.469306
vn 0.833533 -0.271012 -0.481431
vn -0.458560 -0.256180 -0.850937
vn -0.409279 0.782670 -0.468955
vn -0.042445 0.056638 -0.997492
vn 0.038119 -0.971121 -0.235523
vn -0.440926 0.064674 0.895210
vn 0.437869 0.762887 0.475683
vn 0.846030 -0.364760 -0.388823
vn 0.197230 0.189132 -0.961940
vn 0.920705 -0.346707 0.179154
vn -0.326492 0.855861 0.401130
vn -0.665039 -0.085367 0.741913
vn 0.856554 0.380151 0.349000
vn -0.120897 -0.097403 0.987875
vn -0.585803 0.742067 -0.325839
vn -0.396526 0.856826 -0.329571
vn 0.076939 0.093203 -0.992670
vn 0.634540 -0.511580 -0.579349
vn -0.426727 0.055119 0.902699
vn -0.669550 -0.739201 0.072697
vn 0.071404 -0.829554 -0.553843
vn 0.268256 -0.919258 0.288102
vn 0.096436 0.627843 0.772343
vn -0.643684 0.499459 -0.579837
vn -0.512398 0.855526 0.074322
vn 0.982014 0.086390 -0.167884
vn 0.650627 0.758863 -0.028490
vn -0.064853 -0.651995 0.755445
vn 0.255092 -0.128633 -0.958322
vn -0.702215 -0.269708 -0.658902
vn -0.772721 -0.522378 -0.360587
vn 0.142307 0.269578 -0.952406
vn 0.788283 0.348362 -0.507202
vn -0.649732 0.648662 0.396341
vn 0.721976 -0.242443 0.648053
vn 0.046193 -0.924317 0.378820
vn 0.358957 -0.352487 -0.864235
vn -0.871900 0.257338 0.416614
vn 0.966254 0.203716 0.157651
vn 0.216483 -0.960141 0.176819
vn 0.162080 -0.289720 0.943288
vn 0.335720 0.545264 0.768101
vn -0.267222 0.256690 -0.928818
vn -0.061208 0.969995 -0.235295
vn -0.443803 0.382841 0.810230
vn 0.822302 -0.359357 0.441229
vn -0.179981 -0.387702 -0.904043
vn 0.718778 -0.264001 -0.643165
vn 0.090147 0.535273 0.839855
vn 0.760888 0.627779 -0.164145
vn 0.086467 0.386465 -0.918242
vn -0.685390 -0.631002 0.363423
vn 0.985653 -0.120461 0.118226
vn 0.630077 0.717765 0.296339
vn 0.322067 -0.416822 0.850019
vn 0.134826 0.758634 0.637413
vn -0.448063 -0.257471 -0.856124
vn 0.993320 0.037691 0.109063
vn -0.564906 0.637741 0.523610
vn -0.676496 -0.646563 -0.352575
vn 0.708092 -0.246823 0.661577
vn -0.848918 -0.522938 0.076636
vn -0.114033 -0.958070 0.262867
vn -0.591469 -0.743281 -0.312565
vn -0.756400 0.531946 -0.380648
vn -0.217812 0.975861 0.015896
vn -0.485370 0.782866 0.389278
vn 0.119558 -0.533911 -0.837045
vn -0.691128 0.382402 -0.613279
vn 0.951870 -0.267786 0.149111
vn -0.164954 -0.671706 -0.722219
vn -0.222017 0.221512 -0.949548
vn -0.693296 -0.204188 0.691120
vn 0.874223 -0.206057 -0.439630
vn 0.726091 0.089343 0.681770
vn 0.161166 -0.651200 -0.741596
vn -0.592327 0.551910 0.586979
vn 0.288697 0.956306 0.046185
vn -0.606220 0.526842 0.595764
vn 0.538060 -0.818559 -0.201129
vn 0.912679 -0.092097 0.398166
vn 0.437874 0.862877 0.252410
vn 0.323698 -0.625513 -0.709897
vn 0.443008 -0.258079 0.858568
vn -0.718125 -0.075103 0.691849
vn 0.527063 -0.327920 -0.784011
vn 0.046926 -0.922329 -0.383546
vn 0.661564 -0.745611 -0.079987
vn -0.745966 -0.650546 0.142566
vn -0.131111 0.506879 0.851988
s off
f 2/1/1 1/2/2 3/3/3
f 5/4/4 4/5/5 6/6/6
f 7/7/7 9/8/8 8/9/9
f 10/10/10 12/11/11 11/12/12
f 13/13/13 15/14/14 14/15/15
f 16/16/16 18/17/17 17/18/18
f 19/19/19 21/20/20 20/21/21
f 23/22/22 22/23/23 24/24/24
f 25/25/25 27/26/26 26/27/27
f 28/28/28 30/29/29 29/30/30
f 31/31/31 33/32/32 32/33/33
f 35/34/34 34/35/35 36/36/36
f 37/37/37 39/38/38 38/39/39
f 41/40/40 40/41/41 42/42/42
f 43/43/43 45/44/44 44/45/45
f 46/46/46 48/47/47 47/48/48
f 49/49/49 51/50/50 50/51/51
f 52/52/52 54/53/53 53/54/54
f 56/55/55 55/56/56 57/57/57
f 58/58/58 60/59/59 59/60/60
f 62/61/61 61/62/62 63/63/63
f 65/64/64 64/65/65 66/66/66
f 68/67/67 67/68/68 69/69/69
f 70/70/70 72/71/71 71/72/72
f 73/73/73 75/74/74 74/75/75
f 76/76/76 78/77/77 77/78/78
f 79/79/79 81/80/80 80/81/81
f 83/82/82 82/83/83 84/84/84
f 86/85/85 85/86/86 87/87/87
f 88/88/88 90/89/89 89/90/90
f 92/91/91 91/92/92 93/93/93
f 94/94/94 96/95/95 95/96/96
f 98/97/97 97/98/98 99/99/99
f 100/100/100 102/101/101 101/102/102
f 104/103/103 103/104/104 105/105/105
f 107/106/106 106/107/107 108/108/108
f 110/109/109 109/110/110 111/111/111
f 112/112/112 114/113/113 113/114/114
f 115/115/115 117/116/116 116/117/117
f 118/118/118 120/119/119 119/120/120
f 121/121/121 123/122/122 122/123/123
f 124/124/124 126/125/125 125/126/126
f 128/127/127 127/128/128 129/129/129
f 130/130/130 132/131/131 131/132/132
f 133/133/133 135/134/134 134/135/135
f 137/136/136 136/137/137 138/138/138
f 139/139/139 141/140/140 140/141/141
f 142/142/142 144/143/143 143/144/144
f 146/145/145 145/146/146 147/147/147
f 148/148/148 150/149/149 149/150/150
f 151/151/151 153/152/152 152/153/153
f 154/154/154 156/155/155 155/156/156
f 157/157/157 159/158/158 158/159/159
f 161/160/160 160/161/161 162/162/162
f 163/163/163 165/164/164 164/165/165
f 166/166/166 168/167/167 167/168/168
f 169/169/169 171/170/170 170/171/171
f 173/172/172 172/173/173 174/174/174
f 176/175/175 175/176/176 177/177/177
f 179/178/178 178/179/179 180/180/180
f 182/181/181 181/182/182 183/183/183
f 185/184/184 184/185/185 186/186/186
f 187/187/187 189/188/188 188/189/189
f 190/190/190 192/191/191 191/192/192
f 194/193/193 193/194/194 195/195/195
f 196/196/196 198/197/197 197/198/198
f 199/199/199 201/200/200 200/201/201
f 202/202/202 204/203/203 203/204/204
f 205/205/205 207/206/206 206/207/207
f 209/208/208 208/209/209 210/210/210
f 212/211/211 211/212/212 213/213/213
f 214/214/214 216/215/215 215/216/216
f 218/217/217 217/218/218 219/219/219
f 220/220/220 222/221/221 221/222/222
f 223/223/223 225/224/224 224/225/225
f 226/226/226 228/227/227 227/228/228
f 230/229/229 229/230/230 231/231/231
f 233/232/232 232/233/233 234/234/234
f 235/235/235 237/236/236 236/237/237
f 239/238/238 238/239/239 240/240/240
f 241/241/241 243/242/242 242/243/243
f 245/244/244 244/245/245 246/246/246
f 247/247/247 249/248/248 248/249/249
f 250/250/250 252/251/251 251/252/252
f 254/253/253 253/254/254 255/255/255
f 257/256/256 256/257/257 258/258/258
f 260/259/259 259/260/260 261/261/261
f 262/262/262 264/263/263 263/264/264
f 265/265/265 267/266/266 266/267/267
f 268/268/268 270/269/269 269/270/270
f 272/271/271 271/272/272 273/273/273
f 274/274/274 276/275/275 275/276/276
f 277/277/277 279/278/278 278/279/279
f 281/280/280 280/281/281 282/282/282
f 284/283/283 283/284/284 285/285/285
f 286/286/286 288/287/287 287/288/288
f 289/289/289 291/290/290 290/291/291
f 293/292/292 292/293/293 294/294/294
f 295/295/295 297/296/296 296/297/297
f 299/298/298 298/299/299 300/300/300
f 302/301/301 301/302/302 303/303/303
f 304/304/304 306/305/305 305/306/306
f 308/307/307 307/308/308 309/309/309
f 311/310/310 310/311/311 312/312/312
f 313/313/313 315/314/314 314/315/315
f 317/316/316 316/317/317 318/318/318
f 319/319/319 321/320/320 320/321/321
f 323/322/322 322/323/323 324/324/324
f 325/325/325 327/326/326 326/327/327
f 328/328/328 330/329/329 329/330/330
f 331/331/331 333/332/332 332/333/333
f 334/334/334 336/335/335 335/336/336
f 337/337/337 339/338/338 338/339/339
f 340/340/340 342/341/341 341/342/342
f 344/343/343 343/344/344 345/345/345
f 346/346/346 348/347/347 347/348/348
f 350/349/349 349/350/350 351/351/351
f 352/352/352 354/353/353 353/354/354
f 355/355/355 357/356/356 356/357/357
f 359/358/358 358/359/359 360/360/360
f 362/361/361 361/362/362 363/363/363
f 365/364/364 364/365/365 366/366/366
f 367/367/367 369/368/368 368/369/369
f 371/370/370 370/371/371 372/372/372
f 373/373/373 375/374/374 374/375/375
f 376/376/376 378/377/377 377/378/378
f 380/379/379 379/380/380 381/381/381
f 382/382/382 384/383/383 383/384/384
f 385/385/385 387/386/386 386/387/387
f 388/388/388 390/389/389 389/390/390
f 391/391/391 393/392/392 392/393/393
f 394/394/394 396/395/395 395/396/396
f 397/397/397 399/398/398 398/399/399
f 400/400/400 402/401/401 401/402/402
f 403/403/403 405/404/404 404/405/405
f 406/406/406 408/407/407 407/408/408
f 410/409/409 409/410/410 411/411/411
f 412/412/412 414/413/413 413/414/414
f 415/415/415 417/416/416 416/417/417
f 419/418/418 418/419/419 420/420/420
f 422/421/421 421/422/422 423/423/423
f 424/424/424 426/425/425 425/426/426
f 428/427/427 427/428/428 429/429/429
f 431/430/430 430/431/431 432/432/432
f 433/433/433 435/434/434 434/435/435
f 436/436/436 438/437/437 437/438/438
f 440/439/439 439/440/440 441/441/441
f 442/442/442 444/443/443 443/444/444
f 445/445/445 447/446/446 446/447/447
f 448/448/448 450/449/449 449/450/450
f 452/451/451 451/452/452 453/453/453
f 455/454/454 454/455/455 456/456/456
f 457/457/457 459/458/458 458/459/459
f 460/460/460 462/461/461 461/462/462
f 463/463/463 465/464/464 464/465/465
f 467/466/466 466/467/467 468/468/468
f 469/469/469 471/470/470 470/471/471
f 472/472/472 474/473/473 473/474/474
f 475/475/475 477/476/476 476/477/477
f 479/478/478 478/479/479 480/480/480
f 481/481/481 483/482/482 482/483/483
f 484/484/484 486/485/485 485/486/486
f 488/487/487 487/488/488 489/489/489
f 491/490/490 490/491/491 492/492/492
f 493/493/493 495/494/494 494/495/495
f 497/496/496 496/497/497 498/498/498
f 499/499/499 501/500/500 500/501/501
f 502/502/502 504/503/503 503/504/504
f 505/505/505 507/506/506 506/507/507
f 508/508/508 510/509/509 509/510/510
f 511/511/511 513/512/512 512/513/513
f 515/514/514 514/515/515 516/516/516
f 517/517/517 519/518/518 518/519/519
f 520/520/520 522/521/521 521/522/522
f 523/523/523 525/524/524 524/525/525
f 527/526/526 526/527/527 528/528/528
f 529/529/529 531/530/530 530/531/531
f 532/532/532 534/533/533 533/534/534
f 535/535/535 537/536/536 536/537/537
f 538/538/538 540/539/539 539/540/540
f 542/541/541 541/542/542 543/543/543
f 545/544/544 544/545/545 546/546/546
f 547/547/547 549/548/548 548/549/549
f 550/550/550 552/551/551 551/552/552
f 553/553/553 555/554/554 554/555/555
f 557/556/556 556/557/557 558/558/558
f 559/559/559 561/560/560 560/561/561
f 563/562/562 562/563/563 564/564/564
f 565/565/565 567/566/566 566/567/567
f 568/568/568 570/569/569 569/570/570
f 572/571/571 571/572/572 573/573/573
f 574/574/574 576/575/575 575/576/576
f 578/577/577 577/578/578 579/579/579
f 581/580/580 580/581/581 582/582/582
f 583/583/583 585/584/584 584/585/585
f 586/586/586 588/587/587 587/588/588
f 589/589/589 591/590/590 590/591/591
f 593/592/592 592/593/593 594/594/594
f 595/595/595 597/596/596 596/597/597
f 599/598/598 598/599/599 600/600/600
f 602/601/601 601/602/602 603/603/603
f 604/604/604 606/605/605 605/606/606
f 608/607/607 607/608/608 609/609/609
f 610/610/610 612/611/611 611/612/612
f 614/613/613 613/614/614 615/615/615
f 616/616/616 618/617/617 617/618/618
f 619/619/619 621/620/620 620/621/621
f 622/622/622 624/623/623 623/624/624
f 625/625/625 627/626/626 626/627/627
f 628/628/628 630/629/629 629/630/630
f 631/631/631 633/632/632 632/633/633
f 635/634/634 634/635/635 636/636/636
f 637/637/637 639/638/638 638/639/639
f 640/640/640 642/641/641 641/642/642
f 643/643/643 645/644/644 644/645/645
f 646/646/646 648/647/647 647/648/648
f 650/649/649 649/650/650 651/651/651
f 653/652/652 652/653/653 654/654/654
f 655/655/655 657/656/656 656/657/657
f 658/658/658 660/659/659 659/660/660
f 661/661/661 663/662/662 662/663/663
f 664/664/664 666/665/665 665/666/666
f 667/667/667 669/668/668 668/669/669
f 671/670/670 670/671/671 672/672/672
f 673/673/673 675/674/674 674/675/675
f 676/676/676 678/677/677 677/678/678
f 679/679/679 681/680/680 680/681/681
f 682/682/682 684/683/683 683/684/684
f 686/685/685 685/686/686 687/687/687
f 689/688/688 688/689/689 690/690/690
f 691/691/691 693/692/692 692/693/693
f 694/694/694 696/695/695 695/696/696
f 698/697/697 697/698/698 699/699/699
f 700/700/700 702/701/701 701/702/702
f 703/703/703 705/704/704 704/705/705
f 707/706/706 706/707/707 708/708/708
f 709/709/709 711/710/710 710/711/711
f 712/712/712 714/713/713 713/714/714
f 715/715/715 717/716/716 716/717/717
f 718/718/718 720/719/719 719/720/720
f 722/721/721 721/722/722 723/723/723
f 724/724/724 726/725/725 725/726/726
f 728/727/727 727/728/728 729/729/729
f 730/730/730 732/731/731 731/732/732
f 734/733/733 733/734/734 735/735/735
f 737/736/736 736/737/737 738/738/738
f 740/739/739 739/740/740 741/741/741
f 743/742/742 742/743/743 744/744/744
f 746/745/745 745/746/746 747/747/747
f 748/748/748 750/749/749 749/750/750
