# This file uses centimeters as units for non-parametric coordinates.

g default
v -0.966377 0.165420 -0.152958
v -0.753618 0.192043 0.108754
v -0.551336 0.138887 0.366086
v -0.790428 0.183506 -0.290760
v -0.576216 0.221195 -0.028440
v -0.375387 0.156973 0.228285
v -0.615199 0.196106 -0.428862
v -0.400386 0.238375 -0.166291
v -0.200158 0.169573 0.090182
v -0.442319 0.190825 -0.567946
v -0.229201 0.220177 -0.306085
v -0.027278 0.164292 -0.048902
v -0.724274 1.265962 -0.628906
v -0.739467 1.275128 -0.453330
v -0.818216 1.265962 -0.295672
v -0.657068 1.212653 -0.609960
v -0.663446 1.224362 -0.431899
v -0.751010 1.212653 -0.276726
v -0.594232 1.158084 -0.592246
v -0.596961 1.170846 -0.413157
v -0.688174 1.158084 -0.259012
v -0.545641 1.099406 -0.578547
v -0.558660 1.109200 -0.402359
v -0.639582 1.099406 -0.245313
v -0.485714 0.232337 -0.942524
v -0.692408 0.256769 -0.712131
v -0.896635 0.207988 -0.491863
v -0.335568 0.248934 -0.802812
v -0.542603 0.283521 -0.571015
v -0.746488 0.224585 -0.352152
v -0.185251 0.260497 -0.663797
v -0.392429 0.299287 -0.431418
v -0.596172 0.236148 -0.213136
v -0.034382 0.255651 -0.527050
v -0.241160 0.282587 -0.296312
v -0.445303 0.231302 -0.076390
v -0.670651 0.414315 -0.025032
v -0.472753 0.413742 0.088002
v -0.297792 0.361199 0.200671
v -0.590950 0.419207 -0.153096
v -0.389870 0.425841 -0.040013
v -0.218091 0.366090 0.072607
v -0.512826 0.420524 -0.281186
v -0.310429 0.430142 -0.168081
v -0.139967 0.367408 -0.055483
v -0.439843 0.410194 -0.409357
v -0.241160 0.411398 -0.296312
v -0.066985 0.357077 -0.183654
v -0.851905 0.636357 -0.356717
v -0.752751 0.654174 -0.153944
v -0.659765 0.618600 0.044390
v -0.716372 0.648460 -0.419965
v -0.616362 0.673683 -0.216576
v -0.524232 0.630704 -0.018858
v -0.581263 0.656893 -0.483517
v -0.480899 0.685180 -0.279874
v -0.389123 0.639136 -0.082411
v -0.447537 0.653358 -0.548065
v -0.348172 0.673002 -0.345141
v -0.255397 0.635602 -0.146958
v -0.952819 1.036890 -0.196299
v -0.777922 1.031021 -0.050544
v -0.639871 0.975976 0.102444
v -0.853558 1.024607 -0.308115
v -0.673550 1.025558 -0.163363
v -0.540609 0.963693 -0.009372
v -0.756830 1.008943 -0.419434
v -0.574706 1.012717 -0.275097
v -0.443881 0.948028 -0.120691
v -0.668360 0.982256 -0.529131
v -0.492202 0.978069 -0.383624
v -0.355412 0.921342 -0.230389
v -0.571178 0.857848 -0.860147
v -0.723922 0.915533 -0.725233
v -0.906453 0.922375 -0.589302
v -0.476520 0.857075 -0.742395
v -0.625132 0.921812 -0.607622
v -0.811795 0.921601 -0.471550
v -0.383910 0.852805 -0.624572
v -0.530812 0.920461 -0.489858
v -0.719185 0.917332 -0.353727
v -0.297976 0.837140 -0.506522
v -0.449701 0.896564 -0.371643
v -0.633251 0.901666 -0.235677
v 0.346273 0.144360 -0.186699
v 0.275228 0.165142 -0.440217
v 0.210326 0.123648 -0.687344
v 0.177459 0.158478 -0.142686
v 0.105563 0.187898 -0.397090
v 0.041512 0.137766 -0.643331
v 0.009068 0.168313 -0.098233
v -0.063181 0.201309 -0.353005
v -0.126879 0.147601 -0.598878
v -0.157947 0.164191 -0.052348
v -0.229201 0.187104 -0.306085
v -0.293894 0.143479 -0.552993
v -0.201537 -0.009621 -0.298077
v -0.214650 -0.012297 -0.321845
v -0.238247 -0.014974 -0.308426
v -0.225133 -0.012297 -0.284659
v -0.532094 1.177257 -0.391264
v -0.274450 0.466697 -0.318632
v -0.298736 0.462588 -0.304572
v -0.312101 0.458480 -0.329246
v -0.287816 0.462588 -0.343306
v -0.346067 0.704512 -0.338822
v -0.365668 0.700683 -0.327352
v -0.376391 0.696854 -0.347370
v -0.356791 0.700683 -0.358840
v -0.140219 0.429348 -0.761354
v -0.342663 0.488534 -0.760642
v -0.569614 0.496627 -0.745499
v -0.122099 0.455572 -0.618707
v -0.321144 0.521844 -0.619996
v -0.551495 0.522851 -0.602852
v -0.105665 0.478282 -0.475068
v -0.303302 0.547488 -0.477185
v -0.535060 0.545561 -0.459212
v -0.094723 0.489541 -0.328194
v -0.296328 0.550475 -0.327975
v -0.524119 0.556820 -0.312338
v -0.599714 -0.107069 0.610642
v -0.363004 0.001294 0.600062
v -0.098337 0.046574 0.563759
v -0.642264 -0.054748 0.446112
v -0.409431 0.062365 0.439100
v -0.140887 0.098896 0.399229
v -0.682891 -0.006764 0.279814
v -0.451664 0.113970 0.274278
v -0.181514 0.146880 0.232931
v -0.717252 0.027081 0.107750
v -0.481499 0.137602 0.098050
v -0.215876 0.180725 0.060867
v -1.316263 0.740056 0.670096
v -1.206322 0.759421 0.759683
v -1.121785 0.744514 0.874716
v -1.258042 0.722036 0.615444
v -1.144578 0.746155 0.701502
v -1.063564 0.726494 0.820064
v -1.201568 0.701660 0.562542
v -1.086645 0.727747 0.647139
v -1.007090 0.706118 0.767162
v -1.150788 0.673602 0.515342
v -1.039978 0.694140 0.604060
v -0.956310 0.678060 0.719962
v -1.003401 0.008863 -0.012066
v -0.926701 -0.011860 0.228486
v -0.824458 -0.087481 0.435123
v -0.865883 0.079338 -0.039960
v -0.792726 0.066230 0.205296
v -0.686940 -0.017007 0.407229
v -0.726608 0.146038 -0.070186
v -0.654918 0.136081 0.177018
v -0.547666 0.049693 0.377003
v -0.581608 0.200432 -0.108013
v -0.505783 0.181588 0.133700
v -0.402666 0.104088 0.339176
v -0.521888 0.178837 0.574093
v -0.379130 0.248070 0.497789
v -0.221843 0.271674 0.416016
v -0.584213 0.193706 0.469715
v -0.443471 0.269268 0.394169
v -0.284168 0.286543 0.311638
v -0.645539 0.205438 0.364960
v -0.505631 0.283620 0.289729
v -0.345494 0.298274 0.206883
v -0.703609 0.206942 0.258980
v -0.561348 0.277736 0.182863
v -0.403563 0.299778 0.100903
v -0.902777 0.258643 0.629157
v -0.740047 0.321020 0.661483
v -0.559349 0.341285 0.675405
v -0.905698 0.301743 0.520407
v -0.745461 0.369961 0.555286
v -0.562270 0.384384 0.566655
v -0.907384 0.341947 0.410392
v -0.748178 0.412582 0.446328
v -0.563956 0.424588 0.456640
v -0.905043 0.372712 0.296251
v -0.742928 0.436529 0.329207
v -0.561614 0.455353 0.342499
v -1.000485 0.543242 0.915799
v -0.840936 0.604874 0.866290
v -0.667548 0.619573 0.824493
v -1.037877 0.552670 0.799556
v -0.880247 0.620812 0.748977
v -0.704940 0.629000 0.708251
v -1.074317 0.558870 0.683844
v -0.917481 0.629706 0.632822
v -0.741380 0.635201 0.592538
v -1.107655 0.554550 0.569861
v -0.948579 0.617788 0.520087
v -0.774718 0.630881 0.478555
v -1.245885 0.458407 0.316671
v -1.230247 0.469245 0.494169
v -1.201910 0.433397 0.671566
v -1.134237 0.497327 0.307721
v -1.120360 0.514641 0.485232
v -1.090261 0.472317 0.662615
v -1.021716 0.533037 0.298763
v -1.008567 0.553032 0.476281
v -0.977740 0.508027 0.653658
v -0.906348 0.558282 0.289783
v -0.891144 0.570719 0.467284
v -0.862373 0.533273 0.644678
v -0.176194 0.263279 -0.243298
v -0.380591 0.233129 -0.300793
v -0.551747 0.158935 -0.383164
v -0.208702 0.228014 -0.111843
v -0.417710 0.203974 -0.165888
v -0.584256 0.123671 -0.251709
v -0.238925 0.189722 0.017902
v -0.449841 0.168210 -0.034715
v -0.614479 0.085379 -0.121964
v -0.261698 0.141558 0.142071
v -0.467232 0.112915 0.085426
v -0.637251 0.037215 0.002205
v -0.469737 0.003480 0.082882
v -0.488627 -0.008042 0.080284
v -0.486730 -0.018799 0.099559
v -0.467839 -0.007277 0.102157
v -0.954699 0.724772 0.526762
v -0.634365 0.322705 0.231807
v -0.631885 0.310660 0.251426
v -0.651060 0.297820 0.248263
v -0.653540 0.309864 0.228643
v -0.734240 0.464549 0.323379
v -0.732022 0.454464 0.339143
v -0.747407 0.443730 0.336385
v -0.749625 0.453816 0.320622
v -0.850541 0.275968 -0.076744
v -0.943030 0.260169 0.074349
v -1.011869 0.200363 0.227745
v -0.759169 0.314752 -0.016082
v -0.854940 0.305057 0.134691
v -0.920497 0.239148 0.288407
v -0.666172 0.350511 0.044738
v -0.763300 0.343343 0.195379
v -0.827500 0.274907 0.349227
v -0.567873 0.376407 0.106075
v -0.661172 0.362113 0.257089
v -0.729201 0.300802 0.410564
v 0.051951 -0.014299 -0.796847
v -0.244430 0.036815 -0.785700
v -0.540811 -0.005453 -0.746176
v 0.069284 0.046126 -0.612449
v -0.227097 0.110192 -0.605238
v -0.523478 0.054972 -0.561778
v 0.086616 0.100130 -0.426099
v -0.209765 0.169557 -0.420517
v -0.506146 0.108975 -0.375428
v 0.103949 0.133203 -0.233389
v -0.192432 0.187512 -0.223213
v -0.488813 0.142049 -0.182718
v 0.177274 -0.031298 -0.543987
v -0.021177 0.044440 -0.511979
v -0.236914 0.062737 -0.462280
v 0.217866 0.005233 -0.409189
v 0.021812 0.088937 -0.379635
v -0.196322 0.099267 -0.327482
v 0.257270 0.037814 -0.273175
v 0.062208 0.124816 -0.244637
v -0.156918 0.131848 -0.191468
v 0.292799 0.057520 -0.133195
v 0.094939 0.135223 -0.101793
v -0.121389 0.151555 -0.051489
v 0.702644 0.744043 -0.571258
v 0.607063 0.759114 -0.635432
v 0.532825 0.748359 -0.724521
v 0.659588 0.721073 -0.524677
v 0.561047 0.739726 -0.585395
v 0.489769 0.725389 -0.677939
v 0.617999 0.696327 -0.479809
v 0.518233 0.716463 -0.539097
v 0.448181 0.700643 -0.633071
v 0.581195 0.665793 -0.440525
v 0.484884 0.681747 -0.503846
v 0.411376 0.670109 -0.593787
v 0.533128 0.053337 -0.055559
v 0.458509 0.046539 -0.247366
v 0.368515 -0.011101 -0.414352
v 0.418596 0.102301 -0.018744
v 0.346110 0.102555 -0.213993
v 0.253983 0.037863 -0.377537
v 0.303007 0.147769 0.019778
v 0.231404 0.150942 -0.176897
v 0.138394 0.083331 -0.339015
v 0.183972 0.181842 0.063863
v 0.109879 0.176783 -0.128794
v 0.019359 0.117404 -0.294931
v 0.098180 0.204959 -0.487087
v -0.017786 0.249274 -0.410788
v -0.142377 0.253303 -0.332704
v 0.153778 0.214890 -0.405236
v 0.039007 0.264793 -0.329185
v -0.086780 0.263234 -0.250852
v 0.208782 0.222051 -0.323263
v 0.094507 0.274266 -0.247313
v -0.031776 0.270395 -0.168879
v 0.261853 0.220182 -0.240889
v 0.146181 0.265875 -0.164650
v 0.021295 0.268526 -0.086505
v 0.399388 0.302521 -0.549565
v 0.261477 0.346894 -0.560615
v 0.112661 0.352885 -0.558899
v 0.405214 0.332229 -0.458209
v 0.268816 0.381925 -0.471029
v 0.118488 0.382592 -0.467543
v 0.410291 0.359297 -0.365975
v 0.274520 0.411196 -0.379528
v 0.123565 0.409660 -0.375309
v 0.412924 0.377762 -0.270879
v 0.275387 0.423448 -0.282366
v 0.126197 0.428125 -0.280213
v 0.444626 0.571146 -0.765897
v 0.313981 0.609628 -0.710855
v 0.174609 0.607641 -0.664861
v 0.480987 0.573952 -0.673276
v 0.351553 0.618048 -0.616980
v 0.210970 0.610447 -0.572241
v 0.516748 0.573976 -0.581277
v 0.387816 0.620396 -0.524462
v 0.246732 0.610471 -0.480242
v 0.550553 0.564929 -0.491307
v 0.420208 0.604797 -0.435956
v 0.280537 0.601424 -0.390271
v 0.683201 0.475323 -0.302277
v 0.659763 0.495377 -0.444353
v 0.628950 0.474725 -0.589194
v 0.590588 0.500379 -0.284922
v 0.568173 0.526078 -0.426614
v 0.536337 0.499780 -0.571839
v 0.497468 0.522635 -0.267757
v 0.475476 0.550671 -0.409291
v 0.443217 0.522037 -0.554674
v 0.402695 0.535768 -0.251213
v 0.379510 0.557214 -0.393194
v 0.348444 0.535170 -0.538129
v -0.141569 0.198985 0.204082
v 0.029584 0.183251 0.235424
v 0.177916 0.126021 0.285592
v -0.120400 0.179880 0.092690
v 0.053918 0.169901 0.121421
v 0.199085 0.106916 0.174201
v -0.100800 0.157921 -0.017407
v 0.074828 0.150325 0.010243
v 0.218684 0.084957 0.064104
v -0.086315 0.126662 -0.123284
v 0.085618 0.112348 -0.092586
v 0.233169 0.053698 -0.041774
v -0.016439 0.000153 0.018222
v 0.009145 -0.007905 0.018786
v 0.005594 -0.015223 -0.006945
v -0.019989 -0.007165 -0.007508
v 0.530032 0.715942 -0.552196
v 0.164558 0.306412 -0.167315
v 0.160299 0.297970 -0.193536
v 0.186387 0.288756 -0.192367
v 0.190646 0.297198 -0.166147
v 0.277507 0.448123 -0.285519
v 0.273816 0.440967 -0.306595
v 0.294794 0.433184 -0.305406
v 0.298485 0.440340 -0.284330
v 0.395869 0.266591 0.027419
v 0.463417 0.269468 -0.102163
v 0.514390 0.233347 -0.235559
v 0.315789 0.297556 -0.012958
v 0.385636 0.305842 -0.142012
v 0.434310 0.264312 -0.275936
v 0.234569 0.325839 -0.053598
v 0.305368 0.336365 -0.182433
v 0.353090 0.292595 -0.316576
v 0.149634 0.345382 -0.095092
v 0.217749 0.349593 -0.224544
v 0.268154 0.312138 -0.358070
v 0.393792 0.185761 0.846586
v 0.611832 0.215658 0.536886
v 0.828332 0.155965 0.239843
v 0.191240 0.206070 0.698402
v 0.409494 0.248394 0.386946
v 0.625780 0.176275 0.091659
v -0.011418 0.220220 0.551088
v 0.206925 0.267687 0.238905
v 0.423121 0.190424 -0.055655
v -0.214422 0.214289 0.406611
v 0.003672 0.247251 0.096477
v 0.220118 0.184494 -0.200132
v -0.194398 1.421629 0.643867
v 0.000000 1.431922 0.606791
v 0.194398 1.421629 0.643867
v -0.194398 1.361765 0.565455
v 0.000000 1.374914 0.518094
v 0.194398 1.361765 0.565455
v -0.194398 1.300486 0.492142
v 0.000000 1.314817 0.440524
v 0.194398 1.300486 0.492142
v -0.194398 1.234593 0.435449
v 0.000000 1.245591 0.395836
v 0.194398 1.234593 0.435449
v -0.606055 0.260906 0.567647
v -0.294060 0.288342 0.720849
v 0.006241 0.233563 0.874470
v -0.500800 0.279544 0.362794
v -0.187182 0.318384 0.515937
v 0.111497 0.252201 0.669616
v -0.396348 0.292529 0.157969
v -0.082059 0.336089 0.311088
v 0.215949 0.265186 0.464791
v -0.294517 0.287086 -0.046762
v 0.017879 0.317335 0.106425
v 0.317779 0.259743 0.260060
v 0.441952 0.465261 0.487976
v 0.503824 0.464617 0.239639
v 0.572291 0.405613 0.016206
v 0.279251 0.470754 0.440853
v 0.340207 0.478204 0.189062
v 0.409589 0.411106 -0.030917
v 0.117003 0.472233 0.395443
v 0.177580 0.483034 0.142222
v 0.247341 0.412586 -0.076327
v -0.043767 0.460633 0.355614
v 0.017879 0.461985 0.106425
v 0.086572 0.400985 -0.116156
v 0.138683 0.714606 0.784945
v 0.327635 0.734613 0.615992
v 0.513669 0.694666 0.455057
v 0.029026 0.728197 0.657728
v 0.218382 0.756521 0.487662
v 0.404012 0.708257 0.327840
v -0.080831 0.737667 0.531062
v 0.108692 0.769432 0.360536
v 0.294154 0.717727 0.201174
v -0.191343 0.733698 0.406194
v -0.002291 0.755757 0.236965
v 0.183643 0.713758 0.076305
v 0.331190 1.164390 0.818085
v 0.435436 1.157799 0.584638
v 0.558726 1.095985 0.388813
v 0.180090 1.150596 0.744870
v 0.281695 1.151665 0.506205
v 0.407627 1.082192 0.315597
v 0.030300 1.133006 0.674241
v 0.130811 1.137245 0.433417
v 0.257836 1.064601 0.244969
v -0.115222 1.103038 0.612045
v -0.011627 1.098336 0.377311
v 0.112315 1.034633 0.182773
v -0.471731 0.963332 0.609102
v -0.279371 1.028110 0.733085
v -0.076835 1.035793 0.888954
v -0.373302 0.962464 0.470913
v -0.182353 1.035161 0.590474
v 0.021594 1.034924 0.750765
v -0.274174 0.957669 0.334917
v -0.083809 1.033644 0.452647
v 0.120723 1.030130 0.614769
v -0.172764 0.940077 0.206067
v 0.019248 1.006809 0.328960
v 0.222132 1.012538 0.485919
v -0.042638 0.162111 -0.561892
v -0.295002 0.185448 -0.407858
v -0.542330 0.138852 -0.262410
v 0.056370 0.177964 -0.392843
v -0.196693 0.211002 -0.237618
v -0.443322 0.154706 -0.093361
v 0.155725 0.189010 -0.224384
v -0.097627 0.226062 -0.068667
v -0.343967 0.165751 0.075097
v 0.256208 0.184380 -0.057850
v 0.003672 0.210110 0.096477
v -0.243484 0.161121 0.241632
v 0.000000 -0.010804 0.058994
v -0.022395 -0.013809 0.081103
v -0.000000 -0.016815 0.103212
v 0.022395 -0.013809 0.081103
v 0.000000 1.322017 0.457149
v 0.000000 0.524083 0.146818
v 0.023328 0.519470 0.169493
v -0.000000 0.514857 0.192168
v -0.023328 0.519470 0.169493
v 0.000000 0.791142 0.233080
v 0.018963 0.786842 0.251343
v -0.000000 0.782542 0.269606
v -0.018963 0.786842 0.251343
v -0.515513 0.482143 0.139022
v -0.453059 0.548606 0.357613
v -0.367540 0.557694 0.598297
v -0.366856 0.511591 0.075973
v -0.307601 0.586012 0.291500
v -0.218883 0.587142 0.535248
v -0.216613 0.537094 0.014444
v -0.158682 0.614809 0.228702
v -0.068640 0.612645 0.473718
v -0.061200 0.549737 -0.042135
v 0.000465 0.618163 0.175701
v 0.086773 0.625289 0.417140
vt 0.425428 0.628178
vt 0.259599 0.628178
vt 0.093769 0.628178
vt 0.425428 0.519351
vt 0.259599 0.519351
vt 0.093769 0.519351
vt 0.425428 0.410524
vt 0.259599 0.410524
vt 0.093769 0.410524
vt 0.425428 0.301697
vt 0.259599 0.301697
vt 0.093769 0.301697
vt 0.425428 0.628178
vt 0.259599 0.628178
vt 0.259599 0.519351
vt 0.425428 0.519351
vt 0.093769 0.628178
vt 0.093769 0.519351
vt 0.259599 0.410524
vt 0.425428 0.410524
vt 0.093769 0.410524
vt 0.259599 0.301697
vt 0.425428 0.301697
vt 0.093769 0.301697
vt 0.425428 0.628178
vt 0.259599 0.628178
vt 0.259599 0.519351
vt 0.425428 0.519351
vt 0.093769 0.628178
vt 0.093769 0.519351
vt 0.259599 0.410524
vt 0.425428 0.410524
vt 0.093769 0.410524
vt 0.259599 0.301697
vt 0.425428 0.301697
vt 0.093769 0.301697
vt 0.425428 0.628178
vt 0.259599 0.628178
vt 0.259599 0.519351
vt 0.425428 0.519351
vt 0.093769 0.628178
vt 0.093769 0.519351
vt 0.259599 0.410524
vt 0.425428 0.410524
vt 0.093769 0.410524
vt 0.259599 0.301697
vt 0.425428 0.301697
vt 0.093769 0.301697
vt 0.425428 0.628178
vt 0.259599 0.628178
vt 0.259599 0.519351
vt 0.425428 0.519351
vt 0.093769 0.628178
vt 0.093769 0.519351
vt 0.259599 0.410524
vt 0.425428 0.410524
vt 0.093769 0.410524
vt 0.259599 0.301697
vt 0.425428 0.301697
vt 0.093769 0.301697
vt 0.425428 0.628178
vt 0.259599 0.628178
vt 0.259599 0.519351
vt 0.425428 0.519351
vt 0.093769 0.628178
vt 0.093769 0.519351
vt 0.259599 0.410524
vt 0.425428 0.410524
vt 0.093769 0.410524
vt 0.259599 0.301697
vt 0.425428 0.301697
vt 0.093769 0.301697
vt 0.425428 0.628178
vt 0.259599 0.628178
vt 0.259599 0.519351
vt 0.425428 0.519351
vt 0.093769 0.628178
vt 0.093769 0.519351
vt 0.259599 0.410524
vt 0.425428 0.410524
vt 0.093769 0.410524
vt 0.259599 0.301697
vt 0.425428 0.301697
vt 0.093769 0.301697
vt 0.425428 0.628178
vt 0.259599 0.628178
vt 0.259599 0.519351
vt 0.425428 0.519351
vt 0.093769 0.628178
vt 0.093769 0.519351
vt 0.259599 0.410524
vt 0.425428 0.410524
vt 0.093769 0.410524
vt 0.259599 0.301697
vt 0.425428 0.301697
vt 0.093769 0.301697
vt 0.001000 0.018735
vt 0.013839 0.018735
vt 0.014955 0.324586
vt 0.003233 0.324586
vt 0.026678 0.018735
vt 0.026678 0.324586
vt 0.039517 0.018735
vt 0.038401 0.324586
vt 0.052356 0.018735
vt 0.050124 0.324586
vt 0.047891 0.435258
vt 0.037284 0.435258
vt 0.026678 0.435258
vt 0.016072 0.435258
vt 0.005465 0.435258
vt 0.026678 0.981265
vt 0.425428 0.628178
vt 0.259599 0.628178
vt 0.259599 0.519351
vt 0.425428 0.519351
vt 0.093769 0.628178
vt 0.093769 0.519351
vt 0.259599 0.410524
vt 0.425428 0.410524
vt 0.093769 0.410524
vt 0.259599 0.301697
vt 0.425428 0.301697
vt 0.093769 0.301697
vt 0.425428 0.628178
vt 0.259599 0.628178
vt 0.259599 0.519351
vt 0.425428 0.519351
vt 0.093769 0.628178
vt 0.093769 0.519351
vt 0.259599 0.410524
vt 0.425428 0.410524
vt 0.093769 0.410524
vt 0.259599 0.301697
vt 0.425428 0.301697
vt 0.093769 0.301697
vt 0.425428 0.628178
vt 0.259599 0.628178
vt 0.259599 0.519351
vt 0.425428 0.519351
vt 0.093769 0.628178
vt 0.093769 0.519351
vt 0.259599 0.410524
vt 0.425428 0.410524
vt 0.093769 0.410524
vt 0.259599 0.301697
vt 0.425428 0.301697
vt 0.093769 0.301697
vt 0.425428 0.628178
vt 0.259599 0.628178
vt 0.259599 0.519351
vt 0.425428 0.519351
vt 0.093769 0.628178
vt 0.093769 0.519351
vt 0.259599 0.410524
vt 0.425428 0.410524
vt 0.093769 0.410524
vt 0.259599 0.301697
vt 0.425428 0.301697
vt 0.093769 0.301697
vt 0.425428 0.628178
vt 0.259599 0.628178
vt 0.259599 0.519351
vt 0.425428 0.519351
vt 0.093769 0.628178
vt 0.093769 0.519351
vt 0.259599 0.410524
vt 0.425428 0.410524
vt 0.093769 0.410524
vt 0.259599 0.301697
vt 0.425428 0.301697
vt 0.093769 0.301697
vt 0.425428 0.628178
vt 0.259599 0.628178
vt 0.259599 0.519351
vt 0.425428 0.519351
vt 0.093769 0.628178
vt 0.093769 0.519351
vt 0.259599 0.410524
vt 0.425428 0.410524
vt 0.093769 0.410524
vt 0.259599 0.301697
vt 0.425428 0.301697
vt 0.093769 0.301697
vt 0.425428 0.628178
vt 0.259599 0.628178
vt 0.259599 0.519351
vt 0.425428 0.519351
vt 0.093769 0.628178
vt 0.093769 0.519351
vt 0.259599 0.410524
vt 0.425428 0.410524
vt 0.093769 0.410524
vt 0.259599 0.301697
vt 0.425428 0.301697
vt 0.093769 0.301697
vt 0.425428 0.628178
vt 0.259599 0.628178
vt 0.259599 0.519351
vt 0.425428 0.519351
vt 0.093769 0.628178
vt 0.093769 0.519351
vt 0.259599 0.410524
vt 0.425428 0.410524
vt 0.093769 0.410524
vt 0.259599 0.301697
vt 0.425428 0.301697
vt 0.093769 0.301697
vt 0.425428 0.628178
vt 0.259599 0.628178
vt 0.259599 0.519351
vt 0.425428 0.519351
vt 0.093769 0.628178
vt 0.093769 0.519351
vt 0.259599 0.410524
vt 0.425428 0.410524
vt 0.093769 0.410524
vt 0.259599 0.301697
vt 0.425428 0.301697
vt 0.093769 0.301697
vt 0.001000 0.018735
vt 0.013839 0.018735
vt 0.014955 0.324586
vt 0.003233 0.324586
vt 0.026678 0.018735
vt 0.026678 0.324586
vt 0.039517 0.018735
vt 0.038401 0.324586
vt 0.052356 0.018735
vt 0.050124 0.324586
vt 0.047891 0.435258
vt 0.037284 0.435258
vt 0.026678 0.435258
vt 0.016072 0.435258
vt 0.005465 0.435258
vt 0.026678 0.981265
vt 0.425428 0.628178
vt 0.259599 0.628178
vt 0.259599 0.519351
vt 0.425428 0.519351
vt 0.093769 0.628178
vt 0.093769 0.519351
vt 0.259599 0.410524
vt 0.425428 0.410524
vt 0.093769 0.410524
vt 0.259599 0.301697
vt 0.425428 0.301697
vt 0.093769 0.301697
vt 0.425428 0.628178
vt 0.259599 0.628178
vt 0.259599 0.519351
vt 0.425428 0.519351
vt 0.093769 0.628178
vt 0.093769 0.519351
vt 0.259599 0.410524
vt 0.425428 0.410524
vt 0.093769 0.410524
vt 0.259599 0.301697
vt 0.425428 0.301697
vt 0.093769 0.301697
vt 0.425428 0.628178
vt 0.259599 0.628178
vt 0.259599 0.519351
vt 0.425428 0.519351
vt 0.093769 0.628178
vt 0.093769 0.519351
vt 0.259599 0.410524
vt 0.425428 0.410524
vt 0.093769 0.410524
vt 0.259599 0.301697
vt 0.425428 0.301697
vt 0.093769 0.301697
vt 0.425428 0.628178
vt 0.259599 0.628178
vt 0.259599 0.519351
vt 0.425428 0.519351
vt 0.093769 0.628178
vt 0.093769 0.519351
vt 0.259599 0.410524
vt 0.425428 0.410524
vt 0.093769 0.410524
vt 0.259599 0.301697
vt 0.425428 0.301697
vt 0.093769 0.301697
vt 0.425428 0.628178
vt 0.259599 0.628178
vt 0.259599 0.519351
vt 0.425428 0.519351
vt 0.093769 0.628178
vt 0.093769 0.519351
vt 0.259599 0.410524
vt 0.425428 0.410524
vt 0.093769 0.410524
vt 0.259599 0.301697
vt 0.425428 0.301697
vt 0.093769 0.301697
vt 0.425428 0.628178
vt 0.259599 0.628178
vt 0.259599 0.519351
vt 0.425428 0.519351
vt 0.093769 0.628178
vt 0.093769 0.519351
vt 0.259599 0.410524
vt 0.425428 0.410524
vt 0.093769 0.410524
vt 0.259599 0.301697
vt 0.425428 0.301697
vt 0.093769 0.301697
vt 0.425428 0.628178
vt 0.259599 0.628178
vt 0.259599 0.519351
vt 0.425428 0.519351
vt 0.093769 0.628178
vt 0.093769 0.519351
vt 0.259599 0.410524
vt 0.425428 0.410524
vt 0.093769 0.410524
vt 0.259599 0.301697
vt 0.425428 0.301697
vt 0.093769 0.301697
vt 0.425428 0.628178
vt 0.259599 0.628178
vt 0.259599 0.519351
vt 0.425428 0.519351
vt 0.093769 0.628178
vt 0.093769 0.519351
vt 0.259599 0.410524
vt 0.425428 0.410524
vt 0.093769 0.410524
vt 0.259599 0.301697
vt 0.425428 0.301697
vt 0.093769 0.301697
vt 0.425428 0.628178
vt 0.259599 0.628178
vt 0.259599 0.519351
vt 0.425428 0.519351
vt 0.093769 0.628178
vt 0.093769 0.519351
vt 0.259599 0.410524
vt 0.425428 0.410524
vt 0.093769 0.410524
vt 0.259599 0.301697
vt 0.425428 0.301697
vt 0.093769 0.301697
vt 0.425428 0.628178
vt 0.259599 0.628178
vt 0.259599 0.519351
vt 0.425428 0.519351
vt 0.093769 0.628178
vt 0.093769 0.519351
vt 0.259599 0.410524
vt 0.425428 0.410524
vt 0.093769 0.410524
vt 0.259599 0.301697
vt 0.425428 0.301697
vt 0.093769 0.301697
vt 0.001000 0.018735
vt 0.013839 0.018735
vt 0.014955 0.324586
vt 0.003233 0.324586
vt 0.026678 0.018735
vt 0.026678 0.324586
vt 0.039517 0.018735
vt 0.038401 0.324586
vt 0.052356 0.018735
vt 0.050124 0.324586
vt 0.047891 0.435258
vt 0.037284 0.435258
vt 0.026678 0.435258
vt 0.016072 0.435258
vt 0.005465 0.435258
vt 0.026678 0.981265
vt 0.425428 0.628178
vt 0.259599 0.628178
vt 0.259599 0.519351
vt 0.425428 0.519351
vt 0.093769 0.628178
vt 0.093769 0.519351
vt 0.259599 0.410524
vt 0.425428 0.410524
vt 0.093769 0.410524
vt 0.259599 0.301697
vt 0.425428 0.301697
vt 0.093769 0.301697
vt 0.425428 0.628178
vt 0.259599 0.628178
vt 0.259599 0.519351
vt 0.425428 0.519351
vt 0.093769 0.628178
vt 0.093769 0.519351
vt 0.259599 0.410524
vt 0.425428 0.410524
vt 0.093769 0.410524
vt 0.259599 0.301697
vt 0.425428 0.301697
vt 0.093769 0.301697
vt 0.425428 0.628178
vt 0.259599 0.628178
vt 0.259599 0.519351
vt 0.425428 0.519351
vt 0.093769 0.628178
vt 0.093769 0.519351
vt 0.259599 0.410524
vt 0.425428 0.410524
vt 0.093769 0.410524
vt 0.259599 0.301697
vt 0.425428 0.301697
vt 0.093769 0.301697
vt 0.425428 0.628178
vt 0.259599 0.628178
vt 0.259599 0.519351
vt 0.425428 0.519351
vt 0.093769 0.628178
vt 0.093769 0.519351
vt 0.259599 0.410524
vt 0.425428 0.410524
vt 0.093769 0.410524
vt 0.259599 0.301697
vt 0.425428 0.301697
vt 0.093769 0.301697
vt 0.425428 0.628178
vt 0.259599 0.628178
vt 0.259599 0.519351
vt 0.425428 0.519351
vt 0.093769 0.628178
vt 0.093769 0.519351
vt 0.259599 0.410524
vt 0.425428 0.410524
vt 0.093769 0.410524
vt 0.259599 0.301697
vt 0.425428 0.301697
vt 0.093769 0.301697
vt 0.425428 0.628178
vt 0.259599 0.628178
vt 0.259599 0.519351
vt 0.425428 0.519351
vt 0.093769 0.628178
vt 0.093769 0.519351
vt 0.259599 0.410524
vt 0.425428 0.410524
vt 0.093769 0.410524
vt 0.259599 0.301697
vt 0.425428 0.301697
vt 0.093769 0.301697
vt 0.425428 0.628178
vt 0.259599 0.628178
vt 0.259599 0.519351
vt 0.425428 0.519351
vt 0.093769 0.628178
vt 0.093769 0.519351
vt 0.259599 0.410524
vt 0.425428 0.410524
vt 0.093769 0.410524
vt 0.259599 0.301697
vt 0.425428 0.301697
vt 0.093769 0.301697
vt 0.425428 0.628178
vt 0.259599 0.628178
vt 0.259599 0.519351
vt 0.425428 0.519351
vt 0.093769 0.628178
vt 0.093769 0.519351
vt 0.259599 0.410524
vt 0.425428 0.410524
vt 0.093769 0.410524
vt 0.259599 0.301697
vt 0.425428 0.301697
vt 0.093769 0.301697
vt 0.425428 0.628178
vt 0.259599 0.628178
vt 0.259599 0.519351
vt 0.425428 0.519351
vt 0.093769 0.628178
vt 0.093769 0.519351
vt 0.259599 0.410524
vt 0.425428 0.410524
vt 0.093769 0.410524
vt 0.259599 0.301697
vt 0.425428 0.301697
vt 0.093769 0.301697
vt 0.001000 0.018735
vt 0.013839 0.018735
vt 0.014955 0.324586
vt 0.003233 0.324586
vt 0.026678 0.018735
vt 0.026678 0.324586
vt 0.039517 0.018735
vt 0.038401 0.324586
vt 0.052356 0.018735
vt 0.050124 0.324586
vt 0.047891 0.435258
vt 0.037284 0.435258
vt 0.026678 0.435258
vt 0.016072 0.435258
vt 0.005465 0.435258
vt 0.026678 0.981265
vt 0.425428 0.628178
vt 0.259599 0.628178
vt 0.259599 0.519351
vt 0.425428 0.519351
vt 0.093769 0.628178
vt 0.093769 0.519351
vt 0.259599 0.410524
vt 0.425428 0.410524
vt 0.093769 0.410524
vt 0.259599 0.301697
vt 0.425428 0.301697
vt 0.093769 0.301697
vn -0.884086 0.445321 -0.141708
vn -0.844714 0.520389 0.125118
vn -0.828852 0.549021 -0.107610
vn -0.783137 0.508911 -0.357359
vn -0.746982 0.522589 0.410998
vn -0.737214 0.553086 0.388088
vn -0.693945 0.633542 -0.342148
vn -0.737370 0.522968 -0.427539
vn -0.678401 0.654347 0.334069
vn -0.524377 0.638501 -0.563333
vn -0.572092 0.525583 -0.629660
vn -0.290985 0.760787 -0.580113
vn -0.475164 0.764079 -0.436352
vn -0.538620 0.781083 -0.315908
vn -0.528646 0.786699 -0.318807
vn -0.461150 0.767207 -0.445796
vn -0.578584 0.779619 -0.239658
vn -0.571401 0.783858 -0.243039
vn -0.521437 0.790255 -0.321869
vn -0.448482 0.769230 -0.455136
vn -0.565381 0.787100 -0.246613
vn -0.522100 0.788064 -0.326140
vn -0.441166 0.768264 -0.463835
vn -0.563199 0.787307 -0.250906
vn -0.395674 0.490569 -0.776392
vn -0.604485 0.504179 -0.616767
vn -0.587577 0.535224 -0.606868
vn -0.360660 0.518232 -0.775474
vn -0.769746 0.490413 -0.408639
vn -0.764346 0.518939 -0.382725
vn -0.543897 0.620712 -0.564706
vn -0.161188 0.543087 -0.824060
vn -0.760563 0.545224 -0.352526
vn -0.521767 0.649733 -0.552817
vn -0.099086 0.621544 -0.777088
vn -0.766757 0.629115 -0.127667
vn -0.772301 0.628626 -0.091542
vn -0.743678 0.657917 0.118693
vn -0.666059 0.739312 -0.098911
vn -0.754651 0.638905 -0.149336
vn -0.656102 0.667371 0.352344
vn -0.587825 0.760167 0.276782
vn -0.588626 0.747168 -0.308641
vn -0.676672 0.643003 -0.358694
vn -0.565038 0.774110 -0.285459
vn -0.461566 0.739021 -0.490720
vn -0.547376 0.638645 -0.540843
vn -0.278218 0.764800 -0.581098
vn -0.703643 0.629356 -0.329845
vn -0.741333 0.656749 -0.138226
vn -0.671087 0.677817 -0.300344
vn -0.667884 0.646155 -0.369344
vn -0.740334 0.666790 0.085419
vn -0.660100 0.746936 -0.079715
vn -0.582004 0.749023 -0.316599
vn -0.550403 0.659366 -0.512146
vn -0.627031 0.770533 -0.114508
vn -0.457462 0.759170 -0.463023
vn -0.500875 0.665932 -0.552864
vn -0.463776 0.850495 -0.248134
vn -0.675627 0.725786 -0.129474
vn -0.644429 0.761228 -0.072409
vn -0.618156 0.775332 -0.129396
vn -0.622493 0.736875 -0.263663
vn -0.623668 0.775931 0.094703
vn -0.540966 0.839452 -0.051723
vn -0.556061 0.783014 -0.278720
vn -0.589620 0.741863 -0.319354
vn -0.510946 0.852733 -0.108540
vn -0.465194 0.780670 -0.417312
vn -0.503170 0.740542 -0.445440
vn -0.447915 0.856622 -0.256068
vn -0.387051 0.652895 -0.651091
vn -0.525242 0.664079 -0.532090
vn -0.488229 0.726720 -0.483229
vn -0.367472 0.675372 -0.639404
vn -0.645785 0.656674 -0.389539
vn -0.642571 0.677893 -0.357161
vn -0.469829 0.754702 -0.457914
vn -0.324282 0.742422 -0.586217
vn -0.600684 0.739480 -0.303888
vn -0.461847 0.775884 -0.429768
vn -0.302158 0.766391 -0.566873
vn -0.592308 0.760608 -0.265795
vn 0.697164 0.622204 -0.356125
vn 0.401673 0.545014 -0.735947
vn 0.142953 0.627772 -0.765158
vn 0.547812 0.651211 -0.525191
vn 0.177986 0.512409 -0.840094
vn 0.113296 0.524386 -0.843910
vn -0.118971 0.638423 -0.760435
vn 0.104326 0.753729 -0.648852
vn -0.140903 0.530208 -0.836078
vn -0.528295 0.632385 -0.566563
vn -0.671102 0.661773 -0.334184
vn -0.385199 0.527582 -0.757152
vn -0.397184 0.530563 -0.748831
vn -0.398316 0.526677 -0.750970
vn -0.508443 0.671525 -0.539018
vn -0.462968 0.740371 -0.487352
vn -0.583667 0.525745 -0.618809
vn -0.518367 0.669863 -0.531582
vn -0.584005 0.529538 -0.615245
vn -0.473318 0.738458 -0.480261
vn -0.453238 0.764929 -0.457667
vn -0.461946 0.763326 -0.451596
vn -0.463499 0.758883 -0.457455
vn -0.455153 0.760483 -0.463142
vn -0.414541 0.839690 -0.350824
vn -0.129236 0.614244 -0.778462
vn -0.340146 0.615710 -0.710775
vn -0.344750 0.643743 -0.683185
vn -0.125075 0.642295 -0.756184
vn -0.545335 0.558272 -0.625254
vn -0.538527 0.625018 -0.565103
vn -0.355922 0.668901 -0.652603
vn -0.126151 0.668488 -0.732946
vn -0.552063 0.647196 -0.525704
vn -0.458217 0.749343 -0.478040
vn -0.116013 0.758722 -0.641000
vn -0.655751 0.663604 -0.360028
vn -0.648057 0.401702 0.647037
vn -0.428928 0.437548 0.790299
vn -0.602960 0.514660 0.609561
vn -0.789850 0.419381 0.447501
vn -0.141504 0.514975 0.845445
vn -0.362842 0.544052 0.756540
vn -0.747784 0.533967 0.394587
vn -0.815521 0.432690 0.384324
vn -0.536332 0.638714 0.551718
vn -0.828563 0.543014 0.136454
vn -0.887405 0.440468 0.136015
vn -0.744509 0.655831 0.124873
vn -0.751999 0.540114 0.377854
vn -0.718721 0.550033 0.425328
vn -0.719208 0.557483 0.414671
vn -0.752729 0.545885 0.367979
vn -0.643565 0.547277 0.535082
vn -0.640289 0.553407 0.532701
vn -0.720250 0.563230 0.404985
vn -0.753678 0.550833 0.358542
vn -0.637314 0.558750 0.530687
vn -0.723221 0.564234 0.398236
vn -0.755595 0.553335 0.350566
vn -0.635299 0.561676 0.530014
vn -0.906954 0.412128 -0.087095
vn -0.894845 0.412212 0.171270
vn -0.881664 0.440033 0.170412
vn -0.892793 0.438402 -0.103555
vn -0.816349 0.398693 0.417873
vn -0.798194 0.425234 0.426687
vn -0.839369 0.519919 0.158570
vn -0.848583 0.515244 -0.120126
vn -0.754101 0.504350 0.420670
vn -0.823042 0.547844 0.149897
vn -0.827605 0.542978 -0.142288
vn -0.614983 0.532212 0.581847
vn -0.597846 0.516025 0.613431
vn -0.567596 0.548444 0.614038
vn -0.600360 0.556037 0.574795
vn -0.628747 0.522387 0.576011
vn -0.358205 0.633500 0.685833
vn -0.538571 0.644176 0.543120
vn -0.696242 0.617851 0.365386
vn -0.754215 0.525609 0.393566
vn -0.674536 0.649343 0.351219
vn -0.757536 0.558318 0.338262
vn -0.775886 0.525041 0.349761
vn -0.750820 0.647631 0.129782
vn -0.747305 0.491291 0.447401
vn -0.623685 0.517260 0.586054
vn -0.638167 0.535019 0.553622
vn -0.759662 0.506882 0.407412
vn -0.574752 0.535827 0.618506
vn -0.590227 0.553487 0.587609
vn -0.733876 0.550245 0.398317
vn -0.770739 0.521017 0.366747
vn -0.578394 0.621509 0.528381
vn -0.746644 0.561705 0.356386
vn -0.781147 0.532807 0.325462
vn -0.678232 0.638119 0.364426
vn -0.625322 0.516102 0.585330
vn -0.589307 0.546659 0.594879
vn -0.617565 0.555820 0.556487
vn -0.651604 0.523765 0.548709
vn -0.548913 0.566969 0.614199
vn -0.558396 0.615448 0.556254
vn -0.706677 0.562560 0.429108
vn -0.732897 0.529693 0.426951
vn -0.584938 0.625039 0.516889
vn -0.730159 0.564110 0.385549
vn -0.755785 0.532161 0.381566
vn -0.678515 0.630453 0.377022
vn -0.842557 0.508160 0.178524
vn -0.790887 0.505067 0.345551
vn -0.772633 0.527299 0.353545
vn -0.828463 0.529757 0.181679
vn -0.767040 0.491206 0.412754
vn -0.748720 0.512150 0.420857
vn -0.753620 0.547720 0.363400
vn -0.814272 0.550226 0.184968
vn -0.727890 0.531769 0.432895
vn -0.734336 0.564144 0.377482
vn -0.770789 0.610471 0.182235
vn -0.637618 0.548649 0.540766
vn -0.356093 0.659142 -0.662367
vn -0.566725 0.624489 -0.537436
vn -0.702279 0.624613 -0.341560
vn -0.664575 0.662096 -0.346366
vn -0.738415 0.525301 -0.422850
vn -0.765113 0.522529 -0.376251
vn -0.824242 0.553834 -0.117872
vn -0.748485 0.654926 0.104122
vn -0.843785 0.515970 -0.147654
vn -0.831124 0.540178 0.132065
vn -0.687305 0.637038 0.348991
vn -0.857931 0.505355 0.092572
vn -0.844780 0.518311 0.133043
vn -0.847810 0.513703 0.131634
vn -0.761682 0.552138 0.339092
vn -0.756801 0.556579 0.342743
vn -0.847905 0.511385 0.139794
vn -0.760231 0.549196 0.347034
vn -0.844873 0.515998 0.141195
vn -0.755328 0.553632 0.350672
vn -0.711278 0.616392 0.337852
vn -0.710283 0.613685 0.344803
vn -0.745487 0.562230 0.357976
vn -0.715747 0.612231 0.335975
vn -0.694125 0.618854 0.367709
vn -0.842979 0.525710 -0.114087
vn -0.853639 0.510956 0.101117
vn -0.838448 0.529893 0.127354
vn -0.833404 0.545175 -0.090671
vn -0.879079 0.447036 0.165466
vn -0.842431 0.504847 0.188256
vn -0.821911 0.547049 0.158746
vn -0.781334 0.616817 0.095157
vn -0.774459 0.519898 0.360442
vn -0.752765 0.559951 0.346122
vn -0.761753 0.636056 0.123149
vn -0.749506 0.532658 0.393087
vn 0.114694 0.425848 -0.897496
vn -0.186547 0.434018 -0.881379
vn -0.357959 0.518645 -0.776449
vn 0.127003 0.509387 -0.851114
vn -0.461252 0.416739 -0.783311
vn -0.624865 0.442203 -0.643428
vn -0.374079 0.551710 -0.745441
vn 0.143739 0.542572 -0.827620
vn -0.627341 0.520767 -0.579004
vn -0.529516 0.645991 -0.549825
vn 0.347265 0.642217 -0.683348
vn -0.759135 0.540407 -0.362869
vn 0.363010 0.499813 -0.786391
vn -0.105225 0.522269 -0.846264
vn 0.118411 0.547192 -0.828589
vn 0.394535 0.520327 -0.757365
vn -0.382716 0.524813 -0.760329
vn -0.386398 0.548902 -0.741217
vn 0.134394 0.641208 -0.755507
vn 0.596060 0.537713 -0.596303
vn -0.530488 0.643276 -0.552067
vn 0.532720 0.660518 -0.529081
vn 0.749746 0.548034 -0.370863
vn -0.665756 0.664547 -0.339331
vn 0.567017 0.651849 -0.503572
vn 0.529074 0.658601 -0.535093
vn 0.525185 0.665471 -0.530404
vn 0.564571 0.657420 -0.499058
vn 0.492861 0.654006 -0.573903
vn 0.394042 0.659362 -0.640290
vn 0.522157 0.670848 -0.526607
vn 0.562429 0.662282 -0.495031
vn 0.386416 0.664150 -0.639990
vn 0.521733 0.672048 -0.525496
vn 0.561340 0.664998 -0.492620
vn 0.380125 0.666777 -0.641025
vn 0.845447 0.520910 -0.117780
vn 0.760038 0.521421 -0.387894
vn 0.741219 0.546551 -0.389714
vn 0.831551 0.545059 -0.106929
vn 0.602886 0.505667 -0.617114
vn 0.409527 0.528100 -0.743907
vn 0.557919 0.640045 -0.528269
vn 0.762151 0.637423 0.113218
vn 0.371279 0.547757 -0.749743
vn 0.527934 0.663363 -0.530316
vn 0.672303 0.660579 0.334132
vn 0.113743 0.633074 -0.765689
vn 0.141984 0.555269 -0.819462
vn -0.096199 0.639170 -0.763025
vn 0.117823 0.654227 -0.747065
vn 0.338266 0.629328 -0.699659
vn -0.332098 0.647458 -0.685937
vn -0.320295 0.664208 -0.675455
vn 0.330719 0.666214 -0.668419
vn 0.368183 0.638265 -0.676062
vn -0.100062 0.755910 -0.646984
vn 0.469089 0.746408 -0.472049
vn 0.549745 0.642334 -0.534030
vn 0.108594 0.770351 -0.628305
vn 0.558250 0.552561 -0.618897
vn 0.349477 0.623987 -0.698932
vn 0.361776 0.642641 -0.675374
vn 0.544284 0.622421 -0.562447
vn 0.135063 0.632876 -0.762382
vn 0.142448 0.652211 -0.744533
vn 0.373539 0.659747 -0.652075
vn 0.557254 0.637329 -0.532240
vn 0.315114 0.670609 -0.671555
vn 0.477458 0.738370 -0.476280
vn 0.668427 0.649779 -0.361929
vn 0.295709 0.755305 -0.584868
vn 0.376148 0.623046 -0.685803
vn 0.333689 0.647525 -0.685101
vn 0.359318 0.659216 -0.660549
vn 0.400468 0.633365 -0.662173
vn 0.152097 0.660950 -0.734855
vn 0.308939 0.673298 -0.671734
vn 0.496066 0.668901 -0.553615
vn 0.532353 0.640933 -0.552996
vn 0.308747 0.740409 -0.597051
vn 0.522037 0.672655 -0.524416
vn 0.556011 0.645411 -0.523733
vn 0.332188 0.750558 -0.571239
vn 0.703067 0.627399 -0.334763
vn 0.678441 0.623818 -0.388033
vn 0.573933 0.642985 -0.507121
vn 0.684811 0.646464 -0.336330
vn 0.594465 0.563083 -0.574063
vn 0.546238 0.626045 -0.556500
vn 0.549396 0.659920 -0.512513
vn 0.665230 0.664408 -0.340634
vn 0.520408 0.642333 -0.562657
vn 0.522130 0.673186 -0.523642
vn 0.591120 0.741199 -0.318122
vn 0.372797 0.655170 -0.657095
vn -0.360683 0.655392 0.663603
vn 0.109376 0.654057 0.748496
vn 0.295200 0.747669 0.594851
vn -0.479764 0.745836 0.462121
vn 0.360962 0.628117 0.689330
vn 0.547922 0.635980 0.543425
vn 0.646861 0.755160 0.106320
vn -0.650915 0.751431 -0.107987
vn 0.757870 0.637853 0.137029
vn 0.534135 0.658454 -0.530225
vn -0.346109 0.657480 -0.669275
vn 0.766978 0.630412 -0.119687
vn -0.538437 0.653971 0.531421
vn 0.338606 0.653079 0.677373
vn 0.479532 0.745187 -0.463406
vn 0.470022 0.749920 -0.465510
vn 0.538777 0.653621 -0.531507
vn 0.527567 0.668088 -0.524721
vn -0.672615 0.653166 -0.347798
vn 0.466258 0.745728 -0.475913
vn 0.474945 0.741558 -0.473834
vn 0.471840 0.738090 -0.482276
vn 0.525250 0.669836 -0.524817
vn 0.482675 0.737668 -0.472092
vn 0.523803 0.668129 -0.528427
vn 0.756579 0.644582 0.110012
vn 0.763544 0.632720 -0.129093
vn 0.688861 0.649527 -0.321847
vn 0.742863 0.662538 -0.095906
vn 0.748759 0.552450 -0.366276
vn 0.687157 0.625484 -0.369575
vn 0.663775 0.663318 -0.345561
vn 0.650670 0.751911 -0.106106
vn 0.555817 0.636983 -0.534153
vn 0.474812 0.742121 -0.473085
vn 0.571326 0.766267 -0.293974
vn 0.523610 0.645308 -0.556246
vn 0.379453 0.497310 0.780191
vn 0.616673 0.518679 0.592188
vn 0.590690 0.555622 0.585123
vn 0.161605 0.528149 0.833632
vn 0.846494 0.500658 0.181079
vn 0.835220 0.533274 0.134261
vn 0.521824 0.657115 0.543967
vn -0.101465 0.552050 0.827615
vn 0.771865 0.625482 -0.113999
vn 0.090091 0.765979 0.636521
vn -0.359903 0.624647 0.693026
vn 0.548136 0.644960 -0.532516
vn -0.125877 0.862633 0.489918
vn 0.025700 0.874974 0.483487
vn 0.028869 0.884188 0.466239
vn -0.187666 0.869938 0.456059
vn 0.121438 0.862810 0.490725
vn 0.183445 0.869766 0.458100
vn -0.027612 0.921699 0.386921
vn -0.198864 0.875573 0.440256
vn 0.192916 0.875421 0.443194
vn 0.024502 0.924912 0.379392
vn -0.209077 0.877956 0.430675
vn 0.202204 0.877867 0.434123
vn -0.612622 0.525503 0.590374
vn -0.361531 0.537494 0.761837
vn -0.330141 0.630305 0.702654
vn -0.722566 0.555450 0.411550
vn 0.077626 0.514933 0.853708
vn 0.129506 0.542429 0.830060
vn -0.134930 0.668400 0.731462
vn -0.690759 0.644562 0.327706
vn 0.344023 0.625714 0.700093
vn 0.078964 0.851752 0.517961
vn -0.738485 0.663217 -0.121586
vn 0.551394 0.641220 0.533669
vn 0.530360 0.639662 0.556372
vn 0.673858 0.655201 0.341507
vn 0.586768 0.747915 0.310365
vn 0.356082 0.662001 0.659515
vn 0.760476 0.642721 0.092658
vn 0.737687 0.668111 -0.097186
vn 0.450214 0.777588 0.438935
vn 0.124945 0.743163 0.657342
vn 0.637581 0.762040 -0.113071
vn 0.073755 0.866441 0.493802
vn -0.101934 0.750936 0.652461
vn 0.363549 0.853925 -0.372351
vn 0.119098 0.663123 0.738975
vn 0.313051 0.730131 0.607377
vn 0.277596 0.763777 0.582739
vn 0.069766 0.736934 0.672355
vn 0.532094 0.676280 0.509431
vn 0.474096 0.759420 0.445549
vn 0.103044 0.849759 0.517003
vn -0.105103 0.760451 0.640834
vn 0.460533 0.847890 0.262663
vn -0.062322 0.873125 0.483496
vn -0.284704 0.775368 0.563691
vn 0.333505 0.928235 0.164786
vn 0.260729 0.757209 0.598877
vn 0.396419 0.783291 0.478861
vn 0.247305 0.846310 0.471805
vn 0.127529 0.775876 0.617862
vn 0.473340 0.783574 0.402443
vn 0.385807 0.851797 0.354393
vn 0.108711 0.868160 0.484232
vn 0.060144 0.788861 0.611621
vn 0.335594 0.877538 0.342496
vn 0.039686 0.877414 0.478089
vn -0.089440 0.833374 0.545425
vn 0.161684 0.936804 0.310251
vn -0.438891 0.746969 0.499412
vn -0.269265 0.754337 0.598725
vn -0.239843 0.784716 0.571574
vn -0.422077 0.776894 0.467212
vn -0.087302 0.735915 0.671422
vn 0.043404 0.762422 0.645623
vn -0.097311 0.856044 0.507660
vn -0.355461 0.852931 0.382304
vn 0.093658 0.783509 0.614282
vn 0.043443 0.877072 0.478390
vn -0.261769 0.924081 0.278481
vn 0.219898 0.842501 0.491769
vn -0.107695 0.539015 -0.835383
vn -0.405607 0.551218 -0.729138
vn -0.525890 0.648166 -0.550746
vn 0.122860 0.627968 -0.768480
vn -0.755766 0.529612 -0.385135
vn -0.822086 0.550914 -0.143763
vn -0.574573 0.758841 -0.306638
vn 0.363717 0.649807 -0.667428
vn -0.763922 0.632953 0.125676
vn 0.091591 0.760467 0.642884
vn 0.749899 0.650435 -0.120775
vn -0.550408 0.633441 0.543878
vn 0.110292 0.646745 0.754690
vn -0.128613 0.642231 0.755644
vn -0.082242 0.861045 0.501834
vn 0.062702 0.865993 0.496110
vn 0.109118 0.638772 0.761619
vn 0.062504 0.857065 0.511402
vn 0.119077 0.642256 0.757184
vn 0.073610 0.861033 0.503194
vn 0.036657 0.927039 0.373168
vn 0.061171 0.873238 0.483439
vn 0.052220 0.870098 0.490104
vn -0.069799 0.873321 0.482119
vn 0.022247 0.919304 0.392919
vn -0.736378 0.662246 0.138481
vn -0.550904 0.667279 0.501243
vn -0.468097 0.758041 0.454157
vn -0.646266 0.755759 0.105685
vn -0.370766 0.649713 0.663630
vn -0.318629 0.673804 0.666681
vn -0.256828 0.851596 0.456972
vn -0.514760 0.854612 0.068269
vn -0.104514 0.752134 0.650670
vn 0.059281 0.870196 0.489126
vn -0.303694 0.938231 -0.165808
vn 0.105008 0.763595 0.637100
s 1
g pPlane224
f 1/1/1 2/2/2 5/5/3 4/4/4
f 2/2/2 3/3/5 6/6/6 5/5/3
f 4/4/4 5/5/3 8/8/7 7/7/8
f 5/5/3 6/6/6 9/9/9 8/8/7
f 7/7/8 8/8/7 11/11/10 10/10/11
f 8/8/7 9/9/9 12/12/12 11/11/10
s 2
f 13/13/13 14/14/14 17/15/15 16/16/16
f 14/14/14 15/17/17 18/18/18 17/15/15
f 16/16/16 17/15/15 20/19/19 19/20/20
f 17/15/15 18/18/18 21/21/21 20/19/19
f 19/20/20 20/19/19 23/22/22 22/23/23
f 20/19/19 21/21/21 24/24/24 23/22/22
s 3
f 25/25/25 26/26/26 29/27/27 28/28/28
f 26/26/26 27/29/29 30/30/30 29/27/27
f 28/28/28 29/27/27 32/31/31 31/32/32
f 29/27/27 30/30/30 33/33/33 32/31/31
f 31/32/32 32/31/31 35/34/34 34/35/35
f 32/31/31 33/33/33 36/36/36 35/34/34
s 4
f 37/37/37 38/38/38 41/39/39 40/40/40
f 38/38/38 39/41/41 42/42/42 41/39/39
f 40/40/40 41/39/39 44/43/43 43/44/44
f 41/39/39 42/42/42 45/45/45 44/43/43
f 43/44/44 44/43/43 47/46/46 46/47/47
f 44/43/43 45/45/45 48/48/48 47/46/46
s 5
f 49/49/49 50/50/50 53/51/51 52/52/52
f 50/50/50 51/53/53 54/54/54 53/51/51
f 52/52/52 53/51/51 56/55/55 55/56/56
f 53/51/51 54/54/54 57/57/57 56/55/55
f 55/56/56 56/55/55 59/58/58 58/59/59
f 56/55/55 57/57/57 60/60/60 59/58/58
s 6
f 61/61/61 62/62/62 65/63/63 64/64/64
f 62/62/62 63/65/65 66/66/66 65/63/63
f 64/64/64 65/63/63 68/67/67 67/68/68
f 65/63/63 66/66/66 69/69/69 68/67/67
f 67/68/68 68/67/67 71/70/70 70/71/71
f 68/67/67 69/69/69 72/72/72 71/70/70
s 7
f 73/73/73 74/74/74 77/75/75 76/76/76
f 74/74/74 75/77/77 78/78/78 77/75/75
f 76/76/76 77/75/75 80/79/79 79/80/80
f 77/75/75 78/78/78 81/81/81 80/79/79
f 79/80/80 80/79/79 83/82/82 82/83/83
f 80/79/79 81/81/81 84/84/84 83/82/82
s 8
f 85/85/85 86/86/86 89/87/87 88/88/88
f 86/86/86 87/89/89 90/90/90 89/87/87
f 88/88/88 89/87/87 92/91/91 91/92/92
f 89/87/87 90/90/90 93/93/93 92/91/91
f 91/92/92 92/91/91 95/94/94 94/95/95
f 92/91/91 93/93/93 96/96/96 95/94/94
s 9
f 97/97/97 98/98/98 105/99/99 102/100/100
f 98/98/98 99/101/101 104/102/102 105/99/99
f 99/101/101 100/103/103 103/104/104 104/102/102
f 100/103/103 97/105/97 102/106/100 103/104/104
f 103/104/104 102/106/100 106/107/105 107/108/106
f 104/102/102 103/104/104 107/108/106 108/109/107
f 105/99/99 104/102/102 108/109/107 109/110/108
f 102/100/100 105/99/99 109/110/108 106/111/105
f 107/108/106 106/107/105 101/112/109
f 108/109/107 107/108/106 101/112/109
f 109/110/108 108/109/107 101/112/109
f 106/111/105 109/110/108 101/112/109
s 10
f 110/113/110 111/114/111 114/115/112 113/116/113
f 111/114/111 112/117/114 115/118/115 114/115/112
f 113/116/113 114/115/112 117/119/116 116/120/117
f 114/115/112 115/118/115 118/121/118 117/119/116
f 116/120/117 117/119/116 120/122/119 119/123/120
f 117/119/116 118/121/118 121/124/121 120/122/119
s 11
f 122/125/122 123/126/123 126/127/124 125/128/125
f 123/126/123 124/129/126 127/130/127 126/127/124
f 125/128/125 126/127/124 129/131/128 128/132/129
f 126/127/124 127/130/127 130/133/130 129/131/128
f 128/132/129 129/131/128 132/134/131 131/135/132
f 129/131/128 130/133/130 133/136/133 132/134/131
s 12
f 134/137/134 135/138/135 138/139/136 137/140/137
f 135/138/135 136/141/138 139/142/139 138/139/136
f 137/140/137 138/139/136 141/143/140 140/144/141
f 138/139/136 139/142/139 142/145/142 141/143/140
f 140/144/141 141/143/140 144/146/143 143/147/144
f 141/143/140 142/145/142 145/148/145 144/146/143
s 13
f 146/149/146 147/150/147 150/151/148 149/152/149
f 147/150/147 148/153/150 151/154/151 150/151/148
f 149/152/149 150/151/148 153/155/152 152/156/153
f 150/151/148 151/154/151 154/157/154 153/155/152
f 152/156/153 153/155/152 156/158/155 155/159/156
f 153/155/152 154/157/154 157/160/157 156/158/155
s 14
f 158/161/158 159/162/159 162/163/160 161/164/161
f 159/162/159 160/165/162 163/166/163 162/163/160
f 161/164/161 162/163/160 165/167/164 164/168/165
f 162/163/160 163/166/163 166/169/166 165/167/164
f 164/168/165 165/167/164 168/170/167 167/171/168
f 165/167/164 166/169/166 169/172/169 168/170/167
s 15
f 170/173/170 171/174/171 174/175/172 173/176/173
f 171/174/171 172/177/174 175/178/175 174/175/172
f 173/176/173 174/175/172 177/179/176 176/180/177
f 174/175/172 175/178/175 178/181/178 177/179/176
f 176/180/177 177/179/176 180/182/179 179/183/180
f 177/179/176 178/181/178 181/184/181 180/182/179
s 16
f 182/185/182 183/186/183 186/187/184 185/188/185
f 183/186/183 184/189/186 187/190/187 186/187/184
f 185/188/185 186/187/184 189/191/188 188/192/189
f 186/187/184 187/190/187 190/193/190 189/191/188
f 188/192/189 189/191/188 192/194/191 191/195/192
f 189/191/188 190/193/190 193/196/193 192/194/191
s 17
f 194/197/194 195/198/195 198/199/196 197/200/197
f 195/198/195 196/201/198 199/202/199 198/199/196
f 197/200/197 198/199/196 201/203/200 200/204/201
f 198/199/196 199/202/199 202/205/202 201/203/200
f 200/204/201 201/203/200 204/206/203 203/207/204
f 201/203/200 202/205/202 205/208/205 204/206/203
s 18
f 206/209/206 207/210/207 210/211/208 209/212/209
f 207/210/207 208/213/210 211/214/211 210/211/208
f 209/212/209 210/211/208 213/215/212 212/216/213
f 210/211/208 211/214/211 214/217/214 213/215/212
f 212/216/213 213/215/212 216/218/215 215/219/216
f 213/215/212 214/217/214 217/220/217 216/218/215
s 19
f 218/221/218 219/222/219 226/223/220 223/224/221
f 219/222/219 220/225/222 225/226/223 226/223/220
f 220/225/222 221/227/224 224/228/225 225/226/223
f 221/227/224 218/229/218 223/230/221 224/228/225
f 224/228/225 223/230/221 227/231/226 228/232/227
f 225/226/223 224/228/225 228/232/227 229/233/228
f 226/223/220 225/226/223 229/233/228 230/234/229
f 223/224/221 226/223/220 230/234/229 227/235/226
f 228/232/227 227/231/226 222/236/230
f 229/233/228 228/232/227 222/236/230
f 230/234/229 229/233/228 222/236/230
f 227/235/226 230/234/229 222/236/230
s 20
f 231/237/231 232/238/232 235/239/233 234/240/234
f 232/238/232 233/241/235 236/242/236 235/239/233
f 234/240/234 235/239/233 238/243/237 237/244/238
f 235/239/233 236/242/236 239/245/239 238/243/237
f 237/244/238 238/243/237 241/246/240 240/247/241
f 238/243/237 239/245/239 242/248/242 241/246/240
s 21
f 243/249/243 244/250/244 247/251/245 246/252/246
f 244/250/244 245/253/247 248/254/248 247/251/245
f 246/252/246 247/251/245 250/255/249 249/256/250
f 247/251/245 248/254/248 251/257/251 250/255/249
f 249/256/250 250/255/249 253/258/252 252/259/253
f 250/255/249 251/257/251 254/260/254 253/258/252
s 22
f 255/261/255 256/262/256 259/263/257 258/264/258
f 256/262/256 257/265/259 260/266/260 259/263/257
f 258/264/258 259/263/257 262/267/261 261/268/262
f 259/263/257 260/266/260 263/269/263 262/267/261
f 261/268/262 262/267/261 265/270/264 264/271/265
f 262/267/261 263/269/263 266/272/266 265/270/264
s 23
f 267/273/267 268/274/268 271/275/269 270/276/270
f 268/274/268 269/277/271 272/278/272 271/275/269
f 270/276/270 271/275/269 274/279/273 273/280/274
f 271/275/269 272/278/272 275/281/275 274/279/273
f 273/280/274 274/279/273 277/282/276 276/283/277
f 274/279/273 275/281/275 278/284/278 277/282/276
s 24
f 279/285/279 280/286/280 283/287/281 282/288/282
f 280/286/280 281/289/283 284/290/284 283/287/281
f 282/288/282 283/287/281 286/291/285 285/292/286
f 283/287/281 284/290/284 287/293/287 286/291/285
f 285/292/286 286/291/285 289/294/288 288/295/289
f 286/291/285 287/293/287 290/296/290 289/294/288
s 25
f 291/297/291 292/298/292 295/299/293 294/300/294
f 292/298/292 293/301/295 296/302/296 295/299/293
f 294/300/294 295/299/293 298/303/297 297/304/298
f 295/299/293 296/302/296 299/305/299 298/303/297
f 297/304/298 298/303/297 301/306/300 300/307/301
f 298/303/297 299/305/299 302/308/302 301/306/300
s 26
f 303/309/303 304/310/304 307/311/305 306/312/306
f 304/310/304 305/313/307 308/314/308 307/311/305
f 306/312/306 307/311/305 310/315/309 309/316/310
f 307/311/305 308/314/308 311/317/311 310/315/309
f 309/316/310 310/315/309 313/318/312 312/319/313
f 310/315/309 311/317/311 314/320/314 313/318/312
s 27
f 315/321/315 316/322/316 319/323/317 318/324/318
f 316/322/316 317/325/319 320/326/320 319/323/317
f 318/324/318 319/323/317 322/327/321 321/328/322
f 319/323/317 320/326/320 323/329/323 322/327/321
f 321/328/322 322/327/321 325/330/324 324/331/325
f 322/327/321 323/329/323 326/332/326 325/330/324
s 28
f 327/333/327 328/334/328 331/335/329 330/336/330
f 328/334/328 329/337/331 332/338/332 331/335/329
f 330/336/330 331/335/329 334/339/333 333/340/334
f 331/335/329 332/338/332 335/341/335 334/339/333
f 333/340/334 334/339/333 337/342/336 336/343/337
f 334/339/333 335/341/335 338/344/338 337/342/336
s 29
f 339/345/339 340/346/340 343/347/341 342/348/342
f 340/346/340 341/349/343 344/350/344 343/347/341
f 342/348/342 343/347/341 346/351/345 345/352/346
f 343/347/341 344/350/344 347/353/347 346/351/345
f 345/352/346 346/351/345 349/354/348 348/355/349
f 346/351/345 347/353/347 350/356/350 349/354/348
s 30
f 351/357/351 352/358/352 359/359/353 356/360/354
f 352/358/352 353/361/355 358/362/356 359/359/353
f 353/361/355 354/363/357 357/364/358 358/362/356
f 354/363/357 351/365/351 356/366/354 357/364/358
f 357/364/358 356/366/354 360/367/359 361/368/360
f 358/362/356 357/364/358 361/368/360 362/369/361
f 359/359/353 358/362/356 362/369/361 363/370/362
f 356/360/354 359/359/353 363/370/362 360/371/359
f 361/368/360 360/367/359 355/372/363
f 362/369/361 361/368/360 355/372/363
f 363/370/362 362/369/361 355/372/363
f 360/371/359 363/370/362 355/372/363
s 31
f 364/373/364 365/374/365 368/375/366 367/376/367
f 365/374/365 366/377/368 369/378/369 368/375/366
f 367/376/367 368/375/366 371/379/370 370/380/371
f 368/375/366 369/378/369 372/381/372 371/379/370
f 370/380/371 371/379/370 374/382/373 373/383/374
f 371/379/370 372/381/372 375/384/375 374/382/373
s 32
f 376/385/376 377/386/377 380/387/378 379/388/379
f 377/386/377 378/389/380 381/390/381 380/387/378
f 379/388/379 380/387/378 383/391/382 382/392/383
f 380/387/378 381/390/381 384/393/384 383/391/382
f 382/392/383 383/391/382 386/394/385 385/395/386
f 383/391/382 384/393/384 387/396/387 386/394/385
s 33
f 388/397/388 389/398/389 392/399/390 391/400/391
f 389/398/389 390/401/392 393/402/393 392/399/390
f 391/400/391 392/399/390 395/403/394 394/404/395
f 392/399/390 393/402/393 396/405/396 395/403/394
f 394/404/395 395/403/394 398/406/397 397/407/398
f 395/403/394 396/405/396 399/408/399 398/406/397
s 34
f 400/409/400 401/410/401 404/411/402 403/412/403
f 401/410/401 402/413/404 405/414/405 404/411/402
f 403/412/403 404/411/402 407/415/406 406/416/407
f 404/411/402 405/414/405 408/417/408 407/415/406
f 406/416/407 407/415/406 410/418/409 409/419/410
f 407/415/406 408/417/408 411/420/411 410/418/409
s 35
f 412/421/412 413/422/413 416/423/414 415/424/415
f 413/422/413 414/425/416 417/426/417 416/423/414
f 415/424/415 416/423/414 419/427/418 418/428/419
f 416/423/414 417/426/417 420/429/420 419/427/418
f 418/428/419 419/427/418 422/430/421 421/431/422
f 419/427/418 420/429/420 423/432/423 422/430/421
s 36
f 424/433/424 425/434/425 428/435/426 427/436/427
f 425/434/425 426/437/428 429/438/429 428/435/426
f 427/436/427 428/435/426 431/439/430 430/440/431
f 428/435/426 429/438/429 432/441/432 431/439/430
f 430/440/431 431/439/430 434/442/433 433/443/434
f 431/439/430 432/441/432 435/444/435 434/442/433
s 37
f 436/445/436 437/446/437 440/447/438 439/448/439
f 437/446/437 438/449/440 441/450/441 440/447/438
f 439/448/439 440/447/438 443/451/442 442/452/443
f 440/447/438 441/450/441 444/453/444 443/451/442
f 442/452/443 443/451/442 446/454/445 445/455/446
f 443/451/442 444/453/444 447/456/447 446/454/445
s 38
f 448/457/448 449/458/449 452/459/450 451/460/451
f 449/458/449 450/461/452 453/462/453 452/459/450
f 451/460/451 452/459/450 455/463/454 454/464/455
f 452/459/450 453/462/453 456/465/456 455/463/454
f 454/464/455 455/463/454 458/466/457 457/467/458
f 455/463/454 456/465/456 459/468/459 458/466/457
s 39
f 460/469/460 461/470/461 464/471/462 463/472/463
f 461/470/461 462/473/464 465/474/465 464/471/462
f 463/472/463 464/471/462 467/475/466 466/476/467
f 464/471/462 465/474/465 468/477/468 467/475/466
f 466/476/467 467/475/466 470/478/469 469/479/470
f 467/475/466 468/477/468 471/480/471 470/478/469
s 40
f 472/481/472 473/482/473 480/483/474 477/484/475
f 473/482/473 474/485/476 479/486/477 480/483/474
f 474/485/476 475/487/478 478/488/479 479/486/477
f 475/487/478 472/489/472 477/490/475 478/488/479
f 478/488/479 477/490/475 481/491/480 482/492/481
f 479/486/477 478/488/479 482/492/481 483/493/482
f 480/483/474 479/486/477 483/493/482 484/494/483
f 477/484/475 480/483/474 484/494/483 481/495/480
f 482/492/481 481/491/480 476/496/484
f 483/493/482 482/492/481 476/496/484
f 484/494/483 483/493/482 476/496/484
f 481/495/480 484/494/483 476/496/484
s 41
f 485/497/485 486/498/486 489/499/487 488/500/488
f 486/498/486 487/501/489 490/502/490 489/499/487
f 488/500/488 489/499/487 492/503/491 491/504/492
f 489/499/487 490/502/490 493/505/493 492/503/491
f 491/504/492 492/503/491 495/506/494 494/507/495
f 492/503/491 493/505/493 496/508/496 495/506/494
