# This file uses centimeters as units for non-parametric coordinates.

v 0.977975 0.460668 -1.004500
v -0.927598 0.911321 -0.637223
v 0.927598 -0.450908 0.637223
v -0.977975 -0.000255 1.004500
v 0.548205 1.056960 0.769622
v -0.887950 0.933383 -0.652744
v 0.887950 -0.472970 0.652744
v -0.548205 -0.596547 -0.769622
v 0.388336 0.751470 1.201128
v -1.326893 0.634540 0.130440
v 1.326893 -0.174127 -0.130440
v -0.388336 -0.291057 -1.201128
v 0.368866 0.777897 1.187176
v -0.835660 1.069399 -0.399073
v 0.835660 -0.608986 0.399073
v -0.368866 -0.317483 -1.187176
v 0.785284 0.916994 0.797882
v -0.924724 0.111016 1.084683
v 0.924724 0.349397 -1.084683
v -0.785284 -0.456581 -0.797882
v 1.118965 0.901211 -0.194080
v -0.867062 0.979695 -0.590139
v 0.867062 -0.519282 0.590139
v -1.118965 -0.440798 0.194080
v 0.756483 1.098594 0.447769
v -1.096228 0.891748 -0.330891
v 1.096228 -0.431335 0.330891
v -0.756483 -0.638181 -0.447769
v -0.912582 0.872266 0.722226
v 0.841556 0.167645 1.157993
v -0.841556 0.292768 -1.157993
v 0.912582 -0.411853 -0.722226
v -1.013860 0.230207 1.013860
v 1.013860 0.230207 1.013860
v -1.013860 0.230207 -1.013860
v 1.013860 0.230207 -1.013860
v 0.772381 1.124285 0.314880
v 0.225298 -0.157911 1.322409
v -0.225298 0.618324 -1.322409
v -0.772381 -0.663872 -0.314880
v 0.431345 -0.032224 -1.323853
v -0.979576 0.913413 -0.549605
v 0.979576 -0.453000 0.549605
v -0.431345 0.492637 1.323853
v -0.657425 -0.572091 0.726926
v -1.105288 0.901289 0.260592
v 1.105288 -0.440876 -0.260592
v 0.657425 1.032504 -0.726926
v -0.678704 -0.639407 -0.555427
v -0.912621 0.902039 -0.674523
v 0.912621 -0.441626 0.674523
v 0.678704 1.099820 0.555427
v -0.678704 -0.639407 -0.555427
v -0.912621 0.902039 -0.674523
v 0.912621 -0.441626 0.674523
v 0.678704 1.099820 0.555427
v -0.832985 -0.609684 0.402156
v -1.066901 0.931763 0.283060
v 1.066901 -0.471350 -0.283060
v 0.832985 1.070097 -0.402156
v 0.260747 1.310900 0.026651
v 0.967169 0.077986 1.039704
v -0.967169 0.382427 -1.039704
v -0.260747 -0.850487 -0.026651
v -0.174190 1.304243 0.250526
v 1.171179 0.228449 0.827139
v -1.171179 0.231964 -0.827139
v 0.174190 -0.843830 -0.250526
vt 0.222451 0.175365
vt 0.777549 0.175365
vt 0.222451 0.839686
vt 0.777549 0.839686
vt 0.222451 0.175365
vt 0.777549 0.175365
vt 0.777549 0.839686
vt 0.222451 0.839686
vt 0.222451 0.175365
vt 0.777549 0.175365
vt 0.777549 0.839686
vt 0.222451 0.839686
vt 0.222451 0.175365
vt 0.777549 0.175365
vt 0.777549 0.839686
vt 0.222451 0.839686
vt 0.222451 0.175365
vt 0.777549 0.175365
vt 0.777549 0.839686
vt 0.222451 0.839686
vt 0.222451 0.175365
vt 0.777549 0.175365
vt 0.777549 0.839686
vt 0.222451 0.839686
vt 0.222451 0.175365
vt 0.777549 0.175365
vt 0.777549 0.839686
vt 0.222451 0.839686
vt 0.222451 0.175365
vt 0.777549 0.175365
vt 0.777549 0.839686
vt 0.222451 0.839686
vt 0.222451 0.175365
vt 0.777549 0.175365
vt 0.777549 0.839686
vt 0.222451 0.839686
vt 0.222451 0.175365
vt 0.777549 0.175365
vt 0.777549 0.839686
vt 0.222451 0.839686
vt 0.222451 0.175365
vt 0.777549 0.175365
vt 0.777549 0.839686
vt 0.222451 0.839686
vt 0.222451 0.175365
vt 0.777549 0.175365
vt 0.777549 0.839686
vt 0.222451 0.839686
vt 0.222451 0.175365
vt 0.777549 0.175365
vt 0.777549 0.839686
vt 0.222451 0.839686
vt 0.222451 0.175365
vt 0.777549 0.175365
vt 0.777549 0.839686
vt 0.222451 0.839686
vt 0.222451 0.175365
vt 0.777549 0.175365
vt 0.777549 0.839686
vt 0.222451 0.839686
vt 0.222451 0.175365
vt 0.777549 0.175365
vt 0.777549 0.839686
vt 0.222451 0.839686
vt 0.222451 0.175365
vt 0.777549 0.175365
vt 0.777549 0.839686
vt 0.222451 0.839686
vn 0.288002 0.833448 0.471614
vn 0.288002 0.833448 0.471614
vn 0.288002 0.833448 0.471614
vn 0.288002 0.833448 0.471614
vn -0.679827 -0.204764 0.704207
vn -0.679827 -0.204764 0.704207
vn -0.679827 -0.204764 0.704207
vn -0.679827 -0.204764 0.704207
vn -0.220164 -0.866829 0.447366
vn -0.220164 -0.866829 0.447366
vn -0.220164 -0.866829 0.447366
vn -0.220164 -0.866829 0.447366
vn -0.728836 -0.506876 0.460298
vn -0.728836 -0.506876 0.460298
vn -0.728836 -0.506876 0.460298
vn -0.728836 -0.506877 0.460298
vn 0.447382 -0.846573 0.288381
vn 0.447382 -0.846573 0.288381
vn 0.447382 -0.846573 0.288381
vn 0.447382 -0.846573 0.288381
vn -0.150606 0.498135 0.853920
vn -0.150606 0.498135 0.853920
vn -0.150606 0.498135 0.853920
vn -0.150606 0.498135 0.853920
vn -0.368497 -0.151895 0.917136
vn -0.368497 -0.151895 0.917136
vn -0.368497 -0.151895 0.917136
vn -0.368497 -0.151895 0.917136
vn 0.414164 0.874113 -0.253763
vn 0.414164 0.874112 -0.253763
vn 0.414164 0.874113 -0.253763
vn 0.414164 0.874112 -0.253763
vn 0.000000 1.000000 0.000000
vn 0.000000 1.000000 0.000000
vn 0.000000 1.000000 0.000000
vn 0.000000 1.000000 0.000000
vn 0.771877 -0.562371 -0.296555
vn 0.771877 -0.562371 -0.296555
vn 0.771877 -0.562371 -0.296555
vn 0.771877 -0.562371 -0.296555
vn 0.564274 0.825339 0.020246
vn 0.564274 0.825339 0.020246
vn 0.564274 0.825339 0.020246
vn 0.564274 0.825339 0.020246
vn -0.428204 -0.388415 -0.815951
vn -0.428204 -0.388414 -0.815951
vn -0.428204 -0.388415 -0.815951
vn -0.428204 -0.388414 -0.815951
vn 0.608815 0.031143 -0.792701
vn 0.608815 0.031143 -0.792701
vn 0.608815 0.031143 -0.792701
vn 0.608815 0.031143 -0.792701
vn 0.608815 0.031143 -0.792701
vn 0.608815 0.031143 -0.792701
vn 0.608815 0.031143 -0.792701
vn 0.608815 0.031143 -0.792701
vn -0.328837 -0.122253 -0.936440
vn -0.328837 -0.122253 -0.936440
vn -0.328837 -0.122253 -0.936440
vn -0.328837 -0.122253 -0.936440
vn 0.711940 -0.154884 -0.684947
vn 0.711940 -0.154884 -0.684947
vn 0.711940 -0.154884 -0.684947
vn 0.711940 -0.154884 -0.684947
vn 0.555196 0.273277 -0.785543
vn 0.555196 0.273277 -0.785543
vn 0.555196 0.273277 -0.785543
vn 0.555196 0.273277 -0.785543
s off
f 1/1/1 2/2/2 4/4/3 3/3/4
f 5/5/5 6/6/6 8/7/7 7/8/8
f 9/9/9 10/10/10 12/11/11 11/12/12
f 13/13/13 14/14/14 16/15/15 15/16/16
f 17/17/17 18/18/18 20/19/19 19/20/20
f 21/21/21 22/22/22 24/23/23 23/24/24
f 25/25/25 26/26/26 28/27/27 27/28/28
f 29/29/29 30/30/30 32/31/31 31/32/32
f 33/33/33 34/34/34 36/35/35 35/36/36
f 37/37/37 38/38/38 40/39/39 39/40/40
f 41/41/41 42/42/42 44/43/43 43/44/44
f 45/45/45 46/46/46 48/47/47 47/48/48
f 49/49/49 50/50/50 52/51/51 51/52/52
f 53/53/53 54/54/54 56/55/55 55/56/56
f 57/57/57 58/58/58 60/59/59 59/60/60
f 61/61/61 62/62/62 64/63/63 63/64/64
f 65/65/65 66/66/66 68/67/67 67/68/68
