# This file uses centimeters as units for non-parametric coordinates.

mtllib stemplane.mtl
g default
v -1.663109 -1.637723 0.715539
v 1.663109 -1.637723 0.715539
v -1.663109 1.637724 -0.715539
v 1.663109 1.637724 -0.715539
v -1.663109 0.076158 0.552171
v 1.663109 0.076158 0.552171
v 0.000000 -1.637723 0.715539
v 0.000000 0.076158 0.552171
v 0.000000 1.637724 -0.715539
v -1.663109 0.873599 0.082399
v 0.000000 0.873599 0.082399
v 1.663109 0.873599 0.082399
v -1.663109 -0.639858 0.715539
v 0.000000 -0.639858 0.715539
v 1.663109 -0.639858 0.715539
vt 0.000000 0.000000
vt 1.000000 0.000000
vt 0.000000 1.000000
vt 1.000000 1.000000
vt 0.000000 0.500000
vt 1.000000 0.500000
vt 0.500000 0.000000
vt 0.500000 0.500000
vt 0.500000 1.000000
vt 0.000000 0.750000
vt 0.500000 0.750000
vt 1.000000 0.750000
vt 0.000000 0.300000
vt 0.500000 0.300000
vt 1.000000 0.300000
vn 0.000000 0.630274 0.776373
vn 0.000000 0.630274 0.776373
vn 0.000000 0.722244 0.691638
vn 0.000000 0.722244 0.691638
vn 0.000000 0.094890 0.995488
vn 0.000000 0.094890 0.995488
vn 0.000000 0.385931 0.922528
vn 0.000000 0.385931 0.922528
vn 0.000000 0.630274 0.776373
vn 0.000000 0.722244 0.691638
vn -0.000000 0.094890 0.995488
vn 0.000000 0.385931 0.922528
vn 0.000000 0.000000 1.000000
vn -0.000000 0.000000 1.000000
vn 0.000000 0.000000 1.000000
s 1
g pPlane30
usemtl lambert8SG
f 10/10/1 11/11/2 9/9/3 3/3/4
f 14/14/5 15/15/6 6/6/7 8/8/8
f 9/9/3 11/11/2 12/12/9 4/4/10
f 13/13/11 14/14/5 8/8/8 5/5/12
f 5/5/12 8/8/8 11/11/2 10/10/1
f 12/12/9 11/11/2 8/8/8 6/6/7
f 7/7/13 14/14/5 13/13/11 1/1/14
f 2/2/15 15/15/6 14/14/5 7/7/13
