# This file uses centimeters as units for non-parametric coordinates.

g default
v 0.564239 0.286379 -2.452163
v -0.641543 0.286379 -2.124552
v -0.641543 0.286379 -1.064378
v 0.564239 0.286379 -0.736766
v 1.309453 0.286379 -1.594465
v 0.208795 -0.132417 -1.594465
v 0.660238 0.807875 -2.791090
v -1.048200 0.807875 -2.334020
v -1.048200 0.807875 -0.854910
v 0.660238 0.807875 -0.397839
v 1.716111 0.807875 -1.594465
v -0.468792 0.361067 -1.850510
v -0.737656 0.902643 -1.989141
v 2.631615 -0.092620 -0.398969
v 2.199416 -0.092620 -0.614022
v 1.861331 -0.092620 -0.269432
v 2.084582 -0.092620 0.158590
v 2.560644 -0.092620 0.078532
v 2.257717 -0.132417 -0.218676
v 2.857163 -0.011936 -0.544840
v 2.134931 -0.011936 -0.904207
v 1.569970 -0.011936 -0.328374
v 1.943038 -0.011936 0.386878
v 2.738567 -0.011936 0.253095
v -0.065728 0.018948 1.583121
v -0.165650 0.018948 2.263027
v 0.303622 0.018948 2.765064
v 0.988717 0.018948 2.711187
v 1.373743 0.018948 2.141967
v 1.168769 0.018948 1.486038
v 0.528145 0.018948 1.237328
v 0.591625 -0.033888 2.044542
v -0.519091 0.171745 1.302163
v -0.688398 0.171745 2.454195
v 0.106736 0.171745 3.304846
v 1.181909 0.171745 3.089591
v 1.919949 0.171745 2.249071
v 1.572641 0.171745 1.137666
v 0.487166 0.171745 0.716251
v -0.690879 0.343829 1.195702
v -0.886478 0.343829 2.526633
v 0.032132 0.343829 3.509380
v 1.287568 0.343829 3.279949
v 2.126916 0.343829 2.289655
v 1.725676 0.343829 1.005660
v 0.471639 0.343829 0.518805
v -0.742079 0.516826 1.163972
v -0.945514 0.516826 2.548223
v 0.009897 0.516826 3.570340
v 1.319059 0.516826 3.336683
v 2.188602 0.516826 2.301751
v 1.771287 0.516826 0.966317
v 0.467011 0.516826 0.459958
v -1.745016 -0.069935 -0.173513
v -2.465831 -0.069935 0.060694
v -2.465831 -0.069935 0.818604
v -1.745016 -0.069935 1.052811
v -1.299528 -0.069935 0.439649
v -1.965800 -0.132417 0.439649
v -1.652635 0.056739 -0.584984
v -2.857163 0.056739 -0.193609
v -2.857163 0.056739 1.072907
v -1.652635 0.056739 1.464282
v -0.908196 0.056739 0.439649
v 0.782769 -0.075916 -2.376296
v -0.063241 -0.075916 -2.569393
v -0.741690 -0.075916 -2.028348
v -0.741690 -0.075916 -1.160581
v -0.063242 -0.075916 -0.619537
v 0.782769 -0.075916 -0.812633
v 1.159279 -0.075916 -1.594465
v 0.136831 -0.142634 -1.594465
v 1.181337 0.117027 -2.919199
v -0.252144 0.117027 -3.246382
v -1.401706 0.117027 -2.329637
v -1.237170 0.117027 -0.954841
v -0.252144 0.117027 0.057453
v 1.181337 0.117027 -0.269730
v 1.819296 0.117027 -1.594465
v 1.332362 0.334324 -3.124916
v -0.323722 0.334324 -3.502907
v -1.651799 0.334324 -2.443801
v -1.487263 0.334324 -0.840677
v -0.323722 0.334324 0.313977
v 1.332362 0.334324 -0.064013
v 2.069389 0.334324 -1.594465
v 1.377374 0.552775 -3.186229
v -0.345056 0.552775 -3.579362
v -1.726337 0.552775 -2.477827
v -1.561802 0.552775 -0.806651
v -0.345056 0.552775 0.390433
v 1.377374 0.552775 -0.002701
v 2.143927 0.552775 -1.594465
v -0.112056 0.305860 1.821444
v 0.221453 0.305860 2.753057
v 1.058451 0.305860 2.687234
v 1.242234 0.305860 1.714941
v 0.518821 0.305860 1.179852
v 0.587157 -0.025797 2.048812
v -0.385596 0.718847 1.766697
v 0.081328 0.718847 3.087115
v 1.249072 0.718847 2.995281
v 1.503853 0.718847 1.618108
v 0.493573 0.718847 0.858800
v 0.427080 0.365007 2.599658
v 0.334326 0.793896 2.820530
vt 0.452616 0.420183
vt 0.426165 0.369271
vt 0.472206 0.373325
vt 0.465296 0.322686
vt 0.515931 0.344808
vt 0.508094 0.405064
vt 0.435809 0.454015
vt 0.391608 0.368938
vt 0.456998 0.291092
vt 0.541613 0.328058
vt 0.528518 0.428750
vt 0.478397 0.428523
vt 0.481465 0.455812
vt 0.483552 0.611105
vt 0.427337 0.561937
vt 0.487068 0.549479
vt 0.456362 0.496753
vt 0.530515 0.505635
vt 0.547320 0.576308
vt 0.476149 0.650213
vt 0.382210 0.568051
vt 0.430712 0.459124
vt 0.554627 0.473966
vt 0.582708 0.592065
vt 0.319461 0.511333
vt 0.262018 0.527298
vt 0.274971 0.459912
vt 0.216143 0.489720
vt 0.216229 0.430178
vt 0.261457 0.393325
vt 0.318053 0.405522
vt 0.343771 0.457572
vt 0.349062 0.547982
vt 0.248922 0.576864
vt 0.169695 0.509168
vt 0.170390 0.408316
vt 0.248039 0.345578
vt 0.345626 0.366497
vt 0.390370 0.455892
vt 0.364002 0.565535
vt 0.242693 0.600875
vt 0.147517 0.517929
vt 0.148458 0.397913
vt 0.241615 0.322570
vt 0.359141 0.347479
vt 0.413564 0.455034
vt 0.374033 0.576513
vt 0.246984 0.615507
vt 0.232308 0.612516
vt 0.133816 0.523413
vt 0.134906 0.391322
vt 0.237899 0.307974
vt 0.368055 0.335368
vt 0.428957 0.454437
vt 0.483552 0.611105
vt 0.427337 0.561937
vt 0.487068 0.549479
vt 0.456362 0.496753
vt 0.530515 0.505635
vt 0.547320 0.576308
vt 0.476149 0.650213
vt 0.382210 0.568051
vt 0.430712 0.459124
vt 0.554627 0.473966
vt 0.582708 0.592065
vt 0.319461 0.511333
vt 0.262018 0.527298
vt 0.274971 0.459912
vt 0.216143 0.489720
vt 0.216229 0.430178
vt 0.261457 0.393325
vt 0.318053 0.405522
vt 0.343771 0.457572
vt 0.349062 0.547982
vt 0.248922 0.576864
vt 0.169695 0.509168
vt 0.170390 0.408316
vt 0.248039 0.345578
vt 0.345626 0.366497
vt 0.390370 0.455892
vt 0.364002 0.565535
vt 0.242693 0.600875
vt 0.147517 0.517929
vt 0.148458 0.397913
vt 0.241615 0.322570
vt 0.359141 0.347479
vt 0.413564 0.455034
vt 0.374033 0.576513
vt 0.246984 0.615507
vt 0.232308 0.612516
vt 0.133816 0.523413
vt 0.134906 0.391322
vt 0.237899 0.307974
vt 0.368055 0.335368
vt 0.428957 0.454437
vt 0.452616 0.420183
vt 0.426165 0.369271
vt 0.472206 0.373325
vt 0.465296 0.322686
vt 0.515931 0.344808
vt 0.508094 0.405064
vt 0.435809 0.454015
vt 0.391608 0.368938
vt 0.456998 0.291092
vt 0.541613 0.328058
vt 0.528518 0.428750
vt 0.478397 0.428523
vt 0.481465 0.455812
vn 0.714574 0.699560 0.000000
vn 0.506732 0.725676 -0.465422
vn 0.055962 0.998428 -0.003190
vn -0.198554 0.679613 -0.706188
vn -0.701844 0.712331 -0.000000
vn -0.098036 0.670770 0.735157
vn 0.788582 0.614929 0.000000
vn 0.602265 0.652037 -0.460570
vn -0.211254 0.564667 -0.797824
vn -0.793541 0.608516 -0.000000
vn -0.119415 0.564114 0.817016
vn 0.458126 0.506378 0.730549
vn 0.474894 0.423718 0.771323
vn -0.226980 0.967648 0.110169
vn 0.035060 0.972163 0.231667
vn 0.001323 0.999998 0.001298
vn 0.232293 0.972163 0.030639
vn 0.105823 0.967648 -0.229038
vn -0.188384 0.964547 -0.184827
vn -0.245951 0.957695 0.149427
vn 0.052981 0.965075 0.256560
vn 0.257523 0.965075 0.048081
vn 0.144712 0.957695 -0.248754
vn -0.219830 0.951397 -0.215680
vn 0.187567 0.973696 0.129359
vn 0.212521 0.975066 -0.063884
vn -0.000063 1.000000 -0.000797
vn 0.076993 0.974599 -0.210305
vn -0.126474 0.968953 -0.212448
vn -0.226279 0.973346 -0.037367
vn -0.165041 0.973697 0.157088
vn 0.018074 0.973063 0.229829
vn 0.397774 0.877013 0.269489
vn 0.444275 0.885143 -0.138351
vn 0.151563 0.886202 -0.437807
vn -0.242324 0.875047 -0.419013
vn -0.467512 0.879413 -0.089808
vn -0.350758 0.877013 0.328354
vn 0.038223 0.873099 0.486043
vn 0.687722 0.559393 0.462729
vn 0.780328 0.574796 -0.246369
vn 0.265377 0.590724 -0.761984
vn -0.410522 0.576778 -0.706257
vn -0.799826 0.580063 -0.154289
vn -0.606936 0.559393 0.564543
vn 0.065360 0.552253 0.831111
vn 0.784426 0.328633 0.526000
vn 0.895771 0.341237 -0.284872
vn 0.309405 0.358184 -0.880893
vn -0.472563 0.337022 -0.814310
vn -0.920403 0.349145 -0.175944
vn -0.692561 0.328633 0.642152
vn 0.074199 0.322933 0.943509
vn -0.084866 0.967648 0.237602
vn 0.187271 0.972163 0.140813
vn 0.001854 0.999998 0.000000
vn 0.187271 0.972163 -0.140813
vn -0.084866 0.967648 -0.237602
vn -0.263912 0.964547 -0.000000
vn -0.070914 0.957695 0.278911
vn 0.217497 0.965075 0.146032
vn 0.217497 0.965075 -0.146032
vn -0.070914 0.957695 -0.278911
vn -0.307966 0.951397 -0.000000
vn -0.143666 0.973697 0.176848
vn 0.047026 0.975066 0.216875
vn 0.000800 1.000000 -0.000000
vn 0.203622 0.974599 0.093244
vn 0.221710 0.968953 -0.109429
vn 0.054992 0.973346 -0.222653
vn -0.143666 0.973697 -0.176848
vn -0.230538 0.973063 0.000000
vn -0.299844 0.877013 0.375422
vn 0.103095 0.885143 0.453754
vn 0.424577 0.886202 0.185421
vn 0.436721 0.875047 -0.208728
vn 0.126185 0.879413 -0.459033
vn -0.299844 0.877013 -0.375422
vn -0.487544 0.873099 0.000000
vn -0.515222 0.559393 0.649328
vn 0.184434 0.574796 0.797241
vn 0.738833 0.590725 0.324299
vn 0.736268 0.576778 -0.353888
vn 0.216520 0.580063 -0.785268
vn -0.515222 0.559393 -0.649328
vn -0.833677 0.552253 -0.000000
vn -0.585879 0.328633 0.740774
vn 0.213767 0.341237 0.915348
vn 0.853925 0.358184 0.377514
vn 0.848852 0.337022 -0.407267
vn 0.247562 0.349145 -0.903776
vn -0.585880 0.328633 -0.740774
vn -0.946422 0.322932 -0.000000
vn -0.056022 0.699560 -0.712375
vn -0.503717 0.725676 -0.468683
vn -0.007568 0.998428 -0.055540
vn -0.688448 0.679614 0.253308
vn 0.055024 0.712331 0.699684
vn 0.740580 0.670771 0.040098
vn -0.061825 0.614929 -0.786155
vn -0.506369 0.652037 -0.564303
vn -0.778806 0.564667 0.273153
vn 0.062213 0.608516 0.791099
vn 0.823864 0.564114 0.054994
vn 0.692383 0.506378 -0.513991
vn 0.731717 0.423718 -0.533904
s 1
g polySurface304
f 2/1/1 3/2/2 6/3/3
f 3/2/2 4/4/4 6/3/3
f 4/4/4 5/5/5 6/3/3
f 5/5/5 1/6/6 6/3/3
f 3/2/2 2/1/1 8/7/7 9/8/8
f 4/4/4 3/2/2 9/8/8 10/9/9
f 5/5/5 4/4/4 10/9/9 11/10/10
f 1/6/6 5/5/5 11/10/10 7/11/11
f 6/3/3 1/6/6 12/12/12
f 1/6/6 7/11/11 13/13/13 12/12/12
s 2
f 14/14/14 15/15/15 19/16/16
f 15/15/15 16/17/17 19/16/16
f 16/17/17 17/18/18 19/16/16
f 17/18/18 18/19/19 19/16/16
f 18/19/19 14/14/14 19/16/16
f 15/15/15 14/14/14 20/20/20 21/21/21
f 16/17/17 15/15/15 21/21/21 22/22/22
f 17/18/18 16/17/17 22/22/22 23/23/23
f 18/19/19 17/18/18 23/23/23 24/24/24
f 14/14/14 18/19/19 24/24/24 20/20/20
s 3
f 25/25/25 26/26/26 32/27/27
f 26/26/26 27/28/28 32/27/27
f 27/28/28 28/29/29 32/27/27
f 28/29/29 29/30/30 32/27/27
f 29/30/30 30/31/31 32/27/27
f 30/31/31 31/32/32 32/27/27
f 31/32/32 25/25/25 32/27/27
f 26/26/26 25/25/25 33/33/33 34/34/34
f 27/28/28 26/26/26 34/34/34 35/35/35
f 28/29/29 27/28/28 35/35/35 36/36/36
f 29/30/30 28/29/29 36/36/36 37/37/37
f 30/31/31 29/30/30 37/37/37 38/38/38
f 31/32/32 30/31/31 38/38/38 39/39/39
f 25/25/25 31/32/32 39/39/39 33/33/33
f 34/34/34 33/33/33 40/40/40 41/41/41
f 35/35/35 34/34/34 41/41/41 42/42/42
f 36/36/36 35/35/35 42/42/42 43/43/43
f 37/37/37 36/36/36 43/43/43 44/44/44
f 38/38/38 37/37/37 44/44/44 45/45/45
f 39/39/39 38/38/38 45/45/45 46/46/46
f 33/33/33 39/39/39 46/46/46 40/40/40
f 41/41/41 40/40/40 47/47/47 48/48/48
f 42/42/42 41/41/41 48/49/48 49/50/49
f 43/43/43 42/42/42 49/50/49 50/51/50
f 44/44/44 43/43/43 50/51/50 51/52/51
f 45/45/45 44/44/44 51/52/51 52/53/52
f 46/46/46 45/45/45 52/53/52 53/54/53
f 40/40/40 46/46/46 53/54/53 47/47/47
s 4
f 54/55/54 55/56/55 59/57/56
f 55/56/55 56/58/57 59/57/56
f 56/58/57 57/59/58 59/57/56
f 57/59/58 58/60/59 59/57/56
f 58/60/59 54/55/54 59/57/56
f 55/56/55 54/55/54 60/61/60 61/62/61
f 56/58/57 55/56/55 61/62/61 62/63/62
f 57/59/58 56/58/57 62/63/62 63/64/63
f 58/60/59 57/59/58 63/64/63 64/65/64
f 54/55/54 58/60/59 64/65/64 60/61/60
s 5
f 65/66/65 66/67/66 72/68/67
f 66/67/66 67/69/68 72/68/67
f 67/69/68 68/70/69 72/68/67
f 68/70/69 69/71/70 72/68/67
f 69/71/70 70/72/71 72/68/67
f 70/72/71 71/73/72 72/68/67
f 71/73/72 65/66/65 72/68/67
f 66/67/66 65/66/65 73/74/73 74/75/74
f 67/69/68 66/67/66 74/75/74 75/76/75
f 68/70/69 67/69/68 75/76/75 76/77/76
f 69/71/70 68/70/69 76/77/76 77/78/77
f 70/72/71 69/71/70 77/78/77 78/79/78
f 71/73/72 70/72/71 78/79/78 79/80/79
f 65/66/65 71/73/72 79/80/79 73/74/73
f 74/75/74 73/74/73 80/81/80 81/82/81
f 75/76/75 74/75/74 81/82/81 82/83/82
f 76/77/76 75/76/75 82/83/82 83/84/83
f 77/78/77 76/77/76 83/84/83 84/85/84
f 78/79/78 77/78/77 84/85/84 85/86/85
f 79/80/79 78/79/78 85/86/85 86/87/86
f 73/74/73 79/80/79 86/87/86 80/81/80
f 81/82/81 80/81/80 87/88/87 88/89/88
f 82/83/82 81/82/81 88/90/88 89/91/89
f 83/84/83 82/83/82 89/91/89 90/92/90
f 84/85/84 83/84/83 90/92/90 91/93/91
f 85/86/85 84/85/84 91/93/91 92/94/92
f 86/87/86 85/86/85 92/94/92 93/95/93
f 80/81/80 86/87/86 93/95/93 87/88/87
s 6
f 95/96/94 96/97/95 99/98/96
f 96/97/95 97/99/97 99/98/96
f 97/99/97 98/100/98 99/98/96
f 98/100/98 94/101/99 99/98/96
f 96/97/95 95/96/94 101/102/100 102/103/101
f 97/99/97 96/97/95 102/103/101 103/104/102
f 98/100/98 97/99/97 103/104/102 104/105/103
f 94/101/99 98/100/98 104/105/103 100/106/104
f 99/98/96 94/101/99 105/107/105
f 94/101/99 100/106/104 106/108/106 105/107/105
