# This file uses centimeters as units for non-parametric coordinates.

g default
v 0.000797 -0.097623 0.016376
v 0.623772 -0.120277 3.049578
v 0.016657 -0.097109 0.013215
v 0.071882 1.246190 1.765254
v 0.577930 1.260288 1.664261
v 0.044593 1.096017 1.459205
v 0.484633 1.106634 1.371325
v 0.202915 1.192976 2.287374
v 0.683970 1.211763 2.196953
v 0.393267 0.790666 2.679324
v 0.717980 0.806954 2.642730
v 0.018293 0.628573 0.936797
v 0.319276 0.634651 0.876723
v 0.053878 0.362095 0.603626
v 0.166862 0.363755 0.581105
v 0.018887 0.123391 0.246974
v 0.074550 0.125194 0.235879
v 0.011056 -0.097623 0.028386
v 2.922155 -0.410090 1.083807
v 0.016656 -0.097109 0.013215
v 1.538848 0.594306 0.882481
v 1.717438 0.610140 0.398343
v 1.263722 0.613869 0.745673
v 1.418965 0.627363 0.324654
v 2.052395 0.385360 1.043873
v 2.226924 0.404146 0.586566
v 2.486021 0.109124 1.086626
v 2.624660 0.129495 0.790725
v 0.804705 0.445281 0.494864
v 0.910920 0.454625 0.206909
v 0.539346 0.316873 0.290281
v 0.579243 0.320534 0.182204
v 0.217061 0.123391 0.133573
v 0.236717 0.125194 0.080327
v -0.007293 -0.097186 0.019984
v 3.058936 0.699896 2.248058
v 0.000000 -0.097943 0.000000
v 1.526073 2.076435 1.503281
v 1.926866 2.053374 0.955721
v 1.261367 1.911048 1.255013
v 1.609998 1.890541 0.778965
v 2.087337 2.143627 1.900403
v 2.467440 2.122228 1.380736
v 2.523528 1.801636 2.099777
v 2.777650 1.786873 1.752345
v 0.926196 1.341984 0.712296
v 1.015452 1.346422 0.585973
v 0.608915 0.978548 0.469939
v 0.669443 0.975825 0.365581
v 0.235497 0.309820 0.152114
v 0.263443 0.308263 0.082855
v 0.016657 -0.097109 0.034493
v 3.503104 1.752271 0.325234
v 0.016657 -0.097109 0.013215
v 1.646901 2.233126 0.555027
v 1.648836 2.227743 -0.123952
v 1.110386 1.753830 0.420331
v 1.113076 1.746372 -0.170087
v 2.212481 2.553314 0.492106
v 2.218468 2.558963 -0.152061
v 2.832345 2.311618 0.454562
v 2.865006 2.332192 0.025707
v 0.692500 0.894111 0.296057
v 0.693639 0.890871 -0.107778
v 0.426325 0.601501 0.097351
v 0.426325 0.601501 -0.054241
v 0.249970 0.252006 0.061196
v 0.249970 0.252006 -0.013488
v -0.517367 -0.096411 0.033012
v 3.283875 0.986693 -1.476015
v -0.525136 -0.097109 0.013215
v 1.563354 2.249151 -0.473889
v 1.315397 2.226117 -1.105553
v 1.174113 2.215383 -0.367534
v 0.958477 2.194985 -0.916787
v 2.243698 2.074672 -0.762714
v 2.014373 2.058731 -1.364524
v 2.757621 1.633134 -1.097261
v 2.632533 1.629553 -1.509260
v 0.546013 1.573732 -0.209985
v 0.398543 1.559934 -0.585678
v 0.137715 0.942156 -0.177043
v 0.082365 0.937182 -0.318081
v -0.271312 0.286440 -0.046557
v -0.298581 0.283989 -0.116041
v 0.026243 -0.097602 0.021326
v 1.583165 -0.088342 -1.828035
v 0.016657 -0.097109 0.013215
v 1.020918 0.575214 -0.812519
v 0.714962 0.590489 -1.071315
v 0.847259 0.565805 -0.648358
v 0.581188 0.578872 -0.873385
v 1.284896 0.457459 -1.155496
v 0.997263 0.475301 -1.403935
v 1.444464 0.278825 -1.476780
v 1.264785 0.298720 -1.655654
v 0.550752 0.394151 -0.393703
v 0.368778 0.403178 -0.547628
v 0.337423 0.269671 -0.264537
v 0.269124 0.273181 -0.322323
v 0.146968 0.091558 -0.085438
v 0.113319 0.093287 -0.113906
v 0.014843 0.000903 -0.003071
v 0.212046 0.146049 -2.656344
v 0.000000 0.000000 0.000000
v 0.356573 1.254914 -1.603192
v -0.125649 1.275809 -1.638647
v 0.305689 1.214506 -1.353427
v -0.113626 1.225805 -1.384335
v 0.382474 1.149451 -2.059119
v -0.075075 1.184271 -2.092642
v 0.333737 0.816001 -2.354114
v 0.027835 0.842686 -2.376526
v 0.100963 1.034154 -0.938529
v -0.009057 1.038092 -0.944961
v 0.050946 0.826981 -0.649363
v -0.034927 0.832589 -0.647191
v 0.011140 0.382629 -0.248944
v -0.041285 0.382695 -0.240032
v 0.325712 -0.087932 0.092031
v -2.059193 0.217451 -1.653389
v 0.319882 -0.087477 0.107826
v -0.981604 1.191907 -1.170587
v -1.298463 1.180705 -0.736914
v -0.776099 1.106589 -0.975819
v -1.051697 1.096820 -0.598765
v -1.396109 1.178529 -1.462986
v -1.696645 1.167620 -1.051432
v -1.702801 0.876806 -1.590442
v -1.903729 0.868280 -1.315292
v -0.505376 0.884380 -0.538987
v -0.576106 0.886163 -0.439069
v -0.262224 0.685030 -0.321877
v -0.310651 0.692463 -0.239662
v 0.091790 0.265079 -0.048999
v 0.069375 0.266246 0.005651
vt 0.968735 0.288162
vt 0.971166 0.329430
vt 0.964366 0.329430
vt 0.966798 0.288162
vt 0.936854 0.522916
vt 0.998679 0.522916
vt 0.997097 0.588557
vt 0.938436 0.588557
vt 0.940886 0.490453
vt 0.994647 0.490453
vt 0.987376 0.648793
vt 0.948157 0.648793
vt 0.967766 0.724280
vt 0.949380 0.436385
vt 0.986152 0.436385
vt 0.960865 0.391247
vt 0.974668 0.391247
vt 0.968735 0.288162
vt 0.971166 0.329430
vt 0.964366 0.329430
vt 0.966798 0.288162
vt 0.936854 0.522916
vt 0.998679 0.522916
vt 0.997097 0.588557
vt 0.938436 0.588557
vt 0.940886 0.490453
vt 0.994647 0.490453
vt 0.987376 0.648793
vt 0.948157 0.648793
vt 0.967766 0.724280
vt 0.949380 0.436385
vt 0.986152 0.436385
vt 0.960865 0.391247
vt 0.974668 0.391247
vt 0.905251 0.667250
vt 0.902603 0.627960
vt 0.910010 0.627960
vt 0.907362 0.667250
vt 0.939979 0.443753
vt 0.872634 0.443753
vt 0.874358 0.381260
vt 0.938255 0.381260
vt 0.935587 0.474659
vt 0.877026 0.474659
vt 0.884947 0.323912
vt 0.927666 0.323912
vt 0.906306 0.252045
vt 0.913980 0.526134
vt 0.898633 0.526134
vt 0.912289 0.569107
vt 0.900324 0.569107
vt 0.968735 0.288162
vt 0.971166 0.329430
vt 0.964366 0.329430
vt 0.966798 0.288162
vt 0.936854 0.522916
vt 0.998679 0.522916
vt 0.997097 0.588557
vt 0.938436 0.588557
vt 0.940886 0.490453
vt 0.994647 0.490453
vt 0.987376 0.648793
vt 0.948157 0.648793
vt 0.967766 0.724280
vt 0.949380 0.436385
vt 0.986152 0.436385
vt 0.960865 0.391247
vt 0.974668 0.391247
vt 0.968735 0.288162
vt 0.971166 0.329430
vt 0.964366 0.329430
vt 0.966798 0.288162
vt 0.936854 0.522916
vt 0.998679 0.522916
vt 0.997097 0.588557
vt 0.938436 0.588557
vt 0.940886 0.490453
vt 0.994647 0.490453
vt 0.987376 0.648793
vt 0.948157 0.648793
vt 0.967766 0.724280
vt 0.949380 0.436385
vt 0.986152 0.436385
vt 0.960865 0.391247
vt 0.974668 0.391247
vt 0.968735 0.288162
vt 0.971166 0.329430
vt 0.964366 0.329430
vt 0.966798 0.288162
vt 0.936854 0.522916
vt 0.998679 0.522916
vt 0.997097 0.588557
vt 0.938436 0.588557
vt 0.940886 0.490453
vt 0.994647 0.490453
vt 0.987376 0.648793
vt 0.948157 0.648793
vt 0.967766 0.724280
vt 0.949380 0.436385
vt 0.986152 0.436385
vt 0.960865 0.391247
vt 0.974668 0.391247
vt 0.905251 0.667250
vt 0.902603 0.627960
vt 0.910010 0.627960
vt 0.907362 0.667250
vt 0.939979 0.443753
vt 0.872634 0.443753
vt 0.874358 0.381260
vt 0.938255 0.381260
vt 0.935587 0.474659
vt 0.877026 0.474659
vt 0.884947 0.323912
vt 0.927666 0.323912
vt 0.906306 0.252045
vt 0.913980 0.526134
vt 0.898633 0.526134
vt 0.912289 0.569107
vt 0.900324 0.569107
vt 0.905251 0.667250
vt 0.902603 0.627960
vt 0.910010 0.627960
vt 0.907362 0.667250
vt 0.939979 0.443753
vt 0.872634 0.443753
vt 0.874358 0.381260
vt 0.938255 0.381260
vt 0.935587 0.474659
vt 0.877026 0.474659
vt 0.884947 0.323912
vt 0.927666 0.323912
vt 0.906306 0.252045
vt 0.913980 0.526134
vt 0.898633 0.526134
vt 0.912289 0.569107
vt 0.900324 0.569107
vn -0.158187 0.719029 -0.676737
vn -0.132964 0.807881 -0.574151
vn -0.132939 0.807956 -0.574051
vn -0.158187 0.719029 -0.676737
vn -0.050095 0.994202 -0.095150
vn -0.051178 0.993562 -0.101072
vn 0.026238 0.928435 0.370567
vn 0.028171 0.923222 0.383234
vn -0.133002 0.812425 -0.567693
vn -0.133225 0.811464 -0.569015
vn 0.079964 0.622270 0.778708
vn 0.080099 0.617809 0.782238
vn 0.083460 0.393276 0.915625
vn -0.145975 0.745636 -0.650168
vn -0.145962 0.745678 -0.650123
vn -0.136029 0.783342 -0.606524
vn -0.136054 0.783219 -0.606677
vn -0.659535 0.719029 -0.219113
vn -0.509152 0.845805 -0.159304
vn -0.509152 0.845805 -0.159304
vn -0.659535 0.719029 -0.219113
vn 0.237489 0.963572 0.122999
vn 0.236595 0.963835 0.122658
vn 0.387076 0.902108 0.190721
vn 0.390437 0.900259 0.192593
vn -0.147321 0.988835 -0.022388
vn -0.147188 0.988856 -0.022338
vn 0.553623 0.782793 0.284142
vn 0.558102 0.778678 0.286674
vn 0.711093 0.595280 0.374151
vn -0.317385 0.944342 -0.086514
vn -0.317366 0.944349 -0.086507
vn -0.392716 0.912480 -0.114696
vn -0.392717 0.912479 -0.114697
vn -0.765394 0.560207 -0.316765
vn -0.725460 0.582354 -0.366841
vn -0.727752 0.581201 -0.364118
vn -0.765394 0.560207 -0.316765
vn -0.149910 0.977142 -0.150732
vn -0.147887 0.977675 -0.149267
vn 0.154564 0.985357 0.071979
vn 0.152742 0.985739 0.070630
vn -0.434699 0.831284 -0.346417
vn -0.429629 0.835247 -0.343193
vn 0.605559 0.679356 0.414456
vn 0.607159 0.677154 0.415716
vn 0.737783 0.428715 0.521422
vn -0.548241 0.731074 -0.406156
vn -0.548284 0.731096 -0.406058
vn -0.649587 0.662335 -0.373295
vn -0.641346 0.670828 -0.372379
vn -0.831423 0.555640 0.000000
vn -0.876209 0.481931 0.000000
vn -0.876294 0.481778 0.000000
vn -0.831423 0.555640 0.000000
vn -0.588211 0.808681 -0.006548
vn -0.584777 0.811169 -0.006402
vn -0.149945 0.988581 0.014951
vn -0.156424 0.987581 0.014647
vn -0.800036 0.599882 -0.009228
vn -0.787227 0.616593 -0.009325
vn 0.440546 0.896275 0.051089
vn 0.430591 0.901191 0.049462
vn 0.647777 0.757000 0.085649
vn -0.876149 0.481978 -0.007767
vn -0.881592 0.471947 -0.007867
vn -0.782460 0.622688 -0.004079
vn -0.777097 0.629367 -0.004247
vn -0.778099 0.559441 0.285636
vn -0.784043 0.549683 0.288313
vn -0.784019 0.549724 0.288302
vn -0.778099 0.559441 0.285636
vn 0.107577 0.991404 -0.074472
vn 0.106653 0.991529 -0.074133
vn 0.344442 0.926748 -0.149996
vn 0.351929 0.923581 -0.152135
vn -0.465897 0.871904 0.150742
vn -0.463410 0.873406 0.149712
vn 0.582110 0.785938 -0.208444
vn 0.585411 0.783410 -0.208720
vn 0.691447 0.689404 -0.215925
vn -0.705544 0.662127 0.252578
vn -0.704399 0.663537 0.252074
vn -0.792957 0.534768 0.291963
vn -0.793035 0.534635 0.291995
vn -0.475398 0.642570 0.600917
vn -0.375727 0.785475 0.491792
vn -0.375727 0.785475 0.491792
vn -0.475398 0.642570 0.600917
vn 0.137012 0.985693 -0.098164
vn 0.136370 0.985856 -0.097424
vn 0.255460 0.941537 -0.219657
vn 0.258479 0.940090 -0.222305
vn -0.132456 0.967995 0.213169
vn -0.132365 0.968031 0.213063
vn 0.407379 0.842291 -0.352971
vn 0.411539 0.838722 -0.356625
vn 0.557207 0.674211 -0.484727
vn -0.247989 0.904823 0.346116
vn -0.247976 0.904832 0.346102
vn -0.298205 0.864760 0.404060
vn -0.298206 0.864759 0.404061
vn 0.141454 0.536970 0.831657
vn 0.100097 0.636082 0.765102
vn 0.102676 0.630303 0.769530
vn 0.141454 0.536970 0.831657
vn 0.056934 0.995254 -0.078916
vn 0.057155 0.995105 -0.080622
vn 0.092111 0.884457 -0.457440
vn 0.090832 0.894063 -0.438635
vn 0.011617 0.960825 0.276913
vn 0.011856 0.961462 0.274683
vn 0.106383 0.562918 -0.819638
vn 0.106617 0.575440 -0.810865
vn 0.101286 0.393755 -0.913618
vn 0.004130 0.901664 0.432417
vn 0.003745 0.902869 0.429899
vn 0.060188 0.738395 0.671677
vn 0.058410 0.742946 0.666798
vn 0.742590 0.606659 0.283770
vn 0.659579 0.696287 0.283089
vn 0.664517 0.691515 0.283239
vn 0.742590 0.606658 0.283770
vn 0.054988 0.996293 0.066156
vn 0.053497 0.996446 0.065072
vn -0.249314 0.955705 -0.156429
vn -0.247587 0.956362 -0.155156
vn 0.268816 0.938587 0.216314
vn 0.266734 0.939481 0.215009
vn -0.626082 0.644750 -0.438541
vn -0.626630 0.643932 -0.438961
vn -0.730050 0.444185 -0.519352
vn 0.350917 0.901607 0.252906
vn 0.348754 0.902457 0.252866
vn 0.553254 0.787884 0.270460
vn 0.547747 0.792023 0.269581
s 1
g pPlane306
f 1/1/1 16/2/2 17/3/3 3/4/4
f 5/5/5 4/6/6 8/7/7 9/8/8
f 7/9/9 6/10/10 4/6/6 5/5/5
f 9/8/8 8/7/7 10/11/11 11/12/12
f 11/12/12 10/11/11 2/13/13
f 13/14/14 12/15/15 6/10/10 7/9/9
f 15/16/16 14/17/17 12/15/15 13/14/14
f 17/3/3 16/2/2 14/17/17 15/16/16
s 3
f 18/18/18 33/19/19 34/20/20 20/21/21
f 22/22/22 21/23/23 25/24/24 26/25/25
f 24/26/26 23/27/27 21/23/23 22/22/22
f 26/25/25 25/24/24 27/28/28 28/29/29
f 28/29/29 27/28/28 19/30/30
f 30/31/31 29/32/32 23/27/27 24/26/26
f 32/33/33 31/34/34 29/32/32 30/31/31
f 34/20/20 33/19/19 31/34/34 32/33/33
s 5
f 35/35/35 50/36/36 51/37/37 37/38/38
f 39/39/39 38/40/40 42/41/41 43/42/42
f 41/43/43 40/44/44 38/40/40 39/39/39
f 43/42/42 42/41/41 44/45/45 45/46/46
f 45/46/46 44/45/45 36/47/47
f 47/48/48 46/49/49 40/44/44 41/43/43
f 49/50/50 48/51/51 46/49/49 47/48/48
f 51/37/37 50/36/36 48/51/51 49/50/50
s 7
f 52/52/52 67/53/53 68/54/54 54/55/55
f 56/56/56 55/57/57 59/58/58 60/59/59
f 58/60/60 57/61/61 55/57/57 56/56/56
f 60/59/59 59/58/58 61/62/62 62/63/63
f 62/63/63 61/62/62 53/64/64
f 64/65/65 63/66/66 57/61/61 58/60/60
f 66/67/67 65/68/68 63/66/66 64/65/65
f 68/54/54 67/53/53 65/68/68 66/67/67
s 9
f 69/69/69 84/70/70 85/71/71 71/72/72
f 73/73/73 72/74/74 76/75/75 77/76/76
f 75/77/77 74/78/78 72/74/74 73/73/73
f 77/76/76 76/75/75 78/79/79 79/80/80
f 79/80/80 78/79/79 70/81/81
f 81/82/82 80/83/83 74/78/78 75/77/77
f 83/84/84 82/85/85 80/83/83 81/82/82
f 85/71/71 84/70/70 82/85/85 83/84/84
s 11
f 86/86/86 101/87/87 102/88/88 88/89/89
f 90/90/90 89/91/91 93/92/92 94/93/93
f 92/94/94 91/95/95 89/91/91 90/90/90
f 94/93/93 93/92/92 95/96/96 96/97/97
f 96/97/97 95/96/96 87/98/98
f 98/99/99 97/100/100 91/95/95 92/94/94
f 100/101/101 99/102/102 97/100/100 98/99/99
f 102/88/88 101/87/87 99/102/102 100/101/101
s 13
f 103/103/103 118/104/104 119/105/105 105/106/106
f 107/107/107 106/108/108 110/109/109 111/110/110
f 109/111/111 108/112/112 106/108/108 107/107/107
f 111/110/110 110/109/109 112/113/113 113/114/114
f 113/114/114 112/113/113 104/115/115
f 115/116/116 114/117/117 108/112/112 109/111/111
f 117/118/118 116/119/119 114/117/117 115/116/116
f 119/105/105 118/104/104 116/119/119 117/118/118
s 15
f 120/120/120 135/121/121 136/122/122 122/123/123
f 124/124/124 123/125/125 127/126/126 128/127/127
f 126/128/128 125/129/129 123/125/125 124/124/124
f 128/127/127 127/126/126 129/130/130 130/131/131
f 130/131/131 129/130/130 121/132/132
f 132/133/133 131/134/134 125/129/129 126/128/128
f 134/135/135 133/136/136 131/134/134 132/133/133
f 136/122/122 135/121/121 133/136/136 134/135/135
