# This file uses centimeters as units for non-parametric coordinates.

g default
v 0.096614 -0.000000 -0.167342
v -0.096615 0.000000 -0.167342
v -0.193230 0.000000 -0.000000
v -0.096615 -0.000000 0.167343
v 0.096614 -0.000000 0.167343
v 0.193230 -0.000000 -0.000000
v 0.072375 0.890550 -0.125357
v -0.072375 0.890550 -0.125357
v -0.144751 0.890550 -0.000000
v -0.072375 0.890550 0.125357
v 0.072375 0.890550 0.125357
v 0.144750 0.890550 -0.000000
v 0.178593 0.280993 -0.000000
v 0.089297 0.280993 0.154667
v -0.089297 0.280993 0.154667
v -0.178593 0.280993 -0.000000
v -0.089297 0.280993 -0.154667
v 0.089297 0.280993 -0.154667
v 0.047318 0.943715 -0.081959
v -0.047319 0.943715 -0.081959
v -0.094637 0.943715 -0.000000
v -0.047319 0.943715 0.081959
v 0.047318 0.943715 0.081959
v 0.094637 0.943715 -0.000000
v -0.000000 0.859128 -0.000000
vt 1.000000 0.295002
vt 0.833333 0.295002
vt 0.833333 0.000000
vt 1.000000 0.000000
vt 0.166667 0.295002
vt 0.000000 0.295002
vt 0.000000 0.000000
vt 0.166667 0.000000
vt 0.333333 0.295002
vt 0.333333 0.000000
vt 0.500000 0.295002
vt 0.500000 0.000000
vt 0.666667 0.295002
vt 0.666667 0.000000
vt 0.666667 0.934951
vt 0.833333 0.934951
vt 0.500000 0.934951
vt 0.333333 0.934951
vt 0.166667 0.934951
vt 0.000000 0.934951
vt 1.000000 0.934951
vt 0.833333 0.990768
vt 1.000000 0.990768
vt 0.000000 0.990768
vt 0.166667 0.990768
vt 0.333333 0.990768
vt 0.500000 0.990768
vt 0.666667 0.990768
vt 0.750000 0.720306
vt 0.166667 0.720306
vn -0.499557 0.042092 -0.865258
vn 0.499557 0.042092 -0.865258
vn 0.499593 0.040374 -0.865319
vn -0.499593 0.040374 -0.865319
vn -0.999114 0.042091 0.000000
vn -0.499557 0.042092 -0.865258
vn -0.499593 0.040374 -0.865319
vn -0.999185 0.040373 0.000000
vn -0.499557 0.042092 0.865258
vn -0.999114 0.042091 0.000000
vn -0.999185 0.040373 0.000000
vn -0.499593 0.040374 0.865319
vn 0.499557 0.042092 0.865258
vn -0.499557 0.042092 0.865258
vn -0.499593 0.040374 0.865319
vn 0.499593 0.040374 0.865319
vn 0.999114 0.042091 0.000000
vn 0.499557 0.042092 0.865258
vn 0.499593 0.040374 0.865319
vn 0.999185 0.040373 0.000000
vn 0.999114 0.042091 0.000000
vn 0.999185 0.040373 0.000000
vn 0.499593 0.040374 -0.865319
vn 0.499557 0.042092 -0.865258
vn 0.997064 0.076576 0.000000
vn 0.999114 0.042091 0.000000
vn 0.499557 0.042092 -0.865258
vn 0.498532 0.076576 -0.863483
vn 0.498532 0.076576 0.863483
vn 0.499557 0.042092 0.865258
vn 0.999114 0.042091 0.000000
vn 0.997064 0.076576 0.000000
vn -0.498532 0.076576 0.863483
vn -0.499557 0.042092 0.865258
vn 0.499557 0.042092 0.865258
vn 0.498532 0.076576 0.863483
vn -0.997064 0.076576 0.000000
vn -0.999114 0.042091 0.000000
vn -0.499557 0.042092 0.865258
vn -0.498532 0.076576 0.863483
vn -0.498532 0.076576 -0.863483
vn -0.499557 0.042092 -0.865258
vn -0.999114 0.042091 0.000000
vn -0.997064 0.076576 0.000000
vn 0.498532 0.076576 -0.863483
vn 0.499557 0.042092 -0.865258
vn -0.499557 0.042092 -0.865258
vn -0.498532 0.076576 -0.863483
vn 0.235787 0.881826 -0.408397
vn 0.498532 0.076576 -0.863483
vn -0.498532 0.076576 -0.863483
vn -0.235787 0.881826 -0.408397
vn -0.235787 0.881826 -0.408397
vn -0.498532 0.076576 -0.863483
vn -0.997064 0.076576 0.000000
vn -0.471574 0.881827 0.000000
vn -0.471574 0.881827 0.000000
vn -0.997064 0.076576 0.000000
vn -0.498532 0.076576 0.863483
vn -0.235787 0.881825 0.408397
vn -0.235787 0.881825 0.408397
vn -0.498532 0.076576 0.863483
vn 0.498532 0.076576 0.863483
vn 0.235787 0.881826 0.408397
vn 0.235787 0.881826 0.408397
vn 0.498532 0.076576 0.863483
vn 0.997064 0.076576 0.000000
vn 0.471573 0.881827 0.000000
vn 0.471573 0.881827 0.000000
vn 0.997064 0.076576 0.000000
vn 0.498532 0.076576 -0.863483
vn 0.235787 0.881826 -0.408397
vn 0.000000 1.000000 0.000000
vn 0.235787 0.881826 -0.408397
vn -0.235787 0.881826 -0.408397
vn 0.000000 1.000000 0.000000
vn -0.235787 0.881826 -0.408397
vn -0.471574 0.881827 0.000000
vn 0.000000 1.000000 0.000000
vn -0.471574 0.881827 0.000000
vn -0.235787 0.881825 0.408397
vn 0.000000 1.000000 0.000000
vn -0.235787 0.881825 0.408397
vn 0.235787 0.881826 0.408397
vn 0.000000 1.000000 0.000000
vn 0.235787 0.881826 0.408397
vn 0.471573 0.881827 0.000000
vn 0.000000 1.000000 0.000000
vn 0.471573 0.881827 0.000000
vn 0.235787 0.881826 -0.408397
s off
g polySurface1
f 17/1/1 18/2/2 1/3/3 2/4/4
f 16/5/5 17/6/6 2/7/7 3/8/8
f 15/9/9 16/5/10 3/8/11 4/10/12
f 14/11/13 15/9/14 4/10/15 5/12/16
f 13/13/17 14/11/18 5/12/19 6/14/20
f 13/13/21 6/14/22 1/3/23 18/2/24
f 12/15/25 13/13/26 18/2/27 7/16/28
f 11/17/29 14/11/30 13/13/31 12/15/32
f 10/18/33 15/9/34 14/11/35 11/17/36
f 9/19/37 16/5/38 15/9/39 10/18/40
f 8/20/41 17/6/42 16/5/43 9/19/44
f 7/16/45 18/2/46 17/1/47 8/21/48
f 19/22/49 7/16/50 8/21/51 20/23/52
f 20/24/53 8/20/54 9/19/55 21/25/56
f 21/25/57 9/19/58 10/18/59 22/26/60
f 22/26/61 10/18/62 11/17/63 23/27/64
f 23/27/65 11/17/66 12/15/67 24/28/68
f 24/28/69 12/15/70 7/16/71 19/22/72
f 25/29/73 19/22/74 20/23/75
f 25/30/76 20/24/77 21/25/78
f 25/30/79 21/25/80 22/26/81
f 25/30/82 22/26/83 23/27/84
f 25/29/85 23/27/86 24/28/87
f 25/29/88 24/28/89 19/22/90
