# This file uses centimeters as units for non-parametric coordinates.

g default
v -0.150626 0.000000 -0.518850
v -0.270350 0.000000 -0.518850
v -0.330212 0.000000 -0.415165
v -0.270350 0.000000 -0.311481
v -0.150626 0.000000 -0.311481
v -0.090764 0.000000 -0.415165
v -0.168936 0.487669 -0.487134
v -0.252039 0.487669 -0.487134
v -0.293591 0.487669 -0.415165
v -0.252039 0.487669 -0.343196
v -0.168936 0.487669 -0.343196
v -0.127385 0.487669 -0.415165
v -0.102220 0.153873 -0.415165
v -0.156354 0.153873 -0.321403
v -0.264622 0.153873 -0.321403
v -0.318755 0.153873 -0.415165
v -0.264622 0.153873 -0.508928
v -0.156354 0.153873 -0.508928
v -0.183322 0.516782 -0.462218
v -0.237654 0.516782 -0.462218
v -0.264820 0.516782 -0.415165
v -0.237654 0.516782 -0.368113
v -0.183322 0.516782 -0.368113
v -0.156156 0.516782 -0.415165
v -0.210488 0.489311 -0.415165
v -0.006586 0.000000 0.315549
v -0.123961 0.000000 0.315549
v -0.182648 0.000000 0.417199
v -0.123961 0.000000 0.518850
v -0.006586 0.000000 0.518850
v 0.052102 0.000000 0.417199
v -0.020256 0.516560 0.339228
v -0.110290 0.516560 0.339228
v -0.155307 0.516560 0.417199
v -0.110290 0.516560 0.495170
v -0.020256 0.516560 0.495170
v 0.024760 0.516560 0.417199
v 0.047654 0.162989 0.417199
v -0.008810 0.162989 0.514997
v -0.121737 0.162989 0.514997
v -0.178200 0.162989 0.417199
v -0.121737 0.162989 0.319402
v -0.008810 0.162989 0.319402
v -0.035842 0.547398 0.366222
v -0.094705 0.547398 0.366222
v -0.124136 0.547398 0.417199
v -0.094705 0.547398 0.468176
v -0.035842 0.547398 0.468176
v -0.006410 0.547398 0.417199
v -0.065273 0.508460 0.417199
v 0.257174 0.000000 -0.130688
v 0.111099 0.000000 -0.130688
v 0.038061 0.000000 -0.004182
v 0.111099 0.000000 0.122323
v 0.257174 0.000000 0.122323
v 0.330212 0.000000 -0.004182
v 0.234833 0.645262 -0.091992
v 0.133440 0.645262 -0.091992
v 0.082743 0.645262 -0.004182
v 0.133440 0.645262 0.083627
v 0.234833 0.645262 0.083627
v 0.285530 0.645262 -0.004182
v 0.316234 0.203598 -0.004182
v 0.250185 0.203598 0.110217
v 0.118088 0.203598 0.110217
v 0.052039 0.203598 -0.004182
v 0.118088 0.203598 -0.118582
v 0.250185 0.203598 -0.118582
v 0.217282 0.683784 -0.061592
v 0.150991 0.683784 -0.061592
v 0.117846 0.683784 -0.004182
v 0.150991 0.683784 0.053227
v 0.217282 0.683784 0.053227
v 0.250427 0.683784 -0.004182
v 0.184137 0.674453 -0.004182
v -0.097912 0.000000 -0.019602
v -0.227399 0.000000 -0.019602
v -0.292142 0.000000 0.092537
v -0.227399 0.000000 0.204676
v -0.097912 0.000000 0.204676
v -0.033169 0.000000 0.092537
v -0.116542 0.377407 0.012666
v -0.208770 0.377407 0.012666
v -0.254883 0.377407 0.092537
v -0.208770 0.377407 0.172409
v -0.116542 0.377407 0.172409
v -0.070428 0.377407 0.092537
v -0.046977 0.119082 0.092537
v -0.104816 0.119082 0.192719
v -0.220495 0.119082 0.192719
v -0.278335 0.119082 0.092537
v -0.220495 0.119082 -0.007644
v -0.104816 0.119082 -0.007644
v -0.132507 0.399937 0.040318
v -0.192805 0.399937 0.040318
v -0.222953 0.399937 0.092537
v -0.192805 0.399937 0.144757
v -0.132507 0.399937 0.144757
v -0.102358 0.399937 0.092537
v -0.162656 0.389109 0.092537
vt 0.000000 0.295002
vt 0.833333 0.295002
vt 0.000000 0.000000
vt 0.166667 0.295002
vt 0.166667 0.000000
vt 0.333333 0.295002
vt 0.333333 0.000000
vt 0.500000 0.295002
vt 0.500000 0.000000
vt 0.666667 0.295002
vt 0.666667 0.000000
vt 0.666667 0.934951
vt 0.833333 0.934951
vt 0.500000 0.934951
vt 0.333333 0.934951
vt 0.166667 0.934951
vt 0.000000 0.934951
vt 0.833333 0.990768
vt 0.000000 0.990768
vt 0.166667 0.990768
vt 0.333333 0.990768
vt 0.500000 0.990768
vt 0.666667 0.990768
vt 0.750000 0.720306
vt 0.166667 0.720306
vt 1.000000 0.295002
vt 0.833333 0.000000
vt 1.000000 0.000000
vt 1.000000 0.934951
vt 1.000000 0.990768
vt 1.000000 0.295002
vt 0.833333 0.295002
vt 0.833333 0.000000
vt 1.000000 0.000000
vt 0.166667 0.295002
vt 0.000000 0.295002
vt 0.000000 0.000000
vt 0.166667 0.000000
vt 0.333333 0.295002
vt 0.333333 0.000000
vt 0.500000 0.295002
vt 0.500000 0.000000
vt 0.666667 0.295002
vt 0.666667 0.000000
vt 0.666667 0.934951
vt 0.833333 0.934951
vt 0.500000 0.934951
vt 0.333333 0.934951
vt 0.166667 0.934951
vt 0.000000 0.934951
vt 1.000000 0.934951
vt 0.833333 0.990768
vt 1.000000 0.990768
vt 0.000000 0.990768
vt 0.166667 0.990768
vt 0.333333 0.990768
vt 0.500000 0.990768
vt 0.666667 0.990768
vt 0.750000 0.720306
vt 0.166667 0.720306
vt 1.000000 0.295002
vt 0.833333 0.295002
vt 0.833333 0.000000
vt 1.000000 0.000000
vt 0.166667 0.295002
vt 0.000000 0.295002
vt 0.000000 0.000000
vt 0.166667 0.000000
vt 0.333333 0.295002
vt 0.333333 0.000000
vt 0.500000 0.295002
vt 0.500000 0.000000
vt 0.666667 0.295002
vt 0.666667 0.000000
vt 0.666667 0.934951
vt 0.833333 0.934951
vt 0.500000 0.934951
vt 0.333333 0.934951
vt 0.166667 0.934951
vt 0.000000 0.934951
vt 1.000000 0.934951
vt 0.833333 0.990768
vt 1.000000 0.990768
vt 0.000000 0.990768
vt 0.166667 0.990768
vt 0.333333 0.990768
vt 0.500000 0.990768
vt 0.666667 0.990768
vt 0.750000 0.720306
vt 0.166667 0.720306
vt 1.000000 0.295002
vt 0.833333 0.295002
vt 0.833333 0.000000
vt 1.000000 0.000000
vt 0.166667 0.295002
vt 0.000000 0.295002
vt 0.000000 0.000000
vt 0.166667 0.000000
vt 0.333333 0.295002
vt 0.333333 0.000000
vt 0.500000 0.295002
vt 0.500000 0.000000
vt 0.666667 0.295002
vt 0.666667 0.000000
vt 0.666667 0.934951
vt 0.833333 0.934951
vt 0.500000 0.934951
vt 0.333333 0.934951
vt 0.166667 0.934951
vt 0.000000 0.934951
vt 1.000000 0.934951
vt 0.833333 0.990768
vt 1.000000 0.990768
vt 0.000000 0.990768
vt 0.166667 0.990768
vt 0.333333 0.990768
vt 0.500000 0.990768
vt 0.666667 0.990768
vt 0.750000 0.720306
vt 0.166667 0.720306
vn -0.498598 0.074838 -0.863597
vn 0.498598 0.074838 -0.863597
vn 0.498619 0.074251 -0.863635
vn -0.498619 0.074251 -0.863635
vn -0.997196 0.074837 -0.000000
vn -0.997240 0.074250 -0.000000
vn -0.498598 0.074838 0.863597
vn -0.498620 0.074251 0.863635
vn 0.498598 0.074838 0.863597
vn 0.498620 0.074251 0.863635
vn 0.997196 0.074837 0.000000
vn 0.997240 0.074249 0.000000
vn 0.993280 0.115740 0.000000
vn 0.496639 0.115740 -0.860206
vn 0.496640 0.115740 0.860205
vn -0.496640 0.115740 0.860205
vn -0.993280 0.115740 0.000000
vn -0.496639 0.115740 -0.860206
vn 0.243153 0.873788 -0.421155
vn -0.243153 0.873788 -0.421155
vn -0.486307 0.873788 -0.000000
vn -0.243153 0.873788 0.421155
vn 0.243153 0.873788 0.421155
vn 0.486307 0.873788 0.000000
vn -0.000000 1.000000 0.000000
vn -0.499335 0.051568 -0.864873
vn 0.499335 0.051568 -0.864873
vn 0.499814 0.027283 -0.865703
vn -0.499814 0.027283 -0.865703
vn -0.998670 0.051567 -0.000000
vn -0.999628 0.027282 0.000000
vn -0.499335 0.051568 0.864873
vn -0.499814 0.027283 0.865703
vn 0.499335 0.051567 0.864873
vn 0.499814 0.027283 0.865703
vn 0.998670 0.051567 -0.000000
vn 0.999628 0.027282 0.000000
vn 0.994193 0.107616 -0.000000
vn 0.497096 0.107616 -0.860996
vn 0.497096 0.107616 0.860996
vn -0.497096 0.107616 0.860996
vn -0.994193 0.107616 -0.000000
vn -0.497096 0.107616 -0.860996
vn 0.218085 0.899863 -0.377737
vn -0.218085 0.899863 -0.377737
vn -0.436171 0.899864 -0.000000
vn -0.218085 0.899863 0.377737
vn 0.218085 0.899863 0.377738
vn 0.436171 0.899864 -0.000000
vn -0.000000 1.000000 -0.000000
vn -0.498807 0.069039 -0.863959
vn 0.498807 0.069039 -0.863959
vn 0.498826 0.068496 -0.863991
vn -0.498826 0.068496 -0.863991
vn -0.997614 0.069038 -0.000000
vn -0.997652 0.068495 -0.000000
vn -0.498807 0.069039 0.863959
vn -0.498826 0.068496 0.863991
vn 0.498807 0.069039 0.863959
vn 0.498826 0.068496 0.863991
vn 0.997614 0.069038 -0.000000
vn 0.997652 0.068495 0.000000
vn 0.994221 0.107357 -0.000000
vn 0.497110 0.107357 -0.861020
vn 0.497110 0.107357 0.861020
vn -0.497110 0.107357 0.861020
vn -0.994221 0.107357 0.000000
vn -0.497110 0.107357 -0.861020
vn 0.296640 0.804995 -0.513797
vn -0.296640 0.804995 -0.513797
vn -0.593280 0.804996 -0.000000
vn -0.296640 0.804996 0.513796
vn 0.296640 0.804996 0.513796
vn 0.593280 0.804996 -0.000000
vn 0.000000 1.000000 -0.000000
vn -0.497518 0.099527 -0.861725
vn 0.497518 0.099527 -0.861725
vn 0.496674 0.115177 -0.860261
vn -0.496674 0.115177 -0.860261
vn -0.995035 0.099526 -0.000000
vn -0.993345 0.115176 -0.000000
vn -0.497518 0.099527 0.861725
vn -0.496674 0.115177 0.860261
vn 0.497518 0.099527 0.861725
vn 0.496674 0.115177 0.860261
vn 0.995035 0.099527 0.000000
vn 0.993345 0.115176 0.000000
vn 0.989146 0.146934 -0.000000
vn 0.494574 0.146935 -0.856625
vn 0.494574 0.146935 0.856625
vn -0.494574 0.146934 0.856625
vn -0.989146 0.146934 -0.000000
vn -0.494574 0.146934 -0.856625
vn 0.206905 0.910363 -0.358371
vn -0.206905 0.910363 -0.358371
vn -0.413810 0.910363 0.000000
vn -0.206905 0.910363 0.358371
vn 0.206905 0.910363 0.358371
vn 0.413810 0.910363 -0.000000
vn 0.000000 1.000000 -0.000000
s 1
g pCylinder13
f 17/26/1 18/2/2 1/27/3 2/28/4
f 16/4/5 17/1/1 2/3/4 3/5/6
f 15/6/7 16/4/5 3/5/6 4/7/8
f 14/8/9 15/6/7 4/7/8 5/9/10
f 13/10/11 14/8/9 5/9/10 6/11/12
f 13/10/11 6/11/12 1/27/3 18/2/2
f 12/12/13 13/10/11 18/2/2 7/13/14
f 11/14/15 14/8/9 13/10/11 12/12/13
f 10/15/16 15/6/7 14/8/9 11/14/15
f 9/16/17 16/4/5 15/6/7 10/15/16
f 8/17/18 17/1/1 16/4/5 9/16/17
f 7/13/14 18/2/2 17/26/1 8/29/18
f 19/18/19 7/13/14 8/29/18 20/30/20
f 20/19/20 8/17/18 9/16/17 21/20/21
f 21/20/21 9/16/17 10/15/16 22/21/22
f 22/21/22 10/15/16 11/14/15 23/22/23
f 23/22/23 11/14/15 12/12/13 24/23/24
f 24/23/24 12/12/13 7/13/14 19/18/19
f 25/24/25 19/18/19 20/30/20
f 25/25/25 20/19/20 21/20/21
f 25/25/25 21/20/21 22/21/22
f 25/25/25 22/21/22 23/22/23
f 25/24/25 23/22/23 24/23/24
f 25/24/25 24/23/24 19/18/19
s 2
f 42/31/26 43/32/27 26/33/28 27/34/29
f 41/35/30 42/36/26 27/37/29 28/38/31
f 40/39/32 41/35/30 28/38/31 29/40/33
f 39/41/34 40/39/32 29/40/33 30/42/35
f 38/43/36 39/41/34 30/42/35 31/44/37
f 38/43/36 31/44/37 26/33/28 43/32/27
f 37/45/38 38/43/36 43/32/27 32/46/39
f 36/47/40 39/41/34 38/43/36 37/45/38
f 35/48/41 40/39/32 39/41/34 36/47/40
f 34/49/42 41/35/30 40/39/32 35/48/41
f 33/50/43 42/36/26 41/35/30 34/49/42
f 32/46/39 43/32/27 42/31/26 33/51/43
f 44/52/44 32/46/39 33/51/43 45/53/45
f 45/54/45 33/50/43 34/49/42 46/55/46
f 46/55/46 34/49/42 35/48/41 47/56/47
f 47/56/47 35/48/41 36/47/40 48/57/48
f 48/57/48 36/47/40 37/45/38 49/58/49
f 49/58/49 37/45/38 32/46/39 44/52/44
f 50/59/50 44/52/44 45/53/45
f 50/60/50 45/54/45 46/55/46
f 50/60/50 46/55/46 47/56/47
f 50/60/50 47/56/47 48/57/48
f 50/59/50 48/57/48 49/58/49
f 50/59/50 49/58/49 44/52/44
s 3
f 67/61/51 68/62/52 51/63/53 52/64/54
f 66/65/55 67/66/51 52/67/54 53/68/56
f 65/69/57 66/65/55 53/68/56 54/70/58
f 64/71/59 65/69/57 54/70/58 55/72/60
f 63/73/61 64/71/59 55/72/60 56/74/62
f 63/73/61 56/74/62 51/63/53 68/62/52
f 62/75/63 63/73/61 68/62/52 57/76/64
f 61/77/65 64/71/59 63/73/61 62/75/63
f 60/78/66 65/69/57 64/71/59 61/77/65
f 59/79/67 66/65/55 65/69/57 60/78/66
f 58/80/68 67/66/51 66/65/55 59/79/67
f 57/76/64 68/62/52 67/61/51 58/81/68
f 69/82/69 57/76/64 58/81/68 70/83/70
f 70/84/70 58/80/68 59/79/67 71/85/71
f 71/85/71 59/79/67 60/78/66 72/86/72
f 72/86/72 60/78/66 61/77/65 73/87/73
f 73/87/73 61/77/65 62/75/63 74/88/74
f 74/88/74 62/75/63 57/76/64 69/82/69
f 75/89/75 69/82/69 70/83/70
f 75/90/75 70/84/70 71/85/71
f 75/90/75 71/85/71 72/86/72
f 75/90/75 72/86/72 73/87/73
f 75/89/75 73/87/73 74/88/74
f 75/89/75 74/88/74 69/82/69
s 4
f 92/91/76 93/92/77 76/93/78 77/94/79
f 91/95/80 92/96/76 77/97/79 78/98/81
f 90/99/82 91/95/80 78/98/81 79/100/83
f 89/101/84 90/99/82 79/100/83 80/102/85
f 88/103/86 89/101/84 80/102/85 81/104/87
f 88/103/86 81/104/87 76/93/78 93/92/77
f 87/105/88 88/103/86 93/92/77 82/106/89
f 86/107/90 89/101/84 88/103/86 87/105/88
f 85/108/91 90/99/82 89/101/84 86/107/90
f 84/109/92 91/95/80 90/99/82 85/108/91
f 83/110/93 92/96/76 91/95/80 84/109/92
f 82/106/89 93/92/77 92/91/76 83/111/93
f 94/112/94 82/106/89 83/111/93 95/113/95
f 95/114/95 83/110/93 84/109/92 96/115/96
f 96/115/96 84/109/92 85/108/91 97/116/97
f 97/116/97 85/108/91 86/107/90 98/117/98
f 98/117/98 86/107/90 87/105/88 99/118/99
f 99/118/99 87/105/88 82/106/89 94/112/94
f 100/119/100 94/112/94 95/113/95
f 100/120/100 95/114/95 96/115/96
f 100/120/100 96/115/96 97/116/97
f 100/120/100 97/116/97 98/117/98
f 100/119/100 98/117/98 99/118/99
f 100/119/100 99/118/99 94/112/94
