# This file uses centimeters as units for non-parametric coordinates.

g default
v 0.146744 0.000000 -0.393059
v -0.040801 0.000000 -0.393059
v -0.134573 0.000000 -0.230640
v -0.040801 0.000000 -0.068220
v 0.146744 0.000000 -0.068220
v 0.240517 0.000000 -0.230640
v 0.123218 1.114284 -0.352309
v -0.017274 1.114284 -0.352309
v -0.087521 1.114284 -0.230640
v -0.017274 1.114284 -0.108970
v 0.123218 1.114284 -0.108970
v 0.193464 1.114284 -0.230640
v 0.226311 0.351587 -0.230640
v 0.139642 0.351587 -0.080523
v -0.033698 0.351587 -0.080523
v -0.120367 0.351587 -0.230640
v -0.033698 0.351587 -0.380756
v 0.139642 0.351587 -0.380756
v 0.098898 1.180807 -0.310187
v 0.007045 1.180807 -0.310187
v -0.038881 1.180807 -0.230640
v 0.007045 1.180807 -0.151092
v 0.098898 1.180807 -0.151092
v 0.144825 1.180807 -0.230640
v 0.052972 1.074968 -0.230640
v -0.043055 0.000000 0.152760
v -0.180045 0.000000 0.074946
v -0.315928 0.000000 0.154676
v -0.314822 0.000000 0.312219
v -0.177833 0.000000 0.390032
v -0.041950 0.000000 0.310303
v -0.070138 0.779750 0.168650
v -0.179824 0.779750 0.106345
v -0.288625 0.779750 0.170184
v -0.287740 0.779750 0.296328
v -0.178053 0.779750 0.358633
v -0.069252 0.779750 0.294794
v -0.046808 0.246032 0.307543
v -0.177872 0.246032 0.384445
v -0.310002 0.246032 0.309391
v -0.311069 0.246032 0.157436
v -0.180006 0.246032 0.080534
v -0.047875 0.246032 0.155588
v -0.107805 0.826302 0.190752
v -0.179518 0.826302 0.150017
v -0.250651 0.826302 0.191755
v -0.250072 0.826302 0.274227
v -0.178360 0.826302 0.314961
v -0.107226 0.826302 0.273224
v -0.178939 0.772222 0.232489
v -0.335811 0.000000 -0.562029
v -0.481383 0.000000 -0.608068
v -0.594040 0.000000 -0.505018
v -0.561126 0.000000 -0.355928
v -0.415553 0.000000 -0.309889
v -0.302896 0.000000 -0.412940
v -0.369817 0.944602 -0.530923
v -0.471448 0.944602 -0.563065
v -0.550099 0.944602 -0.491121
v -0.527120 0.944602 -0.387035
v -0.425489 0.944602 -0.354892
v -0.346837 0.944602 -0.426837
v -0.309362 0.298048 -0.414985
v -0.417015 0.298048 -0.316513
v -0.556121 0.298048 -0.360507
v -0.587574 0.298048 -0.502973
v -0.479921 0.298048 -0.601445
v -0.340815 0.298048 -0.557451
v -0.397046 1.000996 -0.506015
v -0.463492 1.000996 -0.527030
v -0.514914 1.000996 -0.479993
v -0.499890 1.000996 -0.411942
v -0.433444 1.000996 -0.390928
v -0.382022 1.000996 -0.437964
v -0.448468 0.962088 -0.458979
v 0.064959 0.000000 -0.792196
v -0.075421 0.000000 -0.792196
v -0.145610 0.000000 -0.670623
v -0.075421 0.000000 -0.549051
v 0.064959 0.000000 -0.549051
v 0.135148 0.000000 -0.670624
v 0.045628 0.627855 -0.758714
v -0.056090 0.627855 -0.758714
v -0.106950 0.627855 -0.670624
v -0.056090 0.627855 -0.582533
v 0.045628 0.627855 -0.582533
v 0.096487 0.627855 -0.670623
v 0.117060 0.198105 -0.670624
v 0.055915 0.198105 -0.564715
v -0.066377 0.198105 -0.564715
v -0.127522 0.198105 -0.670623
v -0.066377 0.198105 -0.776532
v 0.055915 0.198105 -0.776532
v 0.028020 0.665338 -0.728217
v -0.038483 0.665338 -0.728217
v -0.071734 0.665338 -0.670624
v -0.038483 0.665338 -0.613030
v 0.028020 0.665338 -0.613030
v 0.061272 0.665338 -0.670623
v -0.005231 0.626749 -0.670624
v 0.498922 0.000000 -0.011450
v 0.308685 0.000000 -0.011450
v 0.213567 0.000000 0.153300
v 0.308685 0.000000 0.318050
v 0.498922 0.000000 0.318050
v 0.594040 0.000000 0.153300
v 0.469827 0.700434 0.038944
v 0.337780 0.700434 0.038944
v 0.271757 0.700434 0.153300
v 0.337780 0.700434 0.267656
v 0.469827 0.700434 0.267656
v 0.535851 0.700434 0.153300
v 0.569428 0.221005 0.153300
v 0.486616 0.221005 0.296735
v 0.320992 0.221005 0.296735
v 0.238180 0.221005 0.153300
v 0.320992 0.221005 0.009865
v 0.486616 0.221005 0.009865
v 0.446969 0.742247 0.078535
v 0.360638 0.742247 0.078535
v 0.317472 0.742247 0.153300
v 0.360638 0.742247 0.228065
v 0.446970 0.742247 0.228065
v 0.490135 0.742247 0.153300
v 0.403804 0.686897 0.153300
v 0.072098 0.000000 0.524318
v -0.082561 0.000000 0.524318
v -0.159890 0.000000 0.658257
v -0.082561 0.000000 0.792196
v 0.072098 0.000000 0.792196
v 0.149428 0.000000 0.658257
v 0.043519 0.627855 0.573820
v -0.053981 0.627855 0.573820
v -0.102731 0.627855 0.658257
v -0.053981 0.627855 0.742694
v 0.043519 0.627855 0.742694
v 0.092269 0.627855 0.658257
v 0.135192 0.198105 0.658257
v 0.064981 0.198105 0.779868
v -0.075443 0.198105 0.779868
v -0.145655 0.198105 0.658257
v -0.075443 0.198105 0.536646
v 0.064981 0.198105 0.536646
v 0.026641 0.665338 0.603052
v -0.037104 0.665338 0.603052
v -0.068976 0.665338 0.658257
v -0.037104 0.665338 0.713462
v 0.026641 0.665338 0.713462
v 0.058514 0.665338 0.658257
v -0.005231 0.613220 0.658257
vt 0.000000 0.295002
vt 0.833333 0.295002
vt 0.000000 0.000000
vt 0.166667 0.295002
vt 0.166667 0.000000
vt 0.333333 0.295002
vt 0.333333 0.000000
vt 0.500000 0.295002
vt 0.500000 0.000000
vt 0.666667 0.295002
vt 0.666667 0.000000
vt 0.666667 0.934951
vt 0.833333 0.934951
vt 0.500000 0.934951
vt 0.333333 0.934951
vt 0.166667 0.934951
vt 0.000000 0.934951
vt 0.833333 0.990768
vt 0.000000 0.990768
vt 0.166667 0.990768
vt 0.333333 0.990768
vt 0.500000 0.990768
vt 0.666667 0.990768
vt 0.750000 0.720306
vt 0.166667 0.720306
vt 1.000000 0.295002
vt 0.833333 0.000000
vt 1.000000 0.000000
vt 1.000000 0.934951
vt 1.000000 0.990768
vt 1.000000 0.295002
vt 0.833333 0.295002
vt 0.833333 0.000000
vt 1.000000 0.000000
vt 0.166667 0.295002
vt 0.000000 0.295002
vt 0.000000 0.000000
vt 0.166667 0.000000
vt 0.333333 0.295002
vt 0.333333 0.000000
vt 0.500000 0.295002
vt 0.500000 0.000000
vt 0.666667 0.295002
vt 0.666667 0.000000
vt 0.666667 0.934951
vt 0.833333 0.934951
vt 0.500000 0.934951
vt 0.333333 0.934951
vt 0.166667 0.934951
vt 0.000000 0.934951
vt 1.000000 0.934951
vt 0.833333 0.990768
vt 1.000000 0.990768
vt 0.000000 0.990768
vt 0.166667 0.990768
vt 0.333333 0.990768
vt 0.500000 0.990768
vt 0.666667 0.990768
vt 0.750000 0.720306
vt 0.166667 0.720306
vt 1.000000 0.295002
vt 0.833333 0.295002
vt 0.833333 0.000000
vt 1.000000 0.000000
vt 0.166667 0.295002
vt 0.000000 0.295002
vt 0.000000 0.000000
vt 0.166667 0.000000
vt 0.333333 0.295002
vt 0.333333 0.000000
vt 0.500000 0.295002
vt 0.500000 0.000000
vt 0.666667 0.295002
vt 0.666667 0.000000
vt 0.666667 0.934951
vt 0.833333 0.934951
vt 0.500000 0.934951
vt 0.333333 0.934951
vt 0.166667 0.934951
vt 0.000000 0.934951
vt 1.000000 0.934951
vt 0.833333 0.990768
vt 1.000000 0.990768
vt 0.000000 0.990768
vt 0.166667 0.990768
vt 0.333333 0.990768
vt 0.500000 0.990768
vt 0.666667 0.990768
vt 0.750000 0.720306
vt 0.166667 0.720306
vt 1.000000 0.295002
vt 0.833333 0.295002
vt 0.833333 0.000000
vt 1.000000 0.000000
vt 0.166667 0.295002
vt 0.000000 0.295002
vt 0.000000 0.000000
vt 0.166667 0.000000
vt 0.333333 0.295002
vt 0.333333 0.000000
vt 0.500000 0.295002
vt 0.500000 0.000000
vt 0.666667 0.295002
vt 0.666667 0.000000
vt 0.666667 0.934951
vt 0.833333 0.934951
vt 0.500000 0.934951
vt 0.333333 0.934951
vt 0.166667 0.934951
vt 0.000000 0.934951
vt 1.000000 0.934951
vt 0.833333 0.990768
vt 1.000000 0.990768
vt 0.000000 0.990768
vt 0.166667 0.990768
vt 0.333333 0.990768
vt 0.500000 0.990768
vt 0.666667 0.990768
vt 0.750000 0.720306
vt 0.166667 0.720306
vt 1.000000 0.295002
vt 0.833333 0.295002
vt 0.833333 0.000000
vt 1.000000 0.000000
vt 0.166667 0.295002
vt 0.000000 0.295002
vt 0.000000 0.000000
vt 0.166667 0.000000
vt 0.333333 0.295002
vt 0.333333 0.000000
vt 0.500000 0.295002
vt 0.500000 0.000000
vt 0.666667 0.295002
vt 0.666667 0.000000
vt 0.666667 0.934951
vt 0.833333 0.934951
vt 0.500000 0.934951
vt 0.333333 0.934951
vt 0.166667 0.934951
vt 0.000000 0.934951
vt 1.000000 0.934951
vt 0.833333 0.990768
vt 1.000000 0.990768
vt 0.000000 0.990768
vt 0.166667 0.990768
vt 0.333333 0.990768
vt 0.500000 0.990768
vt 0.666667 0.990768
vt 0.750000 0.720306
vt 0.166667 0.720306
vt 1.000000 0.295002
vt 0.833333 0.295002
vt 0.833333 0.000000
vt 1.000000 0.000000
vt 0.166667 0.295002
vt 0.000000 0.295002
vt 0.000000 0.000000
vt 0.166667 0.000000
vt 0.333333 0.295002
vt 0.333333 0.000000
vt 0.500000 0.295002
vt 0.500000 0.000000
vt 0.666667 0.295002
vt 0.666667 0.000000
vt 0.666667 0.934951
vt 0.833333 0.934951
vt 0.500000 0.934951
vt 0.333333 0.934951
vt 0.166667 0.934951
vt 0.000000 0.934951
vt 1.000000 0.934951
vt 0.833333 0.990768
vt 1.000000 0.990768
vt 0.000000 0.990768
vt 0.166667 0.990768
vt 0.333333 0.990768
vt 0.500000 0.990768
vt 0.666667 0.990768
vt 0.750000 0.720306
vt 0.166667 0.720306
vn -0.499557 0.042092 -0.865258
vn 0.499557 0.042092 -0.865258
vn 0.499593 0.040374 -0.865319
vn -0.499593 0.040374 -0.865319
vn -0.999114 0.042091 -0.000000
vn -0.999185 0.040373 -0.000000
vn -0.499557 0.042092 0.865258
vn -0.499593 0.040374 0.865319
vn 0.499557 0.042092 0.865258
vn 0.499593 0.040374 0.865319
vn 0.999114 0.042091 -0.000000
vn 0.999185 0.040373 -0.000000
vn 0.997064 0.076576 -0.000000
vn 0.498532 0.076576 -0.863483
vn 0.498532 0.076576 0.863483
vn -0.498532 0.076576 0.863483
vn -0.997064 0.076576 -0.000000
vn -0.498532 0.076576 -0.863483
vn 0.235787 0.881826 -0.408397
vn -0.235787 0.881826 -0.408397
vn -0.471574 0.881827 0.000000
vn -0.235787 0.881825 0.408397
vn 0.235787 0.881826 0.408397
vn 0.471573 0.881827 -0.000000
vn 0.000000 1.000000 0.000000
vn -0.007016 0.039503 -0.999195
vn 0.861820 0.039503 -0.505673
vn 0.862271 0.022707 -0.505937
vn -0.007019 0.022707 -0.999718
vn -0.868836 0.039503 -0.493522
vn -0.869290 0.022706 -0.493780
vn -0.861821 0.039503 0.505673
vn -0.862271 0.022707 0.505937
vn 0.007015 0.039503 0.999195
vn 0.007019 0.022707 0.999718
vn 0.868836 0.039503 0.493522
vn 0.869290 0.022706 0.493780
vn 0.865950 0.090454 0.491883
vn 0.858958 0.090454 -0.503993
vn 0.006992 0.090454 0.995876
vn -0.858958 0.090454 0.503994
vn -0.865950 0.090454 -0.491883
vn -0.006992 0.090454 -0.995876
vn 0.408244 0.880886 -0.239537
vn -0.003323 0.880886 -0.473318
vn -0.411567 0.880886 -0.233781
vn -0.408243 0.880885 0.239538
vn 0.003323 0.880885 0.473318
vn 0.411567 0.880886 0.233781
vn -0.000000 1.000000 -0.000000
vn -0.215345 0.047087 -0.975402
vn 0.737052 0.047087 -0.674194
vn 0.737679 0.022752 -0.674768
vn -0.215528 0.022752 -0.976233
vn -0.952395 0.047086 -0.301208
vn -0.953206 0.022750 -0.301465
vn -0.737052 0.047087 0.674194
vn -0.737679 0.022752 0.674768
vn 0.215345 0.047087 0.975402
vn 0.215528 0.022752 0.976233
vn 0.952395 0.047087 0.301208
vn 0.953206 0.022751 0.301464
vn 0.949730 0.088277 0.300365
vn 0.734989 0.088276 -0.672308
vn 0.214742 0.088277 0.972673
vn -0.734989 0.088277 0.672308
vn -0.949730 0.088277 -0.300365
vn -0.214742 0.088276 -0.972673
vn 0.487027 0.751227 -0.445491
vn -0.142295 0.751227 -0.644524
vn -0.629322 0.751226 -0.199032
vn -0.487027 0.751227 0.445492
vn 0.142295 0.751227 0.644523
vn 0.629322 0.751226 0.199031
vn 0.000000 1.000000 0.000000
vn -0.498994 0.063421 -0.864282
vn 0.498994 0.063421 -0.864282
vn 0.497930 0.090924 -0.862437
vn -0.497930 0.090924 -0.862437
vn -0.997987 0.063420 -0.000000
vn -0.995858 0.090925 -0.000000
vn -0.498994 0.063421 0.864282
vn -0.497930 0.090924 0.862437
vn 0.498994 0.063421 0.864282
vn 0.497930 0.090924 0.862437
vn 0.997987 0.063420 -0.000000
vn 0.995858 0.090925 -0.000000
vn 0.995933 0.090096 -0.000000
vn 0.497967 0.090097 -0.862503
vn 0.497968 0.090097 0.862503
vn -0.497967 0.090097 0.862503
vn -0.995933 0.090096 -0.000000
vn -0.497967 0.090097 -0.862503
vn 0.245750 0.870875 -0.425656
vn -0.245750 0.870876 -0.425656
vn -0.491502 0.870877 -0.000000
vn -0.245750 0.870876 0.425655
vn 0.245750 0.870876 0.425655
vn 0.491502 0.870877 -0.000000
vn 0.000000 1.000000 0.000000
vn -0.498192 0.084958 -0.862894
vn 0.498192 0.084958 -0.862894
vn 0.496928 0.110684 -0.860704
vn -0.496928 0.110684 -0.860704
vn -0.996385 0.084957 0.000000
vn -0.993856 0.110684 0.000000
vn -0.498192 0.084958 0.862894
vn -0.496928 0.110684 0.860704
vn 0.498192 0.084958 0.862894
vn 0.496928 0.110684 0.860704
vn 0.996385 0.084957 -0.000000
vn 0.993856 0.110683 -0.000000
vn 0.993286 0.115687 -0.000000
vn 0.496643 0.115687 -0.860211
vn 0.496643 0.115687 0.860211
vn -0.496643 0.115687 0.860211
vn -0.993286 0.115687 -0.000000
vn -0.496643 0.115687 -0.860211
vn 0.202427 0.914381 -0.350616
vn -0.202427 0.914381 -0.350615
vn -0.404854 0.914381 0.000000
vn -0.202427 0.914381 0.350615
vn 0.202427 0.914381 0.350616
vn 0.404854 0.914381 -0.000000
vn -0.000000 1.000000 0.000000
vn -0.498017 0.088976 -0.862590
vn 0.498017 0.088976 -0.862590
vn 0.498716 0.071673 -0.863797
vn -0.498716 0.071673 -0.863797
vn -0.996034 0.088975 -0.000000
vn -0.997428 0.071673 -0.000000
vn -0.498017 0.088976 0.862591
vn -0.498715 0.071673 0.863797
vn 0.498017 0.088976 0.862591
vn 0.498715 0.071673 0.863798
vn 0.996034 0.088975 -0.000000
vn 0.997428 0.071673 -0.000000
vn 0.991108 0.133057 -0.000000
vn 0.495555 0.133058 -0.858325
vn 0.495555 0.133057 0.858325
vn -0.495554 0.133057 0.858325
vn -0.991109 0.133057 -0.000000
vn -0.495555 0.133058 -0.858325
vn 0.225266 0.892759 -0.390176
vn -0.225266 0.892759 -0.390176
vn -0.450534 0.892760 -0.000000
vn -0.225266 0.892759 0.390175
vn 0.225266 0.892759 0.390175
vn 0.450533 0.892760 -0.000000
vn 0.000000 1.000000 0.000001
s 1
g pCylinder12
f 17/26/1 18/2/2 1/27/3 2/28/4
f 16/4/5 17/1/1 2/3/4 3/5/6
f 15/6/7 16/4/5 3/5/6 4/7/8
f 14/8/9 15/6/7 4/7/8 5/9/10
f 13/10/11 14/8/9 5/9/10 6/11/12
f 13/10/11 6/11/12 1/27/3 18/2/2
f 12/12/13 13/10/11 18/2/2 7/13/14
f 11/14/15 14/8/9 13/10/11 12/12/13
f 10/15/16 15/6/7 14/8/9 11/14/15
f 9/16/17 16/4/5 15/6/7 10/15/16
f 8/17/18 17/1/1 16/4/5 9/16/17
f 7/13/14 18/2/2 17/26/1 8/29/18
f 19/18/19 7/13/14 8/29/18 20/30/20
f 20/19/20 8/17/18 9/16/17 21/20/21
f 21/20/21 9/16/17 10/15/16 22/21/22
f 22/21/22 10/15/16 11/14/15 23/22/23
f 23/22/23 11/14/15 12/12/13 24/23/24
f 24/23/24 12/12/13 7/13/14 19/18/19
f 25/24/25 19/18/19 20/30/20
f 25/25/25 20/19/20 21/20/21
f 25/25/25 21/20/21 22/21/22
f 25/25/25 22/21/22 23/22/23
f 25/24/25 23/22/23 24/23/24
f 25/24/25 24/23/24 19/18/19
s 2
f 42/31/26 43/32/27 26/33/28 27/34/29
f 41/35/30 42/36/26 27/37/29 28/38/31
f 40/39/32 41/35/30 28/38/31 29/40/33
f 39/41/34 40/39/32 29/40/33 30/42/35
f 38/43/36 39/41/34 30/42/35 31/44/37
f 38/43/36 31/44/37 26/33/28 43/32/27
f 37/45/38 38/43/36 43/32/27 32/46/39
f 36/47/40 39/41/34 38/43/36 37/45/38
f 35/48/41 40/39/32 39/41/34 36/47/40
f 34/49/42 41/35/30 40/39/32 35/48/41
f 33/50/43 42/36/26 41/35/30 34/49/42
f 32/46/39 43/32/27 42/31/26 33/51/43
f 44/52/44 32/46/39 33/51/43 45/53/45
f 45/54/45 33/50/43 34/49/42 46/55/46
f 46/55/46 34/49/42 35/48/41 47/56/47
f 47/56/47 35/48/41 36/47/40 48/57/48
f 48/57/48 36/47/40 37/45/38 49/58/49
f 49/58/49 37/45/38 32/46/39 44/52/44
f 50/59/50 44/52/44 45/53/45
f 50/60/50 45/54/45 46/55/46
f 50/60/50 46/55/46 47/56/47
f 50/60/50 47/56/47 48/57/48
f 50/59/50 48/57/48 49/58/49
f 50/59/50 49/58/49 44/52/44
s 3
f 67/61/51 68/62/52 51/63/53 52/64/54
f 66/65/55 67/66/51 52/67/54 53/68/56
f 65/69/57 66/65/55 53/68/56 54/70/58
f 64/71/59 65/69/57 54/70/58 55/72/60
f 63/73/61 64/71/59 55/72/60 56/74/62
f 63/73/61 56/74/62 51/63/53 68/62/52
f 62/75/63 63/73/61 68/62/52 57/76/64
f 61/77/65 64/71/59 63/73/61 62/75/63
f 60/78/66 65/69/57 64/71/59 61/77/65
f 59/79/67 66/65/55 65/69/57 60/78/66
f 58/80/68 67/66/51 66/65/55 59/79/67
f 57/76/64 68/62/52 67/61/51 58/81/68
f 69/82/69 57/76/64 58/81/68 70/83/70
f 70/84/70 58/80/68 59/79/67 71/85/71
f 71/85/71 59/79/67 60/78/66 72/86/72
f 72/86/72 60/78/66 61/77/65 73/87/73
f 73/87/73 61/77/65 62/75/63 74/88/74
f 74/88/74 62/75/63 57/76/64 69/82/69
f 75/89/75 69/82/69 70/83/70
f 75/90/75 70/84/70 71/85/71
f 75/90/75 71/85/71 72/86/72
f 75/90/75 72/86/72 73/87/73
f 75/89/75 73/87/73 74/88/74
f 75/89/75 74/88/74 69/82/69
s 4
f 92/91/76 93/92/77 76/93/78 77/94/79
f 91/95/80 92/96/76 77/97/79 78/98/81
f 90/99/82 91/95/80 78/98/81 79/100/83
f 89/101/84 90/99/82 79/100/83 80/102/85
f 88/103/86 89/101/84 80/102/85 81/104/87
f 88/103/86 81/104/87 76/93/78 93/92/77
f 87/105/88 88/103/86 93/92/77 82/106/89
f 86/107/90 89/101/84 88/103/86 87/105/88
f 85/108/91 90/99/82 89/101/84 86/107/90
f 84/109/92 91/95/80 90/99/82 85/108/91
f 83/110/93 92/96/76 91/95/80 84/109/92
f 82/106/89 93/92/77 92/91/76 83/111/93
f 94/112/94 82/106/89 83/111/93 95/113/95
f 95/114/95 83/110/93 84/109/92 96/115/96
f 96/115/96 84/109/92 85/108/91 97/116/97
f 97/116/97 85/108/91 86/107/90 98/117/98
f 98/117/98 86/107/90 87/105/88 99/118/99
f 99/118/99 87/105/88 82/106/89 94/112/94
f 100/119/100 94/112/94 95/113/95
f 100/120/100 95/114/95 96/115/96
f 100/120/100 96/115/96 97/116/97
f 100/120/100 97/116/97 98/117/98
f 100/119/100 98/117/98 99/118/99
f 100/119/100 99/118/99 94/112/94
s 5
f 117/121/101 118/122/102 101/123/103 102/124/104
f 116/125/105 117/126/101 102/127/104 103/128/106
f 115/129/107 116/125/105 103/128/106 104/130/108
f 114/131/109 115/129/107 104/130/108 105/132/110
f 113/133/111 114/131/109 105/132/110 106/134/112
f 113/133/111 106/134/112 101/123/103 118/122/102
f 112/135/113 113/133/111 118/122/102 107/136/114
f 111/137/115 114/131/109 113/133/111 112/135/113
f 110/138/116 115/129/107 114/131/109 111/137/115
f 109/139/117 116/125/105 115/129/107 110/138/116
f 108/140/118 117/126/101 116/125/105 109/139/117
f 107/136/114 118/122/102 117/121/101 108/141/118
f 119/142/119 107/136/114 108/141/118 120/143/120
f 120/144/120 108/140/118 109/139/117 121/145/121
f 121/145/121 109/139/117 110/138/116 122/146/122
f 122/146/122 110/138/116 111/137/115 123/147/123
f 123/147/123 111/137/115 112/135/113 124/148/124
f 124/148/124 112/135/113 107/136/114 119/142/119
f 125/149/125 119/142/119 120/143/120
f 125/150/125 120/144/120 121/145/121
f 125/150/125 121/145/121 122/146/122
f 125/150/125 122/146/122 123/147/123
f 125/149/125 123/147/123 124/148/124
f 125/149/125 124/148/124 119/142/119
s 6
f 142/151/126 143/152/127 126/153/128 127/154/129
f 141/155/130 142/156/126 127/157/129 128/158/131
f 140/159/132 141/155/130 128/158/131 129/160/133
f 139/161/134 140/159/132 129/160/133 130/162/135
f 138/163/136 139/161/134 130/162/135 131/164/137
f 138/163/136 131/164/137 126/153/128 143/152/127
f 137/165/138 138/163/136 143/152/127 132/166/139
f 136/167/140 139/161/134 138/163/136 137/165/138
f 135/168/141 140/159/132 139/161/134 136/167/140
f 134/169/142 141/155/130 140/159/132 135/168/141
f 133/170/143 142/156/126 141/155/130 134/169/142
f 132/166/139 143/152/127 142/151/126 133/171/143
f 144/172/144 132/166/139 133/171/143 145/173/145
f 145/174/145 133/170/143 134/169/142 146/175/146
f 146/175/146 134/169/142 135/168/141 147/176/147
f 147/176/147 135/168/141 136/167/140 148/177/148
f 148/177/148 136/167/140 137/165/138 149/178/149
f 149/178/149 137/165/138 132/166/139 144/172/144
f 150/179/150 144/172/144 145/173/145
f 150/180/150 145/174/145 146/175/146
f 150/180/150 146/175/146 147/176/147
f 150/180/150 147/176/147 148/177/148
f 150/179/150 148/177/148 149/178/149
f 150/179/150 149/178/149 144/172/144
