# This file uses centimeters as units for non-parametric coordinates.

mtllib Rock1Low.mtl
g default
v 0.738385 0.147700 0.124060
v 0.657772 0.243166 0.314151
v 0.694431 0.198657 -0.210280
v 0.630051 0.324380 0.010324
v 0.549061 0.430761 0.228189
v 0.407731 0.460375 0.444423
v 0.395744 0.608362 0.110577
v 0.246911 0.679998 0.339303
v -0.137128 0.726716 0.334426
v -0.298652 -0.277001 0.833556
v -0.147647 -0.133308 0.885331
v -0.348790 0.050231 0.797514
v 0.029560 0.001128 0.869634
v -0.169305 0.193216 0.786884
v -0.361946 0.382575 0.670825
v 0.209478 0.109930 0.780177
v 0.023652 0.307740 0.711866
v -0.159728 0.500551 0.612203
v -0.315241 0.626743 0.442313
v 0.383236 0.195361 0.656300
v 0.220657 0.412434 0.614287
v 0.043793 0.605832 0.504802
v 0.538200 0.248615 0.497636
v 0.374920 -0.563097 0.669570
v 0.507909 -0.513449 0.545466
v 0.656399 -0.447665 0.401961
v 0.608745 -0.240013 0.533737
v 0.771508 -0.340024 0.233791
v 0.723015 -0.147215 0.387069
v 0.821344 -0.184973 0.066439
v 0.778565 -0.021720 0.242781
v 0.818705 0.012121 -0.079165
v -0.758423 -0.758344 -0.112369
v -0.379668 -0.827564 -0.238656
v -0.493480 -0.830116 -0.111028
v 0.245253 0.027200 -0.786797
v -0.111465 -0.432318 0.826151
v 0.173929 -0.477918 0.814367
v 0.034835 -0.316316 0.878383
v 0.328560 -0.392951 0.780074
v 0.202658 -0.202405 0.852882
v 0.477589 -0.319359 0.672373
v 0.365694 -0.107513 0.757559
v 0.514534 -0.028692 0.628019
v 0.643088 0.043042 0.492340
v -0.436671 -0.817362 0.166701
v -0.381559 -0.734339 0.431164
v -0.457769 -0.609197 0.486493
v -0.338436 -0.574678 0.595685
v -0.902868 -0.482701 -0.290197
v -0.967455 -0.292876 -0.320270
v -0.873938 -0.306226 -0.570591
v -1.005569 -0.066192 -0.320809
v -0.884483 -0.056676 -0.597912
v -0.689746 -0.086466 -0.823698
v -0.952805 0.177550 -0.274654
v -0.809788 0.190354 -0.551401
v -0.620171 0.165902 -0.781485
v -0.398714 0.102507 -0.928440
v -0.846734 0.405031 -0.201588
v -0.696768 0.423630 -0.476759
v -0.498238 0.395300 -0.710142
v -0.697052 0.599584 -0.104656
v -0.554207 0.645405 -0.376367
v -0.490488 0.693691 0.010188
v -0.493382 -0.819564 -0.385805
v -0.322159 -0.818705 -0.466001
v -0.845978 -0.641056 -0.227563
v -0.757896 -0.705226 -0.399257
v -0.599021 -0.758833 -0.561671
v -0.371415 -0.767263 -0.652742
v -0.827049 -0.523441 -0.503953
v -0.665833 -0.573468 -0.696148
v -0.411700 -0.594868 -0.813117
v -0.695524 -0.341007 -0.786267
v -0.434421 -0.361402 -0.894138
v -0.443089 -0.126393 -0.942509
v -0.193775 -0.132955 -0.950513
v -0.164813 -0.343895 -0.890333
v -0.129132 -0.570671 -0.820340
v 0.026050 -0.066460 -0.880721
v -0.119988 -0.809410 -0.454718
v 0.148117 -0.690664 -0.583979
v 0.317632 -0.195409 -0.710677
v 0.380744 -0.415857 -0.619435
v 0.453208 0.117489 -0.690970
v 0.541559 -0.088482 -0.604342
v 0.613500 -0.308577 -0.488688
v 0.707319 0.064041 -0.442810
v 0.421538 0.397889 -0.604515
v 0.577952 0.246477 -0.541632
v -0.267274 -0.802712 0.299808
v -0.108129 -0.807878 0.441095
v -0.228407 -0.705209 0.548285
v 0.047784 -0.770323 0.575861
v -0.090549 -0.654360 0.666241
v -0.228659 -0.514846 0.712137
v 0.174495 -0.679827 0.676546
v 0.037852 -0.580187 0.774353
v -0.164302 0.753067 -0.438703
v 0.044184 0.636736 -0.587103
v 0.046502 0.784185 0.159760
v 0.217992 0.734085 -0.047813
v 0.332415 0.608505 -0.237134
v 0.410824 0.495095 -0.414256
v 0.495942 0.492001 -0.107830
v 0.555210 0.365599 -0.318719
v -0.643919 -0.482349 0.448472
v -0.464173 -0.457650 0.600727
v -0.360455 0.783906 -0.223743
v -0.346217 0.607847 -0.602434
v -0.105326 0.491844 -0.757880
v -0.268579 0.302889 -0.867882
v -0.149929 -0.822794 -0.278929
v 0.103784 -0.782940 -0.382453
v 0.039175 -0.815906 -0.189672
v 0.396638 -0.614024 -0.473656
v 0.340045 -0.741029 -0.270944
v 0.252489 -0.808539 -0.070550
v 0.145386 -0.831464 0.116471
v 0.628633 -0.516128 -0.326544
v 0.577083 -0.679010 -0.129262
v 0.477355 -0.792845 0.077870
v 0.336510 -0.824185 0.269338
v 0.797390 -0.157725 -0.312738
v 0.806828 -0.374161 -0.142437
v 0.749127 -0.538358 0.052478
v 0.634392 -0.657854 0.252305
v 0.486891 -0.707980 0.434201
v 0.330076 -0.728338 0.579291
v -0.225239 -0.828641 -0.127491
v -0.326648 -0.831764 0.019490
v -0.151995 -0.825480 0.148030
v 0.024585 -0.829440 0.286029
v -0.507576 0.523394 0.472351
v -0.697133 0.389411 0.449315
v -0.553007 0.235396 0.671903
v -0.856138 0.217986 0.397160
v -0.716006 0.068275 0.642817
v -0.501186 -0.104645 0.766532
v -0.953583 0.014680 0.321811
v -0.812389 -0.127564 0.554018
v -0.594060 -0.254769 0.669755
v -0.391966 -0.379856 0.713197
v -0.996033 -0.191544 0.245836
v -0.826682 -0.289307 0.438036
v -0.632142 -0.369919 0.546234
v -0.982613 -0.386698 0.171110
v -0.816229 -0.441440 0.341296
v -0.937430 -0.558617 0.093568
v -0.858032 -0.681806 0.008948
v -0.611572 -0.811653 0.032379
v -0.710025 -0.725750 0.162554
v -0.538526 -0.742333 0.297136
v -0.605857 -0.608540 0.379206
v 0.081761 -0.281809 -0.808585
v -0.111026 -0.752617 -0.654958
v -0.559281 0.617746 0.239804
v -0.756765 0.519720 0.180790
v -0.921392 0.342829 0.105261
v -1.015879 0.121702 0.030989
v -1.064556 -0.106828 -0.028658
v -1.030186 -0.321593 -0.071021
v -0.951533 -0.490772 -0.092809
v -0.646429 -0.812889 -0.257802
v -0.070291 0.145256 -0.923765
v -0.046482 -0.827997 -0.014095
v 0.194460 -0.817451 0.436322
v 0.132280 -0.500140 -0.728832
v 0.243154 0.504748 -0.645642
v -0.776274 -0.589019 0.256356
v -0.304886 0.745789 0.148740
v -0.152828 0.823078 -0.037254
v 0.026566 0.791955 -0.237030
v 0.176441 0.663880 -0.388718
v 0.709074 0.090781 0.359966
v 0.149009 0.300761 -0.812072
v -0.287076 -0.825131 -0.330981
v -0.890853 -0.603070 -0.103577
v 0.366867 0.276794 -0.722067
v -0.518438 -0.515344 0.515360
v -0.219225 0.037533 -0.965652
v 0.254099 -0.587075 0.738787
v 0.282064 0.562819 -0.484222
v -0.401433 0.668147 0.278678
vt 0.324177 0.052843
vt 0.327000 0.091386
vt 0.277813 0.102376
vt 0.263243 0.060493
vt 0.379444 0.063688
vt 0.363885 0.089932
vt 0.297550 0.139544
vt 0.342514 0.126095
vt 0.226446 0.127218
vt 0.200293 0.085052
vt 0.970215 0.427411
vt 0.988651 0.359600
vt 0.992188 0.289373
vt 0.423294 0.095362
vt 0.385120 0.115456
vt 0.253487 0.162117
vt 0.319610 0.174142
vt 0.362099 0.160629
vt 0.145508 0.126800
vt 0.179589 0.161773
vt 0.172824 0.038582
vt 0.927203 0.407048
vt 0.941677 0.350250
vt 0.941716 0.289250
vt 0.980775 0.217606
vt 0.454807 0.140754
vt 0.407050 0.151424
vt 0.280438 0.196365
vt 0.212585 0.194885
vt 0.339784 0.206511
vt 0.378695 0.195765
vt 0.872866 0.528709
vt 0.102868 0.179495
vt 0.141923 0.205929
vt 0.896475 0.456982
vt 0.896578 0.347049
vt 0.889214 0.392335
vt 0.892510 0.296502
vt 0.927094 0.228256
vt 0.951444 0.151671
vt 0.472906 0.192690
vt 0.423570 0.192466
vt 0.306607 0.226198
vt 0.244501 0.226017
vt 0.179375 0.233936
vt 0.355309 0.235762
vt 0.389636 0.231009
vt 0.851775 0.486947
vt 0.060916 0.155776
vt 0.865251 0.429800
vt 0.860840 0.384094
vt 0.854952 0.352597
vt 0.843927 0.308532
vt 0.430227 0.235539
vt 0.328736 0.253819
vt 0.839188 0.456137
vt 0.834942 0.407454
vt 0.151836 0.501480
vt 0.107904 0.471484
vt 0.141504 0.445194
vt 0.173476 0.472866
vt 0.539390 0.256467
vt 0.540829 0.332832
vt 0.074294 0.424316
vt 0.114085 0.406844
vt 0.201089 0.448852
vt 0.173805 0.422666
vt 0.198893 0.487751
vt 0.198429 0.512468
vt 0.198240 0.550141
vt 0.582279 0.254257
vt 0.590601 0.323165
vt 0.563942 0.408758
vt 0.225116 0.473323
vt 0.242697 0.500071
vt 0.261772 0.533265
vt 0.588541 0.185213
vt 0.630405 0.249140
vt 0.637849 0.311536
vt 0.609187 0.388225
vt 0.260305 0.445916
vt 0.286651 0.470364
vt 0.602527 0.118728
vt 0.585100 0.053945
vt 0.634254 0.184918
vt 0.678729 0.243320
vt 0.685607 0.300694
vt 0.654699 0.369392
vt 0.290440 0.414110
vt 0.319708 0.434200
vt 0.647538 0.121609
vt 0.622905 0.059399
vt 0.349404 0.448393
vt 0.681433 0.183970
vt 0.726422 0.236552
vt 0.735539 0.289169
vt 0.700965 0.355887
vt 0.695329 0.125061
vt 0.666236 0.061960
vt 0.392880 0.438428
vt 0.342419 0.401533
vt 0.360978 0.415521
vt 0.728776 0.183800
vt 0.749424 0.341073
vt 0.743171 0.131230
vt 0.717477 0.067878
vt 0.685800 0.007813
vt 0.385448 0.399580
vt 0.788426 0.142505
vt 0.771666 0.185269
vt 0.768402 0.079336
vt 0.740586 0.012697
vt 0.876870 0.244529
vt 0.830634 0.261806
vt 0.856467 0.197917
vt 0.900715 0.174229
vt 0.797383 0.325012
vt 0.783889 0.276878
vt 0.815562 0.218759
vt 0.827380 0.163017
vt 0.864013 0.130406
vt 0.773069 0.228868
vt 0.813517 0.370448
vt 0.803983 0.188171
vt 0.818923 0.099343
vt 0.527624 0.195073
vt 0.768612 0.392100
vt 0.794316 0.443682
vt 0.720929 0.406771
vt 0.232229 0.422209
vt 0.203981 0.397561
vt 0.259867 0.392129
vt 0.179428 0.373182
vt 0.150232 0.390944
vt 0.229764 0.369419
vt 0.285353 0.362518
vt 0.316544 0.383300
vt 0.201057 0.347124
vt 0.136434 0.355861
vt 0.162166 0.353090
vt 0.253688 0.339962
vt 0.308593 0.332344
vt 0.338204 0.353323
vt 0.172527 0.328489
vt 0.222291 0.317149
vt 0.099632 0.360083
vt 0.139817 0.317104
vt 0.277285 0.309742
vt 0.330082 0.302976
vt 0.359191 0.324633
vt 0.364929 0.374084
vt 0.189890 0.295648
vt 0.246153 0.285622
vt 0.055328 0.365150
vt 0.101355 0.308595
vt 0.154852 0.275735
vt 0.302547 0.279677
vt 0.350064 0.277550
vt 0.377812 0.295261
vt 0.388081 0.346246
vt 0.213684 0.260437
vt 0.274238 0.254664
vt 0.055328 0.302015
vt 0.115691 0.255904
vt 0.389801 0.264647
vt 0.365122 0.258656
vt 0.409567 0.314383
vt 0.414337 0.375162
vt 0.072381 0.238836
vt 0.442800 0.341990
vt 0.425242 0.277364
vt 0.466069 0.297458
vt 0.476581 0.246453
vt 0.799432 0.028426
vt 0.529445 0.263770
vt 0.796221 0.498746
vt 0.027327 0.225175
vt 0.737230 0.497370
vt 0.736385 0.453247
vt 0.683560 0.480905
vt 0.664540 0.519508
vt 0.698089 0.453224
vt 0.606766 0.473924
vt 0.640595 0.442493
vt 0.676915 0.419714
vt 0.544031 0.182796
vt 0.562156 0.114094
vt 0.313230 0.494347
vt 0.436322 0.416808
vt 0.640218 0.010024
vt 0.605441 0.009200
vt 0.931828 0.486467
vt 0.109271 0.092844
vt 0.732135 0.543161
vt 0.008711 0.298036
vt 0.007812 0.372525
vt 0.030016 0.444513
vt 0.075202 0.501688
vt 0.133515 0.537761
vt 0.803568 0.546390
vt 0.507223 0.127718
vt 0.909241 0.097956
vt 0.857293 0.056552
vt 0.511891 0.327493
vt 0.478707 0.379997
vt 0.464496 0.067298
vt 0.250471 0.013220
vt 0.402405 0.024797
vt 0.328950 0.007812
vn 0.900730 0.427519 0.076890
vn 0.964241 0.257591 -0.062338
vn 0.862474 0.482216 -0.153641
vn 0.818675 0.573812 -0.022612
vn 0.955053 0.146319 0.257808
vn 0.994602 -0.025056 0.100689
vn 0.815518 0.503102 0.286039
vn 0.873834 0.291366 0.389256
vn 0.754321 0.627181 0.194020
vn 0.572149 0.627148 0.528517
vn 0.650511 0.460087 0.604281
vn 0.756635 0.190421 0.625494
vn 0.851800 0.202405 -0.483187
vn 0.783119 0.380491 -0.491886
vn 0.775785 0.600984 -0.192292
vn 0.916152 -0.047992 -0.397948
vn 0.732332 0.673807 -0.098362
vn 0.639481 0.764835 0.078049
vn 0.413749 0.819544 0.396434
vn 0.319439 0.556730 0.766819
vn 0.481998 0.388778 0.785194
vn 0.145656 0.736614 0.660443
vn 0.599958 0.777455 -0.188717
vn 0.453793 0.889800 -0.048258
vn 0.184281 0.960283 0.209517
vn -0.060178 0.895540 0.440893
vn -0.261239 0.937570 0.229603
vn -0.343119 0.879690 0.329264
vn -0.214884 0.792693 0.570493
vn -0.051473 0.997564 0.047082
vn -0.035160 0.635464 0.771330
vn -0.340687 -0.220195 0.914028
vn -0.218130 -0.400477 0.889965
vn 0.048206 -0.157015 0.986419
vn -0.137264 0.060094 0.988710
vn -0.459897 -0.467222 0.755114
vn -0.388368 -0.555581 0.735187
vn -0.435181 -0.030749 0.899818
vn -0.540524 -0.335490 0.771545
vn -0.270380 0.223260 0.936509
vn 0.325455 0.036602 0.944849
vn 0.104614 0.261245 0.959587
vn -0.069772 0.396287 0.915472
vn -0.237066 0.524600 0.817676
vn -0.436291 0.391415 0.810213
vn -0.621652 0.184278 0.761309
vn 0.530332 0.128171 0.838046
vn 0.314555 0.353208 0.881079
vn 0.126750 0.496495 0.858736
vn -0.413104 0.690030 0.594310
vn -0.605549 0.564700 0.560735
vn 0.649517 0.148167 0.745771
vn -0.466680 0.830866 0.303103
vn 0.594960 -0.412987 0.689539
vn 0.401947 -0.760512 0.509962
vn 0.586124 -0.703396 0.402110
vn 0.718473 -0.354647 0.598349
vn 0.323675 -0.503717 0.800939
vn 0.109386 -0.733362 0.670981
vn 0.507342 -0.170262 0.844757
vn 0.196246 -0.330995 0.923001
vn 0.679028 -0.123990 0.723566
vn 0.734129 -0.638958 0.229755
vn 0.818164 -0.305639 0.487025
vn 0.768475 -0.102927 0.631548
vn 0.862894 -0.505342 0.006638
vn 0.931772 -0.205403 0.299352
vn 0.875154 -0.042198 0.482001
vn 0.923689 -0.317767 -0.214063
vn -0.524934 -0.851143 0.000660
vn -0.281238 -0.947127 0.154452
vn -0.484881 -0.780890 0.393829
vn -0.673636 -0.718722 0.172203
vn -0.362435 -0.926519 -0.101015
vn -0.101664 -0.994735 0.012929
vn -0.797834 -0.570470 -0.194999
vn -0.674352 -0.674528 -0.300435
vn -0.842285 -0.516103 -0.155546
vn -0.015883 -0.999426 -0.029938
vn 0.019693 -0.999678 -0.016000
vn -0.018543 -0.998943 0.042066
vn 0.016755 -0.998877 -0.044316
vn 0.065413 -0.996061 -0.059865
vn -0.175556 -0.970942 -0.162641
vn -0.016572 -0.979398 -0.201260
vn -0.150823 -0.967017 0.205259
vn 0.431884 -0.061388 -0.899838
vn 0.566304 0.031030 -0.823612
vn 0.624916 -0.112080 -0.772605
vn 0.474937 -0.193410 -0.858503
vn 0.299758 0.343283 -0.890113
vn 0.481288 0.265497 -0.835388
vn 0.389931 -0.096507 -0.915773
vn 0.222025 0.228665 -0.947849
vn 0.404584 -0.209618 -0.890153
vn -0.096159 -0.560681 0.822430
vn -0.259682 -0.684955 0.680737
vn -0.029732 -0.998510 0.045749
vn -0.140599 -0.965286 0.220125
vn -0.376057 -0.801064 0.465702
vn -0.340272 -0.792421 0.506244
vn -0.147735 -0.941856 0.301797
vn -0.323565 -0.748039 0.579434
vn -0.472120 -0.575455 0.667798
vn -0.509727 -0.581015 0.634508
vn -0.435933 -0.574139 0.693056
vn -0.496504 -0.535016 0.683551
vn -0.532642 -0.515229 0.671440
vn -0.484447 -0.544017 0.685097
vn -0.889225 -0.375652 -0.261085
vn -0.809305 -0.409779 -0.420840
vn -0.931125 -0.211814 -0.296884
vn -0.847131 -0.200821 -0.491976
vn -0.912548 -0.387844 -0.129740
vn -0.970059 -0.232140 -0.071389
vn -0.948163 0.098458 -0.302147
vn -0.836644 0.124348 -0.533446
vn -0.999074 0.042693 0.005299
vn -0.603421 -0.234287 -0.762229
vn -0.560010 -0.480023 -0.675253
vn -0.617601 0.077593 -0.782655
vn -0.884864 0.378461 -0.271630
vn -0.755758 0.412985 -0.508206
vn -0.954316 0.290776 0.068783
vn -0.564421 0.390473 -0.727296
vn -0.300037 0.293785 -0.907561
vn -0.285391 -0.048091 -0.957204
vn -0.217480 -0.274179 -0.936765
vn -0.797639 0.564004 -0.213711
vn -0.670256 0.577325 -0.466318
vn -0.855661 0.497239 0.143516
vn -0.456248 0.567187 -0.685665
vn -0.140434 0.492842 -0.858711
vn 0.053914 0.113450 -0.992080
vn 0.147455 -0.150645 -0.977529
vn -0.638465 0.766244 -0.072348
vn -0.526341 0.775208 -0.349310
vn -0.666472 0.705852 0.239975
vn -0.291583 0.737072 -0.609676
vn 0.014805 0.614734 -0.788596
vn -0.430932 0.897030 0.098156
vn -0.295681 0.944436 -0.143576
vn -0.042399 0.906615 -0.419823
vn -0.423385 -0.777661 -0.464746
vn -0.106885 -0.815604 -0.568652
vn 0.201873 -0.788793 -0.580562
vn 0.143185 -0.965429 -0.217818
vn -0.177511 -0.509567 -0.841921
vn 0.205405 -0.463391 -0.862020
vn 0.184087 -0.254963 -0.949266
vn 0.425031 -0.391692 -0.816043
vn 0.395368 -0.719137 -0.571424
vn 0.256822 -0.931911 -0.256094
vn 0.110327 -0.988694 -0.101545
vn 0.511292 -0.651275 -0.560734
vn 0.368447 -0.874030 -0.316732
vn 0.523086 -0.358360 -0.773278
vn 0.682581 -0.291397 -0.670202
vn 0.687674 -0.548579 -0.475570
vn 0.621181 0.559778 -0.548436
vn 0.656796 0.708049 -0.259395
vn 0.367841 0.647130 -0.667769
vn 0.505166 0.790850 -0.345490
vn -0.026031 -0.996679 0.077152
vn 0.125863 -0.960133 0.249606
vn -0.056589 -0.874211 0.482237
vn 0.229925 0.954757 -0.188611
vn 0.188581 0.777486 -0.599961
vn 0.419791 0.849638 -0.319203
vn -0.659997 -0.441178 0.608084
vn -0.599190 -0.568924 0.563292
vn -0.548403 -0.498983 0.671022
vn -0.723801 -0.332408 0.604662
vn 0.022173 -0.999400 -0.026609
vn 0.183213 -0.970786 -0.154943
vn 0.045567 -0.998551 -0.028616
vn 0.593751 -0.761414 -0.260210
vn 0.434833 -0.898670 -0.057557
vn 0.259092 -0.959389 0.111556
vn -0.789182 0.365095 0.493860
vn -0.897804 0.129528 0.420917
vn -0.738286 -0.109139 0.665599
vn -0.920224 -0.105367 0.376943
vn -0.883671 -0.321894 0.339867
vn -0.812979 -0.505643 0.288774
s 1
g Group23574
usemtl initialShadingGroup
f 1/1/1 32/4/2 3/207/3 4/209/4
f 1/1/1 31/2/5 30/3/6 32/4/2
f 1/1/1 2/5/7 176/6/8 31/2/5
f 1/1/1 4/209/4 5/208/9 2/5/7
f 2/5/7 5/208/9 6/206/10 23/14/11
f 2/5/7 23/14/11 45/15/12 176/6/8
f 3/11/3 89/192/13 91/35/14 107/22/15
f 3/207/3 32/4/2 125/10/16 89/21/13
f 3/11/3 107/22/15 106/23/17 4/12/4
f 4/12/4 106/23/17 7/24/18 5/13/9
f 5/13/9 7/24/18 8/39/19 6/25/10
f 6/206/10 21/201/20 20/26/21 23/14/11
f 6/25/10 8/39/19 22/116/22 21/40/20
f 7/24/18 106/23/17 104/36/23 103/38/24
f 7/24/18 103/38/24 102/113/25 8/39/19
f 8/39/19 102/113/25 9/115/26 22/116/22
f 9/115/26 172/119/27 185/124/28 19/120/29
f 9/115/26 102/113/25 173/114/30 172/119/27
f 9/115/26 19/120/29 18/121/31 22/116/22
f 10/170/32 37/167/33 39/171/34 11/172/35
f 10/170/32 144/168/36 97/160/37 37/167/33
f 10/170/32 140/205/38 143/189/39 144/168/36
f 10/170/32 11/172/35 12/204/40 140/205/38
f 11/172/35 39/171/34 41/54/41 13/173/42
f 11/172/35 13/173/42 14/175/43 12/204/40
f 12/174/40 14/203/43 15/125/44 137/111/45
f 12/174/40 137/111/45 139/106/46 140/112/38
f 13/173/42 41/54/41 43/42/47 16/41/48
f 13/173/42 16/41/48 17/126/49 14/175/43
f 14/203/43 17/202/49 18/121/31 15/125/44
f 15/125/44 18/121/31 19/120/29 135/109/50
f 15/125/44 135/109/50 136/105/51 137/111/45
f 16/41/48 20/26/21 21/201/20 17/126/49
f 16/41/48 43/42/47 44/27/52 20/26/21
f 17/202/49 21/40/20 22/116/22 18/121/31
f 19/120/29 185/124/28 158/110/53 135/109/50
f 20/26/21 44/27/52 45/15/12 23/14/11
f 24/46/54 130/55/55 129/43/56 25/30/57
f 24/46/54 183/166/58 98/158/59 130/55/55
f 24/46/54 40/47/60 38/165/61 183/166/58
f 24/46/54 25/30/57 42/31/62 40/47/60
f 25/30/57 129/43/56 128/28/63 26/17/64
f 25/30/57 26/17/64 27/18/65 42/31/62
f 26/17/64 128/28/63 127/16/66 28/7/67
f 26/17/64 28/7/67 29/8/68 27/18/65
f 27/18/65 44/27/52 43/42/47 42/31/62
f 27/18/65 29/8/68 45/15/12 44/27/52
f 28/7/67 127/16/66 126/9/69 30/3/6
f 28/7/67 30/3/6 31/2/5 29/8/68
f 29/8/68 31/2/5 176/6/8 45/15/12
f 30/3/6 126/9/69 125/10/16 32/4/2
f 33/66/70 152/130/71 153/81/72 151/74/73
f 33/66/70 165/67/74 35/131/75 152/130/71
f 33/66/70 68/61/76 69/60/77 165/67/74
f 33/66/70 151/74/73 179/68/78 68/61/76
f 34/133/79 131/138/80 132/135/81 35/131/75
f 34/133/79 178/140/82 114/144/83 131/138/80
f 34/133/79 66/134/84 67/139/85 178/140/82
f 34/133/79 35/131/75 165/67/74 66/134/84
f 35/131/75 132/135/81 46/132/86 152/130/71
f 36/176/87 86/48/88 87/32/89 84/200/90
f 36/176/87 177/128/91 180/56/92 86/48/88
f 36/176/87 81/178/93 166/179/94 177/128/91
f 36/176/87 84/200/90 156/194/95 81/178/93
f 37/167/33 99/159/96 38/165/61 39/171/34
f 37/167/33 97/160/37 96/150/97 99/159/96
f 38/165/61 40/47/60 41/54/41 39/171/34
f 38/165/61 99/159/96 98/158/59 183/166/58
f 40/47/60 42/31/62 43/42/47 41/54/41
f 46/132/86 132/135/81 133/141/98 92/136/99
f 46/132/86 154/89/100 153/81/72 152/130/71
f 46/132/86 92/136/99 47/137/101 154/89/100
f 47/137/101 92/136/99 93/142/102 94/143/103
f 47/137/101 48/101/104 155/90/105 154/89/100
f 47/137/101 94/143/103 49/151/106 48/101/104
f 48/101/104 181/102/107 108/93/108 155/90/105
f 48/101/104 49/151/106 109/108/109 181/102/107
f 49/151/106 94/143/103 96/150/97 97/160/37
f 49/151/106 97/160/37 144/168/36 109/108/109
f 50/58/110 72/59/111 69/60/77 68/61/76
f 50/58/110 51/199/112 52/198/113 72/59/111
f 50/58/110 164/69/114 163/70/115 51/199/112
f 50/58/110 68/61/76 179/68/78 164/69/114
f 51/62/112 53/71/116 54/72/117 52/63/113
f 51/62/112 163/186/115 162/77/118 53/71/116
f 52/198/113 75/197/119 73/64/120 72/59/111
f 52/63/113 54/72/117 55/80/121 75/73/119
f 53/71/116 56/78/122 57/79/123 54/72/117
f 53/71/116 162/77/118 161/85/124 56/78/122
f 54/72/117 57/79/123 58/88/125 55/80/121
f 55/80/121 58/88/125 59/185/126 77/184/127
f 55/80/121 77/184/127 76/183/128 75/73/119
f 56/78/122 60/86/129 61/87/130 57/79/123
f 56/78/122 161/85/124 160/94/131 60/86/129
f 57/79/123 61/87/130 62/97/132 58/88/125
f 58/88/125 62/97/132 113/129/133 59/185/126
f 59/185/126 113/129/133 166/179/94 182/182/134
f 59/185/126 182/182/134 78/180/135 77/184/127
f 60/86/129 63/95/136 64/96/137 61/87/130
f 60/86/129 160/94/131 159/103/138 63/95/136
f 61/87/130 64/96/137 111/104/139 62/97/132
f 62/97/132 111/104/139 112/127/140 113/129/133
f 63/95/136 65/122/141 110/118/142 64/96/137
f 63/95/136 159/103/138 158/110/53 65/122/141
f 64/96/137 110/118/142 100/117/143 111/104/139
f 65/122/141 172/119/27 173/114/30 110/118/142
f 65/122/141 158/110/53 185/124/28 172/119/27
f 66/134/84 70/65/144 71/146/145 67/139/85
f 66/134/84 165/67/74 69/60/77 70/65/144
f 67/139/85 71/146/145 157/155/146 82/147/147
f 67/139/85 82/147/147 114/144/83 178/140/82
f 69/60/77 72/59/111 73/64/120 70/65/144
f 70/65/144 73/64/120 74/154/148 71/146/145
f 71/146/145 74/154/148 80/163/149 157/155/146
f 73/64/120 75/197/119 76/196/128 74/154/148
f 74/154/148 76/196/128 79/195/150 80/163/149
f 76/183/128 77/184/127 78/180/135 79/181/150
f 78/180/135 81/178/93 156/194/95 79/181/150
f 78/180/135 182/182/134 166/179/94 81/178/93
f 79/195/150 156/177/95 169/169/151 80/163/149
f 80/163/149 169/169/151 83/164/152 157/155/146
f 82/147/147 157/155/146 83/164/152 115/156/153
f 82/147/147 115/156/153 116/152/154 114/144/83
f 83/164/152 117/34/155 118/45/156 115/156/153
f 83/164/152 169/169/151 85/33/157 117/34/155
f 84/49/90 85/33/157 169/169/151 156/177/95
f 84/49/90 87/193/89 88/19/158 85/33/157
f 85/33/157 88/19/158 121/20/159 117/34/155
f 86/48/88 91/35/14 89/192/13 87/32/89
f 86/48/88 180/56/92 90/50/160 91/35/14
f 87/193/89 89/21/13 125/10/16 88/19/158
f 88/19/158 125/10/16 126/9/69 121/20/159
f 90/50/160 105/37/161 107/22/15 91/35/14
f 90/50/160 170/57/162 184/51/163 105/37/161
f 90/50/160 180/56/92 177/128/91 170/57/162
f 92/136/99 133/141/98 134/148/164 93/142/102
f 93/142/102 134/148/164 168/157/165 95/149/166
f 93/142/102 95/149/166 96/150/97 94/143/103
f 95/149/166 168/157/165 130/55/55 98/158/59
f 95/149/166 98/158/59 99/159/96 96/150/97
f 100/117/143 110/118/142 173/114/30 174/53/167
f 100/117/143 101/123/168 112/127/140 111/104/139
f 100/117/143 174/53/167 175/52/169 101/123/168
f 101/123/168 175/52/169 184/51/163 170/57/162
f 101/123/168 170/57/162 177/128/91 112/127/140
f 102/113/25 103/38/24 174/53/167 173/114/30
f 103/38/24 104/36/23 175/52/169 174/53/167
f 104/36/23 106/23/17 107/22/15 105/37/161
f 104/36/23 105/37/161 184/51/163 175/52/169
f 108/93/108 149/188/170 171/82/171 155/90/105
f 108/191/108 147/190/172 146/92/173 149/84/170
f 108/93/108 181/102/107 109/108/109 147/100/172
f 109/108/109 144/168/36 143/189/39 147/100/172
f 112/127/140 177/128/91 166/179/94 113/129/133
f 114/144/83 116/152/154 167/145/174 131/138/80
f 115/156/153 118/45/156 119/161/175 116/152/154
f 116/152/154 119/161/175 120/153/176 167/145/174
f 117/34/155 121/20/159 122/29/177 118/45/156
f 118/45/156 122/29/177 123/44/178 119/161/175
f 119/161/175 123/44/178 124/162/179 120/153/176
f 120/153/176 124/162/179 168/157/165 134/148/164
f 120/153/176 134/148/164 133/141/98 167/145/174
f 121/20/159 126/9/69 127/16/66 122/29/177
f 122/29/177 127/16/66 128/28/63 123/44/178
f 123/44/178 128/28/63 129/43/56 124/162/179
f 124/162/179 129/43/56 130/55/55 168/157/165
f 131/138/80 167/145/174 133/141/98 132/135/81
f 135/109/50 158/110/53 159/103/138 136/105/51
f 136/105/51 138/98/180 139/106/46 137/111/45
f 136/105/51 159/103/138 160/94/131 138/98/180
f 138/98/180 141/91/181 142/99/182 139/106/46
f 138/98/180 160/94/131 161/85/124 141/91/181
f 139/106/46 142/99/182 143/107/39 140/112/38
f 141/91/181 145/83/183 146/92/173 142/99/182
f 141/91/181 161/85/124 162/77/118 145/83/183
f 142/99/182 146/92/173 147/190/172 143/107/39
f 145/83/183 148/187/184 149/84/170 146/92/173
f 145/83/183 162/77/118 163/186/115 148/187/184
f 148/76/184 150/75/185 171/82/171 149/188/170
f 148/76/184 163/70/115 164/69/114 150/75/185
f 150/75/185 164/69/114 179/68/78 151/74/73
f 150/75/185 151/74/73 153/81/72 171/82/171
f 153/81/72 154/89/100 155/90/105 171/82/171
