# This file uses centimeters as units for non-parametric coordinates.

v 0.614971 0.092357 -1.446872
v 0.584096 -0.020122 -0.992036
v 0.903475 0.388271 -1.373569
v 0.269408 0.544427 -1.057538
v 0.635337 0.682507 -1.121656
v 0.506320 0.466276 -1.236405
v 0.590250 0.648483 -1.482967
v 0.508057 0.478336 -1.305599
v 0.219187 0.505980 -1.471892
v 0.430577 0.445746 -1.299708
v 0.476101 0.445419 -1.260831
v 0.454136 0.446553 -1.227289
v -0.058007 0.478204 -1.305419
v 0.324542 0.467784 -1.180023
v 0.212551 0.320024 -1.340068
v 0.451231 0.437731 -1.523129
v 0.229202 0.305794 -1.391263
v 0.088712 0.385345 -1.698155
v 0.179502 0.296173 -1.409417
v 0.191059 0.301567 -1.378238
v 0.150593 0.316056 -1.358647
v 0.670138 0.565251 -1.144371
v 0.481173 0.617587 -0.801033
v 0.660280 0.439945 -0.871507
v 0.790305 0.555384 -0.615481
v 0.712953 0.424382 -0.826458
v 1.023685 0.494168 -0.930346
v 0.775634 0.415315 -0.895654
v 0.708297 0.419018 -0.878881
v 0.688250 0.418155 -0.927401
v 0.084511 0.608773 -0.469193
v 0.446564 0.598066 -0.311050
v 0.329708 0.421282 -0.480652
v 0.591292 0.505876 -0.634516
v 0.370747 0.421428 -0.536935
v 0.251822 0.503072 -0.839290
v 0.295508 0.414521 -0.585627
v 0.313327 0.406165 -0.528441
v 0.274267 0.436885 -0.505374
v 0.222206 0.806726 0.223189
v 0.353192 0.793694 0.618458
v 0.459966 0.628887 0.390303
v 0.720785 0.800732 0.502954
v 0.530632 0.630345 0.368221
v 0.644026 0.814741 0.092380
v 0.520702 0.639903 0.281783
v 0.485323 0.605345 0.336119
v 0.440580 0.626645 0.316915
v -1.099716 0.047148 1.074426
v -0.746640 0.100190 0.898321
v -0.959001 0.335922 0.944846
v -0.712045 -0.190756 0.880879
v -0.644068 0.011228 0.299756
v -0.800374 0.294738 0.503632
v -0.465148 0.590997 0.532199
v -0.267832 0.219588 0.491936
v -0.359679 -0.020122 -0.242371
v -0.659555 0.121834 -0.059293
v -0.466137 0.388271 0.243671
v -0.176477 0.092357 0.175081
v -0.497213 0.127401 -0.835057
v -0.391789 0.183899 -0.280471
v -0.360063 0.605451 -0.555808
v -0.423033 -0.172469 -0.227945
v -0.713101 0.168997 -0.073014
v -0.354640 0.213794 -0.217049
v -0.576109 0.447627 -0.211811
v -0.310993 -0.068763 -0.196001
v -0.482921 0.109598 -0.417336
v -0.368680 0.049302 -0.040719
v -0.312224 0.330727 -0.213348
v -0.419955 -0.238292 -0.067579
v -1.022712 0.251707 -0.956426
v -0.748798 0.172720 -0.691520
v -0.841976 0.472626 -0.785497
v -0.830100 -0.101693 -0.683457
v -0.833888 -0.013106 -0.714440
v -0.619852 0.277831 -1.243692
v -0.983674 0.150161 -1.022341
v -0.484974 -0.055684 -1.024965
v -1.458810 0.047148 0.353658
v -1.105734 0.100190 0.177553
v -1.313831 0.332751 0.227360
v -1.071139 -0.190756 0.160111
v -1.432844 0.195625 0.059909
v -1.206339 0.243298 -0.252632
v -1.311584 0.482250 -0.073027
v -1.248343 -0.030586 -0.324651
v -1.253723 0.011228 -0.100795
v -1.410029 0.294738 0.103081
v -1.074803 0.590997 0.131648
v -0.877487 0.219588 0.091386
v -0.742417 0.279378 0.214752
v -0.847958 0.216746 -0.236840
v -0.868071 0.574730 -0.025753
v -0.829699 -0.125559 -0.197557
v -0.823094 -0.005461 0.161590
v -1.184281 0.253552 0.051689
v -1.192571 0.615802 0.451459
v -0.975804 0.209304 0.662602
v -0.386808 -0.020122 -0.537807
v -0.543053 0.121834 -0.852498
v -0.861722 0.388271 -0.686221
v -0.818638 0.092357 -0.391685
v -1.332078 0.047149 -0.878738
v -1.045835 0.100190 -0.607186
v -1.170521 0.327944 -0.804663
v -1.017612 -0.190756 -0.580643
v -1.176092 0.168997 -0.590816
v -1.063846 0.213794 -0.221165
v -1.051337 0.455798 -0.441960
v -1.088619 -0.068763 -0.179519
v -1.108134 -0.020122 -0.283833
v -1.264379 0.121834 -0.598524
v -1.583048 0.388271 -0.432247
v -1.539964 0.092357 -0.137711
v 1.166840 0.061786 -0.043661
v 0.846633 0.123156 -0.274189
v 0.986655 0.395906 -0.107890
v 0.815093 -0.213478 -0.296690
v 0.669158 0.020224 -0.013650
v 0.922356 0.348256 0.029797
v 0.791607 0.691036 -0.280199
v 0.664130 0.261304 -0.436097
v 0.056967 -0.016049 -0.013017
v 0.358583 0.148199 0.167179
v 0.536700 0.456476 -0.145027
v 0.341168 0.114093 -0.369470
v -0.308546 0.276459 0.375434
v 0.038191 0.367799 0.033136
v -0.213032 0.812079 0.146974
v 0.099223 -0.208331 0.036340
v 0.371362 0.202769 0.136509
v 0.077032 0.254600 -0.113712
v 0.184754 0.525153 0.079865
v 0.075346 -0.072328 -0.162140
v 0.894766 0.233578 0.070084
v 0.512717 0.288737 0.015086
v 0.713619 0.550772 0.029247
v 0.468525 -0.028156 0.085784
v -0.266409 0.298466 0.906175
v -0.159444 0.207076 0.540440
v -0.199249 0.554077 0.666651
v -0.114465 -0.110429 0.608645
v -0.140123 -0.007931 0.626419
v -0.708173 0.328693 0.683327
v -0.342918 0.180974 0.902304
v -0.577365 -0.057195 0.462141
v 1.492217 0.061786 0.682365
v 1.172010 0.123156 0.451837
v 1.312954 0.392237 0.612835
v 1.140470 -0.213478 0.429337
v 0.824018 0.233578 0.796110
v 0.441969 0.288737 0.741112
v 0.649919 0.565213 0.750663
v 0.397778 -0.028156 0.811810
v 0.598411 0.020224 0.712376
v 0.851609 0.348256 0.755823
v 0.720859 0.691036 0.445827
v 0.593382 0.261304 0.289929
v 0.639701 0.330483 0.112962
v 0.289135 0.258016 0.416569
v 0.485324 0.672215 0.336118
v 0.315404 -0.138043 0.382125
v 0.630200 0.000914 0.209111
v 0.701047 0.300601 0.579941
v 1.058731 0.719737 0.401202
v 1.144711 0.249405 0.111070
v -0.191888 -0.016049 0.148506
v -0.397686 0.148199 0.433269
v -0.102192 0.456476 0.637919
v 0.138439 0.114093 0.462692
v -0.053653 0.061786 1.143826
v 0.053456 0.123157 0.764084
v -0.063289 0.386676 0.966357
v 0.063812 -0.213478 0.726751
v 0.128574 0.331692 0.871751
v 0.403495 0.414680 0.600350
v 0.202254 0.863002 0.692048
v 0.451886 -0.108769 0.602891
v 0.368643 -0.016049 0.800906
v 0.162845 0.148199 1.085670
v 0.458339 0.456476 1.290319
v 0.698970 0.114093 1.115093
v -0.473819 0.047148 -1.627470
v -0.446773 0.100190 -1.233840
v -0.408197 0.335922 -1.447788
v -0.443950 -0.190756 -1.195200
v -0.132939 0.011228 -0.787603
v -0.261177 0.294738 -1.010206
v -0.416262 0.590997 -0.711641
v -0.454844 0.219588 -0.513989
v 0.258448 -0.020122 -0.316865
v 0.204537 0.121834 -0.664049
v -0.149469 0.388271 -0.601776
v -0.197348 0.092357 -0.307981
v 0.237765 0.168997 -0.708222
v 0.233133 0.213794 -0.321934
v 0.313327 0.447627 -0.528440
v 0.196939 -0.068763 -0.289713
v -0.212554 0.195625 -1.014697
v -0.010932 0.243298 -0.685554
v -0.128316 0.469769 -0.849211
v 0.071694 -0.030586 -0.696688
v 1.172342 0.251707 -0.654924
v 0.822573 0.172720 -0.503713
v 0.945122 0.472626 -0.553668
v 0.846343 -0.101693 -0.581879
v 0.876405 -0.013106 -0.573481
v 1.282917 0.277831 -0.172647
v 1.218217 0.150161 -0.593571
v 1.029168 -0.055684 -0.132085
v 0.130105 0.047148 -1.560596
v 0.157151 0.100190 -1.166967
v 0.191059 0.332751 -1.378238
v 0.159974 -0.190756 -1.128326
v 0.391369 0.195625 -1.423837
v 0.592992 0.243298 -1.094694
v 0.467560 0.482250 -1.260831
v 0.675618 -0.030586 -1.105828
v 0.470984 0.011228 -1.196743
v 0.342747 0.294738 -1.419346
v 0.187662 0.590997 -1.120781
v 0.149080 0.219588 -0.923129
v -0.016690 0.329238 -0.845778
v 0.440812 0.231827 -0.769844
v 0.253626 0.816033 -0.869461
v 0.397530 -0.300560 -0.768067
v 0.063373 -0.005461 -0.899860
v 0.303526 0.253552 -1.191169
v -0.062422 0.615802 -1.352313
v -0.340609 0.209304 -1.233226
v 0.541657 -0.020122 -0.228483
v 0.892218 0.121834 -0.251930
v 0.861036 0.388271 -0.610017
v 0.572532 0.092357 -0.683319
v 1.512514 0.047149 -0.970407
v 1.151874 0.100190 -0.810363
v 1.382088 0.327944 -0.849673
v 1.116529 -0.190756 -0.794494
v 0.893643 0.168997 -0.936922
v 0.509228 0.213794 -0.975204
v 0.708297 0.455798 -0.878881
v 0.480284 -0.068763 -1.014068
v -0.433551 0.608773 -0.023280
v -0.426535 0.598066 -0.418302
v -0.538273 0.421282 -0.245285
v -0.780777 0.505876 -0.427745
v -0.604218 0.412716 -0.257286
v -0.839520 0.503072 -0.035671
v -0.622071 0.414521 -0.173401
v -0.576109 0.412852 -0.211811
v -0.539814 0.422152 -0.184601
v -0.816644 0.443662 -0.736685
v -0.702977 0.586788 -0.547015
v -0.579929 0.517615 -0.916470
v -1.042482 0.653481 -0.666081
v -0.882149 0.461654 -0.755019
v -0.969525 0.594326 -1.051463
v -0.870833 0.454606 -0.840874
v -0.841976 0.436185 -0.785497
v -0.797273 0.430351 -0.801058
v -0.334516 0.544427 -0.648398
v 0.031413 0.682507 -0.712516
v -0.096906 0.467446 -0.826645
v -0.013674 0.648482 -1.073827
v -0.102556 0.464490 -0.882026
v -0.384737 0.505980 -1.062752
v -0.159456 0.441787 -0.879254
v -0.128315 0.448159 -0.849212
v -0.153549 0.448545 -0.814693
v -0.152693 0.437731 -1.590003
v -0.367146 0.310296 -1.462636
v -0.392838 0.317423 -1.409036
v -0.515212 0.385345 -1.765029
v -0.408197 0.292278 -1.447788
v -0.428247 0.299929 -1.488455
v -0.446479 0.310730 -1.427270
v -0.661931 0.478204 -1.372293
v -0.279382 0.474471 -1.246897
v 0.690738 0.637154 -0.257670
v 0.506427 0.796917 0.064890
v 0.676197 0.548084 0.039010
v 0.813282 0.757549 0.260898
v 0.722425 0.544664 0.070024
v 1.041692 0.592669 -0.031744
v 0.756623 0.518396 0.024464
v 0.713619 0.513941 0.029247
v 0.703166 0.526215 -0.012213
v 1.090570 0.560531 -0.351370
v 0.749798 0.556212 -0.137029
v 0.947024 0.374502 -0.120815
v 0.932958 0.513703 0.179553
v 0.971870 0.366256 -0.066817
v 1.299136 0.453090 0.012317
v 1.030755 0.354262 -0.097354
v 0.986655 0.354394 -0.107890
v 0.995308 0.366759 -0.150454
v 0.040870 1.037338 0.296998
v -0.143552 1.021713 -0.165908
v -0.189953 0.759330 0.094186
v -0.560206 0.887182 -0.004190
v -0.271931 0.751330 0.107931
v -0.437390 0.883089 0.480504
v -0.246555 0.750358 0.207053
v -0.210714 0.739085 0.145458
v -0.155245 0.773269 0.165279
v 0.619990 0.637154 0.468356
v 0.435680 0.796917 0.790917
v 0.606373 0.546730 0.764895
v 0.742534 0.757549 0.986924
v 0.658515 0.560684 0.810414
v 0.970945 0.592669 0.694282
v 0.703453 0.522976 0.747024
v 0.649919 0.530982 0.757352
v 0.632677 0.523910 0.718914
v 1.415947 0.560531 0.374657
v 1.075175 0.548475 0.588998
v 1.269855 0.377512 0.605002
v 1.258335 0.513703 0.905580
v 1.298622 0.361048 0.650506
v 1.624513 0.453090 0.738343
v 1.344329 0.349915 0.623849
v 1.312954 0.357138 0.612835
v 1.323715 0.372921 0.569183
v 0.430940 1.005495 0.832204
v 0.287367 1.066049 0.467546
v 0.227239 0.832345 0.650385
v -0.052823 0.994079 0.586974
v 0.158936 0.833925 0.662158
v 0.040477 0.923250 0.967632
v 0.172165 0.823435 0.754581
v 0.202254 0.793406 0.692048
v 0.252396 0.826720 0.707601
v 0.159790 0.627662 1.029974
v -0.166114 0.660598 0.791940
v -0.065903 0.401080 0.926227
v -0.368192 0.424232 1.035689
v -0.103976 0.366427 0.965459
v -0.073107 0.356895 1.308390
v -0.052157 0.354609 1.012437
v -0.063289 0.368538 0.957895
v -0.014792 0.397596 0.963146
v 0.285262 0.711605 -0.134062
v -0.067626 0.699216 0.043595
v 0.137515 0.494671 0.061958
v 0.088901 0.592549 0.361518
v 0.157588 0.484760 0.125910
v 0.463256 0.589304 0.231016
v 0.240142 0.486848 0.102667
v 0.184754 0.475038 0.079865
v 0.191943 0.495678 0.035076
v -0.167838 0.520566 0.621511
v -0.052874 0.686167 0.432624
v -0.437141 0.606131 0.495683
v -0.000231 0.763333 0.788530
v -0.153575 0.541382 0.688021
v -0.375280 0.694889 0.903337
v -0.234831 0.533227 0.717967
v -0.199249 0.509031 0.666651
v -0.233829 0.505164 0.634329
v -0.791872 0.478204 1.150147
v -0.822964 0.474471 0.748773
v -0.929115 0.317423 0.915786
v -1.188415 0.437731 0.763527
v -0.988472 0.310296 0.912642
v -1.210839 0.385345 1.165462
v -0.988853 0.299929 0.978973
v -0.959001 0.297538 0.945027
v -0.925357 0.310730 0.972316
v -0.464690 0.535884 -0.058904
v -0.091020 0.383584 -0.015396
v -0.290659 0.293307 -0.166476
v -0.060830 0.334672 -0.385344
v -0.291654 0.282779 -0.230503
v -0.428605 0.479221 -0.482729
v -0.349400 0.302728 -0.241633
v -0.325498 0.288763 -0.213348
v -0.361735 0.325462 -0.172379
v -0.626572 0.809397 -0.400917
v -0.131027 0.795892 -0.348680
v -0.339631 0.569120 -0.510811
v -0.080224 0.679620 -0.792721
v -0.313640 0.562206 -0.589765
v -0.566379 0.676083 -0.909624
v -0.413180 0.561366 -0.613442
v -0.375347 0.549183 -0.553051
v -0.418709 0.581168 -0.513183
v -1.150966 0.478204 0.429378
v -1.182058 0.467784 0.028004
v -1.286839 0.320024 0.192860
v -1.547509 0.437731 0.042758
v -1.340503 0.305794 0.197141
v -1.569933 0.385345 0.444693
v -1.338184 0.296173 0.250003
v -1.313831 0.293085 0.227360
v -1.280205 0.316056 0.257203
v -1.281828 0.565251 -0.304793
v -0.892253 0.617587 -0.262132
v -1.026092 0.438789 -0.400454
v -0.839612 0.555384 -0.618813
v -1.004719 0.424382 -0.466386
v -1.219948 0.494168 -0.713416
v -1.092678 0.415315 -0.497696
v -1.051337 0.409198 -0.441960
v -1.088441 0.442040 -0.404820
v -1.323959 0.520573 -0.633309
v -0.961587 0.549038 -0.810962
v -1.127084 0.324742 -0.784774
v -1.083263 0.344753 -1.103270
v -1.144086 0.294793 -0.836732
v -1.461973 0.286554 -0.969030
v -1.209785 0.284579 -0.812734
v -1.170521 0.297116 -0.800063
v -1.183550 0.321732 -0.756721
v 0.334722 0.909934 -0.594857
v 0.555284 0.898670 -0.948054
v 0.311518 0.756231 -0.884544
v 0.231674 0.904753 -1.157201
v 0.249402 0.757491 -0.924828
v -0.035292 0.916861 -0.835965
v 0.189219 0.765752 -0.861994
v 0.253626 0.737652 -0.869461
v 0.267416 0.754293 -0.822764
v -0.836448 0.546803 0.030850
v -0.726214 0.697912 0.228160
v -0.645650 0.690985 -0.206067
v -0.917573 0.538542 -0.000595
v -1.125330 0.685804 0.104993
v -0.904226 0.537282 -0.073417
v -0.868071 0.531010 -0.025753
v -0.830248 0.535344 -0.056416
v -1.056460 0.679721 -0.274116
v -1.311584 0.446005 -0.077997
v -1.303912 0.466276 -0.118193
v -1.368469 0.478336 -0.093231
v -1.047792 0.544427 0.031886
v -1.247492 0.682507 -0.281380
v -1.275458 0.446553 -0.073510
v -1.333282 0.445746 -0.023952
v -1.563800 0.648483 -0.101026
v -1.411107 0.505980 0.237346
v 1.282779 0.520573 -1.057141
v 1.307686 0.549038 -0.654334
v 1.347046 0.324742 -0.817202
v 1.382088 0.289745 -0.849673
v 1.404616 0.284579 -0.882828
v 1.342823 0.321732 -0.880111
v 1.401550 0.294793 -0.812952
v 1.624307 0.344753 -0.654455
v 1.645758 0.286554 -1.055680
v 0.945122 0.436069 -0.553668
v 0.932404 0.461654 -0.602463
v 0.890325 0.443662 -0.549018
v 0.671550 0.586788 -0.516885
v 0.965445 0.517615 -0.261418
v 0.942327 0.430351 -0.506416
v 1.007334 0.454606 -0.559051
v 0.911841 0.653481 -0.784655
v 1.239675 0.594326 -0.569325
v 0.934658 0.121834 -1.015483
vt 0.859641 0.746892
vt 1.000088 0.929684
vt 0.698449 0.852894
vt 0.668125 0.688560
vt 0.668125 0.976437
vt 0.547066 0.861237
vt 0.379174 0.976437
vt 0.495471 0.871421
vt 0.379174 0.688560
vt 0.497696 0.809623
vt 0.526488 0.840172
vt 0.547446 0.816507
vt 0.987786 0.008828
vt 0.987786 0.256825
vt 0.886557 0.151390
vt 0.748161 0.256825
vt 0.849293 0.151400
vt 0.748161 0.008828
vt 0.852780 0.115238
vt 0.867677 0.132077
vt 0.889524 0.106867
vt 0.668125 0.688560
vt 0.668125 0.976437
vt 0.548144 0.859676
vt 0.379174 0.976437
vt 0.497840 0.868279
vt 0.379174 0.688560
vt 0.490791 0.801059
vt 0.526488 0.840172
vt 0.552858 0.812412
vt 0.668125 0.688560
vt 0.668125 0.976437
vt 0.545542 0.862175
vt 0.379174 0.976437
vt 0.495471 0.870959
vt 0.379174 0.688560
vt 0.495587 0.807631
vt 0.526488 0.840172
vt 0.549513 0.816239
vt 0.667348 0.691189
vt 0.667468 0.975887
vt 0.549368 0.869697
vt 0.381236 0.974144
vt 0.502419 0.864038
vt 0.381517 0.690629
vt 0.490510 0.806962
vt 0.522013 0.838424
vt 0.546086 0.814558
vt 0.576891 0.663654
vt 0.863671 0.444092
vt 0.892112 0.712417
vt 0.717429 0.242000
vt 1.000088 0.929684
vt 0.845070 1.018276
vt 0.698449 0.852894
vt 0.859641 0.746892
vt 1.000088 0.929684
vt 0.845070 1.018276
vt 0.698449 0.852894
vt 0.859641 0.746892
vt 0.576891 0.663654
vt 0.863671 0.444092
vt 0.892112 0.712417
vt 0.717429 0.242000
vt 0.576891 0.663654
vt 0.863671 0.444092
vt 0.892112 0.712417
vt 0.717429 0.242000
vt 0.576891 0.663654
vt 0.863671 0.444092
vt 0.892112 0.712417
vt 0.717429 0.242000
vt 0.576891 0.663654
vt 0.863671 0.444092
vt 0.892112 0.712417
vt 0.717429 0.242000
vt 1.000088 0.929684
vt 0.698449 0.852894
vt 0.845070 1.018276
vt 0.859641 0.746892
vt 0.576891 0.663654
vt 0.863671 0.444092
vt 0.892112 0.712417
vt 0.717429 0.242000
vt 0.576891 0.663654
vt 0.863671 0.444092
vt 0.892112 0.712417
vt 0.717429 0.242000
vt 1.000088 0.929684
vt 0.845070 1.018276
vt 0.698449 0.852894
vt 0.859641 0.746892
vt 0.576891 0.663654
vt 0.863671 0.444092
vt 0.892112 0.712417
vt 0.717429 0.242000
vt 1.000088 0.929684
vt 0.845070 1.018276
vt 0.698449 0.852894
vt 0.859641 0.746892
vt 1.000088 0.929684
vt 0.845070 1.018276
vt 0.698449 0.852894
vt 0.859641 0.746892
vt 0.576891 0.663654
vt 0.863671 0.444092
vt 0.892112 0.712417
vt 0.717429 0.242000
vt 0.576891 0.663654
vt 0.863671 0.444092
vt 0.892112 0.712417
vt 0.717429 0.242000
vt 1.000088 0.929684
vt 0.845070 1.018276
vt 0.698449 0.852894
vt 0.859641 0.746892
vt 0.576891 0.663654
vt 0.863671 0.444092
vt 0.892112 0.712417
vt 0.717429 0.242000
vt 1.000088 0.929684
vt 0.845070 1.018276
vt 0.698449 0.852894
vt 0.859641 0.746892
vt 1.000088 0.929684
vt 0.845070 1.018276
vt 0.698449 0.852894
vt 0.859641 0.746892
vt 0.576891 0.663654
vt 0.863671 0.444092
vt 0.892112 0.712417
vt 0.717429 0.242000
vt 0.576891 0.663654
vt 0.863671 0.444092
vt 0.892112 0.712417
vt 0.717429 0.242000
vt 0.576891 0.663654
vt 0.863671 0.444092
vt 0.892112 0.712417
vt 0.717429 0.242000
vt 0.576891 0.663654
vt 0.863671 0.444092
vt 0.892112 0.712417
vt 0.717429 0.242000
vt 1.000088 0.929684
vt 0.698449 0.852894
vt 0.845070 1.018276
vt 0.859641 0.746892
vt 0.576891 0.663654
vt 0.863671 0.444092
vt 0.892112 0.712417
vt 0.717429 0.242000
vt 0.576891 0.663654
vt 0.863671 0.444092
vt 0.892112 0.712417
vt 0.717429 0.242000
vt 1.000088 0.929684
vt 0.845070 1.018276
vt 0.698449 0.852894
vt 0.859641 0.746892
vt 0.576891 0.663654
vt 0.863671 0.444092
vt 0.892112 0.712417
vt 0.717429 0.242000
vt 1.000088 0.929684
vt 0.845070 1.018276
vt 0.698449 0.852894
vt 0.859641 0.746892
vt 1.000088 0.929684
vt 0.845070 1.018276
vt 0.698449 0.852894
vt 0.859641 0.746892
vt 0.576891 0.663654
vt 0.863671 0.444092
vt 0.892112 0.712417
vt 0.717429 0.242000
vt 0.576891 0.663654
vt 0.863671 0.444092
vt 0.892112 0.712417
vt 0.717429 0.242000
vt 1.000088 0.929684
vt 0.845070 1.018276
vt 0.698449 0.852894
vt 0.859641 0.746892
vt 0.576891 0.663654
vt 0.863671 0.444092
vt 0.892112 0.712417
vt 0.717429 0.242000
vt 1.000088 0.929684
vt 0.845070 1.018276
vt 0.698449 0.852894
vt 0.859641 0.746892
vt 1.000088 0.929684
vt 0.845070 1.018276
vt 0.698449 0.852894
vt 0.859641 0.746892
vt 0.576891 0.663654
vt 0.863671 0.444092
vt 0.892112 0.712417
vt 0.717429 0.242000
vt 0.576891 0.663654
vt 0.863671 0.444092
vt 0.892112 0.712417
vt 0.717429 0.242000
vt 0.576891 0.663654
vt 0.863671 0.444092
vt 0.892112 0.712417
vt 0.717429 0.242000
vt 1.000088 0.929684
vt 0.698449 0.852894
vt 0.845070 1.018276
vt 0.859641 0.746892
vt 0.576891 0.663654
vt 0.863671 0.444092
vt 0.892112 0.712417
vt 0.717429 0.242000
vt 0.576891 0.663654
vt 0.863671 0.444092
vt 0.892112 0.712417
vt 0.717429 0.242000
vt 1.000088 0.929684
vt 0.845070 1.018276
vt 0.698449 0.852894
vt 0.859641 0.746892
vt 0.576891 0.663654
vt 0.863671 0.444092
vt 0.892112 0.712417
vt 0.717429 0.242000
vt 1.000088 0.929684
vt 0.845070 1.018276
vt 0.698449 0.852894
vt 0.859641 0.746892
vt 1.000088 0.929684
vt 0.845070 1.018276
vt 0.698449 0.852894
vt 0.859641 0.746892
vt 0.576891 0.663654
vt 0.863671 0.444092
vt 0.892112 0.712417
vt 0.717429 0.242000
vt 0.576891 0.663654
vt 0.863671 0.444092
vt 0.892112 0.712417
vt 0.717429 0.242000
vt 0.668125 0.688560
vt 0.668125 0.976437
vt 0.545542 0.862175
vt 0.379174 0.976437
vt 0.495471 0.870959
vt 0.379174 0.688560
vt 0.495587 0.807631
vt 0.526488 0.840172
vt 0.549513 0.816239
vt 0.548955 0.865412
vt 0.668125 0.976437
vt 0.668125 0.688560
vt 0.379174 0.976437
vt 0.495645 0.870880
vt 0.379174 0.688560
vt 0.494892 0.806770
vt 0.526488 0.840172
vt 0.551775 0.813784
vt 0.987786 0.008828
vt 0.987786 0.256825
vt 0.887096 0.150003
vt 0.748161 0.256825
vt 0.849742 0.150883
vt 0.748161 0.008828
vt 0.847778 0.108907
vt 0.867677 0.132077
vt 0.887543 0.108174
vt 0.748161 0.256825
vt 0.846434 0.154260
vt 0.886557 0.149456
vt 0.748161 0.008828
vt 0.867677 0.132077
vt 0.848935 0.111409
vt 0.888267 0.110020
vt 0.987786 0.008828
vt 0.987786 0.256825
vt 0.987786 0.008828
vt 0.987786 0.256825
vt 0.887096 0.150003
vt 0.748161 0.256825
vt 0.849742 0.150883
vt 0.748161 0.008828
vt 0.847778 0.108907
vt 0.867677 0.132077
vt 0.887543 0.108174
vt 0.987786 0.008828
vt 0.987786 0.256825
vt 0.886557 0.149456
vt 0.748161 0.256825
vt 0.846434 0.154260
vt 0.748161 0.008828
vt 0.848935 0.111409
vt 0.867677 0.132077
vt 0.888267 0.110020
vt 0.668125 0.688560
vt 0.668125 0.976437
vt 0.548152 0.861915
vt 0.379174 0.976437
vt 0.498163 0.869171
vt 0.379174 0.688560
vt 0.497697 0.809623
vt 0.526488 0.840172
vt 0.549558 0.813345
vt 0.668125 0.688560
vt 0.668125 0.976437
vt 0.547066 0.861237
vt 0.379174 0.976437
vt 0.495471 0.871421
vt 0.379174 0.688560
vt 0.497696 0.809623
vt 0.526488 0.840172
vt 0.547446 0.816507
vt 0.987786 0.008828
vt 0.987786 0.256825
vt 0.886557 0.151390
vt 0.748161 0.256825
vt 0.849293 0.151400
vt 0.748161 0.008828
vt 0.852780 0.115238
vt 0.867677 0.132077
vt 0.889524 0.106867
vt 0.668125 0.688560
vt 0.668125 0.976437
vt 0.548144 0.859676
vt 0.379174 0.976437
vt 0.497840 0.868279
vt 0.379174 0.688560
vt 0.490791 0.801059
vt 0.526488 0.840172
vt 0.552858 0.812412
vt 0.987786 0.008828
vt 0.987786 0.256825
vt 0.888987 0.153959
vt 0.748161 0.256825
vt 0.847328 0.153369
vt 0.748161 0.008828
vt 0.846088 0.107103
vt 0.867677 0.132077
vt 0.889576 0.108663
vt 0.668125 0.688560
vt 0.668125 0.976437
vt 0.545542 0.862175
vt 0.379174 0.976437
vt 0.495471 0.870959
vt 0.379174 0.688560
vt 0.495587 0.807631
vt 0.526488 0.840172
vt 0.549513 0.816239
vt 0.548955 0.865412
vt 0.668125 0.976437
vt 0.668125 0.688560
vt 0.379174 0.976437
vt 0.495645 0.870880
vt 0.379174 0.688560
vt 0.494892 0.806770
vt 0.526488 0.840172
vt 0.551775 0.813784
vt 0.987786 0.008828
vt 0.987786 0.256825
vt 0.886557 0.149456
vt 0.748161 0.256825
vt 0.846434 0.154260
vt 0.748161 0.008828
vt 0.848935 0.111409
vt 0.867677 0.132077
vt 0.888267 0.110020
vt 0.987786 0.008828
vt 0.987786 0.256825
vt 0.889565 0.156661
vt 0.748161 0.256825
vt 0.845447 0.154257
vt 0.748161 0.008828
vt 0.849626 0.111971
vt 0.867677 0.132077
vt 0.891949 0.103888
vt 0.668125 0.688560
vt 0.668125 0.976437
vt 0.548152 0.861915
vt 0.379174 0.976437
vt 0.498163 0.869171
vt 0.379174 0.688560
vt 0.497697 0.809623
vt 0.526488 0.840172
vt 0.549558 0.813345
vt 0.987786 0.008828
vt 0.987786 0.256825
vt 0.886557 0.151390
vt 0.748161 0.256825
vt 0.849293 0.151400
vt 0.748161 0.008828
vt 0.852780 0.115238
vt 0.867677 0.132077
vt 0.889524 0.106867
vt 0.668125 0.688560
vt 0.668125 0.976437
vt 0.548144 0.859676
vt 0.379174 0.976437
vt 0.497840 0.868279
vt 0.379174 0.688560
vt 0.490791 0.801059
vt 0.526488 0.840172
vt 0.552858 0.812412
vt 0.987786 0.008828
vt 0.987786 0.256825
vt 0.888987 0.153959
vt 0.748161 0.256825
vt 0.847328 0.153369
vt 0.748161 0.008828
vt 0.846088 0.107103
vt 0.867677 0.132077
vt 0.889576 0.108663
vt 0.667348 0.691189
vt 0.667468 0.975887
vt 0.549368 0.869697
vt 0.381236 0.974144
vt 0.502419 0.864038
vt 0.381517 0.690629
vt 0.490510 0.806962
vt 0.522013 0.838424
vt 0.546086 0.814558
vt 0.490510 0.806962
vt 0.381517 0.690629
vt 0.667348 0.691189
vt 0.502419 0.864038
vt 0.381236 0.974144
vt 0.549368 0.869697
vt 0.522013 0.838424
vt 0.546086 0.814558
vt 0.667468 0.975887
vt 0.526488 0.840172
vt 0.547066 0.861237
vt 0.495471 0.871421
vt 0.668125 0.688560
vt 0.668125 0.976437
vt 0.547446 0.816507
vt 0.497696 0.809623
vt 0.379174 0.976437
vt 0.379174 0.688560
vt 0.987786 0.008828
vt 0.987786 0.256825
vt 0.888987 0.153959
vt 0.867677 0.132077
vt 0.846088 0.107103
vt 0.889576 0.108663
vt 0.847328 0.153369
vt 0.748161 0.256825
vt 0.748161 0.008828
vt 0.526488 0.840172
vt 0.495645 0.870880
vt 0.548955 0.865412
vt 0.668125 0.976437
vt 0.668125 0.688560
vt 0.551775 0.813784
vt 0.494892 0.806770
vt 0.379174 0.976437
vt 0.379174 0.688560
vt 0.845070 1.018276
vn -0.011386 0.999934 0.001858
vn -0.008065 0.999950 0.005927
vn -0.008710 0.999948 0.005261
vn 0.018911 0.884621 -0.465927
vn -0.699130 0.627757 -0.342256
vn -0.502023 0.849393 -0.162801
vn -0.502023 0.849393 -0.162801
vn -0.699130 0.627757 -0.342256
vn -0.610172 0.704707 0.362049
vn -0.610172 0.704707 0.362049
vn -0.539138 0.807096 0.240680
vn -0.502023 0.849393 -0.162801
vn -0.539138 0.807096 0.240680
vn -0.610172 0.704707 0.362049
vn 0.034572 0.959993 0.277882
vn 0.034572 0.959993 0.277882
vn -0.088497 0.982489 0.163960
vn -0.539138 0.807096 0.240680
vn -0.353391 0.914640 0.196336
vn -0.088497 0.982489 0.163960
vn -0.195806 0.954777 -0.223742
vn -0.353391 0.914640 0.196336
vn -0.539138 0.807096 0.240680
vn -0.088497 0.982489 0.163960
vn -0.088497 0.982489 0.163960
vn 0.034572 0.959993 0.277882
vn 0.018911 0.884621 -0.465927
vn 0.018911 0.884621 -0.465927
vn -0.195806 0.954777 -0.223742
vn -0.088497 0.982489 0.163960
vn -0.502023 0.849393 -0.162801
vn -0.195806 0.954777 -0.223742
vn 0.018911 0.884621 -0.465927
vn -0.353391 0.914640 0.196336
vn -0.195806 0.954777 -0.223742
vn -0.502023 0.849393 -0.162801
vn -0.353391 0.914640 0.196336
vn -0.502023 0.849393 -0.162801
vn -0.539138 0.807096 0.240680
vn 0.491805 0.796601 -0.351503
vn -0.218727 0.803133 -0.554198
vn -0.086502 0.892706 -0.442259
vn -0.086502 0.892706 -0.442259
vn -0.218727 0.803133 -0.554198
vn -0.457327 0.887369 0.058557
vn -0.457327 0.887369 0.058557
vn -0.278011 0.949219 -0.147288
vn -0.086502 0.892706 -0.442259
vn -0.278011 0.949219 -0.147288
vn -0.457327 0.887369 0.058557
vn 0.149771 0.960201 0.235758
vn 0.149771 0.960201 0.235758
vn 0.081786 0.995062 -0.056230
vn -0.278011 0.949219 -0.147288
vn -0.026767 0.942693 -0.332585
vn 0.081786 0.995062 -0.056230
vn 0.278102 0.880744 -0.383339
vn -0.026767 0.942693 -0.332585
vn -0.278011 0.949219 -0.147288
vn 0.081786 0.995062 -0.056230
vn 0.081786 0.995062 -0.056230
vn 0.149771 0.960201 0.235758
vn 0.491805 0.796601 -0.351503
vn 0.491805 0.796601 -0.351503
vn 0.278102 0.880744 -0.383339
vn 0.081786 0.995062 -0.056230
vn -0.086502 0.892706 -0.442259
vn 0.278102 0.880744 -0.383339
vn 0.491805 0.796601 -0.351503
vn -0.026767 0.942693 -0.332585
vn 0.278102 0.880744 -0.383339
vn -0.086502 0.892706 -0.442259
vn -0.026767 0.942693 -0.332585
vn -0.086502 0.892706 -0.442259
vn -0.278011 0.949219 -0.147288
vn 0.307404 0.812478 0.495360
vn 0.668858 0.723770 -0.169664
vn 0.578823 0.807022 -0.116960
vn 0.578823 0.807022 -0.116960
vn 0.668858 0.723770 -0.169664
vn 0.075722 0.847693 -0.525055
vn 0.075722 0.847693 -0.525055
vn 0.218433 0.900520 -0.375967
vn 0.578823 0.807022 -0.116960
vn 0.218433 0.900520 -0.375967
vn 0.075722 0.847693 -0.525055
vn -0.282134 0.957575 0.058740
vn -0.282134 0.957575 0.058740
vn -0.179989 0.981614 0.063545
vn 0.218433 0.900520 -0.375967
vn 0.178804 0.979167 -0.096237
vn -0.179989 0.981614 0.063545
vn 0.352435 0.906339 0.233107
vn 0.178804 0.979167 -0.096237
vn 0.218433 0.900520 -0.375967
vn -0.179989 0.981614 0.063545
vn -0.179989 0.981614 0.063545
vn -0.282134 0.957575 0.058740
vn 0.307404 0.812478 0.495360
vn 0.307404 0.812478 0.495360
vn 0.352435 0.906339 0.233107
vn -0.179989 0.981614 0.063545
vn 0.578823 0.807022 -0.116960
vn 0.352435 0.906339 0.233107
vn 0.307404 0.812478 0.495360
vn 0.178804 0.979167 -0.096237
vn 0.352435 0.906339 0.233107
vn 0.578823 0.807022 -0.116960
vn 0.178804 0.979167 -0.096237
vn 0.578823 0.807022 -0.116960
vn 0.218433 0.900520 -0.375967
vn 0.600804 0.715598 -0.356307
vn -0.105333 0.740548 -0.663697
vn 0.012209 0.833697 -0.552088
vn 0.012209 0.833697 -0.552088
vn -0.105333 0.740548 -0.663697
vn -0.373786 0.926851 -0.035079
vn -0.373786 0.926851 -0.035079
vn -0.334881 0.940659 -0.054907
vn 0.012209 0.833697 -0.552088
vn -0.334881 0.940659 -0.054907
vn -0.373786 0.926851 -0.035079
vn 0.242350 0.933475 0.264368
vn 0.242350 0.933475 0.264368
vn 0.255010 0.947445 0.193179
vn -0.334881 0.940659 -0.054907
vn 0.172437 0.979238 -0.106577
vn 0.255010 0.947445 0.193179
vn 0.509021 0.787038 -0.348524
vn 0.172437 0.979238 -0.106577
vn -0.334881 0.940659 -0.054907
vn 0.255010 0.947445 0.193179
vn 0.255010 0.947445 0.193179
vn 0.242350 0.933475 0.264368
vn 0.600804 0.715598 -0.356307
vn 0.600804 0.715598 -0.356307
vn 0.509021 0.787038 -0.348524
vn 0.255010 0.947445 0.193179
vn 0.012209 0.833697 -0.552088
vn 0.509021 0.787038 -0.348524
vn 0.600804 0.715598 -0.356307
vn 0.172437 0.979238 -0.106577
vn 0.509021 0.787038 -0.348524
vn 0.012209 0.833697 -0.552088
vn 0.172437 0.979238 -0.106577
vn 0.012209 0.833697 -0.552088
vn -0.334881 0.940659 -0.054907
vn 0.416561 0.878857 0.232565
vn 0.194778 0.906228 -0.375251
vn 0.185436 0.924416 -0.333270
vn 0.185436 0.924416 -0.333270
vn 0.194778 0.906228 -0.375251
vn -0.405618 0.885756 -0.225635
vn -0.405618 0.885756 -0.225635
vn -0.375227 0.908868 -0.182111
vn 0.185436 0.924416 -0.333270
vn -0.375227 0.908868 -0.182111
vn -0.405618 0.885756 -0.225635
vn -0.245994 0.875599 0.415708
vn -0.245994 0.875599 0.415708
vn -0.220625 0.891187 0.396373
vn -0.375227 0.908868 -0.182111
vn -0.021502 0.998335 0.053530
vn -0.220625 0.891187 0.396373
vn 0.356719 0.906304 0.226639
vn -0.021502 0.998335 0.053530
vn -0.375227 0.908868 -0.182111
vn -0.220625 0.891187 0.396373
vn -0.220625 0.891187 0.396373
vn -0.245994 0.875599 0.415708
vn 0.416561 0.878857 0.232565
vn 0.416561 0.878857 0.232565
vn 0.356719 0.906304 0.226639
vn -0.220625 0.891187 0.396373
vn 0.185436 0.924416 -0.333270
vn 0.356719 0.906304 0.226639
vn 0.416561 0.878857 0.232565
vn -0.021502 0.998335 0.053530
vn 0.356719 0.906304 0.226639
vn 0.185436 0.924416 -0.333270
vn -0.021502 0.998335 0.053530
vn 0.185436 0.924416 -0.333270
vn -0.375227 0.908868 -0.182111
vn 0.007275 0.999858 0.015175
vn 0.007426 0.999856 0.015274
vn 0.006933 0.999865 0.014896
vn 0.007275 0.999858 0.015175
vn 0.007678 0.999852 0.015391
vn 0.007426 0.999856 0.015274
vn -0.000112 0.999885 -0.015179
vn -0.005072 0.999893 -0.013707
vn 0.000826 0.999883 -0.015291
vn 0.005263 0.999872 -0.015111
vn -0.000112 0.999885 -0.015179
vn 0.000826 0.999883 -0.015291
vn 0.004405 0.999950 -0.008987
vn -0.000540 0.999949 -0.010042
vn 0.005285 0.999948 -0.008695
vn 0.009232 0.999933 -0.006919
vn 0.004405 0.999950 -0.008987
vn 0.005285 0.999948 -0.008695
vn -0.015680 0.999868 0.004303
vn -0.015863 0.999864 0.004431
vn -0.015254 0.999876 0.004033
vn -0.015680 0.999868 0.004303
vn -0.016136 0.999859 0.004645
vn -0.015863 0.999864 0.004431
vn 0.005672 0.999867 0.015269
vn 0.005807 0.999864 0.015429
vn 0.005394 0.999874 0.014908
vn 0.005672 0.999867 0.015269
vn 0.006034 0.999859 0.015670
vn 0.005807 0.999864 0.015429
vn -0.015007 0.999873 0.005295
vn -0.015364 0.999868 0.005273
vn -0.014235 0.999885 0.005295
vn -0.015007 0.999873 0.005295
vn -0.015897 0.999860 0.005198
vn -0.015364 0.999868 0.005273
vn -0.011524 0.999857 0.012387
vn -0.011280 0.999860 0.012357
vn -0.011914 0.999853 0.012371
vn -0.011524 0.999857 0.012387
vn -0.010816 0.999866 0.012247
vn -0.011280 0.999860 0.012357
vn 0.004408 0.999954 0.008466
vn 0.005252 0.999949 0.008606
vn -0.000293 0.999974 0.007256
vn 0.009076 0.999919 0.008895
vn 0.005252 0.999949 0.008606
vn 0.004408 0.999954 0.008466
vn 0.007312 0.999858 0.015200
vn 0.007447 0.999856 0.015286
vn 0.006999 0.999864 0.014955
vn 0.007312 0.999858 0.015200
vn 0.007678 0.999852 0.015391
vn 0.007447 0.999856 0.015286
vn 0.014228 0.999850 0.009898
vn 0.014249 0.999850 0.009806
vn 0.014118 0.999850 0.010030
vn 0.014228 0.999850 0.009898
vn 0.014223 0.999853 0.009591
vn 0.014249 0.999850 0.009806
vn -0.000112 0.999885 -0.015179
vn -0.005072 0.999893 -0.013707
vn 0.000826 0.999883 -0.015291
vn 0.005263 0.999872 -0.015111
vn -0.000112 0.999885 -0.015179
vn 0.000826 0.999883 -0.015291
vn 0.016244 0.999860 -0.004107
vn 0.016435 0.999857 -0.004054
vn 0.015874 0.999865 -0.004175
vn 0.016244 0.999860 -0.004107
vn 0.016674 0.999853 -0.003957
vn 0.016435 0.999857 -0.004054
vn 0.012261 0.999916 -0.004173
vn 0.009423 0.999920 -0.008459
vn 0.012662 0.999914 -0.003323
vn 0.013998 0.999902 0.000873
vn 0.012261 0.999916 -0.004173
vn 0.012662 0.999914 -0.003323
vn 0.008569 0.999950 0.005172
vn 0.010051 0.999949 0.000337
vn 0.008202 0.999948 0.006022
vn 0.006088 0.999933 0.009800
vn 0.008569 0.999950 0.005172
vn 0.008202 0.999948 0.006022
vn -0.011753 0.999859 0.011963
vn -0.011809 0.999856 0.012182
vn -0.011579 0.999867 0.011496
vn -0.011753 0.999859 0.011963
vn -0.011837 0.999852 0.012479
vn -0.011809 0.999856 0.012182
vn -0.015744 0.999867 0.004347
vn -0.015898 0.999864 0.004456
vn -0.015405 0.999873 0.004125
vn -0.015744 0.999867 0.004347
vn -0.016136 0.999859 0.004645
vn -0.015898 0.999864 0.004456
vn 0.008569 0.999950 0.005172
vn 0.010051 0.999949 0.000337
vn 0.008202 0.999948 0.006022
vn 0.006088 0.999933 0.009800
vn 0.008569 0.999950 0.005172
vn 0.008202 0.999948 0.006022
vn 0.008682 0.999894 -0.011670
vn 0.008697 0.999892 -0.011825
vn 0.008606 0.999899 -0.011296
vn 0.008682 0.999894 -0.011670
vn 0.008685 0.999889 -0.012066
vn 0.008697 0.999892 -0.011825
vn -0.011566 0.999914 0.006192
vn -0.008445 0.999920 0.009394
vn -0.012029 0.999912 0.005520
vn -0.013677 0.999904 0.002053
vn -0.011566 0.999914 0.006192
vn -0.012029 0.999912 0.005520
vn -0.008647 0.999963 0.000246
vn -0.007464 0.999962 0.004453
vn -0.008777 0.999961 -0.000545
vn -0.009007 0.999950 -0.004279
vn -0.008647 0.999963 0.000246
vn -0.008777 0.999961 -0.000545
vn 0.006871 0.999949 0.007346
vn 0.006993 0.999948 0.007409
vn 0.006601 0.999952 0.007191
vn 0.006871 0.999949 0.007346
vn 0.007190 0.999946 0.007497
vn 0.006993 0.999948 0.007409
vn 0.009398 0.999901 -0.010482
vn 0.009466 0.999898 -0.010649
vn 0.009234 0.999906 -0.010123
vn 0.009398 0.999901 -0.010482
vn 0.009560 0.999895 -0.010920
vn 0.009466 0.999898 -0.010649
vn 0.001864 0.999888 -0.014868
vn 0.001782 0.999888 -0.014850
vn 0.002024 0.999888 -0.014814
vn 0.001864 0.999888 -0.014868
vn 0.001614 0.999890 -0.014739
vn 0.001782 0.999888 -0.014850
vn 0.014112 0.999893 0.003833
vn 0.013991 0.999895 0.003658
vn 0.014257 0.999890 0.004137
vn 0.014112 0.999893 0.003833
vn 0.013720 0.999900 0.003347
vn 0.013991 0.999895 0.003658
vn 0.004703 0.999966 -0.006777
vn 0.004471 0.999962 -0.007480
vn 0.005668 0.999980 -0.002695
vn 0.003153 0.999940 -0.010521
vn 0.004471 0.999962 -0.007480
vn 0.004703 0.999966 -0.006777
vn 0.008686 0.999894 -0.011708
vn 0.008698 0.999892 -0.011847
vn 0.008624 0.999898 -0.011371
vn 0.008686 0.999894 -0.011708
vn 0.008685 0.999889 -0.012066
vn 0.008698 0.999892 -0.011847
vn 0.001848 0.999888 -0.014866
vn 0.001769 0.999888 -0.014845
vn 0.001993 0.999888 -0.014835
vn 0.001848 0.999888 -0.014866
vn 0.001614 0.999890 -0.014739
vn 0.001769 0.999888 -0.014845
vn -0.011566 0.999914 0.006192
vn -0.008445 0.999920 0.009394
vn -0.012029 0.999912 0.005520
vn -0.013677 0.999904 0.002053
vn -0.011566 0.999914 0.006192
vn -0.012029 0.999912 0.005520
vn -0.009676 0.999895 -0.010774
vn -0.009713 0.999893 -0.010941
vn -0.009580 0.999899 -0.010464
vn -0.009676 0.999895 -0.010774
vn -0.009735 0.999890 -0.011163
vn -0.009713 0.999893 -0.010941
vn -0.008124 0.999937 -0.007700
vn -0.010262 0.999940 -0.003805
vn -0.007636 0.999936 -0.008349
vn -0.004964 0.999927 -0.011059
vn -0.008124 0.999937 -0.007700
vn -0.007636 0.999936 -0.008349
vn 0.000509 0.999963 -0.008635
vn -0.003785 0.999962 -0.007824
vn 0.001307 0.999961 -0.008697
vn 0.005048 0.999950 -0.008599
vn 0.000509 0.999963 -0.008635
vn 0.001307 0.999961 -0.008697
vn 0.013880 0.999895 0.004178
vn 0.014069 0.999892 0.004133
vn 0.013452 0.999901 0.004232
vn 0.013880 0.999895 0.004178
vn 0.014308 0.999889 0.004035
vn 0.014069 0.999892 0.004133
vn 0.006033 0.999961 0.006431
vn 0.006124 0.999960 0.006476
vn 0.005842 0.999963 0.006324
vn 0.006033 0.999961 0.006431
vn 0.006274 0.999959 0.006543
vn 0.006124 0.999960 0.006476
vn 0.000509 0.999963 -0.008635
vn -0.003785 0.999962 -0.007824
vn 0.001307 0.999961 -0.008697
vn 0.005048 0.999950 -0.008599
vn 0.000509 0.999963 -0.008635
vn 0.001307 0.999961 -0.008697
vn -0.016805 0.999858 0.000891
vn -0.016954 0.999856 0.000993
vn -0.016416 0.999865 0.000682
vn -0.016805 0.999858 0.000891
vn -0.017160 0.999852 0.001180
vn -0.016954 0.999856 0.000993
vn 0.014058 0.999885 0.005724
vn 0.014603 0.999893 0.000580
vn 0.013802 0.999883 0.006633
vn 0.011932 0.999872 0.010661
vn 0.014058 0.999885 0.005724
vn 0.013802 0.999883 0.006633
vn 0.006607 0.999950 0.007518
vn 0.009480 0.999949 0.003357
vn 0.006000 0.999948 0.008218
vn 0.002844 0.999933 0.011181
vn 0.006607 0.999950 0.007518
vn 0.006000 0.999948 0.008218
vn -0.016277 0.999867 -0.000625
vn -0.016476 0.999864 -0.000562
vn -0.015836 0.999874 -0.000744
vn -0.016277 0.999867 -0.000625
vn -0.016786 0.999859 -0.000445
vn -0.016476 0.999864 -0.000562
vn -0.014615 0.999850 0.009324
vn -0.014539 0.999850 0.009384
vn -0.014686 0.999850 0.009142
vn -0.014615 0.999850 0.009324
vn -0.014317 0.999853 0.009451
vn -0.014539 0.999850 0.009384
vn -0.007013 0.999857 -0.015397
vn -0.007079 0.999860 -0.015160
vn -0.006849 0.999852 -0.015751
vn -0.007013 0.999857 -0.015397
vn -0.007156 0.999866 -0.014690
vn -0.007079 0.999860 -0.015160
vn -0.009509 0.999954 0.000820
vn -0.009963 0.999949 0.001545
vn -0.006587 0.999974 -0.003056
vn -0.011698 0.999919 0.004965
vn -0.009963 0.999949 0.001545
vn -0.009509 0.999954 0.000820
vn -0.016843 0.999858 0.000915
vn -0.016974 0.999855 0.001007
vn -0.016496 0.999864 0.000721
vn -0.016843 0.999858 0.000915
vn -0.017160 0.999852 0.001180
vn -0.016974 0.999855 0.001007
vn -0.014602 0.999850 0.009338
vn -0.014525 0.999851 0.009392
vn -0.014682 0.999850 0.009185
vn -0.014602 0.999850 0.009338
vn -0.014317 0.999853 0.009451
vn -0.014525 0.999851 0.009392
vn 0.014058 0.999885 0.005724
vn 0.014603 0.999893 0.000580
vn 0.013802 0.999883 0.006633
vn 0.011932 0.999872 0.010661
vn 0.014058 0.999885 0.005724
vn 0.013802 0.999883 0.006633
vn -0.001572 0.999942 0.010658
vn -0.001650 0.999941 0.010759
vn -0.001440 0.999944 0.010456
vn -0.001572 0.999942 0.010658
vn -0.001767 0.999939 0.010877
vn -0.001650 0.999941 0.010759
vn -0.000854 0.999916 0.012923
vn 0.004193 0.999920 0.011949
vn -0.001793 0.999914 0.012968
vn -0.006180 0.999902 0.012590
vn -0.000854 0.999916 0.012923
vn -0.001793 0.999914 0.012968
vn -0.008065 0.999950 0.005927
vn -0.004171 0.999949 0.009151
vn -0.008710 0.999948 0.005261
vn -0.011386 0.999934 0.001858
vn -0.008065 0.999950 0.005927
vn -0.008710 0.999948 0.005261
vn -0.006534 0.999859 -0.015445
vn -0.006714 0.999856 -0.015581
vn -0.006170 0.999867 -0.015105
vn -0.006534 0.999859 -0.015445
vn -0.006978 0.999852 -0.015721
vn -0.006714 0.999856 -0.015581
vn 0.002031 0.999867 -0.016207
vn 0.001989 0.999864 -0.016390
vn 0.002106 0.999873 -0.015808
vn 0.002031 0.999867 -0.016207
vn 0.001906 0.999859 -0.016683
vn 0.001989 0.999864 -0.016390
vn -0.560472 0.714340 -0.419033
vn -0.572387 0.740548 0.352081
vn -0.394352 0.911233 0.118915
vn -0.394352 0.911233 0.118915
vn -0.572387 0.740548 0.352081
vn 0.113971 0.924455 0.363859
vn 0.113971 0.924455 0.363859
vn -0.036273 0.981384 0.188602
vn -0.394352 0.911233 0.118915
vn -0.036273 0.981384 0.188602
vn 0.113971 0.924455 0.363859
vn 0.153716 0.931823 -0.328751
vn 0.153716 0.931823 -0.328751
vn 0.010266 0.967928 -0.251020
vn -0.036273 0.981384 0.188602
vn -0.067842 0.997631 0.011410
vn 0.010266 0.967928 -0.251020
vn -0.360371 0.914395 -0.184432
vn -0.067842 0.997631 0.011410
vn -0.036273 0.981384 0.188602
vn 0.010266 0.967928 -0.251020
vn 0.010266 0.967928 -0.251020
vn 0.153716 0.931823 -0.328751
vn -0.560472 0.714340 -0.419033
vn -0.560472 0.714340 -0.419033
vn -0.360371 0.914395 -0.184432
vn 0.010266 0.967928 -0.251020
vn -0.394352 0.911233 0.118915
vn -0.360371 0.914395 -0.184432
vn -0.560472 0.714340 -0.419033
vn -0.067842 0.997631 0.011410
vn -0.360371 0.914395 -0.184432
vn -0.394352 0.911233 0.118915
vn -0.067842 0.997631 0.011410
vn -0.394352 0.911233 0.118915
vn -0.036273 0.981384 0.188602
vn 0.071385 0.933986 -0.350106
vn -0.041386 0.822523 -0.567224
vn -0.282909 0.947280 0.150408
vn 0.621788 0.707810 -0.335238
vn -0.041386 0.822523 -0.567224
vn 0.071385 0.933986 -0.350106
vn 0.071385 0.933986 -0.350106
vn 0.447654 0.865936 -0.223071
vn 0.621788 0.707810 -0.335238
vn 0.436990 0.838395 0.325781
vn 0.621788 0.707810 -0.335238
vn 0.447654 0.865936 -0.223071
vn 0.447654 0.865936 -0.223071
vn 0.361348 0.909106 0.207255
vn 0.436990 0.838395 0.325781
vn 0.283360 0.956879 -0.063958
vn -0.022989 0.999524 0.020589
vn 0.361348 0.909106 0.207255
vn 0.283360 0.956879 -0.063958
vn 0.361348 0.909106 0.207255
vn 0.447654 0.865936 -0.223071
vn -0.282909 0.947280 0.150408
vn 0.436990 0.838395 0.325781
vn 0.361348 0.909106 0.207255
vn 0.361348 0.909106 0.207255
vn -0.022989 0.999524 0.020589
vn -0.282909 0.947280 0.150408
vn -0.282909 0.947280 0.150408
vn -0.022989 0.999524 0.020589
vn 0.071385 0.933986 -0.350106
vn 0.283360 0.956879 -0.063958
vn 0.071385 0.933986 -0.350106
vn -0.022989 0.999524 0.020589
vn 0.283360 0.956879 -0.063958
vn 0.447654 0.865936 -0.223071
vn 0.071385 0.933986 -0.350106
vn 0.018911 0.884621 -0.465927
vn -0.699130 0.627757 -0.342256
vn -0.553034 0.794657 -0.250347
vn -0.553034 0.794657 -0.250347
vn -0.699130 0.627757 -0.342256
vn -0.610172 0.704707 0.362048
vn -0.610172 0.704707 0.362048
vn -0.534112 0.819533 0.207580
vn -0.553034 0.794657 -0.250347
vn -0.534112 0.819533 0.207580
vn -0.610172 0.704707 0.362048
vn 0.034572 0.959993 0.277882
vn 0.034572 0.959993 0.277882
vn -0.088024 0.985305 0.146377
vn -0.534112 0.819533 0.207580
vn -0.325933 0.944924 -0.029777
vn -0.088024 0.985305 0.146377
vn -0.122651 0.931815 -0.341582
vn -0.325933 0.944924 -0.029777
vn -0.534112 0.819533 0.207580
vn -0.088024 0.985305 0.146377
vn -0.088024 0.985305 0.146377
vn 0.034572 0.959993 0.277882
vn 0.018911 0.884621 -0.465927
vn 0.018911 0.884621 -0.465927
vn -0.122651 0.931815 -0.341582
vn -0.088024 0.985305 0.146377
vn -0.553034 0.794657 -0.250347
vn -0.122651 0.931815 -0.341582
vn 0.018911 0.884621 -0.465927
vn -0.325933 0.944924 -0.029777
vn -0.122651 0.931815 -0.341582
vn -0.553034 0.794657 -0.250347
vn -0.325933 0.944924 -0.029777
vn -0.553034 0.794657 -0.250347
vn -0.534112 0.819533 0.207580
vn -0.462893 0.884977 0.050457
vn -0.295847 0.948175 -0.115931
vn -0.091305 0.915693 -0.391368
vn -0.295847 0.948175 -0.115931
vn -0.462893 0.884977 0.050457
vn 0.149771 0.960201 0.235758
vn -0.061359 0.984107 -0.166637
vn 0.091254 0.995462 0.026985
vn 0.201223 0.919237 -0.338398
vn 0.489418 0.794083 -0.360419
vn 0.201223 0.919237 -0.338398
vn 0.091254 0.995462 0.026985
vn -0.091305 0.915693 -0.391368
vn 0.201223 0.919237 -0.338398
vn 0.489418 0.794083 -0.360419
vn 0.489418 0.794083 -0.360419
vn -0.225817 0.789198 -0.571116
vn -0.091305 0.915693 -0.391368
vn -0.091305 0.915693 -0.391368
vn -0.225817 0.789198 -0.571116
vn -0.462893 0.884977 0.050457
vn 0.091254 0.995462 0.026985
vn 0.149771 0.960201 0.235758
vn 0.489418 0.794083 -0.360419
vn 0.149771 0.960201 0.235758
vn 0.091254 0.995462 0.026985
vn -0.295847 0.948175 -0.115931
vn -0.061359 0.984107 -0.166637
vn -0.295847 0.948175 -0.115931
vn 0.091254 0.995462 0.026985
vn -0.061359 0.984107 -0.166637
vn -0.091305 0.915693 -0.391368
vn -0.295847 0.948175 -0.115931
vn -0.061359 0.984107 -0.166637
vn 0.201223 0.919237 -0.338398
vn -0.091305 0.915693 -0.391368
vn 0.308069 0.910009 0.277447
vn 0.666708 0.682228 -0.300108
vn 0.510852 0.824322 -0.243975
vn 0.510852 0.824322 -0.243975
vn 0.666708 0.682228 -0.300108
vn 0.102678 0.754385 -0.648352
vn 0.102678 0.754385 -0.648352
vn 0.159254 0.848635 -0.504437
vn 0.510852 0.824322 -0.243975
vn 0.159254 0.848635 -0.504437
vn 0.102678 0.754385 -0.648352
vn -0.205965 0.969660 -0.131670
vn -0.205965 0.969660 -0.131670
vn -0.059896 0.988675 -0.137602
vn 0.159254 0.848635 -0.504437
vn 0.211613 0.955197 -0.206927
vn -0.059896 0.988675 -0.137602
vn 0.301474 0.945768 0.120977
vn 0.211613 0.955197 -0.206927
vn 0.159254 0.848635 -0.504437
vn -0.059896 0.988675 -0.137602
vn -0.059896 0.988675 -0.137602
vn -0.205965 0.969660 -0.131670
vn 0.308069 0.910009 0.277447
vn 0.308069 0.910009 0.277447
vn 0.301474 0.945768 0.120977
vn -0.059896 0.988675 -0.137602
vn 0.510852 0.824322 -0.243975
vn 0.301474 0.945768 0.120977
vn 0.308069 0.910009 0.277447
vn 0.211613 0.955197 -0.206927
vn 0.301474 0.945768 0.120977
vn 0.510852 0.824322 -0.243975
vn 0.211613 0.955197 -0.206927
vn 0.510852 0.824322 -0.243975
vn 0.159254 0.848635 -0.504437
vn -0.031888 0.834019 0.550813
vn 0.530442 0.829784 0.173461
vn 0.310186 0.937679 0.156662
vn 0.310186 0.937679 0.156662
vn 0.530442 0.829784 0.173461
vn 0.228242 0.910298 -0.345345
vn 0.228242 0.910298 -0.345345
vn 0.242228 0.961607 -0.128985
vn 0.310186 0.937679 0.156662
vn 0.242228 0.961607 -0.128985
vn 0.228242 0.910298 -0.345345
vn -0.241867 0.969821 -0.030792
vn -0.241867 0.969821 -0.030792
vn -0.064156 0.996827 0.047126
vn 0.242228 0.961607 -0.128985
vn 0.136988 0.989346 0.049287
vn -0.064156 0.996827 0.047126
vn 0.118412 0.939560 0.321255
vn 0.136988 0.989346 0.049287
vn 0.242228 0.961607 -0.128985
vn -0.064156 0.996827 0.047126
vn -0.064156 0.996827 0.047126
vn -0.241867 0.969821 -0.030792
vn -0.031888 0.834019 0.550813
vn -0.031888 0.834019 0.550813
vn 0.118412 0.939560 0.321255
vn -0.064156 0.996827 0.047126
vn 0.310186 0.937679 0.156662
vn 0.118412 0.939560 0.321255
vn -0.031888 0.834019 0.550813
vn 0.136988 0.989346 0.049287
vn 0.118412 0.939560 0.321255
vn 0.310186 0.937679 0.156662
vn 0.136988 0.989346 0.049287
vn 0.310186 0.937679 0.156662
vn 0.242228 0.961607 -0.128985
vn -0.626865 0.763187 -0.156801
vn -0.359803 0.786866 0.501382
vn -0.287930 0.930513 0.226366
vn -0.287930 0.930513 0.226366
vn -0.359803 0.786866 0.501382
vn 0.216424 0.941942 0.256722
vn 0.216424 0.941942 0.256722
vn 0.079863 0.978283 0.191271
vn -0.287930 0.930513 0.226366
vn 0.079863 0.978283 0.191271
vn 0.216424 0.941942 0.256722
vn 0.012912 0.947749 -0.318757
vn 0.012912 0.947749 -0.318757
vn -0.078783 0.975114 -0.207234
vn 0.079863 0.978283 0.191271
vn -0.096474 0.995283 -0.010184
vn -0.078783 0.975114 -0.207234
vn -0.459578 0.885525 -0.068071
vn -0.096474 0.995283 -0.010184
vn 0.079863 0.978283 0.191271
vn -0.078783 0.975114 -0.207234
vn -0.078783 0.975114 -0.207234
vn 0.012912 0.947749 -0.318757
vn -0.626865 0.763187 -0.156801
vn -0.626865 0.763187 -0.156801
vn -0.459578 0.885525 -0.068071
vn -0.078783 0.975114 -0.207234
vn -0.287930 0.930513 0.226366
vn -0.459578 0.885525 -0.068071
vn -0.626865 0.763187 -0.156801
vn -0.096474 0.995283 -0.010184
vn -0.459578 0.885525 -0.068071
vn -0.287930 0.930513 0.226366
vn -0.096474 0.995283 -0.010184
vn -0.287930 0.930513 0.226366
vn 0.079863 0.978283 0.191271
vn 0.308069 0.910009 0.277448
vn 0.666708 0.682228 -0.300108
vn 0.385771 0.887180 -0.253166
vn 0.385771 0.887180 -0.253166
vn 0.666708 0.682228 -0.300108
vn 0.102678 0.754385 -0.648353
vn 0.102678 0.754385 -0.648353
vn 0.146348 0.850652 -0.504949
vn 0.385771 0.887180 -0.253166
vn 0.146348 0.850652 -0.504949
vn 0.102678 0.754385 -0.648353
vn -0.205965 0.969660 -0.131671
vn -0.205965 0.969660 -0.131671
vn -0.054703 0.986819 -0.152302
vn 0.146348 0.850652 -0.504949
vn 0.077621 0.938978 -0.335104
vn -0.054703 0.986819 -0.152302
vn 0.258874 0.965806 -0.014221
vn 0.077621 0.938978 -0.335104
vn 0.146348 0.850652 -0.504949
vn -0.054703 0.986819 -0.152302
vn -0.054703 0.986819 -0.152302
vn -0.205965 0.969660 -0.131671
vn 0.308069 0.910009 0.277448
vn 0.308069 0.910009 0.277448
vn 0.258874 0.965806 -0.014221
vn -0.054703 0.986819 -0.152302
vn 0.385771 0.887180 -0.253166
vn 0.258874 0.965806 -0.014221
vn 0.308069 0.910009 0.277448
vn 0.077621 0.938978 -0.335104
vn 0.258874 0.965806 -0.014221
vn 0.385771 0.887180 -0.253166
vn 0.077621 0.938978 -0.335104
vn 0.385771 0.887180 -0.253166
vn 0.146348 0.850652 -0.504949
vn -0.039477 0.836196 0.547007
vn 0.512907 0.841828 0.168082
vn 0.341643 0.920373 0.190244
vn 0.341643 0.920373 0.190244
vn 0.512907 0.841828 0.168082
vn 0.219416 0.912241 -0.345938
vn 0.219416 0.912241 -0.345938
vn 0.253415 0.962492 -0.096899
vn 0.341643 0.920373 0.190244
vn 0.253415 0.962492 -0.096899
vn 0.219416 0.912241 -0.345938
vn -0.241867 0.969821 -0.030792
vn -0.241867 0.969821 -0.030792
vn -0.001032 0.996097 0.088262
vn 0.253415 0.962492 -0.096899
vn 0.237677 0.957038 0.166098
vn -0.001032 0.996097 0.088262
vn 0.107672 0.909563 0.401376
vn 0.237677 0.957038 0.166098
vn 0.253415 0.962492 -0.096899
vn -0.001032 0.996097 0.088262
vn -0.001032 0.996097 0.088262
vn -0.241867 0.969821 -0.030792
vn -0.039477 0.836196 0.547007
vn -0.039477 0.836196 0.547007
vn 0.107672 0.909563 0.401376
vn -0.001032 0.996097 0.088262
vn 0.341643 0.920373 0.190244
vn 0.107672 0.909563 0.401376
vn -0.039477 0.836196 0.547007
vn 0.237677 0.957038 0.166098
vn 0.107672 0.909563 0.401376
vn 0.341643 0.920373 0.190244
vn 0.237677 0.957038 0.166098
vn 0.341643 0.920373 0.190244
vn 0.253415 0.962492 -0.096899
vn -0.526332 0.846898 -0.075746
vn -0.276906 0.764098 0.582646
vn -0.288171 0.800118 0.526088
vn -0.288171 0.800118 0.526088
vn -0.276906 0.764098 0.582646
vn 0.324798 0.876990 0.354112
vn 0.324798 0.876990 0.354112
vn 0.322808 0.869955 0.372792
vn -0.288171 0.800118 0.526088
vn 0.322808 0.869955 0.372792
vn 0.324798 0.876990 0.354112
vn 0.119300 0.967046 -0.224922
vn 0.119300 0.967046 -0.224922
vn 0.102031 0.963724 -0.246627
vn 0.322808 0.869955 0.372792
vn 0.004879 0.997117 0.075724
vn 0.102031 0.963724 -0.246627
vn -0.506315 0.861365 -0.041165
vn 0.004879 0.997117 0.075724
vn 0.322808 0.869955 0.372792
vn 0.102031 0.963724 -0.246627
vn 0.102031 0.963724 -0.246627
vn 0.119300 0.967046 -0.224922
vn -0.526332 0.846898 -0.075746
vn -0.526332 0.846898 -0.075746
vn -0.506315 0.861365 -0.041165
vn 0.102031 0.963724 -0.246627
vn -0.288171 0.800118 0.526088
vn -0.506315 0.861365 -0.041165
vn -0.526332 0.846898 -0.075746
vn 0.004879 0.997117 0.075724
vn -0.506315 0.861365 -0.041165
vn -0.288171 0.800118 0.526088
vn 0.004879 0.997117 0.075724
vn -0.288171 0.800118 0.526088
vn 0.322808 0.869955 0.372792
vn -0.705462 0.593247 0.387790
vn -0.109775 0.544444 0.831583
vn -0.206961 0.744506 0.634726
vn -0.206961 0.744506 0.634726
vn -0.109775 0.544444 0.831583
vn 0.234830 0.906006 0.352148
vn 0.234830 0.906006 0.352148
vn 0.029178 0.919368 0.392316
vn -0.206961 0.744506 0.634726
vn 0.029178 0.919368 0.392316
vn 0.234830 0.906006 0.352148
vn -0.246191 0.968954 -0.022757
vn -0.246191 0.968954 -0.022757
vn -0.268481 0.951204 0.152083
vn 0.029178 0.919368 0.392316
vn -0.241725 0.903613 0.353628
vn -0.268481 0.951204 0.152083
vn -0.496266 0.757559 0.424058
vn -0.241725 0.903613 0.353628
vn 0.029178 0.919368 0.392316
vn -0.268481 0.951204 0.152083
vn -0.268481 0.951204 0.152083
vn -0.246191 0.968954 -0.022757
vn -0.705462 0.593247 0.387790
vn -0.705462 0.593247 0.387790
vn -0.496266 0.757559 0.424058
vn -0.268481 0.951204 0.152083
vn -0.206961 0.744506 0.634726
vn -0.496266 0.757559 0.424058
vn -0.705462 0.593247 0.387790
vn -0.241725 0.903613 0.353628
vn -0.496266 0.757559 0.424058
vn -0.206961 0.744506 0.634726
vn -0.241725 0.903613 0.353628
vn -0.206961 0.744506 0.634726
vn 0.029178 0.919368 0.392316
vn -0.101570 0.763187 0.638146
vn 0.530833 0.786866 0.314735
vn 0.258527 0.930231 0.260451
vn 0.258527 0.930231 0.260451
vn 0.530833 0.786866 0.314735
vn 0.236882 0.941942 -0.237975
vn 0.236882 0.941942 -0.237975
vn 0.160772 0.985681 -0.050845
vn 0.258527 0.930231 0.260451
vn 0.160772 0.985681 -0.050845
vn 0.236882 0.941942 -0.237975
vn -0.318669 0.947749 0.014918
vn -0.318669 0.947749 0.014918
vn -0.199639 0.975447 0.092991
vn 0.160772 0.985681 -0.050845
vn 0.036152 0.997897 0.053802
vn -0.199639 0.975447 0.092991
vn 0.002839 0.932551 0.361026
vn 0.036152 0.997897 0.053802
vn 0.160772 0.985681 -0.050845
vn -0.199639 0.975447 0.092991
vn -0.199639 0.975447 0.092991
vn -0.318669 0.947749 0.014918
vn -0.101570 0.763187 0.638146
vn -0.101570 0.763187 0.638146
vn 0.002839 0.932551 0.361026
vn -0.199639 0.975447 0.092991
vn 0.258527 0.930231 0.260451
vn 0.002839 0.932551 0.361026
vn -0.101570 0.763187 0.638146
vn 0.036152 0.997897 0.053802
vn 0.002839 0.932551 0.361026
vn 0.258527 0.930231 0.260451
vn 0.036152 0.997897 0.053802
vn 0.258527 0.930231 0.260451
vn 0.160772 0.985681 -0.050845
vn -0.299932 0.950188 0.084761
vn -0.435447 0.858399 0.271177
vn 0.231896 0.959828 0.157969
vn -0.541943 0.757225 -0.364565
vn -0.435447 0.858399 0.271177
vn -0.299932 0.950188 0.084761
vn -0.299932 0.950188 0.084761
vn -0.358512 0.896807 -0.259243
vn -0.541943 0.757225 -0.364565
vn 0.076336 0.871803 -0.483873
vn -0.541943 0.757225 -0.364565
vn -0.358512 0.896807 -0.259243
vn -0.358512 0.896807 -0.259243
vn 0.011828 0.930522 -0.366045
vn 0.076336 0.871803 -0.483873
vn -0.165173 0.967091 -0.193526
vn 0.022651 0.999717 0.007330
vn 0.011828 0.930522 -0.366045
vn -0.165173 0.967091 -0.193526
vn 0.011828 0.930522 -0.366045
vn -0.358512 0.896807 -0.259243
vn 0.231896 0.959828 0.157969
vn 0.076336 0.871803 -0.483873
vn 0.011828 0.930522 -0.366045
vn 0.011828 0.930522 -0.366045
vn 0.022651 0.999717 0.007330
vn 0.231896 0.959828 0.157969
vn 0.231896 0.959828 0.157969
vn 0.022651 0.999717 0.007330
vn -0.299932 0.950188 0.084761
vn -0.165173 0.967091 -0.193526
vn -0.299932 0.950188 0.084761
vn 0.022651 0.999717 0.007330
vn -0.165173 0.967091 -0.193526
vn -0.358512 0.896807 -0.259243
vn -0.299932 0.950188 0.084761
vn -0.520704 0.794083 -0.313527
vn -0.440642 0.789198 0.427786
vn -0.329969 0.913354 0.238549
vn -0.329969 0.913354 0.238549
vn -0.440642 0.789198 0.427786
vn 0.224314 0.884977 0.408043
vn 0.224314 0.884977 0.408043
vn 0.009914 0.947202 0.320485
vn -0.329969 0.913354 0.238549
vn 0.009914 0.947202 0.320485
vn 0.224314 0.884977 0.408043
vn 0.160185 0.960201 -0.228810
vn 0.160185 0.960201 -0.228810
vn -0.007801 0.995252 -0.097018
vn 0.009914 0.947202 0.320485
vn -0.127768 0.984571 0.119561
vn -0.007801 0.995252 -0.097018
vn -0.392660 0.917774 -0.059238
vn -0.127768 0.984571 0.119561
vn 0.009914 0.947202 0.320485
vn -0.007801 0.995252 -0.097018
vn -0.007801 0.995252 -0.097018
vn 0.160185 0.960201 -0.228810
vn -0.520704 0.794083 -0.313527
vn -0.520704 0.794083 -0.313527
vn -0.392660 0.917774 -0.059238
vn -0.007801 0.995252 -0.097018
vn -0.329969 0.913354 0.238549
vn -0.392660 0.917774 -0.059238
vn -0.520704 0.794083 -0.313527
vn -0.127768 0.984571 0.119561
vn -0.392660 0.917774 -0.059238
vn -0.329969 0.913354 0.238549
vn -0.127768 0.984571 0.119561
vn -0.329969 0.913354 0.238549
vn 0.009914 0.947202 0.320485
vn 0.700082 0.588094 -0.405006
vn -0.013765 0.876427 -0.481339
vn 0.196328 0.919725 -0.339943
vn 0.196328 0.919725 -0.339943
vn -0.013765 0.876427 -0.481339
vn -0.063070 0.974053 0.217352
vn -0.063070 0.974053 0.217352
vn 0.191605 0.981406 0.011376
vn 0.196328 0.919725 -0.339943
vn 0.191605 0.981406 0.011376
vn -0.063070 0.974053 0.217352
vn 0.585726 0.742152 0.325783
vn 0.585726 0.742152 0.325783
vn 0.487428 0.872083 0.043420
vn 0.191605 0.981406 0.011376
vn 0.396374 0.862131 -0.315621
vn 0.487428 0.872083 0.043420
vn 0.584417 0.746662 -0.317730
vn 0.396374 0.862131 -0.315621
vn 0.191605 0.981406 0.011376
vn 0.487428 0.872083 0.043420
vn 0.487428 0.872083 0.043420
vn 0.585726 0.742152 0.325783
vn 0.700082 0.588094 -0.405006
vn 0.700082 0.588094 -0.405006
vn 0.584417 0.746662 -0.317730
vn 0.487428 0.872083 0.043420
vn 0.196328 0.919725 -0.339943
vn 0.584417 0.746662 -0.317730
vn 0.700082 0.588094 -0.405006
vn 0.396374 0.862131 -0.315621
vn 0.584417 0.746662 -0.317730
vn 0.196328 0.919725 -0.339943
vn 0.396374 0.862131 -0.315621
vn 0.196328 0.919725 -0.339943
vn 0.191605 0.981406 0.011376
vn 0.466287 0.714340 -0.521818
vn -0.300855 0.740548 -0.600895
vn -0.084585 0.904619 -0.417743
vn -0.084585 0.904619 -0.417743
vn -0.300855 0.740548 -0.600895
vn -0.372408 0.924455 0.081825
vn -0.372408 0.924455 0.081825
vn -0.244471 0.969520 -0.016301
vn -0.084585 0.904619 -0.417743
vn -0.244471 0.969520 -0.016301
vn -0.372408 0.924455 0.081825
vn 0.314103 0.931823 0.181783
vn 0.314103 0.931823 0.181783
vn 0.256876 0.965700 0.037911
vn -0.244471 0.969520 -0.016301
vn 0.066056 0.992799 -0.099937
vn 0.256876 0.965700 0.037911
vn 0.314707 0.848386 -0.425677
vn 0.066056 0.992799 -0.099937
vn -0.244471 0.969520 -0.016301
vn 0.256876 0.965700 0.037911
vn 0.256876 0.965700 0.037911
vn 0.314103 0.931823 0.181783
vn 0.466287 0.714340 -0.521818
vn 0.466287 0.714340 -0.521818
vn 0.314707 0.848386 -0.425677
vn 0.256876 0.965700 0.037911
vn -0.084585 0.904619 -0.417743
vn 0.314707 0.848386 -0.425677
vn 0.466287 0.714340 -0.521818
vn 0.066056 0.992799 -0.099937
vn 0.314707 0.848386 -0.425677
vn -0.084585 0.904619 -0.417743
vn 0.066056 0.992799 -0.099937
vn -0.084585 0.904619 -0.417743
vn -0.244471 0.969520 -0.016301
vn -0.513388 0.796601 -0.319154
vn -0.427744 0.803133 0.414743
vn -0.362104 0.903169 0.230578
vn -0.362104 0.903169 0.230578
vn -0.427744 0.803133 0.414743
vn 0.229657 0.887369 0.399793
vn 0.229657 0.887369 0.399793
vn -0.046038 0.952398 0.301363
vn -0.362104 0.903169 0.230578
vn -0.046038 0.952398 0.301363
vn 0.229657 0.887369 0.399793
vn 0.160185 0.960201 -0.228810
vn 0.160185 0.960201 -0.228810
vn -0.097372 0.994359 -0.042068
vn -0.046038 0.952398 0.301363
vn -0.303906 0.939760 0.156501
vn -0.097372 0.994359 -0.042068
vn -0.449849 0.888087 -0.094542
vn -0.303906 0.939760 0.156501
vn -0.046038 0.952398 0.301363
vn -0.097372 0.994359 -0.042068
vn -0.097372 0.994359 -0.042068
vn 0.160185 0.960201 -0.228810
vn -0.513388 0.796601 -0.319154
vn -0.513388 0.796601 -0.319154
vn -0.449849 0.888087 -0.094542
vn -0.097372 0.994359 -0.042068
vn -0.362104 0.903169 0.230578
vn -0.449849 0.888087 -0.094542
vn -0.513388 0.796601 -0.319154
vn -0.303906 0.939760 0.156501
vn -0.449849 0.888087 -0.094542
vn -0.362104 0.903169 0.230578
vn -0.303906 0.939760 0.156501
vn -0.362104 0.903169 0.230578
vn -0.046038 0.952398 0.301363
vn 0.325540 0.819957 -0.470843
vn -0.412182 0.725699 -0.550878
vn -0.357701 0.752873 -0.552478
vn -0.357701 0.752873 -0.552478
vn -0.412182 0.725699 -0.550878
vn -0.513379 0.848151 0.130694
vn -0.513379 0.848151 0.130694
vn -0.484320 0.872907 0.058888
vn -0.357701 0.752873 -0.552478
vn -0.484320 0.872907 0.058888
vn -0.513379 0.848151 0.130694
vn 0.162561 0.957575 0.237957
vn 0.162561 0.957575 0.237957
vn 0.162961 0.970479 0.177806
vn -0.484320 0.872907 0.058888
vn -0.121170 0.982758 -0.139661
vn 0.162961 0.970479 0.177806
vn 0.181849 0.843004 -0.506236
vn -0.121170 0.982758 -0.139661
vn -0.484320 0.872907 0.058888
vn 0.162961 0.970479 0.177806
vn 0.162961 0.970479 0.177806
vn 0.162561 0.957575 0.237957
vn 0.325540 0.819957 -0.470843
vn 0.325540 0.819957 -0.470843
vn 0.181849 0.843004 -0.506236
vn 0.162961 0.970479 0.177806
vn -0.357701 0.752873 -0.552478
vn 0.181849 0.843004 -0.506236
vn 0.325540 0.819957 -0.470843
vn -0.121170 0.982758 -0.139661
vn 0.181849 0.843004 -0.506236
vn -0.357701 0.752873 -0.552478
vn -0.121170 0.982758 -0.139661
vn -0.357701 0.752873 -0.552478
vn -0.484320 0.872907 0.058888
vn -0.015568 0.537207 -0.843307
vn -0.712140 0.489257 -0.503473
vn -0.477601 0.712979 -0.513379
vn -0.477601 0.712979 -0.513379
vn -0.712140 0.489257 -0.503473
vn -0.472948 0.879707 0.049354
vn -0.472948 0.879707 0.049354
vn -0.401156 0.894907 -0.195488
vn -0.477601 0.712979 -0.513379
vn -0.401156 0.894907 -0.195488
vn -0.472948 0.879707 0.049354
vn 0.154302 0.959076 -0.237412
vn 0.154302 0.959076 -0.237412
vn -0.023745 0.933370 -0.358128
vn -0.401156 0.894907 -0.195488
vn -0.282024 0.861694 -0.421836
vn -0.023745 0.933370 -0.358128
vn -0.169874 0.722208 -0.670491
vn -0.282024 0.861694 -0.421836
vn -0.401156 0.894907 -0.195488
vn -0.023745 0.933370 -0.358128
vn -0.023745 0.933370 -0.358128
vn 0.154302 0.959076 -0.237412
vn -0.015568 0.537207 -0.843307
vn -0.015568 0.537207 -0.843307
vn -0.169874 0.722208 -0.670491
vn -0.023745 0.933370 -0.358128
vn -0.477601 0.712979 -0.513379
vn -0.169874 0.722208 -0.670491
vn -0.015568 0.537207 -0.843307
vn -0.282024 0.861694 -0.421836
vn -0.169874 0.722208 -0.670491
vn -0.477601 0.712979 -0.513379
vn -0.282024 0.861694 -0.421836
vn -0.477601 0.712979 -0.513379
vn -0.401156 0.894907 -0.195488
vn -0.096995 0.846820 -0.522961
vn -0.464198 0.879978 0.100786
vn -0.417230 0.905458 0.077876
vn -0.417230 0.905458 0.077876
vn -0.464198 0.879978 0.100786
vn 0.095334 0.855104 0.509615
vn 0.095334 0.855104 0.509615
vn 0.111171 0.887120 0.447950
vn -0.417230 0.905458 0.077876
vn 0.111171 0.887120 0.447950
vn 0.095334 0.855104 0.509615
vn 0.531312 0.842922 -0.084790
vn 0.531312 0.842922 -0.084790
vn 0.494457 0.864266 -0.092500
vn 0.111171 0.887120 0.447950
vn 0.065425 0.997694 -0.018082
vn 0.494457 0.864266 -0.092500
vn -0.057583 0.884655 -0.462676
vn 0.065425 0.997694 -0.018082
vn 0.111171 0.887120 0.447950
vn 0.494457 0.864266 -0.092500
vn 0.494457 0.864266 -0.092500
vn 0.531312 0.842922 -0.084790
vn -0.096995 0.846820 -0.522961
vn -0.096995 0.846820 -0.522961
vn -0.057583 0.884655 -0.462676
vn 0.494457 0.864266 -0.092500
vn -0.417230 0.905458 0.077876
vn -0.057583 0.884655 -0.462676
vn -0.096995 0.846820 -0.522961
vn 0.065425 0.997694 -0.018082
vn -0.057583 0.884655 -0.462676
vn -0.417230 0.905458 0.077876
vn 0.065425 0.997694 -0.018082
vn -0.417230 0.905458 0.077876
vn 0.111171 0.887120 0.447950
vn -0.258011 0.882707 -0.392758
vn -0.282285 0.842922 -0.458036
vn -0.445639 0.846820 0.290349
vn -0.282285 0.842922 -0.458036
vn -0.258011 0.882707 -0.392758
vn 0.321324 0.913639 -0.249028
vn 0.321324 0.913639 -0.249028
vn 0.433954 0.855104 -0.283691
vn -0.282285 0.842922 -0.458036
vn 0.433954 0.855104 -0.283691
vn 0.321324 0.913639 -0.249028
vn 0.205772 0.925846 0.316965
vn -0.026386 0.997095 -0.071459
vn 0.205772 0.925846 0.316965
vn 0.321324 0.913639 -0.249028
vn -0.026386 0.997095 -0.071459
vn -0.354485 0.915443 0.190537
vn 0.205772 0.925846 0.316965
vn -0.026386 0.997095 -0.071459
vn 0.321324 0.913639 -0.249028
vn -0.258011 0.882707 -0.392758
vn -0.026386 0.997095 -0.071459
vn -0.258011 0.882707 -0.392758
vn -0.354485 0.915443 0.190537
vn -0.445639 0.846820 0.290349
vn -0.354485 0.915443 0.190537
vn -0.258011 0.882707 -0.392758
vn 0.205772 0.925846 0.316965
vn -0.354485 0.915443 0.190537
vn -0.445639 0.846820 0.290349
vn -0.445639 0.846820 0.290349
vn 0.271288 0.879978 0.389924
vn 0.205772 0.925846 0.316965
vn 0.205772 0.925846 0.316965
vn 0.271288 0.879978 0.389924
vn 0.433954 0.855104 -0.283691
vn 0.042658 0.924808 0.378036
vn -0.092380 0.603456 0.792027
vn 0.561006 0.707452 0.429865
vn -0.437477 0.884621 0.161428
vn -0.047598 0.627757 0.776953
vn -0.092380 0.603456 0.792027
vn -0.092380 0.603456 0.792027
vn -0.414365 0.893372 0.173748
vn -0.437477 0.884621 0.161428
vn 0.042658 0.924808 0.378036
vn -0.414365 0.893372 0.173748
vn -0.092380 0.603456 0.792027
vn 0.042658 0.924808 0.378036
vn 0.214084 0.968585 -0.126537
vn -0.414365 0.893372 0.173748
vn 0.042658 0.924808 0.378036
vn 0.561006 0.707452 0.429865
vn 0.214084 0.968585 -0.126537
vn -0.092380 0.603456 0.792027
vn -0.047598 0.627757 0.776953
vn 0.568571 0.704707 0.424400
vn 0.568571 0.704707 0.424400
vn 0.561006 0.707452 0.429865
vn -0.092380 0.603456 0.792027
vn 0.561006 0.707452 0.429865
vn 0.568571 0.704707 0.424400
vn 0.243310 0.959993 -0.138613
vn 0.243310 0.959993 -0.138613
vn 0.214084 0.968585 -0.126537
vn 0.561006 0.707452 0.429865
vn 0.214084 0.968585 -0.126537
vn 0.243310 0.959993 -0.138613
vn -0.437477 0.884621 0.161428
vn -0.437477 0.884621 0.161428
vn -0.414365 0.893372 0.173748
vn 0.214084 0.968585 -0.126537
vn 0.784650 0.537207 0.309407
vn 0.738306 0.489256 -0.464254
vn 0.656378 0.714562 -0.242011
vn 0.533319 0.841146 -0.089685
vn 0.340729 0.933122 0.114831
vn 0.683342 0.723375 0.098860
vn 0.533319 0.841146 -0.089685
vn 0.335756 0.894779 -0.294343
vn 0.340729 0.933122 0.114831
vn 0.533319 0.841146 -0.089685
vn 0.656378 0.714562 -0.242011
vn 0.335756 0.894779 -0.294343
vn 0.136014 0.879707 -0.455649
vn 0.335756 0.894779 -0.294343
vn 0.656378 0.714562 -0.242011
vn 0.656378 0.714562 -0.242011
vn 0.738306 0.489256 -0.464254
vn 0.136014 0.879707 -0.455649
vn 0.533319 0.841146 -0.089685
vn 0.683342 0.723375 0.098860
vn 0.656378 0.714562 -0.242011
vn 0.656378 0.714562 -0.242011
vn 0.683342 0.723375 0.098860
vn 0.784650 0.537207 0.309407
vn 0.784650 0.537207 0.309407
vn 0.683342 0.723375 0.098860
vn 0.340729 0.933122 0.114831
vn 0.340729 0.933122 0.114831
vn 0.159973 0.959076 0.233628
vn 0.784650 0.537207 0.309407
vn 0.159973 0.959076 0.233628
vn 0.340729 0.933122 0.114831
vn 0.335756 0.894779 -0.294343
vn 0.335756 0.894779 -0.294343
vn 0.136014 0.879707 -0.455649
vn 0.159973 0.959076 0.233628
vn -0.049609 0.957070 0.285579
vn 0.033626 0.866987 0.497195
vn 0.294389 0.934378 0.200680
vn 0.294389 0.934378 0.200680
vn 0.539640 0.822523 0.179568
vn -0.030259 0.947280 -0.318974
vn -0.030259 0.947280 -0.318974
vn -0.010194 0.999565 -0.027662
vn 0.294389 0.934378 0.200680
vn -0.049609 0.957070 0.285579
vn 0.294389 0.934378 0.200680
vn -0.010194 0.999565 -0.027662
vn -0.049609 0.957070 0.285579
vn -0.010194 0.999565 -0.027662
vn -0.328962 0.909508 0.254124
vn -0.049609 0.957070 0.285579
vn -0.328962 0.909508 0.254124
vn 0.033626 0.866987 0.497195
vn 0.070813 0.707810 0.702845
vn 0.539640 0.822523 0.179568
vn 0.294389 0.934378 0.200680
vn 0.294389 0.934378 0.200680
vn 0.033626 0.866987 0.497195
vn 0.070813 0.707810 0.702845
vn -0.468591 0.838395 0.278416
vn 0.070813 0.707810 0.702845
vn 0.033626 0.866987 0.497195
vn 0.033626 0.866987 0.497195
vn -0.328962 0.909508 0.254124
vn -0.468591 0.838395 0.278416
vn -0.030259 0.947280 -0.318974
vn -0.468591 0.838395 0.278416
vn -0.328962 0.909508 0.254124
vn -0.328962 0.909508 0.254124
vn -0.010194 0.999565 -0.027662
vn -0.030259 0.947280 -0.318974
vn -0.008065 0.999950 0.005927
vn -0.004171 0.999949 0.009151
vn -0.008710 0.999948 0.005261
s off
f 1/1/1 2/2/2 3/3/3
f 4/4/4 5/5/5 6/6/6
f 6/6/7 5/5/8 7/7/9
f 7/7/10 8/8/11 6/6/12
f 8/8/13 7/7/14 9/9/15
f 9/9/16 10/10/17 8/8/18
f 11/11/19 10/10/20 12/12/21
f 11/11/22 8/8/23 10/10/24
f 10/10/25 9/9/26 4/4/27
f 4/4/28 12/12/29 10/10/30
f 6/6/31 12/12/32 4/4/33
f 11/11/34 12/12/35 6/6/36
f 11/11/37 6/6/38 8/8/39
f 13/13/40 14/14/41 15/15/42
f 15/15/43 14/14/44 16/16/45
f 16/16/46 17/17/47 15/15/48
f 17/17/49 16/16/50 18/18/51
f 18/18/52 19/19/53 17/17/54
f 20/20/55 19/19/56 21/21/57
f 20/20/58 17/17/59 19/19/60
f 19/19/61 18/18/62 13/13/63
f 13/13/64 21/21/65 19/19/66
f 15/15/67 21/21/68 13/13/69
f 20/20/70 21/21/71 15/15/72
f 20/20/73 15/15/74 17/17/75
f 22/22/76 23/23/77 24/24/78
f 24/24/79 23/23/80 25/25/81
f 25/25/82 26/26/83 24/24/84
f 26/26/85 25/25/86 27/27/87
f 27/27/88 28/28/89 26/26/90
f 29/29/91 28/28/92 30/30/93
f 29/29/94 26/26/95 28/28/96
f 28/28/97 27/27/98 22/22/99
f 22/22/100 30/30/101 28/28/102
f 24/24/103 30/30/104 22/22/105
f 29/29/106 30/30/107 24/24/108
f 29/29/109 24/24/110 26/26/111
f 31/31/112 32/32/113 33/33/114
f 33/33/115 32/32/116 34/34/117
f 34/34/118 35/35/119 33/33/120
f 35/35/121 34/34/122 36/36/123
f 36/36/124 37/37/125 35/35/126
f 38/38/127 37/37/128 39/39/129
f 38/38/130 35/35/131 37/37/132
f 37/37/133 36/36/134 31/31/135
f 31/31/136 39/39/137 37/37/138
f 33/33/139 39/39/140 31/31/141
f 38/38/142 39/39/143 33/33/144
f 38/38/145 33/33/146 35/35/147
f 40/40/148 41/41/149 42/42/150
f 42/42/151 41/41/152 43/43/153
f 43/43/154 44/44/155 42/42/156
f 44/44/157 43/43/158 45/45/159
f 45/45/160 46/46/161 44/44/162
f 47/47/163 46/46/164 48/48/165
f 47/47/166 44/44/167 46/46/168
f 46/46/169 45/45/170 40/40/171
f 40/40/172 48/48/173 46/46/174
f 42/42/175 48/48/176 40/40/177
f 47/47/178 48/48/179 42/42/180
f 47/47/181 42/42/182 44/44/183
f 49/49/184 50/50/185 51/51/186
f 49/49/187 52/52/188 50/50/189
f 53/53/190 54/54/191 55/55/192
f 56/56/193 53/53/194 55/55/195
f 57/57/196 58/58/197 59/59/198
f 60/60/199 57/57/200 59/59/201
f 61/61/202 62/62/203 63/63/204
f 61/61/205 64/64/206 62/62/207
f 65/65/208 66/66/209 67/67/210
f 65/65/211 68/68/212 66/66/213
f 69/69/214 70/70/215 71/71/216
f 69/69/217 72/72/218 70/70/219
f 73/73/220 74/74/221 75/75/222
f 73/73/223 76/76/224 74/74/225
f 77/77/226 78/78/227 79/79/228
f 80/80/229 78/78/230 77/77/231
f 81/81/232 82/82/233 83/83/234
f 81/81/235 84/84/236 82/82/237
f 85/85/238 86/86/239 87/87/240
f 85/85/241 88/88/242 86/86/243
f 89/89/244 90/90/245 91/91/246
f 92/92/247 89/89/248 91/91/249
f 93/93/250 94/94/251 95/95/252
f 93/93/253 96/96/254 94/94/255
f 97/97/256 98/98/257 99/99/258
f 100/100/259 97/97/260 99/99/261
f 101/101/262 102/102/263 103/103/264
f 104/104/265 101/101/266 103/103/267
f 105/105/268 106/106/269 107/107/270
f 105/105/271 108/108/272 106/106/273
f 109/109/274 110/110/275 111/111/276
f 109/109/277 112/112/278 110/110/279
f 113/113/280 114/114/281 115/115/282
f 116/116/283 113/113/284 115/115/285
f 117/117/286 118/118/287 119/119/288
f 117/117/289 120/120/290 118/118/291
f 121/121/292 122/122/293 123/123/294
f 124/124/295 121/121/296 123/123/297
f 125/125/298 126/126/299 127/127/300
f 128/128/301 125/125/302 127/127/303
f 129/129/304 130/130/305 131/131/306
f 129/129/307 132/132/308 130/130/309
f 133/133/310 134/134/311 135/135/312
f 133/133/313 136/136/314 134/134/315
f 137/137/316 138/138/317 139/139/318
f 137/137/319 140/140/320 138/138/321
f 141/141/322 142/142/323 143/143/324
f 141/141/325 144/144/326 142/142/327
f 145/145/328 146/146/329 147/147/330
f 148/148/331 146/146/332 145/145/333
f 149/149/334 150/150/335 151/151/336
f 149/149/337 152/152/338 150/150/339
f 153/153/340 154/154/341 155/155/342
f 153/153/343 156/156/344 154/154/345
f 157/157/346 158/158/347 159/159/348
f 160/160/349 157/157/350 159/159/351
f 161/161/352 162/162/353 163/163/354
f 161/161/355 164/164/356 162/162/357
f 165/165/358 166/166/359 167/167/360
f 168/168/361 165/165/362 167/167/363
f 169/169/364 170/170/365 171/171/366
f 172/172/367 169/169/368 171/171/369
f 173/173/370 174/174/371 175/175/372
f 173/173/373 176/176/374 174/174/375
f 177/177/376 178/178/377 179/179/378
f 177/177/379 180/180/380 178/178/381
f 181/181/382 182/182/383 183/183/384
f 184/184/385 181/181/386 183/183/387
f 185/185/388 186/186/389 187/187/390
f 185/185/391 188/188/392 186/186/393
f 189/189/394 190/190/395 191/191/396
f 192/192/397 189/189/398 191/191/399
f 193/193/400 194/194/401 195/195/402
f 196/196/403 193/193/404 195/195/405
f 197/197/406 198/198/407 199/199/408
f 197/197/409 200/200/410 198/198/411
f 201/201/412 202/202/413 203/203/414
f 201/201/415 204/204/416 202/202/417
f 205/205/418 206/206/419 207/207/420
f 205/205/421 208/208/422 206/206/423
f 209/209/424 210/210/425 211/211/426
f 212/212/427 210/210/428 209/209/429
f 213/213/430 214/214/431 215/215/432
f 213/213/433 216/216/434 214/214/435
f 217/217/436 218/218/437 219/219/438
f 217/217/439 220/220/440 218/218/441
f 221/221/442 222/222/443 223/223/444
f 224/224/445 221/221/446 223/223/447
f 225/225/448 226/226/449 227/227/450
f 225/225/451 228/228/452 226/226/453
f 229/229/454 230/230/455 231/231/456
f 232/232/457 229/229/458 231/231/459
f 233/233/460 234/234/461 235/235/462
f 236/236/463 233/233/464 235/235/465
f 237/237/466 238/238/467 239/239/468
f 237/237/469 240/240/470 238/238/471
f 241/241/472 242/242/473 243/243/474
f 241/241/475 244/244/476 242/242/477
f 245/245/478 246/246/479 247/247/480
f 247/247/481 246/246/482 248/248/483
f 248/248/484 249/249/485 247/247/486
f 249/249/487 248/248/488 250/250/489
f 250/250/490 251/251/491 249/249/492
f 252/252/493 251/251/494 253/253/495
f 252/252/496 249/249/497 251/251/498
f 251/251/499 250/250/500 245/245/501
f 245/245/502 253/253/503 251/251/504
f 247/247/505 253/253/506 245/245/507
f 252/252/508 253/253/509 247/247/510
f 252/252/511 247/247/512 249/249/513
f 254/254/514 255/255/515 256/256/516
f 257/257/517 255/255/518 254/254/519
f 254/254/520 258/258/521 257/257/522
f 259/259/523 257/257/524 258/258/525
f 258/258/526 260/260/527 259/259/528
f 261/261/529 262/262/530 260/260/531
f 261/261/532 260/260/533 258/258/534
f 256/256/535 259/259/536 260/260/537
f 260/260/538 262/262/539 256/256/540
f 256/256/541 262/262/542 254/254/543
f 261/261/544 254/254/545 262/262/546
f 261/261/547 258/258/548 254/254/549
f 263/263/550 264/264/551 265/265/552
f 265/265/553 264/264/554 266/266/555
f 266/266/556 267/267/557 265/265/558
f 267/267/559 266/266/560 268/268/561
f 268/268/562 269/269/563 267/267/564
f 270/270/565 269/269/566 271/271/567
f 270/270/568 267/267/569 269/269/570
f 269/269/571 268/268/572 263/263/573
f 263/263/574 271/271/575 269/269/576
f 265/265/577 271/271/578 263/263/579
f 270/270/580 271/271/581 265/265/582
f 270/270/583 265/265/584 267/267/585
f 272/272/586 273/273/587 274/274/588
f 273/273/589 272/272/590 275/275/591
f 276/276/592 277/277/593 278/278/594
f 279/279/595 278/278/596 277/277/597
f 274/274/598 278/278/599 279/279/600
f 279/279/601 280/280/602 274/274/603
f 274/274/604 280/280/605 272/272/606
f 277/277/607 275/275/608 279/279/609
f 275/275/610 277/277/611 273/273/612
f 276/276/613 273/273/614 277/277/615
f 276/276/616 274/274/617 273/273/618
f 276/276/619 278/278/620 274/274/621
f 281/281/622 282/282/623 283/283/624
f 283/283/625 282/282/626 284/284/627
f 284/284/628 285/285/629 283/283/630
f 285/285/631 284/284/632 286/286/633
f 286/286/634 287/287/635 285/285/636
f 288/288/637 287/287/638 289/289/639
f 288/288/640 285/285/641 287/287/642
f 287/287/643 286/286/644 281/281/645
f 281/281/646 289/289/647 287/287/648
f 283/283/649 289/289/650 281/281/651
f 288/288/652 289/289/653 283/283/654
f 288/288/655 283/283/656 285/285/657
f 290/290/658 291/291/659 292/292/660
f 292/292/661 291/291/662 293/293/663
f 293/293/664 294/294/665 292/292/666
f 294/294/667 293/293/668 295/295/669
f 295/295/670 296/296/671 294/294/672
f 297/297/673 296/296/674 298/298/675
f 297/297/676 294/294/677 296/296/678
f 296/296/679 295/295/680 290/290/681
f 290/290/682 298/298/683 296/296/684
f 292/292/685 298/298/686 290/290/687
f 297/297/688 298/298/689 292/292/690
f 297/297/691 292/292/692 294/294/693
f 299/299/694 300/300/695 301/301/696
f 301/301/697 300/300/698 302/302/699
f 302/302/700 303/303/701 301/301/702
f 303/303/703 302/302/704 304/304/705
f 304/304/706 305/305/707 303/303/708
f 306/306/709 305/305/710 307/307/711
f 306/306/712 303/303/713 305/305/714
f 305/305/715 304/304/716 299/299/717
f 299/299/718 307/307/719 305/305/720
f 301/301/721 307/307/722 299/299/723
f 306/306/724 307/307/725 301/301/726
f 306/306/727 301/301/728 303/303/729
f 308/308/730 309/309/731 310/310/732
f 310/310/733 309/309/734 311/311/735
f 311/311/736 312/312/737 310/310/738
f 312/312/739 311/311/740 313/313/741
f 313/313/742 314/314/743 312/312/744
f 315/315/745 314/314/746 316/316/747
f 315/315/748 312/312/749 314/314/750
f 314/314/751 313/313/752 308/308/753
f 308/308/754 316/316/755 314/314/756
f 310/310/757 316/316/758 308/308/759
f 315/315/760 316/316/761 310/310/762
f 315/315/763 310/310/764 312/312/765
f 317/317/766 318/318/767 319/319/768
f 319/319/769 318/318/770 320/320/771
f 320/320/772 321/321/773 319/319/774
f 321/321/775 320/320/776 322/322/777
f 322/322/778 323/323/779 321/321/780
f 324/324/781 323/323/782 325/325/783
f 324/324/784 321/321/785 323/323/786
f 323/323/787 322/322/788 317/317/789
f 317/317/790 325/325/791 323/323/792
f 319/319/793 325/325/794 317/317/795
f 324/324/796 325/325/797 319/319/798
f 324/324/799 319/319/800 321/321/801
f 326/326/802 327/327/803 328/328/804
f 328/328/805 327/327/806 329/329/807
f 329/329/808 330/330/809 328/328/810
f 330/330/811 329/329/812 331/331/813
f 331/331/814 332/332/815 330/330/816
f 333/333/817 332/332/818 334/334/819
f 333/333/820 330/330/821 332/332/822
f 332/332/823 331/331/824 326/326/825
f 326/326/826 334/334/827 332/332/828
f 328/328/829 334/334/830 326/326/831
f 333/333/832 334/334/833 328/328/834
f 333/333/835 328/328/836 330/330/837
f 335/335/838 336/336/839 337/337/840
f 337/337/841 336/336/842 338/338/843
f 338/338/844 339/339/845 337/337/846
f 339/339/847 338/338/848 340/340/849
f 340/340/850 341/341/851 339/339/852
f 342/342/853 341/341/854 343/343/855
f 342/342/856 339/339/857 341/341/858
f 341/341/859 340/340/860 335/335/861
f 335/335/862 343/343/863 341/341/864
f 337/337/865 343/343/866 335/335/867
f 342/342/868 343/343/869 337/337/870
f 342/342/871 337/337/872 339/339/873
f 344/344/874 345/345/875 346/346/876
f 346/346/877 345/345/878 347/347/879
f 347/347/880 348/348/881 346/346/882
f 348/348/883 347/347/884 349/349/885
f 349/349/886 350/350/887 348/348/888
f 351/351/889 350/350/890 352/352/891
f 351/351/892 348/348/893 350/350/894
f 350/350/895 349/349/896 344/344/897
f 344/344/898 352/352/899 350/350/900
f 346/346/901 352/352/902 344/344/903
f 351/351/904 352/352/905 346/346/906
f 351/351/907 346/346/908 348/348/909
f 353/353/910 354/354/911 355/355/912
f 356/356/913 354/354/914 353/353/915
f 353/353/916 357/357/917 356/356/918
f 358/358/919 356/356/920 357/357/921
f 357/357/922 359/359/923 358/358/924
f 360/360/925 361/361/926 359/359/927
f 360/360/928 359/359/929 357/357/930
f 355/355/931 358/358/932 359/359/933
f 359/359/934 361/361/935 355/355/936
f 355/355/937 361/361/938 353/353/939
f 360/360/940 353/353/941 361/361/942
f 360/360/943 357/357/944 353/353/945
f 362/362/946 363/363/947 364/364/948
f 364/364/949 363/363/950 365/365/951
f 365/365/952 366/366/953 364/364/954
f 366/366/955 365/365/956 367/367/957
f 367/367/958 368/368/959 366/366/960
f 369/369/961 368/368/962 370/370/963
f 369/369/964 366/366/965 368/368/966
f 368/368/967 367/367/968 362/362/969
f 362/362/970 370/370/971 368/368/972
f 364/364/973 370/370/974 362/362/975
f 369/369/976 370/370/977 364/364/978
f 369/369/979 364/364/980 366/366/981
f 371/371/982 372/372/983 373/373/984
f 373/373/985 372/372/986 374/374/987
f 374/374/988 375/375/989 373/373/990
f 375/375/991 374/374/992 376/376/993
f 376/376/994 377/377/995 375/375/996
f 378/378/997 377/377/998 379/379/999
f 378/378/1000 375/375/1001 377/377/1002
f 377/377/1003 376/376/1004 371/371/1005
f 371/371/1006 379/379/1007 377/377/1008
f 373/373/1009 379/379/1010 371/371/1011
f 378/378/1012 379/379/1013 373/373/1014
f 378/378/1015 373/373/1016 375/375/1017
f 380/380/1018 381/381/1019 382/382/1020
f 382/382/1021 381/381/1022 383/383/1023
f 383/383/1024 384/384/1025 382/382/1026
f 384/384/1027 383/383/1028 385/385/1029
f 385/385/1030 386/386/1031 384/384/1032
f 387/387/1033 386/386/1034 388/388/1035
f 387/387/1036 384/384/1037 386/386/1038
f 386/386/1039 385/385/1040 380/380/1041
f 380/380/1042 388/388/1043 386/386/1044
f 382/382/1045 388/388/1046 380/380/1047
f 387/387/1048 388/388/1049 382/382/1050
f 387/387/1051 382/382/1052 384/384/1053
f 389/389/1054 390/390/1055 391/391/1056
f 391/391/1057 390/390/1058 392/392/1059
f 392/392/1060 393/393/1061 391/391/1062
f 393/393/1063 392/392/1064 394/394/1065
f 394/394/1066 395/395/1067 393/393/1068
f 396/396/1069 395/395/1070 397/397/1071
f 396/396/1072 393/393/1073 395/395/1074
f 395/395/1075 394/394/1076 389/389/1077
f 389/389/1078 397/397/1079 395/395/1080
f 391/391/1081 397/397/1082 389/389/1083
f 396/396/1084 397/397/1085 391/391/1086
f 396/396/1087 391/391/1088 393/393/1089
f 398/398/1090 399/399/1091 400/400/1092
f 400/400/1093 399/399/1094 401/401/1095
f 401/401/1096 402/402/1097 400/400/1098
f 402/402/1099 401/401/1100 403/403/1101
f 403/403/1102 404/404/1103 402/402/1104
f 405/405/1105 404/404/1106 406/406/1107
f 405/405/1108 402/402/1109 404/404/1110
f 404/404/1111 403/403/1112 398/398/1113
f 398/398/1114 406/406/1115 404/404/1116
f 400/400/1117 406/406/1118 398/398/1119
f 405/405/1120 406/406/1121 400/400/1122
f 405/405/1123 400/400/1124 402/402/1125
f 407/407/1126 408/408/1127 409/409/1128
f 409/409/1129 408/408/1130 410/410/1131
f 410/410/1132 411/411/1133 409/409/1134
f 411/411/1135 410/410/1136 412/412/1137
f 412/412/1138 413/413/1139 411/411/1140
f 414/414/1141 413/413/1142 415/415/1143
f 414/414/1144 411/411/1145 413/413/1146
f 413/413/1147 412/412/1148 407/407/1149
f 407/407/1150 415/415/1151 413/413/1152
f 409/409/1153 415/415/1154 407/407/1155
f 414/414/1156 415/415/1157 409/409/1158
f 414/414/1159 409/409/1160 411/411/1161
f 416/416/1162 417/417/1163 418/418/1164
f 418/418/1165 417/417/1166 419/419/1167
f 419/419/1168 420/420/1169 418/418/1170
f 420/420/1171 419/419/1172 421/421/1173
f 421/421/1174 422/422/1175 420/420/1176
f 423/423/1177 422/422/1178 424/424/1179
f 423/423/1180 420/420/1181 422/422/1182
f 422/422/1183 421/421/1184 416/416/1185
f 416/416/1186 424/424/1187 422/422/1188
f 418/418/1189 424/424/1190 416/416/1191
f 423/423/1192 424/424/1193 418/418/1194
f 423/423/1195 418/418/1196 420/420/1197
f 425/425/1198 426/426/1199 427/427/1200
f 426/426/1201 425/425/1202 428/428/1203
f 428/428/1204 429/429/1205 426/426/1206
f 429/429/1207 428/428/1208 430/430/1209
f 431/431/1210 430/430/1211 428/428/1212
f 431/431/1213 432/432/1214 430/430/1215
f 431/431/1216 428/428/1217 425/425/1218
f 431/431/1219 425/425/1220 432/432/1221
f 427/427/1222 432/432/1223 425/425/1224
f 430/430/1225 432/432/1226 427/427/1227
f 427/427/1228 433/433/1229 430/430/1230
f 430/430/1231 433/433/1232 429/429/1233
f 434/434/1234 435/435/1235 436/436/1236
f 437/437/1237 438/438/1238 435/435/1239
f 435/435/1240 439/439/1241 437/437/1242
f 434/434/1243 439/439/1244 435/435/1245
f 434/434/1246 440/440/1247 439/439/1248
f 434/434/1249 436/436/1250 440/440/1251
f 435/435/1252 438/438/1253 441/441/1254
f 441/441/1255 436/436/1256 435/435/1257
f 436/436/1258 441/441/1259 442/442/1260
f 442/442/1261 440/440/1262 436/436/1263
f 440/440/1264 442/442/1265 437/437/1266
f 437/437/1267 439/439/1268 440/440/1269
f 443/443/1270 444/444/1271 445/445/1272
f 446/446/1273 447/447/1274 448/448/1275
f 446/446/1276 449/449/1277 447/447/1278
f 446/446/1279 445/445/1280 449/449/1281
f 450/450/1282 449/449/1283 445/445/1284
f 445/445/1285 444/444/1286 450/450/1287
f 446/446/1288 448/448/1289 445/445/1290
f 445/445/1291 448/448/1292 443/443/1293
f 443/443/1294 448/448/1295 447/447/1296
f 447/447/1297 451/451/1298 443/443/1299
f 451/451/1300 447/447/1301 449/449/1302
f 449/449/1303 450/450/1304 451/451/1305
f 452/452/1306 453/453/1307 454/454/1308
f 454/454/1309 455/455/1310 456/456/1311
f 456/456/1312 457/457/1313 454/454/1314
f 452/452/1315 454/454/1316 457/457/1317
f 452/452/1318 457/457/1319 458/458/1320
f 452/452/1321 458/458/1322 453/453/1323
f 459/459/1324 455/455/1325 454/454/1326
f 454/454/1327 453/453/1328 459/459/1329
f 460/460/1330 459/459/1331 453/453/1332
f 453/453/1333 458/458/1334 460/460/1335
f 456/456/1336 460/460/1337 458/458/1338
f 458/458/1339 457/457/1340 456/456/1341
f 2/2/1342 461/461/1343 3/3/1344
