# This file uses centimeters as units for non-parametric coordinates.

v 1.952559 0.176648 0.351934
v 1.343298 0.199299 0.077465
v 0.698101 0.636649 0.587277
v -1.174447 0.862902 -0.137804
v -0.133508 0.648897 0.649317
v -0.352631 0.792825 -0.129649
v -1.421047 0.184996 0.761687
v -1.583961 0.549187 0.709585
v -1.218121 0.842116 -0.326051
v -1.875116 0.910108 -0.102961
v -1.203458 0.409122 0.323014
v -0.871162 0.862902 1.053070
v 0.422727 0.648897 1.223263
v -0.152582 0.792825 0.654208
v -0.641255 0.184996 1.956971
v -0.808642 0.549187 1.992144
v -1.002124 0.842116 0.910967
v -1.463168 0.910108 1.429475
v -0.668756 0.409122 1.468072
v 1.992041 0.253170 -1.503614
v 0.715701 0.713171 -1.500965
v 1.444630 0.275821 -1.120373
v 1.130009 0.468585 -2.179829
v 2.269602 -2.269810 0.012213
v 2.020478 -1.729311 0.955349
v 2.252775 -2.371858 0.924206
v 1.933044 -1.883187 0.210492
v 2.143280 -1.095033 1.206224
v 1.739572 -0.557492 0.880314
v 1.819198 -0.606760 1.303164
v 2.110133 -0.758618 0.770523
v 1.796880 -1.787703 -0.217861
v 1.381434 0.049350 0.071604
v 1.696071 -0.153731 0.948055
v 2.124118 -2.098035 0.647694
v 1.464613 -0.740842 1.566017
v 1.793789 -2.316061 1.460380
v 2.075982 -3.556327 0.154804
v -0.697227 -0.019969 -1.254344
v 0.316211 0.810760 -1.605742
v 0.131728 0.097831 -1.993075
v -0.263515 0.416437 -0.992644
v 1.657484 -1.675458 0.372965
v 2.232083 -2.328488 -0.326208
v 1.784839 -1.814331 -0.379147
v 1.495933 -2.570130 0.792967
v -0.236913 1.036233 0.434065
v 0.123598 1.365431 1.519017
v 0.435753 1.124501 0.906260
v -0.949614 0.516672 1.035691
v 1.901925 -2.938307 -0.134051
v 1.958323 -3.298567 -0.803236
v 1.698787 -2.955188 -0.622712
v 1.928598 -3.587339 0.079796
v 2.161661 -2.483239 -1.676931
v 1.916228 -1.816258 -1.446612
v 2.053547 -2.145195 -1.200617
v 2.164710 -1.941837 -1.781736
v 2.077273 -2.981932 0.216133
v 1.785598 -2.371206 0.466705
v 2.158463 -2.647323 0.585987
v 1.941490 -2.471312 0.085393
v 1.440463 0.296121 -0.679680
v 0.675713 0.310339 -0.380841
v 1.423137 0.116933 0.097803
v 1.447580 0.099684 0.093165
v 2.080905 -0.465774 -0.027013
v 2.070774 -0.264898 -0.815273
v 1.275539 0.362676 -1.711199
v 0.562563 0.397665 -1.346491
v 0.368904 0.310339 -1.997698
v 1.916667 -0.201629 -1.798168
v 0.830467 0.131202 -2.913323
v 1.469819 -0.424426 -3.039138
v 2.099592 -1.327584 -1.911464
v 2.236403 -1.321005 -1.167356
v 0.722089 1.033131 -2.561925
v 0.341726 0.588415 -1.687273
v 0.868983 0.888607 -1.750983
v 0.080236 0.904489 -2.143737
v 1.254634 0.057492 3.326831
v 1.890614 -0.125840 2.758301
v 1.435981 0.123858 2.152381
v 1.966313 -0.238653 1.898206
v 0.803011 0.305326 2.697209
v -0.148750 -0.135727 3.105106
v 0.767284 0.186814 1.353615
v 1.346972 -0.108826 1.154924
v -0.655916 -0.118693 2.543904
v 0.165361 0.371144 1.936723
v -0.739505 0.122235 0.988615
v 0.875914 -0.200561 0.666161
v -0.114228 -0.067850 0.435244
v 1.234336 1.105167 -0.614709
v 0.187460 1.102054 -0.171733
v 0.755861 1.340435 0.154041
v 0.753762 0.817532 -0.627070
v -1.054366 0.880863 0.900478
v -0.166284 1.173792 0.254188
v -0.834093 1.241785 0.065924
v -0.521828 0.740799 0.797409
v 0.790480 0.512470 -2.054208
v -0.514717 -0.067518 -1.890445
v 0.225450 0.168243 -1.449024
v 0.406984 0.017675 -3.063250
v 0.826864 0.514420 2.954025
v 0.442545 0.650950 1.660075
v 0.027138 0.215281 2.234495
v 1.077278 0.595789 2.339439
v 2.136447 -1.933827 -0.452288
v 2.081949 -1.026963 -1.340644
v 1.852872 -1.390696 -0.581612
v 2.229867 -1.778858 -1.482275
v 2.031540 -2.516333 -1.150876
v 1.832719 -2.516332 -0.358446
v 1.769065 -3.846589 -0.836316
v 1.769066 -1.106420 -0.104747
v 2.031540 -1.106420 -1.150876
v 1.769066 0.033990 -0.627977
v 1.769066 0.303492 -1.150876
v 1.769066 0.096480 -2.089657
v 1.769065 -3.926245 -1.884285
v 1.769066 -2.516333 -2.197005
v 1.769066 -1.106420 -2.197005
v 1.617113 0.395807 -0.990305
v 0.815696 0.494013 0.099987
v 1.501931 0.025460 0.056760
v 0.979331 0.496842 -0.816899
v 1.882803 -1.141703 -0.776122
v 1.650402 -0.555560 0.263135
v 1.717727 -1.295213 0.198588
v 1.613147 -0.650123 -0.565145
v 2.051530 -6.572510 -0.320001
v 1.946714 -6.646463 -0.924071
v 1.806908 -5.423880 -0.915833
v 1.965659 -9.022341 -0.402217
v 1.946833 -8.283234 -0.116878
v 1.965659 -5.223815 -0.274739
v 1.838268 -5.610209 -0.017446
v 1.892778 -6.479168 0.089033
v -0.156824 0.862902 -1.116636
v 0.478853 0.648895 0.023114
v 0.592081 0.792823 -0.778125
v -0.744869 0.184995 -0.392690
v 2.265512 0.168814 1.606000
v 1.166289 0.712592 1.891832
v 1.579768 0.275218 2.375741
v 1.730062 0.347105 1.347881
v 1.342052 -4.038184 0.818388
v 1.610339 -4.617673 0.200559
v 1.729550 -3.701392 -0.021501
v 1.461263 -3.121903 0.596329
v 1.729550 -3.701392 -0.021501
v 1.851565 -1.807895 -0.332186
v 1.588626 -1.219597 0.285200
v 1.548527 -4.234890 0.041155
v 1.494540 -6.423111 -0.739436
v 1.798084 -4.780498 -0.720862
v 1.757104 -4.073174 -0.415342
v 1.503611 -6.055466 -1.029614
v 1.697396 -4.131414 -1.176092
v -0.230782 0.786381 0.372355
v 0.441883 0.716304 -0.099839
v 0.181266 0.572377 -0.865922
v -0.943483 0.108473 -0.229271
v -0.736037 -0.096492 0.608393
v 0.325146 0.734237 0.764696
v -0.358716 0.339914 0.270423
v 0.216107 0.021308 1.179632
v 0.874709 0.778430 1.116882
v 0.206759 0.434204 0.627644
v -0.438139 0.198443 1.199316
v 0.686051 0.283635 2.179728
v 2.156743 -0.058230 0.909702
v 1.314433 0.041347 1.009714
v 1.706779 0.166048 1.290031
v 1.575075 0.088187 0.591391
v 1.525767 0.057145 -0.524524
v 0.341462 0.643011 -0.832478
v 0.948872 0.249236 -0.246425
v 0.786945 0.171785 -1.353843
v 1.851565 -3.738232 -0.672921
v 1.588625 -5.505658 -1.199394
v 1.588626 -1.147414 -1.133349
v 1.588626 -5.202301 -0.768299
v 1.851565 -1.807895 -0.332186
v 1.588626 -1.219597 0.285200
v 1.729550 -3.701392 -0.021501
v 1.937412 -4.516019 -0.212939
v 1.778660 -4.422676 0.196095
v 1.692789 -6.226742 0.196095
v 1.851541 -6.965847 -0.295155
v 1.832596 -4.589972 -0.634269
v 1.592112 -3.367388 -0.808771
v 1.750863 -3.167322 -0.167677
v 1.592111 -3.053801 0.196095
v -1.033024 0.323733 0.765057
v -0.228401 0.349330 0.469739
v -0.448800 0.696220 -0.222366
v -0.200032 0.346793 0.459478
v 0.203079 0.199944 -0.278152
v -1.256143 0.673346 0.057089
v -2.250297 0.329943 0.146272
v -0.794019 0.737738 -1.216629
v -0.128895 0.271372 -1.193357
v -2.516912 0.296678 -0.561023
v -1.586424 0.712653 -0.887794
v -1.952048 0.158958 -2.018111
v -0.361594 0.132645 -1.822488
v -1.146570 0.172725 -2.308524
v -1.964457 0.244489 -1.181485
v -2.580762 0.222627 -1.063062
v -2.192866 0.176569 0.296804
v -1.234890 0.152767 -1.201724
v -1.312927 0.460977 -0.134545
v -1.239364 0.151762 1.013846
v -0.698227 0.255247 0.641941
v -0.790272 0.366985 -0.469478
v -0.244413 -0.447402 -1.118301
v -0.191646 0.146836 0.293787
v -0.302211 0.323733 1.768230
v 0.251513 0.349330 1.113997
v -0.281999 0.696220 0.621097
v 0.271111 0.346793 1.091062
v 0.257241 0.199944 0.250584
v -0.845923 0.673346 1.262880
v -1.666266 0.329943 1.831505
v -1.073295 0.737738 -0.072866
v -0.483487 0.271372 -0.381182
v -2.247466 0.296678 1.348227
v -1.599840 0.712653 0.604474
v -2.476085 0.158958 -0.197707
v -0.996587 0.132645 -0.813253
v -1.919194 0.172725 -0.848096
v -2.073606 0.244489 0.535852
v -2.550973 0.222627 0.943254
v -1.541973 0.176569 1.934021
v -1.449260 0.152767 0.157871
v -0.989958 0.460977 1.124309
v -0.358726 0.151762 2.086473
v -0.071928 0.255247 1.495804
v -0.700967 0.366985 0.574915
v -0.546853 -0.447402 -0.258861
v 0.196556 0.146836 0.942855
v 1.156217 0.090957 0.428104
v 1.217254 -0.129192 -0.539987
v 0.602570 -0.020781 -0.539987
v 0.535775 0.184949 0.448104
v -0.054045 -0.124266 -0.539988
v -0.433726 -0.099459 0.591011
v 0.016820 -0.053401 1.931423
v 0.591812 -0.031539 1.679946
v 1.204535 -0.123261 1.283401
v 1.973569 -0.723429 0.653649
v 0.407573 0.044984 -2.554658
v -0.204221 0.023122 -2.694531
v -0.396975 -0.022936 -1.293622
v 0.582170 0.261473 -1.333966
v 1.083481 -0.046738 -2.279295
v 1.195464 0.167480 -1.429985
v 1.956438 -0.646906 -1.803953
v 0.186901 -0.047743 -0.253236
v 0.832004 0.055742 -0.375650
v 1.435912 -0.052669 -0.490245
v -0.391081 0.323731 -0.233296
v 0.464334 0.349328 -0.179473
v 0.541404 0.696219 -0.901725
v 0.494433 0.346791 -0.177437
v 1.160526 0.199943 -0.690190
v -0.310109 0.673344 -0.971162
v -1.232914 0.479331 -1.312303
v 0.625947 0.737737 -1.950813
v 1.225346 0.271371 -1.661584
v -1.192024 0.446066 -2.067072
v -0.231787 0.712652 -1.969038
v -0.111113 0.158956 -3.150875
v 1.265791 0.132644 -2.331150
v 0.743108 0.172725 -3.092216
v 1.598854 -4.131699 -0.057279
v 1.868851 -3.995604 0.577712
v 1.878047 -4.737424 0.646842
v 1.632859 -6.573351 0.448444
v 1.633645 -6.197765 0.818313
v 1.761616 -4.138132 1.162569
v 1.854134 -2.808289 0.467067
v 1.878351 -3.899142 1.364485
v 1.636999 -4.595357 2.396334
v 1.701904 -4.875612 1.660606
v 1.636448 -4.567419 2.378570
v 1.587481 -2.080274 0.797258
v 1.573411 -2.304809 -0.435671
v 1.554304 -1.758560 -0.557707
v 1.589277 -1.292971 -0.873554
v 1.589277 -1.498253 -0.191531
v 1.621852 -0.512489 0.222355
v 1.621853 -0.256735 -0.420807
v 1.369844 -2.598577 -0.611853
v 1.369844 -1.120628 -1.403738
v 1.369844 0.159799 -1.007231
v 1.369844 0.279970 0.213968
v 1.369844 -0.667001 1.323933
v 1.369844 -1.646304 0.342496
v 1.387185 0.464321 -0.493941
v 1.015549 0.504402 -1.339106
v 0.687653 1.069415 -0.239556
v 0.187240 0.490635 -1.555988
v -0.151646 1.044330 -0.417369
v -1.103573 0.628355 -0.675092
v -0.414628 1.005023 0.548411
v -1.284457 0.661620 0.058823
v -0.631740 0.655410 1.258244
v 0.198644 0.681007 1.470599
v 0.409012 1.027897 0.775379
v 0.227836 0.678470 1.478210
v 0.977844 0.531621 1.098626
v 1.222622 0.603049 0.156347
v 1.393317 0.056122 1.300363
v 1.228754 0.194849 0.650077
v 0.694015 0.647534 1.039565
v 0.983977 0.123421 -0.292204
v 0.415145 0.619697 0.031043
v 0.233970 0.270270 -0.671790
v 0.204777 0.272807 -0.664178
v -0.408496 0.596823 0.258009
v -0.145218 0.625158 1.219111
v -0.625606 0.247210 -0.451825
v 1.021681 0.096202 2.145530
v 0.193371 0.082435 2.362410
v -1.015168 0.297505 1.481514
v -1.196050 0.330770 0.747598
v 1.257042 0.219598 -0.354725
v 1.119953 0.023161 -1.115347
v 1.095073 0.040410 -1.115347
v 0.449987 0.233816 -0.505752
v 1.287316 0.286153 0.689457
v 0.518846 0.321142 0.464063
v 0.449987 0.233816 1.139957
v 1.764579 -0.542297 -1.115347
v 1.901581 -0.341421 -0.339017
v 1.933417 -0.278152 0.655376
v 1.074158 0.054679 1.953481
v 1.725757 -0.500949 1.957895
v 2.134256 -1.404106 0.732583
v 2.129945 -1.397528 -0.023985
v 1.231705 0.392063 1.177001
vt 0.327502 0.089395
vt 0.319824 0.169242
vt 0.215409 0.212237
vt 0.132655 0.259968
vt 0.003385 0.140196
vt 0.026268 0.244774
vt 0.183163 0.117034
vt 0.327502 0.089395
vt 0.215409 0.212237
vt 0.186363 0.128458
vt 0.319824 0.169242
vt 0.132655 0.259968
vt 0.003385 0.140196
vt 0.026268 0.244774
vt 0.183163 0.117034
vt 0.327502 0.089395
vt 0.215409 0.212237
vt 0.186363 0.128458
vt 0.319824 0.169242
vt 0.327502 0.089395
vt 0.215409 0.212237
vt 0.319824 0.169242
vt 0.186363 0.128458
vt 0.327502 0.089395
vt 0.215409 0.212237
vt 0.186363 0.128458
vt 0.319824 0.169242
vt 0.057250 0.580762
vt 0.055715 0.709746
vt -0.005550 0.640924
vt 0.108478 0.643533
vt 0.993692 0.206972
vt 1.000025 0.440473
vt 0.889619 0.429627
vt 0.881773 0.183669
vt 0.789141 0.385651
vt 0.772100 0.182923
vt 0.907308 -0.000424
vt 0.327502 0.089395
vt 0.215409 0.212237
vt 0.186363 0.128458
vt 0.319824 0.169242
vt 0.132655 0.259968
vt 0.003385 0.140196
vt 0.026268 0.244774
vt 0.183163 0.117034
vt 0.132655 0.259968
vt 0.003385 0.140196
vt 0.026268 0.244774
vt 0.183163 0.117034
vt 0.132655 0.259968
vt 0.003385 0.140196
vt 0.026268 0.244774
vt 0.183163 0.117034
vt 0.057250 0.580762
vt 0.055715 0.709746
vt -0.005550 0.640924
vt 0.108478 0.643533
vt 0.057250 0.580762
vt 0.055715 0.709746
vt 0.108478 0.643533
vt -0.005550 0.640924
vt 0.101464 0.886332
vt 0.082952 1.000000
vt 0.000000 0.888647
vt 0.000000 0.884341
vt 0.000000 0.765528
vt 0.103372 0.768388
vt 0.229248 0.888841
vt 0.201826 1.000000
vt 0.284674 1.000000
vt 0.225148 0.769767
vt 0.403106 0.892254
vt 0.403676 0.773128
vt 0.234740 0.636320
vt 0.142004 0.637406
vt 0.057250 0.580762
vt 0.055715 0.709746
vt -0.005550 0.640924
vt 0.108478 0.643533
vt 0.000000 0.765528
vt 0.000000 0.886494
vt 0.101464 0.886332
vt 0.082952 1.000000
vt 0.103372 0.768388
vt 0.142004 0.637406
vt 0.229248 0.888841
vt 0.201826 1.000000
vt 0.234740 0.636320
vt 0.225148 0.769767
vt 0.403676 0.773128
vt 0.284674 1.000000
vt 0.403106 0.892254
vt 0.327502 0.089395
vt 0.215409 0.212237
vt 0.186363 0.128458
vt 0.319824 0.169242
vt 0.327502 0.089395
vt 0.215409 0.212237
vt 0.186363 0.128458
vt 0.319824 0.169242
vt 0.132655 0.259968
vt 0.003385 0.140196
vt 0.026268 0.244774
vt 0.183163 0.117034
vt 0.327502 0.089395
vt 0.215409 0.212237
vt 0.186363 0.128458
vt 0.319824 0.169242
vt 0.327502 0.089395
vt 0.215409 0.212237
vt 0.319824 0.169242
vt 0.186363 0.128458
vt 0.627345 0.172819
vt 0.724477 0.172819
vt 0.666607 0.008702
vt 0.755574 0.345639
vt 0.627345 0.345639
vt 0.692118 0.485317
vt 0.627346 0.518458
vt 0.512275 0.493259
vt 0.537448 0.000000
vt 0.499116 0.172819
vt 0.499117 0.345639
vt 0.327502 0.089395
vt 0.215409 0.212237
vt 0.186363 0.128458
vt 0.319824 0.169242
vt 0.327502 0.089395
vt 0.215409 0.212237
vt 0.186363 0.128458
vt 0.319824 0.169242
vt 0.179241 0.050697
vt 0.188346 0.120012
vt 0.038408 0.124075
vt 0.479517 0.060215
vt 0.388885 0.030001
vt 0.013915 0.044589
vt 0.061055 0.011481
vt 0.167741 0.002320
vt 0.132655 0.259968
vt 0.003385 0.140196
vt 0.026268 0.244774
vt 0.183163 0.117034
vt 0.327502 0.089395
vt 0.215409 0.212237
vt 0.186363 0.128458
vt 0.319824 0.169242
vt 0.221097 0.316064
vt 0.280891 0.228578
vt 0.352782 0.293947
vt 0.271304 0.378443
vt 0.352782 0.293947
vt 0.386654 0.506985
vt 0.306087 0.585703
vt 0.480831 0.370480
vt 0.471135 0.085067
vt 0.414393 0.271105
vt 0.422622 0.361534
vt 0.421814 0.117667
vt 0.338571 0.325881
vt 0.132655 0.259968
vt 0.026268 0.244774
vt 0.003385 0.140196
vt 0.183163 0.117034
vt 0.327502 0.089395
vt 0.215409 0.212237
vt 0.319824 0.169242
vt 0.186363 0.128458
vt 0.132655 0.259968
vt 0.026268 0.244774
vt 0.003385 0.140196
vt 0.183163 0.117034
vt 0.057250 0.580762
vt 0.055715 0.709746
vt 0.108478 0.643533
vt -0.005550 0.640924
vt 0.327502 0.089395
vt 0.215409 0.212237
vt 0.319824 0.169242
vt 0.186363 0.128458
vt 0.414393 0.271105
vt 0.482587 0.064820
vt 0.479516 0.599181
vt 0.428647 0.100391
vt 0.386654 0.506985
vt 0.306087 0.585703
vt 0.352782 0.293947
vt 0.179241 0.050697
vt 0.167741 0.002320
vt 0.388922 -0.001336
vt 0.479517 0.060215
vt 0.187514 0.111823
vt 0.037561 0.127218
vt 0.013158 0.043981
vt -0.000590 -0.005577
vt 0.000000 0.765528
vt 0.000000 0.884341
vt 0.101464 0.886332
vt 0.000000 0.888647
vt 0.082952 1.000000
vt 0.103372 0.768388
vt 0.142004 0.637406
vt 0.229248 0.888841
vt 0.201826 1.000000
vt 0.234740 0.636320
vt 0.225148 0.769767
vt 0.403676 0.773128
vt 0.284674 1.000000
vt 0.403106 0.892254
vt 0.272107 0.480971
vt 0.302932 0.539296
vt 0.138632 0.609930
vt 0.223501 0.389000
vt 0.121115 0.479936
vt 0.000000 0.551580
vt 0.000000 0.479106
vt 0.118663 0.388193
vt 0.146309 0.242941
vt 0.000000 0.387280
vt 0.000000 0.765528
vt 0.000000 0.884341
vt 0.101464 0.886332
vt 0.000000 0.888647
vt 0.082952 1.000000
vt 0.103372 0.768388
vt 0.142004 0.637406
vt 0.229248 0.888841
vt 0.201826 1.000000
vt 0.234740 0.636320
vt 0.225148 0.769767
vt 0.403676 0.773128
vt 0.284674 1.000000
vt 0.403106 0.892254
vt 0.272107 0.480971
vt 0.302932 0.539296
vt 0.138632 0.609930
vt 0.223501 0.389000
vt 0.121115 0.479936
vt 0.000000 0.551580
vt 0.000000 0.479106
vt 0.118663 0.388193
vt 0.146309 0.242941
vt 0.000000 0.387280
vt 0.118663 0.388193
vt 0.000000 0.387280
vt 0.000000 0.479106
vt 0.121115 0.479936
vt 0.000000 0.551580
vt 0.138632 0.609930
vt 0.302932 0.539296
vt 0.272107 0.480971
vt 0.223501 0.389000
vt 0.146309 0.242941
vt 0.272107 0.480971
vt 0.302932 0.539296
vt 0.138632 0.609930
vt 0.121115 0.479936
vt 0.223501 0.389000
vt 0.118663 0.388193
vt 0.146309 0.242941
vt 0.000000 0.551580
vt 0.000000 0.479106
vt 0.000000 0.387280
vt 0.000000 0.765528
vt 0.000000 0.884341
vt 0.101464 0.886332
vt 0.000000 0.888647
vt 0.082952 1.000000
vt 0.103372 0.768388
vt 0.142004 0.637406
vt 0.229248 0.888841
vt 0.201826 1.000000
vt 0.234740 0.636320
vt 0.225148 0.769767
vt 0.403676 0.773128
vt 0.284674 1.000000
vt 0.403106 0.892254
vt 0.480830 0.370480
vt 0.403726 0.361809
vt 0.414393 0.271105
vt 0.482587 0.064820
vt 0.428647 0.100391
vt 0.337405 0.329962
vt 0.386654 0.506985
vt 0.306936 0.353256
vt 0.198516 0.252153
vt 0.294565 0.234981
vt 0.199932 0.255957
vt 0.325964 0.594574
vt 0.479516 0.599181
vt 0.122191 0.343261
vt 0.068328 0.386324
vt 0.155628 0.387017
vt 0.168347 0.517446
vt 0.083767 0.524072
vt 0.146309 0.242941
vt 0.000000 0.387280
vt 0.000000 0.551580
vt 0.138632 0.609930
vt 0.302932 0.539296
vt 0.223525 0.389045
vt 0.284674 1.000000
vt 0.403106 0.892254
vt 0.229248 0.888841
vt 0.403676 0.773128
vt 0.225148 0.769767
vt 0.234740 0.636320
vt 0.103372 0.768388
vt 0.142004 0.637406
vt 0.000000 0.765528
vt 0.000000 0.884341
vt 0.101464 0.886332
vt 0.000000 0.888647
vt 0.082952 1.000000
vt 0.201826 1.000000
vt 0.284674 1.000000
vt 0.201826 1.000000
vt 0.229248 0.888841
vt 0.082952 1.000000
vt 0.101464 0.886332
vt 0.000000 0.888647
vt 0.000000 0.884341
vt 0.103372 0.768388
vt 0.225148 0.769767
vt 0.000000 0.765528
vt 0.403106 0.892254
vt 0.403676 0.773128
vt 0.234740 0.636320
vt 0.142004 0.637406
vt 0.101464 0.886332
vt 0.000000 0.884341
vt 0.000000 0.888647
vt 0.082952 1.000000
vt 0.229248 0.888841
vt 0.201826 1.000000
vt 0.284674 1.000000
vt 0.000000 0.765528
vt 0.103372 0.768388
vt 0.225148 0.769767
vt 0.403106 0.892254
vt 0.403676 0.773128
vt 0.234740 0.636320
vt 0.142004 0.637406
vt 0.186363 0.128458
vn 0.304128 0.931490 -0.199583
vn 0.233130 0.864040 -0.446190
vn 0.325302 0.939955 -0.103265
vn -0.132650 0.897978 0.419570
vn -0.110261 0.912511 0.393913
vn 0.082324 0.983899 0.158635
vn -0.243059 0.805510 0.540441
vn -0.110261 0.912511 0.393913
vn -0.132650 0.897978 0.419570
vn 0.448305 0.806069 0.386361
vn 0.363668 0.854790 0.370243
vn 0.208447 0.919354 0.333673
vn 0.448305 0.806069 0.386361
vn 0.651844 0.637577 0.410603
vn 0.363668 0.854790 0.370243
vn 0.091918 0.897978 0.430333
vn 0.098711 0.912511 0.396964
vn 0.149940 0.983899 0.097264
vn 0.055627 0.805510 0.589966
vn 0.098711 0.912511 0.396964
vn 0.091918 0.897978 0.430333
vn 0.580643 0.806069 0.114483
vn 0.499091 0.854790 0.142278
vn 0.346064 0.919354 0.187155
vn 0.580643 0.806069 0.114483
vn 0.769590 0.637577 0.035020
vn 0.499091 0.854790 0.142278
vn 0.336005 0.931490 0.139385
vn 0.338851 0.939955 0.040809
vn 0.312226 0.864040 0.394905
vn 0.336005 0.931490 0.139385
vn 0.335893 0.932738 -0.131059
vn 0.338851 0.939955 0.040809
vn 0.836238 0.541065 -0.089189
vn 0.881650 0.470471 -0.036737
vn 0.939853 0.337111 0.055063
vn 0.836238 0.541065 -0.089189
vn 0.675091 0.702769 -0.224426
vn 0.881650 0.470471 -0.036737
vn 0.713743 0.666524 0.215214
vn 0.722284 0.662600 0.198162
vn 0.821620 0.563027 -0.089116
vn 0.713743 0.666524 0.215214
vn 0.523150 0.693354 0.495554
vn 0.722284 0.662600 0.198162
vn 0.938343 0.188888 -0.289540
vn 0.927722 0.253041 -0.274411
vn 0.976164 0.216943 0.006316
vn 0.976164 0.216943 0.006316
vn 0.994850 0.080216 0.061958
vn 0.938343 0.188888 -0.289540
vn 0.994850 0.080216 0.061958
vn 0.976164 0.216943 0.006316
vn 0.888038 0.133919 0.439835
vn 0.888038 0.133919 0.439835
vn 0.922300 0.036701 0.384729
vn 0.994850 0.080216 0.061958
vn 0.922300 0.036701 0.384729
vn 0.999510 -0.030090 -0.008586
vn 0.994850 0.080216 0.061958
vn 0.999510 -0.030090 -0.008586
vn 0.938343 0.188888 -0.289540
vn 0.994850 0.080216 0.061958
vn -0.660748 0.640574 -0.391249
vn -0.650231 0.591626 -0.476633
vn -0.616848 0.492974 -0.613576
vn -0.660748 0.640574 -0.391249
vn -0.656859 0.739895 -0.145231
vn -0.650231 0.591626 -0.476633
vn 0.855872 0.309218 0.414568
vn 0.854458 0.409395 0.319840
vn 0.754152 0.656669 0.006451
vn 0.818003 0.116709 0.563250
vn 0.854458 0.409395 0.319840
vn 0.855872 0.309218 0.414568
vn -0.411859 0.900963 -0.136518
vn -0.289733 0.938372 -0.188449
vn 0.100495 0.942307 -0.319309
vn -0.609328 0.792015 -0.037845
vn -0.289733 0.938372 -0.188449
vn -0.411859 0.900963 -0.136518
vn 0.960273 0.271349 -0.065151
vn 0.914134 0.384092 -0.129736
vn 0.676146 0.671010 -0.304257
vn 0.996910 0.058310 0.052628
vn 0.914134 0.384092 -0.129736
vn 0.960273 0.271349 -0.065151
vn 0.928667 0.245809 0.277770
vn 0.931844 0.253114 0.260002
vn 0.932827 0.357841 -0.042228
vn 0.928667 0.245809 0.277770
vn 0.817267 0.105080 0.566598
vn 0.931844 0.253114 0.260002
vn 0.841246 0.492909 -0.222140
vn 0.863470 0.478206 -0.160433
vn 0.588365 0.531141 -0.609685
vn 0.841246 0.492909 -0.222140
vn 0.904803 0.314196 0.287425
vn 0.863470 0.478206 -0.160433
vn 0.399479 0.911543 0.097501
vn 0.080205 0.987749 0.133859
vn 0.412743 0.885524 0.213286
vn 0.412743 0.885524 0.213286
vn 0.633313 0.751419 0.185159
vn 0.399479 0.911543 0.097501
vn 0.399479 0.911543 0.097501
vn 0.633313 0.751419 0.185159
vn 0.835429 0.534911 0.126207
vn 0.835429 0.534911 0.126207
vn 0.872799 0.488067 0.003636
vn 0.399479 0.911543 0.097501
vn 0.354344 0.923570 -0.146486
vn 0.399479 0.911543 0.097501
vn 0.872799 0.488067 0.003636
vn 0.080205 0.987749 0.133859
vn 0.399479 0.911543 0.097501
vn 0.354344 0.923570 -0.146486
vn 0.354344 0.923570 -0.146486
vn 0.045185 0.998951 -0.007504
vn 0.080205 0.987749 0.133859
vn -0.004771 0.986270 -0.165071
vn 0.045185 0.998951 -0.007504
vn 0.354344 0.923570 -0.146486
vn 0.872799 0.488067 0.003636
vn 0.833579 0.500742 -0.233247
vn 0.354344 0.923570 -0.146486
vn -0.004771 0.986270 -0.165071
vn 0.354344 0.923570 -0.146486
vn 0.397712 0.862362 -0.313299
vn 0.726223 0.578069 -0.372070
vn 0.397712 0.862362 -0.313299
vn 0.354344 0.923570 -0.146486
vn 0.354344 0.923570 -0.146486
vn 0.833579 0.500742 -0.233247
vn 0.726223 0.578069 -0.372070
vn 0.951390 0.190421 -0.242069
vn 0.726223 0.578069 -0.372070
vn 0.833579 0.500742 -0.233247
vn 0.951390 0.190421 -0.242069
vn 0.833579 0.500742 -0.233247
vn 0.872799 0.488067 0.003636
vn 0.872799 0.488067 0.003636
vn 0.972084 0.195636 -0.129534
vn 0.951390 0.190421 -0.242069
vn 0.872799 0.488067 0.003636
vn 0.835429 0.534911 0.126207
vn 0.972084 0.195636 -0.129534
vn 0.054932 0.982676 -0.177004
vn -0.108262 0.981597 0.157308
vn 0.027656 0.996089 0.083921
vn 0.054932 0.982676 -0.177004
vn -0.104524 0.994505 -0.005913
vn -0.108262 0.981597 0.157308
vn 0.165033 0.951958 0.257955
vn 0.429539 0.901702 0.049300
vn 0.387019 0.916898 -0.097538
vn 0.480313 0.860633 -0.169144
vn 0.387019 0.916898 -0.097538
vn 0.429539 0.901702 0.049300
vn 0.031628 0.976467 0.213336
vn -0.271444 0.900341 0.340154
vn 0.165033 0.951958 0.257955
vn 0.387019 0.916898 -0.097538
vn 0.031628 0.976467 0.213336
vn 0.165033 0.951958 0.257955
vn 0.031628 0.976467 0.213336
vn 0.387019 0.916898 -0.097538
vn 0.219098 0.934994 -0.278894
vn 0.219098 0.934994 -0.278894
vn 0.387019 0.916898 -0.097538
vn 0.480313 0.860633 -0.169144
vn 0.480313 0.860633 -0.169144
vn 0.358530 0.890743 -0.279344
vn 0.219098 0.934994 -0.278894
vn -0.344237 0.904581 0.251462
vn -0.271444 0.900341 0.340154
vn 0.031628 0.976467 0.213336
vn 0.031628 0.976467 0.213336
vn -0.115219 0.992896 0.029688
vn -0.344237 0.904581 0.251462
vn 0.219098 0.934994 -0.278894
vn -0.115219 0.992896 0.029688
vn 0.031628 0.976467 0.213336
vn -0.124273 0.981542 -0.145365
vn -0.115219 0.992896 0.029688
vn 0.219098 0.934994 -0.278894
vn -0.344237 0.904581 0.251462
vn -0.115219 0.992896 0.029688
vn -0.124273 0.981542 -0.145365
vn 0.245634 0.860601 -0.446128
vn 0.219098 0.934994 -0.278894
vn 0.358530 0.890743 -0.279344
vn 0.245634 0.860601 -0.446128
vn 0.087562 0.935115 -0.343356
vn 0.219098 0.934994 -0.278894
vn 0.219098 0.934994 -0.278894
vn 0.087562 0.935115 -0.343356
vn -0.124273 0.981542 -0.145365
vn -0.252465 0.765942 -0.591265
vn -0.221882 0.825747 -0.518566
vn -0.163685 0.910206 -0.380438
vn -0.252465 0.765942 -0.591265
vn -0.321650 0.569900 -0.756145
vn -0.221882 0.825747 -0.518566
vn 0.150630 0.806069 0.572331
vn 0.090006 0.854790 0.511110
vn -0.017204 0.919354 0.393054
vn 0.150630 0.806069 0.572331
vn 0.304641 0.637577 0.707594
vn 0.090006 0.854790 0.511110
vn -0.415756 0.901343 -0.121360
vn -0.413408 0.906690 -0.083713
vn -0.384262 0.909507 0.158558
vn -0.419123 0.867987 -0.266336
vn -0.413408 0.906690 -0.083713
vn -0.415756 0.901343 -0.121360
vn -0.288567 0.939450 0.184833
vn -0.377569 0.902464 0.207365
vn -0.523093 0.817314 0.241603
vn -0.288567 0.939450 0.184833
vn -0.037875 0.992530 0.115976
vn -0.377569 0.902464 0.207365
vn 0.888896 0.346721 0.299414
vn 0.929631 0.284856 0.233761
vn 0.737653 0.494578 0.459630
vn 0.888896 0.346721 0.299414
vn 0.978606 0.170954 0.114481
vn 0.929631 0.284856 0.233761
vn 0.998124 -0.060281 0.010709
vn 0.968454 -0.055277 0.242986
vn 0.981301 -0.174322 0.081615
vn 0.968700 0.050474 0.243047
vn 0.968454 -0.055277 0.242986
vn 0.998124 -0.060281 0.010709
vn 0.998124 -0.060281 0.010709
vn 0.998371 0.056026 0.010761
vn 0.968700 0.050474 0.243047
vn 0.976580 0.157613 0.146459
vn 0.968700 0.050474 0.243047
vn 0.998371 0.056026 0.010761
vn 0.998371 0.056026 0.010761
vn 0.982915 0.182983 0.019913
vn 0.976580 0.157613 0.146459
vn 0.985238 0.118744 -0.123311
vn 0.982915 0.182983 0.019913
vn 0.998371 0.056026 0.010761
vn 0.986452 -0.135646 -0.092267
vn 0.998124 -0.060281 0.010709
vn 0.981301 -0.174322 0.081615
vn 0.969633 -0.025012 -0.243281
vn 0.998124 -0.060281 0.010709
vn 0.986452 -0.135646 -0.092267
vn 0.998371 0.056026 0.010761
vn 0.998124 -0.060281 0.010709
vn 0.969633 -0.025012 -0.243281
vn 0.969633 -0.025012 -0.243281
vn 0.969883 0.010550 -0.243344
vn 0.998371 0.056026 0.010761
vn 0.998371 0.056026 0.010761
vn 0.969883 0.010550 -0.243344
vn 0.985238 0.118744 -0.123311
vn 0.366907 0.911140 0.187625
vn 0.436154 0.866571 0.242539
vn 0.546059 0.769108 0.332103
vn 0.366907 0.911140 0.187625
vn 0.164993 0.985760 0.032487
vn 0.436154 0.866571 0.242539
vn 0.951473 0.305023 0.040737
vn 0.970651 0.222341 0.091658
vn 0.981293 0.073803 0.177814
vn 0.951473 0.305023 0.040737
vn 0.854562 0.510269 -0.096694
vn 0.970651 0.222341 0.091658
vn 0.996189 0.027375 0.082808
vn 0.983542 0.041808 -0.175778
vn 0.967297 0.081385 -0.240237
vn 0.996189 0.027375 0.082808
vn 0.999025 -0.035881 0.025734
vn 0.983542 0.041808 -0.175778
vn 0.981783 -0.037980 0.186171
vn 0.999025 -0.035881 0.025734
vn 0.996189 0.027375 0.082808
vn 0.996674 0.081458 0.002466
vn 0.804648 0.121688 0.581148
vn 0.927114 0.026794 0.373820
vn 0.967297 0.081385 -0.240237
vn 0.996674 0.081458 0.002466
vn 0.996189 0.027375 0.082808
vn 0.927114 0.026794 0.373820
vn 0.996189 0.027375 0.082808
vn 0.996674 0.081458 0.002466
vn 0.996189 0.027375 0.082808
vn 0.927114 0.026794 0.373820
vn 0.981783 -0.037980 0.186171
vn -0.290424 0.897978 0.330590
vn -0.259596 0.912511 0.316124
vn 0.011450 0.983899 0.178358
vn -0.440168 0.805510 0.396745
vn -0.259596 0.912511 0.316124
vn -0.290424 0.897978 0.330590
vn 0.455464 0.888090 0.062042
vn 0.470513 0.868165 0.157821
vn 0.485646 0.813395 0.320212
vn 0.455464 0.888090 0.062042
vn 0.393461 0.898259 -0.195751
vn 0.470513 0.868165 0.157821
vn 0.910657 -0.018450 0.412750
vn 0.910657 -0.018450 0.412750
vn 0.910657 -0.018450 0.412750
vn 0.910657 -0.018450 0.412750
vn 0.910657 -0.018450 0.412750
vn 0.910657 -0.018450 0.412750
vn 0.910657 -0.018450 0.412750
vn 0.919935 0.003787 0.392054
vn 0.919935 0.003787 0.392054
vn 0.919935 0.003787 0.392054
vn 0.919935 0.003787 0.392054
vn 0.910657 -0.018450 0.412750
vn 0.908642 -0.135862 0.394855
vn 0.983169 -0.181879 0.017271
vn 0.993565 -0.111138 0.021847
vn 0.993565 -0.111138 0.021847
vn 0.979028 -0.030296 0.201461
vn 0.908642 -0.135862 0.394855
vn 0.993565 -0.111138 0.021847
vn 0.983169 -0.181879 0.017271
vn 0.961292 -0.169403 -0.217302
vn 0.961292 -0.169403 -0.217302
vn 0.981071 0.016891 -0.192911
vn 0.993565 -0.111138 0.021847
vn 0.981071 0.016891 -0.192911
vn 0.979028 -0.030296 0.201461
vn 0.993565 -0.111138 0.021847
vn 0.653494 0.716441 -0.244250
vn 0.613160 0.406262 -0.677485
vn -0.004100 0.988635 -0.150279
vn 0.057983 0.758356 0.649257
vn 0.653494 0.716441 -0.244250
vn -0.004100 0.988635 -0.150279
vn -0.576225 0.640575 0.507572
vn -0.549973 0.591626 0.589498
vn -0.618268 0.739896 0.265140
vn -0.576225 0.640575 0.507572
vn -0.491646 0.492975 0.717816
vn -0.549973 0.591626 0.589498
vn -0.385840 0.901344 0.196741
vn -0.407084 0.909507 -0.084141
vn -0.390552 0.906690 0.159317
vn -0.362121 0.867987 0.339804
vn -0.385840 0.901344 0.196741
vn -0.390552 0.906690 0.159317
vn 0.099575 0.984854 -0.141942
vn 0.102124 0.987166 -0.122777
vn 0.049625 0.884908 -0.463115
vn 0.099575 0.984854 -0.141942
vn 0.137920 0.971124 0.194670
vn 0.102124 0.987166 -0.122777
vn 0.455464 0.888090 -0.062042
vn 0.470512 0.868165 -0.157821
vn 0.393461 0.898260 0.195751
vn 0.455464 0.888090 -0.062042
vn 0.485645 0.813396 -0.320212
vn 0.470512 0.868165 -0.157821
vn 0.993736 -0.053772 -0.097970
vn 0.992235 -0.124262 -0.005311
vn 0.956926 0.187037 -0.222058
vn 0.968438 -0.184821 0.167239
vn 0.992235 -0.124262 -0.005311
vn 0.993736 -0.053772 -0.097970
vn 0.967719 0.173756 -0.182561
vn 0.956926 0.187037 -0.222058
vn 0.920384 0.390511 0.019871
vn 0.956926 0.187037 -0.222058
vn 0.967719 0.173756 -0.182561
vn 0.993736 -0.053772 -0.097970
vn 0.979075 -0.097910 0.178399
vn 0.993736 -0.053772 -0.097970
vn 0.967719 0.173756 -0.182561
vn 0.993736 -0.053772 -0.097970
vn 0.979075 -0.097910 0.178399
vn 0.968438 -0.184821 0.167239
vn 0.997380 0.049795 0.052474
vn 0.933791 0.049177 0.354424
vn 0.928758 -0.044826 0.367966
vn 0.928758 -0.044826 0.367966
vn 0.971354 -0.041898 0.233916
vn 0.997380 0.049795 0.052474
vn 0.997380 0.049795 0.052474
vn 0.971354 -0.041898 0.233916
vn 0.965978 0.061743 -0.251147
vn 0.997380 0.049795 0.052474
vn 0.965978 0.061743 -0.251147
vn 0.950523 0.142573 -0.276004
vn 0.950523 0.142573 -0.276004
vn 0.984313 0.137855 0.110106
vn 0.997380 0.049795 0.052474
vn 0.933791 0.049177 0.354424
vn 0.997380 0.049795 0.052474
vn 0.984313 0.137855 0.110106
vn 0.984313 0.137855 0.110106
vn 0.923038 0.125790 0.363562
vn 0.933791 0.049177 0.354424
vn -0.014833 0.893892 0.448037
vn 0.169978 0.901605 0.397765
vn 0.336591 0.935442 0.107960
vn 0.336591 0.935442 0.107960
vn 0.169978 0.901605 0.397765
vn 0.384034 0.871042 0.306273
vn 0.384034 0.871042 0.306273
vn 0.600163 0.799742 -0.014699
vn 0.336591 0.935442 0.107960
vn -0.116385 0.950977 0.286526
vn -0.305742 0.933623 0.186736
vn -0.014833 0.893892 0.448037
vn 0.336591 0.935442 0.107960
vn -0.116385 0.950977 0.286526
vn -0.014833 0.893892 0.448037
vn -0.116385 0.950977 0.286526
vn 0.336591 0.935442 0.107960
vn 0.203933 0.941970 -0.266652
vn 0.203933 0.941970 -0.266652
vn 0.336591 0.935442 0.107960
vn 0.600163 0.799742 -0.014699
vn 0.600163 0.799742 -0.014699
vn 0.563064 0.791108 -0.238974
vn 0.203933 0.941970 -0.266652
vn -0.396518 0.917554 -0.029473
vn -0.305742 0.933623 0.186736
vn -0.116385 0.950977 0.286526
vn -0.116385 0.950977 0.286526
vn -0.259858 0.959768 -0.106393
vn -0.396518 0.917554 -0.029473
vn 0.203933 0.941970 -0.266652
vn -0.259858 0.959768 -0.106393
vn -0.116385 0.950977 0.286526
vn -0.269876 0.892758 -0.360763
vn -0.259858 0.959768 -0.106393
vn 0.203933 0.941970 -0.266652
vn -0.396518 0.917554 -0.029473
vn -0.259858 0.959768 -0.106393
vn -0.269876 0.892758 -0.360763
vn 0.435578 0.773040 -0.461174
vn 0.203933 0.941970 -0.266652
vn 0.563064 0.791108 -0.238974
vn 0.435578 0.773040 -0.461174
vn 0.022136 0.884986 -0.465092
vn 0.203933 0.941970 -0.266652
vn 0.203933 0.941970 -0.266652
vn 0.022136 0.884986 -0.465092
vn -0.269876 0.892758 -0.360763
vn 0.112849 0.956767 -0.268070
vn -0.217431 0.936302 0.275795
vn -0.175704 0.947703 0.266433
vn 0.234288 0.899631 -0.368475
vn 0.112849 0.956767 -0.268070
vn 0.041692 0.998590 0.032864
vn -0.175704 0.947703 0.266433
vn 0.041692 0.998590 0.032864
vn 0.112849 0.956767 -0.268070
vn 0.041692 0.998590 0.032864
vn -0.175704 0.947703 0.266433
vn -0.085257 0.960708 0.264141
vn -0.085257 0.960708 0.264141
vn 0.127212 0.977763 0.166724
vn 0.041692 0.998590 0.032864
vn 0.348129 0.904432 -0.246596
vn 0.041692 0.998590 0.032864
vn 0.127212 0.977763 0.166724
vn 0.041692 0.998590 0.032864
vn 0.348129 0.904432 -0.246596
vn 0.234288 0.899631 -0.368475
vn 0.566955 0.711180 -0.415674
vn 0.234288 0.899631 -0.368475
vn 0.348129 0.904432 -0.246596
vn 0.348129 0.904432 -0.246596
vn 0.424952 0.902264 -0.073048
vn 0.566955 0.711180 -0.415674
vn 0.127212 0.977763 0.166724
vn 0.424952 0.902264 -0.073048
vn 0.348129 0.904432 -0.246596
vn 0.208420 0.893892 0.396886
vn 0.344275 0.901605 0.261885
vn 0.345988 0.935442 -0.072397
vn 0.345988 0.935442 -0.072397
vn 0.344275 0.901605 0.261885
vn 0.485198 0.871043 0.076598
vn 0.485198 0.871043 0.076598
vn 0.514569 0.799742 -0.309243
vn 0.345988 0.935442 -0.072397
vn 0.040341 0.950977 0.306620
vn -0.173594 0.933623 0.313390
vn 0.208420 0.893892 0.396886
vn 0.345988 0.935442 -0.072397
vn 0.040341 0.950977 0.306620
vn 0.208420 0.893892 0.396886
vn 0.040341 0.950977 0.306620
vn 0.345988 0.935442 -0.072397
vn 0.045597 0.941970 -0.332585
vn 0.045597 0.941970 -0.332585
vn 0.345988 0.935442 -0.072397
vn 0.514569 0.799742 -0.309243
vn 0.514569 0.799742 -0.309243
vn 0.371526 0.791108 -0.485919
vn 0.045597 0.941970 -0.332585
vn -0.359323 0.917554 0.170242
vn -0.173594 0.933623 0.313390
vn 0.040341 0.950977 0.306620
vn 0.040341 0.950977 0.306620
vn -0.278496 0.959768 0.035855
vn -0.359323 0.917554 0.170242
vn 0.045597 0.941970 -0.332585
vn -0.278496 0.959768 0.035855
vn 0.040341 0.950977 0.306620
vn -0.412858 0.892758 -0.180365
vn -0.278496 0.959768 0.035855
vn 0.045597 0.941970 -0.332585
vn -0.359323 0.917554 0.170242
vn -0.278496 0.959768 0.035855
vn -0.412858 0.892758 -0.180365
vn 0.150919 0.773040 -0.616143
vn 0.045597 0.941970 -0.332585
vn 0.371526 0.791108 -0.485919
vn 0.150919 0.773040 -0.616143
vn -0.210495 0.884986 -0.415322
vn 0.045597 0.941970 -0.332585
vn 0.045597 0.941970 -0.332585
vn -0.210495 0.884986 -0.415322
vn -0.412858 0.892758 -0.180365
vn -0.034299 0.956767 -0.288826
vn -0.051975 0.936392 0.347086
vn -0.021161 0.947703 0.318451
vn 0.021693 0.899631 -0.436113
vn -0.034299 0.956767 -0.288826
vn 0.052484 0.998590 0.007980
vn -0.021161 0.947703 0.318451
vn 0.052484 0.998590 0.007980
vn -0.034299 0.956767 -0.288826
vn 0.052484 0.998590 0.007980
vn -0.021161 0.947703 0.318451
vn 0.056348 0.960709 0.271780
vn 0.056348 0.960709 0.271780
vn 0.192965 0.977763 0.082124
vn 0.052484 0.998590 0.007980
vn 0.180880 0.904432 -0.386375
vn 0.052484 0.998590 0.007980
vn 0.192965 0.977763 0.082124
vn 0.052484 0.998590 0.007980
vn 0.180880 0.904432 -0.386375
vn 0.021693 0.899631 -0.436113
vn 0.287625 0.711180 -0.641478
vn 0.021693 0.899631 -0.436113
vn 0.180880 0.904432 -0.386375
vn 0.180880 0.904432 -0.386375
vn 0.333404 0.902264 -0.273427
vn 0.287625 0.711180 -0.641478
vn 0.192965 0.977763 0.082124
vn 0.333404 0.902264 -0.273427
vn 0.180880 0.904432 -0.386375
vn 0.440626 0.897661 -0.007328
vn 0.382823 0.906961 -0.175695
vn -0.035834 0.982561 -0.182453
vn -0.035834 0.982561 -0.182453
vn -0.019265 0.999582 -0.021582
vn 0.440626 0.897661 -0.007328
vn -0.019265 0.999582 -0.021582
vn -0.035834 0.982561 -0.182453
vn -0.242102 0.957757 -0.155204
vn -0.242102 0.957757 -0.155204
vn -0.203689 0.978916 -0.015294
vn -0.019265 0.999582 -0.021582
vn -0.203689 0.978916 -0.015294
vn -0.169351 0.980639 0.098327
vn -0.034961 0.990550 0.132621
vn -0.034961 0.990550 0.132621
vn -0.019265 0.999582 -0.021582
vn -0.203689 0.978916 -0.015294
vn -0.019265 0.999582 -0.021582
vn -0.034961 0.990550 0.132621
vn 0.395729 0.901210 0.176689
vn 0.395729 0.901210 0.176689
vn 0.440626 0.897661 -0.007328
vn -0.019265 0.999582 -0.021582
vn 0.702682 0.711181 0.021449
vn 0.440626 0.897661 -0.007328
vn 0.395729 0.901210 0.176689
vn 0.440626 0.897661 -0.007328
vn 0.702682 0.711181 0.021449
vn 0.382823 0.906961 -0.175695
vn -0.010626 0.995579 -0.093326
vn -0.041879 0.998756 0.027074
vn -0.237987 0.970719 0.032673
vn -0.237987 0.970719 0.032673
vn -0.049137 0.998780 0.004901
vn -0.010626 0.995579 -0.093326
vn 0.362869 0.899631 -0.242880
vn -0.010626 0.995579 -0.093326
vn -0.049137 0.998780 0.004901
vn -0.049137 0.998780 0.004901
vn 0.417969 0.904432 -0.085469
vn 0.362869 0.899631 -0.242880
vn 0.686364 0.711181 -0.152074
vn 0.362869 0.899631 -0.242880
vn 0.417969 0.904432 -0.085469
vn -0.049137 0.998780 0.004901
vn -0.237987 0.970719 0.032673
vn -0.184436 0.960709 0.207419
vn -0.184436 0.960709 0.207419
vn 0.049274 0.977763 0.203843
vn -0.049137 0.998780 0.004901
vn 0.417969 0.904432 -0.085469
vn -0.049137 0.998780 0.004901
vn 0.049274 0.977763 0.203843
vn 0.049274 0.977763 0.203843
vn 0.418375 0.902264 0.104322
vn 0.417969 0.904432 -0.085469
vn 0.417969 0.904432 -0.085469
vn 0.418375 0.902264 0.104322
vn 0.686364 0.711181 -0.152074
vn -0.149794 0.899041 0.411445
vn -0.004646 0.901605 0.432536
vn 0.264585 0.935442 0.234401
vn 0.264585 0.935442 0.234401
vn -0.004646 0.901605 0.432536
vn 0.228128 0.871041 0.435023
vn 0.228128 0.871041 0.435023
vn 0.555237 0.799742 0.228307
vn 0.264585 0.935442 0.234401
vn -0.165891 0.959797 0.226429
vn -0.225255 0.972681 0.056144
vn -0.149794 0.899041 0.411445
vn 0.264585 0.935442 0.234401
vn -0.165891 0.959797 0.226429
vn -0.149794 0.899041 0.411445
vn -0.165891 0.959797 0.226429
vn 0.264585 0.935442 0.234401
vn 0.294069 0.941970 -0.161912
vn 0.294069 0.941970 -0.161912
vn 0.264585 0.935442 0.234401
vn 0.555237 0.799742 0.228307
vn 0.555237 0.799742 0.228307
vn 0.611623 0.791108 0.008089
vn 0.294069 0.941970 -0.161912
vn -0.222599 0.957094 -0.185531
vn -0.225255 0.972681 0.056144
vn -0.165891 0.959797 0.226429
vn -0.165891 0.959797 0.226429
vn -0.132709 0.971048 -0.198631
vn -0.222599 0.957094 -0.185531
vn 0.294069 0.941970 -0.161912
vn -0.132709 0.971048 -0.198631
vn -0.165891 0.959797 0.226429
vn -0.058464 0.897606 -0.436905
vn -0.132709 0.971048 -0.198631
vn 0.294069 0.941970 -0.161912
vn -0.222599 0.957094 -0.185531
vn -0.132709 0.971048 -0.198631
vn -0.058464 0.897606 -0.436905
vn 0.584447 0.773040 -0.246640
vn 0.294069 0.941970 -0.161912
vn 0.611623 0.791108 0.008089
vn 0.584447 0.773040 -0.246640
vn 0.207611 0.884986 -0.416771
vn 0.294069 0.941970 -0.161912
vn 0.294069 0.941970 -0.161912
vn 0.207611 0.884986 -0.416771
vn -0.058464 0.897606 -0.436905
vn 0.922867 -0.041587 -0.382866
vn 0.994553 0.002618 -0.104201
vn 0.996192 -0.077302 -0.040328
vn 0.996192 -0.077302 -0.040328
vn 0.990791 -0.127350 -0.045987
vn 0.922867 -0.041587 -0.382866
vn 0.974922 -0.143155 0.170391
vn 0.990791 -0.127350 -0.045987
vn 0.996192 -0.077302 -0.040328
vn 0.996192 -0.077302 -0.040328
vn 0.988484 -0.145652 0.041057
vn 0.974922 -0.143155 0.170391
vn 0.988484 -0.145652 0.041057
vn 0.996192 -0.077302 -0.040328
vn 0.994553 0.002618 -0.104201
vn 0.988484 -0.145652 0.041057
vn 0.994553 0.002618 -0.104201
vn 0.987957 0.144807 -0.054512
vn 0.987957 0.144807 -0.054512
vn 0.994553 0.002618 -0.104201
vn 0.922867 -0.041587 -0.382866
vn 0.995382 -0.055347 0.078430
vn 0.988484 -0.145652 0.041057
vn 0.987957 0.144807 -0.054512
vn 0.988484 -0.145652 0.041057
vn 0.992297 0.043022 0.116172
vn 0.995403 -0.016935 0.094266
vn 0.988484 -0.145652 0.041057
vn 0.982454 0.090522 0.163065
vn 0.992297 0.043022 0.116172
vn 0.988484 -0.145652 0.041057
vn 0.995382 -0.055347 0.078430
vn 0.982454 0.090522 0.163065
vn 0.943620 0.312214 0.110016
vn 0.982454 0.090522 0.163065
vn 0.995382 -0.055347 0.078430
vn 0.995382 -0.055347 0.078430
vn 0.987957 0.144807 -0.054512
vn 0.943620 0.312214 0.110016
vn 0.987957 0.144807 -0.054512
vn 0.964882 0.143610 -0.219952
vn 0.943620 0.312214 0.110016
vn 0.922867 -0.041587 -0.382866
vn 0.964882 0.143610 -0.219952
vn 0.987957 0.144807 -0.054512
vn 0.978548 -0.206016 0.000833
vn 0.963558 -0.073755 -0.257133
vn 0.962992 -0.231818 0.137504
vn 0.983701 0.097390 0.151151
vn 0.962992 -0.231818 0.137504
vn 0.963558 -0.073755 -0.257133
vn 0.963558 -0.073755 -0.257133
vn 0.972398 0.214258 -0.092386
vn 0.983701 0.097390 0.151151
vn 0.972805 -0.230536 -0.022431
vn 0.925436 -0.005551 -0.378863
vn 0.963558 -0.073755 -0.257133
vn 0.972398 0.214258 -0.092386
vn 0.963558 -0.073755 -0.257133
vn 0.925436 -0.005551 -0.378863
vn 0.925436 -0.005551 -0.378863
vn 0.941455 0.247883 -0.228509
vn 0.972398 0.214258 -0.092386
vn 0.928620 0.349459 0.124672
vn 0.972398 0.214258 -0.092386
vn 0.941455 0.247883 -0.228509
vn 0.928620 0.349459 0.124672
vn 0.983701 0.097390 0.151151
vn 0.972398 0.214258 -0.092386
vn 0.968588 0.008395 0.248529
vn 0.983701 0.097390 0.151151
vn 0.928620 0.349459 0.124672
vn 0.962992 -0.231818 0.137504
vn 0.983701 0.097390 0.151151
vn 0.968588 0.008395 0.248529
vn 0.968588 0.008395 0.248529
vn 0.915320 -0.298662 0.270168
vn 0.962992 -0.231818 0.137504
vn 0.978548 -0.206016 0.000833
vn 0.962992 -0.231818 0.137504
vn 0.915320 -0.298662 0.270168
vn 0.915320 -0.298662 0.270168
vn 0.972805 -0.230536 -0.022431
vn 0.978548 -0.206016 0.000833
vn 0.963558 -0.073755 -0.257133
vn 0.978548 -0.206016 0.000833
vn 0.972805 -0.230536 -0.022431
vn 0.620181 0.773040 -0.133359
vn 0.270081 0.889674 -0.368152
vn 0.320870 0.941305 -0.104822
vn 0.320870 0.941305 -0.104822
vn 0.270081 0.889674 -0.368152
vn -0.021332 0.893216 -0.449121
vn -0.021332 0.893216 -0.449121
vn -0.140574 0.960175 -0.241458
vn 0.320870 0.941305 -0.104822
vn -0.314489 0.916762 -0.246262
vn -0.140574 0.960175 -0.241458
vn -0.021332 0.893216 -0.449121
vn -0.257259 0.951133 0.170775
vn -0.140574 0.960175 -0.241458
vn -0.314489 0.916762 -0.246262
vn -0.314489 0.916762 -0.246262
vn -0.390769 0.920483 0.003116
vn -0.257259 0.951133 0.170775
vn -0.257259 0.951133 0.170775
vn -0.390769 0.920483 0.003116
vn -0.265958 0.893877 0.360903
vn -0.265958 0.893877 0.360903
vn 0.124937 0.876887 0.464177
vn 0.211014 0.936255 0.280890
vn 0.211014 0.936255 0.280890
vn -0.257259 0.951133 0.170775
vn -0.265958 0.893877 0.360903
vn 0.320870 0.941305 -0.104822
vn -0.140574 0.960175 -0.241458
vn -0.257259 0.951133 0.170775
vn -0.257259 0.951133 0.170775
vn 0.211014 0.936255 0.280890
vn 0.320870 0.941305 -0.104822
vn 0.211014 0.936255 0.280890
vn 0.124937 0.876887 0.464177
vn 0.383470 0.783772 0.488520
vn 0.383470 0.783772 0.488520
vn 0.495410 0.804204 0.328365
vn 0.211014 0.936255 0.280890
vn 0.320870 0.941305 -0.104822
vn 0.211014 0.936255 0.280890
vn 0.495410 0.804204 0.328365
vn 0.495410 0.804204 0.328365
vn 0.607794 0.785299 0.117867
vn 0.320870 0.941305 -0.104822
vn 0.620181 0.773040 -0.133359
vn 0.320870 0.941305 -0.104822
vn 0.607794 0.785299 0.117867
vn 0.610612 0.780674 0.133046
vn 0.602343 0.790225 -0.112816
vn 0.318781 0.942002 0.104934
vn 0.318781 0.942002 0.104934
vn 0.602343 0.790225 -0.112816
vn 0.494119 0.806222 -0.325350
vn 0.210796 0.937706 -0.276175
vn 0.494119 0.806222 -0.325350
vn 0.383471 0.783773 -0.488519
vn 0.494119 0.806222 -0.325350
vn 0.210796 0.937706 -0.276175
vn 0.318781 0.942002 0.104934
vn 0.383471 0.783773 -0.488519
vn 0.124940 0.876887 -0.464177
vn 0.210796 0.937706 -0.276175
vn -0.240154 0.954791 -0.175215
vn -0.113884 0.965453 0.234374
vn 0.318781 0.942002 0.104934
vn 0.318781 0.942002 0.104934
vn 0.210796 0.937706 -0.276175
vn -0.240154 0.954791 -0.175215
vn -0.250082 0.896025 -0.366877
vn -0.240154 0.954791 -0.175215
vn 0.210796 0.937706 -0.276175
vn 0.210796 0.937706 -0.276175
vn 0.124940 0.876887 -0.464177
vn -0.250082 0.896025 -0.366877
vn 0.610612 0.780674 0.133046
vn 0.318781 0.942002 0.104934
vn 0.265010 0.894509 0.360034
vn -0.000169 0.900449 0.434961
vn 0.265010 0.894509 0.360034
vn 0.318781 0.942002 0.104934
vn 0.318781 0.942002 0.104934
vn -0.113884 0.965453 0.234374
vn -0.000169 0.900449 0.434961
vn -0.260490 0.934426 0.242887
vn -0.000169 0.900449 0.434961
vn -0.113884 0.965453 0.234374
vn -0.260490 0.934426 0.242887
vn -0.113884 0.965453 0.234374
vn -0.240154 0.954791 -0.175215
vn -0.240154 0.954791 -0.175215
vn -0.348422 0.937273 -0.011026
vn -0.260490 0.934426 0.242887
vn -0.240154 0.954791 -0.175215
vn -0.250082 0.896025 -0.366877
vn -0.348422 0.937273 -0.011026
vn 0.379967 0.908393 -0.174492
vn 0.376030 0.881709 -0.284940
vn 0.080995 0.966170 -0.244858
vn 0.080995 0.966170 -0.244858
vn 0.063164 0.986828 -0.148930
vn 0.379967 0.908393 -0.174492
vn 0.374070 0.924039 0.078885
vn 0.379967 0.908393 -0.174492
vn 0.063164 0.986828 -0.148930
vn 0.063164 0.986828 -0.148930
vn 0.032242 0.999445 0.008333
vn 0.374070 0.924039 0.078885
vn 0.026086 0.986270 0.163066
vn 0.374070 0.924039 0.078885
vn 0.032242 0.999445 0.008333
vn 0.797238 0.534923 -0.279767
vn 0.376030 0.881709 -0.284940
vn 0.379967 0.908393 -0.174492
vn 0.379967 0.908393 -0.174492
vn 0.856521 0.488638 -0.166146
vn 0.797238 0.534923 -0.279767
vn 0.856521 0.488638 -0.166146
vn 0.379967 0.908393 -0.174492
vn 0.374070 0.924039 0.078885
vn 0.374070 0.924039 0.078885
vn 0.858806 0.505979 0.080235
vn 0.856521 0.488638 -0.166146
vn 0.026086 0.986270 0.163066
vn 0.456484 0.859696 0.229227
vn 0.374070 0.924039 0.078885
vn 0.374070 0.924039 0.078885
vn 0.456484 0.859696 0.229227
vn 0.784288 0.576688 0.228744
vn 0.784288 0.576688 0.228744
vn 0.858806 0.505979 0.080235
vn 0.374070 0.924039 0.078885
vn 0.980459 0.187997 0.057942
vn 0.858806 0.505979 0.080235
vn 0.784288 0.576688 0.228744
vn 0.856521 0.488638 -0.166146
vn 0.858806 0.505979 0.080235
vn 0.980459 0.187997 0.057942
vn 0.980459 0.187997 0.057942
vn 0.981313 0.178816 -0.071066
vn 0.856521 0.488638 -0.166146
vn 0.856521 0.488638 -0.166146
vn 0.981313 0.178816 -0.071066
vn 0.797238 0.534923 -0.279767
vn 0.304128 0.931490 -0.199583
vn 0.325302 0.939955 -0.103265
vn 0.354437 0.932738 0.066142
s off
f 1/1/1 2/2/2 3/3/3
f 4/4/4 5/5/5 6/6/6
f 7/7/7 5/5/8 4/4/9
f 8/8/10 9/9/11 10/10/12
f 8/8/13 11/11/14 9/9/15
f 12/12/16 13/13/17 14/14/18
f 15/15/19 13/13/20 12/12/21
f 16/16/22 17/17/23 18/18/24
f 16/16/25 19/19/26 17/17/27
f 20/20/28 21/21/29 22/22/30
f 20/20/31 23/23/32 21/21/33
f 24/24/34 25/25/35 26/26/36
f 24/24/37 27/27/38 25/25/39
f 28/28/40 29/29/41 30/30/42
f 28/28/43 31/31/44 29/29/45
f 32/32/46 33/33/47 34/34/48
f 34/34/49 35/35/50 32/32/51
f 35/35/52 34/34/53 36/36/54
f 36/36/55 37/37/56 35/35/57
f 37/37/58 38/38/59 35/35/60
f 38/38/61 32/32/62 35/35/63
f 39/39/64 40/40/65 41/41/66
f 39/39/67 42/42/68 40/40/69
f 43/43/70 44/44/71 45/45/72
f 46/46/73 44/44/74 43/43/75
f 47/47/76 48/48/77 49/49/78
f 50/50/79 48/48/80 47/47/81
f 51/51/82 52/52/83 53/53/84
f 54/54/85 52/52/86 51/51/87
f 55/55/88 56/56/89 57/57/90
f 55/55/91 58/58/92 56/56/93
f 59/59/94 60/60/95 61/61/96
f 59/59/97 62/62/98 60/60/99
f 63/63/100 64/64/101 65/65/102
f 65/65/103 66/66/104 63/63/105
f 63/63/106 66/66/107 67/67/108
f 67/67/109 68/68/110 63/63/111
f 69/69/112 63/63/113 68/68/114
f 64/64/115 63/63/116 69/69/117
f 69/69/118 70/70/119 64/64/120
f 71/71/121 70/70/122 69/69/123
f 68/68/124 72/72/125 69/69/126
f 71/71/127 69/69/128 73/73/129
f 74/74/130 73/73/131 69/69/132
f 69/69/133 72/72/134 74/74/135
f 75/75/136 74/74/137 72/72/138
f 75/75/139 72/72/140 68/68/141
f 68/68/142 76/76/143 75/75/144
f 68/68/145 67/67/146 76/76/147
f 77/77/148 78/78/149 79/79/150
f 77/77/151 80/80/152 78/78/153
f 81/81/154 82/82/155 83/83/156
f 84/84/157 83/83/158 82/82/159
f 85/85/160 86/86/161 81/81/162
f 83/83/163 85/85/164 81/81/165
f 85/85/166 83/83/167 87/87/168
f 87/87/169 83/83/170 84/84/171
f 84/84/172 88/88/173 87/87/174
f 89/89/175 86/86/176 85/85/177
f 85/85/178 90/90/179 89/89/180
f 87/87/181 90/90/182 85/85/183
f 91/91/184 90/90/185 87/87/186
f 89/89/187 90/90/188 91/91/189
f 92/92/190 87/87/191 88/88/192
f 92/92/193 93/93/194 87/87/195
f 87/87/196 93/93/197 91/91/198
f 94/94/199 95/95/200 96/96/201
f 94/94/202 97/97/203 95/95/204
f 98/98/205 99/99/206 100/100/207
f 98/98/208 101/101/209 99/99/210
f 102/102/211 103/103/212 104/104/213
f 105/105/214 103/103/215 102/102/216
f 106/106/217 107/107/218 108/108/219
f 106/106/220 109/109/221 107/107/222
f 110/110/223 111/111/224 112/112/225
f 110/110/226 113/113/227 111/111/228
f 114/114/229 115/115/230 116/116/231
f 117/117/232 115/115/233 114/114/234
f 114/114/235 118/118/236 117/117/237
f 119/119/238 117/117/239 118/118/240
f 118/118/241 120/120/242 119/119/243
f 121/121/244 120/120/245 118/118/246
f 122/122/247 114/114/248 116/116/249
f 123/123/250 114/114/251 122/122/252
f 118/118/253 114/114/254 123/123/255
f 123/123/256 124/124/257 118/118/258
f 118/118/259 124/124/260 121/121/261
f 125/125/262 126/126/263 127/127/264
f 125/125/265 128/128/266 126/126/267
f 129/129/268 130/130/269 131/131/270
f 129/129/271 132/132/272 130/130/273
f 133/133/274 134/134/275 135/135/276
f 133/133/277 136/136/278 134/134/279
f 137/137/280 136/136/281 133/133/282
f 138/138/283 139/139/284 140/140/285
f 135/135/286 138/138/287 133/133/288
f 140/140/289 133/133/290 138/138/291
f 133/133/292 140/140/293 137/137/294
f 141/141/295 142/142/296 143/143/297
f 144/144/298 142/142/299 141/141/300
f 145/145/301 146/146/302 147/147/303
f 145/145/304 148/148/305 146/146/306
f 149/149/307 150/150/308 151/151/309
f 151/151/310 152/152/311 149/149/312
f 152/152/313 153/153/314 154/154/315
f 154/154/316 155/155/317 152/152/318
f 156/156/319 157/157/320 158/158/321
f 158/158/322 159/159/323 156/156/324
f 158/158/325 157/157/326 160/160/327
f 160/160/328 161/161/329 158/158/330
f 161/161/331 159/159/332 158/158/333
f 162/162/334 163/163/335 164/164/336
f 165/165/337 162/162/338 164/164/339
f 166/166/340 167/167/341 168/168/342
f 166/166/343 169/169/344 167/167/345
f 170/170/346 171/171/347 172/172/348
f 173/173/349 170/170/350 172/172/351
f 174/174/352 175/175/353 176/176/354
f 174/174/355 177/177/356 175/175/357
f 178/178/358 179/179/359 180/180/360
f 178/178/361 181/181/362 179/179/363
f 182/182/364 183/183/365 184/184/366
f 185/185/367 183/183/368 182/182/369
f 186/186/370 184/184/371 187/187/372
f 184/184/373 186/186/374 182/182/375
f 188/188/376 182/182/377 186/186/378
f 182/182/379 188/188/380 185/185/381
f 189/189/382 190/190/383 191/191/384
f 191/191/385 192/192/386 189/189/387
f 189/189/388 192/192/389 193/193/390
f 189/189/391 193/193/392 194/194/393
f 194/194/394 195/195/395 189/189/396
f 190/190/397 189/189/398 195/195/399
f 195/195/400 196/196/401 190/190/402
f 197/197/403 198/198/404 199/199/405
f 199/199/406 198/198/407 200/200/408
f 200/200/409 201/201/410 199/199/411
f 202/202/412 203/203/413 197/197/414
f 199/199/415 202/202/416 197/197/417
f 202/202/418 199/199/419 204/204/420
f 204/204/421 199/199/422 201/201/423
f 201/201/424 205/205/425 204/204/426
f 206/206/427 203/203/428 202/202/429
f 202/202/430 207/207/431 206/206/432
f 204/204/433 207/207/434 202/202/435
f 208/208/436 207/207/437 204/204/438
f 206/206/439 207/207/440 208/208/441
f 209/209/442 204/204/443 205/205/444
f 209/209/445 210/210/446 204/204/447
f 204/204/448 210/210/449 208/208/450
f 211/211/451 212/212/452 213/213/453
f 214/214/454 211/211/455 215/215/456
f 213/213/457 215/215/458 211/211/459
f 215/215/460 213/213/461 216/216/462
f 216/216/463 217/217/464 215/215/465
f 218/218/466 215/215/467 217/217/468
f 215/215/469 218/218/470 214/214/471
f 219/219/472 214/214/473 218/218/474
f 218/218/475 220/220/476 219/219/477
f 217/217/478 220/220/479 218/218/480
f 221/221/481 222/222/482 223/223/483
f 223/223/484 222/222/485 224/224/486
f 224/224/487 225/225/488 223/223/489
f 226/226/490 227/227/491 221/221/492
f 223/223/493 226/226/494 221/221/495
f 226/226/496 223/223/497 228/228/498
f 228/228/499 223/223/500 225/225/501
f 225/225/502 229/229/503 228/228/504
f 230/230/505 227/227/506 226/226/507
f 226/226/508 231/231/509 230/230/510
f 228/228/511 231/231/512 226/226/513
f 232/232/514 231/231/515 228/228/516
f 230/230/517 231/231/518 232/232/519
f 233/233/520 228/228/521 229/229/522
f 233/233/523 234/234/524 228/228/525
f 228/228/526 234/234/527 232/232/528
f 235/235/529 236/236/530 237/237/531
f 238/238/532 235/235/533 239/239/534
f 237/237/535 239/239/536 235/235/537
f 239/239/538 237/237/539 240/240/540
f 240/240/541 241/241/542 239/239/543
f 242/242/544 239/239/545 241/241/546
f 239/239/547 242/242/548 238/238/549
f 243/243/550 238/238/551 242/242/552
f 242/242/553 244/244/554 243/243/555
f 241/241/556 244/244/557 242/242/558
f 245/245/559 246/246/560 247/247/561
f 247/247/562 248/248/563 245/245/564
f 248/248/565 247/247/566 249/249/567
f 249/249/568 250/250/569 248/248/570
f 250/250/571 251/251/572 252/252/573
f 252/252/574 248/248/575 250/250/576
f 248/248/577 252/252/578 253/253/579
f 253/253/580 245/245/581 248/248/582
f 254/254/583 245/245/584 253/253/585
f 245/245/586 254/254/587 246/246/588
f 255/255/589 256/256/590 257/257/591
f 257/257/592 258/258/593 255/255/594
f 259/259/595 255/255/596 258/258/597
f 258/258/598 260/260/599 259/259/600
f 261/261/601 259/259/602 260/260/603
f 258/258/604 257/257/605 262/262/606
f 262/262/607 263/263/608 258/258/609
f 260/260/610 258/258/611 263/263/612
f 263/263/613 264/264/614 260/260/615
f 260/260/616 264/264/617 261/261/618
f 265/265/619 266/266/620 267/267/621
f 267/267/622 266/266/623 268/268/624
f 268/268/625 269/269/626 267/267/627
f 270/270/628 271/271/629 265/265/630
f 267/267/631 270/270/632 265/265/633
f 270/270/634 267/267/635 272/272/636
f 272/272/637 267/267/638 269/269/639
f 269/269/640 273/273/641 272/272/642
f 274/274/643 271/271/644 270/270/645
f 270/270/646 275/275/647 274/274/648
f 272/272/649 275/275/650 270/270/651
f 276/276/652 275/275/653 272/272/654
f 274/274/655 275/275/656 276/276/657
f 277/277/658 272/272/659 273/273/660
f 277/277/661 278/278/662 272/272/663
f 272/272/664 278/278/665 276/276/666
f 279/279/667 280/280/668 281/281/669
f 281/281/670 282/282/671 279/279/672
f 283/283/673 282/282/674 281/281/675
f 281/281/676 284/284/677 283/283/678
f 284/284/679 281/281/680 280/280/681
f 284/284/682 280/280/683 285/285/684
f 285/285/685 280/280/686 279/279/687
f 286/286/688 284/284/689 285/285/690
f 284/284/691 287/287/692 288/288/693
f 284/284/694 289/289/695 287/287/696
f 284/284/697 286/286/698 289/289/699
f 290/290/700 289/289/701 286/286/702
f 286/286/703 285/285/704 290/290/705
f 285/285/706 291/291/707 290/290/708
f 279/279/709 291/291/710 285/285/711
f 292/292/712 293/293/713 294/294/714
f 295/295/715 294/294/716 293/293/717
f 293/293/718 296/296/719 295/295/720
f 297/297/721 298/298/722 293/293/723
f 296/296/724 293/293/725 298/298/726
f 298/298/727 299/299/728 296/296/729
f 300/300/730 296/296/731 299/299/732
f 300/300/733 295/295/734 296/296/735
f 301/301/736 295/295/737 300/300/738
f 294/294/739 295/295/740 301/301/741
f 301/301/742 302/302/743 294/294/744
f 292/292/745 294/294/746 302/302/747
f 302/302/748 297/297/749 292/292/750
f 293/293/751 292/292/752 297/297/753
f 303/303/754 304/304/755 305/305/756
f 305/305/757 304/304/758 306/306/759
f 306/306/760 307/307/761 305/305/762
f 308/308/763 307/307/764 306/306/765
f 309/309/766 307/307/767 308/308/768
f 308/308/769 310/310/770 309/309/771
f 309/309/772 310/310/773 311/311/774
f 311/311/775 312/312/776 313/313/777
f 313/313/778 309/309/779 311/311/780
f 305/305/781 307/307/782 309/309/783
f 309/309/784 313/313/785 305/305/786
f 313/313/787 312/312/788 314/314/789
f 314/314/790 315/315/791 313/313/792
f 305/305/793 313/313/794 315/315/795
f 315/315/796 316/316/797 305/305/798
f 303/303/799 305/305/800 316/316/801
f 317/317/802 318/318/803 319/319/804
f 319/319/805 318/318/806 320/320/807
f 321/321/808 320/320/809 322/322/810
f 320/320/811 321/321/812 319/319/813
f 322/322/814 323/323/815 321/321/816
f 324/324/817 325/325/818 319/319/819
f 319/319/820 321/321/821 324/324/822
f 326/326/823 324/324/824 321/321/825
f 321/321/826 323/323/827 326/326/828
f 317/317/829 319/319/830 327/327/831
f 328/328/832 327/327/833 319/319/834
f 319/319/835 325/325/836 328/328/837
f 329/329/838 328/328/839 325/325/840
f 329/329/841 325/325/842 324/324/843
f 324/324/844 330/330/845 329/329/846
f 324/324/847 326/326/848 330/330/849
f 331/331/850 332/332/851 333/333/852
f 333/333/853 334/334/854 331/331/855
f 335/335/856 331/331/857 334/334/858
f 334/334/859 336/336/860 335/335/861
f 337/337/862 335/335/863 336/336/864
f 338/338/865 332/332/866 331/331/867
f 331/331/868 339/339/869 338/338/870
f 339/339/871 331/331/872 335/335/873
f 335/335/874 340/340/875 339/339/876
f 337/337/877 341/341/878 335/335/879
f 335/335/880 341/341/881 342/342/882
f 342/342/883 340/340/884 335/335/885
f 343/343/886 340/340/887 342/342/888
f 339/339/889 340/340/890 343/343/891
f 343/343/892 344/344/893 339/339/894
f 339/339/895 344/344/896 338/338/897
f 1/1/898 3/3/899 345/345/900
