# This file uses centimeters as units for non-parametric coordinates.

v 0.673364 0.858934 -0.895043
v -1.164515 1.236732 -0.410756
v 0.604427 0.005612 0.714597
v -1.255765 0.321892 1.160317
v 0.188643 1.572429 0.784096
v -1.124867 1.266296 -0.426278
v 0.556519 -0.014519 0.715842
v -0.823656 -0.168381 -0.609763
v -0.014476 1.162768 1.140843
v -1.729705 0.906093 0.070156
v 0.924082 0.261420 -0.190724
v -0.791148 0.085033 -1.261412
v -0.032926 1.193034 1.128653
v -1.072577 1.444463 -0.172607
v 0.455639 -0.130449 0.378183
v -0.770971 0.063590 -1.246237
v 0.489639 1.404174 0.922836
v -1.201808 0.423155 1.241721
v 0.635310 0.737203 -0.948958
v -1.045293 -0.062003 -0.611331
v 0.729713 1.405913 -0.230926
v -1.103979 1.325480 -0.363672
v 0.514307 -0.054353 0.616377
v -1.355882 -0.055329 0.420546
v 0.424718 1.651580 0.510290
v -1.353811 1.203258 -0.140147
v 0.806345 0.027930 0.465804
v -0.993400 -0.206105 -0.221303
v -1.149498 1.201653 0.948693
v 0.580021 0.563250 1.341906
v -1.084778 0.585001 -0.942426
v 0.665336 0.032369 -0.513613
v -1.310006 0.528582 1.137947
v 0.693729 0.634729 1.096491
v -1.250777 0.519753 -0.787393
v 0.684910 0.622143 -0.946474
v 0.419209 1.689899 0.340398
v -0.029048 0.231901 1.518749
v -0.462214 0.946725 -1.095943
v -1.009298 -0.226545 -0.088414
v 0.192208 0.341432 -1.101224
v -1.216493 1.236002 -0.323139
v 0.656569 0.005617 0.627262
v -0.668591 0.817277 1.549751
v -0.898105 -0.147587 0.946889
v -1.419073 1.218330 0.354192
v 0.754048 0.017662 -0.231735
v 0.380629 1.533423 -0.569391
v -0.915621 -0.205401 -0.328961
v -1.149538 1.226451 -0.448056
v 0.591606 0.012568 0.755625
v 0.347853 1.645980 0.619527
v -0.915621 -0.205401 -0.328961
v -1.149538 1.226451 -0.448056
v 0.591606 0.012568 0.755625
v 0.347853 1.645980 0.619527
v -1.069901 -0.183125 0.628622
v -1.361227 1.257933 0.410294
v 0.720181 -0.009768 -0.246390
v 0.463260 1.608905 -0.405249
v -0.030375 1.916041 0.159422
v 0.663974 0.482893 1.151609
v -1.204085 0.665392 -0.813237
v -0.517382 -0.359695 0.165733
v -0.411107 1.855805 0.476993
v 0.816056 0.641579 0.849285
v -1.408096 0.515672 -0.600672
v -0.076105 -0.343007 -0.047186
v -0.091679 1.114891 0.302880
v -0.724196 1.068729 -1.393905
v -1.650587 -0.102159 0.657378
v -2.348965 0.219424 -1.153249
v -1.930472 1.165128 0.164768
v -0.701910 1.101503 -1.357625
v -1.672873 -0.121645 0.621098
v -0.635856 -0.198075 -1.232383
v -2.301164 0.809052 0.225926
v -1.550358 0.701569 -1.651196
v -0.824425 0.261818 0.914669
v -0.104955 0.115219 -1.016617
v -2.291131 0.831347 0.203852
v -0.942341 1.201304 -1.261313
v -1.432442 -0.215519 0.524786
v -0.117961 0.092789 -0.999683
v -1.925909 1.049660 0.386628
v -2.418472 0.302817 -1.086661
v -0.026292 0.995934 0.229172
v -0.629981 -0.098913 -1.436201
v -0.798547 1.389054 0.698765
v -0.759836 1.140842 -1.325999
v -1.614947 -0.155259 0.589472
v -1.576236 -0.110746 -1.435292
v -1.560647 1.325126 0.340904
v -1.055515 0.975342 -1.505723
v -1.319269 -0.053294 0.769196
v -0.933504 -0.254256 -1.283759
v -2.059577 0.881199 -1.138789
v -2.178366 0.355749 0.664758
v -0.196417 0.570929 -1.401285
v -0.470044 0.109475 0.134622
v -2.364522 0.392145 -1.186914
v -2.008378 0.422470 0.804829
v -0.369681 0.471906 -1.547017
v -0.066356 0.856048 0.353427
v -1.394834 1.399650 0.388728
v -2.449141 0.101267 0.087274
v 0.074358 1.073441 -0.823801
v -1.040422 -0.276693 -1.229782
v 0.184520 0.528814 -0.190453
v -0.819623 1.046205 -1.429575
v -1.555161 -0.096228 0.693048
v -2.566649 0.588827 -0.558771
v -2.019094 -0.209144 -0.886820
v -1.639283 0.921933 -1.410072
v -0.750070 0.021092 0.648361
v -0.360499 1.653772 0.141980
v -0.840842 -0.249463 -1.272995
v -0.684836 1.069056 -1.385758
v -1.689947 -0.097451 0.649231
v -1.698704 1.281923 0.251675
v -0.840842 -0.249463 -1.272995
v -0.684836 1.069056 -1.385758
v -1.689947 -0.097451 0.649231
v -1.698704 1.281923 0.251675
v -1.730476 -0.237318 -1.117031
v -1.654611 0.948510 -1.368317
v -0.740225 -0.006035 0.597129
v -0.644307 1.619105 0.380503
v -1.167525 1.607648 -0.106912
v -2.039733 0.294933 0.767480
v -0.335050 0.618182 -1.504007
v -1.207258 -0.416553 -0.629615
v -1.464767 1.431870 -0.495420
v -1.834616 0.449402 0.861269
v -0.580334 0.438788 -1.667225
v -0.910016 -0.387867 -0.241107
v 0.652490 0.564867 -2.398333
v -1.138445 0.924426 -1.832902
v 0.704641 -0.018159 -0.579390
v -1.188822 0.389779 -0.191179
v 0.300487 1.587729 -0.489790
v -1.098796 0.942230 -1.848423
v 0.669018 -0.034694 -0.556910
v -0.759051 -0.227473 -1.965301
v 0.029009 1.406528 -0.251202
v -1.537740 0.770320 -1.065239
v 1.116047 0.110053 -1.326119
v -0.599183 0.001479 -2.396807
v 0.017052 1.432283 -0.252167
v -1.046507 1.097139 -1.594752
v 0.622984 -0.188438 -0.799769
v -0.579713 -0.018326 -2.382855
v 0.478259 1.431372 -0.564042
v -1.136230 0.521675 -0.112135
v 0.602445 0.481474 -2.472975
v -0.996131 -0.122574 -1.993562
v 0.908118 1.041542 -1.389759
v -1.077909 0.988415 -1.785818
v 0.653880 -0.085498 -0.609578
v -1.331077 -0.102890 -1.003788
v 0.541121 1.487247 -0.755714
v -1.307075 0.937901 -1.526570
v 0.884906 -0.049459 -0.865610
v -0.967330 -0.258676 -1.643448
v -1.123428 1.204138 -0.473453
v 0.607885 0.717218 -0.077137
v -1.052402 0.439033 -2.353673
v 0.690510 -0.089053 -1.937309
v -1.228146 0.611003 -0.187764
v 0.716482 0.733309 -0.331390
v -1.224706 0.392145 -2.209539
v 0.718096 0.392145 -2.356318
v 0.561534 1.457916 -0.880799
v -0.049312 0.412613 0.016515
v -0.436144 0.683023 -2.518089
v -0.983976 -0.277931 -1.511854
v 0.220499 0.195464 -2.519532
v -1.190423 0.933579 -1.745284
v 0.758402 -0.035068 -0.663927
v -0.727847 1.067017 -0.019883
v -0.886351 -0.146722 -0.500003
v -1.316135 1.066590 -0.935087
v 0.876069 -0.106912 -1.488029
v 0.446579 1.048852 -1.922606
v -0.889551 -0.259595 -1.751106
v -1.123467 0.913851 -1.870202
v 0.688767 -0.003234 -0.543639
v 0.452389 1.538448 -0.666991
v -0.889551 -0.259595 -1.751106
v -1.123467 0.913851 -1.870202
v 0.688767 -0.003234 -0.543639
v 0.452389 1.538448 -0.666991
v -1.076325 -0.217276 -0.849690
v -1.277748 1.107008 -0.912619
v 0.827807 -0.131016 -1.527566
v 0.622138 1.151891 -1.597835
v 0.049901 1.534666 -1.169029
v 0.683281 0.582468 -0.282228
v -1.178015 0.506229 -2.235383
v -0.495686 -0.416862 -1.263973
v -0.385037 1.593859 -0.945153
v 0.806289 0.667269 -0.634805
v -1.382025 0.393463 -2.022818
v -0.123187 -0.412802 -1.595776
v 2.533761 0.564867 0.527140
v 0.874362 1.334538 -0.479089
v 1.394877 -0.118322 1.710666
v -0.264522 0.516398 0.704437
v 1.024724 1.133973 1.554281
v 0.914175 1.342524 -0.463996
v 1.355064 -0.134857 1.695572
v 1.244514 -0.198742 -0.322705
v 0.616660 0.890943 1.766975
v 0.063216 1.292673 -0.177783
v 2.206023 0.089113 1.409360
v 1.652579 0.018350 -0.535398
v 0.611584 0.919661 1.743566
v 0.782744 1.531314 -0.240816
v 1.486494 -0.236795 1.472393
v 1.657654 -0.003340 -0.511990
v 1.181556 0.960687 1.734307
v -0.278836 0.617039 0.799622
v 2.548075 0.481474 0.431955
v 1.087683 -0.059821 -0.502731
v 2.094545 0.898928 1.222659
v 0.887657 1.400319 -0.403560
v 1.381582 -0.169566 1.635136
v 0.174694 0.081000 0.008917
v 1.395112 1.118632 1.455376
v 0.543787 1.437207 -0.365090
v 1.725451 -0.103653 1.596667
v 0.874127 -0.196254 -0.223799
v -0.026639 1.468100 0.539009
v 0.981661 0.347884 2.039083
v 1.287578 0.582901 -0.807507
v 2.295878 -0.089053 0.692567
v -0.297410 0.771609 0.687300
v 1.206131 0.392145 2.047818
v 1.063107 0.577585 -0.816241
v 2.566649 0.392145 0.544276
v 1.496063 1.134611 1.367507
v 0.414393 0.129998 1.747512
v 1.854846 0.754359 -0.515936
v 0.773176 -0.209293 -0.135930
v 2.342711 0.195464 -0.076425
v 0.777032 1.373949 -0.448997
v 1.492207 -0.119890 1.680573
v -0.073472 0.860281 1.308002
v 0.159404 -0.105639 0.713694
v 0.140208 1.549696 0.067412
v 2.129031 -0.110804 1.164165
v 2.109834 1.029061 0.517883
v 1.004034 -0.211946 -0.251441
v 0.910494 1.311037 -0.496698
v 1.358745 -0.111366 1.728274
v 1.265205 1.138427 1.483017
v 1.004034 -0.211946 -0.251441
v 0.910494 1.311037 -0.496698
v 1.358745 -0.111366 1.728274
v 1.265205 1.138427 1.483017
v 0.247136 -0.118801 0.355085
v 0.153597 1.573862 0.109828
v 2.115642 -0.133643 1.121748
v 2.022103 1.052896 0.876491
v 1.310080 1.432080 0.810501
v 1.154170 0.278062 2.035653
v 1.115069 0.712059 -0.804077
v 0.959158 -0.402119 0.421076
v 0.837365 1.614834 0.684677
v 1.448065 0.390828 2.014920
v 0.821174 0.642690 -0.783344
v 1.431874 -0.412802 0.546899
v -0.342614 1.106476 0.112776
v -2.156192 0.956435 0.639067
v -0.371435 -0.100128 1.791758
v -2.199761 0.219424 2.292559
v -0.683956 1.143659 2.039747
v -2.123507 0.983078 0.611511
v -0.417871 -0.120942 1.795547
v -1.767770 -0.225319 0.522274
v -0.852081 0.798975 2.456981
v -2.546459 0.695177 1.422336
v 0.011149 0.294944 0.995211
v -1.607902 0.045139 0.090768
v -0.867192 0.820811 2.450564
v -2.055554 1.087401 0.892255
v -0.521729 -0.216753 1.452739
v -1.588432 0.024569 0.104720
v -0.466247 1.045711 2.034526
v -2.146961 0.302817 2.371961
v -0.441243 0.978213 -0.045844
v -2.004850 -0.122574 0.494014
v -0.190298 1.416682 0.942773
v -2.098963 1.021544 0.680437
v -0.460625 -0.155259 1.695145
v -2.338531 -0.110746 1.485976
v -0.557772 1.312175 1.575994
v -2.315794 0.902251 0.961005
v -0.171648 -0.045079 1.539281
v -1.976049 -0.258676 0.844127
v -2.135587 0.873343 2.008177
v -0.400464 0.356385 2.411077
v -2.065355 0.476800 0.126584
v -0.442657 0.101984 0.335157
v -2.234691 0.392145 2.303567
v -0.221782 0.428497 2.277969
v -2.233425 0.403273 0.278036
v -0.343530 0.853690 0.039807
v -0.532102 1.385457 1.459997
v -0.994268 0.101267 2.614305
v -1.521296 0.924719 -0.162627
v -1.991946 -0.277931 0.977015
v -0.806830 0.458068 -0.064124
v -2.199618 0.944324 0.741469
v -0.322010 -0.093649 1.699727
v -1.651570 0.588827 2.614609
v -1.884337 -0.209144 2.006125
v -2.324854 0.895095 1.552488
v -0.172228 0.031991 0.931136
v -0.562140 1.591459 0.564970
v -1.898270 -0.259595 0.736469
v -2.146316 0.953753 0.592950
v -0.380342 -0.096380 1.839550
v -0.610658 1.264032 1.726680
v -1.898270 -0.259595 0.736469
v -2.146316 0.953753 0.592950
v -0.380342 -0.096380 1.839550
v -0.610658 1.264032 1.726680
v -2.052768 -0.237318 1.693675
v -2.287406 0.917933 1.573333
v -0.202097 0.001832 0.923391
v -0.419678 1.596003 0.832531
v -0.958818 1.523595 1.318547
v -0.259796 0.298104 2.318810
v -2.187674 0.531163 0.250569
v -1.480313 -0.417791 1.265245
v -1.393756 1.341602 1.542422
v -0.055271 0.464540 2.107135
v -2.390744 0.394701 0.464757
v -1.045375 -0.403845 1.041369
v 2.063057 0.564867 -2.130293
v 0.157483 1.002776 -1.763016
v 1.913390 -0.118322 -0.660194
v 0.081469 0.575142 -0.165608
v 1.591042 1.218661 -0.429190
v 0.197132 1.015375 -1.778537
v 1.865580 -0.134857 -0.658779
v 0.493670 -0.227473 -1.970099
v 1.440924 1.057883 0.019168
v -0.241812 1.018413 -0.995353
v 2.411975 0.089113 -1.256233
v 0.694074 0.001479 -2.331538
v 1.411368 1.088021 -0.012218
v 0.249422 1.202774 -1.524866
v 1.889386 -0.236795 -0.780920
v 0.714949 -0.018326 -2.315157
v 1.768952 1.032372 -0.503206
v 0.126903 0.709041 -0.098938
v 2.009806 0.481474 -2.210476
v 0.255846 -0.122574 -1.999647
v 2.196084 0.895036 -1.333637
v 0.218019 1.069836 -1.715932
v 1.863070 -0.169566 -0.689619
v -0.052811 -0.025923 -0.964430
v 1.687650 1.144979 -0.944066
v -0.011146 1.086967 -1.456684
v 2.173911 -0.103653 -0.807691
v 0.174864 -0.258676 -1.839295
v 0.137415 1.444863 -0.464213
v 1.864531 0.401842 -0.075151
v 0.238056 0.439033 -2.293242
v 1.997663 -0.089053 -1.848019
v 0.017564 0.839210 -0.204681
v 2.007315 0.422470 -0.270311
v 0.071222 0.394299 -2.139653
v 2.098942 0.392145 -2.139653
v 1.691568 1.143659 -1.097664
v 1.144484 0.233163 -0.090135
v 0.693889 0.683023 -2.734953
v 0.146806 -0.275304 -1.727424
v 1.516427 0.195464 -2.449646
v 0.105505 1.031096 -1.675398
v 1.997159 -0.119890 -0.692861
v 0.594205 1.077910 0.095159
v 0.425985 -0.101012 -0.401757
v -0.020207 1.322070 -0.865201
v 2.190370 -0.110804 -1.386386
v 1.742507 0.993435 -1.852720
v 0.282263 -0.259595 -1.895753
v 0.172461 0.984881 -1.800316
v 1.886270 -0.111366 -0.643883
v 1.640352 1.181742 -0.783723
v 0.282263 -0.259595 -1.895753
v 0.172461 0.984881 -1.800316
v 1.886270 -0.111366 -0.643883
v 1.640352 1.181742 -0.783723
v 0.250831 -0.165983 -0.725826
v 0.018180 1.357843 -0.842733
v 2.151983 -0.133643 -1.408854
v 1.916800 1.024236 -1.530137
v 1.331143 1.354982 -1.124527
v 1.974782 0.302997 -0.219994
v 0.117913 0.510649 -2.165497
v 0.805632 -0.417791 -1.184770
v 0.908849 1.524367 -0.878797
v 2.188762 0.398684 -0.415327
v -0.086097 0.410333 -1.952932
v 1.259272 -0.412802 -1.376320
v -0.483479 1.090000 -0.060458
v -1.344417 0.986167 1.805022
v 0.828054 -0.053336 1.225283
v -0.260559 0.219424 2.697226
v 0.669814 1.286835 1.580600
v -1.327168 1.014642 1.770225
v 0.816491 -0.076761 1.269910
v -1.177749 -0.221081 1.464273
v 0.774272 0.877353 1.779823
v -1.005365 0.695177 2.640985
v 0.443937 0.356527 0.311425
v -1.413427 0.045493 1.038235
v 0.746854 0.900297 1.778302
v -1.084947 1.133039 1.923974
v 0.514203 -0.176224 1.012334
v -1.385795 0.025333 1.040126
v 0.828194 1.189024 1.388643
v -0.171600 0.302817 2.697980
v -0.602513 0.953081 -0.113198
v -1.370086 -0.120420 1.597538
v 0.204759 1.523125 0.331932
v -1.254364 1.057362 1.815627
v 0.739425 -0.112760 1.217140
v -0.820882 -0.110746 2.525939
v 0.557731 1.471684 1.204997
v -1.204792 0.928087 2.163619
v 0.660160 0.013986 0.817824
v -1.077445 -0.258676 1.819517
v -0.452065 0.883475 2.427909
v 1.023706 0.417918 1.384363
v -1.829330 0.481928 1.145953
v -0.353558 0.117303 0.102407
v -0.297403 0.392145 2.695093
v 1.027122 0.512483 1.159749
v -1.832746 0.410339 1.370567
v -0.508221 0.836426 -0.164776
v 0.463185 1.543269 1.098706
v 0.816134 0.103421 2.080205
v -1.421869 0.911474 0.795621
v -0.998791 -0.277931 1.898339
v -0.957549 0.429968 0.360551
v -1.302257 0.973975 1.918500
v 0.780566 -0.041721 1.102596
v 0.478906 0.589756 2.734953
v -0.116159 -0.209144 2.524155
v -0.807262 0.910767 2.480080
v 0.161367 0.075576 0.326329
v -0.382511 1.632071 0.536733
v -1.105325 -0.259595 1.695194
v -1.368681 0.983055 1.759283
v 0.839961 -0.049809 1.249664
v 0.593142 1.421190 1.342337
v -1.105325 -0.259595 1.695194
v -1.368681 0.983055 1.759283
v 0.839961 -0.049809 1.249664
v 0.593142 1.421190 1.342337
v -0.477275 -0.237318 2.444024
v -0.775228 0.937329 2.448314
v 0.118250 0.043243 0.338938
v -0.107110 1.684051 0.468704
v -0.212310 1.657359 1.085135
v 1.016192 0.366810 1.211984
v -1.821815 0.539642 1.318332
v -0.593314 -0.416553 1.445182
v -0.326902 1.455807 1.560698
v 0.988504 0.564227 0.918663
v -1.794127 0.399286 1.611654
v -0.478722 -0.387867 0.969619
vt 0.229544 0.168927
vt 0.770456 0.168927
vt 0.229544 0.845858
vt 0.770456 0.845858
vt 0.229544 0.168927
vt 0.770456 0.168927
vt 0.770456 0.845858
vt 0.229544 0.845858
vt 0.229544 0.168927
vt 0.770456 0.168927
vt 0.770456 0.845858
vt 0.229544 0.845858
vt 0.229544 0.168927
vt 0.770456 0.168927
vt 0.770456 0.845858
vt 0.229544 0.845858
vt 0.229544 0.168927
vt 0.770456 0.168927
vt 0.770456 0.845858
vt 0.229544 0.845858
vt 0.229544 0.168927
vt 0.770456 0.168927
vt 0.770456 0.845858
vt 0.229544 0.845858
vt 0.229544 0.168927
vt 0.770456 0.168927
vt 0.770456 0.845858
vt 0.229544 0.845858
vt 0.229544 0.168927
vt 0.770456 0.168927
vt 0.770456 0.845858
vt 0.229544 0.845858
vt 0.229544 0.168927
vt 0.770456 0.168927
vt 0.770456 0.845858
vt 0.229544 0.845858
vt 0.229544 0.168927
vt 0.770456 0.168927
vt 0.770456 0.845858
vt 0.229544 0.845858
vt 0.229544 0.168927
vt 0.770456 0.168927
vt 0.770456 0.845858
vt 0.229544 0.845858
vt 0.229544 0.168927
vt 0.770456 0.168927
vt 0.770456 0.845858
vt 0.229544 0.845858
vt 0.229544 0.168927
vt 0.770456 0.168927
vt 0.770456 0.845858
vt 0.229544 0.845858
vt 0.229544 0.168927
vt 0.770456 0.168927
vt 0.770456 0.845858
vt 0.229544 0.845858
vt 0.229544 0.168927
vt 0.770456 0.168927
vt 0.770456 0.845858
vt 0.229544 0.845858
vt 0.229544 0.168927
vt 0.770456 0.168927
vt 0.770456 0.845858
vt 0.229544 0.845858
vt 0.229544 0.168927
vt 0.770456 0.168927
vt 0.770456 0.845858
vt 0.229544 0.845858
vt 0.229544 0.168927
vt 0.770456 0.168927
vt 0.770456 0.845858
vt 0.229544 0.845858
vt 0.229544 0.168927
vt 0.770456 0.168927
vt 0.770456 0.845858
vt 0.229544 0.845858
vt 0.229544 0.168927
vt 0.770456 0.168927
vt 0.770456 0.845858
vt 0.229544 0.845858
vt 0.229544 0.168927
vt 0.770456 0.168927
vt 0.770456 0.845858
vt 0.229544 0.845858
vt 0.229544 0.168927
vt 0.770456 0.168927
vt 0.770456 0.845858
vt 0.229544 0.845858
vt 0.229544 0.168927
vt 0.770456 0.168927
vt 0.770456 0.845858
vt 0.229544 0.845858
vt 0.229544 0.168927
vt 0.770456 0.168927
vt 0.770456 0.845858
vt 0.229544 0.845858
vt 0.229544 0.168927
vt 0.770456 0.168927
vt 0.770456 0.845858
vt 0.229544 0.845858
vt 0.229544 0.168927
vt 0.770456 0.168927
vt 0.770456 0.845858
vt 0.229544 0.845858
vt 0.229544 0.168927
vt 0.770456 0.168927
vt 0.770456 0.845858
vt 0.229544 0.845858
vt 0.229544 0.168927
vt 0.770456 0.168927
vt 0.770456 0.845858
vt 0.229544 0.845858
vt 0.229544 0.168927
vt 0.770456 0.168927
vt 0.770456 0.845858
vt 0.229544 0.845858
vt 0.229544 0.168927
vt 0.770456 0.168927
vt 0.770456 0.845858
vt 0.229544 0.845858
vt 0.229544 0.168927
vt 0.770456 0.168927
vt 0.770456 0.845858
vt 0.229544 0.845858
vt 0.229544 0.168927
vt 0.770456 0.168927
vt 0.770456 0.845858
vt 0.229544 0.845858
vt 0.229544 0.168927
vt 0.770456 0.168927
vt 0.770456 0.845858
vt 0.229544 0.845858
vt 0.229544 0.168927
vt 0.770456 0.168927
vt 0.770456 0.845858
vt 0.229544 0.845858
vt 0.229544 0.168927
vt 0.770456 0.168927
vt 0.770456 0.845858
vt 0.229544 0.845858
vt 0.229544 0.168927
vt 0.770456 0.168927
vt 0.770456 0.845858
vt 0.229544 0.845858
vt 0.229544 0.168927
vt 0.770456 0.168927
vt 0.770456 0.845858
vt 0.229544 0.845858
vt 0.229544 0.168927
vt 0.770456 0.168927
vt 0.770456 0.845858
vt 0.229544 0.845858
vt 0.229544 0.168927
vt 0.770456 0.168927
vt 0.770456 0.845858
vt 0.229544 0.845858
vt 0.229544 0.168927
vt 0.770456 0.168927
vt 0.770456 0.845858
vt 0.229544 0.845858
vt 0.229544 0.168927
vt 0.770456 0.168927
vt 0.770456 0.845858
vt 0.229544 0.845858
vt 0.229544 0.168927
vt 0.770456 0.168927
vt 0.770456 0.845858
vt 0.229544 0.845858
vt 0.229544 0.168927
vt 0.770456 0.168927
vt 0.770456 0.845858
vt 0.229544 0.845858
vt 0.229544 0.168927
vt 0.770456 0.168927
vt 0.770456 0.845858
vt 0.229544 0.845858
vt 0.229544 0.168927
vt 0.770456 0.168927
vt 0.770456 0.845858
vt 0.229544 0.845858
vt 0.229544 0.168927
vt 0.770456 0.168927
vt 0.770456 0.845858
vt 0.229544 0.845858
vt 0.229544 0.168927
vt 0.770456 0.168927
vt 0.770456 0.845858
vt 0.229544 0.845858
vt 0.229544 0.168927
vt 0.770456 0.168927
vt 0.770456 0.845858
vt 0.229544 0.845858
vt 0.229544 0.168927
vt 0.770456 0.168927
vt 0.770456 0.845858
vt 0.229544 0.845858
vt 0.229544 0.168927
vt 0.770456 0.168927
vt 0.770456 0.845858
vt 0.229544 0.845858
vt 0.229544 0.168927
vt 0.770456 0.168927
vt 0.770456 0.845858
vt 0.229544 0.845858
vt 0.229544 0.168927
vt 0.770456 0.168927
vt 0.770456 0.845858
vt 0.229544 0.845858
vt 0.229544 0.168927
vt 0.770456 0.168927
vt 0.770456 0.845858
vt 0.229544 0.845858
vt 0.229544 0.168927
vt 0.770456 0.168927
vt 0.770456 0.845858
vt 0.229544 0.845858
vt 0.229544 0.168927
vt 0.770456 0.168927
vt 0.770456 0.845858
vt 0.229544 0.845858
vt 0.229544 0.168927
vt 0.770456 0.168927
vt 0.770456 0.845858
vt 0.229544 0.845858
vt 0.229544 0.168927
vt 0.770456 0.168927
vt 0.770456 0.845858
vt 0.229544 0.845858
vt 0.229544 0.168927
vt 0.770456 0.168927
vt 0.770456 0.845858
vt 0.229544 0.845858
vt 0.229544 0.168927
vt 0.770456 0.168927
vt 0.770456 0.845858
vt 0.229544 0.845858
vt 0.229544 0.168927
vt 0.770456 0.168927
vt 0.770456 0.845858
vt 0.229544 0.845858
vt 0.229544 0.168927
vt 0.770456 0.168927
vt 0.770456 0.845858
vt 0.229544 0.845858
vt 0.229544 0.168927
vt 0.770456 0.168927
vt 0.770456 0.845858
vt 0.229544 0.845858
vt 0.229544 0.168927
vt 0.770456 0.168927
vt 0.770456 0.845858
vt 0.229544 0.845858
vt 0.229544 0.168927
vt 0.770456 0.168927
vt 0.770456 0.845858
vt 0.229544 0.845858
vt 0.229544 0.168927
vt 0.770456 0.168927
vt 0.770456 0.845858
vt 0.229544 0.845858
vt 0.229544 0.168927
vt 0.770456 0.168927
vt 0.770456 0.845858
vt 0.229544 0.845858
vt 0.229544 0.168927
vt 0.770456 0.168927
vt 0.770456 0.845858
vt 0.229544 0.845858
vt 0.229544 0.168927
vt 0.770456 0.168927
vt 0.770456 0.845858
vt 0.229544 0.845858
vt 0.229544 0.168927
vt 0.770456 0.168927
vt 0.770456 0.845858
vt 0.229544 0.845858
vt 0.229544 0.168927
vt 0.770456 0.168927
vt 0.770456 0.845858
vt 0.229544 0.845858
vt 0.229544 0.168927
vt 0.770456 0.168927
vt 0.770456 0.845858
vt 0.229544 0.845858
vt 0.229544 0.168927
vt 0.770456 0.168927
vt 0.770456 0.845858
vt 0.229544 0.845858
vt 0.229544 0.168927
vt 0.770456 0.168927
vt 0.770456 0.845858
vt 0.229544 0.845858
vt 0.229544 0.168927
vt 0.770456 0.168927
vt 0.770456 0.845858
vt 0.229544 0.845858
vt 0.229544 0.168927
vt 0.770456 0.168927
vt 0.770456 0.845858
vt 0.229544 0.845858
vt 0.229544 0.168927
vt 0.770456 0.168927
vt 0.770456 0.845858
vt 0.229544 0.845858
vt 0.229544 0.168927
vt 0.770456 0.168927
vt 0.770456 0.845858
vt 0.229544 0.845858
vt 0.229544 0.168927
vt 0.770456 0.168927
vt 0.770456 0.845858
vt 0.229544 0.845858
vt 0.229544 0.168927
vt 0.770456 0.168927
vt 0.770456 0.845858
vt 0.229544 0.845858
vt 0.229544 0.168927
vt 0.770456 0.168927
vt 0.770456 0.845858
vt 0.229544 0.845858
vt 0.229544 0.168927
vt 0.770456 0.168927
vt 0.770456 0.845858
vt 0.229544 0.845858
vt 0.229544 0.168927
vt 0.770456 0.168927
vt 0.770456 0.845858
vt 0.229544 0.845858
vt 0.229544 0.168927
vt 0.770456 0.168927
vt 0.770456 0.845858
vt 0.229544 0.845858
vt 0.229544 0.168927
vt 0.770456 0.168927
vt 0.770456 0.845858
vt 0.229544 0.845858
vt 0.229544 0.168927
vt 0.770456 0.168927
vt 0.770456 0.845858
vt 0.229544 0.845858
vt 0.229544 0.168927
vt 0.770456 0.168927
vt 0.770456 0.845858
vt 0.229544 0.845858
vt 0.229544 0.168927
vt 0.770456 0.168927
vt 0.770456 0.845858
vt 0.229544 0.845858
vt 0.229544 0.168927
vt 0.770456 0.168927
vt 0.770456 0.845858
vt 0.229544 0.845858
vt 0.229544 0.168927
vt 0.770456 0.168927
vt 0.770456 0.845858
vt 0.229544 0.845858
vt 0.229544 0.168927
vt 0.770456 0.168927
vt 0.770456 0.845858
vt 0.229544 0.845858
vt 0.229544 0.168927
vt 0.770456 0.168927
vt 0.770456 0.845858
vt 0.229544 0.845858
vt 0.229544 0.168927
vt 0.770456 0.168927
vt 0.770456 0.845858
vt 0.229544 0.845858
vt 0.229544 0.168927
vt 0.770456 0.168927
vt 0.770456 0.845858
vt 0.229544 0.845858
vt 0.229544 0.168927
vt 0.770456 0.168927
vt 0.770456 0.845858
vt 0.229544 0.845858
vt 0.229544 0.168927
vt 0.770456 0.168927
vt 0.770456 0.845858
vt 0.229544 0.845858
vt 0.229544 0.168927
vt 0.770456 0.168927
vt 0.770456 0.845858
vt 0.229544 0.845858
vt 0.229544 0.168927
vt 0.770456 0.168927
vt 0.770456 0.845858
vt 0.229544 0.845858
vt 0.229544 0.168927
vt 0.770456 0.168927
vt 0.770456 0.845858
vt 0.229544 0.845858
vt 0.229544 0.168927
vt 0.770456 0.168927
vt 0.770456 0.845858
vt 0.229544 0.845858
vt 0.229544 0.168927
vt 0.770456 0.168927
vt 0.770456 0.845858
vt 0.229544 0.845858
vt 0.229544 0.168927
vt 0.770456 0.168927
vt 0.770456 0.845858
vt 0.229544 0.845858
vt 0.229544 0.168927
vt 0.770456 0.168927
vt 0.770456 0.845858
vt 0.229544 0.845858
vt 0.229544 0.168927
vt 0.770456 0.168927
vt 0.770456 0.845858
vt 0.229544 0.845858
vt 0.229544 0.168927
vt 0.770456 0.168927
vt 0.770456 0.845858
vt 0.229544 0.845858
vt 0.229544 0.168927
vt 0.770456 0.168927
vt 0.770456 0.845858
vt 0.229544 0.845858
vt 0.229544 0.168927
vt 0.770456 0.168927
vt 0.770456 0.845858
vt 0.229544 0.845858
vt 0.229544 0.168927
vt 0.770456 0.168927
vt 0.770456 0.845858
vt 0.229544 0.845858
vt 0.229544 0.168927
vt 0.770456 0.168927
vt 0.770456 0.845858
vt 0.229544 0.845858
vt 0.229544 0.168927
vt 0.770456 0.168927
vt 0.770456 0.845858
vt 0.229544 0.845858
vt 0.229544 0.168927
vt 0.770456 0.168927
vt 0.770456 0.845858
vt 0.229544 0.845858
vt 0.229544 0.168927
vt 0.770456 0.168927
vt 0.770456 0.845858
vt 0.229544 0.845858
vt 0.229544 0.168927
vt 0.770456 0.168927
vt 0.770456 0.845858
vt 0.229544 0.845858
vt 0.229544 0.168927
vt 0.770456 0.168927
vt 0.770456 0.845858
vt 0.229544 0.845858
vt 0.229544 0.168927
vt 0.770456 0.168927
vt 0.770456 0.845858
vt 0.229544 0.845858
vt 0.229544 0.168927
vt 0.770456 0.168927
vt 0.770456 0.845858
vt 0.229544 0.845858
vt 0.229544 0.168927
vt 0.770456 0.168927
vt 0.770456 0.845858
vt 0.229544 0.845858
vt 0.229544 0.168927
vt 0.770456 0.168927
vt 0.770456 0.845858
vt 0.229544 0.845858
vt 0.229544 0.168927
vt 0.770456 0.168927
vt 0.770456 0.845858
vt 0.229544 0.845858
vt 0.229544 0.168927
vt 0.770456 0.168927
vt 0.770456 0.845858
vt 0.229544 0.845858
vn 0.276609 0.833943 0.477521
vn 0.276609 0.833943 0.477521
vn 0.276609 0.833943 0.477521
vn 0.276609 0.833943 0.477521
vn -0.652081 -0.205198 0.729853
vn -0.652081 -0.205198 0.729852
vn -0.652081 -0.205198 0.729853
vn -0.652081 -0.205198 0.729853
vn -0.169125 -0.877670 0.448433
vn -0.169125 -0.877670 0.448433
vn -0.169125 -0.877670 0.448433
vn -0.169125 -0.877670 0.448433
vn -0.709914 -0.524476 0.470049
vn -0.709914 -0.524476 0.470049
vn -0.709914 -0.524476 0.470049
vn -0.709914 -0.524476 0.470049
vn 0.490370 -0.820573 0.293593
vn 0.490370 -0.820573 0.293593
vn 0.490370 -0.820573 0.293593
vn 0.490370 -0.820573 0.293593
vn -0.087221 0.506842 0.857615
vn -0.087221 0.506842 0.857615
vn -0.087221 0.506842 0.857615
vn -0.087221 0.506842 0.857615
vn -0.327658 -0.118989 0.937274
vn -0.327658 -0.118989 0.937274
vn -0.327658 -0.118989 0.937274
vn -0.327658 -0.118989 0.937274
vn 0.366993 0.893453 -0.258954
vn 0.366993 0.893453 -0.258954
vn 0.366993 0.893454 -0.258954
vn 0.366993 0.893453 -0.258954
vn -0.053169 0.998567 -0.006064
vn -0.053169 0.998567 -0.006064
vn -0.053169 0.998567 -0.006064
vn -0.053169 0.998567 -0.006064
vn 0.798912 -0.533269 -0.278142
vn 0.798912 -0.533269 -0.278142
vn 0.798912 -0.533269 -0.278142
vn 0.798912 -0.533269 -0.278142
vn 0.540182 0.841194 0.024410
vn 0.540182 0.841194 0.024410
vn 0.540182 0.841194 0.024410
vn 0.540182 0.841194 0.024410
vn -0.436703 -0.396281 -0.807621
vn -0.436703 -0.396281 -0.807621
vn -0.436703 -0.396281 -0.807621
vn -0.436703 -0.396281 -0.807621
vn 0.579027 0.022380 -0.815001
vn 0.579027 0.022380 -0.815001
vn 0.579027 0.022380 -0.815001
vn 0.579027 0.022380 -0.815001
vn 0.579027 0.022380 -0.815001
vn 0.579027 0.022380 -0.815001
vn 0.579027 0.022380 -0.815001
vn 0.579027 0.022380 -0.815001
vn -0.394843 -0.181768 -0.900588
vn -0.394843 -0.181768 -0.900588
vn -0.394843 -0.181768 -0.900588
vn -0.394843 -0.181768 -0.900588
vn 0.708963 -0.153627 -0.688310
vn 0.708963 -0.153627 -0.688310
vn 0.708963 -0.153627 -0.688310
vn 0.708963 -0.153627 -0.688310
vn 0.514628 0.272231 -0.813049
vn 0.514628 0.272231 -0.813049
vn 0.514628 0.272231 -0.813049
vn 0.514628 0.272231 -0.813049
vn -0.493134 0.832506 0.252493
vn -0.493134 0.832506 0.252493
vn -0.493134 0.832506 0.252493
vn -0.493134 0.832506 0.252493
vn -0.813765 -0.222560 -0.536892
vn -0.813766 -0.222560 -0.536892
vn -0.813766 -0.222560 -0.536892
vn -0.813765 -0.222560 -0.536892
vn -0.334570 -0.940025 -0.066450
vn -0.334570 -0.940025 -0.066450
vn -0.334570 -0.940025 -0.066450
vn -0.334570 -0.940025 -0.066450
vn -0.536127 -0.583513 -0.609984
vn -0.536127 -0.583513 -0.609984
vn -0.536127 -0.583513 -0.609984
vn -0.536127 -0.583513 -0.609984
vn -0.035006 -0.856571 0.514841
vn -0.035006 -0.856571 0.514841
vn -0.035006 -0.856571 0.514841
vn -0.035006 -0.856571 0.514841
vn -0.861338 0.506298 -0.041935
vn -0.861338 0.506298 -0.041935
vn -0.861338 0.506298 -0.041935
vn -0.861338 0.506298 -0.041935
vn -0.963755 -0.182747 -0.194369
vn -0.963755 -0.182747 -0.194369
vn -0.963755 -0.182747 -0.194369
vn -0.963755 -0.182747 -0.194369
vn 0.211494 0.930272 0.299775
vn 0.211494 0.930272 0.299775
vn 0.211494 0.930272 0.299775
vn 0.211494 0.930272 0.299775
vn -0.145161 0.986135 -0.080415
vn -0.145161 0.986135 -0.080415
vn -0.145161 0.986135 -0.080415
vn -0.145161 0.986135 -0.080415
vn 0.463824 -0.562650 0.684319
vn 0.463824 -0.562650 0.684319
vn 0.463824 -0.562650 0.684319
vn 0.463824 -0.562650 0.684319
vn -0.042533 0.885840 0.462037
vn -0.042533 0.885840 0.462037
vn -0.042533 0.885840 0.462037
vn -0.042533 0.885840 0.462037
vn 0.763968 -0.401005 -0.505517
vn 0.763969 -0.401005 -0.505517
vn 0.763968 -0.401005 -0.505517
vn 0.763969 -0.401005 -0.505517
vn 0.886956 0.038646 0.460234
vn 0.886956 0.038646 0.460234
vn 0.886956 0.038646 0.460234
vn 0.886956 0.038646 0.460234
vn 0.886956 0.038646 0.460234
vn 0.886956 0.038646 0.460234
vn 0.886956 0.038646 0.460234
vn 0.886956 0.038646 0.460234
vn 0.872825 -0.131570 -0.469963
vn 0.872825 -0.131570 -0.469963
vn 0.872825 -0.131570 -0.469963
vn 0.872825 -0.131570 -0.469963
vn 0.800008 -0.164686 0.576946
vn 0.800008 -0.164686 0.576946
vn 0.800008 -0.164686 0.576946
vn 0.800008 -0.164686 0.576946
vn 0.849914 0.317832 0.420273
vn 0.849914 0.317832 0.420273
vn 0.849914 0.317832 0.420273
vn 0.849914 0.317832 0.420273
vn 0.267621 0.916932 0.295999
vn 0.267621 0.916932 0.295999
vn 0.267621 0.916932 0.295999
vn 0.267621 0.916932 0.295999
vn -0.650394 -0.213033 0.729113
vn -0.650394 -0.213033 0.729113
vn -0.650394 -0.213033 0.729113
vn -0.650394 -0.213033 0.729113
vn -0.144813 -0.807803 0.571388
vn -0.144813 -0.807803 0.571388
vn -0.144813 -0.807803 0.571388
vn -0.144813 -0.807803 0.571388
vn -0.659598 -0.522399 0.540399
vn -0.659598 -0.522399 0.540399
vn -0.659598 -0.522399 0.540399
vn -0.659598 -0.522399 0.540399
vn 0.481443 -0.795430 0.368110
vn 0.481443 -0.795430 0.368110
vn 0.481443 -0.795430 0.368110
vn 0.481443 -0.795430 0.368110
vn -0.167284 0.592957 0.787666
vn -0.167284 0.592957 0.787666
vn -0.167284 0.592957 0.787666
vn -0.167284 0.592957 0.787666
vn -0.351935 -0.164462 0.921463
vn -0.351935 -0.164462 0.921463
vn -0.351935 -0.164462 0.921463
vn -0.351935 -0.164462 0.921463
vn 0.337490 0.872725 -0.352777
vn 0.337490 0.872725 -0.352777
vn 0.337490 0.872725 -0.352777
vn 0.337490 0.872725 -0.352777
vn -0.041373 0.989704 -0.137016
vn -0.041374 0.989704 -0.137016
vn -0.041374 0.989704 -0.137016
vn -0.041373 0.989704 -0.137016
vn 0.766347 -0.615909 -0.182670
vn 0.766347 -0.615909 -0.182670
vn 0.766347 -0.615909 -0.182670
vn 0.766347 -0.615909 -0.182670
vn 0.492245 0.862942 -0.114128
vn 0.492245 0.862942 -0.114128
vn 0.492245 0.862942 -0.114128
vn 0.492245 0.862942 -0.114128
vn -0.435638 -0.445189 -0.782321
vn -0.435638 -0.445189 -0.782321
vn -0.435638 -0.445189 -0.782321
vn -0.435638 -0.445189 -0.782321
vn 0.601108 0.032818 -0.798494
vn 0.601108 0.032818 -0.798494
vn 0.601108 0.032818 -0.798494
vn 0.601108 0.032818 -0.798494
vn 0.601108 0.032818 -0.798494
vn 0.601108 0.032818 -0.798494
vn 0.601108 0.032818 -0.798494
vn 0.601108 0.032818 -0.798494
vn -0.332589 -0.099841 -0.937772
vn -0.332589 -0.099841 -0.937772
vn -0.332589 -0.099841 -0.937772
vn -0.332589 -0.099841 -0.937772
vn 0.716953 -0.167516 -0.676695
vn 0.716953 -0.167516 -0.676695
vn 0.716953 -0.167516 -0.676695
vn 0.716953 -0.167516 -0.676695
vn 0.476720 0.326797 -0.816053
vn 0.476720 0.326797 -0.816053
vn 0.476720 0.326797 -0.816053
vn 0.476720 0.326797 -0.816053
vn 0.020340 0.835322 0.549385
vn 0.020340 0.835322 0.549385
vn 0.020340 0.835322 0.549385
vn 0.020340 0.835322 0.549385
vn -0.973464 -0.224317 0.045281
vn -0.973464 -0.224317 0.045281
vn -0.973464 -0.224317 0.045281
vn -0.973464 -0.224317 0.045281
vn -0.532440 -0.842696 0.079816
vn -0.532440 -0.842696 0.079816
vn -0.532440 -0.842696 0.079816
vn -0.532440 -0.842696 0.079816
vn -0.840773 -0.510180 -0.181157
vn -0.840773 -0.510180 -0.181157
vn -0.840773 -0.510180 -0.181157
vn -0.840773 -0.510180 -0.181157
vn 0.010295 -0.909918 0.414661
vn 0.010295 -0.909918 0.414661
vn 0.010295 -0.909918 0.414661
vn 0.010295 -0.909918 0.414661
vn -0.600227 0.556810 0.574187
vn -0.600227 0.556810 0.574187
vn -0.600227 0.556810 0.574187
vn -0.600227 0.556810 0.574187
vn -0.897054 -0.167050 0.409131
vn -0.897054 -0.167050 0.409131
vn -0.897054 -0.167050 0.409131
vn -0.897054 -0.167050 0.409131
vn 0.546555 0.827726 0.127075
vn 0.546555 0.827726 0.127075
vn 0.546555 0.827726 0.127075
vn 0.546555 0.827726 0.127075
vn 0.133942 0.989327 0.057367
vn 0.133942 0.989327 0.057367
vn 0.133942 0.989327 0.057367
vn 0.133942 0.989327 0.057367
vn 0.698207 -0.666863 0.260386
vn 0.698207 -0.666863 0.260386
vn 0.698207 -0.666863 0.260386
vn 0.698207 -0.666863 0.260386
vn 0.451260 0.794723 0.405931
vn 0.451260 0.794723 0.405931
vn 0.451260 0.794723 0.405931
vn 0.451260 0.794723 0.405931
vn 0.150251 -0.413254 -0.898135
vn 0.150251 -0.413254 -0.898135
vn 0.150251 -0.413254 -0.898135
vn 0.150251 -0.413254 -0.898135
vn 0.983823 0.035308 -0.175632
vn 0.983823 0.035308 -0.175632
vn 0.983823 0.035308 -0.175632
vn 0.983823 0.035308 -0.175632
vn 0.983823 0.035308 -0.175632
vn 0.983823 0.035308 -0.175632
vn 0.983823 0.035308 -0.175632
vn 0.983823 0.035308 -0.175632
vn 0.359679 -0.133946 -0.923412
vn 0.359679 -0.133946 -0.923412
vn 0.359679 -0.133946 -0.923412
vn 0.359679 -0.133946 -0.923412
vn 0.982931 -0.179362 -0.040946
vn 0.982931 -0.179362 -0.040946
vn 0.982931 -0.179362 -0.040946
vn 0.982931 -0.179362 -0.040946
vn 0.939657 0.288052 -0.184583
vn 0.939657 0.288052 -0.184583
vn 0.939657 0.288052 -0.184583
vn 0.939657 0.288052 -0.184583
vn 0.180054 0.847991 0.498490
vn 0.180054 0.847991 0.498490
vn 0.180054 0.847991 0.498490
vn 0.180054 0.847991 0.498490
vn -0.658723 -0.260788 0.705743
vn -0.658723 -0.260788 0.705743
vn -0.658723 -0.260788 0.705743
vn -0.658723 -0.260788 0.705743
vn -0.092157 -0.939870 0.328864
vn -0.092157 -0.939870 0.328864
vn -0.092157 -0.939870 0.328864
vn -0.092157 -0.939870 0.328864
vn -0.672617 -0.612802 0.414801
vn -0.672617 -0.612802 0.414801
vn -0.672617 -0.612802 0.414801
vn -0.672617 -0.612802 0.414801
vn 0.515847 -0.847175 0.127268
vn 0.515847 -0.847175 0.127268
vn 0.515847 -0.847175 0.127268
vn 0.515847 -0.847175 0.127268
vn -0.152714 0.514795 0.843602
vn -0.152714 0.514795 0.843602
vn -0.152714 0.514795 0.843602
vn -0.152714 0.514795 0.843602
vn -0.318268 -0.148845 0.936243
vn -0.318268 -0.148845 0.936243
vn -0.318268 -0.148845 0.936243
vn -0.318268 -0.148845 0.936243
vn 0.279708 0.947671 -0.153894
vn 0.279708 0.947671 -0.153894
vn 0.279708 0.947671 -0.153894
vn 0.279708 0.947671 -0.153894
vn -0.116138 0.987735 0.104361
vn -0.116138 0.987735 0.104361
vn -0.116138 0.987735 0.104361
vn -0.116138 0.987735 0.104361
vn 0.756962 -0.573263 -0.313653
vn 0.756962 -0.573263 -0.313653
vn 0.756962 -0.573263 -0.313653
vn 0.756962 -0.573263 -0.313653
vn 0.443449 0.891107 0.096344
vn 0.443449 0.891107 0.096344
vn 0.443449 0.891107 0.096344
vn 0.443449 0.891107 0.096344
vn -0.394018 -0.380350 -0.836710
vn -0.394018 -0.380350 -0.836710
vn -0.394018 -0.380350 -0.836710
vn -0.394018 -0.380350 -0.836710
vn 0.587792 0.028707 -0.808502
vn 0.587792 0.028707 -0.808502
vn 0.587792 0.028707 -0.808502
vn 0.587792 0.028707 -0.808502
vn 0.587792 0.028707 -0.808502
vn 0.587792 0.028707 -0.808502
vn 0.587792 0.028707 -0.808502
vn 0.587792 0.028707 -0.808502
vn -0.346042 -0.128310 -0.929404
vn -0.346042 -0.128310 -0.929404
vn -0.346042 -0.128310 -0.929404
vn -0.346042 -0.128310 -0.929404
vn 0.710810 -0.172214 -0.681976
vn 0.710810 -0.172214 -0.681976
vn 0.710810 -0.172214 -0.681976
vn 0.710810 -0.172214 -0.681976
vn 0.536379 0.330040 -0.776770
vn 0.536379 0.330040 -0.776770
vn 0.536379 0.330040 -0.776770
vn 0.536379 0.330040 -0.776770
vn 0.343621 0.874619 0.342003
vn 0.343621 0.874619 0.342003
vn 0.343621 0.874619 0.342003
vn 0.343621 0.874619 0.342003
vn -0.655034 -0.259203 0.709749
vn -0.655034 -0.259203 0.709749
vn -0.655034 -0.259203 0.709749
vn -0.655034 -0.259203 0.709749
vn -0.252264 -0.850139 0.462198
vn -0.252264 -0.850139 0.462198
vn -0.252264 -0.850139 0.462198
vn -0.252264 -0.850139 0.462198
vn -0.692810 -0.545542 0.471591
vn -0.692810 -0.545542 0.471591
vn -0.692810 -0.545542 0.471591
vn -0.692810 -0.545542 0.471591
vn 0.306378 -0.877973 0.367826
vn 0.306378 -0.877973 0.367826
vn 0.306378 -0.877973 0.367826
vn 0.306378 -0.877973 0.367826
vn -0.093411 0.558523 0.824213
vn -0.093411 0.558523 0.824213
vn -0.093411 0.558523 0.824213
vn -0.093411 0.558523 0.824213
vn -0.369927 -0.182329 0.910994
vn -0.369928 -0.182329 0.910994
vn -0.369927 -0.182329 0.910994
vn -0.369927 -0.182329 0.910994
vn 0.451652 0.833901 -0.317204
vn 0.451652 0.833902 -0.317204
vn 0.451652 0.833902 -0.317204
vn 0.451652 0.833902 -0.317204
vn 0.101031 0.987678 -0.119523
vn 0.101031 0.987678 -0.119523
vn 0.101031 0.987678 -0.119523
vn 0.101031 0.987678 -0.119523
vn 0.707721 -0.666628 -0.233961
vn 0.707721 -0.666628 -0.233961
vn 0.707721 -0.666628 -0.233961
vn 0.707721 -0.666628 -0.233961
vn 0.550803 0.829963 -0.088193
vn 0.550803 0.829963 -0.088193
vn 0.550803 0.829963 -0.088193
vn 0.550803 0.829963 -0.088193
vn -0.468976 -0.446294 -0.762157
vn -0.468976 -0.446294 -0.762157
vn -0.468976 -0.446294 -0.762157
vn -0.468976 -0.446294 -0.762157
vn 0.587680 0.068274 -0.806208
vn 0.587680 0.068274 -0.806208
vn 0.587680 0.068274 -0.806208
vn 0.587680 0.068274 -0.806208
vn 0.587680 0.068274 -0.806208
vn 0.587680 0.068274 -0.806208
vn 0.587680 0.068274 -0.806208
vn 0.587680 0.068274 -0.806208
vn -0.345791 -0.142697 -0.927398
vn -0.345791 -0.142697 -0.927398
vn -0.345791 -0.142697 -0.927398
vn -0.345791 -0.142697 -0.927398
vn 0.701080 -0.184416 -0.688823
vn 0.701080 -0.184416 -0.688823
vn 0.701080 -0.184416 -0.688823
vn 0.701080 -0.184416 -0.688823
vn 0.535311 0.299657 -0.789714
vn 0.535311 0.299657 -0.789714
vn 0.535312 0.299657 -0.789714
vn 0.535312 0.299657 -0.789714
vn 0.469431 0.852194 0.231083
vn 0.469431 0.852194 0.231083
vn 0.469431 0.852194 0.231083
vn 0.469431 0.852194 0.231083
vn 0.115877 -0.216755 0.969324
vn 0.115877 -0.216755 0.969324
vn 0.115877 -0.216755 0.969324
vn 0.115877 -0.216755 0.969324
vn 0.252237 -0.922848 0.291081
vn 0.252237 -0.922848 0.291081
vn 0.252237 -0.922848 0.291081
vn 0.252237 -0.922848 0.291081
vn -0.032274 -0.597374 0.801313
vn -0.032274 -0.597374 0.801313
vn -0.032274 -0.597374 0.801313
vn -0.032274 -0.597374 0.801313
vn 0.474373 -0.838930 -0.266771
vn 0.474373 -0.838930 -0.266771
vn 0.474373 -0.838930 -0.266771
vn 0.474373 -0.838930 -0.266771
vn 0.519428 0.550996 0.653144
vn 0.519428 0.550996 0.653144
vn 0.519428 0.550996 0.653144
vn 0.519428 0.550996 0.653144
vn 0.512876 -0.187120 0.837821
vn 0.512876 -0.187120 0.837821
vn 0.512876 -0.187120 0.837821
vn 0.512876 -0.187120 0.837821
vn 0.047267 0.949311 -0.310763
vn 0.047267 0.949312 -0.310763
vn 0.047267 0.949311 -0.310763
vn 0.047267 0.949312 -0.310763
vn -0.023834 0.987599 0.155180
vn -0.023834 0.987599 0.155180
vn -0.023834 0.987599 0.155180
vn -0.023834 0.987599 0.155180
vn 0.255405 -0.553184 -0.792941
vn 0.255405 -0.553184 -0.792941
vn 0.255405 -0.553184 -0.792941
vn 0.255405 -0.553184 -0.792941
vn 0.336952 0.903561 -0.264654
vn 0.336952 0.903561 -0.264654
vn 0.336952 0.903561 -0.264654
vn 0.336952 0.903561 -0.264654
vn -0.885857 -0.393486 -0.245818
vn -0.885857 -0.393486 -0.245818
vn -0.885857 -0.393486 -0.245818
vn -0.885857 -0.393486 -0.245818
vn -0.217964 0.015394 -0.975836
vn -0.217964 0.015394 -0.975835
vn -0.217964 0.015394 -0.975836
vn -0.217964 0.015394 -0.975836
vn -0.217964 0.015394 -0.975836
vn -0.217964 0.015394 -0.975835
vn -0.217964 0.015394 -0.975836
vn -0.217964 0.015394 -0.975836
vn -0.931522 -0.157536 -0.327795
vn -0.931522 -0.157536 -0.327795
vn -0.931522 -0.157536 -0.327795
vn -0.931522 -0.157536 -0.327795
vn -0.046829 -0.162504 -0.985596
vn -0.046829 -0.162504 -0.985596
vn -0.046829 -0.162504 -0.985596
vn -0.046829 -0.162504 -0.985596
vn -0.246916 0.314218 -0.916678
vn -0.246916 0.314218 -0.916678
vn -0.246916 0.314218 -0.916678
vn -0.246916 0.314218 -0.916678
s off
f 1/1/1 2/2/2 4/4/3 3/3/4
f 5/5/5 6/6/6 8/7/7 7/8/8
f 9/9/9 10/10/10 12/11/11 11/12/12
f 13/13/13 14/14/14 16/15/15 15/16/16
f 17/17/17 18/18/18 20/19/19 19/20/20
f 21/21/21 22/22/22 24/23/23 23/24/24
f 25/25/25 26/26/26 28/27/27 27/28/28
f 29/29/29 30/30/30 32/31/31 31/32/32
f 33/33/33 34/34/34 36/35/35 35/36/36
f 37/37/37 38/38/38 40/39/39 39/40/40
f 41/41/41 42/42/42 44/43/43 43/44/44
f 45/45/45 46/46/46 48/47/47 47/48/48
f 49/49/49 50/50/50 52/51/51 51/52/52
f 53/53/53 54/54/54 56/55/55 55/56/56
f 57/57/57 58/58/58 60/59/59 59/60/60
f 61/61/61 62/62/62 64/63/63 63/64/64
f 65/65/65 66/66/66 68/67/67 67/68/68
f 69/69/69 70/70/70 72/71/71 71/72/72
f 73/73/73 74/74/74 76/75/75 75/76/76
f 77/77/77 78/78/78 80/79/79 79/80/80
f 81/81/81 82/82/82 84/83/83 83/84/84
f 85/85/85 86/86/86 88/87/87 87/88/88
f 89/89/89 90/90/90 92/91/91 91/92/92
f 93/93/93 94/94/94 96/95/95 95/96/96
f 97/97/97 98/98/98 100/99/99 99/100/100
f 101/101/101 102/102/102 104/103/103 103/104/104
f 105/105/105 106/106/106 108/107/107 107/108/108
f 109/109/109 110/110/110 112/111/111 111/112/112
f 113/113/113 114/114/114 116/115/115 115/116/116
f 117/117/117 118/118/118 120/119/119 119/120/120
f 121/121/121 122/122/122 124/123/123 123/124/124
f 125/125/125 126/126/126 128/127/127 127/128/128
f 129/129/129 130/130/130 132/131/131 131/132/132
f 133/133/133 134/134/134 136/135/135 135/136/136
f 137/137/137 138/138/138 140/139/139 139/140/140
f 141/141/141 142/142/142 144/143/143 143/144/144
f 145/145/145 146/146/146 148/147/147 147/148/148
f 149/149/149 150/150/150 152/151/151 151/152/152
f 153/153/153 154/154/154 156/155/155 155/156/156
f 157/157/157 158/158/158 160/159/159 159/160/160
f 161/161/161 162/162/162 164/163/163 163/164/164
f 165/165/165 166/166/166 168/167/167 167/168/168
f 169/169/169 170/170/170 172/171/171 171/172/172
f 173/173/173 174/174/174 176/175/175 175/176/176
f 177/177/177 178/178/178 180/179/179 179/180/180
f 181/181/181 182/182/182 184/183/183 183/184/184
f 185/185/185 186/186/186 188/187/187 187/188/188
f 189/189/189 190/190/190 192/191/191 191/192/192
f 193/193/193 194/194/194 196/195/195 195/196/196
f 197/197/197 198/198/198 200/199/199 199/200/200
f 201/201/201 202/202/202 204/203/203 203/204/204
f 205/205/205 206/206/206 208/207/207 207/208/208
f 209/209/209 210/210/210 212/211/211 211/212/212
f 213/213/213 214/214/214 216/215/215 215/216/216
f 217/217/217 218/218/218 220/219/219 219/220/220
f 221/221/221 222/222/222 224/223/223 223/224/224
f 225/225/225 226/226/226 228/227/227 227/228/228
f 229/229/229 230/230/230 232/231/231 231/232/232
f 233/233/233 234/234/234 236/235/235 235/236/236
f 237/237/237 238/238/238 240/239/239 239/240/240
f 241/241/241 242/242/242 244/243/243 243/244/244
f 245/245/245 246/246/246 248/247/247 247/248/248
f 249/249/249 250/250/250 252/251/251 251/252/252
f 253/253/253 254/254/254 256/255/255 255/256/256
f 257/257/257 258/258/258 260/259/259 259/260/260
f 261/261/261 262/262/262 264/263/263 263/264/264
f 265/265/265 266/266/266 268/267/267 267/268/268
f 269/269/269 270/270/270 272/271/271 271/272/272
f 273/273/273 274/274/274 276/275/275 275/276/276
f 277/277/277 278/278/278 280/279/279 279/280/280
f 281/281/281 282/282/282 284/283/283 283/284/284
f 285/285/285 286/286/286 288/287/287 287/288/288
f 289/289/289 290/290/290 292/291/291 291/292/292
f 293/293/293 294/294/294 296/295/295 295/296/296
f 297/297/297 298/298/298 300/299/299 299/300/300
f 301/301/301 302/302/302 304/303/303 303/304/304
f 305/305/305 306/306/306 308/307/307 307/308/308
f 309/309/309 310/310/310 312/311/311 311/312/312
f 313/313/313 314/314/314 316/315/315 315/316/316
f 317/317/317 318/318/318 320/319/319 319/320/320
f 321/321/321 322/322/322 324/323/323 323/324/324
f 325/325/325 326/326/326 328/327/327 327/328/328
f 329/329/329 330/330/330 332/331/331 331/332/332
f 333/333/333 334/334/334 336/335/335 335/336/336
f 337/337/337 338/338/338 340/339/339 339/340/340
f 341/341/341 342/342/342 344/343/343 343/344/344
f 345/345/345 346/346/346 348/347/347 347/348/348
f 349/349/349 350/350/350 352/351/351 351/352/352
f 353/353/353 354/354/354 356/355/355 355/356/356
f 357/357/357 358/358/358 360/359/359 359/360/360
f 361/361/361 362/362/362 364/363/363 363/364/364
f 365/365/365 366/366/366 368/367/367 367/368/368
f 369/369/369 370/370/370 372/371/371 371/372/372
f 373/373/373 374/374/374 376/375/375 375/376/376
f 377/377/377 378/378/378 380/379/379 379/380/380
f 381/381/381 382/382/382 384/383/383 383/384/384
f 385/385/385 386/386/386 388/387/387 387/388/388
f 389/389/389 390/390/390 392/391/391 391/392/392
f 393/393/393 394/394/394 396/395/395 395/396/396
f 397/397/397 398/398/398 400/399/399 399/400/400
f 401/401/401 402/402/402 404/403/403 403/404/404
f 405/405/405 406/406/406 408/407/407 407/408/408
f 409/409/409 410/410/410 412/411/411 411/412/412
f 413/413/413 414/414/414 416/415/415 415/416/416
f 417/417/417 418/418/418 420/419/419 419/420/420
f 421/421/421 422/422/422 424/423/423 423/424/424
f 425/425/425 426/426/426 428/427/427 427/428/428
f 429/429/429 430/430/430 432/431/431 431/432/432
f 433/433/433 434/434/434 436/435/435 435/436/436
f 437/437/437 438/438/438 440/439/439 439/440/440
f 441/441/441 442/442/442 444/443/443 443/444/444
f 445/445/445 446/446/446 448/447/447 447/448/448
f 449/449/449 450/450/450 452/451/451 451/452/452
f 453/453/453 454/454/454 456/455/455 455/456/456
f 457/457/457 458/458/458 460/459/459 459/460/460
f 461/461/461 462/462/462 464/463/463 463/464/464
f 465/465/465 466/466/466 468/467/467 467/468/468
f 469/469/469 470/470/470 472/471/471 471/472/472
f 473/473/473 474/474/474 476/475/475 475/476/476
