# This file uses centimeters as units for non-parametric coordinates.

v -0.390096 0.860450 -2.198530
v -0.470863 0.517328 -1.408856
v 0.143943 0.380076 -1.381804
v 1.421884 -3.295714 -0.154280
v 1.313553 -3.372149 -0.785423
v 1.169058 -2.108559 -0.770096
v 1.333133 -5.827709 -0.239253
v 1.258118 -5.478457 -0.007121
v 1.333133 -1.901783 -0.107500
v 1.283391 -2.262897 0.221008
v 1.257808 -3.199241 0.128117
v 0.903400 -1.094966 1.520106
v 1.040359 -0.709388 0.611969
v 0.702348 -0.779537 1.202227
v 1.212560 -1.270465 0.781426
v 1.168114 -2.234162 0.699853
v 0.946218 -1.586480 0.889052
v 1.147266 -1.859882 1.122250
v 1.112816 -1.737517 0.541175
v 1.243288 -0.862182 -0.159624
v 1.468498 -1.444115 -1.058406
v 1.046846 -0.975582 -0.803264
v 1.617776 -1.717923 0.034060
v -0.741942 0.999560 2.075560
v 0.203216 0.481665 1.178539
v -0.677206 0.540273 1.563311
v 0.384480 0.773326 1.966971
v -1.112017 0.748029 1.244236
v -0.501189 0.372060 1.770608
v -0.469683 0.639273 1.326988
v -0.926088 0.625846 1.915708
v -0.933220 0.936566 0.932640
v -0.228508 0.369486 0.328653
v -0.740967 0.714723 0.185388
v -0.100489 0.725726 0.832896
v 1.020612 0.539731 1.464255
v -0.172605 0.579180 0.728818
v -0.118413 0.684243 1.580624
v 0.725209 0.275947 0.897960
v 0.502721 0.513922 -0.847935
v 0.409231 0.895973 -2.280765
v -0.044389 0.475699 -1.594960
v 1.653588 0.537280 -1.442220
v 1.506294 -1.012617 -0.427983
v 1.132499 -0.335800 -1.079324
v 1.205670 -0.615841 -0.448534
v 1.280438 -0.920408 -1.223454
v 1.770563 -0.564129 0.490515
v 1.009907 -0.097450 0.291037
v 1.219014 -0.273308 0.748994
v 1.488876 -0.041469 0.070902
v 0.414032 0.445640 -0.337858
v 0.295275 0.276851 0.565605
v 1.134826 0.274806 0.950156
v 1.598267 -0.059063 -0.483021
v 1.030604 0.720145 0.347174
v 0.091859 0.282401 -0.597984
v 0.480275 0.307251 0.282438
v 0.902711 0.504236 -0.779248
v -1.202312 0.805459 -1.080364
v -0.274814 0.341578 -0.000509
v -0.607158 0.382963 -0.972221
v -1.162199 0.542703 0.122819
v 0.334539 0.270527 -1.577374
v 0.445479 0.049231 -2.667768
v -0.204522 -0.007637 -2.667769
v -0.792319 0.084845 -1.419672
v 1.239269 -0.173800 -1.599445
v 1.134706 -0.403200 -2.667769
v -0.094349 0.002002 0.059521
v 0.428754 0.047767 -0.217993
v 1.128160 -0.389163 -0.655594
v 1.487875 -1.580927 -1.350550
v -0.337206 0.330436 0.655967
v -0.708749 0.145633 1.350115
v -0.680845 0.141405 1.363127
v -1.510249 0.189500 0.976370
v -1.128846 0.376714 0.268906
v -1.842012 -0.081927 -0.422905
v -1.518762 -0.083184 -1.134949
v 0.859629 -0.108866 -0.490451
v 0.682900 0.137722 -1.500592
v 0.142161 0.384286 -0.311261
v 0.576636 -0.022326 0.148365
v 0.140796 -0.108866 1.051092
v -0.114779 0.190900 -1.877589
v -0.674269 0.429616 -0.653191
v -0.267287 0.129945 0.603472
v 0.275481 0.052357 1.988842
v 0.765404 0.095220 1.728930
v 0.864861 0.303850 0.455774
v 1.058589 -0.540573 1.319086
v 1.162650 -0.338870 0.435102
v 1.159583 -1.656744 0.668211
v 0.172296 0.043330 -0.565459
v 0.781068 0.096590 -0.565458
v 1.064719 -0.553719 -0.565459
v 0.902014 -3.350020 0.583742
v 0.999074 -2.236253 1.191384
v 0.673169 -3.576731 1.575573
v 0.937032 -2.236254 0.167824
v 0.999074 -0.895775 1.191384
v 0.937032 -0.895776 0.167824
v 0.762878 0.184370 0.170194
v 0.598446 0.381187 1.047465
v 0.506858 0.124958 1.536104
v 0.570564 -0.895775 2.122995
v 0.858810 -2.236253 1.496327
v 0.506325 0.487922 1.530536
v 1.241653 0.129397 1.681734
v 1.246746 0.126775 1.650972
v 0.785581 -0.024999 0.914686
v -0.564488 0.530832 1.339107
v -0.207268 0.048825 0.751285
v -0.892045 -0.094556 0.643010
v -1.727021 -0.053131 1.104933
v -1.872418 -0.067360 1.977856
v 0.350108 0.464280 2.399601
v -0.083311 -0.239891 3.217796
v 1.101112 0.102942 2.556367
v -0.855696 -0.274272 3.100581
v -0.668641 0.504906 2.219671
v 0.716618 0.261625 -0.210472
v 0.551988 0.246237 0.679499
v 1.035331 -0.200789 0.870743
v -0.123673 0.220751 -0.050465
v 1.306609 -0.200789 -0.210472
v 1.387988 -1.657989 -0.210472
v 1.182499 -1.657989 0.608535
v 1.116710 -3.115189 0.265290
v 1.116710 -3.115189 -0.968479
v 1.116711 -1.657990 -1.291688
v 1.035331 -0.200790 -1.291688
v 0.557242 0.239331 -1.291688
v -0.123673 0.078256 -1.291688
v -0.631603 0.127908 -0.338687
v 0.402875 0.220104 0.106658
v -0.097422 0.541361 -1.101530
v -0.917679 0.243289 -0.976066
v -1.350436 0.127908 -1.880229
v 1.311684 0.132560 -0.312093
v 0.793986 0.448794 -1.555980
v -0.910112 0.217454 -2.780729
v -0.540515 0.464722 -2.085675
v 0.368702 0.377614 -2.491736
v 1.643956 -0.205644 -1.864362
v -0.877328 0.214289 -2.796017
v 0.027175 0.126975 -3.217794
v 1.306144 -0.204934 -2.569616
v 0.530727 0.420910 1.524209
v 0.823654 0.031771 2.255018
v 0.851557 0.027543 2.242006
v 0.022154 0.075638 2.628765
v -0.274635 0.470210 1.881845
v -1.263009 0.061922 1.983476
v -1.600686 0.101914 1.278159
v 0.421828 0.051839 -0.129523
v 0.097917 0.556384 0.535270
v 0.729288 0.161012 0.497885
v 1.140665 -0.049916 1.412019
v -0.465584 0.152101 -0.643445
v -1.267119 0.204129 -0.274715
v -0.688807 0.605518 0.940906
v 0.291596 0.855835 -1.774461
vt 0.057250 0.580762
vt -0.005550 0.640924
vt 0.055715 0.709746
vt 0.179241 0.050697
vt 0.188346 0.120739
vt 0.038408 0.124075
vt 0.479517 0.060215
vt 0.438098 0.032074
vt 0.013915 0.044589
vt 0.057275 0.008255
vt 0.167848 0.016671
vt 0.327502 0.089395
vt 0.215409 0.212237
vt 0.319824 0.169242
vt 0.186363 0.128458
vt 0.057250 0.580762
vt 0.055715 0.709746
vt -0.005550 0.640924
vt 0.108478 0.643533
vt 0.053893 0.259968
vt 0.183163 0.140196
vt 0.160280 0.244774
vt 0.003385 0.117034
vt 0.327502 0.089395
vt 0.215409 0.212237
vt 0.319824 0.169242
vt 0.186363 0.128458
vt 0.057250 0.580762
vt 0.055715 0.709746
vt 0.108478 0.643533
vt -0.005550 0.640924
vt 0.045677 0.580762
vt 0.047212 0.709746
vt -0.005550 0.643533
vt 0.108478 0.640924
vt 0.327502 0.089395
vt 0.215409 0.212237
vt 0.186363 0.128458
vt 0.319824 0.169242
vt 0.132655 0.259968
vt 0.003385 0.140196
vt 0.026268 0.244774
vt 0.183163 0.117034
vt 0.327502 0.089395
vt 0.215409 0.212237
vt 0.319824 0.169242
vt 0.186363 0.128458
vt 0.057250 0.580762
vt 0.055715 0.709746
vt 0.108478 0.643533
vt -0.005550 0.640924
vt 0.132655 0.259968
vt 0.026268 0.244774
vt 0.003385 0.140196
vt 0.183163 0.117034
vt 0.327502 0.089395
vt 0.215409 0.212237
vt 0.319824 0.169242
vt 0.186363 0.128458
vt 0.327502 0.089395
vt 0.215409 0.212237
vt 0.319824 0.169242
vt 0.186363 0.128458
vt 0.121115 0.479936
vt 0.000000 0.479106
vt 0.000000 0.551580
vt 0.138632 0.609930
vt 0.118663 0.388193
vt 0.000000 0.387280
vt 0.302932 0.539296
vt 0.272107 0.480971
vt 0.223501 0.389000
vt 0.146309 0.242941
vt 0.101464 0.886332
vt 0.000000 0.884341
vt 0.000000 0.888647
vt 0.000000 0.765528
vt 0.103372 0.768388
vt 0.142004 0.637406
vt 0.234740 0.636320
vt 0.284674 1.000000
vt 0.403106 0.892254
vt 0.229248 0.888841
vt 0.201826 1.000000
vt 0.082952 1.000000
vt 0.403676 0.773128
vt 0.225148 0.769767
vt 0.138632 0.609930
vt 0.302932 0.539296
vt 0.272107 0.480971
vt 0.121115 0.479936
vt 0.223501 0.389000
vt 0.118663 0.388193
vt 0.146309 0.242941
vt 0.000000 0.551580
vt 0.000000 0.479106
vt 0.000000 0.387280
vt 0.552652 0.029228
vt 0.627345 0.172819
vt 0.683769 -0.000709
vt 0.499116 0.172819
vt 0.627345 0.345639
vt 0.499117 0.345639
vt 0.512275 0.493259
vt 0.627346 0.518458
vt 0.692118 0.485317
vt 0.755574 0.345639
vt 0.669379 0.173080
vt 0.101464 0.886332
vt 0.000000 0.884341
vt 0.000000 0.888647
vt 0.082952 1.000000
vt 0.229248 0.888841
vt 0.201826 1.000000
vt 0.284674 1.000000
vt 0.403106 0.892254
vt 0.403676 0.773128
vt 0.103372 0.768388
vt 0.142004 0.637406
vt 0.000000 0.765528
vt 0.234740 0.636320
vt 0.225148 0.769767
vt 0.627346 0.432048
vt 0.725072 0.432048
vt 0.755574 0.345639
vt 0.645562 0.519343
vt 0.627345 0.345639
vt 0.627345 0.172819
vt 0.724477 0.172819
vt 0.683769 -0.000709
vt 0.537448 0.000000
vt 0.499116 0.172819
vt 0.499117 0.345639
vt 0.499117 0.432048
vt 0.499117 0.518458
vt 0.284674 1.000000
vt 0.403106 0.892254
vt 0.229248 0.888841
vt 0.201826 1.000000
vt 0.082952 1.000000
vt 0.403676 0.773128
vt 0.225148 0.769767
vt 0.000000 0.888647
vt 0.101464 0.886332
vt 0.103372 0.768388
vt 0.234740 0.636320
vt 0.000000 0.884341
vt 0.000000 0.765528
vt 0.142004 0.637406
vt 0.101464 0.886332
vt 0.000000 0.884341
vt 0.000000 0.888647
vt 0.000000 0.765528
vt 0.103372 0.768388
vt 0.142004 0.637406
vt 0.234740 0.636320
vt 0.284674 1.000000
vt 0.229248 0.888841
vt 0.201826 1.000000
vt 0.082952 1.000000
vt 0.403106 0.892254
vt 0.403676 0.773128
vt 0.225148 0.769767
vt 0.108478 0.643533
vn -0.113286 0.822269 0.557709
vn 0.181860 0.894933 0.407458
vn -0.096446 0.829101 0.550717
vn 0.986258 0.020770 0.163904
vn 0.983841 0.042261 -0.173987
vn 0.967424 0.081742 -0.239602
vn 0.986258 0.020770 0.163904
vn 0.976200 -0.041362 0.212893
vn 0.983841 0.042261 -0.173987
vn 0.925556 -0.044090 0.376034
vn 0.976200 -0.041362 0.212893
vn 0.986258 0.020770 0.163904
vn 0.996523 0.038534 -0.073875
vn 0.993349 -0.037927 0.108721
vn 0.883316 0.005470 0.468747
vn 0.967424 0.081742 -0.239602
vn 0.996523 0.038534 -0.073875
vn 0.986258 0.020770 0.163904
vn 0.883316 0.005470 0.468747
vn 0.986258 0.020770 0.163904
vn 0.996523 0.038534 -0.073875
vn 0.986258 0.020770 0.163904
vn 0.883316 0.005470 0.468747
vn 0.925556 -0.044090 0.376034
vn 0.738314 0.573552 0.354867
vn 0.799973 0.499374 0.332671
vn 0.538670 0.743227 0.396798
vn 0.738314 0.573552 0.354867
vn 0.888248 0.359125 0.286436
vn 0.799973 0.499374 0.332671
vn 0.947884 0.317701 0.024116
vn 0.946485 0.322704 0.005350
vn 0.872467 0.386326 -0.299257
vn 0.947884 0.317701 0.024116
vn 0.914068 0.212200 0.345616
vn 0.946485 0.322704 0.005350
vn 0.838277 0.528923 -0.132412
vn 0.819012 0.553042 -0.152855
vn 0.613848 0.723903 -0.314891
vn 0.917970 0.395782 -0.026238
vn 0.819012 0.553042 -0.152855
vn 0.838277 0.528923 -0.132412
vn -0.051315 0.840521 -0.539344
vn 0.021786 0.875588 -0.482566
vn -0.243309 0.706689 -0.664373
vn -0.051315 0.840521 -0.539344
vn 0.148025 0.915996 -0.372882
vn 0.021786 0.875588 -0.482566
vn 0.315175 0.906296 0.281590
vn 0.327873 0.906257 0.266828
vn 0.077394 0.851596 0.518453
vn 0.315175 0.906296 0.281590
vn 0.515999 0.856491 0.012971
vn 0.327873 0.906257 0.266828
vn 0.373228 0.852820 -0.365238
vn 0.360228 0.852086 -0.379717
vn 0.574158 0.813359 -0.093750
vn 0.373228 0.852820 -0.365238
vn 0.129890 0.793977 -0.593910
vn 0.360228 0.852086 -0.379717
vn 0.245296 0.904265 -0.349478
vn 0.198181 0.941953 -0.271013
vn 0.111872 0.985359 -0.128653
vn 0.245296 0.904265 -0.349478
vn 0.358806 0.760386 -0.541361
vn 0.198181 0.941953 -0.271013
vn -0.078348 0.961986 0.261617
vn -0.115125 0.957921 0.262933
vn -0.415328 0.871852 0.259571
vn 0.109273 0.962207 0.249434
vn -0.115125 0.957921 0.262933
vn -0.078348 0.961986 0.261617
vn 0.885437 0.464035 -0.025955
vn 0.908937 0.404417 -0.101390
vn 0.780210 0.600253 0.175979
vn 0.885437 0.464035 -0.025955
vn 0.928512 0.291628 -0.229824
vn 0.908937 0.404417 -0.101390
vn 0.391649 0.818240 0.420826
vn 0.383917 0.812932 0.437891
vn 0.500788 0.859607 0.101430
vn 0.391649 0.818240 0.420826
vn 0.237723 0.682779 0.690870
vn 0.383917 0.812932 0.437891
vn 0.226886 0.973919 0.002205
vn -0.076994 0.981853 0.173313
vn 0.195469 0.980492 0.020658
vn 0.380954 0.920090 -0.091154
vn 0.226886 0.973919 0.002205
vn 0.195469 0.980492 0.020658
vn -0.464035 0.884329 0.051315
vn -0.404418 0.914315 -0.021786
vn -0.600253 0.761904 0.243309
vn -0.464035 0.884329 0.051315
vn -0.291629 0.945009 -0.148025
vn -0.404418 0.914315 -0.021786
vn 0.434013 0.900795 0.014182
vn 0.367224 0.926460 0.082574
vn 0.590760 0.789068 -0.168445
vn 0.434013 0.900795 0.014182
vn 0.242865 0.949380 0.199232
vn 0.367224 0.926460 0.082574
vn 0.149839 0.988707 0.002762
vn 0.236791 0.949871 -0.204145
vn -0.128946 0.974281 -0.184796
vn -0.128946 0.974281 -0.184796
vn -0.144771 0.989403 0.011123
vn 0.149839 0.988707 0.002762
vn 0.789916 0.612928 0.018788
vn 0.763896 0.611549 -0.206084
vn 0.236791 0.949871 -0.204145
vn 0.236791 0.949871 -0.204145
vn 0.149839 0.988707 0.002762
vn 0.789916 0.612928 0.018788
vn -0.144771 0.989403 0.011123
vn -0.046021 0.995930 0.077493
vn 0.177293 0.977878 0.111007
vn 0.177293 0.977878 0.111007
vn 0.149839 0.988707 0.002762
vn -0.144771 0.989403 0.011123
vn 0.149839 0.988707 0.002762
vn 0.177293 0.977878 0.111007
vn 0.744707 0.645193 0.170699
vn 0.744707 0.645193 0.170699
vn 0.789916 0.612928 0.018788
vn 0.149839 0.988707 0.002762
vn 0.983962 0.177304 0.019567
vn 0.789916 0.612928 0.018788
vn 0.744707 0.645193 0.170699
vn 0.789916 0.612928 0.018788
vn 0.983962 0.177304 0.019567
vn 0.763896 0.611549 -0.206084
vn 0.229138 0.939392 0.255026
vn -0.017214 0.968449 0.248616
vn 0.166482 0.929417 0.329344
vn -0.222145 0.965443 0.136280
vn -0.017214 0.968449 0.248616
vn 0.229138 0.939392 0.255026
vn 0.229138 0.939392 0.255026
vn -0.248216 0.968305 0.027845
vn -0.222145 0.965443 0.136280
vn -0.248216 0.968305 0.027845
vn -0.427031 0.891564 -0.150857
vn -0.222145 0.965443 0.136280
vn -0.391800 0.888856 -0.237545
vn -0.427031 0.891564 -0.150857
vn -0.248216 0.968305 0.027845
vn 0.582298 0.804420 0.117634
vn 0.283482 0.956463 -0.069400
vn 0.318298 0.944608 0.080009
vn 0.582298 0.804420 0.117634
vn 0.318298 0.944608 0.080009
vn 0.513799 0.822966 0.242360
vn 0.453293 0.820301 0.348757
vn 0.513799 0.822966 0.242360
vn 0.318298 0.944608 0.080009
vn 0.318298 0.944608 0.080009
vn 0.283482 0.956463 -0.069400
vn -0.026066 0.977784 -0.207989
vn -0.026066 0.977784 -0.207989
vn -0.164972 0.976259 -0.140368
vn 0.318298 0.944608 0.080009
vn -0.391800 0.888856 -0.237545
vn -0.164972 0.976259 -0.140368
vn -0.026066 0.977784 -0.207989
vn -0.248216 0.968305 0.027845
vn -0.164972 0.976259 -0.140368
vn -0.391800 0.888856 -0.237545
vn 0.318298 0.944608 0.080009
vn -0.164972 0.976259 -0.140368
vn -0.248216 0.968305 0.027845
vn -0.248216 0.968305 0.027845
vn 0.229138 0.939392 0.255026
vn 0.318298 0.944608 0.080009
vn 0.318298 0.944608 0.080009
vn 0.229138 0.939392 0.255026
vn 0.453293 0.820301 0.348757
vn 0.166482 0.929417 0.329344
vn 0.453293 0.820301 0.348757
vn 0.229138 0.939392 0.255026
vn -0.136206 0.990629 0.010114
vn -0.047647 0.996086 0.074453
vn 0.335067 0.932104 0.137524
vn 0.335067 0.932104 0.137524
vn 0.479760 0.877395 -0.002854
vn -0.136206 0.990629 0.010114
vn 0.479760 0.877395 -0.002854
vn 0.335067 0.932104 0.137524
vn 0.962320 0.232255 0.141417
vn 0.962320 0.232255 0.141417
vn 0.971798 0.235680 0.008022
vn 0.479760 0.877395 -0.002854
vn 0.999855 0.000680 0.016998
vn 0.971798 0.235680 0.008022
vn 0.962320 0.232255 0.141417
vn -0.126433 0.978351 -0.163838
vn -0.136206 0.990629 0.010114
vn 0.479760 0.877395 -0.002854
vn 0.479760 0.877395 -0.002854
vn 0.504822 0.835186 -0.218218
vn -0.126433 0.978351 -0.163838
vn 0.504822 0.835186 -0.218218
vn 0.479760 0.877395 -0.002854
vn 0.971798 0.235680 0.008022
vn 0.971798 0.235680 0.008022
vn 0.961299 0.234594 -0.144462
vn 0.504822 0.835186 -0.218218
vn 0.971798 0.235680 0.008022
vn 0.999855 0.000680 0.016998
vn 0.961299 0.234594 -0.144462
vn 0.987241 -0.133437 0.086887
vn 0.980324 -0.053647 0.189966
vn 0.959516 -0.168626 0.225596
vn 0.997892 -0.023528 -0.060486
vn 0.980324 -0.053647 0.189966
vn 0.987241 -0.133437 0.086887
vn 0.971365 0.131794 0.197687
vn 0.980324 -0.053647 0.189966
vn 0.997892 -0.023528 -0.060486
vn 0.997892 -0.023528 -0.060486
vn 0.994973 0.079953 -0.060309
vn 0.971365 0.131794 0.197687
vn 0.971365 0.131794 0.197687
vn 0.994973 0.079953 -0.060309
vn 0.967686 0.249032 0.039588
vn 0.967686 0.249032 0.039588
vn 0.926820 0.313988 0.205955
vn 0.971365 0.131794 0.197687
vn 0.971365 0.131794 0.197687
vn 0.926820 0.313988 0.205955
vn 0.882923 0.305294 0.356709
vn 0.882923 0.305294 0.356709
vn 0.898786 0.145855 0.413412
vn 0.971365 0.131794 0.197687
vn 0.980324 -0.053647 0.189966
vn 0.971365 0.131794 0.197687
vn 0.898786 0.145855 0.413412
vn 0.898786 0.145855 0.413412
vn 0.907564 -0.045436 0.417449
vn 0.980324 -0.053647 0.189966
vn 0.980324 -0.053647 0.189966
vn 0.907564 -0.045436 0.417449
vn 0.959516 -0.168626 0.225596
vn 0.258800 0.935442 -0.240773
vn 0.430075 0.901605 0.046306
vn 0.454976 0.871044 -0.185147
vn 0.454976 0.871044 -0.185147
vn 0.280735 0.799742 -0.530661
vn 0.258800 0.935442 -0.240773
vn -0.132829 0.941970 -0.308299
vn 0.258800 0.935442 -0.240773
vn 0.280735 0.799742 -0.530661
vn 0.280735 0.799742 -0.530661
vn 0.066973 0.791108 -0.608000
vn -0.132829 0.941970 -0.308299
vn -0.189189 0.773040 -0.605489
vn -0.132829 0.941970 -0.308299
vn 0.066973 0.791108 -0.608000
vn -0.132829 0.941970 -0.308299
vn -0.394832 0.884986 -0.246796
vn -0.458409 0.873625 0.163221
vn -0.189189 0.773040 -0.605489
vn -0.394832 0.884986 -0.246796
vn -0.132829 0.941970 -0.308299
vn 0.155296 0.912326 0.378873
vn -0.046133 0.769091 0.637472
vn 0.346809 0.869483 0.351742
vn -0.248440 0.759899 0.600692
vn -0.046133 0.769091 0.637472
vn 0.155296 0.912326 0.378873
vn 0.155296 0.912326 0.378873
vn -0.233849 0.920736 0.312347
vn -0.248440 0.759899 0.600692
vn 0.346809 0.869483 0.351742
vn 0.430075 0.901605 0.046306
vn 0.258800 0.935442 -0.240773
vn 0.258800 0.935442 -0.240773
vn 0.155296 0.912326 0.378873
vn 0.346809 0.869483 0.351742
vn 0.155296 0.912326 0.378873
vn 0.258800 0.935442 -0.240773
vn -0.132829 0.941970 -0.308299
vn -0.132829 0.941970 -0.308299
vn -0.233849 0.920736 0.312347
vn 0.155296 0.912326 0.378873
vn -0.458409 0.873625 0.163221
vn -0.233849 0.920736 0.312347
vn -0.132829 0.941970 -0.308299
vn -0.248440 0.759899 0.600692
vn -0.233849 0.920736 0.312347
vn -0.458409 0.873625 0.163221
vn 0.344129 0.938922 0.000555
vn 0.430417 0.897602 0.095139
vn 0.863908 0.458932 0.207470
vn 0.430417 0.897602 0.095139
vn 0.344129 0.938922 0.000555
vn -0.087789 0.995823 -0.025080
vn 0.863908 0.458932 0.207470
vn 0.898883 0.438189 0.000000
vn 0.344129 0.938922 0.000555
vn 0.999645 -0.025933 0.006150
vn 0.898883 0.438189 0.000000
vn 0.863908 0.458932 0.207470
vn 0.863908 0.458932 0.207470
vn 0.969853 -0.013162 0.243337
vn 0.999645 -0.025933 0.006150
vn 0.999645 -0.025933 0.006150
vn 0.969853 -0.013162 0.243337
vn 0.984463 -0.158816 0.074904
vn 0.984463 -0.158816 0.074904
vn 0.986347 -0.133369 -0.096606
vn 0.999645 -0.025933 0.006150
vn 0.969928 0.004231 -0.243355
vn 0.999645 -0.025933 0.006150
vn 0.986347 -0.133369 -0.096606
vn 0.898883 0.438189 0.000000
vn 0.999645 -0.025933 0.006150
vn 0.969928 0.004231 -0.243355
vn 0.969928 0.004231 -0.243355
vn 0.867048 0.457280 -0.197797
vn 0.898883 0.438189 0.000000
vn 0.344129 0.938922 0.000555
vn 0.898883 0.438189 0.000000
vn 0.867048 0.457280 -0.197797
vn 0.867048 0.457280 -0.197797
vn 0.247940 0.963257 -0.103255
vn 0.344129 0.938922 0.000555
vn 0.344129 0.938922 0.000555
vn 0.247940 0.963257 -0.103255
vn -0.087789 0.995823 -0.025080
vn -0.087789 0.995823 -0.025080
vn 0.247940 0.963257 -0.103255
vn -0.228781 0.967126 -0.111028
vn -0.252356 0.913711 0.318511
vn 0.037696 0.969499 0.242180
vn -0.085716 0.988025 0.128294
vn -0.252356 0.913711 0.318511
vn -0.085716 0.988025 0.128294
vn -0.317585 0.936510 0.148621
vn -0.374140 0.927372 -0.001070
vn -0.317585 0.936510 0.148621
vn -0.085716 0.988025 0.128294
vn -0.085716 0.988025 0.128294
vn 0.037696 0.969499 0.242180
vn 0.323610 0.939880 0.109100
vn 0.323610 0.939880 0.109100
vn 0.345394 0.935455 -0.075010
vn -0.085716 0.988025 0.128294
vn -0.195867 0.952160 -0.234581
vn -0.374140 0.927372 -0.001070
vn -0.190383 0.976113 -0.104681
vn -0.085716 0.988025 0.128294
vn -0.190383 0.976113 -0.104681
vn -0.374140 0.927372 -0.001070
vn 0.240647 0.921530 -0.304749
vn -0.190383 0.976113 -0.104681
vn -0.085716 0.988025 0.128294
vn -0.085716 0.988025 0.128294
vn 0.345394 0.935455 -0.075010
vn 0.240647 0.921530 -0.304749
vn 0.240647 0.921530 -0.304749
vn 0.345394 0.935455 -0.075010
vn 0.547094 0.817701 -0.179037
vn 0.547094 0.817701 -0.179037
vn 0.345394 0.935455 -0.075010
vn 0.323610 0.939880 0.109100
vn -0.190383 0.976113 -0.104681
vn -0.052762 0.949374 -0.309686
vn -0.195867 0.952160 -0.234581
vn 0.126702 0.917028 -0.378161
vn -0.052762 0.949374 -0.309686
vn -0.190383 0.976113 -0.104681
vn -0.190383 0.976113 -0.104681
vn 0.240647 0.921530 -0.304749
vn 0.126702 0.917028 -0.378161
vn 0.240647 0.921530 -0.304749
vn 0.486301 0.822131 -0.295993
vn 0.126702 0.917028 -0.378161
vn 0.547094 0.817701 -0.179037
vn 0.486301 0.822131 -0.295993
vn 0.240647 0.921530 -0.304749
vn 0.394355 0.912190 0.111324
vn 0.263567 0.891296 0.368950
vn 0.427903 0.859446 0.279736
vn 0.050874 0.890874 0.451393
vn 0.263567 0.891296 0.368950
vn 0.394355 0.912190 0.111324
vn 0.394355 0.912190 0.111324
vn -0.071971 0.938240 0.338417
vn 0.050874 0.890874 0.451393
vn -0.071971 0.938240 0.338417
vn -0.336353 0.890503 0.306385
vn 0.050874 0.890874 0.451393
vn -0.424826 0.895352 0.133673
vn -0.336353 0.890503 0.306385
vn -0.071971 0.938240 0.338417
vn 0.400535 0.813276 -0.422081
vn 0.247770 0.948487 -0.197440
vn 0.514846 0.838868 -0.176732
vn 0.597100 0.802099 0.010416
vn 0.514846 0.838868 -0.176732
vn 0.247770 0.948487 -0.197440
vn 0.400535 0.813276 -0.422081
vn 0.062183 0.934580 -0.350276
vn 0.247770 0.948487 -0.197440
vn 0.247770 0.948487 -0.197440
vn 0.062183 0.934580 -0.350276
vn -0.216265 0.951963 -0.216785
vn -0.216265 0.951963 -0.216785
vn -0.211041 0.977254 0.020899
vn 0.247770 0.948487 -0.197440
vn 0.427903 0.859446 0.279736
vn 0.597100 0.802099 0.010416
vn 0.394355 0.912190 0.111324
vn 0.247770 0.948487 -0.197440
vn 0.394355 0.912190 0.111324
vn 0.597100 0.802099 0.010416
vn -0.071971 0.938240 0.338417
vn 0.394355 0.912190 0.111324
vn 0.247770 0.948487 -0.197440
vn 0.247770 0.948487 -0.197440
vn -0.211041 0.977254 0.020899
vn -0.071971 0.938240 0.338417
vn -0.071971 0.938240 0.338417
vn -0.211041 0.977254 0.020899
vn -0.424826 0.895352 0.133673
vn -0.424826 0.895352 0.133673
vn -0.211041 0.977254 0.020899
vn -0.216265 0.951963 -0.216785
vn -0.113286 0.822269 0.557709
vn -0.096446 0.829101 0.550717
vn -0.396185 0.654458 0.643990
s off
f 1/1/1 2/2/2 3/3/3
f 4/4/4 5/5/5 6/6/6
f 4/4/7 7/7/8 5/5/9
f 8/8/10 7/7/11 4/4/12
f 9/9/13 10/10/14 11/11/15
f 6/6/16 9/9/17 4/4/18
f 11/11/19 4/4/20 9/9/21
f 4/4/22 11/11/23 8/8/24
f 12/12/25 13/13/26 14/14/27
f 12/12/28 15/15/29 13/13/30
f 16/16/31 17/17/32 18/18/33
f 16/16/34 19/19/35 17/17/36
f 20/20/37 21/21/38 22/22/39
f 23/23/40 21/21/41 20/20/42
f 24/24/43 25/25/44 26/26/45
f 24/24/46 27/27/47 25/25/48
f 28/28/49 29/29/50 30/30/51
f 28/28/52 31/31/53 29/29/54
f 32/32/55 33/33/56 34/34/57
f 32/32/58 35/35/59 33/33/60
f 36/36/61 37/37/62 38/38/63
f 36/36/64 39/39/65 37/37/66
f 40/40/67 41/41/68 42/42/69
f 43/43/70 41/41/71 40/40/72
f 44/44/73 45/45/74 46/46/75
f 44/44/76 47/47/77 45/45/78
f 48/48/79 49/49/80 50/50/81
f 48/48/82 51/51/83 49/49/84
f 52/52/85 53/53/86 54/54/87
f 55/55/88 52/52/89 54/54/90
f 56/56/91 57/57/92 58/58/93
f 56/56/94 59/59/95 57/57/96
f 60/60/97 61/61/98 62/62/99
f 60/60/100 63/63/101 61/61/102
f 64/64/103 65/65/104 66/66/105
f 66/66/106 67/67/107 64/64/108
f 68/68/109 69/69/110 65/65/111
f 65/65/112 64/64/113 68/68/114
f 67/67/115 70/70/116 71/71/117
f 71/71/118 64/64/119 67/67/120
f 64/64/121 71/71/122 72/72/123
f 72/72/124 68/68/125 64/64/126
f 73/73/127 68/68/128 72/72/129
f 68/68/130 73/73/131 69/69/132
f 74/74/133 75/75/134 76/76/135
f 77/77/136 75/75/137 74/74/138
f 74/74/139 78/78/140 77/77/141
f 78/78/142 79/79/143 77/77/144
f 80/80/145 79/79/146 78/78/147
f 81/81/148 82/82/149 83/83/150
f 81/81/151 83/83/152 84/84/153
f 85/85/154 84/84/155 83/83/156
f 83/83/157 82/82/158 86/86/159
f 86/86/160 87/87/161 83/83/162
f 80/80/163 87/87/164 86/86/165
f 78/78/166 87/87/167 80/80/168
f 83/83/169 87/87/170 78/78/171
f 78/78/172 74/74/173 83/83/174
f 83/83/175 74/74/176 85/85/177
f 76/76/178 85/85/179 74/74/180
f 88/88/181 89/89/182 90/90/183
f 90/90/184 91/91/185 88/88/186
f 91/91/187 90/90/188 92/92/189
f 92/92/190 93/93/191 91/91/192
f 94/94/193 93/93/194 92/92/195
f 95/95/196 88/88/197 91/91/198
f 91/91/199 96/96/200 95/95/201
f 96/96/202 91/91/203 93/93/204
f 93/93/205 97/97/206 96/96/207
f 93/93/208 94/94/209 97/97/210
f 98/98/211 99/99/212 100/100/213
f 101/101/214 99/99/215 98/98/216
f 102/102/217 99/99/218 101/101/219
f 101/101/220 103/103/221 102/102/222
f 102/102/223 103/103/224 104/104/225
f 104/104/226 105/105/227 102/102/228
f 102/102/229 105/105/230 106/106/231
f 106/106/232 107/107/233 102/102/234
f 99/99/235 102/102/236 107/107/237
f 107/107/238 108/108/239 99/99/240
f 99/99/241 108/108/242 100/100/243
f 109/109/244 110/110/245 111/111/246
f 111/111/247 112/112/248 109/109/249
f 113/113/250 109/109/251 112/112/252
f 112/112/253 114/114/254 113/113/255
f 115/115/256 113/113/257 114/114/258
f 113/113/259 116/116/260 117/117/261
f 115/115/262 116/116/263 113/113/264
f 118/118/265 119/119/266 120/120/267
f 121/121/268 119/119/269 118/118/270
f 118/118/271 122/122/272 121/121/273
f 120/120/274 110/110/275 109/109/276
f 109/109/277 118/118/278 120/120/279
f 118/118/280 109/109/281 113/113/282
f 113/113/283 122/122/284 118/118/285
f 117/117/286 122/122/287 113/113/288
f 121/121/289 122/122/290 117/117/291
f 123/123/292 124/124/293 125/125/294
f 124/124/295 123/123/296 126/126/297
f 125/125/298 127/127/299 123/123/300
f 128/128/301 127/127/302 125/125/303
f 125/125/304 129/129/305 128/128/306
f 128/128/307 129/129/308 130/130/309
f 130/130/310 131/131/311 128/128/312
f 132/132/313 128/128/314 131/131/315
f 127/127/316 128/128/317 132/132/318
f 132/132/319 133/133/320 127/127/321
f 123/123/322 127/127/323 133/133/324
f 133/133/325 134/134/326 123/123/327
f 123/123/328 134/134/329 126/126/330
f 126/126/331 134/134/332 135/135/333
f 136/136/334 137/137/335 138/138/336
f 136/136/337 138/138/338 139/139/339
f 140/140/340 139/139/341 138/138/342
f 138/138/343 137/137/344 141/141/345
f 141/141/346 142/142/347 138/138/348
f 143/143/349 140/140/350 144/144/351
f 138/138/352 144/144/353 140/140/354
f 145/145/355 144/144/356 138/138/357
f 138/138/358 142/142/359 145/145/360
f 145/145/361 142/142/362 146/146/363
f 146/146/364 142/142/365 141/141/366
f 144/144/367 147/147/368 143/143/369
f 148/148/370 147/147/371 144/144/372
f 144/144/373 145/145/374 148/148/375
f 145/145/376 149/149/377 148/148/378
f 146/146/379 149/149/380 145/145/381
f 150/150/382 151/151/383 152/152/384
f 153/153/385 151/151/386 150/150/387
f 150/150/388 154/154/389 153/153/390
f 154/154/391 155/155/392 153/153/393
f 156/156/394 155/155/395 154/154/396
f 157/157/397 158/158/398 159/159/399
f 160/160/400 159/159/401 158/158/402
f 157/157/403 161/161/404 158/158/405
f 158/158/406 161/161/407 162/162/408
f 162/162/409 163/163/410 158/158/411
f 152/152/412 160/160/413 150/150/414
f 158/158/415 150/150/416 160/160/417
f 154/154/418 150/150/419 158/158/420
f 158/158/421 163/163/422 154/154/423
f 154/154/424 163/163/425 156/156/426
f 156/156/427 163/163/428 162/162/429
f 1/1/430 3/3/431 164/164/432
