# This file uses centimeters as units for non-parametric coordinates.

g default
v -0.328964 -0.899457 -1.654638
v -0.328964 -0.768159 -1.654638
v -0.309781 -0.899457 -1.556906
v -0.309781 -0.768159 -1.556906
v -0.776620 -0.768159 -1.386020
v -1.167803 -0.768159 -1.079237
v -1.445038 -0.768159 -0.666586
v -1.581189 -0.768159 -0.188460
v -1.562927 -0.768159 0.308336
v -1.392041 -0.768159 0.775175
v -1.085257 -0.768159 1.166358
v -0.672606 -0.768159 1.443593
v -0.194481 -0.768159 1.579744
v 0.302315 -0.768159 1.561482
v 0.769154 -0.768159 1.390596
v 1.160337 -0.768159 1.083812
v 1.437573 -0.768159 0.671161
v 1.573724 -0.768159 0.193036
v 1.555462 -0.768159 -0.303761
v 1.384575 -0.768160 -0.770599
v 1.077791 -0.899458 -1.161782
v 1.077791 -0.768160 -1.161782
v 1.141997 -0.609887 -1.253014
v 1.148663 -0.483231 -1.219054
v -0.005252 -0.768159 0.007621
v 1.309832 -1.619244 -1.231693
v 1.494343 -1.619244 -1.532754
v 1.576790 -1.619244 -1.876097
v 1.549104 -1.619244 -2.228114
v 1.413993 -1.619244 -2.554346
v 1.184685 -1.619244 -2.822859
v 0.883624 -1.619244 -3.007370
v 0.540281 -1.619244 -3.089818
v 0.188264 -1.619244 -3.062131
v -0.137968 -1.619244 -2.927021
v -0.406481 -1.619244 -2.697711
v -0.590992 -1.619244 -2.396651
v -0.673439 -1.619244 -2.053308
v -0.645753 -1.619244 -1.701291
v -0.510642 -1.619244 -1.375060
v -0.281334 -1.619244 -1.106546
v 0.019727 -1.619244 -0.922035
v 1.041318 -1.619244 -1.002385
v 1.184685 0.833148 -2.822859
v 0.883624 0.833148 -3.007370
v 0.540281 0.833148 -3.089818
v 0.188264 0.833148 -3.062131
v -0.137968 0.833148 -2.927021
v -0.406481 0.833148 -2.697711
v -0.590992 0.833148 -2.396651
v -0.673439 0.833148 -2.053308
v -0.645753 0.833148 -1.701291
v -0.510642 0.833148 -1.375060
v 1.259215 -1.619244 -1.274929
v 1.432843 -1.619244 -1.558232
v 1.510427 -1.619244 -1.881324
v 1.484374 -1.619244 -2.212577
v 1.357232 -1.619244 -2.519567
v 1.141449 -1.619244 -2.772242
v 0.858146 -1.619244 -2.945869
v 0.535054 -1.619244 -3.023454
v 0.203801 -1.619244 -2.997401
v -0.103188 -1.619244 -2.870259
v -0.355864 -1.619244 -2.654476
v -0.529492 -1.619244 -2.371173
v -0.607076 -1.619244 -2.048082
v -0.581022 -1.619244 -1.716828
v -0.453881 -1.619244 -1.409839
v -0.238098 -1.619244 -1.157163
v 0.045205 -1.619244 -0.983536
v 1.006539 -1.619244 -1.059146
v 1.141449 0.833148 -2.772242
v 0.858146 0.833148 -2.945869
v 0.535054 0.833148 -3.023454
v 0.203801 0.833148 -2.997401
v -0.103188 0.833148 -2.870259
v -0.355864 0.833148 -2.654476
v -0.529492 0.833148 -2.371173
v -0.607076 0.833148 -2.048082
v -0.581022 0.833148 -1.716828
v -0.453881 0.833148 -1.409839
v 1.141449 0.522779 -2.772242
v 0.858146 0.522779 -2.945869
v 0.535054 0.522779 -3.023454
v 0.203801 0.522779 -2.997401
v -0.103188 0.522779 -2.870259
v -0.355864 0.522779 -2.654476
v -0.529492 0.522779 -2.371173
v -0.607076 0.522779 -2.048082
v -0.581022 0.522779 -1.716828
v -0.453881 0.522779 -1.409839
v -0.510642 0.522779 -1.375060
v -0.645753 0.522779 -1.701291
v -0.673439 0.522779 -2.053308
v -0.590992 0.522779 -2.396651
v -0.406481 0.522779 -2.697712
v -0.137968 0.522779 -2.927021
v 0.188264 0.522779 -3.062131
v 0.540281 0.522779 -3.089818
v 0.883624 0.522779 -3.007370
v 1.184685 0.522779 -2.822859
v 1.041318 -0.186170 -1.002385
v 1.006539 -0.186170 -1.059146
v 1.259215 -0.186170 -1.274929
v 1.492451 -0.186170 -1.624501
v 1.510427 -0.186170 -1.881324
v 1.503930 -0.186170 -2.146203
v 1.357232 -0.186170 -2.519567
v 1.141449 -0.186170 -2.772242
v 0.858146 -0.186170 -2.945869
v 0.535054 -0.186170 -3.023454
v 0.203801 -0.186170 -2.997401
v -0.103188 -0.186170 -2.870259
v -0.355864 -0.186170 -2.654476
v -0.529492 -0.186170 -2.371173
v -0.607076 -0.186170 -2.048082
v -0.581022 -0.186170 -1.716828
v -0.453881 -0.186170 -1.409839
v -0.238098 -0.186170 -1.157163
v 0.045205 -0.186170 -0.983536
v 0.019727 -0.186170 -0.922035
v -0.281334 -0.186170 -1.106546
v -0.510642 -0.186170 -1.375060
v -0.645753 -0.186170 -1.701291
v -0.673439 -0.186170 -2.053308
v -0.590992 -0.186170 -2.396651
v -0.406481 -0.186170 -2.697712
v -0.137968 -0.186170 -2.927021
v 0.188264 -0.186170 -3.062131
v 0.540281 -0.186170 -3.089818
v 0.883624 -0.186170 -3.007370
v 1.184685 -0.186170 -2.822859
v 0.450773 -1.619244 -1.976179
v 0.450773 -0.186170 -1.976179
v 0.525903 -0.186170 -1.021344
v 0.502567 -1.619244 -1.019508
v 1.006539 -0.186170 -1.013121
v 1.553892 -0.794435 -0.005054
v 0.525903 -0.186170 -0.975319
v 1.049920 -0.794435 0.034584
v 0.915780 -0.446851 -0.539160
v 0.936122 -1.208731 -0.490990
v 1.410231 -1.259301 -0.595736
v 1.375242 -0.407919 -0.642772
vt 0.623366 0.444444
vt 0.624649 0.460031
vt 0.656250 0.347174
vt 0.656250 0.327005
vt 0.591841 0.390619
vt 0.591841 0.403374
vt 0.587164 0.395086
vt 0.587658 0.383209
vt 0.648603 0.325708
vt 0.626409 0.306343
vt 0.591842 0.290975
vt 0.548284 0.281107
vt 0.500000 0.277708
vt 0.451716 0.281108
vt 0.408159 0.290974
vt 0.373591 0.306342
vt 0.351397 0.325708
vt 0.343750 0.347175
vt 0.351397 0.368641
vt 0.373591 0.388005
vt 0.484722 0.343713
vt 0.408159 0.403373
vt 0.451716 0.413241
vt 0.500000 0.416641
vt 0.548284 0.413240
vt 0.437500 0.312500
vt 0.450000 0.312500
vt 0.450000 0.479717
vt 0.437500 0.479717
vt 0.462500 0.312500
vt 0.462500 0.479717
vt 0.475000 0.312500
vt 0.475000 0.479717
vt 0.487500 0.312500
vt 0.487500 0.479717
vt 0.500000 0.312500
vt 0.500000 0.479717
vt 0.512500 0.312500
vt 0.512500 0.479717
vt 0.525000 0.312500
vt 0.525000 0.479717
vt 0.537500 0.312500
vt 0.537500 0.479717
vt 0.550000 0.312500
vt 0.550000 0.479717
vt 0.562500 0.312500
vt 0.562500 0.479717
vt 0.575000 0.312500
vt 0.575000 0.479717
vt 0.626409 0.064408
vt 0.648603 0.107966
vt 0.648603 0.107966
vt 0.626409 0.064408
vt 0.591842 0.029841
vt 0.591842 0.029841
vt 0.548284 0.007647
vt 0.548284 0.007647
vt 0.500000 -0.000000
vt 0.500000 -0.000000
vt 0.451716 0.007647
vt 0.451716 0.007647
vt 0.408159 0.029841
vt 0.408159 0.029841
vt 0.373591 0.064409
vt 0.373591 0.064409
vt 0.351397 0.107966
vt 0.351397 0.107966
vt 0.343750 0.156250
vt 0.343750 0.156250
vt 0.351397 0.204534
vt 0.351397 0.204534
vt 0.373591 0.248091
vt 0.373591 0.248091
vt 0.408159 0.282659
vt 0.408159 0.282659
vt 0.451716 0.304853
vt 0.451716 0.304853
vt 0.500000 0.312500
vt 0.500000 0.312500
vt 0.548284 0.304853
vt 0.548284 0.304853
vt 0.591841 0.282659
vt 0.591841 0.282659
vt 0.656250 0.156250
vt 0.656250 0.156250
vt 0.451716 0.992353
vt 0.408159 0.970159
vt 0.408159 0.970159
vt 0.451716 0.992353
vt 0.373591 0.935591
vt 0.373591 0.935591
vt 0.351397 0.892034
vt 0.351397 0.892034
vt 0.343750 0.843750
vt 0.343750 0.843750
vt 0.351397 0.795466
vt 0.351397 0.795466
vt 0.373591 0.751909
vt 0.373591 0.751909
vt 0.408159 0.717341
vt 0.408159 0.717341
vt 0.451716 0.695147
vt 0.451716 0.695147
vt 0.500000 0.687500
vt 0.500000 0.687500
vt 0.591842 0.476488
vt 0.584332 0.463182
vt 0.632008 0.549390
vt 0.656250 0.462814
vt 0.612500 0.312500
vt 0.408159 0.744478
vt 0.451716 0.756018
vt 0.373591 0.726503
vt 0.351397 0.703854
vt 0.343750 0.678747
vt 0.351397 0.653639
vt 0.373591 0.630990
vt 0.408159 0.613015
vt 0.451716 0.601475
vt 0.500000 0.597498
vt 0.537500 0.597498
vt 0.550000 0.597498
vt 0.550000 0.687500
vt 0.537500 0.687500
vt 0.525000 0.597498
vt 0.525000 0.687500
vt 0.512500 0.597498
vt 0.512500 0.687500
vt 0.500000 0.597498
vt 0.500000 0.687500
vt 0.487500 0.597498
vt 0.487500 0.687500
vt 0.475000 0.597498
vt 0.475000 0.687500
vt 0.462500 0.597498
vt 0.462500 0.687500
vt 0.450000 0.597498
vt 0.450000 0.687500
vt 0.437500 0.597498
vt 0.437500 0.687500
vt 0.408159 0.449139
vt 0.451716 0.446738
vt 0.373591 0.452879
vt 0.351397 0.457591
vt 0.343750 0.462814
vt 0.351397 0.468037
vt 0.373591 0.472749
vt 0.408159 0.476489
vt 0.451716 0.478889
vt 0.500000 0.479717
vt 0.614277 0.073223
vt 0.648603 0.457591
vt 0.626409 0.452879
vt 0.614277 0.453832
vt 0.434892 0.177405
vt 0.548284 0.478889
vt 0.434892 0.465102
vt 0.500000 0.445911
vt 0.548284 0.446738
vt 0.591841 0.449139
vt 0.624048 0.469651
vt 0.622484 0.222519
vt 0.656250 0.156250
vt 0.656250 0.462814
vt 0.624048 0.469651
vt 0.622484 0.222519
vt 0.623378 0.363738
vt 0.622484 0.222519
vt 0.656250 0.156250
vt 0.656250 0.351053
vn 0.981275 0.000000 -0.192610
vn 0.981275 0.000000 -0.192610
vn 0.981275 0.000000 -0.192610
vn 0.981275 0.000000 -0.192610
vn -0.776700 -0.003820 -0.629859
vn -0.878055 0.084697 -0.471006
vn -0.878055 0.084697 -0.471006
vn -0.825438 0.035078 -0.563402
vn -0.000000 1.000000 0.000000
vn -0.000000 1.000000 0.000000
vn -0.000000 1.000000 0.000000
vn -0.000000 1.000000 0.000000
vn -0.000000 1.000000 0.000000
vn -0.000000 1.000000 0.000000
vn -0.000000 1.000000 0.000000
vn -0.000000 1.000000 0.000000
vn -0.000000 1.000000 0.000000
vn -0.000000 1.000000 0.000000
vn -0.000000 1.000000 0.000000
vn -0.000000 1.000000 0.000000
vn -0.000000 1.000000 0.000000
vn -0.000000 1.000000 0.000000
vn -0.000000 1.000000 0.000000
vn -0.000000 1.000000 0.000000
vn -0.000000 1.000000 0.000000
vn -0.000000 1.000000 0.000000
vn -0.000000 1.000000 0.000000
vn -0.000000 1.000000 0.000000
vn -0.000000 1.000000 0.000000
vn -0.000000 1.000000 0.000000
vn -0.000000 1.000000 0.000000
vn -0.000000 1.000000 0.000000
vn -0.000000 1.000000 0.000000
vn -0.000000 1.000000 0.000000
vn -0.000000 1.000000 0.000000
vn -0.000000 1.000000 0.000000
vn -0.000000 1.000000 0.000000
vn -0.000000 1.000000 0.000000
vn -0.000001 1.000000 0.000001
vn -0.000001 1.000000 0.000001
vn -0.000001 1.000000 0.000001
vn 0.000001 1.000000 -0.000001
vn 0.000001 1.000000 -0.000001
vn 0.000001 1.000000 -0.000001
vn -0.000000 1.000000 0.000000
vn -0.000000 1.000000 0.000000
vn -0.000000 1.000000 0.000000
vn -0.000000 1.000000 0.000000
vn -0.000000 1.000000 0.000000
vn -0.000000 1.000000 0.000000
vn -0.000000 1.000000 0.000000
vn -0.000000 1.000000 0.000000
vn -0.000000 1.000000 0.000000
vn -0.000000 1.000000 -0.000002
vn -0.000000 1.000000 -0.000002
vn -0.000000 1.000000 -0.000002
vn -0.000000 1.000000 0.000000
vn -0.000000 1.000000 0.000000
vn -0.000000 1.000000 0.000000
vn 0.273873 0.000000 -0.961766
vn 0.273873 0.000000 -0.961766
vn 0.273873 0.000000 -0.961766
vn 0.273873 0.000000 -0.961766
vn 0.000001 1.000000 -0.000001
vn 0.000001 1.000000 -0.000001
vn 0.000001 1.000000 -0.000001
vn 0.522541 0.000000 -0.852614
vn 0.382730 0.000000 -0.923860
vn 0.382730 0.000000 -0.923860
vn 0.522541 0.000000 -0.852614
vn 0.382730 0.000000 -0.923860
vn 0.078509 0.000000 -0.996913
vn 0.078509 0.000000 -0.996913
vn 0.382730 0.000000 -0.923860
vn 0.078509 0.000000 -0.996913
vn -0.233397 0.000000 -0.972382
vn -0.233397 0.000000 -0.972382
vn 0.078509 0.000000 -0.996913
vn -0.233397 0.000000 -0.972382
vn -0.522456 0.000000 -0.852666
vn -0.522456 0.000000 -0.852666
vn -0.233397 0.000000 -0.972382
vn -0.522456 0.000000 -0.852666
vn -0.760373 0.000000 -0.649486
vn -0.760373 0.000000 -0.649486
vn -0.522456 0.000000 -0.852666
vn -0.760373 0.000000 -0.649486
vn -0.923861 0.000000 -0.382729
vn -0.923861 0.000000 -0.382729
vn -0.760373 0.000000 -0.649486
vn -0.923861 0.000000 -0.382729
vn -0.996913 -0.000000 -0.078509
vn -0.996913 -0.000000 -0.078509
vn -0.923861 0.000000 -0.382729
vn -0.996913 -0.000000 -0.078509
vn -0.972382 -0.000000 0.233397
vn -0.972382 -0.000000 0.233397
vn -0.996913 -0.000000 -0.078509
vn -0.972382 -0.000000 0.233397
vn -0.852666 -0.000000 0.522456
vn -0.868647 -0.000000 0.495431
vn -0.972382 -0.000000 0.233397
vn -0.852666 -0.000000 0.522456
vn -0.649486 -0.000000 0.760374
vn -0.649486 -0.000000 0.760374
vn -0.868647 -0.000000 0.495431
vn -0.649486 -0.000000 0.760374
vn -0.522541 -0.000000 0.852614
vn -0.522541 -0.000000 0.852614
vn -0.649486 -0.000000 0.760374
vn 0.000000 -1.000000 0.000000
vn 0.000000 -1.000000 0.000000
vn 0.000000 -1.000000 0.000000
vn 0.000000 -1.000000 0.000000
vn 0.000001 -1.000000 -0.000001
vn 0.000001 -1.000000 -0.000001
vn 0.000001 -1.000000 -0.000001
vn 0.000001 -1.000000 -0.000001
vn 0.000001 -1.000000 -0.000001
vn 0.000001 -1.000000 -0.000001
vn 0.000001 -1.000000 -0.000001
vn 0.000001 -1.000000 -0.000001
vn 0.000000 -1.000000 0.000000
vn 0.000000 -1.000000 0.000000
vn 0.000000 -1.000000 0.000000
vn 0.000000 -1.000000 0.000000
vn 0.000000 -1.000000 0.000000
vn 0.000000 -1.000000 0.000000
vn 0.000000 -1.000000 0.000000
vn 0.000000 -1.000000 0.000000
vn 0.000000 -1.000000 0.000000
vn 0.000000 -1.000000 0.000000
vn 0.000000 -1.000000 0.000000
vn 0.000000 -1.000000 0.000000
vn -0.000001 -1.000000 0.000001
vn -0.000001 -1.000000 0.000001
vn -0.000001 -1.000000 0.000001
vn -0.000001 -1.000000 0.000001
vn 0.000001 -1.000000 -0.000001
vn 0.000001 -1.000000 -0.000001
vn 0.000001 -1.000000 -0.000001
vn 0.000001 -1.000000 -0.000001
vn 0.000000 -1.000000 0.000000
vn 0.000000 -1.000000 0.000000
vn 0.000000 -1.000000 0.000000
vn 0.000000 -1.000000 0.000000
vn 0.000000 -1.000000 0.000000
vn 0.000000 -1.000000 0.000000
vn 0.000000 -1.000000 0.000000
vn 0.000000 -1.000000 0.000000
vn 0.000000 -1.000000 0.000000
vn 0.000000 -1.000000 0.000000
vn 0.000000 -1.000000 0.000000
vn 0.000000 -1.000000 0.000000
vn 0.000000 -1.000000 0.000000
vn 0.000000 -1.000000 0.000000
vn 0.000000 -1.000000 0.000000
vn 0.000000 -1.000000 0.000000
vn 0.000000 -1.000000 0.000000
vn 0.000000 -1.000000 0.000000
vn 0.000000 -1.000000 0.000000
vn 0.000000 -1.000000 0.000000
vn 0.000000 -1.000000 0.000000
vn 0.000000 -1.000000 0.000000
vn 0.000000 -1.000000 0.000000
vn 0.000000 -1.000000 0.000000
vn 0.000001 -1.000000 -0.000001
vn 0.000001 -1.000000 -0.000001
vn 0.000001 -1.000000 -0.000001
vn 0.000001 -1.000000 -0.000001
vn 0.000003 -1.000000 -0.000002
vn 0.000003 -1.000000 -0.000002
vn 0.000003 -1.000000 -0.000002
vn 0.000003 -1.000000 -0.000002
vn 0.000000 -1.000000 0.000000
vn 0.000000 -1.000000 0.000000
vn 0.000000 -1.000000 0.000000
vn 0.000000 -1.000000 0.000000
vn -0.000000 1.000000 0.000000
vn -0.000000 1.000000 0.000000
vn -0.000000 1.000000 0.000000
vn -0.000000 1.000000 0.000000
vn -0.000000 1.000000 0.000000
vn -0.000000 1.000000 0.000000
vn -0.000000 1.000000 0.000000
vn -0.000000 1.000000 0.000000
vn -0.000001 1.000000 0.000001
vn -0.000001 1.000000 0.000001
vn -0.000001 1.000000 0.000001
vn -0.000001 1.000000 0.000001
vn -0.000000 1.000000 0.000000
vn -0.000000 1.000000 0.000000
vn -0.000000 1.000000 0.000000
vn -0.000000 1.000000 0.000000
vn -0.000000 1.000000 0.000000
vn -0.000000 1.000000 0.000000
vn -0.000000 1.000000 0.000000
vn -0.000000 1.000000 0.000000
vn -0.000000 1.000000 0.000000
vn -0.000000 1.000000 0.000000
vn -0.000000 1.000000 0.000000
vn -0.000000 1.000000 0.000000
vn -0.000000 1.000000 0.000000
vn -0.000000 1.000000 0.000000
vn -0.000000 1.000000 0.000000
vn -0.000000 1.000000 0.000000
vn -0.000001 1.000000 0.000001
vn -0.000001 1.000000 0.000001
vn -0.000001 1.000000 0.000001
vn -0.000001 1.000000 0.000001
vn 0.000001 1.000000 -0.000001
vn 0.000001 1.000000 -0.000001
vn 0.000001 1.000000 -0.000001
vn 0.000001 1.000000 -0.000001
vn 0.923861 -0.000000 0.382729
vn 0.923861 -0.000000 0.382729
vn 0.923861 -0.000000 0.382729
vn 0.923861 -0.000000 0.382729
vn -0.852666 -0.000000 0.522456
vn -0.852666 -0.000000 0.522456
vn -0.852666 -0.000000 0.522456
vn -0.852666 -0.000000 0.522456
vn -0.382730 -0.000000 0.923860
vn -0.522541 -0.000000 0.852614
vn -0.522541 -0.000000 0.852614
vn -0.382730 -0.000000 0.923860
vn -0.078509 -0.000000 0.996913
vn -0.382730 -0.000000 0.923860
vn -0.382730 -0.000000 0.923860
vn -0.078509 -0.000000 0.996913
vn 0.233397 -0.000000 0.972382
vn -0.078509 -0.000000 0.996913
vn -0.078509 -0.000000 0.996913
vn 0.233397 -0.000000 0.972382
vn 0.522456 -0.000000 0.852666
vn 0.233397 -0.000000 0.972382
vn 0.233397 -0.000000 0.972382
vn 0.522456 -0.000001 0.852666
vn 0.760373 -0.000000 0.649486
vn 0.522456 -0.000000 0.852666
vn 0.522456 -0.000001 0.852666
vn 0.760373 -0.000001 0.649486
vn 0.923860 -0.000000 0.382730
vn 0.760373 -0.000000 0.649486
vn 0.760373 -0.000001 0.649486
vn 0.923860 -0.000000 0.382730
vn 0.996913 0.000000 0.078509
vn 0.923860 -0.000000 0.382730
vn 0.923860 -0.000000 0.382730
vn 0.996913 0.000000 0.078509
vn 0.972382 0.000000 -0.233397
vn 0.996913 0.000000 0.078509
vn 0.996913 0.000000 0.078509
vn 0.972382 0.000000 -0.233397
vn 0.923899 0.000000 -0.382638
vn 0.972382 0.000000 -0.233397
vn 0.972382 0.000000 -0.233397
vn 0.923899 0.000000 -0.382638
vn -0.972382 -0.000000 0.233397
vn -0.923899 -0.000000 0.382638
vn -0.923899 -0.000000 0.382638
vn -0.972382 -0.000000 0.233397
vn -0.996913 -0.000000 -0.078509
vn -0.972382 -0.000000 0.233397
vn -0.972382 -0.000000 0.233397
vn -0.996913 -0.000000 -0.078509
vn -0.923861 0.000000 -0.382729
vn -0.996913 -0.000000 -0.078509
vn -0.996913 -0.000000 -0.078509
vn -0.923861 0.000000 -0.382729
vn -0.760373 0.000000 -0.649486
vn -0.923861 0.000000 -0.382729
vn -0.923861 0.000000 -0.382729
vn -0.760373 0.000000 -0.649486
vn -0.522456 0.000000 -0.852666
vn -0.760373 0.000000 -0.649486
vn -0.760373 0.000000 -0.649486
vn -0.522456 0.000000 -0.852666
vn -0.233397 0.000000 -0.972382
vn -0.522456 0.000000 -0.852666
vn -0.522456 0.000000 -0.852666
vn -0.233397 0.000000 -0.972382
vn 0.078509 0.000000 -0.996913
vn -0.233397 0.000000 -0.972382
vn -0.233397 0.000000 -0.972382
vn 0.078509 0.000000 -0.996913
vn 0.382730 0.000000 -0.923860
vn 0.078509 0.000000 -0.996913
vn 0.078509 0.000000 -0.996913
vn 0.382730 0.000000 -0.923860
vn 0.522542 0.000000 -0.852614
vn 0.382730 0.000000 -0.923860
vn 0.382730 0.000000 -0.923860
vn 0.522541 0.000000 -0.852614
vn -0.382730 -0.000000 0.923860
vn -0.522541 -0.000000 0.852614
vn -0.522541 -0.000000 0.852614
vn -0.382730 -0.000000 0.923860
vn -0.078509 -0.000000 0.996913
vn -0.382730 -0.000000 0.923860
vn -0.382730 -0.000000 0.923860
vn -0.078509 -0.000000 0.996913
vn 0.233397 -0.000000 0.972382
vn -0.078509 -0.000000 0.996913
vn -0.078509 -0.000000 0.996913
vn 0.233397 -0.000000 0.972382
vn 0.522456 -0.000000 0.852666
vn 0.233397 -0.000000 0.972382
vn 0.233397 -0.000000 0.972382
vn 0.522456 -0.000000 0.852666
vn 0.760374 -0.000000 0.649486
vn 0.522456 -0.000000 0.852666
vn 0.522456 -0.000000 0.852666
vn 0.760373 -0.000000 0.649486
vn 0.923861 -0.000000 0.382729
vn 0.760374 -0.000000 0.649486
vn 0.760373 -0.000000 0.649486
vn 0.923860 -0.000000 0.382730
vn 0.996913 0.000000 0.078509
vn 0.923861 -0.000000 0.382729
vn 0.923860 -0.000000 0.382730
vn 0.996913 0.000000 0.078509
vn 0.972382 0.000000 -0.233397
vn 0.996913 0.000000 0.078509
vn 0.996913 0.000000 0.078509
vn 0.972382 0.000000 -0.233397
vn 0.923899 0.000000 -0.382638
vn 0.972382 0.000000 -0.233397
vn 0.972382 0.000000 -0.233397
vn 0.923899 0.000000 -0.382638
vn -0.972382 -0.000000 0.233397
vn -0.868647 -0.000000 0.495431
vn -0.923899 -0.000000 0.382638
vn -0.972382 -0.000000 0.233397
vn -0.996913 -0.000000 -0.078509
vn -0.972382 -0.000000 0.233397
vn -0.972382 -0.000000 0.233397
vn -0.996913 -0.000000 -0.078509
vn -0.923861 0.000000 -0.382729
vn -0.996913 -0.000000 -0.078509
vn -0.996913 -0.000000 -0.078509
vn -0.923861 0.000000 -0.382729
vn -0.760373 0.000000 -0.649486
vn -0.923861 0.000000 -0.382729
vn -0.923861 0.000000 -0.382729
vn -0.760373 0.000000 -0.649486
vn -0.522456 0.000000 -0.852666
vn -0.760373 0.000000 -0.649486
vn -0.760373 0.000000 -0.649486
vn -0.522456 0.000000 -0.852666
vn -0.233397 0.000000 -0.972382
vn -0.522456 0.000000 -0.852666
vn -0.522456 0.000000 -0.852666
vn -0.233397 0.000000 -0.972382
vn 0.078509 0.000000 -0.996913
vn -0.233397 0.000000 -0.972382
vn -0.233397 0.000000 -0.972382
vn 0.078509 0.000000 -0.996913
vn 0.382730 0.000000 -0.923860
vn 0.078509 0.000000 -0.996913
vn 0.078509 0.000000 -0.996913
vn 0.382730 0.000000 -0.923860
vn 0.522541 0.000000 -0.852614
vn 0.382730 0.000000 -0.923860
vn 0.382730 0.000000 -0.923860
vn 0.522542 0.000000 -0.852614
vn 0.000000 -1.000000 0.000000
vn 0.000000 -1.000000 0.000000
vn 0.000000 -1.000000 0.000000
vn -0.000000 1.000000 0.000000
vn -0.000000 1.000000 0.000000
vn -0.000000 1.000000 0.000000
vn 0.000000 -1.000000 0.000000
vn 0.000000 -1.000000 0.000000
vn 0.000000 -1.000000 0.000000
vn -0.000000 1.000000 0.000000
vn -0.000000 1.000000 0.000000
vn -0.000000 1.000000 0.000000
vn 0.000000 -1.000000 0.000000
vn 0.000000 -1.000000 0.000000
vn 0.000000 -1.000000 0.000000
vn -0.000000 1.000000 0.000000
vn -0.000000 1.000000 0.000000
vn -0.000000 1.000000 0.000000
vn 0.000000 -1.000000 0.000000
vn 0.000000 -1.000000 0.000000
vn 0.000000 -1.000000 0.000000
vn -0.000000 1.000000 0.000000
vn -0.000000 1.000000 0.000000
vn -0.000000 1.000000 0.000000
vn 0.000000 -1.000000 0.000000
vn 0.000000 -1.000000 0.000000
vn 0.000000 -1.000000 0.000000
vn -0.000000 1.000000 0.000000
vn -0.000000 1.000000 0.000000
vn -0.000000 1.000000 0.000000
vn 0.000000 -1.000000 0.000000
vn 0.000000 -1.000000 0.000000
vn 0.000000 -1.000000 0.000000
vn -0.000000 1.000000 0.000000
vn -0.000000 1.000000 0.000000
vn -0.000000 1.000000 0.000000
vn 0.000000 -1.000000 0.000000
vn 0.000000 -1.000000 0.000000
vn 0.000000 -1.000000 0.000000
vn -0.000000 1.000000 0.000000
vn -0.000000 1.000000 0.000000
vn -0.000000 1.000000 0.000000
vn 0.000000 -1.000000 0.000000
vn 0.000000 -1.000000 0.000000
vn 0.000000 -1.000000 0.000000
vn -0.000000 1.000000 0.000000
vn -0.000000 1.000000 0.000000
vn -0.000000 1.000000 0.000000
vn 0.000000 -1.000000 0.000000
vn 0.000000 -1.000000 0.000000
vn 0.000000 -1.000000 0.000000
vn -0.000000 1.000000 0.000000
vn -0.000000 1.000000 0.000000
vn -0.000000 1.000000 0.000000
vn 0.000000 -1.000000 0.000000
vn 0.000000 -1.000000 0.000000
vn 0.000000 -1.000000 0.000000
vn -0.000000 1.000000 0.000000
vn -0.000000 1.000000 0.000000
vn -0.000000 1.000000 0.000000
vn 0.000001 -1.000000 -0.000001
vn 0.000001 -1.000000 -0.000001
vn 0.000001 -1.000000 -0.000001
vn -0.000000 1.000000 0.000000
vn -0.000000 1.000000 0.000000
vn -0.000000 1.000000 0.000000
vn -0.000001 -1.000000 0.000001
vn -0.000001 -1.000000 0.000001
vn -0.000001 -1.000000 0.000001
vn -0.000000 1.000000 0.000000
vn -0.000000 1.000000 0.000000
vn -0.000000 1.000000 0.000000
vn 0.000000 -1.000000 0.000000
vn 0.000000 -1.000000 0.000000
vn 0.000000 -1.000000 0.000000
vn -0.000000 1.000000 0.000000
vn -0.000000 1.000000 0.000000
vn -0.000000 1.000000 0.000000
vn 0.000000 -1.000000 0.000000
vn 0.000000 -1.000000 0.000000
vn 0.000000 -1.000000 0.000000
vn -0.000000 1.000000 0.000000
vn -0.000000 1.000000 0.000000
vn -0.000000 1.000000 0.000000
vn 0.000000 -1.000000 0.000000
vn 0.000000 -1.000000 0.000000
vn 0.000000 -1.000000 0.000000
vn -0.000000 1.000000 0.000000
vn -0.000000 1.000000 0.000000
vn -0.000000 1.000000 0.000000
vn 0.000000 -1.000000 0.000000
vn 0.000000 -1.000000 0.000000
vn 0.000000 -1.000000 0.000000
vn -0.000000 1.000000 0.000000
vn -0.000000 1.000000 0.000000
vn -0.000000 1.000000 0.000000
vn 0.000000 -1.000000 0.000000
vn 0.000000 -1.000000 0.000000
vn 0.000000 -1.000000 0.000000
vn -0.000000 1.000000 0.000000
vn -0.000000 1.000000 0.000000
vn -0.000000 1.000000 0.000000
vn 0.078409 -0.000000 0.996921
vn 0.039805 0.863662 0.502498
vn 0.039259 0.865507 0.499357
vn 0.041113 0.859182 0.510017
vn -0.000000 1.000000 0.000000
vn 0.000000 1.000000 0.000000
vn -0.000000 1.000000 0.000000
vn 0.000000 -1.000000 0.000000
vn 0.000000 -1.000000 0.000000
vn 0.000000 -1.000000 0.000000
vn 0.435222 0.553226 0.710298
vn 0.435222 0.553225 0.710298
vn -0.000000 1.000000 0.000000
vn -0.000000 1.000000 0.000000
vn 0.495835 0.315136 0.809220
vn 0.495835 0.315136 0.809220
vn 0.495835 0.315136 0.809220
vn 0.495835 0.315136 0.809220
vn 0.435222 0.553225 0.710298
vn 0.435222 0.553226 0.710298
vn 0.495835 0.315136 0.809220
vn 0.495835 0.315136 0.809220
vn -0.000000 1.000000 0.000000
vn 0.078409 0.000000 0.996921
vn 0.078409 0.000000 0.996921
vn 0.078409 -0.000000 0.996921
vn 0.078409 -0.000000 0.996921
vn 0.000000 -1.000000 0.000000
vn 0.800617 0.013165 -0.599031
vn 0.800359 0.013150 -0.599377
vn 0.078409 -0.000000 0.996921
vn 0.000000 1.000000 0.000000
vn 0.000000 1.000000 0.000000
vn 0.000000 1.000000 0.000000
vn 0.078409 -0.000000 0.996921
vn -0.812847 0.001043 0.582476
vn -0.813304 0.001016 0.581838
vn -0.975268 -0.012085 0.220693
vn 0.047159 -0.799099 0.599347
vn 0.047561 -0.797457 0.601498
vn 0.078409 -0.000000 0.996921
vn 0.049333 -0.790141 0.610936
vn -0.779681 0.002881 0.626171
vn -0.779681 0.002881 0.626171
vn -0.779681 0.002881 0.626171
vn 0.045180 -0.807065 0.588732
vn 0.045180 -0.807065 0.588732
vn 0.754884 0.010523 -0.655774
vn 0.754884 0.010523 -0.655774
vn 0.078409 -0.000000 0.996921
vn 0.078409 -0.000000 0.996921
vn 0.037126 0.872590 0.487040
s off
g polySurface40 placeholder
f 1/1/1 2/2/2 4/3/3 3/4/4
f 21/5/5 22/6/6 24/7/7 23/8/8
f 4/3/9 5/9/10 25/21/11
f 5/9/12 6/10/13 25/21/14
f 6/10/15 7/11/16 25/21/17
f 7/11/18 8/12/19 25/21/20
f 8/12/21 9/13/22 25/21/23
f 9/13/24 10/14/25 25/21/26
f 10/14/27 11/15/28 25/21/29
f 11/15/30 12/16/31 25/21/32
f 12/16/33 13/17/34 25/21/35
f 13/17/36 14/18/37 25/21/38
f 14/18/39 15/19/40 25/21/41
f 15/19/42 16/20/43 25/21/44
f 16/20/45 17/22/46 25/21/47
f 17/22/48 18/23/49 25/21/50
f 18/23/51 19/24/52 25/21/53
f 19/24/54 20/25/55 25/21/56
f 20/25/57 22/6/58 25/21/59
f 3/4/60 4/3/61 22/6/62 21/5/63
f 25/21/64 22/6/65 4/3/66
f 31/26/67 32/27/68 131/28/69 132/29/70
f 32/27/71 33/30/72 130/31/73 131/28/74
f 33/30/75 34/32/76 129/33/77 130/31/78
f 34/32/79 35/34/80 128/35/81 129/33/82
f 35/34/83 36/36/84 127/37/85 128/35/86
f 36/36/87 37/38/88 126/39/89 127/37/90
f 37/38/91 38/40/92 125/41/93 126/39/94
f 38/40/95 39/42/96 124/43/97 125/41/98
f 39/42/99 40/44/100 123/45/101 124/43/102
f 40/44/103 41/46/104 122/47/105 123/45/106
f 41/46/107 42/48/108 121/49/109 122/47/110
f 27/50/111 26/51/112 54/52/113 55/53/114
f 28/54/115 27/50/116 55/53/117 56/55/118
f 29/56/119 28/54/120 56/55/121 57/57/122
f 30/58/123 29/56/124 57/57/125 58/59/126
f 31/60/127 30/58/128 58/59/129 59/61/130
f 32/62/131 31/60/132 59/61/133 60/63/134
f 33/64/135 32/62/136 60/63/137 61/65/138
f 34/66/139 33/64/140 61/65/141 62/67/142
f 35/68/143 34/66/144 62/67/145 63/69/146
f 36/70/147 35/68/148 63/69/149 64/71/150
f 37/72/151 36/70/152 64/71/153 65/73/154
f 38/74/155 37/72/156 65/73/157 66/75/158
f 39/76/159 38/74/160 66/75/161 67/77/162
f 40/78/163 39/76/164 67/77/165 68/79/166
f 41/80/167 40/78/168 68/79/169 69/81/170
f 42/82/171 41/80/172 69/81/173 70/83/174
f 26/51/175 43/84/176 71/85/177 54/52/178
f 44/86/179 45/87/180 73/88/181 72/89/182
f 45/87/183 46/90/184 74/91/185 73/88/186
f 46/90/187 47/92/188 75/93/189 74/91/190
f 47/92/191 48/94/192 76/95/193 75/93/194
f 48/94/195 49/96/196 77/97/197 76/95/198
f 49/96/199 50/98/200 78/99/201 77/97/202
f 50/98/203 51/100/204 79/101/205 78/99/206
f 51/100/207 52/102/208 80/103/209 79/101/210
f 52/102/211 53/104/212 81/105/213 80/103/214
f 120/106/215 121/107/216 42/82/217 70/83/218
f 102/108/219 103/109/220 71/85/221 43/110/222
f 83/111/223 82/112/224 72/89/225 73/88/226
f 84/113/227 83/111/228 73/88/229 74/91/230
f 85/114/231 84/113/232 74/91/233 75/93/234
f 86/115/235 85/114/236 75/93/237 76/95/238
f 87/116/239 86/115/240 76/95/241 77/97/242
f 88/117/243 87/116/244 77/97/245 78/99/246
f 89/118/247 88/117/248 78/99/249 79/101/250
f 90/119/251 89/118/252 79/101/253 80/103/254
f 91/120/255 90/119/256 80/103/257 81/105/258
f 93/121/259 92/122/260 53/123/261 52/124/262
f 94/125/263 93/121/264 52/124/265 51/126/266
f 95/127/267 94/125/268 51/126/269 50/128/270
f 96/129/271 95/127/272 50/128/273 49/130/274
f 97/131/275 96/129/276 49/130/277 48/132/278
f 98/133/279 97/131/280 48/132/281 47/134/282
f 99/135/283 98/133/284 47/134/285 46/136/286
f 100/137/287 99/135/288 46/136/289 45/138/290
f 101/139/291 100/137/292 45/138/293 44/140/294
f 110/141/295 109/142/296 82/112/297 83/111/298
f 111/143/299 110/141/300 83/111/301 84/113/302
f 112/144/303 111/143/304 84/113/305 85/114/306
f 113/145/307 112/144/308 85/114/309 86/115/310
f 114/146/311 113/145/312 86/115/313 87/116/314
f 115/147/315 114/146/316 87/116/317 88/117/318
f 116/148/319 115/147/320 88/117/321 89/118/322
f 117/149/323 116/148/324 89/118/325 90/119/326
f 118/150/327 117/149/328 90/119/329 91/120/330
f 124/43/331 123/45/332 92/122/333 93/121/334
f 125/41/335 124/43/336 93/121/337 94/125/338
f 126/39/339 125/41/340 94/125/341 95/127/342
f 127/37/343 126/39/344 95/127/345 96/129/346
f 128/35/347 127/37/348 96/129/349 97/131/350
f 129/33/351 128/35/352 97/131/353 98/133/354
f 130/31/355 129/33/356 98/133/357 99/135/358
f 131/28/359 130/31/360 99/135/361 100/137/362
f 132/29/363 131/28/364 100/137/365 101/139/366
f 55/53/367 54/52/368 133/151/369
f 104/152/370 105/153/371 134/154/372
f 54/52/373 71/85/374 133/151/375
f 103/109/376 104/152/377 134/154/378
f 70/83/379 69/81/380 133/155/381
f 119/156/382 120/106/383 134/157/384
f 69/81/385 68/79/386 133/155/387
f 118/150/388 119/156/389 134/157/390
f 68/79/391 67/77/392 133/155/393
f 117/149/394 118/150/395 134/157/396
f 67/77/397 66/75/398 133/155/399
f 116/148/400 117/149/401 134/157/402
f 66/75/403 65/73/404 133/155/405
f 115/147/406 116/148/407 134/157/408
f 65/73/409 64/71/410 133/155/411
f 114/146/412 115/147/413 134/157/414
f 64/71/415 63/69/416 133/155/417
f 113/145/418 114/146/419 134/157/420
f 63/69/421 62/67/422 133/155/423
f 112/144/424 113/145/425 134/157/426
f 62/67/427 61/65/428 133/155/429
f 111/143/430 112/144/431 134/157/432
f 61/65/433 60/63/434 133/155/435
f 110/141/436 111/143/437 134/157/438
f 60/63/439 59/61/440 133/155/441
f 109/142/442 110/141/443 134/157/444
f 59/61/445 58/59/446 133/155/447
f 108/158/448 109/142/449 134/157/450
f 58/59/451 57/57/452 133/151/453
f 107/159/454 108/158/455 134/157/456
f 57/57/457 56/55/458 133/151/459
f 106/160/460 107/159/461 134/154/462
f 56/55/463 55/53/464 133/151/465
f 105/153/466 106/160/467 134/154/468
s 1
f 138/163/469 144/170/470 141/167/471 140/166/472
s 2
f 134/157/473 135/161/474 103/109/475
s 3
f 133/151/476 71/85/477 136/162/478
s off
f 119/156/479 122/47/480 121/107/481 120/106/482
f 81/105/483 53/123/484 92/122/485 123/45/486 122/47/487 119/156/488 118/150/489 91/120/490
s 2
f 134/157/473 120/106/491 135/161/474
s off
f 136/162/492 135/161/493 120/106/494 70/83/495
s 3
f 133/151/476 136/162/478 70/83/496
s 4
f 143/169/497 144/170/498 138/163/499
s off
f 103/109/500 135/161/501 139/165/502 137/164/503
s 5
f 141/167/504 142/168/505 140/166/506
s 6
f 142/168/507 143/169/508 138/163/509 140/166/510
s 5
f 135/161/511 136/162/512 142/168/505 141/167/504 139/165/513
s 6
f 136/162/514 71/85/515 143/169/508 142/168/507
s 4
f 71/85/516 103/109/517 137/164/518 144/170/498 143/169/497
s 1
f 141/167/471 144/170/470 137/164/519 139/165/520
g default
v 1.309832 0.833148 -1.231694
v 1.494343 0.833148 -1.532754
v 1.576791 0.833148 -1.876097
v 1.549104 0.833148 -2.228114
v 1.413993 0.833148 -2.554346
v 1.259215 0.833148 -1.274930
v 1.432843 0.833148 -1.558232
v 1.510427 0.833148 -1.881324
v 1.484374 0.833148 -2.212577
v 1.357232 0.833148 -2.519567
v 1.309832 0.522779 -1.231694
v 1.259215 0.522779 -1.274930
v 1.492451 0.522779 -1.624502
v 1.510427 0.522779 -1.881324
v 1.503930 0.522779 -2.146204
v 1.357232 0.522779 -2.519567
v 1.413993 0.522779 -2.554346
v 1.552320 0.522779 -2.155916
v 1.576791 0.522779 -1.876097
v 1.540121 0.522779 -1.601513
v 1.309832 -0.186170 -1.231694
v 1.413993 -0.186170 -2.554346
v 1.552320 -0.186170 -2.155916
v 1.576791 -0.186170 -1.876097
v 1.540121 -0.186170 -1.601513
v 1.309832 -1.619244 -1.231694
v 1.494343 -1.619244 -1.532754
v 1.576791 -1.619244 -1.876097
v 1.549104 -1.619244 -2.228114
v 1.413993 -1.619244 -2.554346
v 1.184685 -1.619244 -2.822860
v 1.184685 -0.186170 -2.822860
v 1.041318 -1.619244 -1.002385
v 1.041318 -0.186170 -1.002385
v 1.184685 0.833148 -2.822860
v 1.141449 0.833148 -2.772242
v 1.006539 0.833148 -1.059146
v 1.041318 0.833148 -1.002385
v 1.041318 0.522779 -1.002385
v 1.006539 0.522779 -1.059146
v 1.141449 0.522779 -2.772242
v 1.184685 0.522779 -2.822860
v 1.259215 -0.186170 -1.274930
v 1.006539 -0.186170 -1.059146
v 1.492451 -0.186170 -1.624502
v 1.357232 -0.186170 -2.519567
v 1.503930 -0.186170 -2.146204
v 1.141449 -0.186170 -2.772242
v 1.510427 -0.186170 -1.881324
vt 0.375000 0.312500
vt 0.387500 0.312500
vt 0.387500 0.479717
vt 0.375000 0.479717
vt 0.400000 0.312500
vt 0.400000 0.479717
vt 0.412500 0.312500
vt 0.412500 0.479717
vt 0.425000 0.312500
vt 0.425000 0.479717
vt 0.437500 0.312500
vt 0.437500 0.479717
vt 0.612500 0.312500
vt 0.625000 0.312500
vt 0.625000 0.479717
vt 0.612500 0.479717
vt 0.648603 0.892034
vt 0.626409 0.935591
vt 0.626409 0.935591
vt 0.648603 0.892034
vt 0.591841 0.970159
vt 0.591841 0.970159
vt 0.548284 0.992353
vt 0.548284 0.992353
vt 0.500000 1.000000
vt 0.500000 1.000000
vt 0.451716 0.992353
vt 0.451716 0.992353
vt 0.656250 0.843750
vt 0.656250 0.843750
vt 0.612500 0.597498
vt 0.625000 0.597498
vt 0.625000 0.687500
vt 0.612500 0.687500
vt 0.648603 0.703854
vt 0.656250 0.678747
vt 0.626409 0.726503
vt 0.591841 0.744478
vt 0.548284 0.756018
vt 0.500000 0.759995
vt 0.451716 0.756018
vt 0.425000 0.597498
vt 0.437500 0.597498
vt 0.437500 0.687500
vt 0.425000 0.687500
vt 0.412500 0.597498
vt 0.412500 0.687500
vt 0.400000 0.597498
vt 0.400000 0.687500
vt 0.387500 0.597498
vt 0.387500 0.687500
vt 0.375000 0.597498
vt 0.375000 0.687500
vt 0.648603 0.457591
vt 0.656250 0.462814
vt 0.626409 0.452879
vt 0.500000 0.445911
vt 0.548284 0.446738
vt 0.451716 0.446738
vt 0.591841 0.449139
vn 0.764687 -0.000517 0.644402
vn 0.921377 -0.005393 0.388634
vn 0.910301 -0.004401 0.413925
vn 0.766004 -0.000340 0.642835
vn 0.921377 -0.005393 0.388634
vn 0.998555 -0.005119 0.053500
vn 0.998555 -0.005119 0.053500
vn 0.910301 -0.004401 0.413925
vn 0.998555 -0.005119 0.053500
vn 0.971356 0.004895 -0.237578
vn 0.967672 0.003604 -0.252185
vn 0.998555 -0.005119 0.053500
vn 0.971356 0.004895 -0.237578
vn 0.864942 0.004165 -0.501855
vn 0.868676 0.002746 -0.495372
vn 0.967672 0.003604 -0.252185
vn 0.864942 0.004165 -0.501855
vn 0.760439 0.000000 -0.649410
vn 0.760439 0.000000 -0.649410
vn 0.868676 0.002746 -0.495372
vn 0.649408 0.000000 0.760440
vn 0.764687 -0.000517 0.644402
vn 0.766004 -0.000340 0.642835
vn 0.649408 0.000000 0.760440
vn 0.000001 1.000000 -0.000001
vn 0.000001 1.000000 -0.000001
vn 0.000001 1.000000 -0.000001
vn 0.000001 1.000000 -0.000001
vn 0.000000 1.000000 0.000000
vn 0.000000 1.000000 0.000000
vn 0.000000 1.000000 0.000000
vn 0.000000 1.000000 0.000000
vn 0.000000 1.000000 0.000000
vn 0.000000 1.000000 0.000000
vn 0.000000 1.000000 0.000000
vn 0.000000 1.000000 0.000000
vn -0.000001 1.000000 0.000001
vn -0.000001 1.000000 0.000001
vn -0.000001 1.000000 0.000001
vn -0.000001 1.000000 0.000001
vn 0.000000 1.000000 0.000000
vn 0.000000 1.000000 0.000000
vn 0.000000 1.000000 0.000000
vn 0.000000 1.000000 0.000000
vn 0.000000 1.000000 0.000000
vn 0.000000 1.000000 0.000000
vn 0.000000 1.000000 0.000000
vn 0.000000 1.000000 0.000000
vn 0.649408 0.000000 0.760440
vn 0.767397 0.000700 0.641171
vn 0.764685 0.002389 0.644400
vn 0.649408 0.000000 0.760440
vn -0.758648 -0.003606 -0.651491
vn -0.649409 0.000000 -0.760440
vn -0.649409 0.000000 -0.760440
vn -0.759256 -0.012367 -0.650675
vn -0.878547 -0.020901 -0.477199
vn -0.758648 -0.003606 -0.651491
vn -0.759256 -0.012367 -0.650675
vn -0.910000 -0.043365 -0.412333
vn -0.997240 -0.051545 -0.053430
vn -0.878547 -0.020901 -0.477199
vn -0.910000 -0.043365 -0.412333
vn -0.997240 -0.051545 -0.053430
vn -0.953056 -0.003407 0.302775
vn -0.997240 -0.051545 -0.053430
vn -0.997240 -0.051545 -0.053430
vn -0.966956 -0.003206 0.254924
vn -0.863650 0.001675 0.504089
vn -0.953056 -0.003407 0.302775
vn -0.966956 -0.003206 0.254924
vn -0.859397 0.005687 0.511277
vn -0.760439 0.000000 0.649410
vn -0.863650 0.001675 0.504089
vn -0.859397 0.005687 0.511277
vn -0.760438 0.000000 0.649410
vn 0.872598 -0.005681 -0.488406
vn 0.760439 0.000000 -0.649410
vn 0.760439 0.000000 -0.649410
vn 0.864789 -0.019226 -0.501767
vn 0.959714 -0.008283 -0.280858
vn 0.872598 -0.005681 -0.488406
vn 0.864789 -0.019226 -0.501767
vn 0.967389 -0.024314 -0.252127
vn 0.998289 0.023630 0.053486
vn 0.959714 -0.008283 -0.280858
vn 0.967389 -0.024314 -0.252127
vn 0.998289 0.023630 0.053486
vn 0.887603 0.012037 0.460451
vn 0.998289 0.023630 0.053486
vn 0.998289 0.023630 0.053486
vn 0.912403 0.022016 0.408701
vn 0.767397 0.000700 0.641171
vn 0.887603 0.012037 0.460451
vn 0.912403 0.022016 0.408701
vn 0.764685 0.002389 0.644400
vn 0.649408 0.000000 0.760440
vn 0.766004 -0.000340 0.642835
vn 0.767397 0.000700 0.641171
vn 0.649408 0.000000 0.760440
vn -0.758380 0.000000 -0.651813
vn -0.649409 0.000000 -0.760440
vn -0.649409 0.000000 -0.760440
vn -0.758648 -0.003606 -0.651491
vn -0.831844 0.000000 -0.555010
vn -0.758380 0.000000 -0.651813
vn -0.758648 -0.003606 -0.651491
vn -0.878547 -0.020901 -0.477199
vn -0.865404 0.000000 0.501076
vn -0.930735 0.000000 0.365694
vn -0.953056 -0.003407 0.302775
vn -0.863650 0.001675 0.504089
vn -0.760439 0.000000 0.649410
vn -0.865404 0.000000 0.501076
vn -0.863650 0.001675 0.504089
vn -0.760439 0.000000 0.649410
vn 0.868676 0.002746 -0.495372
vn 0.760439 0.000000 -0.649410
vn 0.760439 0.000000 -0.649410
vn 0.872598 -0.005681 -0.488406
vn 0.967672 0.003604 -0.252185
vn 0.868676 0.002746 -0.495372
vn 0.872598 -0.005681 -0.488406
vn 0.959714 -0.008283 -0.280858
vn 0.766004 -0.000340 0.642835
vn 0.910301 -0.004401 0.413925
vn 0.887603 0.012037 0.460451
vn 0.767397 0.000700 0.641171
vn 0.000000 -1.000000 0.000000
vn 0.000000 -1.000000 0.000000
vn 0.000000 -1.000000 0.000000
vn 0.000000 -1.000000 0.000000
vn 0.196787 0.000000 0.980446
vn 0.196787 0.000000 0.980446
vn 0.196787 0.000000 0.980446
vn 0.196787 0.000000 0.980446
vn 0.000000 1.000000 0.000000
vn 0.000000 1.000000 0.000000
vn 0.000000 1.000000 0.000000
vn 0.000000 1.000000 0.000000
vn 0.000000 1.000000 0.000000
vn 0.000000 1.000000 0.000000
vn 0.000000 1.000000 0.000000
vn 0.000000 1.000000 0.000000
vn 0.434369 0.000000 -0.900735
vn 0.434369 0.000000 -0.900735
vn 0.434369 0.000000 -0.900735
vn 0.434369 0.000000 -0.900735
vn 0.000000 -1.000000 0.000000
vn 0.000000 -1.000000 0.000000
vn 0.000000 -1.000000 0.000000
vn 0.000000 -1.000000 0.000000
s off
g placeholder PlaceholderCylinders:polySurface8
f 170/171/521 171/172/522 169/173/523 165/174/524
f 171/172/525 172/175/526 168/176/527 169/173/528
f 172/175/529 173/177/530 167/178/531 168/176/532
f 173/177/533 174/179/534 166/180/535 167/178/536
f 174/179/537 175/181/538 176/182/539 166/180/540
f 177/183/541 170/184/542 165/185/543 178/186/544
f 145/187/545 146/188/546 151/189/547 150/190/548
f 146/188/549 147/191/550 152/192/551 151/189/552
f 147/191/553 148/193/554 153/194/555 152/192/556
f 148/193/557 149/195/558 154/196/559 153/194/560
f 149/195/561 179/197/562 180/198/563 154/196/564
f 182/199/565 145/187/566 150/190/567 181/200/568
f 183/201/569 155/202/570 145/203/571 182/204/572
f 156/205/573 184/206/574 181/200/575 150/190/576
f 157/207/577 156/205/578 150/190/579 151/189/580
f 158/208/581 157/207/582 151/189/583 152/192/584
f 159/209/585 158/208/586 152/192/587 153/194/588
f 160/210/589 159/209/590 153/194/591 154/196/592
f 185/211/593 160/210/594 154/196/595 180/198/596
f 161/212/597 186/213/598 179/214/599 149/215/600
f 162/216/601 161/212/602 149/215/603 148/217/604
f 163/218/605 162/216/606 148/217/607 147/219/608
f 164/220/609 163/218/610 147/219/611 146/221/612
f 155/222/613 164/220/614 146/221/615 145/223/616
f 178/186/617 165/185/618 155/202/619 183/201/620
f 187/224/621 188/225/622 184/206/623 156/205/624
f 189/226/625 187/224/626 156/205/627 157/207/628
f 190/227/629 191/228/630 159/209/631 160/210/632
f 192/229/633 190/227/634 160/210/635 185/211/636
f 166/180/637 176/182/638 186/213/639 161/212/640
f 167/178/641 166/180/642 161/212/643 162/216/644
f 165/174/645 169/173/646 164/220/647 155/222/648
f 158/208/649 159/209/650 162/216/651 163/218/652
f 159/209/653 191/228/654 167/178/655 162/216/656
f 191/228/657 193/230/658 168/176/659 167/178/660
f 193/230/661 189/226/662 169/173/663 168/176/664
f 189/226/665 157/207/666 164/220/667 169/173/668
f 157/207/669 158/208/670 163/218/671 164/220/672
