# This file uses centimeters as units for non-parametric coordinates.

g default
v 1.034511 2.355605 4.977146
v 1.487751 2.355605 5.866680
v 2.193691 2.355605 6.572619
v 3.083226 2.355605 7.025860
v 4.069283 2.355605 7.182035
v 1.213514 2.355605 4.918984
v 1.640020 2.355605 5.756051
v 2.304320 2.355605 6.420350
v 3.141387 2.355605 6.846857
v 4.069283 2.355605 6.993821
v 1.034511 1.478082 4.977146
v 1.213514 1.478082 4.918984
v 1.711730 1.478082 5.997644
v 2.304320 1.478082 6.420350
v 2.952487 1.478082 6.795959
v 4.069283 1.478082 6.993821
v 4.069283 1.478082 7.182035
v 2.904422 1.478082 6.926963
v 2.193691 1.478082 6.572619
v 1.585893 1.478082 6.078609
v 1.034511 -0.526367 4.977146
v 4.069283 -0.526367 7.182035
v 2.904422 -0.526367 6.926963
v 2.193691 -0.526367 6.572619
v 1.585893 -0.526367 6.078609
v 1.034511 -4.578174 4.977146
v 1.487751 -4.578174 5.866680
v 2.193691 -4.578174 6.572619
v 3.083226 -4.578174 7.025860
v 4.069283 -4.578174 7.182035
v 5.055340 -4.578174 7.025860
v 5.055340 -0.526367 7.025860
v 0.878337 -4.578174 3.991088
v 0.878337 -0.526367 3.991088
v 5.055340 2.355605 7.025860
v 4.997178 2.355605 6.846857
v 1.066551 2.355605 3.991089
v 0.878337 2.355605 3.991088
v 0.878337 1.478082 3.991088
v 1.066551 1.478082 3.991089
v 4.997178 1.478082 6.846857
v 5.055340 1.478082 7.025860
v 1.213514 -0.526367 4.918984
v 1.066551 -0.526367 3.991089
v 1.711730 -0.526367 5.997644
v 4.069283 -0.526367 6.993821
v 2.952487 -0.526367 6.795959
v 4.997178 -0.526367 6.846857
v 2.304320 -0.526367 6.420350
v -3.976088 6.070113 2.630132
v -2.964903 6.070113 3.729477
v -1.663494 6.070113 4.462543
v -0.199250 6.070113 4.757571
v 1.284497 6.070113 4.585685
v -3.741562 6.070113 2.474267
v -2.790022 6.070113 3.508768
v -1.565374 6.070113 4.198594
v -0.187498 6.070113 4.476221
v 1.208732 6.070113 4.314472
v -4.326853 6.070113 1.196356
v -4.598065 6.070113 1.272120
v -3.741562 -2.171856 2.474267
v -4.326853 -2.171856 1.196356
v -2.790022 -2.171856 3.508768
v -1.565374 -2.171856 4.198594
v -0.187498 -2.171859 4.476221
v 1.208732 -2.171859 4.314472
v 1.242115 -1.366266 4.569929
v -0.197519 -1.390258 4.758215
v -1.663494 -1.496449 4.462543
v -2.964903 -1.711703 3.729477
v -3.976088 -1.917398 2.630132
v -4.598065 -2.038420 1.272120
v -3.976088 -6.070113 2.630132
v -2.964903 -6.070113 3.729477
v -1.663494 -6.070113 4.462543
v -0.199250 -6.070113 4.757571
v -2.790022 -6.070113 3.508768
v -1.565374 -6.070113 4.198594
v -0.187498 -6.070113 4.476221
v -4.598065 -6.070113 1.272120
v -4.326853 -6.070113 1.196356
v -3.741562 -6.070113 2.474267
v 1.208732 -6.070113 4.314472
v 1.284497 -6.070113 4.585685
v -3.976088 -2.288625 2.630132
v -4.598065 -2.409647 1.272120
v -2.964903 -2.082929 3.729477
v -1.663494 -1.867676 4.462543
v -0.105803 -1.748358 4.792309
v 1.333831 -1.724366 4.604024
v -0.187498 -2.543086 4.476221
v 1.208732 -2.543086 4.314472
v -1.565374 -2.543083 4.198594
v -2.790022 -2.543083 3.508768
v -3.741562 -2.543083 2.474267
vt 0.375000 0.312500
vt 0.387500 0.312500
vt 0.387500 0.479717
vt 0.375000 0.479717
vt 0.400000 0.312500
vt 0.400000 0.479717
vt 0.412500 0.312500
vt 0.412500 0.479717
vt 0.425000 0.312500
vt 0.425000 0.479717
vt 0.437500 0.312500
vt 0.437500 0.479717
vt 0.612500 0.312500
vt 0.625000 0.312500
vt 0.625000 0.479717
vt 0.612500 0.479717
vt 0.648603 0.892034
vt 0.626409 0.935591
vt 0.626409 0.935591
vt 0.648603 0.892034
vt 0.591841 0.970159
vt 0.591841 0.970159
vt 0.548284 0.992353
vt 0.548284 0.992353
vt 0.500000 1.000000
vt 0.500000 1.000000
vt 0.451716 0.992353
vt 0.451716 0.992353
vt 0.656250 0.843750
vt 0.656250 0.843750
vt 0.612500 0.597498
vt 0.625000 0.597498
vt 0.625000 0.687500
vt 0.612500 0.687500
vt 0.648603 0.703854
vt 0.656250 0.678747
vt 0.626409 0.726503
vt 0.591841 0.744478
vt 0.548284 0.756018
vt 0.500000 0.759995
vt 0.451716 0.756018
vt 0.425000 0.597498
vt 0.437500 0.597498
vt 0.437500 0.687500
vt 0.425000 0.687500
vt 0.412500 0.597498
vt 0.412500 0.687500
vt 0.400000 0.597498
vt 0.400000 0.687500
vt 0.387500 0.597498
vt 0.387500 0.687500
vt 0.375000 0.597498
vt 0.375000 0.687500
vt 0.648603 0.457591
vt 0.656250 0.462814
vt 0.626409 0.452879
vt 0.500000 0.445911
vt 0.548284 0.446738
vt 0.451716 0.446738
vt 0.591841 0.449139
vt 0.373591 0.751909
vt 0.408159 0.717341
vt 0.408159 0.717341
vt 0.373591 0.751909
vt 0.451716 0.695147
vt 0.451716 0.695147
vt 0.500000 0.687500
vt 0.500000 0.687500
vt 0.548284 0.695147
vt 0.548284 0.695147
vt 0.591842 0.717341
vt 0.591842 0.717341
vt 0.408159 0.403373
vt 0.373591 0.388005
vt 0.451716 0.413241
vt 0.500000 0.416641
vt 0.548284 0.413240
vt 0.591841 0.403374
vt 0.575000 0.687500
vt 0.587164 0.395086
vt 0.562500 0.416640
vt 0.575000 0.416640
vt 0.562500 0.687500
vt 0.550000 0.416640
vt 0.550000 0.687500
vt 0.537500 0.416640
vt 0.537500 0.687500
vt 0.525000 0.416640
vt 0.525000 0.687500
vt 0.512500 0.416641
vt 0.512500 0.687500
vt 0.408159 0.282659
vt 0.373591 0.248091
vt 0.373591 0.248091
vt 0.408159 0.282659
vt 0.451716 0.304853
vt 0.451716 0.304853
vt 0.500000 0.312500
vt 0.500000 0.312500
vt 0.548284 0.304853
vt 0.548284 0.304853
vt 0.591841 0.282659
vt 0.591841 0.282659
vt 0.512500 0.312500
vt 0.525000 0.312500
vt 0.525000 0.405639
vt 0.512500 0.405639
vt 0.537500 0.312500
vt 0.537500 0.405639
vt 0.550000 0.312500
vt 0.550000 0.405639
vt 0.562500 0.312500
vt 0.562500 0.405639
vt 0.575000 0.312500
vt 0.575000 0.405639
vt 0.548284 0.401790
vt 0.591841 0.390619
vt 0.500000 0.405639
vt 0.451716 0.401790
vt 0.408159 0.390621
vn -0.948975 -0.000517 0.315351
vn -0.812754 -0.005393 0.582583
vn -0.828531 -0.004401 0.559925
vn -0.948328 -0.000340 0.317293
vn -0.567319 -0.005119 0.823483
vn -0.567319 -0.005119 0.823483
vn -0.304916 0.004895 0.952367
vn -0.290537 0.003604 0.956857
vn -0.023979 0.004165 0.999704
vn -0.031458 0.002746 0.999501
vn 0.156434 0.000000 0.987688
vn 0.156434 0.000000 0.987688
vn -0.987689 0.000000 0.156432
vn -0.987689 0.000000 0.156432
vn 0.000000 1.000000 0.000001
vn 0.000000 1.000000 0.000001
vn 0.000000 1.000000 0.000001
vn 0.000000 1.000000 0.000001
vn 0.000000 1.000000 -0.000000
vn 0.000000 1.000000 -0.000000
vn 0.000000 1.000000 -0.000000
vn 0.000000 1.000000 -0.000000
vn 0.000000 1.000000 0.000000
vn 0.000000 1.000000 0.000000
vn 0.000000 1.000000 0.000000
vn 0.000000 1.000000 0.000000
vn 0.000000 1.000000 -0.000001
vn 0.000000 1.000000 -0.000001
vn 0.000000 1.000000 -0.000001
vn 0.000000 1.000000 -0.000001
vn 0.000000 1.000000 0.000000
vn 0.000000 1.000000 0.000000
vn 0.000000 1.000000 0.000000
vn 0.000000 1.000000 0.000000
vn 0.000000 1.000000 0.000000
vn 0.000000 1.000000 0.000000
vn 0.000000 1.000000 0.000000
vn 0.000000 1.000000 0.000000
vn -0.987689 0.000000 0.156432
vn -0.947636 0.000700 0.319350
vn -0.948972 0.002389 0.315350
vn -0.987689 0.000000 0.156432
vn 0.951865 -0.003606 -0.306498
vn 0.987689 0.000000 -0.156433
vn 0.987689 0.000000 -0.156433
vn 0.951486 -0.012367 -0.307443
vn 0.865893 -0.020901 -0.499792
vn 0.827018 -0.043365 -0.560501
vn 0.566572 -0.051545 -0.822399
vn 0.566572 -0.051545 -0.822399
vn 0.239764 -0.003407 -0.970825
vn 0.287827 -0.003206 -0.957677
vn 0.021399 0.001675 -0.999770
vn 0.013048 0.005687 -0.999899
vn -0.156434 0.000000 -0.987688
vn -0.156435 0.000000 -0.987688
vn -0.039447 -0.005681 0.999206
vn 0.156434 0.000000 0.987688
vn 0.156434 0.000000 0.987688
vn -0.023975 -0.019226 0.999528
vn -0.261930 -0.008283 0.965051
vn -0.290438 -0.024314 0.956585
vn -0.567168 0.023630 0.823263
vn -0.567168 0.023630 0.823263
vn -0.856345 0.012037 0.516264
vn -0.825176 0.022016 0.564447
vn 0.951999 0.000000 -0.306101
vn 0.987689 0.000000 -0.156433
vn 0.907840 0.000000 -0.419317
vn 0.024885 0.000000 -0.999690
vn 0.174453 0.000000 -0.984666
vn -0.156434 0.000000 -0.987688
vn 0.000000 -1.000000 0.000000
vn 0.000000 -1.000000 0.000000
vn 0.000000 -1.000000 0.000000
vn 0.000000 -1.000000 0.000000
vn -0.938806 0.000000 -0.344446
vn -0.938806 0.000000 -0.344446
vn -0.938806 0.000000 -0.344446
vn -0.938806 0.000000 -0.344446
vn 0.000000 1.000000 0.000000
vn 0.000000 1.000000 0.000000
vn 0.000000 1.000000 0.000000
vn 0.000000 1.000000 0.000000
vn 0.000000 1.000000 0.000000
vn 0.000000 1.000000 0.000000
vn 0.000000 1.000000 0.000000
vn 0.000000 1.000000 0.000000
vn 0.541088 0.000000 0.840966
vn 0.541088 0.000000 0.840966
vn 0.541088 0.000000 0.840966
vn 0.541088 0.000000 0.840966
vn 0.000000 -1.000000 -0.000000
vn 0.000000 -1.000000 -0.000000
vn 0.000000 -1.000000 -0.000000
vn 0.000000 -1.000000 -0.000000
vn 0.000000 1.000000 -0.000001
vn 0.000000 1.000000 -0.000001
vn 0.000000 1.000000 -0.000001
vn 0.000000 1.000000 -0.000001
vn 0.000000 1.000000 0.000000
vn 0.000000 1.000000 0.000000
vn 0.000000 1.000000 0.000000
vn 0.000000 1.000000 0.000000
vn 0.000000 1.000000 0.000000
vn 0.000000 1.000000 0.000000
vn 0.000000 1.000000 0.000000
vn 0.000000 1.000000 0.000000
vn 0.000000 1.000000 -0.000001
vn 0.000000 1.000000 -0.000001
vn 0.000000 1.000000 -0.000001
vn 0.000000 1.000000 -0.000001
vn 0.000000 1.000000 0.000000
vn 0.000000 1.000000 0.000000
vn 0.000000 1.000000 0.000000
vn 0.000000 1.000000 0.000000
vn 0.832844 0.000000 -0.553509
vn 0.909177 0.000000 -0.416409
vn 0.909177 0.000000 -0.416409
vn 0.832844 0.000000 -0.553509
vn 0.621038 0.000000 -0.783781
vn 0.621038 0.000000 -0.783781
vn 0.348440 0.000000 -0.937331
vn 0.348440 0.000000 -0.937331
vn 0.041735 0.000000 -0.999129
vn 0.041735 0.000000 -0.999129
vn -0.115077 0.000000 -0.993357
vn -0.115077 0.000000 -0.993357
vn 0.979928 -0.002449 -0.199336
vn 0.979928 -0.002449 -0.199336
vn 0.979928 -0.002449 -0.199336
vn 0.979928 -0.002449 -0.199336
vn -0.044459 -0.000642 0.999011
vn 0.122290 -0.001341 0.992494
vn 0.122290 -0.001341 0.992494
vn -0.040078 -0.000661 0.999196
vn -0.359859 0.000009 0.933007
vn -0.350010 0.000010 0.936746
vn -0.633703 0.000000 0.773576
vn -0.622716 0.000000 0.782448
vn -0.839854 0.000000 0.542813
vn -0.833741 0.000000 0.552155
vn -0.909177 0.000000 0.416409
vn -0.909177 0.000000 0.416409
vn 0.000000 -1.000000 -0.000000
vn 0.000000 -1.000000 -0.000000
vn 0.000000 -1.000000 -0.000000
vn 0.000000 -1.000000 -0.000000
vn 0.000000 -1.000000 -0.000000
vn 0.000000 -1.000000 -0.000000
vn 0.000000 -1.000000 -0.000000
vn 0.000000 -1.000000 -0.000000
vn 0.000000 -1.000000 -0.000000
vn 0.000000 -1.000000 -0.000000
vn 0.000000 -1.000000 -0.000000
vn 0.000000 -1.000000 -0.000000
vn 0.000000 -1.000000 -0.000000
vn 0.000000 -1.000000 -0.000000
vn 0.000000 -1.000000 -0.000000
vn 0.000000 -1.000000 -0.000000
vn 0.000000 -1.000000 -0.000000
vn 0.000000 -1.000000 -0.000000
vn 0.000000 -1.000000 -0.000000
vn 0.000000 -1.000000 -0.000000
vn -0.909177 0.000000 0.416409
vn -0.830956 0.000000 0.556339
vn -0.824921 0.000000 0.565249
vn -0.909178 0.000000 0.416409
vn -0.617758 0.000000 0.786369
vn -0.606655 0.000000 0.794965
vn -0.345516 -0.000929 0.938412
vn -0.335167 -0.000992 0.942158
vn -0.045267 -0.004907 0.998963
vn -0.035812 -0.005091 0.999346
vn 0.122341 -0.008093 0.992455
vn 0.122341 -0.008093 0.992455
vn -0.115077 0.000000 -0.993357
vn 0.041735 0.000000 -0.999129
vn 0.041735 0.000000 -0.999129
vn -0.115077 0.000000 -0.993357
vn 0.348440 0.000000 -0.937331
vn 0.348440 0.000000 -0.937331
vn 0.621038 0.000000 -0.783781
vn 0.621038 0.000000 -0.783781
vn 0.736002 0.000000 -0.676979
vn 0.736002 0.000000 -0.676979
s 1
g polySurface8
f 26/1/1 27/2/2 25/3/3 21/4/4
f 27/2/2 28/5/5 24/6/6 25/3/3
f 28/5/5 29/7/7 23/8/8 24/6/6
f 29/7/7 30/9/9 22/10/10 23/8/8
f 30/9/9 31/11/11 32/12/12 22/10/10
f 33/13/13 26/14/1 21/15/4 34/16/14
s off
f 1/17/15 2/18/16 7/19/17 6/20/18
f 2/18/19 3/21/20 8/22/21 7/19/22
f 3/21/23 4/23/24 9/24/25 8/22/26
f 4/23/27 5/25/28 10/26/29 9/24/30
f 5/25/31 35/27/32 36/28/33 10/26/34
f 38/29/35 1/17/36 6/20/37 37/30/38
s 1
f 39/31/39 11/32/40 1/33/41 38/34/42
s 2
f 12/35/43 40/36/44 37/30/45 6/20/46
f 13/37/47 12/35/43 6/20/46 7/19/48
f 14/38/49 13/37/47 7/19/48 8/22/50
f 15/39/51 14/38/49 8/22/50 9/24/52
f 16/40/53 15/39/51 9/24/52 10/26/54
f 41/41/55 16/40/53 10/26/54 36/28/56
s 1
f 17/42/57 42/43/58 35/44/59 5/45/60
f 18/46/61 17/42/57 5/45/60 4/47/62
f 19/48/63 18/46/61 4/47/62 3/49/64
f 20/50/65 19/48/63 3/49/64 2/51/66
f 11/52/40 20/50/65 2/51/66 1/53/41
f 34/16/14 21/15/4 11/32/40 39/31/39
s 2
f 43/54/67 44/55/68 40/36/44 12/35/43
f 45/56/69 43/54/67 12/35/43 13/37/47
f 46/57/70 47/58/71 15/39/51 16/40/53
f 48/59/72 46/57/70 16/40/53 41/41/55
s 1
f 22/10/10 32/12/12 42/43/58 17/42/57
f 23/8/8 22/10/10 17/42/57 18/46/61
f 21/4/4 25/3/3 20/50/65 11/52/40
s off
f 14/38/73 15/39/74 18/46/75 19/48/76
f 15/39/77 47/58/78 23/8/79 18/46/80
f 47/58/81 49/60/82 24/6/83 23/8/84
f 49/60/85 45/56/86 25/3/87 24/6/88
f 45/56/89 13/37/90 20/50/91 25/3/92
f 13/37/93 14/38/94 19/48/95 20/50/96
f 61/61/97 50/62/98 55/63/99 60/64/100
f 50/62/101 51/65/102 56/66/103 55/63/104
f 51/65/105 52/67/106 57/68/107 56/66/108
f 52/67/109 53/69/110 58/70/111 57/68/112
f 53/69/113 54/71/114 59/72/115 58/70/116
s 3
f 62/73/117 63/74/118 60/64/119 55/63/120
f 64/75/121 62/73/117 55/63/120 56/66/122
f 65/76/123 64/75/121 56/66/122 57/68/124
f 66/77/125 65/76/123 57/68/124 58/70/126
f 67/78/127 66/77/125 58/70/126 59/72/128
s off
f 54/79/129 68/80/130 67/78/131 59/72/132
s 4
f 69/81/133 68/82/134 54/79/135 53/83/136
f 70/84/137 69/81/133 53/83/136 52/85/138
f 71/86/139 70/84/137 52/85/138 51/87/140
f 72/88/141 71/86/139 51/87/140 50/89/142
f 73/90/143 72/88/141 50/89/142 61/91/144
s off
f 74/92/145 81/93/146 82/94/147 83/95/148
f 75/96/149 74/92/150 83/95/151 78/97/152
f 76/98/153 75/96/154 78/97/155 79/99/156
f 77/100/157 76/98/158 79/99/159 80/101/160
f 85/102/161 77/100/162 80/101/163 84/103/164
s 5
f 81/104/165 74/105/166 86/106/167 87/107/168
f 74/105/166 75/108/169 88/109/170 86/106/167
f 75/108/169 76/110/171 89/111/172 88/109/170
f 76/110/171 77/112/173 90/113/174 89/111/172
f 77/112/173 85/114/175 91/115/176 90/113/174
s 6
f 84/103/177 80/101/178 92/116/179 93/117/180
f 80/101/178 79/99/181 94/118/182 92/116/179
f 79/99/181 78/97/183 95/119/184 94/118/182
f 78/97/183 83/95/185 96/120/186 95/119/184
g default
v 4.769951 -6.070113 0.186870
v 4.598064 -6.070113 -1.296878
v 3.976087 -6.070113 -2.654890
v 2.964901 -6.070113 -3.754235
v 1.663491 -6.070113 -4.487300
v 0.199247 -6.070113 -4.782330
v -1.284500 -6.070113 -4.610443
v -2.642513 -6.070113 -3.988465
v -3.741857 -6.070113 -2.977281
v -4.474923 -6.070113 -1.675871
v -4.769952 -6.070113 -0.211627
v -4.598065 -6.070113 1.272120
v 1.284497 -6.070113 4.585685
v 4.474919 -6.070113 1.651114
v 4.769951 6.070113 0.186870
v 4.598064 6.070113 -1.296878
v 3.976087 6.070113 -2.654890
v 2.964901 6.070113 -3.754235
v 1.663491 6.070113 -4.487300
v 0.199247 6.070113 -4.782330
v -1.284500 6.070113 -4.610443
v -2.642513 6.070113 -3.988465
v -3.741857 6.070113 -2.977281
v -4.474923 6.070113 -1.675871
v -4.769952 6.070113 -0.211627
v -4.598065 6.070113 1.272120
v 4.474919 6.070113 1.651114
v 4.488600 -6.070113 0.175118
v 4.326853 -6.070113 -1.221113
v 3.741561 -6.070113 -2.499024
v 2.790020 -6.070113 -3.533526
v 1.565372 -6.070113 -4.223352
v 0.187495 -6.070113 -4.500979
v -1.208735 -6.070113 -4.339231
v -2.486647 -6.070113 -3.753940
v -3.521149 -6.070113 -2.802399
v -4.210974 -6.070113 -1.577752
v -4.488603 -6.070113 -0.199875
v -4.326853 -6.070113 1.196356
v -3.741562 -6.070113 2.474267
v 1.208732 -6.070113 4.314472
v 4.210971 -6.070113 1.552994
v 4.488600 6.070113 0.175118
v 4.326853 6.070113 -1.221113
v 3.741561 6.070113 -2.499024
v 2.790020 6.070113 -3.533526
v 1.565372 6.070113 -4.223352
v 0.187495 6.070113 -4.500979
v -1.208735 6.070113 -4.339231
v -2.486647 6.070113 -3.753940
v -3.521149 6.070113 -2.802399
v -4.210974 6.070113 -1.577752
v -4.488603 6.070113 -0.199875
v -4.326853 6.070113 1.196356
v 4.210971 6.070113 1.552994
v 4.769951 -2.171856 0.186870
v 4.769951 -2.543083 0.186870
v 4.474919 -2.543083 1.651114
v 4.474919 -2.171856 1.651114
v 4.210971 -2.543083 1.552994
v 4.210971 -2.171856 1.552994
v 4.488600 -2.543083 0.175118
v 4.488600 -2.171856 0.175118
v 4.326853 -2.543083 -1.221113
v 4.326853 -2.171856 -1.221113
v 3.741561 -2.543083 -2.499024
v 3.741561 -2.171856 -2.499024
v 2.790020 -2.543083 -3.533526
v 2.790020 -2.171856 -3.533526
v 1.565372 -2.543083 -4.223352
v 1.565372 -2.171856 -4.223352
v 0.187495 -2.543083 -4.500979
v 0.187495 -2.171856 -4.500979
v -1.208735 -2.543083 -4.339231
v -1.208735 -2.171856 -4.339231
v -2.486647 -2.543083 -3.753940
v -2.486647 -2.171856 -3.753940
v -3.521149 -2.543083 -2.802399
v -3.521149 -2.171856 -2.802399
v -4.210974 -2.543083 -1.577752
v -4.210974 -2.171856 -1.577752
v -4.488603 -2.543083 -0.199875
v -4.488603 -2.171856 -0.199875
v -4.326853 -2.543083 1.196356
v -4.326853 -2.171856 1.196356
v -3.741562 -2.543083 2.474267
v -3.741562 -2.171856 2.474267
v -2.790022 -2.543083 3.508768
v -2.790022 -2.171856 3.508768
v -1.565374 -2.543083 4.198594
v -1.565374 -2.171856 4.198594
v -0.187498 -2.543086 4.476221
v -0.187498 -2.171859 4.476221
v 1.208732 -2.543086 4.314472
v 1.208732 -2.171859 4.314472
v 1.333831 -1.724366 4.604024
v 1.242115 -1.366266 4.569929
v -0.105803 -1.748358 4.792309
v -0.197519 -1.390258 4.758215
v -1.663494 -1.867676 4.462543
v -1.663494 -1.496449 4.462543
v -2.964903 -2.082929 3.729477
v -2.964903 -1.711703 3.729477
v -3.976088 -2.288625 2.630132
v -3.976088 -1.917398 2.630132
v -4.598065 -2.409647 1.272120
v -4.598065 -2.038420 1.272120
v -4.769952 -2.543083 -0.211627
v -4.769952 -2.171856 -0.211627
v -4.474923 -2.543083 -1.675871
v -4.474923 -2.171856 -1.675871
v -3.741857 -2.543083 -2.977281
v -3.741857 -2.171856 -2.977281
v -2.642513 -2.543083 -3.988466
v -2.642513 -2.171856 -3.988466
v -1.284500 -2.543083 -4.610443
v -1.284500 -2.171856 -4.610443
v 0.199247 -2.543083 -4.782330
v 0.199247 -2.171856 -4.782330
v 1.663491 -2.543083 -4.487300
v 1.663491 -2.171856 -4.487300
v 2.964901 -2.543083 -3.754235
v 2.964901 -2.171856 -3.754235
v 3.976087 -2.543083 -2.654890
v 3.976087 -2.171856 -2.654890
v 4.598064 -2.543083 -1.296878
v 4.598064 -2.171856 -1.296878
v 7.388638 -2.171856 0.296257
v 7.388638 -2.543083 0.296257
v 7.122386 -2.543083 -2.002064
v 7.122386 -2.171856 -2.002063
v 6.931634 -2.171856 2.564365
v 6.931633 -2.543083 2.564365
v 1.896236 -0.960203 7.075268
v 1.987952 -1.318303 7.109362
v -0.333752 -1.176778 7.366920
v -0.242036 -1.534878 7.401015
v -2.576745 -1.496449 6.919259
v -2.576745 -1.867676 6.919259
v -4.592624 -1.711703 5.783743
v -4.592623 -2.082929 5.783743
v -6.158944 -1.917398 4.080862
v -6.158944 -2.288625 4.080862
v -7.122386 -2.038420 1.977306
v -7.122386 -2.409647 1.977306
v -7.388638 -2.171856 -0.321014
v -7.388638 -2.543083 -0.321013
v -6.931638 -2.171856 -2.589122
v -6.931638 -2.543083 -2.589122
v -5.796123 -2.171856 -4.605000
v -5.796123 -2.543083 -4.605000
v -4.093242 -2.171856 -6.171322
v -4.093242 -2.543083 -6.171322
v -1.989685 -2.171856 -7.134764
v -1.989685 -2.543083 -7.134764
v 0.308634 -2.171856 -7.401015
v 0.308634 -2.543083 -7.401015
v 2.576743 -2.171856 -6.944016
v 2.576743 -2.543083 -6.944016
v 4.592622 -2.171856 -5.808499
v 4.592623 -2.543083 -5.808499
v 6.158945 -2.171856 -4.105619
v 6.158945 -2.543083 -4.105619
v -0.010615 -2.171857 -0.023919
v -0.010615 -2.543084 -0.023919
v 1.034511 -4.578174 4.977146
v 1.487751 -4.578174 5.866680
v 2.193691 -4.578174 6.572619
v 3.083226 -4.578174 7.025860
v 4.069283 -4.578174 7.182035
v 5.055340 -4.578174 7.025860
v 5.944874 -4.578174 6.572619
v 6.650813 -4.578174 5.866680
v 7.104053 -4.578174 4.977145
v 7.260229 -4.578174 3.991088
v 7.104053 -4.578174 3.005032
v 6.650813 -4.578174 2.115497
v 5.944874 -4.578174 1.409559
v 5.055339 -4.578174 0.956318
v 4.069283 -4.578174 0.800142
v 3.083226 -4.578174 0.956318
v 2.193692 -4.578174 1.409559
v 0.878337 -4.578174 3.991088
v 5.055340 2.355605 7.025860
v 5.944874 2.355605 6.572619
v 6.650813 2.355605 5.866680
v 7.104053 2.355605 4.977145
v 7.260229 2.355605 3.991088
v 7.104053 2.355605 3.005032
v 6.650813 2.355605 2.115497
v 5.944874 2.355605 1.409559
v 5.055339 2.355605 0.956318
v 4.069283 2.355605 0.800142
v 0.878337 2.355605 3.991088
v 1.213514 -4.578174 4.918984
v 1.640020 -4.578174 5.756051
v 2.304320 -4.578174 6.420350
v 3.141387 -4.578174 6.846857
v 4.069283 -4.578174 6.993821
v 4.997178 -4.578174 6.846857
v 5.834244 -4.578174 6.420350
v 6.498545 -4.578174 5.756050
v 6.925051 -4.578174 4.918983
v 7.072015 -4.578174 3.991089
v 6.925051 -4.578174 3.063193
v 6.498544 -4.578174 2.226127
v 5.834244 -4.578174 1.561828
v 4.997178 -4.578174 1.135321
v 4.069283 -4.578174 0.988357
v 3.141387 -4.578174 1.135321
v 2.304322 -4.578174 1.561828
v 1.066551 -4.578174 3.991089
v 4.997178 2.355605 6.846857
v 5.834244 2.355605 6.420350
v 6.498545 2.355605 5.756050
v 6.925051 2.355605 4.918983
v 7.072015 2.355605 3.991089
v 6.925051 2.355605 3.063193
v 6.498544 2.355605 2.226127
v 5.834244 2.355605 1.561828
v 4.997178 2.355605 1.135321
v 4.069283 2.355605 0.988357
v 1.066551 2.355605 3.991089
v 0.878337 1.478082 3.991088
v 1.066551 1.478082 3.991089
v 4.997178 1.478082 6.846857
v 5.834244 1.478082 6.420350
v 6.498545 1.478082 5.756050
v 6.925051 1.478082 4.918983
v 7.072015 1.478082 3.991089
v 6.925051 1.478082 3.063193
v 6.498544 1.478082 2.226127
v 5.834244 1.478082 1.561828
v 4.997178 1.478082 1.135321
v 4.069283 1.478082 0.988357
v 4.069283 1.478082 0.800142
v 5.055339 1.478082 0.956318
v 5.944874 1.478082 1.409559
v 6.650813 1.478082 2.115497
v 7.104054 1.478082 3.005032
v 7.260229 1.478082 3.991088
v 7.104054 1.478082 4.977145
v 6.650813 1.478082 5.866680
v 5.944874 1.478082 6.572619
v 5.055340 1.478082 7.025860
v 0.878337 -0.526367 3.991088
v 1.066551 -0.526367 3.991089
v 1.213514 -0.526367 4.918984
v 1.711730 -0.526367 5.997644
v 2.304320 -0.526367 6.420350
v 2.952487 -0.526367 6.795959
v 4.069283 -0.526367 6.993821
v 4.997178 -0.526367 6.846857
v 5.834244 -0.526367 6.420350
v 6.498545 -0.526367 5.756050
v 6.925051 -0.526367 4.918983
v 7.072015 -0.526367 3.991089
v 6.925051 -0.526367 3.063193
v 6.498544 -0.526367 2.226127
v 5.834244 -0.526367 1.561828
v 4.997178 -0.526367 1.135321
v 4.069283 -0.526367 0.988357
v 3.141387 -0.526367 1.135321
v 2.304322 -0.526367 1.561828
v 2.193692 -0.526367 1.409559
v 3.083226 -0.526367 0.956318
v 4.069283 -0.526367 0.800142
v 5.055339 -0.526367 0.956318
v 5.944874 -0.526367 1.409559
v 6.650813 -0.526367 2.115497
v 7.104054 -0.526367 3.005032
v 7.260229 -0.526367 3.991088
v 7.104054 -0.526367 4.977145
v 6.650813 -0.526367 5.866680
v 5.944874 -0.526367 6.572619
v 5.055340 -0.526367 7.025860
v 4.098284 -4.578174 4.005866
v 4.098284 -0.526367 4.005866
vt 0.626409 0.064408
vt 0.648603 0.107966
vt 0.648603 0.107966
vt 0.626409 0.064408
vt 0.591842 0.029841
vt 0.591842 0.029841
vt 0.548284 0.007647
vt 0.548284 0.007647
vt 0.500000 -0.000000
vt 0.500000 -0.000000
vt 0.451716 0.007647
vt 0.451716 0.007647
vt 0.408159 0.029841
vt 0.408159 0.029841
vt 0.373591 0.064409
vt 0.373591 0.064409
vt 0.351397 0.107966
vt 0.351397 0.107966
vt 0.343750 0.156250
vt 0.343750 0.156250
vt 0.351397 0.204534
vt 0.351397 0.204534
vt 0.373591 0.248091
vt 0.373591 0.248091
vt 0.408159 0.282659
vt 0.591841 0.282659
vt 0.591841 0.282659
vt 0.656250 0.156250
vt 0.656250 0.156250
vt 0.648603 0.892034
vt 0.626409 0.935591
vt 0.626409 0.935591
vt 0.648603 0.892034
vt 0.591841 0.970159
vt 0.591841 0.970159
vt 0.548284 0.992353
vt 0.548284 0.992353
vt 0.500000 1.000000
vt 0.500000 1.000000
vt 0.451716 0.992353
vt 0.451716 0.992353
vt 0.408159 0.970159
vt 0.408159 0.970159
vt 0.373591 0.935591
vt 0.373591 0.935591
vt 0.351397 0.892034
vt 0.351397 0.892034
vt 0.343750 0.843750
vt 0.343750 0.843750
vt 0.351397 0.795466
vt 0.351397 0.795466
vt 0.373591 0.751909
vt 0.373591 0.751909
vt 0.656250 0.843750
vt 0.656250 0.843750
vt 0.375000 0.416640
vt 0.375000 0.405639
vt 0.387500 0.405639
vt 0.387500 0.416640
vt 0.625000 0.405639
vt 0.625000 0.416640
vt 0.612500 0.416641
vt 0.612500 0.405639
vt 0.623366 0.444444
vt 0.624649 0.460031
vt 0.656250 0.347174
vt 0.656250 0.327005
vt 0.591841 0.390619
vt 0.591841 0.403374
vt 0.587164 0.395086
vt 0.587658 0.383209
vt 0.575000 0.405639
vt 0.575000 0.416640
vt 0.562500 0.416640
vt 0.562500 0.405639
vt 0.550000 0.416640
vt 0.550000 0.405639
vt 0.537500 0.416640
vt 0.537500 0.405639
vt 0.525000 0.416640
vt 0.525000 0.405639
vt 0.512500 0.416641
vt 0.512500 0.405639
vt 0.500000 0.416640
vt 0.500000 0.405639
vt 0.487500 0.416640
vt 0.487500 0.405639
vt 0.475000 0.416640
vt 0.475000 0.405639
vt 0.462500 0.416640
vt 0.462500 0.405639
vt 0.450000 0.416641
vt 0.450000 0.405639
vt 0.437500 0.416640
vt 0.437500 0.405639
vt 0.425000 0.416640
vt 0.425000 0.405639
vt 0.412500 0.416640
vt 0.412500 0.405639
vt 0.400000 0.416641
vt 0.400000 0.405639
vt 0.375000 0.312500
vt 0.387500 0.312500
vt 0.387500 0.405639
vt 0.375000 0.405639
vt 0.400000 0.312500
vt 0.400000 0.405639
vt 0.412500 0.312500
vt 0.412500 0.405639
vt 0.425000 0.312500
vt 0.425000 0.405639
vt 0.437500 0.312500
vt 0.437500 0.405639
vt 0.450000 0.312500
vt 0.450000 0.405639
vt 0.462500 0.312500
vt 0.462500 0.405639
vt 0.475000 0.312500
vt 0.475000 0.405639
vt 0.487500 0.312500
vt 0.487500 0.405639
vt 0.500000 0.312500
vt 0.500000 0.405639
vt 0.512500 0.312500
vt 0.512500 0.405639
vt 0.525000 0.405639
vt 0.537500 0.405639
vt 0.550000 0.405639
vt 0.562500 0.405639
vt 0.575000 0.405639
vt 0.612500 0.312500
vt 0.625000 0.312500
vt 0.625000 0.405639
vt 0.612500 0.405639
vt 0.648603 0.302705
vt 0.626409 0.280784
vt 0.548284 0.401790
vt 0.500000 0.405639
vt 0.451716 0.401790
vt 0.408159 0.390621
vt 0.373591 0.373225
vt 0.351397 0.351304
vt 0.343750 0.327005
vt 0.351397 0.302705
vt 0.373591 0.280784
vt 0.408159 0.263388
vt 0.451716 0.252219
vt 0.500000 0.248370
vt 0.548284 0.252219
vt 0.591842 0.263388
vt 0.612500 0.416641
vt 0.625000 0.416640
vt 0.625000 0.687500
vt 0.612500 0.687500
vt 0.648603 0.325708
vt 0.626409 0.306343
vt 0.591842 0.290975
vt 0.548284 0.281107
vt 0.500000 0.277708
vt 0.451716 0.281108
vt 0.408159 0.290974
vt 0.373591 0.306342
vt 0.351397 0.325708
vt 0.343750 0.347175
vt 0.351397 0.368641
vt 0.373591 0.388005
vt 0.408159 0.403373
vt 0.451716 0.413241
vt 0.500000 0.416641
vt 0.548284 0.413240
vt 0.562500 0.416640
vt 0.575000 0.416640
vt 0.550000 0.416640
vt 0.537500 0.416640
vt 0.525000 0.416640
vt 0.512500 0.416641
vt 0.512500 0.687500
vt 0.500000 0.416640
vt 0.500000 0.687500
vt 0.487500 0.416640
vt 0.487500 0.687500
vt 0.475000 0.416640
vt 0.475000 0.687500
vt 0.462500 0.416640
vt 0.462500 0.687500
vt 0.450000 0.416641
vt 0.450000 0.687500
vt 0.437500 0.416640
vt 0.437500 0.687500
vt 0.425000 0.416640
vt 0.425000 0.687500
vt 0.412500 0.416640
vt 0.412500 0.687500
vt 0.400000 0.416641
vt 0.400000 0.687500
vt 0.387500 0.416640
vt 0.387500 0.687500
vt 0.375000 0.416640
vt 0.375000 0.687500
vt 0.484722 0.343713
vt 0.484722 0.323087
vt 0.437500 0.312500
vt 0.437500 0.479717
vt 0.450000 0.312500
vt 0.450000 0.479717
vt 0.462500 0.312500
vt 0.462500 0.479717
vt 0.475000 0.312500
vt 0.475000 0.479717
vt 0.487500 0.312500
vt 0.487500 0.479717
vt 0.500000 0.312500
vt 0.500000 0.479717
vt 0.512500 0.312500
vt 0.512500 0.479717
vt 0.525000 0.312500
vt 0.525000 0.479717
vt 0.537500 0.312500
vt 0.537500 0.479717
vt 0.550000 0.312500
vt 0.550000 0.479717
vt 0.562500 0.312500
vt 0.562500 0.479717
vt 0.575000 0.312500
vt 0.575000 0.479717
vt 0.612500 0.312500
vt 0.626409 0.064408
vt 0.648603 0.107966
vt 0.648603 0.107966
vt 0.626409 0.064408
vt 0.591842 0.029841
vt 0.591842 0.029841
vt 0.548284 0.007647
vt 0.548284 0.007647
vt 0.500000 -0.000000
vt 0.500000 -0.000000
vt 0.451716 0.007647
vt 0.451716 0.007647
vt 0.408159 0.029841
vt 0.408159 0.029841
vt 0.373591 0.064409
vt 0.373591 0.064409
vt 0.351397 0.107966
vt 0.351397 0.107966
vt 0.343750 0.156250
vt 0.343750 0.156250
vt 0.351397 0.204534
vt 0.351397 0.204534
vt 0.373591 0.248091
vt 0.373591 0.248091
vt 0.408159 0.282659
vt 0.408159 0.282659
vt 0.451716 0.304853
vt 0.451716 0.304853
vt 0.500000 0.312500
vt 0.500000 0.312500
vt 0.548284 0.304853
vt 0.548284 0.304853
vt 0.591841 0.282659
vt 0.591841 0.282659
vt 0.656250 0.156250
vt 0.656250 0.156250
vt 0.451716 0.992353
vt 0.451716 0.992353
vt 0.408159 0.970159
vt 0.408159 0.970159
vt 0.373591 0.935591
vt 0.373591 0.935591
vt 0.351397 0.892034
vt 0.351397 0.892034
vt 0.343750 0.843750
vt 0.343750 0.843750
vt 0.351397 0.795466
vt 0.351397 0.795466
vt 0.373591 0.751909
vt 0.373591 0.751909
vt 0.408159 0.717341
vt 0.408159 0.717341
vt 0.451716 0.695147
vt 0.451716 0.695147
vt 0.500000 0.687500
vt 0.500000 0.687500
vt 0.656250 0.843750
vt 0.656250 0.843750
vt 0.591842 0.476488
vt 0.584332 0.463182
vt 0.632008 0.549390
vt 0.656250 0.462814
vt 0.656250 0.678747
vt 0.645750 0.716247
vt 0.451716 0.756018
vt 0.408159 0.744478
vt 0.373591 0.726503
vt 0.351397 0.703854
vt 0.343750 0.678747
vt 0.351397 0.653639
vt 0.373591 0.630990
vt 0.408159 0.613015
vt 0.451716 0.601475
vt 0.500000 0.597498
vt 0.537500 0.597498
vt 0.550000 0.597498
vt 0.550000 0.687500
vt 0.537500 0.687500
vt 0.525000 0.597498
vt 0.525000 0.687500
vt 0.512500 0.597498
vt 0.512500 0.687500
vt 0.500000 0.597498
vt 0.500000 0.687500
vt 0.487500 0.597498
vt 0.487500 0.687500
vt 0.475000 0.597498
vt 0.475000 0.687500
vt 0.462500 0.597498
vt 0.462500 0.687500
vt 0.450000 0.597498
vt 0.450000 0.687500
vt 0.437500 0.597498
vt 0.437500 0.687500
vt 0.648603 0.457591
vt 0.626409 0.452879
vt 0.500000 0.445911
vt 0.548284 0.446738
vt 0.451716 0.446738
vt 0.408159 0.449139
vt 0.373591 0.452879
vt 0.351397 0.457591
vt 0.343750 0.462814
vt 0.351397 0.468037
vt 0.373591 0.472749
vt 0.408159 0.476489
vt 0.451716 0.478889
vt 0.500000 0.479717
vt 0.591841 0.449139
vt 0.614277 0.073223
vt 0.614277 0.453832
vt 0.434892 0.177405
vt 0.548284 0.478889
vt 0.434892 0.465102
vn 0.000000 -1.000000 0.000000
vn 0.000000 -1.000000 0.000000
vn 0.000000 -1.000000 0.000000
vn 0.000000 -1.000000 0.000000
vn 0.000000 -1.000000 0.000000
vn 0.000000 -1.000000 0.000000
vn 0.000000 -1.000000 0.000000
vn 0.000000 -1.000000 0.000000
vn 0.000000 -1.000000 0.000000
vn 0.000000 -1.000000 0.000000
vn 0.000000 -1.000000 0.000000
vn 0.000000 -1.000000 0.000000
vn 0.000000 -1.000000 0.000000
vn 0.000000 -1.000000 0.000000
vn 0.000000 -1.000000 0.000000
vn 0.000000 -1.000000 0.000000
vn 0.000000 -1.000000 -0.000001
vn 0.000000 -1.000000 -0.000001
vn 0.000000 -1.000000 -0.000001
vn 0.000000 -1.000000 -0.000001
vn 0.000000 -1.000000 0.000001
vn 0.000000 -1.000000 0.000001
vn 0.000000 -1.000000 0.000001
vn 0.000000 -1.000000 0.000001
vn 0.000000 -1.000000 -0.000000
vn 0.000000 -1.000000 -0.000000
vn 0.000000 -1.000000 -0.000000
vn 0.000000 -1.000000 -0.000000
vn 0.000000 -1.000000 -0.000001
vn 0.000000 -1.000000 -0.000001
vn 0.000000 -1.000000 -0.000001
vn 0.000000 -1.000000 -0.000001
vn 0.000000 -1.000000 0.000001
vn 0.000000 -1.000000 0.000001
vn 0.000000 -1.000000 0.000001
vn 0.000000 -1.000000 0.000001
vn 0.000000 -1.000000 0.000000
vn 0.000000 -1.000000 0.000000
vn 0.000000 -1.000000 0.000000
vn 0.000000 -1.000000 0.000000
vn 0.000000 -1.000000 0.000000
vn 0.000000 -1.000000 0.000000
vn 0.000000 -1.000000 0.000000
vn 0.000000 -1.000000 0.000000
vn 0.000000 -1.000000 -0.000000
vn 0.000000 -1.000000 -0.000000
vn 0.000000 -1.000000 -0.000000
vn 0.000000 -1.000000 -0.000000
vn 0.000000 1.000000 0.000000
vn 0.000000 1.000000 0.000000
vn 0.000000 1.000000 0.000000
vn 0.000000 1.000000 0.000000
vn 0.000000 1.000000 -0.000001
vn 0.000000 1.000000 -0.000001
vn 0.000000 1.000000 -0.000001
vn 0.000000 1.000000 -0.000001
vn 0.000000 1.000000 0.000000
vn 0.000000 1.000000 0.000000
vn 0.000000 1.000000 0.000000
vn 0.000000 1.000000 0.000000
vn 0.000000 1.000000 -0.000000
vn 0.000000 1.000000 -0.000000
vn 0.000000 1.000000 -0.000000
vn 0.000000 1.000000 -0.000000
vn 0.000000 1.000000 -0.000001
vn 0.000000 1.000000 -0.000001
vn 0.000000 1.000000 -0.000001
vn 0.000000 1.000000 -0.000001
vn 0.000000 1.000000 -0.000001
vn 0.000000 1.000000 -0.000001
vn 0.000000 1.000000 -0.000001
vn 0.000000 1.000000 -0.000001
vn 0.000000 1.000000 -0.000001
vn 0.000000 1.000000 -0.000001
vn 0.000000 1.000000 -0.000001
vn 0.000000 1.000000 -0.000001
vn 0.000000 1.000000 -0.000001
vn 0.000000 1.000000 -0.000001
vn 0.000000 1.000000 -0.000001
vn 0.000000 1.000000 -0.000001
vn 0.000000 1.000000 0.000000
vn 0.000000 1.000000 0.000000
vn 0.000000 1.000000 0.000000
vn 0.000000 1.000000 0.000000
vn 0.000000 1.000000 0.000000
vn 0.000000 1.000000 0.000000
vn 0.000000 1.000000 0.000000
vn 0.000000 1.000000 0.000000
vn 0.000000 1.000000 0.000000
vn 0.000000 1.000000 0.000000
vn 0.000000 1.000000 0.000000
vn 0.000000 1.000000 0.000000
vn 0.000000 1.000000 -0.000000
vn 0.000000 1.000000 -0.000000
vn 0.000000 1.000000 -0.000000
vn 0.000000 1.000000 -0.000000
vn 0.999129 -0.000001 0.041736
vn 0.999129 -0.000001 0.041736
vn 0.963125 -0.000001 -0.269055
vn 0.963125 -0.000001 -0.269055
vn 0.980299 0.000000 0.197522
vn 0.980299 0.000000 0.197522
vn -0.348441 0.000000 0.937331
vn -0.348441 0.000000 0.937331
vn -0.348441 0.000000 0.937331
vn -0.348441 0.000000 0.937331
vn 0.942851 -0.003820 -0.333192
vn 0.860355 0.084697 -0.502608
vn 0.860356 0.084697 -0.502608
vn 0.911649 0.035078 -0.409471
vn 0.116860 0.123750 0.985408
vn 0.116860 0.123750 0.985408
vn -0.060201 0.067532 0.995899
vn -0.032987 0.076369 0.996534
vn -0.339076 0.011131 0.940693
vn -0.360648 0.009608 0.932653
vn -0.613852 -0.000000 0.789421
vn -0.628190 -0.000000 0.778060
vn -0.828935 0.000000 0.559345
vn -0.836801 0.000000 0.547508
vn -0.961617 0.000000 0.274395
vn -0.964598 0.000000 0.263726
vn -0.999244 0.000000 -0.038886
vn -0.999001 0.000000 -0.044691
vn -0.937331 0.000000 -0.348440
vn -0.937331 0.000000 -0.348440
vn -0.783781 0.000000 -0.621037
vn -0.783781 0.000000 -0.621037
vn -0.553508 0.000000 -0.832844
vn -0.553508 0.000000 -0.832844
vn -0.269055 -0.000000 -0.963125
vn -0.269055 -0.000000 -0.963125
vn 0.041735 0.000000 -0.999129
vn 0.041736 0.000000 -0.999129
vn 0.348440 0.000000 -0.937331
vn 0.348440 0.000000 -0.937331
vn 0.621037 0.000000 -0.783781
vn 0.621037 0.000000 -0.783781
vn 0.832843 0.000001 -0.553509
vn 0.832843 0.000001 -0.553509
vn 0.999129 0.000000 0.041736
vn 0.963125 0.000000 -0.269055
vn 0.963125 0.000000 -0.269055
vn 0.999129 0.000000 0.041736
vn 0.832843 0.000000 -0.553509
vn 0.832843 0.000000 -0.553509
vn 0.621037 0.000000 -0.783781
vn 0.621037 0.000000 -0.783781
vn 0.348440 0.000000 -0.937331
vn 0.348440 0.000000 -0.937331
vn 0.041735 0.000000 -0.999129
vn 0.041735 0.000000 -0.999129
vn -0.269055 -0.000000 -0.963125
vn -0.269055 -0.000000 -0.963125
vn -0.553509 -0.000000 -0.832843
vn -0.553509 -0.000000 -0.832843
vn -0.783781 -0.000000 -0.621037
vn -0.783781 -0.000000 -0.621037
vn -0.937331 0.000000 -0.348440
vn -0.937331 0.000000 -0.348440
vn -0.999190 0.000000 -0.040253
vn -0.999356 0.000000 -0.035889
vn -0.993357 0.000000 0.115077
vn -0.993357 0.000000 0.115077
vn 0.980299 0.000000 0.197522
vn 0.980299 0.000000 0.197522
vn -0.963125 0.000000 0.269055
vn -0.999129 0.000000 -0.041736
vn -0.999129 0.000000 -0.041736
vn -0.963125 0.000000 0.269055
vn -0.980299 0.000000 -0.197521
vn -0.980299 0.000000 -0.197521
vn 0.909177 0.000000 -0.416409
vn 0.963125 0.000000 -0.269056
vn 0.963125 0.000000 -0.269056
vn 0.909177 0.000000 -0.416409
vn 0.999129 0.000000 0.041735
vn 0.999129 0.000000 0.041735
vn 0.937331 0.000000 0.348440
vn 0.937331 0.000000 0.348440
vn 0.783781 0.000000 0.621038
vn 0.783781 0.000000 0.621038
vn 0.553509 0.000000 0.832843
vn 0.553509 0.000000 0.832843
vn 0.269055 0.000000 0.963125
vn 0.269055 0.000000 0.963125
vn -0.041735 0.000000 0.999129
vn -0.041735 0.000000 0.999129
vn -0.348440 0.000000 0.937331
vn -0.348440 0.000000 0.937331
vn -0.621038 0.000000 0.783781
vn -0.621038 0.000000 0.783781
vn -0.832843 0.000000 0.553509
vn -0.832843 0.000000 0.553509
vn 0.943776 -0.005144 -0.330547
vn 0.943776 -0.005144 -0.330547
vn -0.348441 0.000000 0.937331
vn -0.348441 0.000000 0.937331
vn 0.980299 0.000000 0.197522
vn 0.999129 0.000000 0.041736
vn 0.999129 0.000000 0.041736
vn 0.980299 0.000000 0.197522
vn -0.348441 0.000000 0.937331
vn -0.348441 0.000000 0.937331
vn -0.999129 0.000000 -0.041736
vn -0.980299 0.000000 -0.197521
vn -0.980299 0.000000 -0.197521
vn -0.999129 0.000000 -0.041736
vn -0.963125 0.000000 0.269055
vn -0.963125 0.000000 0.269055
vn -0.832843 0.000000 0.553509
vn -0.832843 0.000000 0.553509
vn -0.621038 0.000000 0.783781
vn -0.621038 0.000000 0.783781
vn -0.348440 0.000000 0.937331
vn -0.348440 0.000000 0.937331
vn -0.041735 0.000000 0.999129
vn -0.041735 0.000000 0.999129
vn 0.269055 0.000000 0.963125
vn 0.269055 0.000000 0.963125
vn 0.553509 0.000000 0.832843
vn 0.553509 0.000000 0.832843
vn 0.783781 0.000000 0.621038
vn 0.783781 0.000000 0.621038
vn 0.937331 0.000000 0.348440
vn 0.937331 0.000000 0.348440
vn 0.999129 0.000000 0.041735
vn 0.999129 0.000000 0.041735
vn 0.993357 0.000000 -0.115078
vn 0.993357 0.000000 -0.115078
vn -0.998895 0.000000 -0.046996
vn -0.993357 0.000000 0.115077
vn -0.993357 0.000000 0.115077
vn -0.999102 0.000000 -0.042378
vn -0.937331 0.000000 -0.348440
vn -0.937331 0.000000 -0.348440
vn -0.783781 0.000000 -0.621037
vn -0.783781 0.000000 -0.621037
vn -0.553509 0.000000 -0.832843
vn -0.553509 0.000000 -0.832843
vn -0.269055 0.000000 -0.963125
vn -0.269055 0.000000 -0.963125
vn 0.041735 0.000000 -0.999129
vn 0.041735 0.000000 -0.999129
vn 0.348440 0.000000 -0.937331
vn 0.348440 0.000000 -0.937331
vn 0.621037 0.000000 -0.783781
vn 0.621037 0.000000 -0.783781
vn 0.832843 0.000000 -0.553509
vn 0.832843 0.000000 -0.553509
vn 0.963125 0.000000 -0.269055
vn 0.963125 0.000000 -0.269055
vn 0.000000 -1.000000 0.000000
vn 0.000000 -1.000000 0.000000
vn 0.000000 -1.000000 0.000000
vn 0.000000 -1.000000 0.000000
vn 0.000000 1.000000 -0.000000
vn 0.000000 1.000000 -0.000000
vn 0.000000 1.000000 -0.000000
vn 0.000000 1.000000 -0.000000
vn 0.000000 1.000000 0.000000
vn 0.000000 1.000000 0.000000
vn 0.000000 1.000000 0.000000
vn 0.000000 1.000000 0.000000
vn -0.348440 0.000000 0.937331
vn -0.348440 0.000000 0.937331
vn -0.348440 0.000000 0.937331
vn -0.348440 0.000000 0.937331
vn 0.000000 -1.000000 0.000000
vn 0.000000 -1.000000 0.000000
vn 0.000000 -1.000000 0.000000
vn 0.000000 -1.000000 0.000000
vn 0.936309 0.213241 -0.279024
vn 0.936309 0.213241 -0.279024
vn 0.936309 0.213241 -0.279024
vn 0.936309 0.213241 -0.279024
vn -0.079575 0.990524 -0.111939
vn -0.079575 0.990524 -0.111939
vn -0.079575 0.990524 -0.111939
vn -0.079575 0.990524 -0.111939
vn 0.079575 -0.990524 0.111939
vn 0.079575 -0.990524 0.111939
vn 0.079575 -0.990524 0.111939
vn 0.079575 -0.990524 0.111939
vn -0.101403 0.992858 -0.062853
vn -0.101403 0.992858 -0.062853
vn -0.101403 0.992858 -0.062853
vn -0.101403 0.992858 -0.062853
vn 0.102177 -0.992769 0.063010
vn 0.102177 -0.992769 0.063010
vn 0.102177 -0.992769 0.063010
vn 0.102177 -0.992769 0.063010
vn -0.097894 0.993668 -0.055142
vn -0.097894 0.993668 -0.055142
vn -0.097894 0.993668 -0.055142
vn -0.097894 0.993668 -0.055142
vn 0.097894 -0.993668 0.055142
vn 0.097894 -0.993668 0.055142
vn 0.097894 -0.993668 0.055142
vn 0.097894 -0.993668 0.055142
vn -0.072725 0.994213 -0.079066
vn -0.072725 0.994213 -0.079066
vn -0.072725 0.994213 -0.079066
vn -0.072725 0.994213 -0.079066
vn 0.072725 -0.994213 0.079066
vn 0.072725 -0.994213 0.079066
vn 0.072725 -0.994213 0.079066
vn 0.072725 -0.994213 0.079066
vn -0.026419 0.997985 -0.057682
vn -0.026419 0.997985 -0.057682
vn -0.026419 0.997985 -0.057682
vn -0.026419 0.997985 -0.057682
vn 0.026419 -0.997985 0.057682
vn 0.026419 -0.997985 0.057682
vn 0.026419 -0.997985 0.057682
vn 0.026419 -0.997985 0.057682
vn -0.008046 0.997553 -0.069458
vn -0.008046 0.997552 -0.069458
vn -0.008046 0.997553 -0.069458
vn -0.008046 0.997552 -0.069458
vn 0.008046 -0.997552 0.069458
vn 0.008046 -0.997553 0.069458
vn 0.008046 -0.997552 0.069458
vn 0.008046 -0.997552 0.069458
vn 0.000000 1.000000 0.000000
vn 0.000000 1.000000 0.000000
vn 0.000000 1.000000 0.000000
vn 0.000000 1.000000 0.000000
vn -0.000000 -1.000000 0.000000
vn -0.000000 -1.000000 0.000000
vn -0.000000 -1.000000 0.000000
vn -0.000000 -1.000000 0.000000
vn 0.000000 1.000000 0.000000
vn 0.000000 1.000000 0.000000
vn 0.000000 1.000000 0.000000
vn 0.000000 1.000000 0.000000
vn 0.000000 -1.000000 -0.000000
vn 0.000000 -1.000000 -0.000000
vn 0.000000 -1.000000 -0.000000
vn 0.000000 -1.000000 -0.000000
vn 0.000000 1.000000 -0.000000
vn 0.000000 1.000000 -0.000000
vn 0.000000 1.000000 -0.000000
vn 0.000000 1.000000 -0.000000
vn -0.000000 -1.000000 0.000000
vn -0.000000 -1.000000 0.000000
vn -0.000000 -1.000000 0.000000
vn -0.000000 -1.000000 0.000000
vn -0.000000 1.000000 0.000000
vn -0.000000 1.000000 0.000000
vn -0.000000 1.000000 0.000000
vn -0.000000 1.000000 0.000000
vn 0.000000 -1.000000 0.000000
vn 0.000000 -1.000000 0.000000
vn 0.000000 -1.000000 0.000000
vn 0.000000 -1.000000 0.000000
vn 0.000000 1.000000 0.000000
vn 0.000000 1.000000 0.000000
vn 0.000000 1.000000 0.000000
vn 0.000000 1.000000 0.000000
vn 0.000000 -1.000000 0.000000
vn 0.000000 -1.000000 0.000000
vn 0.000000 -1.000000 0.000000
vn 0.000000 -1.000000 0.000000
vn 0.000000 1.000000 0.000000
vn 0.000000 1.000000 0.000000
vn 0.000000 1.000000 0.000000
vn 0.000000 1.000000 0.000000
vn 0.000000 -1.000000 0.000000
vn 0.000000 -1.000000 0.000000
vn 0.000000 -1.000000 0.000000
vn 0.000000 -1.000000 0.000000
vn 0.000000 1.000000 -0.000000
vn 0.000000 1.000000 -0.000000
vn 0.000000 1.000000 -0.000000
vn 0.000000 1.000000 -0.000000
vn 0.000000 -1.000000 -0.000000
vn 0.000000 -1.000000 -0.000000
vn 0.000000 -1.000000 -0.000000
vn 0.000000 -1.000000 -0.000000
vn 0.000000 1.000000 -0.000000
vn 0.000000 1.000000 -0.000000
vn 0.000000 1.000000 -0.000000
vn 0.000000 1.000000 -0.000000
vn 0.000000 -1.000000 0.000000
vn 0.000000 -1.000000 0.000000
vn 0.000000 -1.000000 0.000000
vn 0.000000 -1.000000 0.000000
vn 0.000000 1.000000 0.000000
vn 0.000000 1.000000 0.000000
vn 0.000000 1.000000 0.000000
vn 0.000000 1.000000 0.000000
vn 0.000000 -1.000000 -0.000000
vn 0.000000 -1.000000 -0.000000
vn 0.000000 -1.000000 -0.000000
vn 0.000000 -1.000000 -0.000000
vn -0.000000 1.000000 0.000000
vn -0.000000 1.000000 0.000000
vn -0.000000 1.000000 0.000000
vn 0.000000 -1.000000 -0.000000
vn 0.000000 -1.000000 -0.000000
vn 0.000000 -1.000000 -0.000000
vn -0.000000 1.000000 -0.000000
vn -0.000000 1.000000 -0.000000
vn -0.000000 1.000000 -0.000000
vn 0.000000 -1.000000 0.000000
vn 0.000000 -1.000000 0.000000
vn 0.000000 -1.000000 0.000000
vn -0.000000 1.000000 0.000000
vn -0.000000 1.000000 0.000000
vn -0.000000 1.000000 0.000000
vn 0.000000 -1.000000 -0.000000
vn 0.000000 -1.000000 -0.000000
vn 0.000000 -1.000000 -0.000000
vn -0.000000 1.000000 0.000000
vn -0.000000 1.000000 0.000000
vn -0.000000 1.000000 0.000000
vn 0.000000 -1.000000 -0.000000
vn 0.000000 -1.000000 -0.000000
vn 0.000000 -1.000000 -0.000000
vn -0.000000 1.000000 0.000000
vn -0.000000 1.000000 0.000000
vn -0.000000 1.000000 0.000000
vn 0.000000 -1.000000 -0.000000
vn 0.000000 -1.000000 -0.000000
vn 0.000000 -1.000000 -0.000000
vn -0.000000 1.000000 0.000000
vn -0.000000 1.000000 0.000000
vn -0.000000 1.000000 0.000000
vn 0.000000 -1.000000 -0.000000
vn 0.000000 -1.000000 -0.000000
vn 0.000000 -1.000000 -0.000000
vn 0.000000 1.000000 0.000000
vn 0.000000 1.000000 0.000000
vn 0.000000 1.000000 0.000000
vn -0.000000 -1.000000 -0.000000
vn -0.000000 -1.000000 -0.000000
vn -0.000000 -1.000000 -0.000000
vn 0.000000 1.000000 0.000000
vn 0.000000 1.000000 0.000000
vn 0.000000 1.000000 0.000000
vn -0.000000 -1.000000 -0.000000
vn -0.000000 -1.000000 -0.000000
vn -0.000000 -1.000000 -0.000000
vn 0.000000 1.000000 0.000000
vn 0.000000 1.000000 0.000000
vn 0.000000 1.000000 0.000000
vn -0.000000 -1.000000 0.000000
vn -0.000000 -1.000000 0.000000
vn -0.000000 -1.000000 0.000000
vn 0.000000 1.000000 0.000000
vn 0.000000 1.000000 0.000000
vn 0.000000 1.000000 0.000000
vn -0.000000 -1.000000 0.000000
vn -0.000000 -1.000000 0.000000
vn -0.000000 -1.000000 0.000000
vn 0.000000 1.000000 -0.000001
vn 0.000000 1.000000 -0.000001
vn 0.000000 1.000000 -0.000001
vn -0.000000 -1.000000 0.000000
vn -0.000000 -1.000000 0.000000
vn -0.000000 -1.000000 0.000000
vn 0.000000 1.000000 0.000001
vn 0.000000 1.000000 0.000001
vn 0.000000 1.000000 0.000001
vn -0.000000 -1.000000 0.000000
vn -0.000000 -1.000000 0.000000
vn -0.000000 -1.000000 0.000000
vn 0.000000 1.000000 -0.000000
vn 0.000000 1.000000 -0.000000
vn 0.000000 1.000000 -0.000000
vn -0.000000 -1.000000 0.000000
vn -0.000000 -1.000000 0.000000
vn -0.000000 -1.000000 0.000000
vn 0.000000 1.000000 -0.000000
vn 0.000000 1.000000 -0.000000
vn 0.000000 1.000000 -0.000000
vn -0.000000 -1.000000 0.000000
vn -0.000000 -1.000000 0.000000
vn -0.000000 -1.000000 0.000000
vn 0.000000 1.000000 -0.000000
vn 0.000000 1.000000 -0.000000
vn 0.000000 1.000000 -0.000000
vn -0.000000 -1.000000 0.000000
vn -0.000000 -1.000000 0.000000
vn -0.000000 -1.000000 0.000000
vn 0.000002 1.000000 0.000001
vn 0.000002 1.000000 0.000001
vn 0.000002 1.000000 0.000001
vn -0.000002 -1.000000 -0.000001
vn -0.000002 -1.000000 -0.000001
vn -0.000002 -1.000000 -0.000001
vn 0.000000 1.000000 0.000000
vn 0.000000 1.000000 0.000000
vn 0.000000 1.000000 0.000000
vn -0.000000 -1.000000 -0.000001
vn -0.000000 -1.000000 -0.000001
vn -0.000000 -1.000000 -0.000001
vn 0.676979 0.000000 0.736002
vn 0.676979 0.000000 0.736002
vn 0.676979 0.000000 0.736002
vn 0.676979 0.000000 0.736002
vn -0.000000 1.000000 0.000001
vn -0.000000 1.000000 0.000001
vn -0.000000 1.000000 0.000001
vn 0.453991 0.000000 0.891006
vn 0.587785 0.000000 0.809017
vn 0.587785 0.000000 0.809017
vn 0.453991 0.000000 0.891007
vn 0.809017 -0.000000 0.587785
vn 0.809017 -0.000000 0.587785
vn 0.951057 -0.000000 0.309017
vn 0.951057 -0.000000 0.309017
vn 1.000000 0.000000 -0.000000
vn 1.000000 0.000000 -0.000000
vn 0.951057 0.000000 -0.309017
vn 0.951057 0.000000 -0.309017
vn 0.809017 0.000000 -0.587786
vn 0.809017 0.000000 -0.587786
vn 0.587785 0.000000 -0.809017
vn 0.587785 0.000000 -0.809017
vn 0.309017 0.000000 -0.951056
vn 0.309017 0.000000 -0.951057
vn -0.000000 0.000000 -1.000000
vn 0.031392 0.000000 -0.999507
vn -0.309017 0.000000 -0.951056
vn -0.309017 0.000000 -0.951056
vn -0.453991 0.000000 -0.891006
vn -0.453991 0.000000 -0.891006
vn 0.000000 -1.000000 0.000000
vn 0.000000 -1.000000 0.000000
vn 0.000000 -1.000000 0.000000
vn 0.000000 -1.000000 0.000000
vn 0.000000 -1.000000 0.000001
vn 0.000000 -1.000000 0.000001
vn 0.000000 -1.000000 0.000001
vn 0.000000 -1.000000 0.000001
vn 0.000000 -1.000000 0.000001
vn 0.000000 -1.000000 0.000001
vn 0.000000 -1.000000 0.000001
vn 0.000000 -1.000000 0.000001
vn 0.000000 -1.000000 0.000000
vn 0.000000 -1.000000 0.000000
vn 0.000000 -1.000000 0.000000
vn 0.000000 -1.000000 0.000000
vn 0.000000 -1.000000 0.000000
vn 0.000000 -1.000000 0.000000
vn 0.000000 -1.000000 0.000000
vn 0.000000 -1.000000 0.000000
vn 0.000000 -1.000000 -0.000000
vn 0.000000 -1.000000 -0.000000
vn 0.000000 -1.000000 -0.000000
vn 0.000000 -1.000000 -0.000000
vn 0.000000 -1.000000 -0.000001
vn 0.000000 -1.000000 -0.000001
vn 0.000000 -1.000000 -0.000001
vn 0.000000 -1.000000 -0.000001
vn 0.000000 -1.000000 0.000001
vn 0.000000 -1.000000 0.000001
vn 0.000000 -1.000000 0.000001
vn 0.000000 -1.000000 0.000001
vn 0.000000 -1.000000 -0.000000
vn 0.000000 -1.000000 -0.000000
vn 0.000000 -1.000000 -0.000000
vn 0.000000 -1.000000 -0.000000
vn 0.000000 -1.000000 0.000000
vn 0.000000 -1.000000 0.000000
vn 0.000000 -1.000000 0.000000
vn 0.000000 -1.000000 0.000000
vn 0.000000 -1.000000 -0.000000
vn 0.000000 -1.000000 -0.000000
vn 0.000000 -1.000000 -0.000000
vn 0.000000 -1.000000 -0.000000
vn 0.000000 -1.000000 -0.000000
vn 0.000000 -1.000000 -0.000000
vn 0.000000 -1.000000 -0.000000
vn 0.000000 -1.000000 -0.000000
vn 0.000000 -1.000000 0.000000
vn 0.000000 -1.000000 0.000000
vn 0.000000 -1.000000 0.000000
vn 0.000000 -1.000000 0.000000
vn 0.000000 -1.000000 0.000000
vn 0.000000 -1.000000 0.000000
vn 0.000000 -1.000000 0.000000
vn 0.000000 -1.000000 0.000000
vn 0.000000 -1.000000 0.000001
vn 0.000000 -1.000000 0.000001
vn 0.000000 -1.000000 0.000001
vn 0.000000 -1.000000 0.000001
vn 0.000000 -1.000000 0.000003
vn 0.000000 -1.000000 0.000003
vn 0.000000 -1.000000 0.000003
vn 0.000000 -1.000000 0.000003
vn 0.000000 -1.000000 0.000000
vn 0.000000 -1.000000 0.000000
vn 0.000000 -1.000000 0.000000
vn 0.000000 -1.000000 0.000000
vn 0.000000 1.000000 -0.000000
vn 0.000000 1.000000 -0.000000
vn 0.000000 1.000000 -0.000000
vn 0.000000 1.000000 -0.000000
vn 0.000000 1.000000 0.000000
vn 0.000000 1.000000 0.000000
vn 0.000000 1.000000 0.000000
vn 0.000000 1.000000 0.000000
vn 0.000000 1.000000 -0.000001
vn 0.000000 1.000000 -0.000001
vn 0.000000 1.000000 -0.000001
vn 0.000000 1.000000 -0.000001
vn 0.000000 1.000000 0.000000
vn 0.000000 1.000000 0.000000
vn 0.000000 1.000000 0.000000
vn 0.000000 1.000000 0.000000
vn 0.000000 1.000000 0.000000
vn 0.000000 1.000000 0.000000
vn 0.000000 1.000000 0.000000
vn 0.000000 1.000000 0.000000
vn 0.000000 1.000000 0.000000
vn 0.000000 1.000000 0.000000
vn 0.000000 1.000000 0.000000
vn 0.000000 1.000000 0.000000
vn 0.000000 1.000000 0.000000
vn 0.000000 1.000000 0.000000
vn 0.000000 1.000000 0.000000
vn 0.000000 1.000000 0.000000
vn 0.000000 1.000000 -0.000001
vn 0.000000 1.000000 -0.000001
vn 0.000000 1.000000 -0.000001
vn 0.000000 1.000000 -0.000001
vn 0.000000 1.000000 0.000001
vn 0.000000 1.000000 0.000001
vn 0.000000 1.000000 0.000001
vn 0.000000 1.000000 0.000001
vn -0.809016 0.000000 0.587786
vn -0.809016 0.000000 0.587786
vn -0.809016 0.000000 0.587786
vn -0.809016 0.000000 0.587786
vn 0.000000 0.000000 -1.000000
vn 0.000000 0.000000 -1.000000
vn 0.000000 0.000000 -1.000000
vn 0.000000 0.000000 -1.000000
vn 0.000001 0.000000 -1.000000
vn 0.000001 0.000000 -1.000000
vn 0.000001 0.000000 -1.000000
vn 0.000001 0.000000 -1.000000
vn -0.587785 -0.000000 -0.809017
vn -0.453991 0.000000 -0.891006
vn -0.453991 0.000000 -0.891006
vn -0.587785 -0.000000 -0.809017
vn -0.809017 -0.000000 -0.587785
vn -0.809017 -0.000000 -0.587785
vn -0.951057 -0.000000 -0.309017
vn -0.951057 -0.000000 -0.309017
vn -1.000000 -0.000000 -0.000000
vn -1.000000 -0.000001 0.000000
vn -0.951057 -0.000000 0.309017
vn -0.951057 -0.000001 0.309017
vn -0.809017 -0.000000 0.587785
vn -0.809017 -0.000000 0.587785
vn -0.587785 0.000000 0.809017
vn -0.587785 0.000000 0.809017
vn -0.309017 0.000000 0.951056
vn -0.309017 0.000000 0.951057
vn -0.156434 0.000000 0.987688
vn -0.156434 0.000000 0.987688
vn 0.309017 0.000000 -0.951057
vn 0.156434 0.000000 -0.987688
vn 0.156434 0.000000 -0.987688
vn 0.309017 0.000000 -0.951057
vn 0.587785 0.000000 -0.809017
vn 0.587785 0.000000 -0.809017
vn 0.809017 0.000000 -0.587786
vn 0.809017 0.000000 -0.587786
vn 0.951057 0.000000 -0.309017
vn 0.951057 0.000000 -0.309017
vn 1.000000 0.000000 -0.000000
vn 1.000000 0.000000 0.000000
vn 0.951057 0.000000 0.309017
vn 0.951057 0.000000 0.309017
vn 0.809017 0.000000 0.587785
vn 0.809017 0.000000 0.587785
vn 0.587785 0.000000 0.809017
vn 0.587785 0.000000 0.809017
vn 0.453990 0.000000 0.891007
vn 0.453991 0.000000 0.891006
vn -0.587785 0.000000 -0.809017
vn -0.453991 0.000000 -0.891006
vn -0.809017 0.000000 -0.587785
vn -0.951057 0.000000 -0.309017
vn -1.000000 0.000000 -0.000000
vn -0.951056 0.000000 0.309017
vn -0.809017 0.000000 0.587786
vn -0.587785 0.000000 0.809017
vn -0.309017 0.000000 0.951057
vn -0.156434 0.000000 0.987688
vn 0.000000 -1.000000 0.000000
vn 0.000000 -1.000000 0.000000
vn 0.000000 -1.000000 0.000000
vn 0.000000 1.000000 0.000000
vn 0.000000 1.000000 0.000000
vn 0.000000 1.000000 0.000000
vn 0.000000 -1.000000 0.000000
vn 0.000000 -1.000000 0.000000
vn 0.000000 -1.000000 0.000000
vn 0.000000 1.000000 0.000000
vn 0.000000 1.000000 0.000000
vn 0.000000 1.000000 0.000000
vn 0.000000 -1.000000 0.000000
vn 0.000000 -1.000000 0.000000
vn 0.000000 -1.000000 0.000000
vn 0.000000 1.000000 0.000000
vn 0.000000 1.000000 0.000000
vn 0.000000 1.000000 0.000000
vn 0.000000 -1.000000 -0.000000
vn 0.000000 -1.000000 -0.000000
vn 0.000000 -1.000000 -0.000000
vn 0.000000 1.000000 0.000000
vn 0.000000 1.000000 0.000000
vn 0.000000 1.000000 0.000000
vn 0.000000 -1.000000 -0.000000
vn 0.000000 -1.000000 -0.000000
vn 0.000000 -1.000000 -0.000000
vn -0.000000 1.000000 0.000000
vn -0.000000 1.000000 0.000000
vn -0.000000 1.000000 0.000000
vn 0.000000 -1.000000 0.000000
vn 0.000000 -1.000000 0.000000
vn 0.000000 -1.000000 0.000000
vn -0.000000 1.000000 0.000000
vn -0.000000 1.000000 0.000000
vn -0.000000 1.000000 0.000000
vn 0.000000 -1.000000 0.000000
vn 0.000000 -1.000000 0.000000
vn 0.000000 -1.000000 0.000000
vn -0.000000 1.000000 0.000000
vn -0.000000 1.000000 0.000000
vn -0.000000 1.000000 0.000000
vn 0.000000 -1.000000 0.000000
vn 0.000000 -1.000000 0.000000
vn 0.000000 -1.000000 0.000000
vn -0.000000 1.000000 0.000000
vn -0.000000 1.000000 0.000000
vn -0.000000 1.000000 0.000000
vn 0.000000 -1.000000 0.000000
vn 0.000000 -1.000000 0.000000
vn 0.000000 -1.000000 0.000000
vn -0.000000 1.000000 0.000000
vn -0.000000 1.000000 0.000000
vn -0.000000 1.000000 0.000000
vn 0.000000 -1.000000 0.000000
vn 0.000000 -1.000000 0.000000
vn 0.000000 -1.000000 0.000000
vn -0.000000 1.000000 0.000000
vn -0.000000 1.000000 0.000000
vn -0.000000 1.000000 0.000000
vn 0.000000 -1.000000 0.000001
vn 0.000000 -1.000000 0.000001
vn 0.000000 -1.000000 0.000001
vn -0.000000 1.000000 0.000000
vn -0.000000 1.000000 0.000000
vn -0.000000 1.000000 0.000000
vn 0.000000 -1.000000 -0.000001
vn 0.000000 -1.000000 -0.000001
vn 0.000000 -1.000000 -0.000001
vn -0.000000 1.000000 -0.000000
vn -0.000000 1.000000 -0.000000
vn -0.000000 1.000000 -0.000000
vn 0.000000 -1.000000 0.000000
vn 0.000000 -1.000000 0.000000
vn 0.000000 -1.000000 0.000000
vn -0.000000 1.000000 -0.000000
vn -0.000000 1.000000 -0.000000
vn -0.000000 1.000000 -0.000000
vn 0.000000 -1.000000 0.000000
vn 0.000000 -1.000000 0.000000
vn 0.000000 -1.000000 0.000000
vn -0.000000 1.000000 -0.000000
vn -0.000000 1.000000 -0.000000
vn -0.000000 1.000000 -0.000000
vn 0.000000 -1.000000 -0.000000
vn 0.000000 -1.000000 -0.000000
vn 0.000000 -1.000000 -0.000000
vn 0.000000 1.000000 -0.000000
vn 0.000000 1.000000 -0.000000
vn 0.000000 1.000000 -0.000000
vn 0.000000 -1.000000 0.000000
vn 0.000000 -1.000000 0.000000
vn 0.000000 -1.000000 0.000000
vn 0.000000 1.000000 0.000000
vn 0.000000 1.000000 0.000000
vn 0.000000 1.000000 0.000000
vn 0.000000 -1.000000 0.000000
vn 0.000000 -1.000000 0.000000
vn 0.000000 -1.000000 0.000000
vn 0.000000 1.000000 -0.000000
vn 0.000000 1.000000 -0.000000
vn 0.000000 1.000000 -0.000000
vn -0.891007 0.000000 -0.453991
vn -0.891007 0.000000 -0.453991
vn -0.891007 0.000000 -0.453991
vn -0.891007 0.000000 -0.453991
vn 0.000000 1.000000 0.000000
vn 0.000000 1.000000 0.000000
vn 0.000000 1.000000 0.000000
vn 0.000000 -1.000000 0.000000
vn 0.000000 -1.000000 0.000000
vn 0.000000 -1.000000 0.000000
vn -0.833031 0.553226 -0.000000
vn -0.833032 0.553225 -0.000000
vn 0.000000 1.000000 0.000000
vn 0.000000 1.000000 0.000000
vn -0.949046 0.315136 -0.000000
vn -0.949046 0.315136 -0.000000
vn -0.949046 0.315136 -0.000000
vn -0.949046 0.315136 -0.000000
vn -0.949046 0.315136 -0.000000
vn -0.949046 0.315136 -0.000000
s off
g polySurface7
f 98/121/187 97/122/188 124/123/189 125/124/190
f 99/125/191 98/121/192 125/124/193 126/126/194
f 100/127/195 99/125/196 126/126/197 127/128/198
f 101/129/199 100/127/200 127/128/201 128/130/202
f 102/131/203 101/129/204 128/130/205 129/132/206
f 103/133/207 102/131/208 129/132/209 130/134/210
f 104/135/211 103/133/212 130/134/213 131/136/214
f 105/137/215 104/135/216 131/136/217 132/138/218
f 106/139/219 105/137/220 132/138/221 133/140/222
f 107/141/223 106/139/224 133/140/225 134/142/226
f 108/143/227 107/141/228 134/142/229 135/144/230
f 97/122/231 110/148/232 138/149/233 124/123/234
f 111/150/235 112/151/236 140/152/237 139/153/238
f 112/151/239 113/154/240 141/155/241 140/152/242
f 113/154/243 114/156/244 142/157/245 141/155/246
f 114/156/247 115/158/248 143/159/249 142/157/250
f 115/158/251 116/160/252 144/161/253 143/159/254
f 116/160/255 117/162/256 145/163/257 144/161/258
f 117/162/259 118/164/260 146/165/261 145/163/262
f 118/164/263 119/166/264 147/167/265 146/165/266
f 119/166/267 120/168/268 148/169/269 147/167/270
f 120/168/271 121/170/272 149/171/273 148/169/274
f 121/170/275 122/172/276 150/173/277 149/171/278
f 123/174/279 111/150/280 139/153/281 151/175/282
s 1
f 224/176/283 225/177/284 226/178/285 227/179/286
f 225/180/284 224/181/283 228/182/287 229/183/288
s 2
f 154/184/289 155/185/290 157/186/291 156/187/292
s 3
f 190/188/293 191/189/294 193/190/295 192/191/296
s 1
f 231/192/297 230/193/298 232/194/299 233/195/300
f 233/195/300 232/194/299 234/196/301 235/197/302
f 235/197/302 234/196/301 236/198/303 237/199/304
f 237/199/304 236/198/303 238/200/305 239/201/306
f 239/201/306 238/200/305 240/202/307 241/203/308
f 241/203/308 240/202/307 242/204/309 243/205/310
f 243/205/310 242/204/309 244/206/311 245/207/312
f 245/207/312 244/206/311 246/208/313 247/209/314
f 247/209/314 246/208/313 248/210/315 249/211/316
f 249/211/316 248/210/315 250/212/317 251/213/318
f 251/213/318 250/212/317 252/214/319 253/215/320
f 253/215/320 252/214/319 254/216/321 255/217/322
f 255/217/322 254/216/321 256/218/323 257/219/324
f 257/219/324 256/218/323 258/220/325 259/221/326
f 259/221/326 258/220/325 227/179/286 226/178/285
s 5
f 97/222/327 98/223/328 222/224/329 153/225/330
f 98/223/328 99/226/331 220/227/332 222/224/329
f 99/226/331 100/228/333 218/229/334 220/227/332
f 100/228/333 101/230/335 216/231/336 218/229/334
f 101/230/335 102/232/337 214/233/338 216/231/336
f 102/232/337 103/234/339 212/235/340 214/233/338
f 103/234/339 104/236/341 210/237/342 212/235/340
f 104/236/341 105/238/343 208/239/344 210/237/342
f 105/238/343 106/240/345 206/241/346 208/239/344
f 106/240/345 107/242/347 204/243/348 206/241/346
f 107/242/347 108/244/349 202/245/350 204/243/348
f 110/251/351 97/252/327 153/253/330 154/254/352
s 6
f 125/124/353 124/123/354 158/255/355 160/256/356
f 124/123/354 138/149/357 156/187/358 158/255/355
f 136/145/359 135/144/360 180/261/361 182/260/362
f 135/144/360 134/142/363 178/262/364 180/261/361
f 134/142/363 133/140/365 176/263/366 178/262/364
f 133/140/365 132/138/367 174/264/368 176/263/366
f 132/138/367 131/136/369 172/265/370 174/264/368
f 131/136/369 130/134/371 170/266/372 172/265/370
f 130/134/371 129/132/373 168/267/374 170/266/372
f 129/132/373 128/130/375 166/268/376 168/267/374
f 128/130/375 127/128/377 164/269/378 166/268/376
f 127/128/377 126/126/379 162/270/380 164/269/378
f 126/126/379 125/124/353 160/256/356 162/270/380
s 3
f 190/188/293 192/191/296 109/146/381 137/147/382
s 2
f 154/184/289 156/187/292 138/149/383 110/251/384
s 8
f 155/271/385 152/272/386 111/273/387 123/274/388
s 2
f 123/174/389 151/175/390 157/186/291 155/185/290
s 9
f 159/275/391 157/186/392 151/175/393 139/153/394
f 161/276/395 159/275/391 139/153/394 140/152/396
f 163/277/397 161/276/395 140/152/396 141/155/398
f 165/278/399 163/277/397 141/155/398 142/157/400
f 167/279/401 165/278/399 142/157/400 143/159/402
f 169/280/403 167/279/401 143/159/402 144/161/404
f 171/281/405 169/280/403 144/161/404 145/163/406
f 173/282/407 171/281/405 145/163/406 146/165/408
f 175/283/409 173/282/407 146/165/408 147/167/410
f 177/284/411 175/283/409 147/167/410 148/169/412
f 179/285/413 177/284/411 148/169/412 149/171/414
f 181/286/415 179/285/413 149/171/414 150/173/416
s 8
f 205/298/417 203/296/418 122/297/419 121/299/420
f 207/300/421 205/298/417 121/299/420 120/301/422
f 209/302/423 207/300/421 120/301/422 119/303/424
f 211/304/425 209/302/423 119/303/424 118/305/426
f 213/306/427 211/304/425 118/305/426 117/307/428
f 215/308/429 213/306/427 117/307/428 116/309/430
f 217/310/431 215/308/429 116/309/430 115/311/432
f 219/312/433 217/310/431 115/311/432 114/313/434
f 221/314/435 219/312/433 114/313/434 113/315/436
f 223/316/437 221/314/435 113/315/436 112/317/438
f 152/318/386 223/316/437 112/317/438 111/319/387
s off
f 153/225/439 222/224/440 226/178/441 225/177/442
f 223/316/443 152/318/444 224/176/445 227/179/446
f 152/272/447 155/271/448 228/182/449 224/181/450
f 155/271/451 154/254/452 229/183/453 228/182/454
f 154/254/455 153/253/456 225/180/457 229/183/458
f 192/250/459 193/292/460 230/193/461 231/192/462
f 193/292/463 195/291/464 232/194/465 230/193/466
f 194/249/467 192/250/468 231/192/469 233/195/470
f 195/291/471 197/293/472 234/196/473 232/194/474
f 196/248/475 194/249/476 233/195/477 235/197/478
f 197/293/479 199/294/480 236/198/481 234/196/482
f 198/247/483 196/248/484 235/197/485 237/199/486
f 199/294/487 201/295/488 238/200/489 236/198/490
f 200/246/491 198/247/492 237/199/493 239/201/494
f 201/295/495 203/296/496 240/202/497 238/200/498
f 202/245/499 200/246/500 239/201/501 241/203/502
f 203/296/503 205/298/504 242/204/505 240/202/506
f 204/243/507 202/245/508 241/203/509 243/205/510
f 205/298/511 207/300/512 244/206/513 242/204/514
f 206/241/515 204/243/516 243/205/517 245/207/518
f 207/300/519 209/302/520 246/208/521 244/206/522
f 208/239/523 206/241/524 245/207/525 247/209/526
f 209/302/527 211/304/528 248/210/529 246/208/530
f 210/237/531 208/239/532 247/209/533 249/211/534
f 211/304/535 213/306/536 250/212/537 248/210/538
f 212/235/539 210/237/540 249/211/541 251/213/542
f 213/306/543 215/308/544 252/214/545 250/212/546
f 214/233/547 212/235/548 251/213/549 253/215/550
f 215/308/551 217/310/552 254/216/553 252/214/554
f 216/231/555 214/233/556 253/215/557 255/217/558
f 217/310/559 219/312/560 256/218/561 254/216/562
f 218/229/563 216/231/564 255/217/565 257/219/566
f 219/312/567 221/314/568 258/220/569 256/218/570
f 220/227/571 218/229/572 257/219/573 259/221/574
f 221/314/575 223/316/576 227/179/577 258/220/578
f 222/224/579 220/227/580 259/221/581 226/178/582
f 157/186/583 159/275/584 260/320/585
f 158/255/586 156/187/587 261/321/588
f 159/275/589 161/276/590 260/320/591
f 160/256/592 158/255/593 261/321/594
f 161/276/595 163/277/596 260/320/597
f 162/270/598 160/256/599 261/321/600
f 163/277/601 165/278/602 260/320/603
f 164/269/604 162/270/605 261/321/606
f 165/278/607 167/279/608 260/320/609
f 166/268/610 164/269/611 261/321/612
f 167/279/613 169/280/614 260/320/615
f 168/267/616 166/268/617 261/321/618
f 169/280/619 171/281/620 260/320/621
f 170/266/622 168/267/623 261/321/624
f 171/281/625 173/282/626 260/320/627
f 172/265/628 170/266/629 261/321/630
f 173/282/631 175/283/632 260/320/633
f 174/264/634 172/265/635 261/321/636
f 175/283/637 177/284/638 260/320/639
f 176/263/640 174/264/641 261/321/642
f 177/284/643 179/285/644 260/320/645
f 178/262/646 176/263/647 261/321/648
f 179/285/649 181/286/650 260/320/651
f 180/261/652 178/262/653 261/321/654
f 181/286/655 183/287/656 260/320/657
f 182/260/658 180/261/659 261/321/660
f 183/287/661 185/288/662 260/320/663
f 184/259/664 182/260/665 261/321/666
f 185/288/667 187/289/668 260/320/669
f 186/258/670 184/259/671 261/321/672
f 187/289/673 189/290/674 260/320/675
f 188/257/676 186/258/677 261/321/678
f 189/290/679 191/189/680 260/320/681
f 190/188/682 188/257/683 261/321/684
f 156/187/685 157/186/686 191/189/687 190/188/688
f 260/320/689 191/189/690 157/186/691
s 11
f 267/322/692 268/324/693 371/325/694 372/323/695
f 268/324/693 269/326/696 370/327/697 371/325/694
f 269/326/696 270/328/698 369/329/699 370/327/697
f 270/328/698 271/330/700 368/331/701 369/329/699
f 271/330/700 272/332/702 367/333/703 368/331/701
f 272/332/702 273/334/704 366/335/705 367/333/703
f 273/334/704 274/336/706 365/337/707 366/335/705
f 274/336/706 275/338/708 364/339/709 365/337/707
f 275/338/708 276/340/710 363/341/711 364/339/709
f 276/340/710 277/342/712 362/343/713 363/341/711
f 277/342/712 278/344/714 361/345/715 362/343/713
s off
f 263/347/716 262/348/717 291/349/718 292/350/719
f 264/351/720 263/347/721 292/350/722 293/352/723
f 265/353/724 264/351/725 293/352/726 294/354/727
f 266/355/728 265/353/729 294/354/730 295/356/731
f 267/357/732 266/355/733 295/356/734 296/358/735
f 268/359/736 267/357/737 296/358/738 297/360/739
f 269/361/740 268/359/741 297/360/742 298/362/743
f 270/363/744 269/361/745 298/362/746 299/364/747
f 271/365/748 270/363/749 299/364/750 300/366/751
f 272/367/752 271/365/753 300/366/754 301/368/755
f 273/369/756 272/367/757 301/368/758 302/370/759
f 274/371/760 273/369/761 302/370/762 303/372/763
f 275/373/764 274/371/765 303/372/766 304/374/767
f 276/375/768 275/373/769 304/374/770 305/376/771
f 277/377/772 276/375/773 305/376/774 306/378/775
f 278/379/776 277/377/777 306/378/778 307/380/779
f 262/348/780 279/381/781 308/382/782 291/349/783
f 280/383/784 281/385/785 310/386/786 309/384/787
f 281/385/788 282/387/789 311/388/790 310/386/791
f 282/387/792 283/389/793 312/390/794 311/388/795
f 283/389/796 284/391/797 313/392/798 312/390/799
f 284/391/800 285/393/801 314/394/802 313/392/803
f 285/393/804 286/395/805 315/396/806 314/394/807
f 286/395/808 287/397/809 316/398/810 315/396/811
f 287/397/812 288/399/813 317/400/814 316/398/815
f 288/399/816 289/401/817 318/402/818 317/400/819
f 360/405/820 361/406/821 278/379/822 307/380/823
s 12
f 342/407/824 343/408/825 308/382/826 279/346/827
f 290/403/828 319/404/829 321/409/830 320/410/831
s 13
f 323/412/832 322/411/833 309/384/834 310/386/835
f 324/413/836 323/412/832 310/386/835 311/388/837
f 325/414/838 324/413/836 311/388/837 312/390/839
f 326/415/840 325/414/838 312/390/839 313/392/841
f 327/416/842 326/415/840 313/392/841 314/394/843
f 328/417/844 327/416/842 314/394/843 315/396/845
f 329/418/846 328/417/844 315/396/845 316/398/847
f 330/419/848 329/418/846 316/398/847 317/400/849
f 331/420/850 330/419/848 317/400/849 318/402/851
s 11
f 333/421/852 332/422/853 289/423/854 288/424/855
f 334/425/856 333/421/852 288/424/855 287/426/857
f 335/427/858 334/425/856 287/426/857 286/428/859
f 336/429/860 335/427/858 286/428/859 285/430/861
f 337/431/862 336/429/860 285/430/861 284/432/863
f 338/433/864 337/431/862 284/432/863 283/434/865
f 339/435/866 338/433/864 283/434/865 282/436/867
f 340/437/868 339/435/866 282/436/867 281/438/869
f 341/439/870 340/437/868 281/438/869 280/440/871
s 12
f 320/410/831 321/409/830 343/408/825 342/407/824
s 13
f 350/446/872 349/445/873 322/411/833 323/412/832
f 351/447/874 350/446/872 323/412/832 324/413/836
f 352/448/875 351/447/874 324/413/836 325/414/838
f 353/449/876 352/448/875 325/414/838 326/415/840
f 354/450/877 353/449/876 326/415/840 327/416/842
f 355/451/878 354/450/877 327/416/842 328/417/844
f 356/452/879 355/451/878 328/417/844 329/418/846
f 357/453/880 356/452/879 329/418/846 330/419/848
f 358/454/881 357/453/880 330/419/848 331/420/850
s 11
f 364/339/709 363/341/711 332/422/853 333/421/852
f 365/337/707 364/339/709 333/421/852 334/425/856
f 366/335/705 365/337/707 334/425/856 335/427/858
f 367/333/703 366/335/705 335/427/858 336/429/860
f 368/331/701 367/333/703 336/429/860 337/431/862
f 369/329/699 368/331/701 337/431/862 338/433/864
f 370/327/697 369/329/699 338/433/864 339/435/866
f 371/325/694 370/327/697 339/435/866 340/437/868
f 372/323/695 371/325/694 340/437/868 341/439/870
s off
f 292/350/882 291/349/883 373/456/884
f 344/441/885 345/442/886 374/457/887
f 291/349/888 308/382/889 373/456/890
f 343/408/891 344/441/892 374/457/893
f 307/380/894 306/378/895 373/458/896
f 359/459/897 360/405/898 374/460/899
f 306/378/900 305/376/901 373/458/902
f 358/454/903 359/459/904 374/460/905
f 305/376/906 304/374/907 373/458/908
f 357/453/909 358/454/910 374/460/911
f 304/374/912 303/372/913 373/458/914
f 356/452/915 357/453/916 374/460/917
f 303/372/918 302/370/919 373/458/920
f 355/451/921 356/452/922 374/460/923
f 302/370/924 301/368/925 373/458/926
f 354/450/927 355/451/928 374/460/929
f 301/368/930 300/366/931 373/458/932
f 353/449/933 354/450/934 374/460/935
f 300/366/936 299/364/937 373/458/938
f 352/448/939 353/449/940 374/460/941
f 299/364/942 298/362/943 373/458/944
f 351/447/945 352/448/946 374/460/947
f 298/362/948 297/360/949 373/458/950
f 350/446/951 351/447/952 374/460/953
f 297/360/954 296/358/955 373/458/956
f 349/445/957 350/446/958 374/460/959
f 296/358/960 295/356/961 373/458/962
f 348/443/963 349/445/964 374/460/965
f 295/356/966 294/354/967 373/456/968
f 347/444/969 348/443/970 374/460/971
f 294/354/972 293/352/973 373/456/974
f 346/455/975 347/444/976 374/457/977
f 293/352/978 292/350/979 373/456/980
f 345/442/981 346/455/982 374/457/983
f 308/382/984 343/408/985 360/405/986 307/380/987
f 374/460/988 360/405/989 343/408/990
f 373/456/991 308/382/992 307/380/993
s 14
f 359/459/994 362/343/995 361/406/996 360/405/997
f 318/402/998 289/423/999 332/422/1000 363/341/1001 362/343/995 359/459/994 358/454/1002 331/420/1003
