# This file uses centimeters as units for non-parametric coordinates.

g default
v 3.533818 -3.715672 -1.148206
v 3.006045 -3.715672 -2.184018
v 2.184019 -3.715672 -3.006043
v 1.148207 -3.715672 -3.533816
v 0.000000 -3.715672 -3.715674
v -1.148206 -3.715672 -3.533816
v -2.184018 -3.715672 -3.006043
v -3.006043 -3.715672 -2.184017
v -3.533815 -3.715672 -1.148206
v -3.715673 -3.715672 0.000001
v -3.533815 -3.715672 1.148207
v -3.006043 -3.715672 2.184019
v -2.184018 -3.715672 3.006043
v -1.148206 -3.715672 3.533816
v 0.000000 -3.715672 3.715674
v 1.148206 -3.715672 3.533816
v 2.184018 -3.715672 3.006043
v 3.006043 -3.715672 2.184018
v 3.533815 -3.715672 1.148207
v 3.715673 -3.715672 0.000001
v 3.533818 3.715672 -1.148206
v 3.006045 3.715672 -2.184018
v 2.184019 3.715672 -3.006043
v 1.148207 3.715672 -3.533816
v 0.000000 3.715672 -3.715674
v -1.148206 3.715672 -3.533816
v -2.184018 3.715672 -3.006043
v -3.006043 3.715672 -2.184017
v -3.533815 3.715672 -1.148206
v -3.715673 3.715672 0.000001
v -3.533815 3.715672 1.148207
v -3.006043 3.715672 2.184019
v -2.184018 3.715672 3.006043
v -1.148206 3.715672 3.533816
v 0.000000 3.715672 3.715674
v 1.148206 3.715672 3.533816
v 2.184018 3.715672 3.006043
v 3.006043 3.715672 2.184018
v 3.533815 3.715672 1.148207
v 3.715673 3.715672 0.000001
v 3.325379 -3.715672 -1.080480
v 2.828737 -3.715672 -2.055196
v 2.055197 -3.715672 -2.828735
v 1.080481 -3.715672 -3.325378
v 0.000000 -3.715672 -3.496509
v -1.080480 -3.715672 -3.325377
v -2.055196 -3.715672 -2.828735
v -2.828735 -3.715672 -2.055196
v -3.325377 -3.715672 -1.080480
v -3.496508 -3.715672 0.000001
v -3.325377 -3.715672 1.080481
v -2.828734 -3.715672 2.055197
v -2.055196 -3.715672 2.828735
v -1.080480 -3.715672 3.325378
v 0.000000 -3.715672 3.496509
v 1.080481 -3.715672 3.325377
v 2.055196 -3.715672 2.828735
v 2.828735 -3.715672 2.055196
v 3.325377 -3.715672 1.080481
v 3.496508 -3.715672 0.000001
v 3.325379 3.715672 -1.080480
v 2.828737 3.715672 -2.055196
v 2.055197 3.715672 -2.828735
v 1.080481 3.715672 -3.325378
v 0.000000 3.715672 -3.496509
v -1.080480 3.715672 -3.325377
v -2.055196 3.715672 -2.828735
v -2.828735 3.715672 -2.055196
v -3.325377 3.715672 -1.080480
v -3.496508 3.715672 0.000001
v -3.325377 3.715672 1.080481
v -2.828734 3.715672 2.055197
v -2.055196 3.715672 2.828735
v -1.080480 3.715672 3.325378
v 0.000000 3.715672 3.496509
v 1.080481 3.715672 3.325377
v 2.055196 3.715672 2.828735
v 2.828735 3.715672 2.055196
v 3.325377 3.715672 1.080481
v 3.496508 3.715672 0.000001
vt 0.648603 0.107966
vt 0.626409 0.064408
vt 0.591842 0.029841
vt 0.548284 0.007647
vt 0.500000 -0.000000
vt 0.451716 0.007647
vt 0.408159 0.029841
vt 0.373591 0.064409
vt 0.351397 0.107966
vt 0.343750 0.156250
vt 0.351397 0.204534
vt 0.373591 0.248091
vt 0.408159 0.282659
vt 0.451716 0.304853
vt 0.500000 0.312500
vt 0.548284 0.304853
vt 0.591841 0.282659
vt 0.626409 0.248091
vt 0.648603 0.204534
vt 0.656250 0.156250
vt 0.375000 0.312500
vt 0.387500 0.312500
vt 0.400000 0.312500
vt 0.412500 0.312500
vt 0.425000 0.312500
vt 0.437500 0.312500
vt 0.450000 0.312500
vt 0.462500 0.312500
vt 0.475000 0.312500
vt 0.487500 0.312500
vt 0.500000 0.312500
vt 0.512500 0.312500
vt 0.525000 0.312500
vt 0.537500 0.312500
vt 0.550000 0.312500
vt 0.562500 0.312500
vt 0.575000 0.312500
vt 0.587500 0.312500
vt 0.600000 0.312500
vt 0.612500 0.312500
vt 0.625000 0.312500
vt 0.375000 0.687500
vt 0.387500 0.687500
vt 0.400000 0.687500
vt 0.412500 0.687500
vt 0.425000 0.687500
vt 0.437500 0.687500
vt 0.450000 0.687500
vt 0.462500 0.687500
vt 0.475000 0.687500
vt 0.487500 0.687500
vt 0.500000 0.687500
vt 0.512500 0.687500
vt 0.525000 0.687500
vt 0.537500 0.687500
vt 0.550000 0.687500
vt 0.562500 0.687500
vt 0.575000 0.687500
vt 0.587500 0.687500
vt 0.600000 0.687500
vt 0.612500 0.687500
vt 0.625000 0.687500
vt 0.648603 0.795466
vt 0.626409 0.751908
vt 0.591842 0.717341
vt 0.548284 0.695147
vt 0.500000 0.687500
vt 0.451716 0.695147
vt 0.408159 0.717341
vt 0.373591 0.751909
vt 0.351397 0.795466
vt 0.343750 0.843750
vt 0.351397 0.892034
vt 0.373591 0.935591
vt 0.408159 0.970159
vt 0.451716 0.992353
vt 0.500000 1.000000
vt 0.548284 0.992353
vt 0.591841 0.970159
vt 0.626409 0.935591
vt 0.648603 0.892034
vt 0.656250 0.843750
vt 0.626409 0.064408
vt 0.648603 0.107966
vt 0.591842 0.029841
vt 0.548284 0.007647
vt 0.500000 -0.000000
vt 0.451716 0.007647
vt 0.408159 0.029841
vt 0.373591 0.064409
vt 0.351397 0.107966
vt 0.343750 0.156250
vt 0.351397 0.204534
vt 0.373591 0.248091
vt 0.408159 0.282659
vt 0.451716 0.304853
vt 0.500000 0.312500
vt 0.548284 0.304853
vt 0.591841 0.282659
vt 0.626409 0.248091
vt 0.648603 0.204534
vt 0.656250 0.156250
vt 0.648603 0.892034
vt 0.626409 0.935591
vt 0.591841 0.970159
vt 0.548284 0.992353
vt 0.500000 1.000000
vt 0.451716 0.992353
vt 0.408159 0.970159
vt 0.373591 0.935591
vt 0.351397 0.892034
vt 0.343750 0.843750
vt 0.351397 0.795466
vt 0.373591 0.751909
vt 0.408159 0.717341
vt 0.451716 0.695147
vt 0.500000 0.687500
vt 0.548284 0.695147
vt 0.591842 0.717341
vt 0.626409 0.751908
vt 0.648603 0.795466
vt 0.656250 0.843750
vn 0.951057 0.000000 -0.309016
vn 0.809017 0.000000 -0.587785
vn 0.809017 0.000000 -0.587785
vn 0.951057 0.000000 -0.309016
vn 0.587785 0.000000 -0.809017
vn 0.587785 0.000000 -0.809017
vn 0.309017 0.000000 -0.951057
vn 0.309017 0.000000 -0.951057
vn 0.000000 0.000000 -1.000000
vn 0.000000 0.000000 -1.000000
vn -0.309017 0.000000 -0.951056
vn -0.309017 0.000000 -0.951056
vn -0.587786 0.000000 -0.809017
vn -0.587786 0.000000 -0.809017
vn -0.809017 0.000000 -0.587785
vn -0.809017 0.000000 -0.587785
vn -0.951057 0.000000 -0.309017
vn -0.951057 0.000000 -0.309017
vn -1.000000 0.000000 -0.000000
vn -1.000000 0.000000 -0.000000
vn -0.951057 0.000000 0.309017
vn -0.951057 0.000000 0.309017
vn -0.809017 0.000000 0.587785
vn -0.809017 0.000000 0.587785
vn -0.587785 0.000000 0.809017
vn -0.587785 0.000000 0.809017
vn -0.309017 0.000000 0.951057
vn -0.309017 0.000000 0.951057
vn 0.000000 0.000000 1.000000
vn 0.000000 0.000000 1.000000
vn 0.309017 0.000000 0.951056
vn 0.309017 0.000000 0.951056
vn 0.587785 0.000000 0.809017
vn 0.587785 0.000000 0.809017
vn 0.809017 0.000000 0.587785
vn 0.809017 0.000000 0.587785
vn 0.951057 0.000000 0.309017
vn 0.951057 0.000000 0.309017
vn 1.000000 0.000000 0.000001
vn 1.000000 0.000000 0.000001
vn 0.000000 -1.000000 -0.000000
vn 0.000000 -1.000000 -0.000000
vn 0.000000 -1.000000 -0.000000
vn 0.000000 -1.000000 -0.000000
vn 0.000000 -1.000000 0.000001
vn 0.000000 -1.000000 0.000001
vn 0.000000 -1.000000 0.000001
vn 0.000000 -1.000000 0.000001
vn 0.000000 -1.000000 0.000000
vn 0.000000 -1.000000 0.000000
vn 0.000000 -1.000000 0.000000
vn 0.000000 -1.000000 0.000000
vn 0.000000 -1.000000 0.000000
vn 0.000000 -1.000000 0.000000
vn 0.000000 -1.000000 0.000000
vn 0.000000 -1.000000 0.000000
vn 0.000000 -1.000000 0.000001
vn 0.000000 -1.000000 0.000001
vn 0.000000 -1.000000 0.000001
vn 0.000000 -1.000000 0.000001
vn 0.000000 -1.000000 0.000000
vn 0.000000 -1.000000 0.000000
vn 0.000000 -1.000000 0.000000
vn 0.000000 -1.000000 0.000000
vn 0.000000 -1.000000 0.000001
vn 0.000000 -1.000000 0.000001
vn 0.000000 -1.000000 0.000001
vn 0.000000 -1.000000 0.000001
vn 0.000000 -1.000000 0.000000
vn 0.000000 -1.000000 0.000000
vn 0.000000 -1.000000 0.000000
vn 0.000000 -1.000000 0.000000
vn 0.000000 -1.000000 0.000000
vn 0.000000 -1.000000 0.000000
vn 0.000000 -1.000000 0.000000
vn 0.000000 -1.000000 0.000000
vn 0.000000 -1.000000 0.000000
vn 0.000000 -1.000000 0.000000
vn 0.000000 -1.000000 0.000000
vn 0.000000 -1.000000 0.000000
vn 0.000000 -1.000000 0.000000
vn 0.000000 -1.000000 0.000000
vn 0.000000 -1.000000 0.000000
vn 0.000000 -1.000000 0.000000
vn 0.000000 -1.000000 -0.000000
vn 0.000000 -1.000000 -0.000000
vn 0.000000 -1.000000 -0.000000
vn 0.000000 -1.000000 -0.000000
vn 0.000000 -1.000000 -0.000000
vn 0.000000 -1.000000 -0.000000
vn 0.000000 -1.000000 -0.000000
vn 0.000000 -1.000000 -0.000000
vn 0.000000 -1.000000 0.000000
vn 0.000000 -1.000000 0.000000
vn 0.000000 -1.000000 0.000000
vn 0.000000 -1.000000 0.000000
vn 0.000000 -1.000000 -0.000001
vn 0.000000 -1.000000 -0.000001
vn 0.000000 -1.000000 -0.000001
vn 0.000000 -1.000000 -0.000001
vn 0.000000 -1.000000 0.000000
vn 0.000000 -1.000000 0.000000
vn 0.000000 -1.000000 0.000000
vn 0.000000 -1.000000 0.000000
vn 0.000000 -1.000000 -0.000000
vn 0.000000 -1.000000 -0.000000
vn 0.000000 -1.000000 -0.000000
vn 0.000000 -1.000000 -0.000000
vn 0.000000 -1.000000 0.000000
vn 0.000000 -1.000000 0.000000
vn 0.000000 -1.000000 0.000000
vn 0.000000 -1.000000 0.000000
vn 0.000000 -1.000000 0.000000
vn 0.000000 -1.000000 0.000000
vn 0.000000 -1.000000 0.000000
vn 0.000000 -1.000000 0.000000
vn 0.000000 -1.000000 0.000000
vn 0.000000 -1.000000 0.000000
vn 0.000000 -1.000000 0.000000
vn 0.000000 -1.000000 0.000000
vn 0.000000 1.000000 0.000000
vn 0.000000 1.000000 0.000000
vn 0.000000 1.000000 0.000000
vn 0.000000 1.000000 0.000000
vn 0.000000 1.000000 0.000001
vn 0.000000 1.000000 0.000001
vn 0.000000 1.000000 0.000001
vn 0.000000 1.000000 0.000001
vn 0.000000 1.000000 0.000001
vn 0.000000 1.000000 0.000001
vn 0.000000 1.000000 0.000001
vn 0.000000 1.000000 0.000001
vn 0.000000 1.000000 0.000001
vn 0.000000 1.000000 0.000001
vn 0.000000 1.000000 0.000001
vn 0.000000 1.000000 0.000001
vn 0.000000 1.000000 -0.000000
vn 0.000000 1.000000 -0.000000
vn 0.000000 1.000000 -0.000000
vn 0.000000 1.000000 -0.000000
vn 0.000000 1.000000 0.000000
vn 0.000000 1.000000 0.000000
vn 0.000000 1.000000 0.000000
vn 0.000000 1.000000 0.000000
vn 0.000000 1.000000 0.000000
vn 0.000000 1.000000 0.000000
vn 0.000000 1.000000 0.000000
vn 0.000000 1.000000 0.000000
vn 0.000000 1.000000 0.000000
vn 0.000000 1.000000 0.000000
vn 0.000000 1.000000 0.000000
vn 0.000000 1.000000 0.000000
vn 0.000000 1.000000 0.000000
vn 0.000000 1.000000 0.000000
vn 0.000000 1.000000 0.000000
vn 0.000000 1.000000 0.000000
vn 0.000000 1.000000 -0.000000
vn 0.000000 1.000000 -0.000000
vn 0.000000 1.000000 -0.000000
vn 0.000000 1.000000 -0.000000
vn 0.000000 1.000000 -0.000000
vn 0.000000 1.000000 -0.000000
vn 0.000000 1.000000 -0.000000
vn 0.000000 1.000000 -0.000000
vn 0.000000 1.000000 -0.000000
vn 0.000000 1.000000 -0.000000
vn 0.000000 1.000000 -0.000000
vn 0.000000 1.000000 -0.000000
vn 0.000000 1.000000 -0.000000
vn 0.000000 1.000000 -0.000000
vn 0.000000 1.000000 -0.000000
vn 0.000000 1.000000 -0.000000
vn 0.000000 1.000000 -0.000001
vn 0.000000 1.000000 -0.000001
vn 0.000000 1.000000 -0.000001
vn 0.000000 1.000000 -0.000001
vn 0.000000 1.000000 -0.000000
vn 0.000000 1.000000 -0.000000
vn 0.000000 1.000000 -0.000000
vn 0.000000 1.000000 -0.000000
vn 0.000000 1.000000 0.000001
vn 0.000000 1.000000 0.000001
vn 0.000000 1.000000 0.000001
vn 0.000000 1.000000 0.000001
vn 0.000000 1.000000 -0.000001
vn 0.000000 1.000000 -0.000001
vn 0.000000 1.000000 -0.000001
vn 0.000000 1.000000 -0.000001
vn 0.000000 1.000000 0.000000
vn 0.000000 1.000000 0.000000
vn 0.000000 1.000000 0.000000
vn 0.000000 1.000000 0.000000
vn 0.000000 1.000000 0.000000
vn 0.000000 1.000000 0.000000
vn 0.000000 1.000000 0.000000
vn 0.000000 1.000000 0.000000
vn 0.000000 1.000000 0.000000
vn 0.000000 1.000000 0.000000
vn 0.000000 1.000000 0.000000
vn 0.000000 1.000000 0.000000
vn -0.809017 0.000000 0.587785
vn -0.951057 0.000000 0.309016
vn -0.951057 0.000000 0.309016
vn -0.809017 0.000000 0.587785
vn -1.000000 0.000000 -0.000001
vn -1.000000 0.000000 -0.000001
vn -0.951057 0.000000 -0.309017
vn -0.951057 0.000000 -0.309017
vn -0.809017 0.000000 -0.587785
vn -0.809017 0.000000 -0.587785
vn -0.587785 0.000000 -0.809017
vn -0.587785 0.000000 -0.809017
vn -0.309017 0.000000 -0.951057
vn -0.309017 0.000000 -0.951057
vn -0.000000 0.000000 -1.000000
vn -0.000000 0.000000 -1.000000
vn 0.309017 0.000000 -0.951057
vn 0.309017 0.000000 -0.951057
vn 0.587785 0.000000 -0.809017
vn 0.587785 0.000000 -0.809017
vn 0.809017 0.000000 -0.587786
vn 0.809017 0.000000 -0.587786
vn 0.951057 0.000000 -0.309017
vn 0.951057 0.000000 -0.309017
vn 1.000000 0.000000 -0.000000
vn 1.000000 0.000000 -0.000000
vn 0.951057 0.000000 0.309017
vn 0.951057 0.000000 0.309017
vn 0.809017 0.000000 0.587785
vn 0.809017 0.000000 0.587785
vn 0.587785 0.000000 0.809017
vn 0.587785 0.000000 0.809017
vn 0.309017 0.000000 0.951057
vn 0.309017 0.000000 0.951057
vn 0.000000 0.000000 1.000000
vn 0.000000 0.000000 1.000000
vn -0.309017 0.000000 0.951057
vn -0.309017 0.000000 0.951057
vn -0.587785 0.000000 0.809017
vn -0.587785 0.000000 0.809017
s 1
g pCylinder1
f 1/21/1 2/22/2 22/43/3 21/42/4
f 2/22/2 3/23/5 23/44/6 22/43/3
f 3/23/5 4/24/7 24/45/8 23/44/6
f 4/24/7 5/25/9 25/46/10 24/45/8
f 5/25/9 6/26/11 26/47/12 25/46/10
f 6/26/11 7/27/13 27/48/14 26/47/12
f 7/27/13 8/28/15 28/49/16 27/48/14
f 8/28/15 9/29/17 29/50/18 28/49/16
f 9/29/17 10/30/19 30/51/20 29/50/18
f 10/30/19 11/31/21 31/52/22 30/51/20
f 11/31/21 12/32/23 32/53/24 31/52/22
f 12/32/23 13/33/25 33/54/26 32/53/24
f 13/33/25 14/34/27 34/55/28 33/54/26
f 14/34/27 15/35/29 35/56/30 34/55/28
f 15/35/29 16/36/31 36/57/32 35/56/30
f 16/36/31 17/37/33 37/58/34 36/57/32
f 17/37/33 18/38/35 38/59/36 37/58/34
f 18/38/35 19/39/37 39/60/38 38/59/36
f 19/39/37 20/40/39 40/61/40 39/60/38
f 20/40/39 1/41/1 21/62/4 40/61/40
s off
f 2/2/41 1/1/42 41/84/43 42/83/44
f 3/3/45 2/2/46 42/83/47 43/85/48
f 4/4/49 3/3/50 43/85/51 44/86/52
f 5/5/53 4/4/54 44/86/55 45/87/56
f 6/6/57 5/5/58 45/87/59 46/88/60
f 7/7/61 6/6/62 46/88/63 47/89/64
f 8/8/65 7/7/66 47/89/67 48/90/68
f 9/9/69 8/8/70 48/90/71 49/91/72
f 10/10/73 9/9/74 49/91/75 50/92/76
f 11/11/77 10/10/78 50/92/79 51/93/80
f 12/12/81 11/11/82 51/93/83 52/94/84
f 13/13/85 12/12/86 52/94/87 53/95/88
f 14/14/89 13/13/90 53/95/91 54/96/92
f 15/15/93 14/14/94 54/96/95 55/97/96
f 16/16/97 15/15/98 55/97/99 56/98/100
f 17/17/101 16/16/102 56/98/103 57/99/104
f 18/18/105 17/17/106 57/99/107 58/100/108
f 19/19/109 18/18/110 58/100/111 59/101/112
f 20/20/113 19/19/114 59/101/115 60/102/116
f 1/1/117 20/20/118 60/102/119 41/84/120
f 21/81/121 22/80/122 62/104/123 61/103/124
f 22/80/125 23/79/126 63/105/127 62/104/128
f 23/79/129 24/78/130 64/106/131 63/105/132
f 24/78/133 25/77/134 65/107/135 64/106/136
f 25/77/137 26/76/138 66/108/139 65/107/140
f 26/76/141 27/75/142 67/109/143 66/108/144
f 27/75/145 28/74/146 68/110/147 67/109/148
f 28/74/149 29/73/150 69/111/151 68/110/152
f 29/73/153 30/72/154 70/112/155 69/111/156
f 30/72/157 31/71/158 71/113/159 70/112/160
f 31/71/161 32/70/162 72/114/163 71/113/164
f 32/70/165 33/69/166 73/115/167 72/114/168
f 33/69/169 34/68/170 74/116/171 73/115/172
f 34/68/173 35/67/174 75/117/175 74/116/176
f 35/67/177 36/66/178 76/118/179 75/117/180
f 36/66/181 37/65/182 77/119/183 76/118/184
f 37/65/185 38/64/186 78/120/187 77/119/188
f 38/64/189 39/63/190 79/121/191 78/120/192
f 39/63/193 40/82/194 80/122/195 79/121/196
f 40/82/197 21/81/198 61/103/199 80/122/200
s 2
f 42/83/201 41/84/202 61/103/203 62/104/204
f 41/84/202 60/102/205 80/122/206 61/103/203
f 60/102/205 59/101/207 79/121/208 80/122/206
f 59/101/207 58/100/209 78/120/210 79/121/208
f 58/100/209 57/99/211 77/119/212 78/120/210
f 57/99/211 56/98/213 76/118/214 77/119/212
f 56/98/213 55/97/215 75/117/216 76/118/214
f 55/97/215 54/96/217 74/116/218 75/117/216
f 54/96/217 53/95/219 73/115/220 74/116/218
f 53/95/219 52/94/221 72/114/222 73/115/220
f 52/94/221 51/93/223 71/113/224 72/114/222
f 51/93/223 50/92/225 70/112/226 71/113/224
f 50/92/225 49/91/227 69/111/228 70/112/226
f 49/91/227 48/90/229 68/110/230 69/111/228
f 48/90/229 47/89/231 67/109/232 68/110/230
f 47/89/231 46/88/233 66/108/234 67/109/232
f 46/88/233 45/87/235 65/107/236 66/108/234
f 45/87/235 44/86/237 64/106/238 65/107/236
f 44/86/237 43/85/239 63/105/240 64/106/238
f 43/85/239 42/83/201 62/104/204 63/105/240
